<svg width="50" height="53" fill="none" xmlns="http://www.w3.org/2000/svg"><path opacity=".95" d="M39.038 15.17l-5.891-4.978a2.862 2.862 0 00-2.18-.65 3.15 3.15 0 00-2.062 1.133l-4.85 5.871-5.55-4.687a2.862 2.862 0 00-2.179-.65 3.15 3.15 0 00-2.061 1.132l-5.15 6.234a3.218 3.218 0 00-.737 2.253c.054.807.42 1.546 1.021 2.053l5.552 4.69 10.416 8.8 9.105-11.022 4.851-5.871a3.22 3.22 0 00.737-2.255 2.927 2.927 0 00-1.022-2.054z" fill="#FF502F"/><path opacity=".95" d="M10.667 37.788l5.864 5.01c.597.51 1.38.748 2.176.662a3.15 3.15 0 002.067-1.122l4.884-5.844 5.523 4.718c.597.51 1.38.748 2.176.662a3.15 3.15 0 002.067-1.122l5.185-6.205a3.217 3.217 0 00.748-2.248 2.928 2.928 0 00-1.01-2.059l-5.525-4.72-10.368-8.857-9.165 10.971-4.883 5.844a3.218 3.218 0 00-.75 2.25c.049.81.412 1.55 1.01 2.06z" fill="#FF502F"/></svg>