<svg width="153" height="130" fill="none" xmlns="http://www.w3.org/2000/svg"><path d="M147.004 32.247l-28.736-27.6c-2.927-2.81-6.713-4.372-10.525-4.34-3.812.033-7.338 1.657-9.802 4.514L75.16 31.24 48.095 5.246C45.168 2.434 41.38.873 37.569.906c-3.812.032-7.338 1.656-9.802 4.513L3.58 33.47C1.115 36.326-.086 40.183.242 44.192c.327 4.008 2.156 7.84 5.083 10.65l27.08 26.009 50.802 48.799 42.763-49.596 22.782-26.42c2.468-2.857 3.671-6.718 3.343-10.73-.328-4.011-2.16-7.846-5.091-10.657z" fill="#FF502F"/></svg>