<svg width="477" height="347" fill="none" xmlns="http://www.w3.org/2000/svg"><path d="M129.151 87.105L290.26 146.53l-55.261 125.594L.497 170.355l56.908-37.984 71.746-45.266z" fill="#4BAEBD"/><path d="M449.477 220.436l-12.227-57.311 23.689 8.231-10.685-39.599-56.447-23.294-1.919-20.078 23.672 8.453-3.489-18.508 16.038 7.621-4.121-17.546-7.618-6.85-6.616-22.836-4.255-11.424-35.081-13.877-1.024 4.615-16.567-9.439-2.321 6.983-28.881-10.352-4.421 8.184-25.943-10.83-12.908 11.198L229.628.349l-21.479 15.322-4.337 2.727-41.997-12.432-60.359 34.972 103.686 32.835 41.966-36.616 56.719 15.398 10.855-20.807 36.943 14.333 4.573-13.079 23.877 8.689-3.91 4.427-1.329 11.506-22.339-6.916-3.581 17.602-32.229-11.797-12.459 27.168-49.444-18.603-39.23 47.495 132.944 48.451-4.603 28.014 104.217 34.653 1.365-3.255zm-92.483-88.732l4.467-26.239 23.416 10.331-.47 26.499-27.413-10.591zm-68.191 49.845l126.915 42.708 16.07 122.101-185.168-51.183 42.183-113.626z" fill="#4BAEBD"/><path d="M259.433 138.283l-15.464 28.533-15.566 28.414c-5.189 9.471-10.275 19.06-15.789 28.399-2.697 4.618-5.513 9.339-8.432 13.942l-4.319 6.853c-1.519 2.353-2.919 4.603-4.54 6.838-.12.104-.12.104-.222-.014 0 0-.103-.118.017-.222 1.194-2.486 2.27-4.868 3.464-7.354l3.687-7.34c2.492-4.854 5.086-9.59 7.681-14.325 5.189-9.472 10.804-18.692 16.318-28.031l16.54-28.016 16.642-27.899c.12-.103.12-.103.222.015l-.239.207zm4.152 1.164l-14.832 29.019-14.935 28.901c-4.984 9.708-9.745 19.43-15.156 28.887-2.595 4.736-5.411 9.457-8.108 14.075l-4.216 6.971c-1.4 2.249-2.919 4.603-4.319 6.852-.119.104-.119.104-.222-.014 0 0-.102-.118.017-.222.973-2.5 2.168-4.986 3.362-7.472l3.465-7.355a610.304 610.304 0 017.254-14.576c4.984-9.707 10.394-19.164 15.686-28.517l15.908-28.504 16.01-28.385c.12-.104.12-.104.222.015-.119.103-.017.221-.136.325zm5.327.346l-14.833 29.019-14.934 28.901c-4.984 9.708-9.746 19.43-15.157 28.887-2.594 4.735-5.41 9.457-8.107 14.074l-4.217 6.971c-1.399 2.25-2.918 4.603-4.318 6.853-.12.104-.12.104-.222-.015 0 0-.103-.118.017-.221.973-2.501 2.167-4.987 3.362-7.473l3.465-7.354a610.284 610.284 0 017.253-14.576c4.984-9.708 10.395-19.165 15.686-28.518l15.806-28.621 15.908-28.504c.12-.103.12-.103.222.015l.069.562zm3.93 2.598l-14.269 28.944-14.371 28.826c-4.864 9.604-9.404 19.341-14.593 28.812-2.594 4.736-5.189 9.472-7.886 14.089l-3.994 6.986c-1.4 2.249-2.697 4.617-4.216 6.971-.119.103-.12.103-.222-.015 0 0-.103-.118.017-.222.973-2.5 2.167-4.986 3.243-7.368l3.345-7.251c2.27-4.868 4.54-9.737 7.031-14.59 4.762-9.723 10.054-19.076 15.123-28.443l15.242-28.547 15.345-28.429c.119-.103.119-.103.222.015 0 0-.12.103-.017.222zm4.525 2.076l-13.483 28.884-13.705 28.87c-4.642 9.618-8.96 19.369-13.808 28.751-2.372 4.751-4.966 9.486-7.441 14.118l-3.772 7c-1.298 2.368-2.697 4.618-3.995 6.985-.119.104-.119.104-.221-.014l-.103-.118c.973-2.501 2.048-4.883 3.021-7.383l3.242-7.369c2.048-4.883 4.318-9.751 6.588-14.619 4.42-9.633 9.49-19.001 14.354-28.605l14.456-28.486 14.679-28.472c.119-.104.119-.104.222.014l-.034.444zm4.644 1.973l-12.304 29.518-12.305 29.518c-4.096 9.766-7.987 19.768-12.526 29.504-2.27 4.869-4.421 9.633-6.913 14.487l-3.567 7.236c-1.297 2.368-2.372 4.75-3.669 7.118-.12.104-.12.104-.222-.014l-.103-.119c.87-2.618 1.724-5.015 2.696-7.515l2.918-7.502c1.946-5.001 3.994-9.883 5.939-14.884 4.096-9.766 8.636-19.502 13.056-29.135l13.278-29.12 13.38-29.003.12-.103c.239-.208.341-.09.222.014zm-31.269-9.725l-16.557 28.238-16.66 28.12c-5.513 9.339-10.924 18.796-16.762 28.002-2.919 4.603-5.838 9.206-8.859 13.691l-4.541 6.838c-1.622 2.236-3.021 4.485-4.746 6.602-.119.104-.119.104-.222-.014 0 0-.102-.118.017-.222 1.195-2.486 2.492-4.854 3.79-7.221l3.891-7.104c2.595-4.736 5.411-9.457 8.227-14.178 5.514-9.339 11.574-18.531 17.412-27.737l17.513-27.618 17.616-27.501c.12-.103.12-.103.222.015-.324-.133-.324-.133-.341.089zm-2.599-3.96l-17.735 29.053-17.838 28.935c-5.872 9.65-11.744 19.3-17.94 28.817-3.158 4.811-6.299 9.399-9.559 14.092l-4.883 6.927a659.197 659.197 0 00-4.984 6.81c-.12.103-.12.103-.222-.015 0 0-.103-.118.017-.222 1.314-2.589 2.731-5.061 4.028-7.429l4.25-7.414c2.833-4.943 5.769-9.768 8.705-14.593 5.872-9.65 12.393-19.035 18.47-28.448l18.692-28.434 18.794-28.315c.12-.104.12-.104.222.014-.119.104-.119.104-.017.222zm-4.062-.82l-18.025 28.477-18.248 28.462c-6.077 9.414-11.949 19.064-18.35 28.345-3.141 4.588-6.402 9.281-9.765 13.855l-4.984 6.809c-1.622 2.235-3.363 4.574-5.087 6.691-.12.104-.12.104-.222-.014 0 0-.103-.118.017-.222 1.416-2.471 2.833-4.943 4.13-7.311l4.353-7.296c2.936-4.825 5.974-9.532 8.91-14.357 5.975-9.532 12.478-18.694 18.88-27.975l18.982-27.858 19.085-27.739c.119-.104.119-.104.222.015.119-.104.102.118.102.118zm-4.901-1.544l-18.094 27.915-18.197 27.797c-6.06 9.192-11.915 18.62-18.299 27.679-3.243 4.47-6.384 9.059-9.628 13.53l-4.967 6.587c-1.725 2.117-3.346 4.352-5.19 6.573-.12.104-.12.104-.222-.014 0 0-.103-.118.017-.222 1.297-2.368 2.816-4.721 4.233-7.193l4.336-7.074c2.816-4.722 5.855-9.428 8.996-14.017 5.957-9.31 12.444-18.251 18.828-27.31l18.931-27.192 19.154-27.177c.119-.104.119-.104.222.014-.222-.014-.12.104-.12.104zm-4.409-2.185l-18.504 27.442-18.726 27.428c-6.282 9.178-12.342 18.369-18.829 27.31-3.244 4.471-6.487 8.941-9.935 13.175l-5.071 6.47c-1.724 2.117-3.448 4.234-5.292 6.455-.119.104-.119.104-.222-.015 0 0-.102-.118.017-.221 1.417-2.472 2.817-4.722 4.336-7.075l4.438-6.956c3.038-4.707 6.06-9.192 9.201-13.781 6.162-9.073 12.871-18 19.358-26.941l19.461-26.823 19.563-26.705c.119-.103.119-.103.222.015 0 0 .102.118-.017.222zm-5.756-2.048l-18.675 26.763-18.897 26.748c-6.265 8.956-12.308 17.925-19 26.63-3.346 4.352-6.572 8.601-9.918 12.953l-5.173 6.352c-1.724 2.117-3.449 4.234-5.275 6.233-.12.104-.12.104-.222-.015 0 0-.103-.118.017-.221 1.399-2.25 2.919-4.603 4.438-6.957l4.541-6.838c3.021-4.485 6.162-9.074 9.286-13.44 6.265-8.956 12.94-17.439 19.529-26.262l19.632-26.143 19.734-26.024c.119-.104.119-.104.222.014-.342.089-.239.207-.239.207zm-13.645-.999l-10.96 14.892-11.062 14.774c-3.721 4.885-7.238 10.007-11.284 14.759-4.046 4.753-8.075 9.284-12.548 13.786-.119.103-.119.103-.222-.015 0 0-.102-.118.017-.222 3.09-5.372 6.709-10.375 10.328-15.379 3.619-5.003 7.767-9.638 11.694-14.287l11.916-14.272 12.018-14.154c.12-.104.12-.104.222.014l-.119.104zm-5.328-.346l-9.44 12.539-9.543 12.42c-3.209 4.027-6.111 8.408-9.645 12.303-3.534 3.894-7.068 7.788-11.012 11.21-.119.104-.119.104-.222-.015 0 0-.102-.118.017-.221 2.697-4.618 5.702-8.881 8.809-13.026 3.107-4.145 6.743-7.921 10.174-11.934l10.278-11.815 10.379-11.697c.12-.104.12-.104.222.015.103.118.103.118-.017.221z" fill="#3A8A9D"/><path d="M283.667 149.56l-30.332-10.335-30.316-10.557c-10.111-3.445-20.341-6.787-30.298-10.779a612.592 612.592 0 01-14.945-5.878l-7.344-3.153c-2.476-1.165-4.97-2.107-7.327-3.376-.103-.118-.103-.118.017-.221l.119-.104c2.631.617 5.124 1.56 7.754 2.177l7.737 2.398c5.124 1.56 10.23 3.342 15.234 5.005 10.111 3.445 20.069 7.438 30.145 11.327l30.026 11.43 30.008 11.651.103.118c-.359.312-.478.415-.581.297zm.498 5.158l-27.719-9.497-27.822-9.614c-9.24-3.166-18.599-6.227-27.702-9.718-4.543-1.857-9.104-3.491-13.527-5.451l-6.695-2.888c-2.152-1.032-4.424-1.961-6.679-3.111-.102-.118-.102-.118.017-.221l.12-.104c2.408.603 4.697 1.309 7.105 1.912l7.087 2.133 14.039 4.593c9.24 3.165 18.327 6.878 27.43 10.369l27.31 10.473 27.292 10.695.103.118c-.137.325-.256.429-.359.311zm-10.537.65l-29.137-9.923-29.018-10.027c-9.666-3.416-19.47-6.507-29-10.248l-14.295-5.613-7.02-3.021c-2.374-1.046-4.748-2.092-7.003-3.242-.102-.119-.102-.119.017-.222l.12-.104c2.51.721 5.021 1.442 7.429 2.044l7.412 2.266c4.902 1.546 9.684 3.195 14.688 4.858 9.787 3.313 19.197 7.158 28.847 10.796l28.728 10.9 28.71 11.121.102.118c-.461.193-.58.297-.58.297zm4.786 7.448l-26.951-9.335-26.951-9.335c-9.017-3.151-18.052-6.08-26.933-9.556-4.441-1.738-8.882-3.477-13.203-5.319l-6.593-2.77c-2.152-1.032-4.423-1.96-6.575-2.992-.103-.118-.103-.118.017-.222l.119-.103c2.408.602 4.595 1.191 6.883 1.897l6.866 2.119c4.577 1.413 9.035 2.929 13.492 4.446 9.018 3.151 17.78 6.731 26.661 10.207l26.541 10.312 26.525 10.533.102.118c.12-.104 0 0 0 0zm.359 5.484l-22.186-7.464-22.066-7.567c-7.396-2.488-14.808-4.755-22.05-7.79-7.258-2.813-14.5-5.849-21.486-9.313-.102-.118-.102-.118.017-.222l.12-.104c7.668 1.837 14.961 4.207 22.356 6.695 7.395 2.488 14.637 5.523 21.896 8.337l21.776 8.44 21.657 8.544.102.119c-.017.221-.136.325-.136.325zm-3.979 3.864l-20.563-6.801-20.444-6.904c-6.848-2.341-13.714-4.46-20.426-7.127-6.713-2.666-13.305-5.436-19.864-8.65-.102-.118-.102-.118.017-.222l.12-.104c7.121 1.69 13.987 3.809 20.733 6.032 6.747 2.223 13.442 5.111 20.273 7.674l20.154 7.778 20.034 7.881.103.118c.085.34-.137.325-.137.325zm-4.456 4.281l-29.666-10.292-29.65-10.514c-9.889-3.43-19.778-6.861-29.53-10.617-4.867-1.989-9.752-3.756-14.5-5.849l-7.242-3.035c-2.374-1.047-4.748-2.093-7.225-3.257-.102-.119-.102-.119.017-.222l.12-.104 7.532 2.162 7.514 2.385c5.005 1.663 10.009 3.327 14.893 5.094 9.889 3.43 19.624 7.408 29.377 11.165l29.359 11.386 29.24 11.49.103.119c-.24.207-.24.207-.342.089zm.532 6.165l-26.524-9.084-26.404-9.188c-8.796-3.136-17.728-5.947-26.388-9.409-4.338-1.62-8.659-3.462-12.98-5.304l-6.371-2.756c-2.152-1.032-4.201-1.946-6.353-2.978-.103-.118-.103-.118.017-.221l.119-.104c2.186.588 4.475 1.295 6.78 1.779l6.644 2.105c4.475 1.294 8.932 2.811 13.271 4.431 8.915 3.033 17.455 6.598 26.233 9.957l26.115 10.06 26.097 10.283.102.118c-.256.429-.256.429-.358.311zm-8.944 19.148l-27.309-9.024-27.19-9.127c-9.137-3.047-18.172-5.977-27.173-9.349a73265.02 73265.02 0 00-13.322-5.215l-6.593-2.77c-2.152-1.032-4.423-1.96-6.575-2.992-.103-.118-.103-.118.017-.222l.119-.104c2.408.603 4.594 1.191 6.883 1.897l6.866 2.12c4.577 1.412 9.154 2.825 13.612 4.341 9.137 3.048 18.018 6.524 26.9 10.001l26.899 10 26.883 10.222.103.118c.102.119-.017.222-.12.104zm4.591-14.749l-23.16-7.862-23.039-7.965c-7.72-2.621-15.559-5.137-23.023-8.187-7.583-2.946-15.149-6.114-22.46-9.711-.102-.118-.102-.118.017-.222l.12-.104c7.993 1.97 15.61 4.472 23.33 7.093 7.719 2.62 15.286 5.788 22.869 8.734l22.75 8.839 22.732 9.06.103.118-.239.207zm-7.934 22.001l-25.448-8.568-25.328-8.672c-8.369-2.885-16.977-5.564-25.311-8.893a420.352 420.352 0 01-12.332-5.039l-6.148-2.741c-2.05-.914-4.1-1.828-6.03-2.845-.102-.118-.102-.118.017-.222l.12-.104 6.558 1.765 6.439 1.868c4.253 1.281 8.488 2.782 12.741 4.063 8.369 2.885 16.703 6.215 25.038 9.544l24.919 9.649 24.901 9.87.103.118c-.017.222-.137.325-.239.207zm-2.801 5.947l-17.318-5.475-17.318-5.475c-5.773-1.825-11.563-3.428-17.301-5.697-5.636-2.151-11.255-4.523-16.619-7.324-.102-.119-.102-.119.017-.222l.12-.104c6.046 1.174 11.835 2.777 17.608 4.602 5.773 1.825 11.392 4.197 17.028 6.348l16.909 6.451 17.011 6.57.102.118-.239.208zm-1.996 7.115l-15.935-4.605-15.917-4.826c-5.227-1.678-10.589-3.031-15.799-4.93a130.535 130.535 0 01-15.217-6.676c-.103-.118-.103-.118.017-.222l.119-.104c5.499 1.027 10.862 2.38 16.208 3.954 5.345 1.574 10.418 3.799 15.525 5.581l15.627 5.699 15.508 5.803.103.118-.239.208zm-2.354 7.428l-15.268-4.561-15.149-4.665c-5.124-1.56-10.265-2.898-15.132-4.887-4.987-1.885-9.735-3.978-14.552-6.632-.102-.118-.102-.118.017-.222l.12-.104c5.396.909 10.417 2.351 15.541 3.91 5.124 1.56 9.991 3.549 14.979 5.435l14.961 5.655 14.842 5.76.102.118c-.239.208-.358.311-.461.193zm-4.763 6.822l-17.762-5.504-17.745-5.725c-5.876-1.943-11.887-3.561-17.626-5.83-5.739-2.268-11.58-4.655-17.165-7.471-.102-.118-.103-.118.017-.222l.12-.104a166.622 166.622 0 0118.035 4.853c5.994 1.84 11.614 4.212 17.472 6.377l17.455 6.599 17.335 6.702.103.118-.239.207zm-2.644 8.301l-15.371-4.679-15.252-4.783c-5.123-1.56-10.264-2.898-15.234-5.005-4.987-1.885-9.957-3.992-14.671-6.529-.103-.118-.103-.118.017-.222l.119-.103c5.397.909 10.418 2.35 15.542 3.91 5.123 1.56 10.093 3.667 15.081 5.552l14.961 5.656 14.944 5.878.103.118-.239.207zm-4.199 8.198l-14.278-4.385-14.158-4.489c-4.68-1.531-9.496-2.736-14.141-4.711-4.544-1.856-9.189-3.831-13.459-6.338-.103-.118-.103-.118.017-.222l.119-.104c4.953.88 9.65 2.189 14.449 3.616 4.799 1.427 9.325 3.506 13.868 5.362l13.749 5.465 13.851 5.584.103.118c.102.118-.017.222-.12.104zm-.595 9.213l-15.474-4.798-15.473-4.797c-5.226-1.678-10.367-3.016-15.457-5.02-5.09-2.003-10.06-4.11-14.774-6.647-.102-.118-.102-.118.017-.221l.12-.104c5.397.909 10.64 2.365 15.763 3.925 5.124 1.559 10.094 3.666 15.184 5.67l15.064 5.774 15.047 5.996.102.118c-.017.222-.119.104-.119.104z" fill="#3A8A9D"/><path d="M232.769.109l21.639 5.867 21.622 6.09c7.207 2.03 14.432 3.838 21.622 6.09 7.07 2.355 14.244 4.828 21.041 7.835l.103.118-.12.104c-7.48-1.379-14.704-3.187-21.911-5.217-7.208-2.03-14.278-4.385-21.349-6.741l-21.332-6.962L232.872.227l-.103-.118c-.119.103 0 0 0 0zm15.041 36.649l28.897 7.232 14.449 3.616 14.448 3.616-1.963.876c1.041-1.939 2.082-3.877 3.004-5.712 1.041-1.939 2.082-3.878 3.226-5.698 1.041-1.939 2.185-3.759 3.226-5.698a320.98 320.98 0 013.55-5.565c.12-.104.12-.104.222.014l.103.118c-.717 2.072-1.536 4.025-2.372 6.2-.819 1.953-1.656 4.128-2.475 6.081-.819 1.953-1.758 4.01-2.577 5.963-.938 2.057-1.86 3.892-2.799 5.948-.392.755-1.195 1.037-1.963.876-4.697-1.309-9.479-2.958-14.176-4.267l-14.175-4.268c-9.599-2.854-18.958-5.916-28.334-8.756l-.103-.118c-.41-.472-.188-.458-.188-.458z" fill="#17293B"/><path d="M219.197 9.815l23.193 5.969 23.176 6.191c7.651 2.058 15.542 3.91 23.057 6.294 7.617 2.502 15.132 4.887 22.595 7.936l.103.119-.12.103c-7.924-1.407-15.592-3.244-23.466-5.318-7.77-1.955-15.268-4.561-22.902-6.841l-22.886-7.064-22.869-7.286-.102-.118c.102.118.221.015.221.015z" fill="#17293B"/><path d="M285.161 44.318c.921-1.835 1.826-3.448 2.748-5.283 1.024-1.716 1.826-3.448 2.85-5.164 1.024-1.717 1.724-3.567 2.953-5.047 1.229-1.481 2.68-2.947 4.439-4.058.12-.104.222.014.222.014l.103.118c-.393 2.204-1.195 3.935-2.219 5.652-.922 1.835-2.356 3.079-3.602 4.782-1.229 1.48-2.356 3.079-3.704 4.663-1.229 1.48-2.578 3.065-3.807 4.545-.12.104-.12.104-.222-.014l.239-.208zm-22.699-5.156c1.247-1.703 2.612-3.509 3.756-5.329l3.858-5.211c1.366-1.806 2.509-3.627 4.08-5.196a23.81 23.81 0 015.327-4.001c.12-.103.222.015.222.015s.103.118-.017.222c-.836 2.174-1.98 3.995-3.243 5.919-1.246 1.703-2.919 3.154-4.49 4.724l-4.592 4.606c-1.571 1.569-3.244 3.021-4.696 4.487 0 0-.119.104-.205-.236-.119.103-.017.221 0 0zm-16.175-10.193c1.349-1.584 2.92-3.154 4.268-4.738l4.371-4.62c1.451-1.466 2.817-3.272 4.473-4.502 1.656-1.23 3.534-2.445 5.6-3.202.12-.104.222.014.222.014l-.017.222c-.938 2.057-2.287 3.641-3.755 5.329-1.349 1.584-3.227 2.799-4.883 4.029l-4.986 3.911c-1.656 1.23-3.431 2.564-5.088 3.793 0 0-.222-.014-.205-.236 0 0-.119.104 0 0zm-20.136-6.551c1.571-1.57 3.244-3.022 5.037-4.577l5.139-4.459c1.673-1.451 3.141-3.139 5.241-4.34 1.878-1.215 3.859-2.313 6.25-2.937.119-.104.222.014.222.014l-.017.222c-1.161 2.043-2.851 3.716-4.524 5.168-1.571 1.569-3.654 2.548-5.532 3.764l-5.635 3.646c-1.878 1.215-3.756 2.43-5.737 3.527-.358.312-.358.312-.444-.028-.119.103-.017.221 0 0zm-22.63-4.596c2.134-1.644 4.371-3.171 6.386-4.712l6.488-4.593c2.236-1.527 4.268-3.289 6.59-4.476 2.322-1.186 4.867-2.358 7.479-2.968.12-.104.222.014.103.118 0 0 .102.118-.017.222-1.724 2.117-3.859 3.761-5.993 5.406-2.134 1.644-4.559 2.713-7 4.003l-6.984 3.781c-2.322 1.186-4.764 2.477-7.086 3.663-.12.104-.222-.015-.222-.015.239-.207.256-.429.256-.429z" fill="#17293B"/><path d="M164.565 6.479l88.058 24.237c.546.147.837.724.683 1.271-.017.222-.136.326-.256.429L206.987 74.45c-.478.415-1.041.49-1.485.461-6.661-1.883-13.424-3.884-20.188-5.885-6.763-2.001-13.406-4.105-20.17-6.106-6.763-2.001-13.407-4.106-20.05-6.211a1074.838 1074.838 0 01-19.914-6.535l-.103-.118.12-.104c6.899 1.675 13.577 3.336 20.357 5.115 6.781 1.78 13.561 3.559 20.221 5.441 6.661 1.883 13.441 3.662 20.205 5.663 6.66 1.883 13.424 3.884 20.187 5.885l-1.588.342 46.9-41.31.427 1.7-87.478-25.984-.102-.118c.136-.325.136-.325.239-.207z" fill="#17293B"/><path d="M228.498 47.093l-19.931-4.865-19.811-4.968c-6.678-1.661-13.373-3.1-19.794-5.19-6.542-1.987-13.066-4.195-19.334-6.833l-.102-.118.119-.103c6.729.995 13.526 2.552 20.101 4.095 6.678 1.661 13.1 3.751 19.641 5.738l19.624 5.959 19.504 6.063.102.118c.103.119-.017.222-.119.104z" fill="#17293B"/><path d="M175.647 61.264l12.191-9.127 12.293-9.009c4.132-2.963 8.059-6.163 12.396-8.89 4.337-2.728 8.657-5.233 13.284-7.384.12-.104.222.015.222.015l-.017.221c-3.619 3.555-7.768 6.74-11.678 9.718-4.029 3.082-8.452 5.469-12.686 8.314l-12.789 8.197-12.891 8.078c-.12.103-.222-.015-.222-.015-.222-.014-.103-.118-.103-.118zm-33.149-8.513l12.891-8.078 12.874-7.856c4.217-2.624 8.452-5.469 12.977-7.738s9.049-4.539 13.865-6.231c.119-.104.222.014.222.014l-.017.222c-3.927 3.2-8.162 6.045-12.498 8.772-4.337 2.728-8.845 4.775-13.268 7.162l-13.369 7.044-13.472 6.925c-.12.104-.222-.014-.222-.014-.103-.118.017-.222.017-.222zm33.391-39.737l-12.516 7.546-12.618 7.427c-4.2 2.401-8.315 5.143-12.72 7.309-4.406 2.165-8.794 4.109-13.49 5.698-.119.104-.222-.015-.222-.015l.017-.221c3.807-3.097 8.025-5.72 12.123-8.24 4.098-2.52 8.708-4.449 13.011-6.733l13.113-6.614 13.097-6.393c.119-.104.222.014.222.014.102.119.102.119-.017.222zm81.012 52.091l105.362 38.63c.325.132.632.487.598.93l-7.703 56.794c-.051.665-.751 1.066-1.297.918l-.222-.014-69.103-24.118c-11.511-4.094-23.022-8.187-34.414-12.385l-34.5-12.724c-.649-.265-.94-.842-.769-1.611.119-.104.136-.325.256-.429l18.813-21.292 9.509-10.527 9.509-10.528c.12-.104.12-.104.222.014.103.118.103.119-.017.222l-8.979 10.897-8.98 10.896-18.181 21.779-.513-2.04 34.551 12.059 34.534 12.281 68.693 25.095-1.52.904 8.369-56.75.598.931-104.816-39.932-.102-.118c-.017.222.102.118.102.118z" fill="#17293B"/><path d="M242.341 86.228l28.59 9.776 28.574 9.998c9.564 3.298 19.026 6.478 28.453 10.101a533.256 533.256 0 0113.954 5.702l6.918 2.903c2.374 1.046 4.645 1.974 6.9 3.124.102.118.102.118-.017.222l-.12.104c-2.408-.603-4.799-1.428-7.31-2.148l-7.19-2.252c-4.799-1.427-9.581-3.076-14.363-4.725-9.565-3.298-18.873-7.026-28.181-10.753l-28.061-10.856-28.164-10.974-.103-.118c-.102-.119.017-.222.12-.104z" fill="#17293B"/><path d="M327.815 149.981l2.883-12.854 2.985-12.736c.989-4.171 1.773-8.579 3.104-12.84a104.533 104.533 0 014.744-12.398c.12-.104.12-.104.222.014l.103.119c-.341 4.436-1.125 8.844-2.114 13.015-.887 4.29-2.423 8.314-3.754 12.575l-3.753 12.574-3.976 12.56-.119.104c-.342.089-.444-.029-.325-.133zm-27.669-10.163l3.907-11.673 4.01-11.554c1.416-3.921 2.491-7.752 4.232-11.54 1.741-3.788 3.465-7.355 5.854-10.877.12-.104.12-.104.222.014l.103.118c-.648 4.082-1.842 8.017-3.259 11.938-1.296 3.817-3.14 7.487-4.88 11.275l-4.881 11.275-5.103 11.26-.12.104-.085-.34zm-27.258-11.137c1.331-2.812 2.782-5.727 4.01-8.657l4.114-8.538c1.331-2.811 2.56-5.741 4.335-8.523 1.656-2.679 3.533-5.344 5.719-7.654.119-.104.119-.104.222.015l.102.118c-.802 3.18-2.03 6.11-3.361 8.921-1.332 2.812-3.21 5.476-4.865 8.155l-4.967 8.037c-1.656 2.679-3.312 5.358-5.19 8.022-.119.104-.119.104-.222-.014.086.34.086.34.103.118zm-28.01-10.072l7.442-11.22 7.545-11.102c2.51-3.626 4.814-7.489 7.648-10.983 2.834-3.494 5.77-6.87 9.134-9.995.119-.103.119-.103.222.015 0 0 .102.118-.017.222-1.878 4.113-4.404 7.962-6.811 11.706-2.407 3.745-5.343 7.121-8.177 10.615l-8.28 10.496-8.501 10.482c-.12.103-.12.103-.222-.015-.103-.118.017-.221.017-.221zm60.803-36.394l11.844-26.427c.136-.326.478-.415.803-.282l75.268 28.086c.546.147.837.724 1.025 1.182.684 5.618 1.369 11.236 1.951 16.736l.805 8.412.805 8.413c.052.784-.443 1.42-1.229 1.48l-.666-.043c-5.636-2.15-11.272-4.301-16.789-6.555-2.818-1.075-5.516-2.254-8.334-3.33-2.699-1.178-5.517-2.254-8.318-3.551l-.103-.118.12-.104c2.835.854 5.773 1.825 8.608 2.679 2.835.853 5.772 1.825 8.488 2.782 5.773 1.825 11.426 3.753 17.079 5.682l-1.895 1.437-1.027-8.427-.925-8.309c-.685-5.618-1.147-11.221-1.729-16.721l.905 1.285-74.569-29.936.803-.282-12.493 26.162c-.12.104-.12.104-.222-.015-.222-.014-.325-.132-.205-.236z" fill="#17293B"/><path d="M378.78 110.941c-.257-2.469-.514-4.938-.668-7.289l-.549-7.393c-.154-2.351-.633-4.834-.327-7.378.188-2.44.494-4.984 1.347-7.381l.12-.103.102.118c.821 2.394 1.3 4.877 1.557 7.346.256 2.47-.153 4.895-.34 7.335l-.339 7.335-.562 7.321-.119.103c-.12.104-.12.104-.222-.014zm-17.524-8.609c-.172-2.13-.121-4.244-.19-6.255l.033-6.24c.05-2.115-.241-4.14.151-6.344.376-1.982.87-4.068 1.928-6.228.12-.104.12-.104.222.014l.103.118c.615 2.158.906 4.184.958 6.417.069 2.01-.545 4.2-.818 6.3l-.92 6.182c-.375 1.982-.768 4.186-1.143 6.168l-.119.104-.205-.236zm-17.813-7.736c-.001-1.449.101-2.78.323-4.215.102-1.331.324-2.765.426-4.096.102-1.331.101-2.781.545-4.201.546-1.302 1.092-2.604 2.185-3.759.119-.104.119-.104.222.015l.102.118c.547 1.596.667 2.941.446 4.376 0 1.449-.768 2.737-1.195 3.935-.443 1.42-.87 2.619-1.313 4.039-.546 1.302-.871 2.618-1.417 3.921l-.119.103c-.222-.014-.325-.132-.205-.236zm-18.855-5.798c.375-1.982.75-3.964 1.228-5.828l1.228-5.828c.477-1.863.631-3.86 1.45-5.813.699-1.849 1.724-3.566 3.192-5.254.119-.104.119-.104.222.014l.102.118c.172 2.13.018 4.126-.357 6.108-.375 1.982-1.399 3.699-2.099 5.548l-2.201 5.43c-.7 1.85-1.621 3.685-2.321 5.534l-.12.104-.324-.133z" fill="#17293B"/><path d="M314.882 68.435l18.685 6.567 18.667 6.789c6.183 2.298 12.502 4.27 18.548 6.893 6.046 2.623 12.093 5.246 17.866 8.52.102.118.102.118-.017.222l-.12.104a187.359 187.359 0 01-18.957-5.916c-6.303-2.194-12.229-4.921-18.275-7.544l-18.275-7.544-18.258-7.765-.103-.118c.017-.222.017-.222.239-.208zm35.554-1.031l3.717-17.927c.017-.222.256-.429.7-.4l58.463 23.202c.547.147.735.605.923 1.064.923 3.961 1.624 7.908 2.325 11.855.702 3.947 1.403 7.894 1.985 11.945.171.68-.444 1.42-1.127 1.599-.222-.015-.563.075-.768-.162-3.672-1.576-7.242-3.035-10.795-4.715-3.672-1.577-7.224-3.258-10.777-4.938-.102-.118-.102-.118.017-.222l.12-.104c3.706 1.134 7.634 2.281 11.323 3.636 3.809 1.251 7.395 2.488 11.204 3.739l-1.793 1.555a355.035 355.035 0 01-2.548-11.87c-.923-3.961-1.624-7.908-2.326-11.855l.923 1.063-57.541-25.037.7-.401-4.486 17.766-.12.104c-.136.325-.136.325-.119.103zm27.048-10.833l-.31-10.498c-.086-.34.273-.651.495-.637l.222.015c7.258 2.813 14.278 5.834 21.537 8.648 3.689 1.355 7.139 2.917 10.572 4.701 3.433 1.784 6.747 3.672 10.146 5.9.102.118.102.118-.017.222l-.12.103c-3.825-1.029-7.531-2.162-11.221-3.517-3.689-1.355-7.139-2.917-10.572-4.701-6.986-3.465-13.988-6.708-20.854-10.276l.939-.608-.697 10.545-.12.103c.102.118.102.118 0 0zm16.597-5.496c-.274-2.247-.53-4.716-.685-7.067.034-.444.29-.873.854-.948.119-.103.222.015.222.015l.222.014c1.195.413 2.391.825 3.706 1.133 1.195.413 2.408.603 3.604 1.015 1.195.413 2.271.928 3.33 1.666 1.059.738 2.118 1.476 3.041 2.539.102.118.102.118-.017.222l-.12.104c-1.349.135-2.664-.174-3.877-.364-1.212-.191-2.408-.603-3.706-1.133-1.076-.516-2.254-1.15-3.433-1.785-1.076-.515-2.254-1.15-3.33-1.665l1.297-.919c-.289 2.322-.477 4.762-.766 7.084l-.12.104c-.239.207-.341.089-.222-.015zm31.616 18.333l3.127 7.226 3.008 7.33c.29.576 0 1.449-.802 1.731-.342.089-.683.179-1.008.046l-.222-.014c-1.093-.294-2.186-.589-3.16-.986-.973-.398-1.947-.796-3.023-1.312-.973-.398-1.93-1.017-2.886-1.637-.957-.62-1.913-1.239-2.75-1.962-.103-.119-.103-.119.017-.222l.119-.104c1.23-.031 2.22.145 3.433.335 1.093.294 2.084.47 3.177.764 1.093.294 2.066.692 3.04 1.09.973.398 1.93 1.017 2.903 1.415l-1.809 1.777-1.984-7.597c-.581-2.602-1.282-5.1-1.863-7.701 0 0 .017-.222.119-.104.461-.193.564-.075.564-.075zM282.93 10.844l9.903-8.385c.119-.103.341-.089.341-.089l64.919 24.849c.649.265 1.042.96.871 1.729l-2.012 8.786-2.115 8.669c-.171.769-1.11 1.376-1.879 1.215l-.222-.015c-5.072-2.225-10.042-4.332-15.115-6.557l-7.549-3.39c-2.477-1.164-4.953-2.329-7.532-3.612-.103-.118-.103-.118.017-.221l.119-.104 7.839 2.517 7.823 2.739c5.209 1.899 10.418 3.799 15.508 5.803l-2.203 1.082 2.013-8.786 2.115-8.668.871 1.728L292.56 3.11l.341-.089-10.21 8.03c-.119.104-.119.104-.222-.015.342-.089.461-.192.461-.192z" fill="#17293B"/><path d="M328.305 8.337l26.592 9.646c8.898 3.255 17.677 6.613 26.695 9.764.546.147.837.723 1.025 1.181l.102.119c.291 2.025.36 4.036.429 6.047s.24 4.14.429 6.047c.051.784-.683 1.628-1.468 1.688-.222-.015-.444-.029-.769-.162-3.792-1.473-7.566-3.168-11.221-4.966-1.828-.899-3.775-1.695-5.602-2.594l-5.483-2.698c-.102-.118-.102-.118.017-.222l.12-.104 5.892 1.722c1.964.573 3.928 1.147 5.875 1.943 3.911 1.369 7.72 2.62 11.511 4.093l-2.134 1.645c-.069-2.011-.36-4.036-.429-6.047-.068-2.011-.24-4.14-.309-6.151l.906 1.285c-8.642-3.684-17.404-7.264-26.046-10.948L328.288 8.559l-.103-.118.12-.104z" fill="#17293B"/><path d="M383.096 34.309c1.315.309 2.733.736 4.15 1.162 1.418.427 2.733.736 4.151 1.162 1.417.427 2.852.632 4.133 1.384 1.281.752 2.442 1.608 3.348 2.894.102.118-.017.221-.017.221l-.12.104c-1.69.224-3.125.019-4.543-.407-1.417-.427-2.579-1.283-3.757-1.917-1.281-.752-2.46-1.386-3.741-2.139-1.281-.752-2.459-1.386-3.621-2.242-.102-.118-.102-.118.017-.222-.222-.014-.102-.118 0 0zm-31.393-18.318c.153-1.997.528-3.979.784-5.857.137-.326.376-.533.598-.518l.102.118.103.118c4.355 1.398 8.59 2.9 12.946 4.298 2.186.589 4.235 1.502 6.268 2.638 2.032 1.135 3.962 2.153 5.739 3.718.102.118.102.118-.017.222l-.12.103c-2.442-.159-4.628-.747-6.814-1.335s-4.236-1.502-6.388-2.534c-4.082-2.049-8.181-3.877-12.263-5.926l.82-.504c-.598 1.967-1.075 3.831-1.672 5.799l-.12.103c.137-.325.137-.325.034-.443zM128.998 87.653L110.66 99.836 92.22 111.9c-6.112 4.06-12.122 8.239-18.543 11.946a251.226 251.226 0 01-19.328 10.557c-.12.103-.222-.015-.222-.015l.017-.222c5.822-4.637 11.832-8.816 17.944-12.876 6.113-4.061 12.533-7.767 18.731-11.488l18.833-11.37 18.936-11.251c.12-.104.222.014.222.014.308.355.308.355.188.458zm5.824 1.161l155.66 56.284c.649.265.939.841.666 1.492l-26.247 62.943c-4.369 10.417-8.857 20.937-13.346 31.457l-13.67 31.324c-.273.651-1.076.933-1.622.786-9.889-3.43-19.761-7.083-29.53-10.617-9.769-3.534-19.641-7.187-29.393-10.943l-.103-.118.12-.104c10.025 3.105 19.931 6.314 29.939 9.641 9.906 3.209 19.914 6.536 29.82 9.745l-1.622.786 13.124-31.472c4.368-10.416 8.857-20.936 13.345-31.457l27.118-62.663.667 1.493-154.96-58.133-.103-.118c.017-.222.017-.222.137-.326z" fill="#17293B"/><path d="M264.044 194.54l-47.514-16.135-47.497-16.358c-15.866-5.492-31.647-10.644-47.377-16.461-15.73-5.818-31.46-11.635-46.917-18.103l-.103-.119.12-.103c16.037 4.722 32.023 10.111 47.906 15.381 15.764 5.374 31.597 11.309 47.224 17.008l47.207 17.231 47.088 17.334.102.118c-.017.222-.136.326-.239.207z" fill="#17293B"/><path d="M157.472 101.881l-17.347 15.257-17.449 15.138c-5.856 5.081-11.387 10.294-17.551 15.02-6.061 4.845-12.105 9.467-18.679 13.721-.119.103-.222-.015-.222-.015s-.102-.118.017-.221c5.344-5.672 10.978-10.767 16.834-15.848 5.856-5.08 11.9-9.703 17.962-14.547l18.063-14.43 18.167-14.311s.222.015.205.236zm34.568 11.838l-15.877 16.467-15.98 16.349c-5.327 5.449-10.551 11.017-16.083 16.23a280.448 280.448 0 01-17.329 15.035c-.119.103-.222-.015-.222-.015s-.102-.118.017-.222a282.911 282.911 0 0115.365-17.057c5.327-5.45 10.961-10.545 16.612-15.862l16.714-15.743 16.817-15.625c.119-.104.119-.104.222.014-.239.207-.137.326-.256.429zm30.997 11.826l-18.488 25.772-18.59 25.653c-6.128 8.63-12.256 17.26-18.692 25.536-3.227 4.248-6.436 8.275-9.765 12.406l-5.036 6.025c-1.827 1.999-3.432 4.013-5.258 6.012-.12.103-.12.103-.222-.015 0 0-.103-.118.017-.222 1.399-2.249 2.799-4.499 4.301-6.63l4.404-6.513c2.902-4.382 6.026-8.748 9.031-13.012 6.128-8.629 12.786-16.89 19.222-25.166l19.324-25.048 19.427-24.93c.12-.104.12-.104.222.014.12-.104 0 0 .103.118zm33.749 12.342l-16.165 28.932-16.386 28.918c-5.428 9.679-10.633 19.372-16.488 28.8-2.817 4.721-5.855 9.428-8.774 14.031l-4.438 6.957c-1.52 2.353-3.141 4.588-4.66 6.942-.12.104-.12.103-.222-.015 0 0-.103-.118.016-.221 1.195-2.486 2.39-4.972 3.687-7.34l3.909-7.326a621.51 621.51 0 017.92-14.532c5.427-9.679 11.282-19.107 17.018-28.431l17.24-28.417 17.24-28.416c.12-.104.119-.104.222.014l-.119.104zm33.128 43.737l32.143 10.007 32.023 10.111c10.674 3.37 21.468 6.637 32.125 10.229 10.658 3.592 21.178 7.51 31.699 11.427a.472.472 0 01.41.473c.24 2.691.702 5.396.942 8.087 0 0-.017.222-.12.104 0 0-.222-.015-.102-.118-.684-2.72-1.266-5.322-1.847-7.923l.41.472c-10.811-3.045-21.502-6.193-32.279-9.682-10.657-3.592-21.195-7.288-31.733-10.983l-31.972-10.777-31.716-11.205-.102-.119c-.103-.118.017-.221.119-.103zm-3.073 6.598l-18.633 53.853-18.633 53.852-.974-1.847 34.619 9.723c11.46 3.31 23.142 6.634 34.584 10.166 11.563 3.428 23.023 6.738 34.466 10.27 11.443 3.532 23.005 6.96 34.431 10.713l.102.119-.119.103c-11.597-2.984-23.193-5.969-34.892-9.071-11.596-2.985-23.176-6.191-34.755-9.397-11.58-3.207-23.159-6.413-34.619-9.723l-34.704-10.063c-.769-.161-1.145-1.077-.974-1.847l19.829-53.44 19.931-53.321.119-.104c.12-.104.222.014.222.014z" fill="#17293B"/><path d="M275.342 229.051l33.201 9.296 33.184 9.517c11.135 3.178 22.185 6.015 33.065 9.622 5.448 1.692 10.999 3.503 16.43 5.417l8.146 2.871c2.716.957 5.432 1.914 8.028 2.975l.102.118-.119.104c-2.852-.631-5.585-1.367-8.437-1.998l-8.317-2.102c-5.585-1.367-11.153-2.956-16.721-4.545-11.032-3.059-22.014-6.784-32.911-10.168l-32.894-10.391-32.774-10.494-.103-.118c-.102-.119.017-.222.12-.104zm89.201-93.958c12.707 4.506 25.533 8.909 38.12 13.518l38.121 13.518c.547.147.957.619.923 1.063 1.521 6.341 2.821 12.668 4.121 18.995.649 3.164 1.18 6.431 1.83 9.594.65 3.164 1.077 6.313 1.608 9.58 0 0-.017.222-.12.103 0 0-.222-.014-.102-.118-.992-3.074-1.983-6.148-2.855-9.326-.872-3.178-1.863-6.252-2.633-9.312-1.641-6.238-3.282-12.475-4.804-18.817l1.025 1.182-37.574-14.82c-12.571-4.831-25.004-9.988-37.677-14.938l-.103-.118.12-.104z" fill="#17293B"/><path d="M357.362 158.928l21.981 7.228 21.861 7.331c7.396 2.488 14.705 4.636 21.845 7.553 7.258 2.813 14.397 5.731 21.281 9.077.102.118.102.118-.017.222l-.12.104c-7.566-1.719-14.858-4.089-22.254-6.577-7.292-2.37-14.432-5.287-21.69-8.101l-21.571-8.204-21.555-8.426-.102-.118c.222.015.222.015.341-.089z" fill="#17293B"/><path d="M425.075 160.438l2.411 12.196 2.292 12.299c.804 4.065 1.727 8.027 2.07 12.285.462 4.154.703 8.294.379 12.509l-.119.104-.103-.118c-1.486-3.887-2.393-8.07-3.197-12.136-.803-4.065-1.044-8.205-1.506-12.359l-1.284-12.345-1.165-12.449s.017-.222.12-.104l.102.118zm-17.763-6.952l1.728 12.374 1.626 12.256c.462 4.154 1.266 8.22 1.507 12.36.24 4.139.258 8.265-.287 12.465l-.12.104-.102-.118c-1.248-4.094-1.949-8.041-2.514-12.314-.582-4.051-.6-8.176-.84-12.316l-.721-12.42-.499-12.406s.017-.221.12-.103l.102.118zm-17.233-6.586c.445 2.927.667 5.84.89 8.753l.771 8.856c.223 2.913.668 5.84.669 8.738-.119 3.002-.34 5.886-1.125 8.844l-.119.104-.103-.118c-1.008-2.852-1.453-5.779-1.676-8.692-.325-3.031-.002-5.797.015-8.917l.117-8.798c.118-3.002.117-5.9.339-8.784l.119-.104c.12-.104.222.015.103.118zm-18.104-6.863l-.031 13.486-.133 13.367c-.118 4.452.208 8.932-.354 13.354a91.602 91.602 0 01-2.029 13.355l-.119.104-.103-.118c-.667-4.391-.873-8.975-.755-13.426-.104-4.465.578-8.991.918-13.428l1.141-13.413 1.243-13.295.119-.104c.12-.104.222.014.103.118z" fill="#17293B"/><path d="M350.941 162.632l-3.254 26.429-.495-.812 43.21 14.072c7.19 2.252 14.363 4.725 21.4 7.524 3.467 1.341 7.036 2.799 10.504 4.14 3.467 1.34 7.036 2.799 10.486 4.361l.103.118-.12.104c-3.723-.912-7.326-1.926-10.93-2.941s-7.31-2.148-10.913-3.163c-7.191-2.252-14.364-4.726-21.537-7.199l-42.664-15.374c-.324-.133-.529-.369-.495-.813l4.364-26.356.119-.104c.12-.104.222.014.222.014z" fill="#17293B"/><path d="M424.835 217.384l-19.829-6.195-19.812-6.418c-6.643-2.105-13.304-3.987-19.692-6.521-6.507-2.43-12.997-5.082-19.129-8.046-.102-.118-.205-.236-.085-.34l.119-.103.717-.622c.12-.104.222.014.222.014s.103.118-.017.222l-.495.637-.188-.459c6.798 1.558 13.458 3.441 20.102 5.545 6.644 2.105 13.134 4.757 19.539 7.069l19.521 7.29 19.402 7.394.103.119c-.256.429-.478.414-.478.414zm-78.752-27.757c.034-1.892.067-3.785.22-5.782.034-1.892.29-3.771.323-5.663.256-1.879.068-3.786.545-5.65.478-1.864 1.058-3.609 2.202-5.43.119-.104.119-.104.222.015l.102.118c.633 1.936.599 3.829.565 5.721-.033 1.893-.733 3.743-1.211 5.606-.477 1.864-.835 3.624-1.313 5.488l-1.433 5.592-.119.104-.103-.119zm-130.647-76.949l34.568 11.838 34.448 11.941c11.512 4.093 23.057 7.743 34.432 12.162 11.494 4.316 22.75 8.839 33.869 13.687l-.222-.014.836-.726c.12-.104.12-.104.222.014.103.118.103.118-.017.222l-.734.844c-.12.104-.119.104-.222-.014-11.784-3.443-23.33-7.093-34.841-11.187-11.529-3.871-22.784-8.394-34.278-12.71l-34.159-12.814-34.141-13.035-.103-.118c.222.014.222.014.342-.09zm19.072-63.969c.564-.075 1.008-.046 1.469-.239.563-.075 1.007-.046 1.451-.017.444.029 1.025-.268 1.332.087.308.354.718.827.872 1.728.102.119-.017.222-.137.326-.717.622-1.298.919-1.742.89-.563.075-.854-.502-1.281-.752-.427-.251-.854-.502-1.161-.856-.308-.355-.735-.606-1.144-1.078.204.236.102.118.341-.089-.119.103-.119.103 0 0z" fill="#17293B"/><path d="M242.329 45.652l-10.892 11.106-.24-1.241 1.093.294-.905.164 10.534-10.796c.478-.414 1.264-.475 1.674-.002.205.236.29.576.273.798l-.031 9.138c-.017 3.12-.033 6.241-.151 9.242a170.981 170.981 0 01-2.079 18.369l-.119.104-.103-.119c-.753-6.179-.84-12.316-.808-18.556.017-3.12.255-6.226.373-9.228l.596-9.213 2.049.914-11.046 10.205c-.239.207-.461.193-.786.06l-.973-.398c-.325-.132-.513-.591-.376-.916l.239-.207 11.712-10.162c.12-.103.12-.103.222.015-.239.207-.136.325-.256.429z" fill="#17293B"/><path d="M232.035 57.689c.412 6.269.823 12.538 1.133 18.689l.514 9.286c.206 3.134.412 6.269.174 9.374l-2.716-.957a80.635 80.635 0 018.707-8.796c.12-.104.12-.104.222.014 0 0 .103.119-.017.222-1.843 3.67-4.113 7.089-6.486 10.39-.495.637-1.4.801-2.152.418-.427-.251-.615-.709-.581-1.153l.017-.222a65.985 65.985 0 01.049-9.36l.27-9.346c.152-6.344.407-12.569.661-18.795l.12-.104c.102.118.205.237.085.34zm8.025-4.27c.529-1.081.939-2.057 1.229-2.93l.103 1.567-.53-.369 1.794-.106c-.137.326-.256.429-.393.755s-.154.547-.393.755c-.478.414-.939.607-1.622.786l-.444-1.478c-.017.222.068.562.256 1.02zm.205.236c-.136.326-.597.518-1.041.489-.222-.014-.444-.028-.53-.368l.085-1.11c.051-.665.324-1.316.58-1.745l.717-.622c.239-.208.581-.297.82-.504l.359-.311c.358-.311 1.024-.268 1.332.086l.41.473.307.354c.308.355.154.902-.204 1.213-.974 1.052-2.135 1.645-2.835 2.045z" fill="#17293B"/><path d="M241.29 54.836c-.324 2.765-.87 5.517-1.296 8.164l-1.398 8.046c-.546 2.752-.75 5.414-1.518 8.15-.87 2.619-1.74 5.237-3.157 7.709-.119.104-.119.104-.222-.014l-.102-.119c-.223-2.912.101-5.678.527-8.325.323-2.766 1.416-5.37 2.166-7.885l2.286-7.989c.871-2.618 1.638-5.355 2.509-7.973l.119-.104c-.017.222-.017.222.086.34z" fill="#17293B"/><path d="M238.029 56.631c.001 1.449-.101 2.78-.203 4.111-.102 1.331-.204 2.662-.426 4.097-.102 1.331-.102 2.78-.528 3.978-.546 1.302-1.093 2.604-2.185 3.759-.12.104-.12.104-.222-.014l-.103-.118c-.666-1.493-.667-2.942-.564-4.273.102-1.331.648-2.633 1.194-3.935.324-1.316.87-2.618 1.297-3.817.546-1.302.87-2.618 1.416-3.92l.119-.104c.222.014.325.133.205.236z" fill="#17293B"/><path d="M236.001 71.434c.222.015.546.148.649.266.102.118.205.236.085.34l-.017.222-.46 1.642c-.154.547-.41.976-.563 1.523-.154.548-.308 1.095-.769 1.288-.58.297-1.041.49-1.929.432-.222-.015-.222-.015-.205-.237-.376-.916-.223-1.463-.291-2.025.153-.547.512-.858 1.093-1.155l1.195-1.037c.358-.311.939-.607 1.297-.919l.069.562c-.205-.236-.188-.458-.393-.694-.103-.118.017-.222.239-.208 0 0-.103-.118 0 0zm-4.642 8.171c-1.605 3.463-3.431 6.911-5.035 10.373l-5.257 10.359c-1.826 3.448-3.328 7.029-5.36 10.241-2.031 3.211-4.284 6.409-6.965 9.355-.119.104-.119.104-.222-.014l-.102-.118a64.653 64.653 0 014.505-10.742c1.605-3.463 3.858-6.66 5.889-9.872l6.111-9.857c2.031-3.212 4.182-6.527 6.214-9.739.119-.104.119-.104.222.014.119-.103.119-.103 0 0z" fill="#17293B"/><path d="M229.054 86.365l-3.993 8.435-4.096 8.316c-1.434 2.694-2.56 5.741-4.319 8.302-1.758 2.561-3.516 5.122-5.804 7.314-.119.103-.119.103-.222-.015l-.102-.118c.801-3.18 2.013-5.888 3.344-8.7 1.332-2.811 3.192-5.254 4.848-7.933l4.95-7.815c1.758-2.56 3.414-5.239 5.172-7.8.12-.104.12-.104.222.014z" fill="#17293B"/><path d="M219.443 104.019l1.537-2.575c.512-.859 1.024-1.717 1.638-2.457.512-.859.922-1.835 1.742-2.339.717-.622 1.758-1.112 2.885-1.262.12-.103.222.015.205.237.018 1.227-.392 2.204-.904 3.062-.512.858-1.332 1.362-2.049 1.985l-2.27 1.97c-.717.622-1.537 1.126-2.374 1.851-.324-.132-.427-.25-.41-.472-.119.104-.017.222 0 0z" fill="#17293B"/><path d="M222.283 112.121c-1.845-.678-3.57-1.459-5.295-2.24-.427-.251-.717-.827-.461-1.256l.136-.326.649-1.184c.256-.429.29-.872.546-1.302.393-.754 1.007-1.495 1.946-2.102l.598-.519c.239-.207.461-.193.666.044.529.369 1.042.959 1.554 1.55.103.118-.017.222-.017.222-.802.282-1.366.357-2.151.417l1.263-.475c-.29.873-.699 1.849-1.194 2.486-.359.311-.718.622-.974 1.051l-.973 1.052-.325-1.582c1.469 1.21 2.921 2.642 4.271 3.956 0 0-.017.222-.239.208.102.118.102.118 0 0zM210.914 71.25a580.692 580.692 0 013.639 7.817l3.52 7.92c1.248 2.645 2.615 5.187 3.521 7.921.905 2.734 1.47 5.558 1.795 8.589 0 0-.017.221-.119.103l-.103-.118c-1.828-2.348-3.195-4.89-4.442-7.535-1.248-2.645-1.931-5.364-2.837-8.099l-2.718-8.202c-.906-2.735-1.692-5.572-2.598-8.307-.102-.118.017-.222.119-.103l.223.014zm35.171-32.375c.82 2.394 1.521 4.892 2.444 7.404l2.222 7.391c.701 2.497 1.743 4.906 2.103 7.493.359 2.588.719 5.175.395 7.94l-.12.104-.102-.118c-1.384-2.32-2.427-4.728-3.247-7.123-.82-2.394-1.06-5.085-1.539-7.568l-1.42-7.673c-.359-2.587-.838-5.07-1.197-7.657 0 0 .017-.222.119-.104.239-.207.461-.193.342-.089zm34.026 145.454l1.537.323.205.236c-1.86 5.341-3.6 10.578-5.46 15.919l-5.563 15.801c-.273.651-.973 1.051-1.622.786l-.102-.118-.103-.118-1.178-.635c-.649-.265-.923-1.063-.769-1.61l.119-.104c.734-2.293 1.468-4.586 2.304-6.761.836-2.175 1.672-4.35 2.628-6.628.836-2.175 1.894-4.336 2.952-6.496 1.059-2.161 2.117-4.321 3.277-6.364.12-.103.12-.103.222.015l.103.118c-.512 2.308-1.023 4.615-1.655 7.026-.614 2.19-1.245 4.601-2.081 6.776-.734 2.293-1.467 4.586-2.304 6.761-.836 2.175-1.791 4.453-2.628 6.628l-.649-1.714 1.179.634-1.845.772 6.434-15.521c2.185-5.209 4.471-10.299 6.656-15.507l.205.236-1.52-.544-.103-.119-.239.208z" fill="#17293B"/><path d="M263.299 213c.359-.311.82-.504 1.178-.815.462-.193.82-.505 1.162-.594.461-.193.717-.622 1.264-.475.427.251.854.502 1.35 1.314.102.119-.017.222.085.34-.29.874-.768 1.289-1.127 1.6-.358.311-.888-.058-1.213-.191-.444-.029-.871-.28-1.315-.308-.427-.251-.871-.28-1.299-.531-.102-.118-.205-.236-.085-.34z" fill="#17293B"/><path d="M262.614 214.623c.358-.311.7-.401 1.059-.712.461-.193.7-.4 1.042-.489.341-.09.717-.623 1.144-.372.427.251.854.502 1.128 1.3.103.118-.017.222.086.34-.291.873-.649 1.184-1.008 1.496-.359.311-.769-.162-1.093-.295-.325-.132-.769-.161-1.196-.412-.428-.251-.752-.383-1.179-.634 0 0-.103-.118.017-.222zm16.631-13.184c-.273.651-.666 1.406-1.058 2.161-.393.754-.769 1.287-1.161 2.042-.495.637-.563 1.524-1.263 1.924-.7.4-1.4.801-2.51.728-.223-.014-.223-.014-.206-.236-.136-1.123.034-1.893.427-2.647.273-.651 1.195-1.037 1.673-1.452.597-.518 1.298-.919 1.776-1.333.7-.401 1.297-.919 1.997-1.319.12-.104.239-.208.325.132-.103-.118.017-.222 0 0zm-8.798-4.587c.889.058 1.879.234 2.887.188.99.176 1.878.234 2.869.41.99.176 1.895.012 2.749.513a6.608 6.608 0 012.289 2.155c.103.119-.017.222-.136.326-1.161.593-2.169.639-3.159.463-.888-.058-1.725-.781-2.596-1.061-.854-.501-1.725-.781-2.579-1.282-.854-.502-1.708-1.003-2.46-1.387-.103-.118-.103-.118.017-.222.017-.221.119-.103.119-.103z" fill="#17293B"/><path d="M280.545 203.419c-.529 1.081-1.161 2.043-1.793 3.005l-1.894 2.886c-.632.962-1.059 2.161-1.998 2.768-.836.726-1.895 1.438-3.363 1.676-.12.104-.222-.014-.325-.132 0-1.45.529-2.53 1.16-3.492.529-1.08 1.69-1.673 2.527-2.399l2.629-2.281c.837-.726 1.793-1.555 2.732-2.163.12-.104.222.014.325.132zm-8.879 12.462a131.278 131.278 0 00-1.979 6.893l-2.081 6.776c-.734 2.293-1.246 4.601-2.304 6.761-1.058 2.16-2.219 4.203-3.926 6.098-.119.104-.119.104-.222-.014l-.102-.119c.084-2.558.596-4.865 1.33-7.158.733-2.293 1.894-4.336 2.952-6.496l3.055-6.378 3.175-6.481c.119-.104.119-.104.222.014-.222-.014-.12.104-.12.104zm-12.84 5.966l.598-.519c.119-.103.461-.193.581-.296.119-.104.478-.415.461-.193-.017.222.068.562-.119 1.553-.12.104-.017.222-.137.326-.393.755-.751 1.066-.871 1.169-.239.208-.205-.236-.188-.458-.102-.118-.085-.34-.291-.576.018-.222-.188-.458-.171-.68.018-.222.137-.326.137-.326zm9.376-2.957c-.871 1.169-1.861 2.442-2.834 3.493-.871 1.17-1.964 2.325-2.937 3.376-.973 1.052-1.86 2.443-3.039 3.258-1.178.815-2.475 1.734-4.285 2.062-.12.103-.222-.015-.205-.237.46-1.642 1.228-2.929 2.321-4.084.871-1.17 2.271-1.97 3.449-2.785 1.075-.934 2.373-1.852 3.551-2.667 1.178-.815 2.373-1.852 3.654-2.549.342-.089.342-.089.325.133.119-.104.119-.104 0 0z" fill="#17293B"/><path d="M266.956 217.694c-.632.962-1.247 1.703-1.981 2.547-.734.843-1.348 1.584-2.082 2.428-.735.844-1.144 1.82-2.186 2.31-.939.607-1.861.993-3.312 1.01-.12.104-.222-.014-.205-.236.102-1.331.733-2.293 1.467-3.137.632-.962 1.656-1.23 2.596-1.838.939-.607 1.758-1.111 2.697-1.719.939-.608 1.759-1.112 2.801-1.601.119-.104.119-.104.205.236.017-.222.017-.222 0 0z" fill="#17293B"/><path d="M264.976 224.587c-.341 1.538-.699 3.299-1.177 5.162-.034.444-.495.637-.939.608l-.222-.014-2.203-.367c-.547-.147-.957-.619-.906-1.285l.017-.222c.051-.665 0-1.449.051-2.114.017-.222.034-.444.273-.651l.239-.208c.853-.947 1.912-1.659 3.295-2.237l.581-.297c.119-.104.341-.089.546.147.171.68.462 1.256.445 1.478zm-.239.207c-.547-.147-1.008.046-1.23.032l1.008-.046c-.546 1.302-1.195 2.486-2.254 3.197l.393-.754-.819 1.953-.889-1.507 2.05.913-1.161.594c.887-1.392 1.775-2.783 2.902-4.382zm49.898-186.582l5.567 1.589c.325.132.53.369.393.694-2.03 4.661-4.181 9.426-6.212 14.087-.955 2.278-2.031 4.66-3.533 6.792-1.4 2.25-2.782 4.278-4.609 6.277-.119.103-.119.103-.222-.015l-.102-.118c.528-2.529 1.398-5.148 2.354-7.427.853-2.396 2.253-4.646 3.533-6.792 2.68-4.396 5.138-8.806 7.818-13.202l.273.798-5.397-2.358-.102-.118.239-.207z" fill="#17293B"/><path d="M304.208 67.963c.853-2.396 1.809-4.675 2.884-7.057l2.987-6.94c.955-2.278 1.808-4.675 3.089-6.821 1.28-2.146 2.782-4.278 4.711-6.159.12-.103.12-.103.222.015l.103.118c-.426 2.648-1.28 5.044-2.133 7.441-.853 2.397-2.458 4.41-3.635 6.674l-3.739 6.557c-1.28 2.146-2.56 4.292-3.96 6.541-.119.104-.119.104-.222-.014-.324-.133-.427-.251-.307-.355z" fill="#17293B"/><path d="M312.926 41.556l1.025-.268c.342-.09.683-.179.905-.164.342-.09.701-.401.889.058.205.236.393.694.325 1.582.102.118-.017.222-.137.325-.615.741-.854.948-1.195 1.038-.342.089-.53-.369-.735-.606l-.615-.709c-.205-.236-.41-.473-.496-.813-.085-.34.034-.443.034-.443z" fill="#17293B"/><path d="M313.694 40.268l1.024-.268c.342-.089.684-.179 1.008-.046.342-.089.803-.282.889.058.205.236.273.798.205 1.686-.119.104-.017.222-.136.325-.615.741-1.076.934-1.418 1.023-.342.09-.53-.369-.735-.605l-.615-.709c-.205-.237-.291-.577-.598-.931.239-.208.256-.43.376-.533zm-5.61 28.06l1.025-.268c.342-.089.684-.178.906-.164.341-.089.803-.282.888.058.205.236.393.695.206 1.686-.017.222-.017.222-.137.326-.615.74-.956.829-1.298.919-.342.089-.53-.369-.735-.606l-.615-.709c-.205-.236-.291-.576-.598-.931.239-.207.256-.429.358-.311z" fill="#17293B"/><path d="M306.412 69.78c.342-.089.786-.06 1.247-.253.342-.089.786-.06 1.127-.15.445.029.803-.282 1.111.073.308.354.393.694.427 1.7.103.118-.017.222-.136.326-.615.74-1.076.933-1.52.904-.342.09-.53-.369-.838-.723l-.717-.828c-.308-.354-.513-.59-.701-1.049-.119.104-.017.222 0 0zm5.187-13.821c-1.263 1.924-2.645 3.952-3.909 5.876l-4.131 5.862c-1.485 1.91-2.646 3.952-4.233 5.744-1.69 1.673-3.381 3.346-5.6 4.651-.12.104-.222-.014-.222-.014s-.103-.119.017-.222c.853-2.397 2.014-4.439 3.499-6.349 1.263-1.924 3.175-3.583 4.643-5.271l4.866-5.257c1.69-1.673 3.278-3.465 4.968-5.138.12-.104.12-.104.222.014-.102-.118-.222-.014-.12.104zm47.043-21.347c.188.458.256 1.02.342 1.36.068.562.154.902.222 1.464-.034.444.376.917.001 1.45-.256.429-.735.844-1.64 1.008-.119.104-.222-.014-.325-.132-.734-.606-1.025-1.182-1.11-1.522-.188-.459.29-.874.546-1.303l.768-1.288c.256-.429.513-.859.871-1.17 0 0 .222.015.325.133z" fill="#17293B"/><path d="M356.284 36.24c1.537.323 3.074.646 4.492 1.073.324.133.529.369.393.694l-.12.104-.119.104c-1.724 3.566-3.653 6.896-5.377 10.462-.802 1.731-1.826 3.448-3.055 4.929-1.229 1.48-2.578 3.064-4.234 4.294-.12.104-.222-.014-.222-.014l-.103-.118c.376-1.982 1.075-3.832 1.997-5.667.802-1.731 1.826-3.448 3.055-4.928 2.356-3.08 4.507-6.395 6.863-9.474l.273.798c-1.4-.649-2.92-1.194-4.321-1.842-.102-.118-.102-.118.017-.222.239-.207.461-.193.461-.193z" fill="#17293B"/><path d="M358.881 38.751c-.682 1.628-1.587 3.241-2.27 4.869-.785 1.509-1.587 3.24-2.372 4.75-.905 1.613-1.365 3.255-2.594 4.735-1.11 1.377-2.442 2.74-4.081 3.747-.119.104-.222-.014-.222-.014l-.102-.118c.153-1.997.835-3.624 1.637-5.355.683-1.628 2.015-2.99 3.124-4.367 1.008-1.495 2.117-2.872 3.227-4.249l3.329-4.13c.119-.104.119-.104.222.014.119-.104.119-.104.102.118z" fill="#17293B"/><path d="M353.044 49.406c-.768 1.288-1.758 2.561-2.527 3.849-.99 1.273-1.758 2.56-2.748 3.834-.99 1.273-1.656 2.679-2.851 3.715-1.195 1.037-2.493 1.956-4.098 2.52-.119.104-.222-.014-.222-.014.358-1.76 1.127-3.048 2.014-4.439.768-1.288 2.185-2.31 3.261-3.243 1.093-1.155 2.288-2.192 3.363-3.125l3.586-3.111c.017-.222.239-.207.222.014 0 0 .119-.103 0 0zm50.227 63.688l24.646 8.851 24.525 8.954c.325.132.53.368.615.708l6.188 19.687 2.923 9.889c.975 3.296 1.829 6.695 2.582 9.977.171.68-.222 1.435-1.024 1.717a1.235 1.235 0 01-.889-.058c-3.364-1.222-6.712-2.667-9.957-3.993-3.245-1.326-6.592-2.77-9.94-4.214l-.103-.118.12-.104c3.501.897 7.002 1.794 10.384 2.794 3.381 1.001 6.985 2.016 10.367 3.016l-1.81 1.777c-.974-3.296-2.068-6.488-3.043-9.784l-2.923-9.888-5.385-19.969.718.827-24.236-9.827-24.116-9.931-.103-.118c.239-.207.239-.207.461-.193zm-15.797 5.212c.291 2.026.36 4.037.548 5.944l.326 5.929c.069 2.011.48 3.933.207 6.033-.153 1.996-.528 3.978-1.467 6.035-.119.104-.119.104-.222-.014l-.102-.119c-.855-1.95-1.146-3.976-1.334-5.883-.188-1.907.306-3.993.459-5.989l.46-5.99c.153-1.996.528-3.978.681-5.974l.12-.104c.222.014.222.014.324.132zm14.746 28.827c-.462-2.705-.702-5.396-1.164-8.101l-.942-8.088c-.239-2.69-.923-5.41-.719-8.072.102-2.78.306-5.442.971-8.297l.119-.104.103.118c1.025 2.631 1.487 5.336 1.949 8.042.462 2.705.138 5.471.156 8.147l-.066 8.133c-.102 2.78-.084 5.456-.185 8.237l-.12.103-.102-.118z" fill="#17293B"/><path d="M417.644 154.047c-.598-2.38-.975-4.745-1.351-7.111l-1.351-7.11c-.377-2.365-1.094-4.642-1.129-7.096-.035-2.455.033-4.791.561-7.32l.12-.104.102.118c1.162 2.305 1.761 4.685 2.256 6.946.599 2.38.412 4.82.447 7.275l.343 7.156c.035 2.455.189 4.806.224 7.26l-.119.104-.103-.118zm15.423 5.464a182.194 182.194 0 01-2.137-8.499l-2.034-8.382c-.565-2.823-1.573-5.675-1.915-8.484-.343-2.809-.446-5.826-.105-8.813l.119-.104.103.118c1.35 2.763 2.256 5.498 2.939 8.217.787 2.838.788 5.736 1.232 8.664l1.01 8.648c.343 2.809.668 5.84 1.01 8.649 0 0-.017.222-.119.104 0 0-.222-.014-.103-.118zm14.55 5.182c-.735-2.054-1.248-4.094-1.88-6.03l-1.761-6.134c-.513-2.04-1.367-3.991-1.538-6.12-.172-2.129-.343-4.258.169-6.566l.239-.207.102.118c1.196 1.862 1.931 3.916 2.666 5.97.632 1.936.684 4.169.856 6.298l.736 6.402c.171 2.129.462 4.154.633 6.283 0 0-.017.222-.119.104-.12.104-.12.104-.103-.118z" fill="#17293B"/><path d="M389.114 123.095l15.747 5.595 15.73 5.818c5.209 1.899 10.538 3.695 15.611 5.921 5.072 2.225 10.128 4.672 14.928 7.548.102.119.102.119-.017.222l-.12.104c-5.482-1.249-10.811-3.045-16.02-4.945-5.209-1.899-10.265-4.346-15.337-6.572l-15.338-6.572-15.32-6.794-.103-.118c.017-.222.017-.222.239-.207zm68.68 23.87l1.178 2.083 1.179 2.083c.393.695.906 1.285.957 2.069.052.784-.016 1.671-.648 2.633-.119.104-.239.207-.341.089-1.076-.516-1.589-1.106-1.982-1.801-.393-.694-.222-1.463-.376-2.365l-.155-2.351c-.051-.784-.103-1.567-.034-2.455 0 0 .119-.103.222.015 0 0-.103-.118 0 0z" fill="#17293B"/><path d="M461.073 152.194c-.342.089-.786.06-1.127.15-.342.089-.667-.044-1.111-.073-.444-.029-.905.164-.991-.176-.085-.34-.273-.798-.205-1.686.119-.103.017-.222.136-.325.718-.623 1.179-.816 1.52-.905.342-.089.411.473.616.709.205.237.41.473.598.931.085.34.393.695.479 1.035.324.133.307.355.085.34.12-.104.12-.104 0 0zM371.102 16.138l.409-2.426c.017-.222.137-.325.359-.311 3.159.986 6.199 2.076 9.359 3.062l9.24 3.165c3.04 1.09 6.217 1.854 9.223 3.388 2.903 1.415 5.807 2.83 8.557 4.793.102.118.102.118-.017.221l-.12.104c-3.313-.439-6.37-1.307-9.53-2.293-3.159-.986-6.063-2.401-8.966-3.816l-8.95-4.038c-3.023-1.312-5.927-2.727-8.83-4.142l.461-.193-.854 2.396-.119.104c-.239.208-.222-.014-.222-.014zm14.106 6.603l6.559 1.765c1.093.294 2.186.588 3.159.986l3.279.882c.547.147.854.501.82.945l.086.34c.342 1.36.24 2.691.137 4.022-.102 1.331-.323 2.766-.869 4.068l-.239.207-.103-.118c-.683-1.271-1.247-2.645-1.487-3.887-.342-1.36-.581-2.601-.479-3.932l.906 1.285c-.957-.62-2.033-1.136-3.007-1.534-1.076-.516-1.93-1.017-3.006-1.533-1.93-1.018-3.962-2.153-5.892-3.171-.103-.118-.103-.118.017-.221-.103-.118.017-.222.119-.104zm16.774 12.573c.888.057 1.879.233 2.648.395.888.058 1.759.337 2.647.395.871.28 1.776.116 2.63.617.734.606 1.469 1.211 1.947 2.245.103.118-.017.222-.136.326-1.161.593-2.049.535-3.04.359-.888-.058-1.503-.767-2.357-1.268-.752-.384-1.606-.885-2.238-1.372-.734-.605-1.486-.989-2.22-1.594-.12.104-.103-.118.119-.103-.102-.119-.102-.119 0 0zm-83.276-24.038c.273-.651.665-1.405.938-2.056.274-.651.666-1.406.939-2.057.273-.651.563-1.524 1.161-2.042.597-.519 1.4-.801 2.527-.951.12-.103.222.015.205.237.137 1.123-.034 1.893-.307 2.544s-1.092 1.155-1.57 1.569l-1.674 1.452c-.597.518-1.297.919-1.895 1.437-.119.104-.341.089-.324-.133zm-32.821 294.149l6.908-28.977 7.01-28.86c2.303-9.659 4.486-19.215 7.233-28.846 1.365-4.704 2.627-9.526 4.214-14.216l2.218-7.101c.853-2.397 1.587-4.69 2.44-7.087l.12-.103.102.118c-.409 2.425-.818 4.851-1.347 7.381l-1.449 7.262c-1.041 4.837-2.081 9.674-3.343 14.496-2.303 9.66-5.152 19.172-7.78 28.698l-8.001 28.684-8.103 28.566-.12.104-.102-.119zm39.161 11.58l2.931-25.113 3.152-25.098c1.09-8.401 1.839-16.712 3.254-24.98 1.416-8.268 2.95-16.64 4.912-24.761l.119-.103.103.118a319.334 319.334 0 01-2.264 25.156c-.971 8.297-2.506 16.668-3.921 24.936l-4.143 24.922-4.143 24.923-.119.103c.222.015.222.015.119-.103zm36.345 10.504l1.102-27.461 1.324-27.447c.373-9.227.627-18.351 1.444-27.55.46-4.54.817-9.199 1.277-13.739l.749-6.862c.29-2.322.682-4.526.972-6.848l.119-.104.103.119c.154 2.35.087 4.687.138 6.92l-.083 6.905c-.016 4.569-.254 9.124-.389 13.797-.373 9.228-1.293 18.308-2.11 27.507l-2.212 27.388-2.332 27.493-.119.104c.119-.104.017-.222.017-.222zm35.924-13.158l-1.561-23.287-1.339-23.273c-.412-7.718-1.046-15.451-1.116-23.258-.071-7.808-.039-15.497.556-23.261l.12-.104.102.118c1.198 7.658 1.713 15.495 2.347 23.227.514 7.837.482 15.526.553 23.333l.331 23.319.331 23.318-.119.104c-.103-.118-.222-.014-.205-.236zm-87.581-154.066c2.441-1.29 4.764-2.476 7.308-3.648l7.308-3.649c.58-.296 1.349-.135 1.52.545.205.236.188.458.051.784l-.119.104c-.546 2.751-.869 5.516-1.74 8.135-.87 2.619-1.86 5.341-3.498 7.798-.12.104-.12.104-.222-.015l-.103-.118c-.223-2.912.221-5.782.766-8.533.546-2.751 1.638-5.355 2.406-8.092l1.674 1.447-7.684 2.732c-2.63.832-5.157 1.782-7.787 2.614-.119.104-.222-.015-.222-.015a.492.492 0 00.342-.089zm24.983-1.382c-2.082 2.428-4.387 4.842-6.47 7.27l-6.573 7.152c-2.185 2.31-4.285 4.96-6.675 7.034-2.51 2.177-5.002 4.133-7.922 5.838-.12.103-.222-.015-.222-.015s-.103-.118.017-.222c1.672-2.9 3.755-5.329 5.957-7.86 2.083-2.429 4.798-4.37 7.205-6.665l7.308-6.547 7.409-6.429c-.136.326-.017.222-.034.444 0 0 .12-.104 0 0z" fill="#17293B"/><path d="M331.867 159.721c-1.725 2.117-3.551 4.116-5.378 6.115l-5.48 5.997c-1.827 1.999-3.449 4.234-5.583 5.878-2.032 1.763-4.166 3.408-6.83 4.683-.119.104-.222-.014-.222-.014s-.102-.118.017-.222c1.315-2.59 3.039-4.707 4.866-6.706 1.724-2.117 3.961-3.643 5.992-5.406l6.215-5.392c2.032-1.762 4.063-3.525 6.317-5.273-.119.103.103.118.086.34 0 0 .119-.104 0 0zm82.842 55.89l-1.127 1.599c-.376.533-.854.947-1.229 1.48-.478.415-.649 1.184-1.332 1.363-.683.178-1.366.357-2.339-.041l-.205-.237c-.035-1.005.358-1.76.733-2.293.376-.532 1.161-.593 1.742-.889.58-.297 1.263-.475 1.725-.668.683-.179 1.263-.475 1.827-.55l.205.236zm-10.181-4.008c.291.576.478 1.034.769 1.61.29.576.478 1.035.547 1.596.188.458.7 1.049.547 1.597-.154.547-.427 1.198-1.246 1.702-.12.104-.222-.015-.342.089-.854-.501-1.264-.974-1.554-1.55-.291-.576.085-1.109.238-1.657.154-.547.205-1.213.358-1.76l.461-1.642s.12-.104.222.015z" fill="#17293B"/><path d="M413.666 214.65l-1.127 1.599c-.376.533-.751 1.066-1.229 1.48-.376.533-.649 1.184-1.212 1.259-.683.179-1.247.253-2.34-.041l-.205-.236c-.034-1.006.239-1.657.614-2.19.376-.532 1.042-.489 1.622-.786a7.84 7.84 0 011.725-.668c.683-.178 1.144-.371 1.827-.549.342-.09.342-.09.325.132zM86.837 157.363l16.032-14.116 16.134-13.998c5.378-4.666 10.551-9.568 16.237-13.879 5.583-4.43 11.268-8.741 17.364-12.58.119-.104.222.014.222.014s.102.118-.017.222c-4.866 5.257-10.141 10.041-15.52 14.706-5.275 4.784-11.063 8.978-16.646 13.407l-16.749 13.289-16.852 13.171s-.12.104-.205-.236c0 0-.017.222 0 0zm35.374 20.251l16.339-16.66 16.44-16.541c5.549-5.435 10.79-11.225 16.544-16.424 5.753-5.198 11.507-10.397 17.671-15.123.119-.104.222.014.222.014s.102.118-.017.222c-5.036 6.026-10.261 11.593-15.707 17.146-5.446 5.554-11.302 10.634-16.953 15.951l-17.056 15.833-17.158 15.714c-.12.104-.12.104-.222-.014-.222-.014-.222-.014-.103-.118zm24.672 44.856l17.242-24.069 17.344-23.952c5.855-7.978 11.386-16.09 17.446-23.832 3.09-3.924 6.06-7.743 9.253-11.548l4.677-5.715c1.588-1.791 3.193-3.805 4.883-5.478.119-.104.119-.104.222.014 0 0 .102.118-.017.222-1.28 2.146-2.663 4.174-4.046 6.202l-4.148 6.083c-2.765 4.056-5.633 7.994-8.518 12.153-5.753 8.097-11.916 15.722-17.976 23.464l-18.078 23.346-18.181 23.228c-.12.104-.12.104-.222-.014l.119-.104zm38.826 29.058l15.96-27.72 16.062-27.601c5.394-9.235 10.566-18.485 16.164-27.484 2.8-4.499 5.599-8.999 8.621-13.484l4.421-6.734c1.502-2.132 3.021-4.485 4.626-6.499.12-.103.12-.103.222.015 0 0 .103.118-.017.222a146.828 146.828 0 01-3.67 7.118l-3.772 7c-2.475 4.632-5.172 9.249-7.766 13.985-5.394 9.235-11.095 18.116-16.814 27.218l-16.813 27.218-16.916 27.1c-.12.104-.12.104-.222-.014-.103-.118-.103-.118-.086-.34z" fill="#17293B"/><path d="M365.355 279.13l3.617 24.098c.581 4.105 1.721 5.42 5.801 4.395l.535 2.678c-6.072 1.706-8.817-.312-9.839-6.758l-3.616-24.098 3.502-.315z" fill="#38CED9"/><path d="M476.131 81.631c-11.201-2.55-114.141-40.489-219.2 53.569l-85.476-32.506c43.421-34.76 107.179-68.244 131.644-74.499C455.025-10.88 475.778 68.214 476.131 81.631z" fill="#ECEEF0"/><path d="M221.655 91.454l6.309-4.26 1.369 2.048-6.309 4.26 5.677 8.427c2.939 4.328 6.57 3.807 9.614-.452l1.802 2.078c-4.691 5.89-9.888 6.961-14.179.367l-5.677-8.427-3.763 2.253-1.169-1.818 3.896-2.57-3.174-5.541 2.297-1.589 3.307 5.224zm32.482-7.749l-14.251 8.521c2.188 4.17 6.938 4.702 11.034 2.362 2.048-1.17 3.695-2.801 5.275-4.981l1.702 1.962c-1.48 2.296-3.476 4.23-5.641 5.501-5.927 3.524-12.261 2.343-15.718-3.76-3.157-5.758-.999-11.272 3.913-14.319 6.16-3.726 11.228-1.65 13.686 4.714zm-15.388 6.27l11.638-7.062c-1.804-3.492-5.271-3.722-8.467-1.758-3.313 2.065-4.642 5.241-3.171 8.82zm32.55-20.146c-2.152-1.774-4.985-1.744-7.25-.589-3.396 1.734-5.673 5.934-3.401 10.436 2.272 4.502 6.905 5.136 10.302 3.402 2.381-1.256 4.311-3.739 3.89-6.813l2.947-1.546c1.04 4.965-1.554 9.036-5.517 11.058-4.762 2.513-11.345 1.751-14.569-4.555-3.325-6.421.05-12.181 4.912-14.579 3.846-1.921 8.512-1.721 11.633 1.641l-2.947 1.545zm27.714 3.466l-4.697-11.299c-1.472-3.579-4.423-4.862-7.687-3.446-3.48 1.401-4.825 4.793-3.354 8.372l4.598 11.183-3.148 1.315-11.97-28.86 3.147-1.315 5.166 12.309c.863-2.771 2.41-4.518 5.324-5.631 5.28-2.152 9.132.17 11.155 5.09l4.698 11.299-3.232.983zm23.817-8.322l-3.582-11.66c-1.038-3.55-4.089-4.949-7.32-3.966-3.348 1.084-5.11 4.231-4.156 7.449l3.682 11.775-3.231.983-4.385-13.998c-.887-2.669-1.271-3.348-3.303-2.394l-.786-2.555c2.148-1.054 5.095-2.599 6.217 1.282.895-3.204 3.076-4.691 5.974-5.587 5.246-1.72 9.066 1.035 10.556 5.812l3.581 11.66-3.247 1.199zm5.181-12.386c-2.852-14.114 18.604-18.567 21.456-4.454 2.869 13.898-18.604 18.568-21.456 4.454zm18.141-3.803c-2.047-10.362-16.873-7.209-14.826 3.153 2.164 10.26 16.99 7.108 14.826-3.153zm19.474-2.736c-.553-14.288 21.308-15.451 21.844-.947.453 14.173-21.407 15.336-21.844.947zm18.462-.845c-.398-10.578-15.477-9.836-15.079.743.297 10.463 15.376 9.721 15.079-.743zm23.325 9.705c-2.381 1.256-4.596 1.762-6.763 1.619-5.432-.142-9.454-4.542-8.93-11.47.54-7.145 5.684-10.394 12.183-9.964 2.817.187 5.684 1.138 8.085 2.494l-1.554 20.567c-.541 7.144-5.203 9.773-10.502 9.313a16.595 16.595 0 01-8.169-2.825l.746-2.671c2.285 1.457 5.036 2.51 7.636 2.682 3.582.128 6.646-1.518 7.023-6.498l.245-3.247zm1.062-15.487c-1.684-.764-3.284-1.196-5.017-1.311-4.333-.287-8.212 2.067-8.505 7.378-.409 5.413 2.528 8.327 6.327 8.47 1.95.129 4.065-.493 6.229-1.764l.966-12.773zM425.6 60.572c-3.326 5.11-6.651 10.221-12.772 6.225l.947-2.439c3.619 2.524 5.648.156 7.627-2.976l1.729-2.714-5.645-21.806.133-.317 3.55.561 2.413 9.842 1.845 8.717 4.588-7.42 5.437-8.561 3.334.547-.133.318L425.6 60.572zm-69.285-27.273l2.217 17.3c.353 2.947 1.153 3.892 4.106 3.164l.342 1.923c-4.398 1.214-6.342-.239-6.974-4.867l-2.217-17.3 2.526-.22z" fill="#38CED9"/></svg>