<svg width="565" height="392" fill="none" xmlns="http://www.w3.org/2000/svg"><path d="M58.285 124.467c.007 1.056.099 2.11.274 3.151.123.19.21.241.258.235.325-.079-.422-3.401-.532-3.386z" fill="#C9F7FF"/><path d="M25.806 181.305c.988 2.762 2.494 7.14 4.128 12.632 2.294 7.647 3.072 11.522 5.255 11.881 2.183.358 4.539-3.232 4.788-3.619 3.192-5.144.737-10.551.045-18.315a49.958 49.958 0 011.653-17.492l20.942-2.05 11.853-10.146c18.99.276 37.93 1.953 56.666 5.017a389.455 389.455 0 0118.666 3.554l-2.51 1.953a35.497 35.497 0 003.647 17.661 35.66 35.66 0 0011.863 13.616 43.526 43.526 0 00-4.785 17.11c-.258 4.136-.407 8.367 1.743 12.877a22.114 22.114 0 008.241 8.663 80.732 80.732 0 0028.563 11.47 7.276 7.276 0 00-1.804 4.197c-.196 3.569 2.883 6.159 4.118 7.179 6.357 5.344 17.922 3.054 22.185 2.27 7.813-1.403 29.791-1.591 73.764-1.955 5.39.24 10.787-.305 16.02-1.618 9.05-2.505 14.833-7.126 16.268-5.385.894 1.1-.877 3.06-2.378 8.042-1.68 5.631-1.506 10.103-1.259 16.432.278 7.328.416 10.992 2.62 13.628 3.232 3.893 8.459 4.469 10.752 4.589l-1.562 46.633c2 1.936 4.399 3.417 7.031 4.339.522.18 8.27 2.805 13.4-.208 8.577-5.037 7.954-24.771 7.632-36.336A32.607 32.607 0 01369 286.879c2.767-4.414 5.176-11.904 3.359-25.408a3096.946 3096.946 0 00-5.101-10.579l5.745-4.664 13.803-4.347c17.479-5.431 51.222-3.361 88.663-7.608 9.321-1.06 22.752-2.627 22.803-4.851.051-2.224-12.543-4.221-23.491-5.576a6835.477 6835.477 0 01-60.135 6.037 5989.594 5989.594 0 01-44.286 4.124 35.496 35.496 0 00-5.259-3.157 38.44 38.44 0 00-20.824-3.405 20507.544 20507.544 0 01-35.485-32.889l10.62-5.089c13.315 3.457 23.853 4.073 26.818 1.943 1.538-1.129 3.264-2.619 3.264-2.619 2.38-2.079 2.557-2.63 3.951-3.754a24.785 24.785 0 019.696-4.83s2.075 3.308 6.223 9.908l5.508.41c28.265 2.13 56.492 4.329 84.682 6.597a80.203 80.203 0 005.15 3.858c4.835 3.328 8.27 5.836 12.812 7.005 3.628.934 9.036 2.33 14.725-.253 7.314-3.325 9.677-10.792 10.197-12.317a156.203 156.203 0 0036.135 27.007l9.39-4.722a100967.385 100967.385 0 01-32.678-41.743l-22.66-6.157a6.14 6.14 0 003.818-2.889 6.08 6.08 0 00-.56-6.892 6.142 6.142 0 00-6.664-1.949 707.682 707.682 0 013.049-6.815l-54.853-39.341a77.844 77.844 0 0011.635 15.706c11.389 11.849 27.161 20.506 28.995 29.079.244 1.146.832 3.916-.805 5.585a5.46 5.46 0 01-4.34 1.258l-6.164 11.152s2.055 5.974.964 6.752c-1.091.777-4.898-2.873-8.718-6.841a517.483 517.483 0 01-73.571-5.441 530.235 530.235 0 01-29.444-5.189 13.291 13.291 0 001.734-4.921 13.234 13.234 0 00-.296-5.204c-1.795-5.724-8.415-9.771-16.102-9.056 1.82-3.306 6.437-12.721 3.605-23.464a31.912 31.912 0 00-5.501-10.793 52.071 52.071 0 00-21.897-17.43c-11.93-4.979-22.309-4.15-29.599-3.46-22.935 2.127-39.743 13.491-48.237 20.334a64.08 64.08 0 01-10.667-14.649c-2.462-4.672-4.731-9.116-2.791-11.913 1.347-1.788 3.908-2.265 5.709-2.33 31.832-.879 46.985-1.05 54.207-.98.707.01 2.537.036 5.017-.111a72.687 72.687 0 0020.928-4.392c1.839-1.714 3.784-3.922 3.179-5.239-1.557-3.494-18.536 3.19-32.454 4.045a262.194 262.194 0 01-56.634-2.66l-28.026.812a209.81 209.81 0 01-.85 5.273l-12.261-2.81a323.157 323.157 0 00-53.99-1.763 321.797 321.797 0 00-25.313 2.308 30.853 30.853 0 009.53 9.611c10.567 6.656 17.27 1.074 38.387 3.609 14.007 1.683 19.618 5.172 30.97 2.402a45.097 45.097 0 0010.638-4.07c.034 1.59.073 3.322.104 4.992.33 6.13.602 12.37.814 18.719 20.297 6.67 24.694 9.631 24.393 10.997-.104.51-.804.657-2.294 1.333a31.89 31.89 0 00-8.636 6.193c-2.622 2.177-9.915 5.307-29.812 9.632l-8.883 7.043-13.476-10.532-40.97-5.089-48.559-3.352-8.945 12.442c-.538-3.767-1.082-7.581-1.356-10.173-.565-.812-1.987-4.038-5.472-13.285l11.806-5.657c.121-12.989.233-25.97.335-38.946l-7.187-4.54-25.272 31.886a14.875 14.875 0 013.165 6.23c.801 3.586-.034 6.719-2.272 12.254-3.324 8.258-5.3 10.805-7.75 16.546a84.748 84.748 0 00-4.38 14.213 172.31 172.31 0 00-4.72 36.192l9.92-2.917z" fill="#C9F7FF"/><path d="M33.75 104.734c.508 1.315 1.048 2.626 1.527 3.961a3.645 3.645 0 01-.525 3.057l-3.918 8.024a1.967 1.967 0 001.017 2.717 1.986 1.986 0 001.59-.04 1.99 1.99 0 001.05-1.19c1.428-2.915 2.989-5.786 4.279-8.761a6.683 6.683 0 00.32-4.83c-.46-1.529-1.122-3.03-1.707-4.541a1.98 1.98 0 00-1.093-1.004 1.995 1.995 0 00-1.488.037 1.982 1.982 0 00-1.044 1.058 1.964 1.964 0 00-.013 1.481l.005.031z" fill="#D77E60"/><path d="M54.664 70.84a124.182 124.182 0 00-23.544 34.445c-1.063 2.321 2.611 3.806 3.677 1.501a121.189 121.189 0 0123.04-33.593c1.772-1.848-1.412-4.168-3.175-2.37l.002.016z" fill="#D77E60"/><path d="M55.887 74.35c.364-.148.727-.296 1.11-.415l.33-.047c-.235.034-.25.036 0 0l.503-.072c.803-.17 1.616-.286 2.435-.347l-.11.015.345-.05.581.03c.404.022.797.077 1.19.133.392.055.773.144 1.17.231l-.078.011a1.3 1.3 0 01.318.099c.218.064.435.129.64.211a2.04 2.04 0 002.585-1.087 1.981 1.981 0 00-1.089-2.571 16.015 16.015 0 00-11.5.27c-.479.21-.855.6-1.047 1.085a1.966 1.966 0 00.022 1.502c.217.475.611.847 1.099 1.04a2.04 2.04 0 001.516-.01l-.02-.029z" fill="#D77E60"/><path d="M63.59 74.541a360.334 360.334 0 00-1.773 36.392c.005 2.504 3.941 3.026 3.932.491a359.942 359.942 0 011.776-36.377c.265-2.525-3.639-3.036-3.934-.506z" fill="#D77E60"/><path d="M49.481 118.708a21.486 21.486 0 008.504-1.745 21.417 21.417 0 007.11-4.967 1.982 1.982 0 00-.396-2.766 2.036 2.036 0 00-2.78.397 17.245 17.245 0 01-11.94 5.166 2.074 2.074 0 00-1.45.425c-.413.32-.689.783-.772 1.296a1.964 1.964 0 00.406 1.452c.323.411.797.678 1.318.742z" fill="#D77E60"/><path d="M48.89 115.921a11.236 11.236 0 00-.975 5.626 2 2 0 00.764 1.31 2.02 2.02 0 002.78-.397c.295-.433.43-.954.383-1.474-.03-.203-.058-.406-.087-.61l.073.516a9.09 9.09 0 01.303-2.372l-.14.483c.146-.55.343-1.086.59-1.599a1.955 1.955 0 00-1.09-2.572 2.032 2.032 0 00-2.585 1.087l-.015.002z" fill="#D77E60"/><path d="M39.199 114.721c.268-.229.547-.444.837-.645l.265-.166c-.223.128-.252.148 0 0l.42-.203c.318-.155.647-.287.985-.396.157-.023.446-.239 0 0 .2-.052.405-.082.612-.088l.974-.139c.33-.047.675-.096.157-.022.15-.011.302-.005.451.015a5.83 5.83 0 011.061.136s.628.133.346.062c-.283-.071.284.087.336.112.33.118.654.252.971.403.449.223-.32-.225.079-.011.125.075.244.159.356.252.051.031.1.067.144.107.148.138.128.109-.094-.098l.264.281c.114.127.2.274.314.402.114.127-.2-.387 0 0 .094.267.206.528.336.781l-.025-.172.05.344c.028.203.02.141-.03-.203.003.105.018.211.045.313.083-.315.106-.382-.024-.172l-.07.185.14-.259a1.562 1.562 0 01-.136.179c.24-.226.281-.28.124-.146l-.189.139a1.986 1.986 0 00-.74 1.32 1.963 1.963 0 00.415 1.453 2.02 2.02 0 002.786.32 3.955 3.955 0 001.344-1.731 3.93 3.93 0 00.214-2.175 6.644 6.644 0 00-2.138-3.746 8.758 8.758 0 00-4-1.868 9.954 9.954 0 00-4.39.02 10.313 10.313 0 00-4.645 2.258 1.97 1.97 0 00-.447 2.867 1.977 1.977 0 001.406.739 1.987 1.987 0 001.5-.528l-.005.08z" fill="#D77E60"/><path d="M30.53 122.02c.384.774.562 1.633.516 2.495.002.973.14 1.94.41 2.875a4.061 4.061 0 002.233 2.504 5.274 5.274 0 003.917-.065 34.708 34.708 0 006.816-3.557 48.264 48.264 0 006.248-4.624c1.91-1.66-.529-4.709-2.462-3.093a45.907 45.907 0 01-10.908 7.108 5.411 5.411 0 01-1.876.666c-.11.016-.388-.135 0 0l-.12-.158c.025.172.028.187 0 0-.026-.188-.17-.406-.02-.141a4.088 4.088 0 01-.086-.609 13.059 13.059 0 00-.885-5.073 2.052 2.052 0 00-1.103-1.028 2.072 2.072 0 00-1.512-.002c-.48.214-.858.606-1.052 1.092a1.997 1.997 0 00.013 1.512l-.13.098z" fill="#D77E60"/><path d="M30.236 127.708a45.117 45.117 0 00-7.922 9.616c-2.375 4.247-2.665 8.945-3.095 13.679l-2.877 31.367a1.997 1.997 0 001.345 2.122c.287.098.593.13.895.094a66.957 66.957 0 0015.104-3.098c2.419-.792.828-4.408-1.575-3.619a63.207 63.207 0 01-14.024 2.801l2.253 2.198c.88-9.695 1.766-19.391 2.657-29.087.414-4.397.285-9.227 2.184-13.326a34.25 34.25 0 017.59-9.696c1.756-1.845-.699-4.892-2.477-3.091l-.058.04z" fill="#D77E60"/><path d="M43.153 125.576c5.695 8.453 2.997 19.747-.209 28.609a82.437 82.437 0 01-14.707 25.29c-1.661 1.944 1.527 4.295 3.173 2.354a85.515 85.515 0 0015.873-28.008c3.389-9.941 5.187-21.474-1.016-30.683-1.423-2.109-4.532.36-3.111 2.454l-.003-.016z" fill="#D77E60"/><path d="M24.726 183.054a135.925 135.925 0 004.427 15.955c.418 1.248.868 2.491 1.332 3.717.463 1.225.808 3.186 2.13 3.699a7.802 7.802 0 007.047-1.501 1.97 1.97 0 00.316-2.781 1.996 1.996 0 00-2.793-.31 4.22 4.22 0 01-3.573.797l1.579 1.178a130.916 130.916 0 01-6.518-21.397c-.527-2.461-4.472-1.913-3.926.561l-.02.082z" fill="#D77E60"/><path d="M35.28 170.766c-1.13 10.831 3.744 21.618 1.14 32.34-.61 2.463 3.337 2.936 3.933.491 2.626-10.79-2.269-21.493-1.139-32.324.264-2.526-3.639-3.037-3.935-.507zm5.196-1.54a59.244 59.244 0 0027.271-6.781c2.236-1.18.681-4.882-1.575-3.619a54.954 54.954 0 01-25.181 6.484 2.05 2.05 0 00-2.225 1.705 1.966 1.966 0 001.71 2.211z" fill="#D77E60"/><path d="M70.63 154.123l-8.374 7.24a1.966 1.966 0 00-.325 2.774 1.993 1.993 0 002.786.32c2.797-2.409 5.588-4.823 8.374-7.241a1.973 1.973 0 00.677-2.088 1.968 1.968 0 00-.942-1.184 1.993 1.993 0 00-2.197.179zm-19.34-18.37a14.556 14.556 0 004.828-1.886 5.96 5.96 0 001.844-1.95c.458-.781.73-1.656.797-2.557a7.864 7.864 0 00-1.804-5.341 18.118 18.118 0 00-4.3-3.516 2.052 2.052 0 00-2.78.397 2 2 0 00.394 2.766c.601.393 1.218.783 1.776 1.214.321.225.628.468.92.714l.367.33c.146.123-.02-.14.115.127.261.281.507.576.735.884.202.29-.016-.109.013.094.03.203.135.268.202.402s.05.344.2.498c.199.498-.052-.36.024.171a1105.363 1105.363 0 00.111.782c-.035-.25.027.188.034.235.007.046-.122.607.027.187.018.125-.09.268-.15.404l-.11.239-.012-.078c-.081.107-.146.212-.243.322-.096.109-.383.342.014.094l-.694.529c-.188.139.285-.136 0 0l-.433.222c-.285.136-.575.241-.864.346l-.889.287-.267.038-.487.07a2.032 2.032 0 00-1.291.781 2.018 2.018 0 00-.393 1.453c.139.969 1.16 1.955 2.242 1.673l.074.069z" fill="#D77E60"/><path d="M56.015 129.895a48.322 48.322 0 011.23 12.424c-.037.643.018 1.257-.437 1.657a6.854 6.854 0 01-2.272.93 12.053 12.053 0 01-5.58.096 1.977 1.977 0 00-1.5.372 1.98 1.98 0 00-.778 1.332 1.965 1.965 0 001.025 1.983c.234.126.49.203.755.227 2.446.503 4.98.399 7.377-.303 2.401-.694 4.672-1.848 5.21-4.477.176-1.142.231-2.299.164-3.452a64.091 64.091 0 00-.145-3.935 53.13 53.13 0 00-1.053-7.377 2.03 2.03 0 00-.788-1.279 2.051 2.051 0 00-1.455-.394 2.003 2.003 0 00-1.3.775 1.983 1.983 0 00-.384 1.459l-.07-.038zm-25.092-9.94a11.716 11.716 0 00-4.971 5.055 11.628 11.628 0 00-1.131 6.98c.078.517.357.982.776 1.295.42.313.946.449 1.466.379a2.037 2.037 0 001.292-.782c.313-.416.454-.936.392-1.453a5.546 5.546 0 01-.102-.718l-.047-.329c-.016-.109.014-.464-.02-.14-.034.323 0 0-.018-.125a3.485 3.485 0 01-.056-.391c-.031-.219.034-.436.066-.663.031-.228.083-.427.133-.641a.97.97 0 01-.027-.188l.022.156s.077-.25.1-.317c.146-.444.319-.879.518-1.302l.15-.293c.14-.259.113-.111 0 0 .138-.163.232-.399.351-.576.268-.382.558-.749.87-1.097.208-.221.14-.02 0 0 .104-.081.198-.175.28-.279l.516-.425.537-.395.188-.027-.173.025c.106-.087.227-.153.357-.195.474-.22.845-.613 1.036-1.098a2.011 2.011 0 00-.013-1.504 1.99 1.99 0 00-1.09-1.035 2.01 2.01 0 00-1.507.018l.105.065z" fill="#D77E60"/><path d="M60.83 139.479a23.767 23.767 0 008.134-9.136 1.974 1.974 0 00-.008-1.511 1.97 1.97 0 00-1.08-1.061 2.053 2.053 0 00-2.586 1.087l-.328.621c-.161.326.144-.228 0 0-.143.228-.114.208-.181.297-.232.4-.495.804-.762 1.177a20.12 20.12 0 01-1.698 2.14l-.428.476c-.322.333.21-.205 0 0l-.254.244c-.329.333-.674.648-1.035.945a23.345 23.345 0 01-2.258 1.694 1.98 1.98 0 00-.325 2.774 2.037 2.037 0 002.784.304l.024-.051z" fill="#D77E60"/><path d="M69.11 130.577a566.488 566.488 0 0188.988 8.024c2.515.438 3.011-3.492.499-3.915a565.939 565.939 0 00-88.973-8.026c-2.538-.036-3.052 3.881-.515 3.917zm1.25 26.933a775.432 775.432 0 0079.254 5.954c2.539.052 3.054-3.866.512-3.933a771.12 771.12 0 01-79.251-5.938 1.987 1.987 0 00-2.225 1.705 1.968 1.968 0 00.977 1.966c.226.129.475.213.734.246zm-8.455-10.833l11.925-7.397a1.998 1.998 0 00.325-2.774 2.053 2.053 0 00-2.786-.319l-11.925 7.397a1.975 1.975 0 00-.678 2.088c.072.249.191.482.353.685.333.4.809.656 1.328.716a2.041 2.041 0 001.458-.396zm14.773-4.518l92.009 6.954c2.544.195 3.058-3.722.514-3.917l-92.009-6.954c-2.544-.195-3.058 3.722-.514 3.917zm88.154 90.836a193.49 193.49 0 0025.189 11.856 1.99 1.99 0 002.438-1.135 1.965 1.965 0 00-.939-2.508 195.37 195.37 0 01-25.191-11.872 2.002 2.002 0 00-2.585 1.087 2.009 2.009 0 00.026 1.503c.203.479.583.862 1.062 1.069zm3.769-19.502a242.265 242.265 0 0125.333 10.736c2.292 1.124 3.774-2.533 1.497-3.659a245.532 245.532 0 00-25.333-10.735c-2.4-.87-3.912 2.791-1.497 3.658z" fill="#D77E60"/><path d="M162.974 230.198l.016.109-.148-1.031.016.109.38-.931.839-.519 1.028.124-.126.018.807.602c.098.152.16.323.184.501l.045-.469.104-.956.217-2.072.409-3.982c.271-2.703.558-5.407.831-8.093a1.962 1.962 0 00-.426-1.419 1.991 1.991 0 00-2.737-.342 1.975 1.975 0 00-.769 1.27l-1.229 11.93-.298 2.849a4.177 4.177 0 00.446 3.126 2.42 2.42 0 002.894.735 2.273 2.273 0 001.377-2.15 2.251 2.251 0 00-.206-.872 2.054 2.054 0 00-2.613-1.015c-.48.214-.856.607-1.047 1.094a1.982 1.982 0 00.024 1.509l-.018-.125zm66.617.963a21.007 21.007 0 01-1.521 3.71l-.254.467-.117.192a12.89 12.89 0 01-.498.773 19.047 19.047 0 01-1.238 1.772l-.644.762-.306.331-.195.203c.126-.13.123-.146 0 0-.463.464-.959.918-1.412 1.334-.454.416-1.053.82-1.608 1.202l-.852.537c.339-.208-.173.024-.205.029l-.475.259c-.475.22-.847.613-1.04 1.097a2.029 2.029 0 00.001 1.507c.217.475.612.846 1.099 1.035.488.19 1.031.182 1.514-.02a23.33 23.33 0 0011.461-13.678 1.964 1.964 0 00-.009-1.511 1.976 1.976 0 00-1.079-1.061 1.993 1.993 0 00-2.586 1.087l-.036-.027z" fill="#D77E60"/><path d="M164.348 222.426c-4.923-1.817-3.785-8.215-2.452-12.01 1.333-3.795 3.011-9.441 7.44-10.967 2.413-.839.822-4.455-1.574-3.619-5.851 2.016-8.326 9.036-9.965 14.39a15.991 15.991 0 00-.481 9.765 9.356 9.356 0 002.059 3.687 9.403 9.403 0 003.476 2.412c2.4.87 3.899-2.773 1.497-3.658z" fill="#D77E60"/><path d="M169.06 212.327c.178-.328.012.078-.013-.094l.182-.297.42-.649c.308-.427.62-.823.963-1.223l.236-.257s.364-.371.18-.201c-.184.17.125-.018.143-.116l.31-.299c.389-.352.797-.681 1.221-.988l.568-.4.366-.244c.249-.163-.267.15 0 0s.923-.498 1.389-.709c.467-.21.97-.393 1.522-.568l.44-.063.864-.123c.52-.074.99-.352 1.306-.771a1.967 1.967 0 00-.394-2.763 1.99 1.99 0 00-1.47-.373 17.206 17.206 0 00-6.932 3.044 17.106 17.106 0 00-4.943 5.717 1.984 1.984 0 001.088 2.571 2.035 2.035 0 002.588-1.071l-.034-.123zm29.392 13.681a74.88 74.88 0 0121.368-9.846 1.976 1.976 0 001.023-2.602 2.03 2.03 0 00-2.598-1.017 77.446 77.446 0 00-22.252 10.387c-2.121 1.419.356 4.51 2.459 3.078z" fill="#D77E60"/><path d="M192.726 224.067a15.447 15.447 0 011.666 8.071 15.774 15.774 0 01-.761 3.984 15.174 15.174 0 01-.87 2.102 10.67 10.67 0 01-.391.742l-.287.456-.144.227c-.175.233-.068.201.361-.051l1.465.381-.124-.078.628.803.089.625-.379.932.08-.108-.808.626.11-.016-1.599.022.109-.016c2.398.854 3.895-2.805 1.497-3.659a2.27 2.27 0 00-2.248.372 2.243 2.243 0 00-.776 2.133 2.383 2.383 0 001.556 1.766 2.404 2.404 0 002.323-.422 9.073 9.073 0 002.201-3.328 18.247 18.247 0 001.137-3.257 19.568 19.568 0 00-1.318-13.83 1.984 1.984 0 00-.43-.658 1.989 1.989 0 00-3.269.692 1.954 1.954 0 00.061 1.538l.121-.049z" fill="#D77E60"/><path d="M192.569 246.082a28.953 28.953 0 0013.081-2.219 1.98 1.98 0 001.047-1.084 1.964 1.964 0 00-.022-1.502 2.01 2.01 0 00-2.599-1.032 24.103 24.103 0 01-8.332 1.923c-.886.061-1.775.06-2.661-.003a2.022 2.022 0 00-1.459.405c-.415.318-.69.784-.765 1.3a2.01 2.01 0 00.409 1.448c.318.412.784.686 1.301.764z" fill="#D77E60"/><path d="M217.583 212.734c-6.648 1.699-10.998 6.929-14.21 12.715a25.887 25.887 0 00-3.682 9.568 8.093 8.093 0 00.798 4.863 8.133 8.133 0 003.474 3.506c2.292 1.124 3.789-2.535 1.499-3.643-2.29-1.108-2.072-4.186-1.458-6.171a37.404 37.404 0 013.348-7.192c2.417-4.173 5.842-8.474 10.742-9.732a2.037 2.037 0 001.292-.782c.314-.416.454-.936.393-1.452a1.995 1.995 0 00-2.243-1.673l.047-.007z" fill="#D77E60"/><path d="M231.671 212.843a40.071 40.071 0 00-17.289 12.038 27.866 27.866 0 00-5.308 9.626c-1.001 3.428-1.147 7.563 1.24 10.476 2.387 2.912 7.349 3.432 9.519-.004 1.299-2.131-1.816-4.525-3.173-2.354a1.903 1.903 0 01-1.385.803 1.91 1.91 0 01-1.509-.533 5.34 5.34 0 01-1.44-4.132 18.54 18.54 0 014.084-10.009 35.564 35.564 0 0116.849-12.31c2.392-.868.818-4.487-1.59-3.617l.002.016z" fill="#D77E60"/><path d="M223.134 225.002a14.753 14.753 0 00-5.522 4.215 14.64 14.64 0 00-2.966 6.264 14.122 14.122 0 00-.27 3.499 8.34 8.34 0 00.698 3.425 3.156 3.156 0 002.084 1.581 3.195 3.195 0 002.57-.523 14.153 14.153 0 002.816-2.731 28.762 28.762 0 004.721-7.341 1.965 1.965 0 00-.004-1.513 1.965 1.965 0 00-1.078-1.067 1.984 1.984 0 00-1.521.005 1.994 1.994 0 00-1.073 1.075 24.01 24.01 0 01-3.001 5.022 27.179 27.179 0 01-1.828 2.127c-.348.365-.716.71-1.102 1.034-.1.055-.193.122-.276.199 0 0 .083-.091.11-.015.338.097.671.215.995.352.079-.011.029.203-.013-.094l-.051-.359-.085-.595-.085-.593-.051-.36c-.006-.86.086-1.719.275-2.559.028-.134.062-.267.104-.398 0 0-.079.235 0 0 .078-.234.105-.382.175-.567.153-.44.332-.87.537-1.289l.261-.531.137-.275s-.115.208 0 0 .512-.791.795-1.166a9.847 9.847 0 014.13-3.174 1.976 1.976 0 00.963-2.512 1.99 1.99 0 00-2.445-1.136z" fill="#D77E60"/><path d="M226.254 235.625a13.213 13.213 0 006.43-2.784 9.904 9.904 0 003.715-5.522 4.555 4.555 0 00-.212-3.105 4.581 4.581 0 00-2.156-2.251 6.376 6.376 0 00-4.158.403c-.862.271-1.703.605-2.517.997a10.954 10.954 0 00-3.024 2.17 6.576 6.576 0 00-1.672 3.222c-.064.518.08 1.041.4 1.455.32.414.791.686 1.311.756a2.07 2.07 0 001.448-.418c.412-.316.69-.776.776-1.287.088-.395-.146.324.011.078.046-.086.081-.176.106-.27-.016-.109.198-.299.196-.427.035.251-.225.335.013.094l.132-.194c.123-.169.255-.332.396-.487.15-.181 0 0-.113.112.061-.052.117-.108.169-.168l.46-.369.393-.279.265-.166c.145-.1-.416.235 0 0 .679-.374 1.39-.689 2.125-.941l1.068-.376.487-.069c.505-.168-.283.04 0 0l.487-.07c.314-.045-.451-.015 0 0 .188-.027.02.141-.218-.065l.186.069c.323.13-.367-.218-.172-.087.195.132-.31-.37 0 0 0 0 .02.141.101.146-.245-.141-.218-.4-.097-.114.121.285-.06-.422 0 0l.063.437c.073.516.056-.39 0 0-.057.391.056.391-.059.599-.115.207.02.14.029.203-.052.31-.02-.141-.022-.156-.078.161-.14.331-.185.504l-.184.394c-.135.29.074-.155.106-.159.031-.005-.16.23-.227.32-.243.353-.505.694-.784 1.02l-.251.26c-.193.219.354-.322 0 0l-.526.473a9.766 9.766 0 01-1.16.852s-.427.268-.146.1l-.207.126-.704.339-.667.271a3.359 3.359 0 00-.687.242c.218-.159.315-.045.11-.016l-.424.06a8.095 8.095 0 01-.864.124c-.52.074-.99.352-1.306.771a1.966 1.966 0 00.395 2.763c.42.313.949.448 1.47.373l-.106.047z" fill="#D77E60"/><path d="M231.888 216.161l.013.094-.074-.516c.189.704.292 1.428.308 2.157l-.073-.516a9.438 9.438 0 01-.289 2.354l.121-.496a7.296 7.296 0 01-.323.987 1.964 1.964 0 00.344 2.265 1.976 1.976 0 001.472.598 1.992 1.992 0 001.842-1.376 9.793 9.793 0 00.763-3.298c.04-.636.024-1.274-.048-1.907a13.3 13.3 0 00-.416-1.902 1.971 1.971 0 00-1.079-1.042 2.054 2.054 0 00-1.597.036 1.948 1.948 0 00-1.051 1.059l-.137.499c-.03.35.02.703.147 1.031l.077-.027zm-32.266 32.518l97.034-13.859a1.987 1.987 0 001.307-.77 1.97 1.97 0 00-.395-2.763 1.988 1.988 0 00-1.47-.374l-97.034 13.858c-.52.075-.99.352-1.306.771a1.967 1.967 0 00.394 2.763c.421.313.95.448 1.47.374z" fill="#D77E60"/><path d="M298.701 236.011a23.38 23.38 0 0111.985-.548 23.26 23.26 0 0110.658 5.464 1.99 1.99 0 002.78-.397 1.967 1.967 0 00-.395-2.766 27.216 27.216 0 00-12.582-6.229 27.348 27.348 0 00-14.036.86 1.985 1.985 0 00-1.025 2.587c.218.474.611.847 1.099 1.039a2.038 2.038 0 001.516-.01zm-101.178 9.97a5.784 5.784 0 00-3.497 2.042 5.736 5.736 0 00-1.291 3.825 7.459 7.459 0 001.202 4.226 7.501 7.501 0 003.379 2.822c3.433 1.599 7.362 1.389 10.992 1.445 4.821.093 9.647.217 14.444.138a909.031 909.031 0 0057.866-1.726 892.246 892.246 0 0032.688-2.627c2.545-.252 1.971-4.157-.558-3.907a905.274 905.274 0 01-101.595 4.254c-3.679-.064-8.081.421-11.605-.91a3.831 3.831 0 01-1.877-1.124 3.805 3.805 0 01-.952-1.964c-.149-1.047.152-2.414 1.362-2.587.52-.074.99-.352 1.306-.771a1.966 1.966 0 00-.394-2.763 1.99 1.99 0 00-1.47-.373z" fill="#D77E60"/><path d="M316.432 257.594l13.263-8.689a1.965 1.965 0 00.678-2.088 1.966 1.966 0 00-.352-.685 2.02 2.02 0 00-2.787-.32l-13.263 8.688a1.986 1.986 0 00-.74 1.321 1.967 1.967 0 001.004 1.951 1.998 1.998 0 002.197-.178zm6.309.183l-.836 26.801c-.071 2.53 3.864 3.037 3.935.507l.836-26.802c.087-2.532-3.847-3.039-3.935-.506z" fill="#D77E60"/><path d="M366.792 260.305c1.597 3.552-.899 7.401-4.092 9.053-4.144 2.187-9.223 1.86-13.739 1.659-7.904-.354-19.922-.344-23.703-8.863a1.983 1.983 0 00-2.582-.966 1.97 1.97 0 00-1.056 2.539c4.856 10.885 19.585 11.109 29.804 11.293 5.288.106 11.326-.151 15.483-3.807 3.572-3.045 5.467-8.069 3.471-12.504a1.981 1.981 0 00-2.582-.967 1.97 1.97 0 00-1.056 2.539l.052.024zm-44.695 25.728a18.96 18.96 0 008.082 7.589 19.102 19.102 0 0010.968 1.796c.52-.075.99-.352 1.306-.771a1.967 1.967 0 00-.394-2.763 1.995 1.995 0 00-1.47-.374 15.14 15.14 0 01-8.486-1.334 15.033 15.033 0 01-6.37-5.73 2.043 2.043 0 00-2.613-1.014 1.99 1.99 0 00-1.053 1.09 1.973 1.973 0 00.03 1.511z" fill="#D77E60"/><path d="M339.29 277.932a4674.344 4674.344 0 00-1.291 34.952c-.245 5.766-.453 11.526-.625 17.282-.103 2.758-.284 5.527-.291 8.287a6.583 6.583 0 002.24 5.581c1.975 1.6 4.36-1.564 2.369-3.161-1.448-1.165-.579-5.069-.52-6.672l.288-7.856.595-16.034 1.179-31.81c.089-2.516-3.848-3.039-3.933-.491l-.011-.078z" fill="#D77E60"/><path d="M334.611 295.889c-.318 8.243-.642 16.487-.971 24.731-.169 4.091-.354 8.184-.476 12.269a16.885 16.885 0 001.983 9.844c1.336 2.169 4.427-.313 3.112-2.454-1.86-3.036-1.153-7.283-1.025-10.651l.425-10.826c.288-7.484.587-14.969.896-22.456.089-2.516-3.848-3.039-3.948-.489l.004.032zm7.079-15.078a47.027 47.027 0 0025.96-.358 1.984 1.984 0 00-.143-3.57 2.005 2.005 0 00-1.45-.062 41.837 41.837 0 01-22.871.332 2.052 2.052 0 00-2.585 1.086 1.982 1.982 0 001.089 2.572z" fill="#D77E60"/><path d="M362.669 281.037a566.837 566.837 0 01-8.201 60.069c-.475 2.508 3.471 2.981 3.95.504a573.161 573.161 0 008.186-60.067c.215-2.534-3.72-3.041-3.935-.506z" fill="#D77E60"/><path d="M339.268 343.867a10.252 10.252 0 003.68 3.076 10.319 10.319 0 004.685 1.072c3.967.055 7.573-1.624 11.041-3.379a2.05 2.05 0 001.04-1.098 2.029 2.029 0 00-.002-1.507 2.004 2.004 0 00-2.613-1.014c-2.794 1.42-5.802 3.03-9.017 3.074a6.677 6.677 0 01-3.199-.619 6.652 6.652 0 01-2.52-2.057 1.965 1.965 0 00-1.342-.848 1.982 1.982 0 00-1.537.407 1.976 1.976 0 00-.745 1.4 1.97 1.97 0 00.529 1.493zm30.219-81.634c-.475 5.65-.945 11.299-1.41 16.947-.253 3.051.104 9.14-3.682 10.239a1.98 1.98 0 00-1.058 1.081 1.966 1.966 0 00.017 1.508 2.052 2.052 0 002.615 1.029c4.726-1.36 5.516-7.055 5.857-11.171l1.594-19.142c.199-2.532-3.734-3.024-3.933-.491zm-40.571-8.687a53.716 53.716 0 0021.802 7.556c6.898.609 14.288-1.85 17.31-8.517 1.047-2.319-2.626-3.804-3.674-1.485-2.584 5.696-9.494 6.683-15.029 5.863a51.683 51.683 0 01-18.024-6.581c-2.187-1.282-4.538 1.892-2.385 3.164z" fill="#D77E60"/><path d="M326.471 250.562a16.16 16.16 0 00-2 7.819 16.12 16.12 0 002.035 7.805 2.07 2.07 0 002.616 1.03c.48-.214.857-.606 1.051-1.092a1.999 1.999 0 00-.013-1.512 12.373 12.373 0 01-.773-1.485 8.113 8.113 0 01-.309-.817 3.968 3.968 0 01-.06-.422l-.016-.109a13.57 13.57 0 01-.482-3.376c.003-.539.038-1.076.107-1.61.052-.55.14-1.095.263-1.633a14.25 14.25 0 011.328-3.156 1.975 1.975 0 00-.014-1.508 1.987 1.987 0 00-1.074-1.063 2.036 2.036 0 00-2.588 1.071l-.071.058zm39.535 1.211a243.927 243.927 0 00-.543 16.17 2.03 2.03 0 001.723 2.193 2.005 2.005 0 002.225-1.705 226.63 226.63 0 01.543-16.169 2.029 2.029 0 00-.42-1.448 2.047 2.047 0 00-1.306-.762 2.026 2.026 0 00-1.462.411 2.01 2.01 0 00-.76 1.31zm-36.929-18.425a28.886 28.886 0 00-.818 14.471c.074.518.351.985.772 1.299a1.988 1.988 0 002.776-.396 1.97 1.97 0 00.378-1.464 24.875 24.875 0 01.563-12.441 2.009 2.009 0 00-.026-1.503 2.02 2.02 0 00-1.062-1.068 2.006 2.006 0 00-2.588 1.071l.005.031z" fill="#D77E60"/><path d="M335.02 236.135a40.726 40.726 0 0116.16-3.217c2.782-.046 5.575.097 8.346.308 1.362.108 2.741.23 4.108.37.697.059 2.945-.022 3.284.552 1.32 2.171 4.429-.298 3.111-2.454-1.318-2.157-5.444-1.982-7.797-2.188-3.248-.302-6.486-.525-9.833-.51a45.894 45.894 0 00-18.969 3.523 1.977 1.977 0 00-.975 2.571c.204.47.585.842 1.061 1.038a1.994 1.994 0 001.488.01l.016-.003z" fill="#D77E60"/><path d="M367.55 232.287a41.548 41.548 0 01-2.483 20.657 1.96 1.96 0 00.009 1.511 1.961 1.961 0 001.08 1.06c.241.098.499.147.76.145a1.984 1.984 0 001.825-1.231 45.716 45.716 0 002.733-22.719 1.97 1.97 0 00-.772-1.299 1.99 1.99 0 00-2.777.397 1.97 1.97 0 00-.377 1.463l.002.016z" fill="#D77E60"/><path d="M330.912 239.912a60.809 60.809 0 0019.075 2.602 55.461 55.461 0 009.468-1.033c2.697-.529 5.478-1.261 7.144-3.62 1.449-2.089-1.722-4.539-3.175-2.369-1.453 2.169-4.504 2.126-6.589 2.456a54.514 54.514 0 01-24.489-1.686c-2.429-.737-3.942 2.923-1.497 3.659l.063-.009zm42.195-1.705a3925.104 3925.104 0 0079.156-8.195c7.569-.868 15.135-1.757 22.698-2.667a2.013 2.013 0 001.022-.499 1.99 1.99 0 00.541-2.104 1.986 1.986 0 00-.657-.924 4.624 4.624 0 00-2.543-1.182 4.642 4.642 0 00-2.762.504c-2.251 1.183-.681 4.882 1.574 3.619.629-.313.846-.248 1.362.22l.905-3.542a4014.211 4014.211 0 01-79.103 8.682c-7.586.743-15.17 1.47-22.751 2.181-2.546.236-1.973 4.141.558 3.907zm-3.927 11.773c13.685-6.292 28.846-7.309 43.719-8.094 15.68-.852 31.299-2.141 46.859-4.284a626.017 626.017 0 0026.354-4.338c2.51-.486 1.968-4.396-.559-3.907a504.815 504.815 0 01-47.417 6.772c-15.32 1.47-30.839 1.438-46.089 3.504a85.93 85.93 0 00-24.417 6.677 1.98 1.98 0 00-1.01 1.09c-.182.48-.17 1.011.035 1.481.205.47.585.843 1.061 1.038a1.99 1.99 0 001.488.01l-.024.051z" fill="#D77E60"/><path d="M478.65 228.716l17.351 1.302-1.331-3.144a10.811 10.811 0 01-4.518 2.955 10.843 10.843 0 01-5.387.406 2.005 2.005 0 00-2.225 1.705 2.016 2.016 0 001.71 2.212 14.919 14.919 0 0013.595-4.908 1.986 1.986 0 00.223-1.952 1.986 1.986 0 00-1.569-1.189l-17.35-1.302a2.036 2.036 0 00-2.225 1.705 2 2 0 00.411 1.455c.322.413.794.684 1.315.755zm-210.649-39.339a2549.023 2549.023 0 0128.946 21.782c4.791 3.622 9.526 7.263 14.205 10.922l7.068 5.497 3.617 2.881c.343.27 3.567 2.537 3.556 2.459l.746-1.287-.236.145 1.544-.412.953.726-.23 1.978.15-.181c1.693-1.837-1.506-4.266-3.175-2.369l-.15.181a1.904 1.904 0 00-.233 1.963c.168.533.517.992.987 1.297a2.432 2.432 0 003.747-1.814c.201-1.624-.893-2.552-2.018-3.476-1.397-1.14-2.868-2.237-4.294-3.358a1644.711 1644.711 0 00-17.246-13.357 2922.877 2922.877 0 00-35.437-26.836c-2.043-1.51-4.428 1.653-2.385 3.163l-.115.096zm-.598 17.246a4281.349 4281.349 0 0035.744 31.784c1.942 1.701 4.199-1.461 2.385-3.163l-.576-.556c-1.852-1.745-4.219 1.432-2.385 3.163l.576.556 2.385-3.163a4838.435 4838.435 0 01-35.741-31.769c-1.848-1.713-4.262 1.47-2.388 3.148zm33.184-19.922l-3.772-2.173a1.994 1.994 0 00-2.78.397 1.97 1.97 0 00.395 2.767l52.663 45.108c1.935 1.654 4.304-1.508 2.385-3.163l-52.663-45.109-2.385 3.164 3.772 2.172c2.186 1.283 4.537-1.892 2.385-3.163z" fill="#D77E60"/><path d="M271.936 189.325c2.057-5.907 9.84-3.367 13.918-1.748a80.435 80.435 0 0018.579 5.081 1.99 1.99 0 001.427-.426 1.969 1.969 0 00-.928-3.488 70.03 70.03 0 01-10.987-2.418c-3.537-1.09-6.897-2.732-10.448-3.803-5.491-1.64-12.966-1.019-15.259 5.369-.844 2.401 2.83 3.886 3.658 1.487l.04-.054zm36.65 8.386l9.283-6.03a1.968 1.968 0 00.31-2.772 2.018 2.018 0 00-2.787-.32l-9.256 6.107a1.978 1.978 0 00-.74 1.32 1.97 1.97 0 00.415 1.453 2.025 2.025 0 002.786.321l-.011-.079z" fill="#D77E60"/><path d="M315.835 159.261a194.025 194.025 0 001.267 31.317c.074.518.352.986.773 1.3a1.993 1.993 0 002.776-.397c.316-.419.452-.945.378-1.463a188.558 188.558 0 01-1.214-30.273c.105-2.519-3.817-3.043-3.933-.491l-.047.007z" fill="#D77E60"/><path d="M317.314 164.68a118.754 118.754 0 0123.443-15.406c2.258-1.135.697-4.772-1.59-3.616a123.992 123.992 0 00-24.251 15.919c-1.946 1.634.513 4.712 2.477 3.091l-.079.012zm1.378 26.819a67.975 67.975 0 0030.182.474c2.489-.531 1.946-4.44-.558-3.907a65.342 65.342 0 01-29.112-.5 2.003 2.003 0 00-2.224 1.706 2.028 2.028 0 00.414 1.444c.318.411.781.686 1.296.768l.002.015z" fill="#D77E60"/><path d="M355.827 180.726a55.683 55.683 0 00-11.611 9.712 1.949 1.949 0 00.393 2.75 2.035 2.035 0 002.78-.397 52.968 52.968 0 0110.899-8.972 1.983 1.983 0 00.325-2.774 2.068 2.068 0 00-2.786-.319zm-40.485-15.605a418.644 418.644 0 0033.443 2.097c2.524.054 3.054-3.865.496-3.93a427.445 427.445 0 01-33.441-2.082 1.99 1.99 0 00-1.426.426 1.977 1.977 0 00-.728 1.294 1.962 1.962 0 00.381 1.431c.309.41.766.684 1.275.764z" fill="#D77E60"/><path d="M347.708 166.749a24.136 24.136 0 007.97-4.008 20.17 20.17 0 001.659-1.401 2.424 2.424 0 001.004-1.611 2.325 2.325 0 00-.495-1.668 2.486 2.486 0 00-1.089-.749 2.508 2.508 0 00-1.322-.087 2.353 2.353 0 00-1.494.916 2.331 2.331 0 00-.442 1.689c.078.517.357.981.776 1.294.42.313.947.45 1.467.38a2.038 2.038 0 001.291-.782c.314-.416.454-.936.393-1.453a1.573 1.573 0 01-.404 1.346 1.595 1.595 0 01-1.321.496l.079-.012a1.582 1.582 0 01-1.352-1.182 1.574 1.574 0 01-.029-.63l.73-1.284a22.608 22.608 0 01-2.132 1.787c-.317.253-.654.477-.99.7l-.586.387c-.209.109-.209.109 0 0l-.296.17a22.182 22.182 0 01-4.994 2.068 1.976 1.976 0 00-1.022 2.602c.226.467.621.83 1.105 1.018a2.076 2.076 0 001.508-.003l-.014.017z" fill="#D77E60"/><path d="M340.306 146.675a74.826 74.826 0 0115.705 11.664 2.048 2.048 0 002.786.32 1.978 1.978 0 00.74-1.321 1.974 1.974 0 00-.415-1.453 80.895 80.895 0 00-17.317-12.853 2.003 2.003 0 00-2.588 1.071 1.993 1.993 0 00.021 1.506c.203.48.586.862 1.068 1.066zm-163.205-8.332l-29.33 23.215a1.972 1.972 0 00-.326 2.774 1.986 1.986 0 002.787.319l29.331-23.215a1.989 1.989 0 00.739-1.321 1.974 1.974 0 00-.414-1.453 1.978 1.978 0 00-1.326-.734 1.993 1.993 0 00-1.461.415z" fill="#D77E60"/><path d="M149.135 161.124a13.601 13.601 0 00-3.198 8.127 6.77 6.77 0 001.115 3.721 6.813 6.813 0 002.979 2.505 2 2 0 001.588.087 1.983 1.983 0 001.291-1.899 1.97 1.97 0 00-1.38-1.831 3.323 3.323 0 00-.343-.158c-.189.027.202.178 0 0a6.172 6.172 0 00-.507-.406c.11.095.193.227 0 0l-.233-.286s-.024-.172-.179-.246c-.155-.073.159.328 0 0s-.204-.417-.282-.629c-.079-.212-.148-.362-.016-.11s-.016-.109-.027-.187a4.92 4.92 0 01-.096-.672l-.045-.313c-.015-.109-.027.482 0 0-.029-.203.037-.42.07-.632.009-.155.036-.308.079-.458 0 0 .088-.395-.029-.203-.116.192.093-.252.104-.286l.126-.353c.105-.27.213-.524.337-.781l.388-.758c-.125.241 0 0 .095-.125l.193-.33a32.39 32.39 0 011.022-1.486 1.973 1.973 0 00-1.867-3.141 1.987 1.987 0 00-1.308.772l.123.078z" fill="#D77E60"/><path d="M150.914 174.713c8.211 10.805 22.79 15.15 35.399 18.484a164.378 164.378 0 0044.38 5.4c2.56-.03 1.968-3.949-.558-3.907a158.426 158.426 0 01-42.399-5.109 126.868 126.868 0 01-18.772-6.314 37.023 37.023 0 01-15.015-10.981c-1.537-2.013-4.648.441-3.109 2.47l.074-.043z" fill="#D77E60"/><path d="M280.323 174.093a665.119 665.119 0 01-51.547 23.311 1.983 1.983 0 00-1.188 1.849 1.955 1.955 0 00.608 1.384 1.98 1.98 0 001.414.549c.261-.005.518-.061.757-.166a661.988 661.988 0 0051.53-23.308c2.272-1.153.713-4.775-1.577-3.634l.003.015z" fill="#D77E60"/><path d="M276.572 147.724a897.018 897.018 0 013.331 29.492c.249 2.532 4.174 1.955 3.927-.561a840.951 840.951 0 00-3.331-29.492 1.968 1.968 0 00-.772-1.299 1.99 1.99 0 00-2.777.396 1.97 1.97 0 00-.378 1.464z" fill="#D77E60"/><path d="M279.115 150.152a1366.396 1366.396 0 0126.996-17.348c4.488-2.768 8.986-5.537 13.494-8.307l6.606-4.022 3.867-2.322a16.365 16.365 0 012.817-1.71l-1.972-.229.213.145-.762-1.295.023-.513 2.585-1.087-.17-.071c-2.319-1.089-3.8 2.568-1.497 3.658l.17.072a2.04 2.04 0 002.586-1.087 2.27 2.27 0 00-1.411-3.251 2.301 2.301 0 00-1.34.039 16.377 16.377 0 00-3.155 1.918l-3.751 2.242a1584.681 1584.681 0 00-16.217 9.892 1363.196 1363.196 0 00-31.588 20.204c-2.123 1.404.338 4.498 2.462 3.094l.044-.022zm-99.824-9.156c22.473-4.804 43.204-14.846 63.513-25.259 10.364-5.307 20.682-10.72 31.248-15.626a82.024 82.024 0 0116.847-6.377 34.056 34.056 0 0115.137.166c11.11 2.608 20.752 9.524 30.625 14.908 2.249 1.274 3.705-2.443 1.496-3.659-9.022-4.931-17.693-10.885-27.648-14.04a40.572 40.572 0 00-14.366-2.064 50.732 50.732 0 00-16.993 4.453c-21.505 9.004-41.528 21.193-62.81 30.74a188.318 188.318 0 01-37.67 12.859c-2.472.529-1.946 4.441.558 3.908l.063-.009z" fill="#D77E60"/><path d="M336.144 109.344a33.634 33.634 0 013.148 33.266c-1.047 2.318 2.627 3.803 3.674 1.484a37.76 37.76 0 003.077-19.095 37.737 37.737 0 00-6.788-18.108c-1.481-2.07-4.592.384-3.111 2.453zm-136.768 2.5a43.055 43.055 0 009.972 6.87 48.098 48.098 0 015.199 2.734 17.564 17.564 0 014.13 3.78 1.974 1.974 0 001.326.734 1.982 1.982 0 002.2-1.735 1.972 1.972 0 00-.415-1.453 21.632 21.632 0 00-4.376-4.159 41.627 41.627 0 00-5.69-3.143 41.252 41.252 0 01-9.943-6.778 1.978 1.978 0 00-2.203-.118c-.224.132-.42.307-.577.515a2.004 2.004 0 00-.36 1.455c.074.513.343.977.753 1.296l-.016.002z" fill="#D77E60"/><path d="M196.088 93.304a84.725 84.725 0 00.289 19.192c.074.518.351.986.772 1.299a1.989 1.989 0 002.776-.396c.316-.419.452-.945.378-1.464a79.79 79.79 0 01-.281-18.125c.247-2.54-3.639-3.037-3.934-.506zm29.386-.386a12.205 12.205 0 00.051 6.09 12.244 12.244 0 002.987 5.311c2.441 2.841 6.18 5.002 7.748 8.462.211.48.604.856 1.094 1.046a1.994 1.994 0 002.571-1.123 1.964 1.964 0 00-.03-1.511c-1.527-3.402-4.568-5.504-7.104-8.108-2.172-2.193-4.633-5.398-3.648-8.713a2.024 2.024 0 00-.032-1.501 2.037 2.037 0 00-1.056-1.07 2.009 2.009 0 00-2.586 1.087l.005.03zm-15.326 8.393c.739 2.032 2.699 3.075 4.392 4.157 1.693 1.082 3.343 2.314 4.922 3.603a23.126 23.126 0 017.09 9.131c.931 2.371 4.567.783 3.638-1.572a26.013 26.013 0 00-7.41-9.914 52.335 52.335 0 00-4.823-3.697c-.853-.58-1.765-1.136-2.584-1.705a3.54 3.54 0 01-1.592-1.606 1.973 1.973 0 00-1.093-1.004 1.992 1.992 0 00-2.533 1.094 1.97 1.97 0 00-.012 1.482l.005.031z" fill="#D77E60"/><path d="M195.717 94.521a20.243 20.243 0 006.723 4.765 20.348 20.348 0 008.079 1.701c6.769.15 13.142-2.355 19.036-5.414 2.253-1.167.681-4.881-1.574-3.618-8.664 4.427-21.466 8.711-29.153.112-1.697-1.894-4.732.533-3.111 2.454z" fill="#D77E60"/><path d="M200.033 85.691l.43-2.374-3.935-.507-.735 10.456a1.977 1.977 0 00.372 1.494 1.981 1.981 0 002.124.712 1.985 1.985 0 001.437-1.715l.737-10.44a1.974 1.974 0 00-1.71-2.212 1.995 1.995 0 00-1.977.975c-.13.225-.214.473-.248.73l-.428 2.39a1.96 1.96 0 00.372 1.494 1.978 1.978 0 002.124.713 1.992 1.992 0 001.207-.964c.127-.233.204-.489.23-.752z" fill="#D77E60"/><path d="M197.563 85.565c5.461 2.219 11.19 4.399 17.173 4.438a22.92 22.92 0 008.497-1.438 6.36 6.36 0 003.123-2.04 2.519 2.519 0 00-.516-3.61c-2.121-1.388-4.556 1.766-2.369 3.16l.195.132-.626-.788.03.204-.148-1.032c.295-.33.286-.392-.027-.188l-.828.374c-.422.184-.854.347-1.292.487a16.102 16.102 0 01-3.11.668 22.74 22.74 0 01-6.17-.108 54.632 54.632 0 01-12.48-3.895 1.992 1.992 0 00-2.586 1.087 1.963 1.963 0 00.009 1.51 1.975 1.975 0 001.08 1.062l.045-.023z" fill="#D77E60"/><path d="M224.648 84.44a23.563 23.563 0 00-.315 9.806c.086.513.366.972.784 1.284.417.311.94.451 1.459.39a2.005 2.005 0 001.301-.776c.315-.417.453-.942.383-1.459l-.331-2.314c-.055-.39-.031-.777-.055-1.172-.024-.395.047.329-.02-.14l.014-.576a22.26 22.26 0 01.649-4.543 1.954 1.954 0 00-.394-1.46 1.986 1.986 0 00-1.316-.751 2.07 2.07 0 00-1.451.424c-.413.32-.688.783-.771 1.296l.063-.009zm-24.85-3.867l.132-5.138-1.695 1.71a117.554 117.554 0 0128.557-2.038c2.535.132 3.049-3.785.498-3.915a121.41 121.41 0 00-29.676 2.054 1.987 1.987 0 00-1.68 1.707l-.131 5.138c-.058 2.512 3.879 3.035 3.932.491l.063-.009z" fill="#D77E60"/><path d="M224.201 74.696l.261 1.829.138.968.061.422.04.282a20.999 20.999 0 00-.025-.172 24.678 24.678 0 01-.312 3.76c-.049.511.104 1.02.426 1.42a1.992 1.992 0 002.738.341c.412-.308.687-.763.768-1.27.444-2.704.44-5.461-.012-8.163a1.967 1.967 0 00-.772-1.3 1.987 1.987 0 00-2.776.397 1.969 1.969 0 00-.378 1.464l-.157.022z" fill="#D77E60"/><path d="M225.953 75.849a654.382 654.382 0 0087.108-1.102c2.551-.204 1.977-4.11-.558-3.907a646.458 646.458 0 01-86.047 1.126c-2.535-.133-3.05 3.784-.499 3.914l-.004-.031z" fill="#D77E60"/><path d="M226.63 82.945c26.889-6.647 54.863-.755 81.967-5.678 2.499-.453 1.957-4.362-.558-3.907-27.104 4.923-55.078-.97-81.968 5.677-2.461.607-1.934 4.52.559 3.908zm-117.64-4.059l44.309-1.05c7.219-.17 14.372-.361 21.659-.51 6.713-.128 13.558-.006 20.009 2.071 2.42.787 3.932-2.874 1.496-3.659a61.35 61.35 0 00-19.568-2.356c-7.507.067-15.034.33-22.541.508l-45.875 1.081c-2.539.06-1.966 3.965.558 3.908l-.047.007z" fill="#D77E60"/><path d="M107.474 77.252c1.11 6.428 7.622 8.48 13.313 9.056 7.614.682 15.249 1.17 22.878 1.74l22.684 1.72c6.885.516 13.857 1.418 20.763 1.293 6.028-.096 12.41-1.533 16.061-6.712 1.467-2.075-1.693-4.447-3.175-2.37-2.865 4.062-7.878 4.986-12.565 5.16a168.522 168.522 0 01-18.221-1.113L129.306 83c-3.563-.256-7.197-.343-10.726-.924-3.069-.502-6.599-1.992-7.175-5.354-.438-2.505-4.365-1.945-3.927.56l-.004-.03zM276.892 97.44L191 150.154c-2.166 1.33.311 4.421 2.461 3.093l85.894-52.697c2.166-1.33-.309-4.405-2.459-3.077l-.004-.031z" fill="#D77E60"/><path d="M191.866 150.38a6.29 6.29 0 00.959 7.837c2.197 2.254 5.427 3.436 8.253 4.707a158.143 158.143 0 009.662 4.026c3.272 1.255 6.718 2.15 10.084.92 2.406-.886.815-4.502-1.575-3.619-2.39.884-4.994-.179-7.232-1.04-2.6-1-5.183-2.061-7.747-3.184a65.592 65.592 0 01-6.874-3.244c-1.189-.692-3.447-2.475-2.366-4.112 1.381-2.111-1.785-4.529-3.173-2.354l.009.063zm136.482-45.457a839.53 839.53 0 00-96.284 62.985 794.797 794.797 0 00-25.542 20.122 1.967 1.967 0 00-.199 2.671 1.985 1.985 0 002.658.407 838.223 838.223 0 0192.704-65.95 833.886 833.886 0 0128.263-16.555c2.195-1.239.649-4.878-1.591-3.617l-.009-.063z" fill="#D77E60"/><path d="M243.723 113.421a626.881 626.881 0 00-71.066 45.428 656.389 656.389 0 00-19.026 14.679 1.974 1.974 0 001.015 3.511 1.993 1.993 0 001.461-.42 616.167 616.167 0 0168.508-47.742 611.716 611.716 0 0120.736-11.908c2.216-1.21.65-4.878-1.59-3.617l-.038.069z" fill="#D77E60"/><path d="M147.205 174.095a27.329 27.329 0 014.322 8.601 19.284 19.284 0 005.551 8.457c2.005 1.58 4.39-1.584 2.385-3.164-2.384-1.876-3.49-4.796-4.562-7.594a28.196 28.196 0 00-4.584-8.754c-1.682-1.897-4.732.532-3.112 2.454z" fill="#D77E60"/><path d="M157.629 191.09c20.542 15.678 46.741 20.245 71.655 24.342 2.528.421 3.009-3.508.498-3.915-24.24-3.986-49.782-8.328-69.759-23.528-2.031-1.544-4.416 1.619-2.385 3.163l-.009-.062zm76.878 23.772a94.755 94.755 0 0024.408-3.486 96.568 96.568 0 0011.129-3.886c1.512-.631 3.265-1.152 4.02-2.711a2.422 2.422 0 00-1.238-3.396c-2.265-1.271-3.72 2.461-1.497 3.659l.278.151-1.215-1.548c-.143-1.001-1.425.012-1.932.276l-2.347.957a96.64 96.64 0 01-4.1 1.478 89.222 89.222 0 01-9.25 2.566 94.236 94.236 0 01-18.753 2.119c-2.542.045-1.953 3.947.558 3.908l-.061-.087z" fill="#D77E60"/><path d="M232.989 202.32c.206.331.385.679.533 1.04.027.188.148.362.206.545.005.1.019.199.042.297.041.281 0 0-.013-.094.005.196.032.389.083.578l.082.579.083.578c.022.097.037.197.042.297 0 0 .069.484.025.172-.045-.313 0 0 .013.094l.043.297-.061.583a5.81 5.81 0 01-.095.571l-.054.295s-.075.377.013.094c.088-.284 0 0 .016.109.015.11.024.172-.088.284-.06.184-.131.364-.211.54a9.098 9.098 0 01-.544 1.13 1.96 1.96 0 00.035 1.59 1.959 1.959 0 001.837 1.204 1.976 1.976 0 001.811-1.246 11.488 11.488 0 00.008-11.165 2.023 2.023 0 00-1.095-1.024 2.04 2.04 0 00-1.502.007c-.48.214-.858.606-1.052 1.093a1.996 1.996 0 00.013 1.511l-.17.041zm-17.199.431c.209 2.697.4 5.381.593 8.081.078.516.357.981.776 1.294.42.313.946.449 1.466.379a2.023 2.023 0 001.297-.778 2 2 0 00.387-1.456c-.193-2.699-.384-5.383-.593-8.081a1.97 1.97 0 00-.772-1.299 1.99 1.99 0 00-1.47-.374 2.035 2.035 0 00-1.291.782 2.012 2.012 0 00-.393 1.452z" fill="#D77E60"/><path d="M213.065 202.981a63.348 63.348 0 0023.629-.185c2.493-.5 1.951-4.409-.558-3.908a59.95 59.95 0 01-22.55.222c-2.515-.438-3.013 3.477-.514 3.918l-.007-.047zm-46.077-15.493l5.342 11.486c.211.479.605.856 1.095 1.046a1.991 1.991 0 002.571-1.123 1.964 1.964 0 00-.03-1.511l-5.34-11.47a1.991 1.991 0 00-1.087-1.045 2.01 2.01 0 00-1.513.013 2.015 2.015 0 00-1.038 2.604zm72.3 24.602a128.044 128.044 0 013.426 27.468 1.964 1.964 0 00.997 1.436 1.993 1.993 0 001.753.085 168.67 168.67 0 0035.848-26.73c1.801-1.756-.694-4.861-2.476-3.091a164.783 164.783 0 01-34.947 26.202l2.752 1.537a128.123 128.123 0 00-3.426-27.468c-.591-2.451-4.52-1.906-3.927.561z" fill="#D77E60"/><path d="M248.452 240.684a62.407 62.407 0 0012.292-5.95c3.342-2.072 7.205-4.538 8.408-8.457.794-2.41-2.864-3.897-3.673-1.485-1.125 3.35-4.781 5.356-7.598 7.066a58.544 58.544 0 01-11.098 5.221c-2.394.852-.804 4.469 1.591 3.617l.078-.012zm-20.06-8.378a26.06 26.06 0 0013.553 9.946 1.996 1.996 0 002.159-.444 1.978 1.978 0 00.573-1.4 1.976 1.976 0 00-1.235-1.815 23.646 23.646 0 01-3.656-1.471 13.55 13.55 0 01-.848-.438c.363.188-.142-.091-.175-.102l-.455-.27a22.035 22.035 0 01-1.597-1.08 27.49 27.49 0 01-1.502-1.205l-.715-.631a2.283 2.283 0 00-.187-.181c.124.12.124.12 0 0l-.316-.306a24.56 24.56 0 01-2.544-3.113 2.006 2.006 0 00-2.784-.304 2.012 2.012 0 00-.325 2.773l.054.041zm94.765-58.813c4.169 2.26 9.253 1.725 13.823 1.407a145.42 145.42 0 0015.837-2.006c2.499-.453 1.957-4.363-.558-3.908a145.66 145.66 0 01-14.742 1.93c-4.202.313-8.99 1.013-12.864-1.081a1.99 1.99 0 00-2.585 1.087 1.969 1.969 0 001.089 2.571zm-4.35 9.043c6.012.443 12.051.391 18.056-.155a92.21 92.21 0 008.953-1.279c2.358-.432 5.212-1.207 4.301-4.218a1.97 1.97 0 00-1.093-1.004 1.995 1.995 0 00-1.488.037 1.981 1.981 0 00-1.044 1.057 1.96 1.96 0 00-.012 1.482l.037.266-.019-1.592c.312-.284.254-.356-.157-.201l-.565.08-1.963.281-3.361.48c-2.325.332-4.73.548-7.032.701-4.724.295-9.463.264-14.181-.095-2.527-.182-3.041 3.735-.497 3.93l.065.23z" fill="#D77E60"/><path d="M349.157 168.473c.079 3.699.15 7.41.211 11.134.074.518.352.985.773 1.299.42.314.949.448 1.47.374a2.038 2.038 0 001.291-.782c.314-.416.455-.936.393-1.452-.057-3.692-.128-7.403-.212-11.134a1.987 1.987 0 00-.776-1.294 2.005 2.005 0 00-1.466-.379c-.51.096-.966.379-1.277.792a2.062 2.062 0 00-.407 1.442z" fill="#D77E60"/><path d="M349.026 171.713a36.11 36.11 0 006.815-5.024c.563-.543 1.093-1.098 1.639-1.654.545-.557 1.398-1.428 1.242-2.522a2.363 2.363 0 00-.795-1.454 2.388 2.388 0 00-3.119.002 2.369 2.369 0 00-.797 1.455c-.068.52.073 1.044.394 1.459a1.991 1.991 0 003.541-.952 1.594 1.594 0 01-1.17 1.33 1.592 1.592 0 01-1.212-.156 1.596 1.596 0 01-.745-.964 1.596 1.596 0 01-.041-.619l.38-.931-.885.987-.222.239c-.139.148-.128.114 0 0l-.478.467c-.647.635-1.329 1.243-2.023 1.884-.694.641-1.446 1.1-2.11 1.609-.366.244-.73.503-1.114.733l-.559.351-.141.02-.206.125a2.21 2.21 0 00-1.049 1.075 2.026 2.026 0 00.035 1.59c.21.476.601.851 1.088 1.041.486.19 1.029.181 1.509-.025l.023-.066z" fill="#D77E60"/><path d="M356.617 158.093l-1.276 4.536c-.11.234-.15.495-.117.751-.034.266.004.536.112.781a1.954 1.954 0 001.092 1.053 1.992 1.992 0 001.521-.038c.234-.1.446-.244.624-.425.177-.182.317-.397.411-.632l1.275-4.536c.108-.242.152-.506.131-.769a1.571 1.571 0 00-.112-.781 1.984 1.984 0 00-1.076-1.026 1.985 1.985 0 00-1.6.02 1.878 1.878 0 00-1.048 1.075l.063-.009z" fill="#D77E60"/><path d="M356.382 165.096c29.802 8.359 60.818 9.4 91.54 10.849l6.569.322c1.617.104 3.686 0 4.971 1.14 2.226 1.899 3.388 4.875 6.93 3.635 2.412-.839.822-4.455-1.591-3.616a28.748 28.748 0 01-1.932-2.308 7.491 7.491 0 00-3.521-2.208 42.361 42.361 0 00-9.736-.842c-7.423-.36-14.843-.688-22.273-1.094a431.989 431.989 0 01-44.289-4.2 217.28 217.28 0 01-25.065-5.384c-2.436-.672-3.967 2.975-1.513 3.662l-.09.044z" fill="#D77E60"/><path d="M350.935 172.955l59.355 5.669 30.676 2.924 14.95 1.437c1.974.011 3.928.398 5.756 1.139a41.205 41.205 0 015.005 3.847 33.343 33.343 0 0012.329 5.475 33.473 33.473 0 0013.508.149c2.495-.484 1.952-4.394-.559-3.908a29.56 29.56 0 01-12.119-.106 29.45 29.45 0 01-11.041-4.959c-1.489-1.111-2.805-2.47-4.373-3.458a13.834 13.834 0 00-5.65-1.857c-4.895-.608-9.75-.935-14.546-1.415l-60.122-5.767-32.734-3.076c-2.535-.244-3.04 3.624-.498 3.915l.063-.009zm3.753 10.006c2.758-1.111 6.297-2.143 8.727.173 2.136 2.056 3.144 4.958 5.501 6.87a16.453 16.453 0 008.449 3.052c3.753.468 7.562.658 11.356.961l48.646 3.961 27.437 2.238c2.53.213 3.056-3.626.498-3.915l-49.781-4.054-24.698-2.023c-4.004-.321-8.013-.562-11.999-.981-3.258-.364-6.555-1.01-8.674-3.722-2.118-2.711-3.484-5.881-6.889-7.165-3.404-1.284-6.934-.302-10.069.975-.466.22-.829.61-1.011 1.09a1.971 1.971 0 001.097 2.519 1.99 1.99 0 001.488.01l-.078.011z" fill="#D77E60"/><path d="M455.342 199.957c8.601 4.114 17.122 9.691 26.958 9.211 7.021-.333 16.913-1.427 20.934-8.061 1.294-2.163-1.848-4.521-3.175-2.37a11.702 11.702 0 01-3.305 3.238 11.773 11.773 0 01-4.307 1.709 48.84 48.84 0 01-11.544 1.649 26.78 26.78 0 01-11.884-3.088c-4.057-1.924-8.092-3.916-12.153-5.871-2.29-1.109-3.787 2.55-1.497 3.658l-.027-.075z" fill="#D77E60"/><path d="M498.989 192.702l-2.289 9.896a1.97 1.97 0 001.708 2.196 2.024 2.024 0 001.459-.404c.415-.318.69-.785.766-1.301l2.289-9.896a1.983 1.983 0 00-1.71-2.212 2.056 2.056 0 00-1.452.414c-.414.317-.69.779-.773 1.291l.002.016zM470.324 169.3a2.056 2.056 0 001.696-1.709 2.185 2.185 0 00-1.372-2.308 2.058 2.058 0 00-2.327.651 6.627 6.627 0 00-.802 2.348c-.167.63-.316 1.273-.466 1.9a55.157 55.157 0 00-1.279 12.256 2.047 2.047 0 001.71 2.212 2.013 2.013 0 001.467-.406 1.99 1.99 0 00.755-1.315 55.944 55.944 0 01.504-7.695c.174-1.253.381-2.495.638-3.728.132-.641.281-1.284.432-1.911.056-.28.13-.545.202-.827.072-.281.329-.844.028-.482l-2.327.651-.808-.602-.17-.295-.138-.969 1.679-1.707a2.05 2.05 0 00-1.249.846c-.293.43-.41.956-.328 1.468.075.519.352.986.773 1.3.42.313.949.448 1.47.374l-.088-.052z" fill="#D77E60"/><path d="M467.162 183.851c8.104 5.349 18.127 11.222 28.004 6.654.482-.211.86-.603 1.052-1.091a1.967 1.967 0 00-1.124-2.558 1.998 1.998 0 00-1.519.032c-8.434 3.9-17.162-1.663-24.019-6.138-2.124-1.403-4.558 1.751-2.385 3.163l-.009-.062zm1.432-17.237a11.9 11.9 0 001.303 6.049 11.955 11.955 0 004.169 4.586 12.054 12.054 0 0011.997.585 2.014 2.014 0 001.023-2.602 1.991 1.991 0 00-1.087-1.045 2.008 2.008 0 00-1.512.013 11.45 11.45 0 01-1.129.512l-.582.195-.282.04c-.405.082-.814.14-1.225.175l-.613.088-.283.04c-.409-.02-.816-.063-1.22-.129l-.61-.12-.2-.051a10.16 10.16 0 01-1.15-.426 4.537 4.537 0 01-.814-.426 6.035 6.035 0 01-.895-.654c-.162-.12-.31-.258-.455-.381.222.207-.171-.183-.209-.225-.267-.297-.52-.612-.757-.929a6.073 6.073 0 01-.346-.509c.184.277-.132-.252-.132-.252a9.572 9.572 0 01-.508-1.092c-.027-.187-.056-.39-.193-.562-.137-.172.025.171-.038-.266l-.156-1.094-.085-.594-.042-.297c.027.188.024.172 0 0a1.967 1.967 0 00-.395-1.459 1.98 1.98 0 00-1.315-.753 1.994 1.994 0 00-1.467.395c-.417.319-.69.791-.758 1.31l-.034-.122z" fill="#D77E60"/><path d="M471.736 168.19l6.685-2.677a1.99 1.99 0 001.053-1.091 1.951 1.951 0 00-.03-1.511 2.025 2.025 0 00-1.101-1.029 2.042 2.042 0 00-1.512.014l-6.688 2.662c-.476.217-.85.61-1.041 1.096a1.997 1.997 0 00.019 1.506c.22.472.614.842 1.101 1.034.486.191 1.028.19 1.514-.004z" fill="#D77E60"/><path d="M437.437 113.409c3.598 10.491 11.024 18.952 18.974 26.476 4.278 4.03 8.736 7.859 13.027 11.871 2.183 2.049 4.329 4.166 6.329 6.385 1.562 1.738 3.835 4.412 1.832 6.66-1.681 1.915 1.507 4.266 3.176 2.369 4.023-4.593-.361-9.932-3.634-13.324-4.428-4.631-9.278-8.85-14.026-13.148-9.054-8.181-18.004-17.093-22.043-28.876-.823-2.403-4.459-.815-3.635 1.587z" fill="#D77E60"/><path d="M438.853 114.802a388.384 388.384 0 0151.382 40.507c1.849 1.729 4.218-1.432 2.384-3.164a388.392 388.392 0 00-51.381-40.507c-2.124-1.403-4.558 1.752-2.385 3.164zm40.829 46.735c2.647-2.228 6.624-2.206 9.778-1.109a8.36 8.36 0 012.086 1.025c.545.36.998.841 1.322 1.406.847 1.777-.023 3.879-.677 5.583l3.801.462-.262-1.159a2.02 2.02 0 00-.784-1.284 2.033 2.033 0 00-1.459-.389 2.003 2.003 0 00-1.301.774 1.985 1.985 0 00-.383 1.46l.262 1.159a2.074 2.074 0 001.699 1.687 2.049 2.049 0 002.101-1.225c1.014-2.665 1.918-5.649.735-8.43a9.084 9.084 0 00-5.201-4.552c-4.518-1.779-10.326-1.715-14.21 1.503-1.962 1.636.497 4.713 2.461 3.093l.032-.004z" fill="#D77E60"/><path d="M481.133 166.992a74.962 74.962 0 01-.622-1.777l-2.576 2.616a21.607 21.607 0 0015.079.43 1.999 1.999 0 001.047-1.093 1.982 1.982 0 00-.025-1.509 2.034 2.034 0 00-2.612-1.014c-1.901.59-3.885.873-5.875.839a17.182 17.182 0 01-6.119-1.327 2.006 2.006 0 00-2.139.474 1.988 1.988 0 00-.421 2.14c.197.594.41 1.185.623 1.777.211.48.604.858 1.094 1.051.49.193 1.036.185 1.521-.021.474-.22.845-.613 1.035-1.097a2.014 2.014 0 00-.012-1.505l.002.016z" fill="#D77E60"/><path d="M488.44 167.431c-4.931 3.4-4.388 10.004-1.572 14.578 3.581 5.772 9.443 10.007 14.715 14.15l35.485 28.073c2.005 1.579 4.39-1.584 2.385-3.163l-31.203-24.682a138.313 138.313 0 01-14.431-12.053c-3.123-3.238-8.314-10.072-2.915-13.794 2.101-1.448-.376-4.54-2.461-3.093l-.003-.016z" fill="#D77E60"/><path d="M535.828 223.628c3.05.66 6.213.617 9.246-.125a12.035 12.035 0 004.556-1.767 2.637 2.637 0 00.834-3.021 2.393 2.393 0 00-1.042-1.215 2.416 2.416 0 00-1.577-.293 2.003 2.003 0 00-1.302.774 1.988 1.988 0 00-.383 1.46 2.023 2.023 0 002.243 1.673l-.283.04-.938-.392a1.445 1.445 0 01-.097-2.027c.18-.09.18-.09 0 0l-.619.263c-.485.197-.99.365-1.528.522l-.362.051-.884.206-1.445.207a16.996 16.996 0 01-5.862-.311 1.992 1.992 0 00-1.456.399 1.977 1.977 0 00-.753 1.304 2.012 2.012 0 00.409 1.447c.319.412.785.686 1.302.765l-.059.04z" fill="#D77E60"/><path d="M506.036 176.401a342.091 342.091 0 0139.586 42.638 1.99 1.99 0 001.326.735 2.006 2.006 0 001.46-.415 1.978 1.978 0 00.74-1.321 1.967 1.967 0 00-.415-1.453 347.069 347.069 0 00-40.309-43.332c-1.85-1.729-4.264 1.454-2.388 3.148z" fill="#D77E60"/><path d="M493.142 172.182c6.796 2.698 14.845 2.951 20.655 7.608 2.004 1.58 4.374-1.582 2.385-3.164-6.216-4.917-14.405-5.247-21.541-8.087a1.992 1.992 0 00-2.586 1.087 1.962 1.962 0 00.009 1.511 1.97 1.97 0 001.08 1.061l-.002-.016zM282.974 154.05a283.001 283.001 0 0150.685-33.155c2.271-1.154.713-4.775-1.574-3.619a288.523 288.523 0 00-51.588 33.683 1.977 1.977 0 00-.316 2.78 1.99 1.99 0 002.793.311z" fill="#D77E60"/><path d="M333.632 120.819c.437.034-.618 6.898-.731 7.792-.32 2.358-.571 4.643-2.941 5.778-5.729 2.749-11.69 5.115-17.511 7.669l2.749 1.521a19.43 19.43 0 00-4.14-11.37 1.983 1.983 0 00-1.343-.704 1.996 1.996 0 00-1.45.449 1.97 1.97 0 00-.26 2.78 15.931 15.931 0 013.325 9.477 1.997 1.997 0 001.002 1.431 2.023 2.023 0 001.749.106l11.39-4.976c1.899-.845 3.835-1.648 5.716-2.507a8.909 8.909 0 003.834-2.892c1.882-2.757 1.905-6.524 2.316-9.708.41-3.185 1.359-8.328-3.151-8.705-2.53-.213-3.056 3.627-.496 3.931l-.058-.072zm-166.113 98.22a13.595 13.595 0 00.412 9.51 6.405 6.405 0 002.79 3.199 6.462 6.462 0 004.187.764 7.236 7.236 0 003.646-1.958 7.185 7.185 0 001.967-3.628 9.1 9.1 0 00-3.02-8.244 8.07 8.07 0 00-4.197-2.112 5.256 5.256 0 00-4.858 1.667 2 2 0 00.395 2.766 2.07 2.07 0 002.78-.397c-.276.31-.079.011 0 0 .079-.012.33-.159.094-.014-.235.146.157-.022.173-.024.298-.043 0 0-.094.013l.597-.085c-.384-.105-.173.024 0 0l.457.062s.397.087.142-.02c-.256-.107.202.067.219.08.204.071.404.154.597.25.325.145 0 0 0 0l.352.221c.221.153.432.32.632.5 0 0 .335.319 0 0l.227.238.444.527c.176.227.339.465.486.712.022.156.155.297.226.462.072.166.173.422.249.619.076.196 0 0 0 0 .027.134.046.27.058.406.051.248.087.498.107.75.023.108.039.218.047.328l.018.125c.018.126-.066.44-.115.655.072-.393-.011-.078 0 0l-.128.337c-.074.154-.366.579-.099.206-.133.194-.263.404-.411.601-.148.196-.348.368-.124.145.225-.224 0 0-.094.013-.161.15-.335.287-.518.409-.072.062-.15.116-.234.161.422-.188.157-.022 0 0l-.725.311.11-.016a1.296 1.296 0 00-.345.05l-.283.04c-.408.058.126-.018.11-.016-.016.003-.556-.08-.619-.071-.063.009.392.167 0 0-.121-.062-.254-.091-.359-.156-.106-.065-.372-.25 0 0l-.249-.172c-.126-.093-.502-.486-.218-.176a5.938 5.938 0 01-.504-.614l-.181-.261c.186.293 0 0-.018-.125a7.094 7.094 0 01-.33-.734l-.046-.329c-.016-.109-.085-.594-.016-.109a18.185 18.185 0 01-.263-1.844 3.229 3.229 0 01-.056-.391l-.04-.281c-.047-.328.031-.675.063-1.014.032-.34.086-.746.147-1.106l.088-.395.054-.295c-.041.166-.045.134-.014-.093a1.973 1.973 0 00-1.088-2.572 1.99 1.99 0 00-2.586 1.087l-.042.038zm-13.194-81.271l16.455 10.409a2.053 2.053 0 002.781-.398 2 2 0 00-.396-2.766l-16.471-10.406a2.04 2.04 0 00-2.764.395 1.982 1.982 0 00.395 2.766z" fill="#D77E60"/></svg>