<svg width="313" height="193" fill="none" xmlns="http://www.w3.org/2000/svg"><path d="M41.916 42.328l12.372-8.794 1.08-18.643-12.25 10.2-1.202 17.237zm-24.261-8.911c4.084 1.407 8.047 2.932 12.131 4.339l-.12 1.524-12.13 9.966.12-15.829zm1.321 53.35l12.251-9.849-.6-6.097-13.212-5.394 1.561 21.34zm19.94-28.375l15.013-10.67V63.2L39.036 74.456l-.12-16.064zm100.168 79.029c0-.703 12.731-9.732 12.731-9.732l-4.925-51.474-13.572-4.222 5.766 65.428zm157.341-32.714l13.091-9.85v-26.03l-12.971 9.733-.12 26.147zm-1.082 16.416l12.972-9.85 1.201 26.148-13.092 10.201-1.081-26.499zM300.869 193L313 182.916l-.961-27.203-12.731 10.553L300.869 193zM75.427 20.87l2.642 52.765c.72 4.339 2.883 7.504 6.126 9.85l.24 8.56c-.12 3.282-1.802 4.572-4.444 4.806-9.489-1.29-13.813-6.918-14.173-15.712l-2.762-50.067 12.37-10.201zm23.541 22.044l12.731-10.318 1.201 60.386c-.36 3.987-1.921 7.27-4.804 10.084l-12.611 10.318c3.243-2.462 5.164-6.683 5.164-12.429l-1.681-58.04zm100.531 24.272l12.011-10.67 2.642 75.863c.24 5.16-1.201 9.263-4.804 12.429l-12.612 10.436c3.243-3.049 5.165-8.208 5.165-15.36l-2.402-72.698zm-21.62-17.706l4.925 61.441c.72 4.339 1.441 8.443 4.684 10.788l.24 8.559c-.12 3.283-1.801 5.511-4.444 5.629-9.488-1.29-12.371-6.567-12.731-15.361l-5.165-60.737 12.491-10.319zm51.165 122.531l11.531-9.966-6.366-18.761-7.807-2.228 2.642 30.955z" fill="#969696"/><path d="M206.224 68.593l12.01-10.318c9.729 1.407 19.338 2.697 29.066 4.104 1.081.469 2.763 1.172 4.444 2.345 1.322.938 3.123 2.345 6.126 6.566.961 1.407 3.363 4.69 5.164 8.442 9.008 18.644 4.925 36.115 4.925 36.115-.961 3.869-2.883 10.084-7.447 16.884 4.444 13.016 9.008 26.148 13.452 39.163l-13.092 11.139-.12-3.635-23.06-45.26-2.042-10.787-21.739-.117 1.921-41.156-9.608-13.485zM.24 9.85L12.37 0l43 14.891-12.252 10.201L.24 9.85zm17.175 39.396l12.13-9.966 24.382 8.442-15.013 10.67-21.5-9.146zM45.52 25.913L57.771 15.71l17.656 5.16-12.612 10.2-17.295-5.158zM82.273 37.17l12.011-10.32 17.536 5.746-12.852 10.318-16.695-5.745zm18.618 5.863l12.131-10.319 46.962 12.898-11.891 9.967-47.202-12.546z" fill="#CCC"/><path d="M148.333 76.801l12.371-11.608-.721-19.581-11.89 9.966.24 21.223z" fill="#CCC"/><path d="M165.628 59.8l12.251-10.202-16.214-3.986-12.131 11.022 16.094 3.165zm17.655 3.869l12.611-11.022 15.855 4.573-12.251 9.966-16.215-3.517zM296.545 78.56l12.972-9.732-37.474-3.283-15.854 11.257 40.356 1.758zm-19.817 40.218l12.492-10.084-.241-4.572-12.971-1.408.72 16.064z" fill="#CCC"/><path d="M308.316 111.274l-19.097-2.931-12.491 10.435 18.616 2.345 12.972-9.849zm-29.187 50.419l12.612-10.436-.481-4.924-13.092-2.228.961 17.588z" fill="#CCC"/><path d="M299.307 166.266l12.732-10.553-20.298-4.455-12.612 10.435 20.178 4.573z" fill="#CCC"/><path d="M243.818 92.748h-25.463v35.059h25.463v-35.06z" fill="#969696"/><path d="M233.489 123.234h2.402l2.042 10.787 23.06 45.261.121 3.634 13.091-11.139c-4.444-13.015-9.008-26.147-13.452-39.163 4.564-6.8 6.606-12.898 7.447-16.884 0 0 4.084-17.354-4.925-36.114-1.801-3.752-4.203-7.153-5.164-8.443-1.321-1.876-2.402-3.166-3.363-4.104l-21.019 11.374v44.791h-.24z" fill="#969696"/><path d="M39.035 74.34l-21.38-8.912 1.082 21.34L1.2 79.616 0 9.85l42.998 15.243-.84 17.588-24.622-9.498-.12 16.181 21.499 8.56.12 16.415zm9.849 3.517l-3.603-51.943 17.535 5.042 2.883 52.53c.6 6.214 5.525 10.552 10.21 12.428 4.443 1.76 8.887 1.056 8.407-5.276l-2.162-53.702 16.935 5.745 1.561 55.11c1.321 17.236-9.849 20.519-22.82 14.891-13.332-5.511-27.024-18.644-28.946-34.825zm52.966-15.008l-1.441-19.933 47.322 12.78.601 21.106-15.134-4.807 5.766 65.545-15.014-6.215-6.606-64.138-15.494-4.338zm53.328 54.757l-5.885-61.44 16.214 3.4 4.925 62.379c.841 7.504 5.405 12.077 9.729 13.601 4.083 1.407 8.047-.352 7.326-7.973l-3.843-63.904 15.854 3.752 3.003 65.897c1.681 20.989-8.168 27.555-20.058 22.865-12.011-4.808-24.622-18.995-27.265-38.577zm105.575 61.324l.241 3.752-15.014-5.159-12.011-34.356-7.686-2.11 3.002 30.838-14.293-4.573-9.008-99.08c9.008 1.29 17.656 2.345 26.544 3.87 14.413 2.227 21.86 22.981 22.46 42.094.361 12.194-1.801 23.216-6.966 28.727l12.731 35.997zm-25.943-56.868c4.204.938 5.885-5.159 5.525-11.726-.36-6.683-2.642-13.25-6.966-14.07l-10.69-1.994 1.682 25.445 10.449 2.345zm62.216-17.119l-20.899-2.228.721 16.063 18.977 2.463.841 26.03-18.497-3.283 1.081 17.823 20.418 4.221 1.201 26.617-33.87-8.56-7.207-108.343 36.874 2.345.36 26.852z" fill="#ECEEF0"/></svg>