<svg width="239" height="241" fill="none" xmlns="http://www.w3.org/2000/svg"><path d="M31.737 34.17c15.585-2.323 25.41-4.09 28.953-5.262 1.355-.404 3.147-1.111 5.385-.618 1.986.451 2.934 1.734 4.414 1.351 1.084-.323 1.767-1.338 2.179-2.272l29.901-3.98 34.337-5.88 88.399 48.221 3.199 4.033 1.106 3.439-1.128 6.83-5.364 27.802-1.427 2.396-2.168.646 2.247 1.998.018 3.009-5.754 32.499-3.133 3.368 1.775 3.298-6.137 34.816-1.753 3.595-2.168.646-42.89 10.864-8.835 1.193-14.685 4.712-40.743 10.34-3.832-1.757-77.432-61.577-1.448-4.497 4.35-33.356 2.911-2.026-2.527-3.422 4.336-35.613 3.037-2.006-2.637-4.316 4.381-35.105 3.133-3.368z" fill="#1C4C5F"/><path d="M192.541 112.109l4.922-29.76c.267-.833.679-1.767.946-2.6.602-.528 1.35-1.157 1.952-1.685 9.154-1.63 18.163-3.158 27.317-4.787.586.347.817.51 1.258.958.044.508.194 1.16.239 1.668l-5.702 32.137a23.792 23.792 0 01-1.2 1.808c-.562.283-1.019.709-1.581.993-8.507 1.611-17.139 3.201-25.646 4.811-.397.06-.773-.001-1.254-.206l-.125-.02a2.277 2.277 0 01-1.327-2.097c.185-.345.266-.833.201-1.22z" fill="#EC5D3E"/><path d="M147.941 163.758l4.922-29.76c.267-.833.679-1.768.945-2.601.603-.527 1.35-1.156 1.953-1.684 9.154-1.63 18.162-3.158 27.317-4.788.586.347.817.51 1.258.958.044.509.194 1.16.239 1.668l-5.702 32.138a23.79 23.79 0 01-1.2 1.807c-.562.284-1.019.71-1.581.994-8.507 1.61-17.14 3.2-25.647 4.811-.396.06-.772-.002-1.253-.206l-.126-.02a2.277 2.277 0 01-1.327-2.097l.202-1.22zm-46.421 50.975l4.7-28.419c.266-.833.658-1.646.925-2.479.602-.528 1.33-1.035 1.932-1.562 9.135-1.508 18.123-2.914 27.258-4.422.586.347.817.51 1.278.836.044.508.214 1.037.259 1.546l-5.46 30.674c-.351.569-.703 1.138-1.18 1.686-.562.283-1.019.71-1.581.993-8.487 1.489-17.099 2.957-25.587 4.446-.396.06-.772-.002-1.253-.206l-.126-.021c-.837-.388-1.343-1.222-1.347-1.975l.182-1.097z" fill="#3A8A9D"/><path d="M108.44 172.789l4.922-29.759c.267-.834.679-1.768.946-2.601.602-.528 1.35-1.157 1.952-1.684 9.154-1.63 18.163-3.158 27.317-4.788.586.347.817.51 1.258.958.044.508.194 1.159.239 1.668l-5.702 32.137a23.792 23.792 0 01-1.2 1.808c-.562.283-1.019.71-1.581.993-8.507 1.611-17.139 3.201-25.646 4.811-.397.061-.773-.001-1.254-.205l-.125-.021a2.278 2.278 0 01-1.328-2.097l.202-1.22z" fill="#EC5D3E"/><path d="M77.732 105.734l3.915-30.676c.036-.996-.074-1.891-.038-2.887-.4-.693-.78-1.507-1.181-2.199L59 57.061c-.541.161-.812.242-1.374.526-.206.467-.433 1.056-.639 1.523l-3.942 33.177c.13.773.3 1.302.555 2.096l1.052 1.425c6.66 4.1 13.302 8.322 19.963 12.421.356.184.732.246 1.002.165l.126.02c.792-.12 1.415-.77 1.681-1.603.04-.244.247-.711.307-1.077zm26.479-61.137c16.425-1.943 23.27-2.826 24.585-2.986.126.02.542-.162 1.064-.201.919-.1 1.671.023 3.281.413 1.987.451 3.116.636 4.666 1.392.837.389 1.55.756 2.011 1.083 5.762 3.328 11.379 6.758 17.141 10.086.126.02.713.367.632.856-.02.122-.061.366-.769.751a7.153 7.153 0 01-1.249.547c-6.489 1.067-20.807 2.729-24.395 3.393-1.546-.003-2.067.037-3.071-.128-1.003-.164-2.403-.269-4.119-.801-1.841-.553-3.119-1.39-4.062-1.92-5.783-3.207-11.42-6.514-17.202-9.72-.607-.226-1.069-.552-1.008-.918-.065-.387.226-.59.517-.793a2.894 2.894 0 011.978-1.054zm66.187 12.769c.165-.224.436-.304 1.375-.526.667-.142.813-.243.813-.243 14.584-2.496 21.886-3.805 23.201-3.965 0 0 1.294-.038 1.796.044 0 0 1.274.084 3.095.759 1.696.654 11.917 5.843 25.513 13.215 0 0 .502.082.567.469 0 0 .065.387-.101.61 0 0-.166.224-.582.406-.814.243-24.496 4.003-27.667 4.486-.271.08-.793.12-1.441.14-.376-.063-1.274-.084-2.593-.677-1.214-.45-2.011-1.083-2.011-1.083-1.51-1-9.619-5.716-21.751-12.597-.376-.062-.461-.326-.566-.469.06-.366.206-.468.352-.57z" fill="#3A8A9D"/><path d="M135.531 63.274c16.425-1.943 23.27-2.825 24.585-2.985.125.02.542-.162 1.064-.202.918-.1 1.671.024 3.281.413 1.987.452 3.116.637 4.665 1.393.838.389 1.55.756 2.011 1.083 5.763 3.328 11.38 6.757 17.142 10.085.125.021.712.368.632.856-.021.123-.061.367-.769.752s-1.25.547-1.25.547c-6.489 1.066-20.806 2.728-24.394 3.393-1.546-.003-2.068.037-3.071-.128-1.004-.165-2.404-.269-4.119-.801-1.841-.553-3.12-1.39-4.063-1.921-5.782-3.206-11.419-6.514-17.202-9.72-.607-.225-1.068-.551-1.008-.918-.064-.386.227-.59.518-.792.643-.772 1.581-.994 1.978-1.055z" fill="#EC5D3E"/><path d="M93.413 71c.186-.345.457-.426 1.396-.648.688-.263.813-.242.813-.242 14.745-3.472 22.107-5.147 23.442-5.43 0 0 1.295-.038 1.816-.077 0 0 1.295-.038 3.096.759 1.695.654 11.795 6.574 25.229 14.921 0 0 .482.205.547.591 0 0 .064.387-.121.733 0 0-.186.345-.583.406-.833.364-24.737 5.467-27.948 6.193a5.61 5.61 0 01-1.461.262c-.396.06-1.274-.084-2.593-.676a11.543 11.543 0 01-1.991-1.205c-1.489-1.122-9.497-6.448-21.467-14.304-.376-.062-.462-.326-.547-.591.166-.224.352-.57.372-.691z" fill="#F3B08C"/><path d="M185.004 155.453l4.7-28.419c.267-.833.659-1.646.925-2.479.603-.527 1.33-1.034 1.933-1.562 9.134-1.508 18.122-2.914 27.257-4.422.586.347.817.51 1.278.836.045.509.215 1.038.259 1.546l-5.459 30.675c-.352.568-.704 1.137-1.181 1.685-.562.284-1.018.71-1.58.994-8.488 1.488-17.1 2.956-25.587 4.445-.397.06-.773-.002-1.254-.206l-.125-.02c-.837-.388-1.343-1.223-1.348-1.975.166-.224.227-.59.182-1.098zM65.097 191.697l-.323 1.951c-.04.244-.206.467-.371.69-.623.65-1.48.384-1.606.363-.942-.53-1.884-1.061-2.787-1.835-7.843-6.298-12.163-9.764-17.701-14.431-.526-.712-.801-1.384-.866-1.77-.34-1.058-.305-2.055-.224-2.542.016-.875.242-1.464.323-1.952 1.116-9.086 2.572-17.115 3.688-26.202.02-.122.016-.874.638-1.523.457-.426.853-.487.979-.466.772.001 1.318.592 1.318.592 6.35 4.425 11.913 9.722 18.138 14.126.712.368 1.153.816 1.364 1.101.946 1.283.955 2.788 1 3.296-.016.874-.137 1.606-.157 1.728-.428 1.809-1.08 8.09-2.434 19.393" fill="#3A8A9D"/><path d="M44.143 131.267l-.322 1.951c-.04.244-.207.468-.372.691-.623.649-1.48.383-1.605.363-.943-.531-1.885-1.061-2.787-1.836-7.844-6.298-12.164-9.763-17.702-14.43-.526-.713-.801-1.384-.866-1.771-.34-1.058-.304-2.054-.224-2.542.016-.874.242-1.463.323-1.951 1.116-9.087 2.572-17.116 3.688-26.202.02-.122.016-.874.639-1.524.456-.426.853-.486.978-.466.772.002 1.319.593 1.319.593 6.35 4.424 11.912 9.722 18.138 14.126.711.367 1.152.816 1.363 1.1.947 1.284.955 2.788 1 3.297-.016.874-.137 1.606-.157 1.728-.428 1.808-1.08 8.09-2.434 19.393" fill="#F3B08C"/><path d="M115.927 139.192l28.517-6.594.397-.061.335.306c1.092 1.181 1.603 2.769 1.591 4.395-.06.366.004.753-.181 1.098l-.182 1.098-.343 2.073-1.226 8.192-2.472 16.507-.182 1.097c-.061.366-.267.834-.327 1.199-.267.834-.909 1.605-1.512 2.133-.747.629-1.455 1.014-2.268 1.256-.812.242-1.479.384-2.146.525a24761.9 24761.9 0 00-8.382 1.631c-5.588 1.087-11.281 2.032-16.934 2.733l-.085-.265c5.438-1.738 10.961-3.212 16.464-4.564a489.514 489.514 0 018.317-2.017c3.045-.503 4.375-1.537 4.693-4.241l3.099-16.404 1.477-8.151.343-2.073c.121-.732.347-1.321.323-1.952.076-1.24-.244-2.42-1.106-3.438l.732.245-28.731 5.558-.211-.286zm-3.956 7.488c-.237 2.215-.474 4.431-.586 6.667l-.711 6.646c-.238 2.215-.349 4.451-.837 6.625-.613 2.154-1.226 4.307-2.215 6.399l-.25-.041c-.264-2.298-.152-4.534-.04-6.769.237-2.216.85-4.369 1.338-6.544l1.463-6.522c.613-2.154 1.1-4.328 1.588-6.502l.25.041zm-11.191 67.054l4.159-28.257c.307-1.077 1.135-2.194 2.134-2.782.562-.283 1.124-.567 1.666-.728.542-.162 1.063-.202 1.605-.363l6.17-1.493 12.341-2.986 6.17-1.494 1.605-.362c.793-.121 1.67.023 2.362.512.692.49.967 1.161 1.097 1.934.065.387.129.773.089 1.017l-.141.854-1.912 12.339c-.686 4.147-1.226 8.193-2.038 12.319l-.504 3.05-.262 1.585c-.101.61-.327 1.199-.554 1.789-1.155 2.315-3.82 3.632-6.157 3.75-1.981.301-4.108.704-6.235 1.106l-6.255 1.229c-4.129.826-8.382 1.631-12.511 2.457l-.085-.265a243.68 243.68 0 0112.191-3.637c4.189-1.191 8.107-2.302 12.486-3.087.271-.081.521-.04.792-.121.271-.08.397-.06.668-.141.416-.182.832-.364 1.124-.567.727-.507 1.33-1.034 1.596-1.868.186-.345.247-.711.327-1.199l.262-1.585.505-3.05c.686-4.147 1.477-8.151 2.163-12.298l2.288-12.278.121-.732c.02-.121.06-.365-.045-.508-.085-.265-.275-.672-.4-.692-.231-.163-.482-.204-.732-.246l-1.46.262-6.276 1.351-12.551 2.7-6.275 1.351-1.46.261c-.416.183-.958.344-1.249.547-.853.487-1.35 1.157-1.637 2.112l.02-.122-5.036 28.113-.166.223zm40.885-15.065c.746-4.513 1.367-9.047 1.968-13.459.238-2.216.621-4.533.859-6.749.202-1.22.654-2.399 1.463-3.394.808-.995 2.078-1.663 3.392-1.824l25.265-6.378-.271.081c.562-.283 1.104-.445 1.751-.464a2.864 2.864 0 011.715.532c.461.326.882.896 1.032 1.547.15.651.195 1.16-.032 1.749l.02-.122c-.746 4.513-1.367 9.047-2.114 13.56a247.208 247.208 0 01-2.615 13.478l.02-.122c.025.63-.076 1.24-.303 1.829-.226.59-.327 1.199-.678 1.768-.578 1.158-1.492 2.011-2.636 2.7l-.146.101-.125-.02c-1.46.261-2.814.665-4.274.927s-2.795.544-4.254.805l-.085-.264c1.374-.526 2.729-.93 4.104-1.457 1.375-.526 2.729-.93 4.209-1.313l-.145.101c.873-.608 1.39-1.401 1.782-2.213a5.879 5.879 0 00.485-2.928l.02-.122c.621-4.533 1.242-9.067 1.988-13.58.747-4.513 1.619-9.006 2.49-13.498l.021-.122.08-.488c.021-.122-.085-.265-.19-.407-.105-.143-.356-.184-.481-.204-.126-.021-.397.06-.542.161l-.146.102-.125-.021-25.395 5.605c-1.043.079-1.896.566-2.664 1.317-.643.771-1.075 1.828-1.362 2.783-.238 2.216-.747 4.513-1.11 6.709-.872 4.492-1.743 8.985-2.595 13.356l-.376-.062zm37.298-.376l2.751-18.966 1.428-9.412c.141-.854.116-1.485.403-2.44.267-.833.658-1.646 1.301-2.417 1.14-1.442 2.951-2.272 4.787-2.472l-.125-.02 13.945-3.349 6.963-1.614.938-.222c.145-.101.812-.242 1.314-.16 1.148.063 2.155.98 2.39 1.896.19.407.215 1.037.155 1.403l-.101.61c-.041.244-.186.345-.206.467-.186.346-.287.955-.368 1.443-.997 4.472-1.763 9.107-2.655 13.721-.892 4.614-1.784 9.228-2.801 13.822l-.251-.041c.14-4.738.53-9.434 1.026-13.988.515-4.676 1.157-9.332 2.049-13.946.1-.61.201-1.219.573-1.91.04-.244.166-.223.186-.345l.04-.244.041-.244-.211-.285c.02-.122-.792.12-1.334.282l-7.048 1.349-14.115 2.82-.126-.021a5.135 5.135 0 00-3.768 1.762 5.37 5.37 0 00-1.074 1.828c-.227.589-.243 1.464-.384 2.317l-1.678 9.371-3.503 18.844-.502-.083-.04.244zm7.88.662c1.521-.628 3.021-1.133 4.522-1.639l4.502-1.517c1.501-.506 3.022-1.134 4.607-1.375 1.586-.241 3.277-.34 4.908-.072l.085.265c-1.331 1.035-2.852 1.663-4.373 2.29-1.5.506-3.191.605-4.672.988l-4.777.846-4.757.723-.045-.509zm-.555-41.16c.105.142.461.326.712.367.231.163.501.082.752.124.522-.04 1.064-.202 1.731-.343l3.481-.807 6.858-1.756 13.694-3.39-.145.102c.562-.284 1.019-.71 1.475-1.136.332-.447.683-1.016 1.015-1.462.166-.224.226-.59.266-.834l.287-.955.448-1.931c.549-2.54.993-5.224 1.417-7.785a329.515 329.515 0 002.582-15.612l.322-1.951.162-.976c.04-.244.08-.488-.025-.63l-.105-.143-.376-.062c-.396.061-1.189.181-1.856.322l-7.986 1.571c-5.317 1.007-10.654 2.135-15.951 3.02l.125.02a2.728 2.728 0 00-1.58.994c-.332.446-.578 1.158-.679 1.767l-.02.122-1.542 7.765c-.549 2.541-.993 5.224-1.542 7.765l-1.687 7.866-1.833 7.968zm-.271.081c.299-2.582.597-5.164.915-7.868l1.061-7.969c.318-2.704.762-5.387 1.206-8.071l1.206-8.07-.02.122c.056-1.118.488-2.175 1.171-3.19.663-.894 1.807-1.583 2.891-1.906 5.317-1.007 10.614-1.891 15.911-2.776l7.945-1.327 1.063-.201c.271-.081.793-.121 1.189-.181.522-.04 1.023.043 1.61.389.586.347.861 1.019.906 1.527.045.509.11.895.049 1.261l-.161.976-.323 1.951-2.958 15.55c-.549 2.541-1.118 5.204-1.667 7.745l-.448 1.93-.287.956c-.061.366-.247.711-.432 1.056-.372.691-.724 1.26-1.201 1.808-.477.548-1.184.933-1.766 1.338l-13.76 3.004-6.942 1.492-3.482.806c-.542.162-1.083.324-1.73.343-.793.12-1.4-.105-1.946-.695zm6.399-45.787l1.231-7.44c.403-2.439.702-5.021 1.105-7.46l2.085-14.942.82-2.622.02-.122.145-.101 1.953-1.684.145-.102.146-.1 27.232-5.053.397-.06.355.183 1.404.857.356.184.065.386.239 1.668-.02.122-.02.122-2.663 16.1-1.332 8.05-1.456 8.029-.041.244-.165.223-1.201 1.808-.165.223-.146.102-1.581.993-.27.081-.271.081c-5.172.905-10.303 1.566-15.58 2.329-2.628.32-5.151.783-7.779 1.103l-1.982.301a2.44 2.44 0 01-1.043.08c-.376-.062-.752-.124-.983-.287-.586-.347-1.132-.937-1.282-1.588.206-.468.307-1.077.282-1.708zm.251.041c.025.631-.076 1.241.074 1.892.17.529.59 1.099 1.197 1.324.23.163.607.224.857.266.251.041.667-.142.938-.222l1.877-.444 7.629-1.755c5.087-1.169 10.193-2.461 15.26-3.509l-.417.182 1.601-1.115-.311.325 1.2-1.808-.206.468 1.457-8.03 1.457-8.029 3.164-16.017-.061.366-.239-1.668.401.692-1.258-.958.752.123-27.402 4.523.291-.203-1.953 1.684.166-.223-.945 2.601.02-.122-2.837 14.818c-.404 2.44-.953 4.981-1.356 7.42l-1.356 7.419zm-37.946 7.409l1.251-7.562c.423-2.562.721-5.144 1.125-7.583l2.145-15.308.966-2.723.02-.122.145-.101 1.953-1.684.146-.102.145-.1 27.9-5.194.396-.06.356.183 1.383.98.356.183.065.386.365 1.689-.021.122-.02.122-2.723 16.465-1.352 8.172-1.476 8.151-.041.244-.166.224-1.2 1.807-.165.224-.146.101-1.581.993-.271.081-.271.081c-5.296.885-10.573 1.647-15.975 2.389l-7.926 1.205-1.981.302c-.396.06-.667.141-1.043.079-.376-.062-.752-.124-1.108-.307-.712-.368-1.133-.938-1.283-1.589-.17-.529-.069-1.139.032-1.748zm.251.041c.024.63-.097 1.362.073 1.891.17.529.591 1.099 1.198 1.324.23.163.606.225.857.266.251.041.667-.141.938-.222l2.002-.423 7.9-1.836c5.232-1.271 10.444-2.42 15.656-3.569l-.416.182 1.601-1.115-.312.325 1.201-1.808-.206.467 1.477-8.151 1.476-8.151 3.225-16.383-.06.366-.24-1.668.401.692-1.383-.979.752.124-28.07 4.664.291-.203-2.078 1.663.166-.223-.945 2.601.02-.122-2.898 15.184c-.423 2.562-.972 5.102-1.376 7.542l-1.25 7.562zm-2.854 14.933c.162-.976.574-1.912 1.363-2.785.643-.772 1.516-1.38 2.495-1.847l.125.021c5.36-1.251 10.7-2.38 15.934-3.652 2.69-.686 5.36-1.251 7.989-1.571.668-.142 1.315-.161 2.088-.159.793-.121 2.047.085 2.678.941.316.428.361.936.426 1.323.064.387.004.753-.057 1.119-.121.732-.493 1.423-.844 1.992l-.231-.163c.101-.61.222-1.342.052-1.872-.17-.529-.3-1.302-.551-1.343-.23-.164-.607-.225-1.023-.043-.668.141-1.355.404-2.023.545-2.69.687-5.339 1.129-8.094 1.429-5.405.743-10.829 1.607-16.234 2.349l.126.021c-.834.365-1.687.851-2.435 1.481a4.864 4.864 0 00-1.553 2.377l-.231-.163zm-.581 5.153l-1.904 13.846-1.004 6.851-.44 3.436c-.101.61-.161.976.029 1.383l.316.428.125.02.125.021.251.041c.251.041.376.062.647-.019.251.041.522-.04.793-.121l1.731-.342 3.481-.807 6.964-1.614 13.927-3.227-.271.081c.728-.507 1.456-1.014 1.848-1.827.165-.223.186-.345.226-.589l.04-.244.061-.366.282-1.708c.489-2.175.872-4.493 1.361-6.668.488-2.175.997-4.472 1.486-6.647.488-2.175 1.122-4.451 1.611-6.626l.251.041c-.113 2.237-.371 4.575-.609 6.791-.237 2.216-.495 4.554-.733 6.771-.238 2.216-.621 4.533-.859 6.75l-.282 1.707-.081.488-.081.488c-.06.366-.246.711-.412.935-.598 1.28-1.678 2.356-2.947 3.024l-.146.102-.125-.021c-4.671.988-9.321 1.853-13.972 2.719l-7.049 1.349-3.587.664-1.73.343c-.271.081-.522.04-.918.1-.397.06-.773-.002-1.149-.063-.251-.041-.376-.062-.607-.225-.125-.021-.25-.041-.356-.184-.125-.02-.105-.142-.23-.163a2.938 2.938 0 01-.737-.998c-.19-.407-.255-.794-.194-1.159l.161-.976.69-3.395 1.256-6.81 2.656-13.722.125.02-.02.122zM121.38 92.874l16.327-2.959 8.091-1.428 4.109-.704c.27-.08.792-.12 1.168-.058.376.061.858.266 1.213.45.692.489 1.073 1.303 1.202 2.076.11.894-.116 1.484-.217 2.094l-.323 1.951-.666 4.025-1.311 7.928-2.643 15.978.021-.122c.024.63-.077 1.24-.303 1.83-.226.589-.452 1.178-.784 1.625a5.924 5.924 0 01-2.951 2.272l-.125-.021-14.512 2.88-7.319 1.43-7.299 1.308-.125-.021a4.347 4.347 0 01-2.111-.471 3.123 3.123 0 01-1.242-1.833c-.15-.651-.09-1.017-.114-1.647.101-.61.181-1.098.387-1.565l-.04.244c.847-5.123 1.715-10.367 2.687-15.47.973-5.102 1.966-10.326 3.064-15.407l.251.04c-.472 5.185-.963 10.492-1.685 15.635-.596 5.164-1.338 10.429-1.935 15.593l-.02.122-.02.122c-.041.244-.226.589-.141.853-.041.244.004.753.109.895.085.265.085.265.21.286l.377.061-.126-.02 7.299-1.308 7.298-1.308 14.577-2.494-.125-.02c.813-.243 1.54-.75 1.912-1.44.186-.346.372-.691.578-1.158l.202-1.22.02-.122.02-.122 2.998-15.794 1.562-7.887.791-4.005.323-1.951c.101-.61.347-1.321.303-1.83a2.266 2.266 0 00-.676-1.363c-.231-.163-.481-.205-.732-.246-.251-.04-.522.04-.918.1l-4.088.582-8.196 1.286-16.373 2.45.021-.122zm-17.477 43.328l-13.598-8.871-6.872-4.385c-1.238-1.08-1.695-.654-2.418.605-.226.59-.452 1.179-.553 1.789-.101.61-.097 1.362-.198 1.972l-2.35 15.774c-.3 2.582-.743 5.265-1.041 7.847l-.52 3.924c-.202 1.219.013 2.257.644 3.112.315.428.756.876 1.218 1.202l1.739 1.162 3.353 2.304 6.726 4.487 6.706 4.608 1.614 1.142.796.632.231.163c.125.02.23.163.356.183l.25.041c.126.021.126.021.146-.101.146-.101.146-.101.166-.223l.121-.732c1.985-10.448 3.845-20.916 6.332-31.282l.251.041c-.983 10.613-2.572 21-4.036 31.409l-.201 1.219c-.081.488-.433 1.057-.889 1.483-.457.426-1.019.71-1.541.749-.541.162-1.168.059-1.775-.166-.23-.163-.356-.183-.586-.347l-.587-.346-.797-.632-1.613-1.142-6.56-4.71-6.561-4.709-3.353-2.304-1.614-1.142c-.566-.469-1.238-1.08-1.659-1.65-.926-1.405-1.165-3.073-.923-4.537l.52-3.923c.423-2.561.867-5.245 1.165-7.826l2.728-15.713c.1-.61.076-1.24.323-1.952.12-.731.367-1.443.718-2.011.186-.346.352-.569.663-.894.186-.345.623-.649 1.144-.689.397-.06.918-.1 1.38.226.355.184.586.347.922.653l6.706 4.608 13.492 8.729-.165.223zm-7.999 75.715l1.677-13.254.838-6.627.713-6.648-.02.122c.016-.874-.239-1.668-.745-2.503-.526-.712-1.177-1.446-1.868-1.935-1.74-1.162-3.353-2.304-4.947-3.568l-9.622-7.216-4.822-3.548-.566-.468c-.125-.021-.23-.163-.25-.041-.126-.021-.272.08-.437.304-.166.223-.332.446-.392.812l-.242 1.464c-.646 3.903-1.166 7.826-1.666 11.628-.52 3.923-1.02 7.725-1.54 11.648l-.359 2.948-.242 1.463-.1.61c-.04.244-.061.366.024.63.004.753.26 1.546.785 2.259.4.692 1.072 1.303 1.87 1.935.67.612 1.467 1.243 2.264 1.875l2.39 1.896 4.636 3.893 9.311 7.541-.165.223c-3.394-2.06-6.747-4.364-10.1-6.668-1.613-1.142-3.353-2.304-4.966-3.446l-2.411-1.774c-.797-.632-1.614-1.142-2.41-1.773a12.345 12.345 0 01-2.31-2.384c-.737-.998-1.202-2.076-1.251-3.337-.085-.265-.025-.63.016-.874.04-.244-.025-.631.015-.875l.117-1.484.359-2.948c.52-3.923 1.04-7.846 1.686-11.749.645-3.903 1.29-7.806 2.061-11.688l.242-1.464c.101-.61.473-1.3.804-1.747.477-.548 1.33-1.034 2.208-.89a3.09 3.09 0 011.088.429l.691.489 4.801 3.669 9.457 7.44c1.594 1.264 3.187 2.528 4.801 3.669.942.531 1.699 1.407 2.31 2.384.611.977.951 2.035.895 3.153-.363 2.196-.601 4.412-.964 6.607l-1.09 6.586L96.406 212l-.501-.083zm-30.687-20.2l-.197 1.972c-.206.467-.392.813-.808.995a1.803 1.803 0 01-1.42.017c-.942-.53-1.884-1.06-2.806-1.713l-2.621-2.059-5.117-4.096-10.253-8.072-.105-.143c-.736-.997-1.182-2.198-1.25-3.337-.07-1.138.006-2.379.313-3.456l-.02.122 3.314-26.264-.02.122c-.045-.509.16-.976.387-1.565a2.87 2.87 0 011.245-1.299c.562-.284 1.229-.425 1.835-.2.607.225 1.068.551 1.51.999l-.232-.163c3.248 2.162 6.33 4.546 9.267 7.033l4.425 3.607c1.488 1.121 2.956 2.365 4.57 3.506l-.125-.02c1.298.714 2.245 1.997 2.544 3.299.425 1.322.349 2.562.147 3.782-.488 2.175-.726 4.391-1.214 6.565-.726 4.391-1.453 8.782-2.304 13.152l-.25-.041c.224-4.473.554-8.804.904-13.256.238-2.216.35-4.453.713-6.648.198-1.972-.377-3.945-1.801-4.68l-.125-.021c-1.634-1.019-3.228-2.283-4.716-3.404-1.469-1.243-3.082-2.385-4.55-3.628a198.609 198.609 0 00-8.87-7.093l-.106-.143-.105-.142c-.105-.143-.23-.163-.356-.184l-.25-.041c-.126-.021-.146.101-.292.203-.02.121-.185.345-.1.609l-.02.122-4.066 26.141-.02.122c-.287.956-.343 2.074-.36 2.948.09 1.017.45 1.953.956 2.788l-.105-.143 9.942 8.396 4.97 4.199 2.476 2.16c.797.632 1.74 1.162 2.662 1.815.376.061.752.123 1.043-.08.29-.203.582-.405.768-.751l.322-1.951.271-.081zm-22.846-59.111c-.582.405-1.103.445-1.71.22s-.922-.652-1.258-.958l-2.37-2.018a77.352 77.352 0 00-4.886-3.933c-3.313-2.548-6.645-4.974-10.124-7.299-.44-.448-.861-1.018-1.177-1.446-.21-.285-.42-.57-.486-.957-.085-.264-.15-.651-.234-.915-.15-.651-.3-1.302-.2-1.912-.024-.63.077-1.24.053-1.87.152-2.481.41-4.819.688-7.279l1.628-14.515.334-3.578c.101-.61.097-1.362.76-2.255.331-.447 1.164-.812 1.77-.587.627.103.983.287 1.339.47l6.285 4.039c4.21 2.57 8.42 5.14 12.756 7.73.922.653 1.639 1.773 1.978 2.83.34 1.059.284 2.177.123 3.153l.02-.122c-.318 2.703-.742 5.265-1.185 7.948-.444 2.683-.742 5.265-1.186 7.948l-1.291 7.806c-.654 2.398-1.098 5.081-1.627 7.5zm-.23-.164c.193-2.724.366-5.326.559-8.051l.664-7.908c.173-2.602.47-5.184.77-7.766.297-2.582.47-5.184.768-7.766l.02-.122c.101-.61.097-1.362-.073-1.891-.17-.53-.465-1.079-1.052-1.426l.126.021a226.877 226.877 0 01-12.57-8.076c-2.096-1.346-4.17-2.814-6.12-4.261-.23-.164-.356-.184-.481-.205 0 0 .145-.101 0 0 0 0-.166.224-.206.468l-.121.731-.46 3.558-1.879 14.474c-.278 2.46-.66 4.777-.814 7.257-.403 2.44-.244 4.595 1.645 6.409l-.106-.143a155.292 155.292 0 019.938 7.644c1.573 1.386 3.167 2.65 4.74 4.035l2.35 2.14c.336.305.777.754 1.133.937.25.041.481.205.752.124-.02.122.271-.081.417-.183zm5.887-46.622l.96-7.359.834-7.38 1.523-14.657-.02.122-.078-2.643.085.264-1.202-2.076.21.285L29.795 40.36l.877.144-1.249.547.602-.528-.638 1.524.04-.244-1.599 15.898-.915 7.867-1.06 7.97-.065-.387.45 1.953-.19-.407.926 1.404-.336-.305c3.835 2.508 7.523 5.118 11.212 7.728 1.844 1.304 3.688 2.61 5.678 3.813l1.384.978c.46.327.942.53 1.358.349.542-.162.853-.487 1.06-.954.517-.792.617-1.402.698-1.89zm.25.042c-.1.61-.18 1.097-.407 1.686-.226.59-.683 1.016-1.224 1.177-.271.081-.668.142-.918.1-.377-.061-.607-.225-.837-.388l-1.53-.877c-1.99-1.203-4-2.285-5.884-3.346-4-2.285-7.894-4.427-11.894-6.712l-.23-.163-.211-.285-1.052-1.426-.105-.142-.085-.265-.575-1.973-.105-.143.04-.244.915-7.867 1.06-7.969 2.1-15.815.02-.122.021-.122.638-1.524.186-.346.417-.182 1.229-.424.416-.183.356.184 20.194 12.585.105.142.105.143 1.077 2.055.105.143-.02.122.057 2.765-2.275 14.535-1.084 7.338-.604 7.543zm29.327 19.852l1-7.603.875-7.623 1.644-15.39-.02.122-.184-2.786.085.265-1.181-2.199.21.285-21.593-12.688.878.144-1.375.526.602-.528-.638 1.524.04-.244-1.72 16.63-.87 8.376-.995 8.355-.065-.387.43 2.075-.191-.407 1.032 1.547-.336-.305c3.94 2.65 7.879 5.302 11.798 8.075 1.97 1.325 3.919 2.772 5.909 3.976l1.508.999c.462.326.943.531 1.485.369a1.98 1.98 0 001.204-1.055c.162-.976.262-1.586.468-2.053zm.251.041c-.1.61-.181 1.098-.408 1.687-.226.589-.683 1.016-1.37 1.279-.27.08-.667.141-1.043.079-.376-.062-.607-.225-.837-.388l-1.529-.877c-2.115-1.224-4.125-2.306-6.24-3.53-4.126-2.305-8.376-4.632-12.481-7.06l-.23-.162-.211-.285-1.052-1.426-.105-.142-.085-.265-.555-2.095-.105-.143.04-.244.87-8.376.996-8.355 2.221-16.547.02-.122.02-.122.639-1.524.186-.345.416-.183 1.375-.526.416-.182.356.184L80.422 69.22l.105.143.105.142 1.182 2.199.105.142-.02.122.037 2.888-2.396 15.266-1.125 7.582-.559 8.051zm-2.715 14.957c-.009-1.505-.56-2.849-1.401-3.99-.421-.57-.988-1.039-1.574-1.386l-1.866-1.184-7.566-4.876c-2.557-1.673-5.155-3.102-7.547-4.998l-1.699-1.407-.902-.775c-.231-.163-.336-.306-.462-.326-.125-.021-.25-.041-.396.06-.146.101-.332.447-.518.792-.351.569-.598 1.281-.719 2.013l-.25-.041c-.276-.672-.386-1.567-.119-2.401.08-.488.121-.732.453-1.179.206-.467.914-.853 1.56-.872.648-.019 1.13.186 1.611.39l.943.531 1.865 1.183c2.578 1.551 4.823 3.549 7.215 5.445l7.215 5.446 1.825 1.427a5.603 5.603 0 011.639 1.773c.801 1.385 1.186 2.952.944 4.416l-.251-.041zm-.554 4.155l-1.572 13.398-.839 6.628-.419 3.313-.282 1.708c-.101.61-.057 1.118-.303 1.83-.246.711-.743 1.381-1.682 1.603-.396.06-.792.12-1.273-.084-.251-.041-.356-.184-.607-.225l-.336-.305c-.922-.653-1.844-1.305-2.746-2.08-1.825-1.427-3.67-2.732-5.514-4.037-3.689-2.61-7.503-5.24-11.338-7.749l-.105-.142-.105-.143c-.987-1.039-1.392-2.483-1.567-3.765-.065-.386-.024-.63-.089-1.016l.08-.488.061-.366.283-1.708 1.11-6.708c.362-2.196.87-4.493 1.234-6.688.363-2.196.872-4.493 1.36-6.667l.251.041c-.112 2.236-.12 4.616-.357 6.832-.113 2.236-.245 4.595-.483 6.811s-.37 4.575-.608 6.791l-.157 1.728-.06.366-.061.366c-.04.244.045.508.024.63.11.895.47 1.831 1.016 2.422l-.21-.285c3.814 2.63 7.483 5.362 11.132 8.216 1.824 1.427 3.649 2.854 5.347 4.26.903.775 1.825 1.427 2.622 2.059l.356.184s.125.02.105.142l.501.082c.126.021.562-.283.623-.649.166-.224.161-.976.242-1.464l.282-1.707.545-3.294 1.09-6.586 2.324-13.274.125.02zm36.076-32.763L97.972 84.76l-6.346-3.672-1.654-.898c-.23-.163-.587-.347-.712-.367l-.501-.083c-.397.06-.708.386-.914.853-.165.223-.206.467-.246.71l-.141.855c-1.679 9.37-3.127 18.904-4.053 28.398l-.02.122-.202 1.22c.065.386-.016.874.174 1.281a2.94 2.94 0 001.222 1.954l-.105-.142c3.854 2.386 7.523 5.118 11.086 7.707 3.543 2.711 7.107 5.301 10.836 7.666l-.126-.02c.126.02.126.02 0 0-.145.101 0 0 .166-.224.02-.122.04-.243.186-.345l.02-.122.04-.244.182-1.097.726-4.391c.484-2.927 1.094-5.834 1.683-8.618l3.762-17.297.251.04c-.467 5.937-1.29 11.69-2.133 17.565-.484 2.927-.842 5.875-1.306 8.68l-.581 4.289-.182 1.098-.04.244-.06.366c-.041.244-.206.467-.247.711-.206.467-.557 1.036-1.39 1.401-.833.364-1.585.241-2.172-.106l-.125-.021c-1.99-1.203-3.834-2.508-5.553-3.793-1.844-1.304-3.543-2.711-5.242-4.117-3.543-2.711-6.941-5.524-10.67-7.889l-.125-.021c-.902-.774-1.493-1.874-1.813-3.053a3.722 3.722 0 01-.114-1.648 3.976 3.976 0 01.282-1.707l-.02.122c1.198-9.575 2.75-18.966 4.826-28.397.16-.976.463-2.805 2.214-3.27.396-.06.898.022 1.254.206s.586.347.817.51l1.508 1 6.18 3.895 12.486 7.811-.417.182zm-87.929 34.007c1.99 1.203 3.939 2.651 5.763 4.078l5.597 4.301 5.598 4.301c.461.326.922.652 1.489 1.121.44.448.841 1.14 1.011 1.669.15.651.174 1.281.219 1.79.024.63.049 1.261-.052 1.87l-3.725 27.199.02-.122c-.08.488-.162.976-.347 1.321-.186.346-.663.894-1.35 1.157-.668.141-1.274-.084-1.63-.268-.356-.183-.712-.367-.942-.53a42.031 42.031 0 01-3.082-2.385c-2.035-1.712-3.964-3.281-5.998-4.993a185.964 185.964 0 00-5.873-4.973l-.672-.611-.691-.489c-.125-.021-.126-.021-.105-.143l-.23-.163c-.232-.163-.337-.306-.567-.469a3.8 3.8 0 01-.842-1.14 5.457 5.457 0 01-.514-2.339c-.004-.753-.009-1.505.112-2.237l.142-.853.14-.854.178-1.85c.076-1.24.298-2.582.5-3.802l1.25-7.561c.424-2.561.953-4.98 1.376-7.541.202-1.22.55-2.541.75-3.76.041-.244-.024-.631.162-.976.06-.366.352-.569.663-.893.29-.203.687-.264 1.063-.202-.02.122.23.163.587.347zm-.166.223c-.587-.346-1.213-.449-1.65-.145l-.497.67a2.35 2.35 0 00-.016.874l-.5 3.802c-.278 2.459-.45 5.062-.603 7.542l-.478 7.563-.23 3.721-.051 1.87c-.06.366.024.631-.036.997l-.162.975c-.161.976-.112 2.237.289 2.929l.315.427c.125.021.105.143.23.163l.357.184c.355.184.566.469.922.653l.796.631a118.463 118.463 0 015.833 5.217c1.909 1.691 3.798 3.504 5.707 5.196 1.027.795 1.91 1.691 2.957 2.364l.691.489c.23.163.376.062.23.163l.02-.121c.167-.224.187-.346.207-.468l4.498-27.197c.1-.61.161-.976.137-1.606-.025-.631-.07-1.139-.114-1.647-.045-.509-.36-.936-.696-1.242a16.374 16.374 0 00-1.363-1.101l-5.307-4.503c-3.899-2.895-7.507-5.993-11.486-8.4zM35.218 34l28.726-5.438c1.314-.16 2.654.31 3.888.638l1.84.553c.608.225 1.215.45 1.696.654 2.262 1.124 4.233 2.45 6.35 3.675a337.333 337.333 0 016.037 4c1.048.673 1.97 1.326 3.039 1.877.23.164.461.327.712.368.126.02.23.163.356.184.126.02.126.02.356.184.251.04.482.204.712.367.231.163.462.327.547.591.316.428.486.958.405 1.446-.101.61-.307 1.078-.619 1.403-.31.325-.602.527-.893.73-.583.406-1.396.649-2.063.79l-3.568.542-7.156 1.207-7.157 1.207-3.568.543-1.731.342-.813.243c-.271.08-.667.141-1.064.201-1.315.16-2.84.036-4.094-.17-1.234-.328-2.468-.656-3.662-1.228-.607-.225-1.214-.45-1.8-.797-.126-.02-.106-.143-.357-.184l-.23-.163-.336-.306-.692-.49-2.873-2.1c-1.049-.674-1.951-1.45-3-2.123-1.027-.795-1.93-1.57-2.852-2.223-1.95-1.448-3.921-2.775-6.038-4l.166-.223a65.4 65.4 0 016.535 3.329c1.048.674 2.096 1.347 3.019 2 1.048.673 1.99 1.204 3.039 1.878 1.048.673 2.116 1.224 3.164 1.898l.818.51.336.306.23.163.126.02c.481.205.963.41 1.57.635 2.197.736 4.54 1.372 6.542.948.27-.08.522-.04.793-.12l.938-.222 1.857-.322 3.588-.665c2.379-.361 4.757-.723 7.261-1.064l7.242-.943 3.673-.4c.397-.06.939-.221 1.23-.424l.582-.406c.146-.102.146-.102.166-.224 0 0 .02-.122-.085-.264L88 42.79l-.126-.02s-.25-.042-.481-.205c-.251-.041-.356-.184-.482-.204a6.278 6.278 0 01-.817-.51c-1.048-.674-2.096-1.348-3.02-2-1.97-1.327-3.92-2.775-6.017-4.122-1.97-1.326-4.067-2.673-6.078-3.756-.46-.326-1.068-.551-1.695-.654l-1.695-.654c-1.089-.43-2.197-.737-3.241-.658l-28.69 4.442-.44-.449z" fill="#112438"/><path d="M75.153 27.794c4.842-.46 9.745-1.284 14.523-2.13 2.399-.483 4.777-.845 7.176-1.328.668-.142 1.19-.181 1.732-.343.667-.141 1.21-.303 1.857-.322a10.03 10.03 0 013.823.252c1.234.328 2.428.9 3.516 1.329 1.068.551 2.262 1.123 3.31 1.797l6.349 3.675c2.117 1.225 4.233 2.45 6.39 3.43.607.226 1.068.552 1.675.777l.356.184c.126.02.251.041.482.204.481.205.797.633.987 1.04.191.407.381.814.26 1.547-.247.712-.809.995-1.226 1.178-.833.364-1.48.383-2.022.545l-14.373 2.78-7.177 1.33c-1.189.18-2.524.463-3.944.48-1.42.018-2.654-.31-4.014-.659a20.743 20.743 0 01-3.641-1.35c-1.194-.572-2.242-1.245-3.31-1.797-2.117-1.225-4.193-2.694-6.144-4.142l-2.998-2.122c-1.048-.674-1.971-1.327-3.185-1.777-.587-.347-1.048-.673-1.635-1.02-.461-.326-1.048-.674-1.469-1.244-.21-.285-.4-.693-.215-1.038.186-.346.477-.549.769-.752.958-.344 1.5-.505 2.148-.524zm-.04.244c-.522.04-1.21.302-1.647.607a.679.679 0 00-.477.548.931.931 0 00.15.652c.316.428.902.775 1.384.979.461.326 1.068.551 1.655.898.481.205 1.214.45 1.695.655.607.225 1.069.551 1.655.898l3.185 1.777c2.116 1.225 4.253 2.328 6.39 3.43 2.136 1.104 4.293 2.084 6.53 2.577 1.109.307 2.238.493 3.261.535 1.149.064 2.088-.158 3.423-.44l7.282-1.187 14.563-2.373c.667-.141 1.189-.18 1.46-.262.146-.101.146-.101.126.02-.02.123 0 0-.105-.142l-.211-.285-.712-.368c-.607-.225-1.068-.551-1.675-.776a67.083 67.083 0 01-6.475-3.695c-2.096-1.348-4.213-2.572-6.204-3.777-1.048-.673-2.116-1.225-3.184-1.776-1.068-.552-2.137-1.103-3.245-1.41-1.109-.308-2.238-.493-3.427-.312-.648.019-1.19.18-1.711.22-.668.141-1.19.181-1.857.322-2.379.362-4.883.703-7.367.922l-14.463 1.763zM63.835 51.106c4.967-.438 9.976-1.12 15.004-1.925 2.524-.463 5.028-.804 7.427-1.288L90 47.127c1.21-.302 2.399-.483 3.629-.908.687-.263 1.46-.262 2.212-.138.753.123 1.32.592 1.927.817 1.068.552 2.387 1.144 3.395 2.062 1.95 1.448 4.192 2.694 6.288 4.04 4.338 2.593 8.676 5.185 13.034 7.656l.231.163.105.143c.105.142.19.407.401.692.085.265.13.774-.056 1.12-.206.467-.498.67-.769.75-.271.081-.542.162-.687.264-.522.04-.793.12-1.064.201l-.939.222-3.859.746-7.844 1.47-7.823 1.348c-2.65.442-5.174.905-7.804 1.226l.126.02c-1.481.384-3.132.239-4.576-.374-.713-.368-1.425-.736-1.76-1.042l-1.635-1.02c-1.048-.673-2.222-1.368-3.23-2.285-.902-.775-1.93-1.57-2.958-2.366a177.911 177.911 0 00-12.747-8.611l.125.02c-.25-.04-.607-.225-.837-.388-.231-.163-.276-.672-.11-.895-.15-.652.538-.915 1.06-.954zm-.04.244c-.523.04-1.065.201-1.145.69-.207.467.255.793.756.876 4.484 2.49 8.988 4.86 13.431 7.595 1.048.673 2.222 1.367 3.25 2.163.922.653 2.116 1.224 3.164 1.898.587.347 1.194.572 1.78.919.587.347 1.048.674 1.53.878a4.693 4.693 0 002.925.23c2.65-.443 5.174-.906 7.824-1.349l7.929-1.205 7.929-1.206 3.964-.603.918-.1c.271-.08.668-.14.919-.1.251.042.291-.203.125.021l-.04.244s.02-.122-.106-.143l.336.306c-4.338-2.592-8.655-5.307-12.848-8-2.096-1.347-4.192-2.694-6.373-4.306-.903-.775-1.971-1.326-3.165-1.898a11.976 11.976 0 00-1.55-.756c-.501-.082-1.003-.165-1.545-.003-1.23.425-2.544.585-3.754.888-1.19.18-2.504.341-3.693.522l-7.492.901-7.493.901c-2.463.097-4.988.56-7.577.637zm40.434-6.877l7.367-.922 7.387-1.044 7.407-1.165c1.189-.181 2.379-.362 3.819-.502 1.294-.038 2.674.189 3.908.517 1.254.206 2.489.534 3.682 1.106 1.194.572 2.388 1.144 3.436 1.817l6.475 3.696 6.474 3.695 3.29 1.92c.356.183.692.49 1.113 1.06.106.142.065.387.17.53l-.06.365c-.02.122-.041.245-.186.346-.186.345-.332.447-.477.548-.603.528-1.165.812-1.978 1.055l-.126-.02a429.59 429.59 0 01-12.164 1.888l-6.073.884c-1.982.301-4.09.582-5.946.904l-.126-.02-.125-.021c-.898-.022-2.068.037-3.197-.149-.877-.144-1.901-.187-3.01-.494-2.112-.472-4.038-1.29-5.758-2.575l.126.02c-2.809-1.714-5.597-3.55-8.406-5.266-2.808-1.714-5.596-3.551-8.405-5.266-.356-.184-.837-.388-1.028-.795-.085-.265-.17-.53-.004-.753.04-.244.186-.346.352-.57.331-.446 1.144-.689 2.063-.789zm-.041.244c-.793.12-1.48.384-1.957.932-.312.325-.352.57-.267.834.21.285.441.449.817.51 2.954 1.614 5.823 2.962 8.798 4.453a851.046 851.046 0 018.797 4.454l.125.02c1.51 1 3.205 1.654 4.961 1.943l2.885.473c.878.145 1.651.146 2.694.067l-.25-.042c2.127-.402 4.09-.582 6.197-.862l6.052-.762c4.07-.46 8.14-.92 12.105-1.523l-.126-.02c.397-.061.959-.345 1.27-.67l.146-.101-.02.122-.021.122-.02.122s-.105-.143-.23-.163l-3.165-1.899-6.434-3.94-6.435-3.94c-1.048-.673-2.116-1.224-3.184-1.776-1.069-.551-2.197-.736-3.432-1.064-1.234-.328-2.342-.636-3.511-.577-1.17.059-2.359.24-3.674.4l-7.472.779-7.472.779-7.177 1.33zM92.307 71.434c-.04.244.025.631.256.794.23.164.461.327.817.51l.818.511.23.163.251.042.482.204 3.52 2.083c2.348 1.389 4.55 2.879 6.877 4.39l6.73 4.49 3.355 2.307c.923.653 2.157.981 3.307 1.044.647-.019 1.169-.058 1.816-.078.522-.04 1.21-.302 1.877-.444l4.005-.847c2.67-.564 5.341-1.129 7.97-1.45 5.3-.884 10.705-1.627 16.155-1.86l.085.265c-5.17 1.658-10.405 2.93-15.62 4.08-2.67.565-5.32 1.007-7.969 1.45l-3.965.603c-.668.14-1.335.282-2.108.28a7.376 7.376 0 01-2.318-.004c-1.526-.125-2.991-.617-4.249-1.576l-3.21-2.408L105 81.167c-2.182-1.612-4.363-3.224-6.565-4.714a47.522 47.522 0 00-3.375-2.184l-.482-.205c-.125-.02-.125-.02-.23-.163l-.231-.163-.818-.51c-.23-.164-.586-.348-.797-.633-.21-.286-.275-.673-.215-1.039l.02-.122zm56.901 9.614l-13.016-7.781-6.435-3.941a41.763 41.763 0 00-3.06-1.757c-.356-.184-1.129-.185-1.63-.268-.627-.103-1.255-.206-1.777-.166-1.043.08-2.378.362-3.568.542l-3.734.766c-2.525.464-4.924.947-7.408 1.166-5.008.682-9.977 1.12-15.156 1.273l-.085-.265c4.88-1.456 9.823-2.525 14.746-3.472 2.525-.463 5.029-.804 7.534-1.145l3.819-.501 1.837-.2c.522-.04 1.315-.16 2.087-.159l1.004.165 1.003.165c.628.103 1.255.206 1.987.452.712.368 1.279.837 1.866 1.184l1.51 1 6.269 4.165 12.247 8.532-.04.245zm-16.634-16.253c-.15-.652.327-1.2.764-1.505.562-.283.979-.466 1.646-.607l3.423-.44c2.253-.383 4.632-.745 6.885-1.127l13.771-2.252c1.399.104 2.694.066 4.094.17 1.4.105 2.759.453 4.098.924 1.34.47 2.513 1.165 3.707 1.737l3.541 1.96c4.734 2.532 9.303 5.288 14.017 7.942.462.327.923.653 1.429 1.489.105.142.19.407.255.793l-.08.489c-.041.244-.207.467-.332.447-.311.325-.582.406-.748.63-.437.304-1.019.71-1.687.85a7.469 7.469 0 01-1.857.322l.126.021-11.663 1.971c-3.839.624-7.804 1.227-11.643 1.85l-.125-.02c-1.4-.105-2.84.035-4.325-.334-1.38-.227-2.719-.698-4.038-1.29-2.533-1.043-4.986-2.574-7.042-4.165a152.664 152.664 0 00-13.208-8.938c-.251-.04-.838-.388-1.008-.917zm.271-.081c.065.387.526.713 1.028.795 4.589 2.634 9.343 5.044 14.017 7.943 2.202 1.49 4.609 2.511 6.912 3.39 1.214.45 2.448.779 3.702.985 1.254.206 2.423.147 3.698.23l-.126-.02c3.839-.623 7.804-1.226 11.643-1.85l11.748-1.706.125.02.126.021c.376.062.773.001 1.189-.18.397-.061.688-.264 1.125-.568l.437-.305s-.021.122-.166.224l-.02.122c-.021.122-.021.122 0 0-.106-.143-.421-.57-.778-.755l.126.021-13.706-8.267-3.416-1.94a24.668 24.668 0 00-3.455-1.696c-2.408-1.022-5.102-1.088-7.651-1.255l.125.02-13.795 1.622c-2.358.24-4.592.5-6.97.861l-3.423.441c-.542.162-1.084.324-1.521.628-.687.263-1.019.71-.974 1.219zm37.444-7.493c.457-.426.979-.466 1.521-.627.542-.162 1.064-.202 1.606-.364l3.192-.604 6.383-1.208 12.662-2.56c.773.002 1.42-.017 2.193-.016.753.124 1.505.247 2.112.472 1.465.491 2.658 1.063 3.978 1.656 2.512 1.165 5.005 2.451 7.623 3.759l14.956 7.72-.251-.041c.377.062.607.225.818.51.21.285.421.57.486.957.085.265.024.631-.162.977-.206.467-.477.548-.768.751-.146.102-.271.081-.417.183-.145.101-.145.101-.271.08l-.396.06-.939.223-3.713.644-7.428 1.287-7.427 1.288c-2.524.464-5.029.805-7.533 1.146l.126.02c-.793.12-1.586.241-2.464.097-.753-.123-1.485-.369-2.217-.615-1.34-.47-2.598-1.429-3.646-2.102-2.222-1.368-4.423-2.858-6.645-4.225-4.423-2.857-8.721-5.694-13.29-8.45-.25-.041-.481-.204-.692-.49.271-.08.437-.304.603-.528zm.105.143c-.145.102-.186.346-.081.488.106.143.211.286.462.327 4.589 2.633 9.218 5.023 13.973 7.433 2.367 1.267 4.754 2.41 6.996 3.656 1.194.572 2.117 1.225 3.33 1.675 1.089.43 2.092.594 3.051.25 2.524-.463 4.903-.825 7.427-1.288l7.408-1.165 7.407-1.166 3.693-.522 1.586-.241-.02.122-.02.122s-.02.122.105.142l-.251-.04c-4.965-2.696-9.805-5.371-14.77-8.067-2.493-1.287-4.965-2.695-7.478-3.86-1.319-.592-2.493-1.287-3.707-1.737-.607-.225-1.359-.348-1.986-.451-.627-.103-1.4-.105-2.047-.085l.125.02-12.812 1.908c-2.108.281-4.235.684-6.343.965l-3.192.604c-.522.04-1.064.202-1.606.363-.291.203-.938.222-1.25.547zm-59.6-34.726c-.04.244.065.387.276.672.23.163.441.449.672.612.461.326.922.653 1.509 1 1.068.551 2.137 1.103 3.08 1.633 2.136 1.104 4.293 2.084 6.304 3.167 2.137 1.103 4.253 2.328 6.078 3.755 1.846 1.306 4.023 2.165 6.3 2.414 1.129.185 2.298.126 3.362-.075.542-.162 1.064-.202 1.606-.363.542-.162 1.21-.303 1.752-.465 2.273-.504 4.672-.988 7.051-1.35 4.652-.865 9.41-1.589 14.042-2.333l-.744 1.383-.656-1.487.441.448-13.216-6.557a450.22 450.22 0 01-6.535-3.33c-1.194-.572-2.011-1.082-3.12-1.39-.983-.286-2.132-.35-3.176-.27l.126.02c-2.128.404-4.111.705-6.218.986-2.108.28-4.216.561-6.303.72-2.088.159-4.175.318-6.388.456-1.044.08-2.068.037-3.237.095-.522.04-1.023-.042-1.545-.003-.627-.103-1.275-.084-1.461.262zm-.25-.041c.186-.346.457-.427.728-.508.271-.08.521-.04.792-.12.522-.04 1.044-.08 1.546.003l3.131-.238c2.088-.159 4.09-.582 6.218-.985 2.003-.424 4.13-.826 6.153-1.372l6.048-1.514.125.02c1.315-.16 2.735-.178 4.094.171 1.38.227 2.679.941 3.747 1.493 2.263 1.123 4.399 2.226 6.516 3.451l13.009 7.025.356.184.085.264.657 1.487.445 1.202-1.315.16a572.225 572.225 0 00-14.106 1.946 145.48 145.48 0 00-7.031 1.228c-.542.162-1.19.18-1.732.342a7.483 7.483 0 01-1.857.322c-1.189.181-2.483.22-3.738.014-2.508-.412-4.79-1.414-6.721-2.984a37.425 37.425 0 00-5.767-4.081c-1.991-1.204-4.127-2.307-6.264-3.41-1.068-.552-2.136-1.103-3.059-1.756-.462-.327-1.069-.552-1.51-1-.23-.163-.461-.327-.671-.612.271-.08-.065-.387.121-.732zm29.209 18.206l13.01 7.026 6.495 3.573 3.185 1.777a6.051 6.051 0 003.241.657 27.638 27.638 0 003.548-.42l1.626-.485c.542-.162 1.23-.425 1.772-.587a67.226 67.226 0 017.322-1.43c4.903-.826 9.766-1.406 14.649-2.109l-.785 1.626-.611-.978.461.327-11.269-5.862c-3.792-2.001-7.458-3.982-11.25-5.984l.251.041c-1.946-.695-4.099-.923-6.312-.785-.522.04-1.044.08-1.586.241l-1.731.343c-1.189.18-2.233.26-3.423.44-4.591.5-9.143.756-13.674.89l-.085-.265 6.76-1.147 6.76-1.147 3.338-.705 1.606-.363a8.984 8.984 0 011.731-.343c2.379-.362 4.907-.072 7.25.563l.126.021.125.02c3.792 2.002 7.478 3.861 11.25 5.985l11.083 6.207.231.163.085.265.611.978.928 1.406-1.692.098c-4.842.459-9.83 1.019-14.713 1.722-2.379.361-4.883.702-7.157 1.207-.667.14-1.084.323-1.751.464-.542.162-1.23.425-1.877.444-1.315.16-2.504.341-3.799.38-1.295.038-2.674-.189-3.848-.883l-3.29-1.919-6.329-3.797-12.678-7.472.416-.182zM33.445 34.188c-1.75.464-3.436 1.315-4.346 2.92-.517.792-.658 1.645-.674 2.52l-.318 2.703-1.128 10.714-2.236 21.305.02-.122c.13.773.385 1.566.931 2.157.336.305.566.469 1.153.815.105.143.335.306.275.672-.06.366-.352.569-.497.67-.291.203-.542.162-.687.263-1.605.363-1.928 2.314-2.085 4.042-.46 3.558-.94 7.237-1.274 10.815-.814 7.257-1.502 14.535-2.17 21.691l.02-.122c.134 1.526.935 2.91 2.087 3.725l-.242 1.464c-1.209.303-2.122 1.155-2.574 2.333-.226.59-.202 1.22-.323 1.952l-.238 2.216-.93 8.741-1.987 17.462-.238 2.216c-.1.61-.076 1.24.094 1.769a5.5 5.5 0 00.781 1.507c.21.285.316.427.671.611l.923.652 7.065 5.544c4.676 3.649 9.331 7.419 14.007 11.068 9.33 7.419 18.515 14.94 27.826 22.481 9.165 7.642 18.35 15.163 27.495 22.927l-.166.223c-9.642-7.094-19.118-14.412-28.489-21.587a2518.348 2518.348 0 01-28.158-22.034c-4.675-3.648-9.33-7.419-13.986-11.189l-6.92-5.646-.922-.652c-.356-.184-.671-.612-1.007-.917-.651-.734-1.032-1.548-1.267-2.463a6.14 6.14 0 01-.098-2.522l.238-2.215 2.237-17.422 1.056-8.721.238-2.215c.121-.732.117-1.484.383-2.318.267-.833.784-1.625 1.386-2.152.623-.65 1.455-1.014 2.268-1.257l-.242 1.464c-1.468-1.243-2.585-3.055-2.659-4.946l.02-.122.02-.122c.815-7.257 1.629-14.515 2.568-21.752.46-3.557.94-7.236 1.419-10.916.141-.854.303-1.83.715-2.764.206-.467.412-.934.868-1.36.457-.426.894-.73 1.415-.77l.542-.162-.02.122c-.02.122.105.142-.02.122a11.52 11.52 0 01-1.028-.795c-.776-.754-1.242-1.832-1.206-2.829l2.612-21.243 1.379-10.672.318-2.704a5.09 5.09 0 01.82-2.621c1.034-1.584 2.74-2.557 4.596-2.879l-.311.325zm194.267 34.204c1.509.999 2.956 2.364 3.571 4.093.235.916.219 1.79.058 2.765-.141.854-.407 1.687-.569 2.663-.71 3.515-1.294 7.052-1.879 10.588l-3.487 21.097c-.287.955-1.075 1.827-2.053 2.293-.416.182-.957.344-1.248.547l.02-.122c.02-.122-.085-.265.02-.122.125.02.356.183.461.326.461.326.922.652 1.092 1.181.295.55.34 1.058.384 1.566.09 1.017-.071 1.993-.213 2.846-.479 3.679-1.189 7.195-1.794 10.854a628.086 628.086 0 01-3.944 21.522l-.02.122-.02.122c-.678 1.767-2.193 3.147-3.984 3.855l.117-1.484c.942.531 1.698 1.406 2.163 2.485.466 1.078.41 2.196.248 3.172l-.907 5.487-1.939 10.955-1.815 10.975-.907 5.487c-.141.854-.342 2.073-1.025 3.089-.683 1.015-1.576 1.745-2.679 2.19l-.271.081.146-.101.331-.447c.311-.325-.174-1.281-.425-1.322-.105-.143-.356-.184-.356-.184l-.125-.021c-.125-.02 0 0 0 0l.125.021.251.041c-.231-.163 1.107.307.781 1.506-.538.914-.332.447-.497.67l-.146.101-.145.102-.146.101-.145.102-.396.06-1.354.404-2.708.808-5.521 1.473c-3.75.887-7.376 1.795-11.126 2.682-7.356 1.673-14.837 3.326-22.383 4.592l-.085-.264c7.226-2.446 14.517-4.506 21.808-6.565 3.645-1.03 7.291-2.06 11.041-2.947l5.501-1.352 2.813-.665 1.354-.404.271-.081.145-.101c-.165.223.061-.366-.497.67-.306 1.077 1.012 1.669.801 1.384l.126.02-.126-.02-.125-.021s-.251-.041-.356-.183c-.25-.041-.756-.876-.55-1.343.226-.589.186-.345.351-.569l.291-.203c.271-.08.271-.08.416-.182 1.395-.648 2.223-1.764 2.38-3.492l1.032-5.467 2.065-10.934 2.065-10.934 1.032-5.467c.141-.853.137-1.606-.138-2.277-.275-.672-.821-1.262-1.513-1.751l.117-1.484c1.374-.526 2.578-1.581 3.196-2.983l-.02.122c1.44-7.153 2.88-14.307 4.194-21.481.71-3.516 1.315-7.174 1.9-10.711.282-1.707.604-3.658-.799-4.515-.23-.163-.355-.183-.691-.489-.105-.143-.315-.428-.255-.794.061-.365.351-.568.477-.548.562-.283.958-.343 1.374-.525.707-.385 1.184-.933 1.575-1.746l-.02.122 3.864-21.035c.71-3.515 1.294-7.052 2.004-10.568.282-1.707 1.086-3.454.596-5.163-.364-1.688-1.812-3.053-3.32-4.052l.165-.223z" fill="#112438"/></svg>