<svg width="597" height="422" fill="none" xmlns="http://www.w3.org/2000/svg"><g filter="url(#filter0_d_2_23342)"><path d="M303.859 29.157c1.328-1.405 3.982-3.278 7.3-3.747 2.875-.468 5.087.469 13.714 4.684 6.636 3.279 9.954 4.918 11.06 5.855 5.972 6.088 5.972 14.753 5.972 15.69 0 7.259-3.539 16.86-6.636 20.373-.442.468-1.99 2.108-1.99 4.215 0 1.64.884 1.873.884 3.044 0 2.108-2.212 2.576-3.981 5.855-.443.702-1.106 1.873-1.327 3.278-.664 3.513 2.212 6.557 3.981 8.9 3.76 5.151 1.549 5.854 7.963 22.246 3.761 9.367 3.761 7.728 4.203 10.07 1.106 7.025-2.212 14.05-9.29 27.867-5.751 11.474-8.185 13.348-10.175 14.285-1.991.936-4.424 1.639-7.3 4.215-3.097 2.81-2.433 3.981-4.866 6.088-3.761 3.045-5.53.703-11.281 3.981-1.77.937-3.318 2.108-5.751 2.576-1.106.235-3.318.235-3.761.235h-3.096c-2.876.468-3.097 2.341-5.309 2.107-1.77 0-1.991-1.171-3.318-.936-1.327.234-1.549 1.639-3.097 3.278-1.106 1.171-1.991 1.639-3.981 2.81-2.655 1.639-11.281 6.557-15.484 3.044-1.549-1.17-1.991-3.278-1.991-3.512-.442-1.874.664-3.045 1.991-6.323 2.654-6.089 2.212-7.962 4.203-9.133 1.106-.468 1.99-.468 3.981-1.405 1.327-.703 1.77-.937 2.212-1.639 1.548-1.874-1.106-4.45-1.327-9.602-.221-4.215.885-7.962 1.548-10.069 1.106-3.279 1.549-3.045 1.549-4.45 0-3.278-2.876-3.746-6.857-9.835-1.991-3.044-2.212-4.215-3.982-5.152-2.212-1.171-3.539-.234-5.53-1.873-1.548-1.171-2.875-3.513-2.433-5.152.221-1.171 1.106-1.405 1.548-2.108 2.433-2.576.664-7.259-.221-17.329-.442-6.089 0-5.152-.442-9.367-.664-4.918-1.549-7.26-.885-10.538.663-2.81 2.212-4.45 3.097-5.62 3.539-4.45 5.972-9.836 10.396-20.374 3.097-7.025 4.424-10.538 5.087-15.69.443-3.747 0-5.386.664-8.664.885-5.152 3.097-5.855 5.751-12.646 2.212-5.386 1.327-5.152 3.097-8.899 1.769-3.747 4.866-10.304 9.733-10.772 3.096-.234 5.751 1.873 7.078 3.044 7.299 5.62 7.299 14.988 7.299 17.095zM45.057 183.012c9.07 4.215 13.714 11.475 16.147 10.07.885-.469.443-1.405 1.549-2.108 1.99-1.171 4.645.703 5.972 1.405 2.212 1.405 2.212 2.108 3.318 2.576 3.097 1.171 7.742-4.683 9.954-7.259 8.848-10.304 20.129-14.519 24.332-15.69 7.742-2.108 14.156-.469 23.004 2.107 14.378 3.981 23.889 11.709 28.535 15.69 7.52 6.323 15.041 12.412 19.686 23.418 5.751 13.582 6.636 25.994 6.636 25.994.221 3.278.442 8.196 2.876 14.05 1.106 2.342 3.76 8.431 8.405 9.133 1.327.234 1.106-.234 5.972-1.171 5.53-1.17 6.194-.702 7.3-1.639 2.433-2.107 1.327-5.152 3.539-6.557 1.991-1.171 4.645 0 6.415.937 14.82 6.791 14.599 3.278 23.004 8.899 4.867 3.278 7.079 5.62 11.281 5.62 1.549 0 3.761-.468 6.415-1.171 0 0 3.539-.703 6.415-1.639 9.511-2.81 13.714-7.962 22.341-8.899 1.769-.234 10.617-1.405 13.493 3.513 1.327 2.107.885 4.449.885 4.917-.664 5.152-6.857 7.728-10.839 9.368-4.203 1.873-4.866 1.17-14.599 4.215-2.654.936-4.203 1.405-5.751 2.107-2.433 1.171-5.751 2.81-8.627 6.557-1.769 2.108-3.76 4.684-3.318 7.26.443 2.107 1.991 2.576 2.212 4.449.221 1.874-1.548 2.342-2.433 5.621-.442 1.405-.885 3.044-.221 4.215.663 1.171 1.991 1.405 3.318 1.639 1.548.468 7.742 1.873 9.732 5.854.885 1.874.885 4.684-.221 6.323-1.106 1.874-3.097 2.342-5.53 3.045-2.875.702-5.087.702-7.078 2.575l-.442.469c0 2.81-.222 7.259-1.77 12.411-1.548 4.684-3.539 8.431-5.309 10.538.664.234 1.77.937 3.097 1.639 3.318 1.874 5.088 2.811 5.751 4.216 1.106 2.341-.221 5.152-.885 6.791-1.99 4.449-5.972 6.557-7.299 7.025-2.433.937-2.655.469-5.309 1.639-2.875 1.406-3.981 2.81-5.751 3.981-4.424 3.279-11.06 3.747-15.705 2.108-4.424-1.405-5.309-3.981-10.618-4.684-1.548-.234-2.433 0-3.539-.702-2.875-1.873-2.654-5.62-5.087-6.557-1.327-.468-1.991.702-3.318.468-2.212-.468-2.655-3.747-4.867-9.601-1.99-5.152-4.202-9.133-6.193-12.177-1.327-2.108-2.433-3.045-2.654-3.513-2.655-2.81-4.867-3.981-7.521-5.386-2.433-1.405-5.972-4.215-13.051-9.835-4.424-3.513-5.308-4.45-5.751-4.918-2.875-3.513-4.203-7.026-5.751-10.772-1.991-5.387-2.876-7.962-2.876-10.07.443-9.133 10.839-14.519 9.291-17.563-.443-.937-2.212-1.405-3.097-.937-1.327.468-1.77 2.576-1.991 3.513-1.769 8.196-8.405 16.626-9.511 17.797-3.097 3.747-6.194 5.855-7.079 6.323-7.299 4.449-10.838 1.171-15.483 5.152-4.203 3.747-3.097 8.196-8.185 11.24-.885.469-2.433 1.171-5.972 1.64-7.078.936-12.387-.235-16.369-1.171-12.387-2.342-11.502.234-23.447-2.342-3.76-.937-9.069-1.873-15.704-4.684-4.646-1.873-6.194-3.044-10.84-4.215-6.414-1.873-7.962-.937-11.944-2.342-8.405-2.81-13.272-10.069-14.378-11.943-.663-.936-7.078-11.709-4.202-23.183.663-2.342 2.211-5.386 5.53-11.241 4.645-8.664 7.963-12.645 6.414-16.158-.442-1.171-1.77-2.81-3.318-3.747-1.99-1.405-3.318-.937-4.203-2.576-.884-1.171-1.327-3.044-.663-4.215.663-1.405 2.433-1.171 2.654-2.342.443-1.171-1.327-2.81-2.433-3.747-2.433-2.341-3.981-5.62-6.193-8.43-4.424-6.089-4.203-14.519-4.203-16.158.221-11.943 7.963-19.437 9.29-20.608.885-.703 10.618-10.07 21.677-7.494 2.212-.468 3.54.235 5.088.937zm546.798 167.671c0-1.873.664-17.095-9.733-25.291-.663-.468-9.732-7.494-18.138-5.855-1.991.469-5.972 1.874-9.511 0-1.106-.468-1.77-1.17-3.318-1.873-2.433-1.171-4.645-1.171-6.194-1.171-2.654-7.025-4.866-12.411-6.193-16.158-4.424-12.177-5.973-17.329-10.839-22.715-3.097-3.279-5.751-4.918-7.078-5.621-4.424-2.341-8.406-2.576-9.954-2.576-11.945-.936-15.484-8.43-31.41-11.709-7.521-1.639-17.475-3.746-25.88 1.874-3.318 2.342-3.318 3.747-9.069 7.962-7.3 5.386-9.291 4.449-15.484 9.601-2.212 1.874-5.751 4.918-9.512 9.836-2.875 3.746-2.654 4.683-4.645 6.088-5.087 3.747-12.165 1.874-14.156 1.405-1.549-.468-2.876-.936-5.973-2.341-5.972-2.576-10.175-4.918-11.059-5.387-3.982-2.107-10.397-4.215-21.678-3.512-.885 1.405-1.548 2.576-2.433 3.981-.442.937-.664 2.576-.221 3.981.663 3.513 3.981 4.918 10.839 9.133 7.52 4.683 6.857 5.386 13.05 8.899 5.751 3.278 5.53 2.341 8.848 4.449 4.866 3.513 5.972 6.323 10.396 7.259 1.549.469 3.097.235 6.194 0 5.972-.468 10.617-2.107 11.06-1.17.221.234-.222.702-.443 1.405-.221 1.639 1.327 2.81 2.212 3.746 2.212 2.342 3.982 6.323 3.097 8.197-1.548 3.044-9.733 1.405-10.396 1.171-1.106-.235-2.433-.703-4.867-1.64-6.635-2.341-6.857-3.044-8.626-2.81-2.433 0-4.424 1.639-8.185 4.45-4.645 3.746-4.423 4.917-7.963 7.493-5.087 3.981-6.636 2.108-11.059 5.621-.885.702-7.964 6.322-7.079 12.177 0 .234.443 3.044 2.433 4.215 1.106.703 2.434.468 4.867.234 5.087-.702 4.645-.234 7.078-.702 6.857-1.171 9.069-3.747 16.369-5.621 0 0 6.193-1.405 14.82 0 1.548.235 3.981.703 5.53 2.811.885 1.405 1.327 2.81 1.327 3.278.664 3.747 2.875 6.557 6.857 11.709 4.203 5.62 9.29 8.899 13.493 11.709 12.166 8.196 15.263 5.854 26.322 13.816 3.54 2.576 5.53 4.45 9.954 7.026 4.867 2.81 9.069 5.152 14.378 4.918 1.549 0 3.318-.235 7.3-.469 2.654 0 3.981 0 5.751.234 5.309.469 6.193 2.108 9.954 2.342 2.654.234 4.645-.468 8.184-1.873 2.433-.937 6.857-2.576 11.281-5.855 2.433-1.873 11.06-9.367 13.051-20.842.884-5.152.221-9.835 2.654-11.006 1.327-.468 2.654.468 3.982.937 5.972 3.044 12.608 1.405 18.359 0 4.645-1.171 10.839-2.81 15.926-9.133 5.088-6.089 5.53-13.583 5.53-16.627zm-144.663-60.652c-5.53.468-9.954-1.171-12.829-2.342 5.087-1.639 10.396-3.044 15.484-4.683 8.626-.703 10.617 0 10.838.702.664 1.874-6.193 5.621-13.493 6.323zm17.253-6.557c.885 0 2.212-.234 3.761.468 2.212.703 2.654 2.108 4.203 2.108 1.99 0 2.433-2.108 4.645-2.108 2.212-.234 4.866 1.64 4.866 3.981 0 1.405-1.106 2.342-1.548 2.811-5.309-2.576-10.618-4.918-15.927-7.26zm-16.147 96.95c-2.212-1.874-4.424-3.747-6.636-5.386 2.655-.469 6.194-.937 9.954.702 2.876 1.171 4.424 2.81 6.636 4.45 1.77 1.17 4.203 2.576 7.299 3.512 2.434.469 4.646.937 7.079 1.171-2.655-.234-5.088-.702-7.079-1.171-5.751-1.171-11.502-2.107-17.253-3.278z" fill="#ECEEF0"/><path d="M264.266 284.88a14.842 14.842 0 006.414-5.386c.885-1.171 1.77-2.342 2.212-3.513.664-1.171.885-2.576.664-3.044 0-.937-3.539-1.171-5.972-2.342-2.655-.937-5.088-2.107-7.964-3.513-.221 0-.221-.234 0-.234l.222-.234c2.875-1.171 5.972-1.171 9.069-.468 1.548.234 2.875.702 4.203 1.405.663.468 1.548.702 2.433 1.639.885.703 1.548 1.873 1.769 3.044.222 2.342-.663 3.981-1.548 5.387-.885 1.405-1.991 2.575-3.097 3.512-2.212 2.108-5.087 3.513-7.963 4.215-.221 0-.221 0-.221-.234-.443 0-.221-.234-.221-.234z" fill="#17293B"/><path d="M253.868 268.488c1.327-.469 2.876-.469 4.424 0 1.548.234 2.876 1.17 3.981 2.107 1.106.937 2.212 1.639 3.54 2.81.663.469 1.106 1.171 1.769 2.108.443.937.664 2.107.664 3.044 0 .937-.221 2.108-.664 3.044-.221.469-.442.937-.885 1.406-.442.468-1.106 1.17-2.212 1.17-.663 0-1.327-.234-1.548-.468l-.442-.234c-.221 0-.222 0-.443-.234l-.663-.234c-.221 0-.221.234.442-.469.443-.234.664-1.171.664-1.405v-.234c0 .234.221.468.221.937.221.468.221.936.221 1.873 0 .468-.221.937-.442 1.405-.221.468-.664.703-1.106.937-1.327.468-1.991.234-2.876 0-.663-.234-1.548-.469-2.212-.937-.221 0-.221-.234 0-.468h.221c.664-.234 1.549-.469 1.991-.703.664-.234 1.327-.468 1.327-.702h-.221c-.221.234-.221.234-.221.468s-.221 0-.221-.234c-.221-.234-.443-.469-.664-1.171-.221-.234-.221-.703-.221-1.405 0-.703.221-1.873 1.106-2.342.664-.468 1.327-.702 1.548-.702h.885c.664 0 .885.234 1.327.234.443.234 1.106.468 1.549.702.221.235.442.235.442.235h-.664c-.442 0-.442.234-.442.234s.221-.234.442-.234c.222-.235.443-.937.664-1.406.664-1.405-1.77-3.746-3.76-5.854-.885-1.171-1.991-2.108-3.097-2.576-1.106-.468-2.654-.937-3.982-.937-.663.703-.663.703-.442.235-.221 0-.221 0 0 0zm13.492-3.045c5.53-3.278 11.281-6.088 17.253-8.664 2.876-1.171 6.194-2.108 9.733-2.108 1.769 0 3.318.234 5.087.702 1.77.469 3.761 1.406 4.867 3.513 1.106 2.108 1.106 4.449.663 6.323-.442 1.873-1.327 3.747-2.433 5.386-2.212 3.044-5.309 4.918-8.627 6.323-1.548.702-3.539.937-5.087 1.171-1.549 0-3.097 0-4.645.234-3.097.468-6.194.937-9.291 1.639-.221 0-.221 0-.221-.234v-.234c2.655-1.874 5.53-3.279 8.848-4.45 1.549-.468 3.318-.936 4.867-1.17 1.548-.235 2.654-.703 3.981-1.406 2.654-1.17 5.088-2.81 6.857-4.917.885-.937 1.549-2.108 1.991-3.513.442-1.405.442-2.576 0-3.278-.664-1.874-4.203-2.576-7.078-3.045-2.876-.234-5.973.469-8.848 1.405-5.973 1.874-11.945 4.216-17.696 6.791-.221 0-.221 0-.221-.234-.221 0-.221-.234 0-.234zm-7.521 44.025c2.876 0 5.53.937 8.185 2.342 1.327.702 2.433 1.639 3.539 2.81 1.106.937 2.212 2.108 3.097 3.747.442.702.884 1.639.884 2.81.222 1.171-.221 2.576-.884 3.513-1.549 1.873-3.097 2.341-4.646 2.81-2.875.468-5.972.936-8.847-.469-.222 0-.222-.234-.222-.234l.222-.234c1.327-.702 2.654-1.405 3.76-1.873 1.106-.703 2.433-1.171 3.76-1.64 1.106-.468 2.212-.936 2.655-1.405.221 0 .221-.234.442-.468 0-.234 0-.703-.221-1.405a19.048 19.048 0 00-1.991-3.279c-.885-1.17-1.77-2.107-2.654-2.81-1.991-1.873-4.424-3.044-7.079-3.747-.221 0-.221-.234-.221-.234 0-.234.221-.234.221-.234z" fill="#17293B"/><path d="M277.314 267.55c1.328-2.576 3.318-4.683 6.194-5.62 2.875-.937 5.972-.234 8.626 1.405.443.234.664.469 1.106.937.443.468.885.937 1.106 1.873 0 .469 0 1.405-.442 1.874-.442.702-.664.936-.885 1.171-.663.468-.885.468-1.327.702-1.327.703-2.433.937-3.76 1.171-1.106.234-2.433.468-3.761.703-1.327.234-2.654.468-3.981.468-.221 0-.221-.234-.221-.234v-.234c1.769-2.342 3.981-3.981 6.636-5.152 1.327-.469 2.654-.937 3.76-1.171.221 0 .442-.234.442 0l-.221.468c-.221.234-.221.703-.221.937 0 .468.221.234 0 .234 0-.234-.221-.234-.443-.468-1.548-1.405-3.981-2.342-6.193-2.108-2.212.234-4.645 1.639-6.415 3.513h-.221c.221-.234.221-.469.221-.469zm-14.157 17.798c.443.702.443 1.405.664 2.341.221.703.221 1.64.221 2.342 0 .703.221 1.874-.442 2.342-.664.703-1.328 1.171-2.655 1.171-.221 0-.221 0-.442-.234-.664-1.171-.885-2.108-.885-2.576 0-.703.664-.937 1.106-1.64.221-.468.664-1.171 1.106-1.639.443-.702.664-1.171.885-1.873.221-.234.221-.234.442-.234zm-61.714 9.602c-.663-.703-1.106-1.874-1.548-2.81-.442-1.171-.442-2.342-.442-3.513 0-1.171 0-2.576.884-3.513.885-.936 1.991-1.639 3.54-1.405.221 0 .221.235.221.235.221 1.639 0 2.576 0 3.278 0 .703-.885 1.171-1.327 2.108-.443.702-.664 1.639-.885 2.576-.221.936-.221 1.873-.221 3.044.221 0 0 .234-.222 0 0 .234 0 .234 0 0z" fill="#17293B"/><path d="M203.655 296.589c-.664-.703-.885-1.639-1.328-2.576-.221-.937-.442-2.108-.221-3.044.222-.937.222-2.342 1.106-3.045.885-.702 1.991-1.171 3.319-.468.221 0 .221.234.221.468v3.045c0 .702-.885.936-1.106 1.405-.443.468-.664 1.171-.885 1.873-.221.703-.443 1.405-.443 2.342h-.663zm-.884 10.537c-1.327.937-2.212 2.342-2.433 3.513-.221 1.405 0 2.576.443 3.747.221.468.663 1.171 1.106 1.405l-.222-.234c-.221-.235-1.327-.469-2.212.234-.663.702-.442.702-.442.702s.221-.702.221-.936c.664-1.64 1.77-3.045 3.318-4.216h.443c.221.937.442 1.874.442 2.811v2.341c0 .469 0 .703-.221 1.405-.221.235 0 .469-.885 1.406-1.106.936-2.433.468-2.876.234-.221 0-.442-.235-.442-.469l-.221-.234c-.221-.234-.221-.468-.443-.468-.663-1.171-.884-2.108-.884-3.044-.443-1.874 0-4.216.884-5.855 1.106-1.639 2.655-2.81 4.203-3.044.221 0 .221 0 .221.234v.468z" fill="#17293B"/><path d="M199.229 305.253c-.442 1.171-.885 2.342-1.106 3.513-.221 1.17-.442 2.107-.442 3.278 0 1.171.221 2.108-.221 3.279-.443.936-.885 2.107-1.991 3.278 0 .234-.221.234-.442 0-1.328-1.171-1.77-2.342-1.991-3.747-.221-1.405.663-2.576 1.106-3.747.442-1.171 1.106-2.341 1.991-3.278.884-.937 1.769-1.874 2.654-2.576.221-.234.442-.234.442 0 .221 0 .221 0 0 0zm4.209-1.405c.663-.468 1.548-.702 2.433-.937.884-.234 1.769-.234 2.654-.234s1.991-.234 2.654.469c.664.702 1.328 1.639 1.328 3.044 0 .234 0 .234-.222.468-1.327.703-1.99.937-2.654.937-.663 0-1.106-.703-1.77-1.171-.663-.468-1.327-.702-1.99-1.171-.664-.468-1.327-.702-2.212-.937-.221 0-.221-.234-.221-.468zm7.958 6.324c.885.468 1.991.936 2.434.468.221-.234 0-.234 0-.468s0-.703.221-1.171c0-1.171-.221-2.108.221-2.81.442-.937.885-1.874 1.991-2.811.221-.234.221-.234.442 0 1.327.937 1.77 2.342 1.77 3.513.221 1.171-.664 2.342-1.106 3.279-.221.468-.443 1.171-.885 1.873-.442.703-1.548 1.405-2.433 1.171-.885 0-1.549-.468-1.77-.937-.442-.468-.663-.936-.885-1.405-.221-.468-.221-.702 0-.702zm13.052-6.558c.664 1.171 1.106 2.342 1.106 3.747 0 1.405-.664 3.044-1.327 3.981-.664 1.171-.885 2.342-1.549 2.81-.442.234-.884.702-1.327.937-.442.234-1.106.702-1.991.936-.221 0-.221 0-.442-.234-.664-1.639-.443-3.044 0-4.215.442-1.405 1.769-1.873 2.654-2.576.885-.702 1.328-1.171 1.77-2.108.442-.936.664-2.107.664-3.278 0 0 0-.234.442 0-.221-.234-.221-.234 0 0zM318.235 92.15c-3.76 4.919-9.069 8.665-14.82 10.539-2.875.937-5.972 1.405-9.069 1.171-3.097-.234-6.193-1.171-8.848-3.045-2.654-1.873-4.866-4.449-6.193-7.493-1.327-3.279-1.549-6.557-1.549-9.836-.221-3.044-.221-6.557.443-9.835.221-1.64.663-3.279 1.548-4.918l1.991-4.215c1.327-2.81 2.433-5.62 3.539-8.43 1.106-3.045 2.433-5.855 3.76-8.665.664-1.405 1.328-2.81 2.212-4.45.443-.702 1.106-1.404 1.549-2.107l1.769-1.873c2.433-2.342 5.973-3.982 9.512-3.982 1.991 0 3.539.703 4.866 1.171 1.548.703 2.876 1.171 4.203 1.874 2.875 1.17 5.751 2.81 8.184 4.918 4.866 4.215 8.184 10.07 9.733 16.158 0 .234 0 .234-.221.234 0 0-.222 0-.222-.234-2.654-5.62-6.635-10.304-11.281-13.817-2.433-1.639-4.866-2.81-7.52-3.747-2.876-.936-5.751-2.341-7.742-2.341-2.212 0-4.645 1.17-6.415 3.044-.442.468-1.106.937-1.548 1.405-.443.468-.885.937-1.106 1.405-.664 1.171-1.549 2.342-2.212 3.747-1.327 2.81-2.876 5.62-3.982 8.196-1.106 2.81-2.654 5.855-3.981 8.665l-2.212 3.98c-.664 1.172-1.106 2.577-1.328 3.982-.663 2.81-.663 5.854-.663 8.898 0 3.045 0 6.09 1.106 8.665.885 2.576 2.875 4.918 5.087 6.791 4.646 3.513 10.618 3.981 16.369 2.342 5.53-1.64 10.839-4.683 14.82-9.367h.221v1.17z" fill="#17293B"/><path d="M297.884 36.182c2.876-3.044 6.415-5.386 10.397-7.025 3.76-1.64 8.184-2.576 12.387-2.108 8.626.937 16.147 7.026 20.35 14.988 2.212 3.98 3.318 8.664 3.318 13.348 0 2.342-.221 4.683-.664 6.79-.442 2.109-.885 4.216-1.769 6.558-.885 2.107-1.77 4.215-3.318 6.088a13.08 13.08 0 01-2.434 2.576 19.978 19.978 0 01-2.875 1.874c-3.539 1.873-6.857 4.215-10.175 6.79h-.221v-.233c2.433-3.513 5.308-6.791 8.847-9.367 3.097-2.342 5.088-5.386 5.973-9.367.663-1.874.885-3.981 1.327-6.089.442-2.108.885-3.981.885-5.855.221-3.98-.443-7.962-1.991-11.474-3.318-7.26-9.733-13.114-17.475-14.52-3.76-.702-7.742-.233-11.723 1.172-3.76 1.17-7.3 3.278-10.396 6.088h-.222c-.221 0-.221-.234-.221-.234zm36.277 43.793c0 1.873-.442 3.512-1.106 5.151-.664 1.64-1.548 3.279-2.876 4.684-1.327 1.405-2.654 3.044-4.645 3.278-1.769.469-3.76.235-5.53-1.17-.221 0-.221-.235 0-.469 1.549-1.405 2.876-2.108 3.982-2.81 1.106-.703 2.433-.937 3.76-1.873 1.106-.703 2.212-1.874 3.097-3.045 1.106-1.17 1.77-2.576 2.654-4.215.222.234.443.234.664.469-.221 0 0 0 0 0zM319.121 96.6c1.99 3.045 3.318 6.557 3.76 10.07.442 3.747-.221 7.494-1.548 11.006-.664 1.64-1.77 3.279-2.876 4.918-1.106 1.639-2.876 2.81-4.424 3.747-3.097 1.873-6.415 3.044-9.954 3.981-6.636 1.873-13.714 3.513-20.792 2.576-7.079-.937-13.936-3.279-19.687-7.494 0 0-.221-.234 0-.234 0 0 .221-.234.221 0 6.636 1.639 13.272 3.044 19.687 3.044 6.636.235 13.051 0 19.686-1.405 3.318-.702 6.415-1.639 9.291-3.044 1.548-.703 2.654-1.639 3.76-2.81 1.106-1.171 1.991-2.576 2.876-3.981 3.096-6.089 2.875-13.817-.664-19.905v-.234c.442-.469.664-.235.664-.235z" fill="#17293B"/><path d="M276.206 82.082c-1.77 4.45-3.54 9.133-4.646 13.817-1.327 4.683-1.99 9.367-2.875 14.284-1.106 4.918-1.548 9.602-3.539 14.52-1.991 4.683-5.088 8.898-8.848 11.943h-.221v-.235c1.99-4.683 3.76-8.898 5.087-13.348.664-2.107 1.327-4.449 1.991-6.791.885-2.342 1.548-4.683 2.212-6.791 1.327-4.684 2.433-9.367 4.203-14.05 1.769-4.684 3.76-9.134 6.414-13.115 0 0 .222-.234.222 0v-.234zm-.219 9.6c-.884 5.855 0 12.177 2.212 17.329 2.433 5.152 5.973 9.836 10.618 12.646 4.645 2.81 9.954 2.576 15.041 1.405 5.088-1.171 9.733-4.215 14.157-8.43h.221v.234c-2.433 5.62-7.3 10.304-13.272 12.645-2.876 1.171-6.193 1.405-9.29.937-3.097-.468-6.194-1.873-8.627-3.513-5.309-3.512-8.848-9.132-10.838-14.987-1.991-5.854-2.212-12.411-.664-18.266 0-.234.221-.234.221-.234l.221.234zm48.22 11.007c2.433 1.874 4.645 4.216 6.636 6.323a93.658 93.658 0 015.751 7.494c1.77 2.576 3.76 5.152 4.645 8.43.885 3.045 1.548 6.323 1.327 9.602 0 .234-.221.234-.221.234h-.221a42.273 42.273 0 01-4.866-7.962c-1.549-2.576-2.212-5.621-3.54-8.196-1.327-2.811-2.875-5.387-4.423-7.963-1.549-2.576-3.318-5.151-5.309-7.493v-.234c0-.469.221-.469.221-.235z" fill="#17293B"/><path d="M328.41 93.088c3.981 5.62 7.742 11.475 11.06 17.563 1.769 3.045 3.317 6.089 4.423 9.602l.885 2.575.664 2.576c.221.937.221 1.874.442 2.811v2.81c0 4.449-.442 8.898-1.769 13.114-1.106 4.215-2.655 8.196-4.645 12.177-1.77 3.981-3.982 7.494-6.415 11.24-2.433 3.513-5.53 6.792-8.848 9.602-3.318 2.81-7.078 4.918-10.617 6.791-1.77.937-3.54 1.873-5.088 3.044-.885.469-1.548 1.171-2.212 1.64l-.442.468-.664.702c-.442.469-1.106.703-1.77.937-2.654.937-5.529 0-7.299-1.171-1.991-1.405-3.539-3.278-4.424-5.152-1.106-1.873-1.991-4.215-1.327-6.791.221-1.171 1.106-2.342 2.212-2.81.885-.703 1.991-.703 3.097-.937.221 0 .221 0 .221.234 0 0 0 .235-.221.235-1.991.468-3.54 1.873-3.761 3.512-.221 1.64.885 3.513 1.991 5.152 1.106 1.639 2.433 2.81 3.982 3.747 1.548.937 3.096 1.171 4.202.468.221-.234.664-.234.885-.468l1.106-.937c.885-.702 1.548-1.405 2.433-2.107 1.77-1.405 3.539-2.576 5.309-3.513 3.539-2.108 6.857-3.981 9.954-6.557 3.097-2.576 5.972-5.152 8.405-8.43 2.433-3.279 4.645-6.557 6.636-10.304 3.761-7.26 6.636-15.222 6.857-23.418v.234-2.81c0-.937-.221-1.639-.221-2.576l-.442-2.342-.664-2.341c-1.106-3.279-2.433-6.323-3.981-9.602-3.097-6.088-6.415-12.177-10.175-18.031v-.235c0-.936.221-.936.221-.702z" fill="#17293B"/><path d="M310.716 154.676c-.221 3.279-.885 6.557-3.097 9.367-1.106 1.405-2.654 2.342-3.981 3.279-1.328.702-1.991 1.405-2.655 2.576-.663 1.17-1.106 2.341-1.106 3.512 0 1.171 0 2.108.221 3.279.443 2.107 2.212 4.215 4.867 6.088.221 0 .221.234 0 .234h-.221c-3.097.937-7.079-.936-8.848-4.683-.885-1.873-1.106-4.215-.443-6.089.443-1.873 1.549-3.512 2.655-4.917 1.106-1.405 2.875-2.576 4.424-3.045 1.327-.468 2.433-1.171 3.539-2.107 2.212-1.874 3.318-4.684 4.202-7.728 0-.234.222-.234.222-.234.221.234.221.468.221.468z" fill="#17293B"/><path d="M297.886 167.088c-4.202-.468-8.626-1.405-12.608-2.81-3.981-1.405-7.963-3.513-11.723-6.089-3.539-2.576-6.857-5.854-9.291-9.601-2.654-3.747-4.866-7.494-7.078-11.475-1.106-1.873-2.212-3.981-2.875-6.323a41.048 41.048 0 01-1.328-6.791c-.442-4.683-.221-9.367.222-13.816.221-2.108 0-4.215-.222-6.323-.221-1.171-.442-2.108-.663-3.279-.221-.936-.443-2.576-.443-3.98.222-2.576 1.106-4.918 1.991-7.026.885-2.108 1.991-4.215 2.876-6.088l6.193-11.944c1.991-3.98 4.424-7.962 4.645-11.474v-2.81c0-.937-.442-1.874-.442-3.279-.221-2.81.221-5.152.885-7.728.885-2.342 1.991-4.45 2.875-6.323.885-1.873 1.549-3.98 2.212-5.854l.664-2.81c0-1.171.442-2.576.885-3.747.663-2.342 1.769-4.45 2.875-6.557 1.106-2.108 2.433-3.981 4.203-5.854 1.548-1.874 3.76-3.279 6.193-3.981 5.088-1.406 10.176 1.639 12.166 6.088.885 2.342 1.549 4.45 1.77 6.791.221 2.342.221 4.684-.443 7.026 0 .234-.221.234-.221.234l-.221-.234c.221-2.342 0-4.45-.442-6.557-.443-2.108-1.327-4.216-2.212-6.089-1.106-1.873-2.433-3.044-4.203-3.747-1.77-.702-3.76-.937-5.309-.234-3.318 1.405-5.972 4.918-7.742 8.665-.884 1.873-1.769 3.98-2.212 5.854-.221.937-.442 1.873-.442 2.81 0 1.171-.442 2.576-.664 3.747-.663 2.342-1.548 4.45-2.433 6.791-.885 2.108-1.99 3.981-2.654 5.855-.664 1.873-.885 3.98-.885 5.62 0 .937.442 2.107.442 3.278.222 1.405 0 2.576 0 3.981-.221 2.576-1.327 5.152-2.211 7.26-1.106 2.108-2.212 3.98-3.318 6.088l-6.636 11.71c-1.106 1.873-1.991 3.98-3.097 5.854-.885 1.873-1.77 3.98-1.991 5.854-.221.937 0 1.64.221 2.81l.664 3.513c.221 2.342.442 4.684.221 7.025-.442 4.684-.885 8.899-.442 13.349.221 2.107.442 4.449 1.106 6.322.663 2.108 1.548 3.981 2.654 5.855 2.212 3.981 4.203 7.728 6.636 11.475 2.433 3.746 5.309 6.791 8.627 9.601 3.318 2.576 7.078 4.683 11.06 6.323 3.981 1.639 8.184 2.81 12.387 3.278.221 0 .221.234.221.234-.221-.468-.221-.468-.443-.468zm-44.017-34.658c-.443 1.171-.664 2.342-.443 3.278 0 .469.222 1.171.443 1.405.221.235.442.469.885.703.663.468 1.769.702 2.433 1.405.663.702 1.327 1.639 2.212 3.278 0 .235 0 .469-.221.469-1.549.936-2.876.936-4.203.468-1.327-.468-2.212-1.873-2.876-3.044-.442-.703-.663-1.405-.885-2.342 0-.937 0-1.639.222-2.342.442-1.405 1.106-2.576 2.212-3.278 0-.469.221-.469.221 0 0-.234 0-.234 0 0zm36.054 42.854c-1.549 1.171-3.097 2.576-4.646 3.513-.884.468-1.769.936-2.875 1.171-.885.234-1.991.468-2.876.702-.221 0-.442 0-.442.234h.221c.221 0 .442-.468.664-.702.221-.703 0-.937 0-.937h.221l.885.468.663.703c1.106.937 2.655 1.639 4.424 2.576.221 0 .221.234.221.468-1.769 1.639-3.981 2.108-6.414 1.171-.664-.234-1.106-.468-1.549-.937-.442-.468-.884-.702-1.327-1.405-.221-.234-.442-.702-.664-1.171-.221-.468-.442-1.17-.221-2.341.222-.469.664-1.171 1.106-1.405.443-.235.664-.234.885-.234h.885c1.991 0 3.539-.001 5.309-.469 1.769-.468 3.539-1.171 5.308-1.639.222 0 .222 0 .222.234.221-.234.221-.234 0 0z" fill="#17293B"/><path d="M280.854 185.12c1.327 1.405 2.875 2.576 4.645 3.278 1.769.703 3.318 1.405 5.087 1.405.885 0 1.549-.234 2.212-.468.664-.234.885-.468 2.433-.937 2.434-.468 4.867.234 6.415 2.108v.468c-2.212.703-3.76 1.171-4.866 1.874-.221.234-1.77 1.17-2.876 1.17-1.327 0-2.433-.234-3.539-.468-2.212-.468-3.981-1.639-5.53-3.044-1.548-1.405-2.875-3.045-3.76-4.918v-.234c-.443-.468-.221-.468-.221-.234z" fill="#17293B"/><path d="M270.677 157.252c-.885 3.981-1.548 7.962-1.548 11.943 0 1.874.221 3.981.442 5.855.221 1.873.663 3.747 1.327 5.386 1.327 3.278 4.203 5.854 6.857 7.728 2.655 2.107 6.194 3.278 9.954 3.981.221 0 .221.234.221.234s0 .234-.221.234c-3.76 1.874-8.405 1.639-12.387-.234-3.982-2.108-6.636-6.323-7.963-10.538-.664-2.108-.885-4.449-.885-6.557 0-2.108 0-4.215.221-6.323.443-4.215 1.77-8.196 3.318-11.943 0-.234.222-.234.222 0 .442 0 .442.234.442.234z" fill="#17293B"/><path d="M267.136 182.543c-1.327 1.873-2.212 4.215-1.99 6.088.221 2.108 1.327 3.513 2.875 4.216 1.548.702 3.76.468 5.53.702 1.77.234 3.76 0 6.415-.234.221 0 .221 0 .221.234v.234c-1.106 2.576-3.76 3.981-6.415 4.45-2.654.468-5.087-.469-7.52-2.108-1.106-.703-2.212-1.873-2.876-3.278-.664-1.406-.664-2.811-.664-4.216.443-2.81 1.991-4.917 3.982-6.323h.221c.221 0 .221.235.221.235z" fill="#17293B"/><path d="M275.545 198.234c-3.096 1.874-6.414 3.513-9.732 4.45-1.77.468-3.539.936-5.53.936-1.106 0-2.212-.234-3.318-1.17-1.106-.937-1.548-2.108-1.769-3.279a16.342 16.342 0 010-6.557c.442-2.108 1.548-3.981 2.654-5.386 2.433-3.044 5.53-5.62 9.29-6.557.221 0 .221 0 .221.234v.234c-2.212 3.045-4.202 5.855-5.751 8.665-1.769 3.044-3.318 5.386-2.875 8.665.221 1.405.442 1.873 1.99 2.107 1.328.234 3.097 0 4.867-.234 3.318-.468 6.636-1.405 9.953-2.576.222 0 .222 0 .222.234 0 0 0 .234-.222.234zm44.678-123.178c-1.327-1.873-2.875-3.278-4.424-3.98-.884-.47-1.769-.703-2.875-1.172-.885-.468-1.991-.702-2.876-.936-.885-.234-1.548-.234-2.212 0-.663.234-1.327.468-1.769.702-1.106.468-2.433 1.874-3.539 3.981 0 .234-.222.234-.443 0-.221-.468-.442-1.17-.663-1.873 0-.703-.222-1.405 0-2.108.221-1.405.884-2.81 1.99-3.98 2.212-2.343 5.751-1.874 7.963-.703 2.212 1.17 3.761 2.107 5.751 3.512 1.77 1.64 3.097 3.747 3.761 5.855 0 .234 0 .234-.221.234-.222.703-.443.468-.443.468zm-30.302 2.108c1.106 1.405 1.991 2.576 3.318 3.513.664.468 1.328.936 1.77 1.17.221.235.664.235.664.235.221 0 .884 0 1.327.234l2.433.468h.221-.442c-.221 0-.221.234 0 0 .221 0 .442 0 .885-.703.221-.468.442-1.404.442-2.341 0-.234.221-.234.221-.234 1.106.234 1.77 1.17 2.212 2.341.222.703.222 1.171.222 2.108 0 .703-.443 1.405-.885 2.108-.443.702-1.106 1.17-1.991 1.405-.442.234-1.106.234-1.549 0-.442-.235-.663-.234-.884-.469-.664-.468-1.328-.936-1.991-1.17-.443-.235-.664-.235-1.106-.469-.664-.234-1.106-.468-1.327-.937-.664-.702-1.328-1.405-1.77-2.107-.885-1.64-1.77-3.279-1.991-4.918 0-.234 0-.234.221-.234z" fill="#17293B"/><path d="M306.954 73.651c.885-1.873 3.097-2.81 5.088-2.342 1.106.235 1.99.469 2.875 1.171.885.703 1.77 1.874 2.212 2.342.443.468.885.703 1.77 1.17.221 0 .221.235.442.47.221 0 .221.233.443.468 0 .234.221.468.442.936v.937c0 .468-.221.703-.221.937-.221.234-.221.468-.443.702-.221.234-.442.235-.442.235-.221 0-.442.234-.442.234h-1.328c-.663 0-1.106-.235-1.548-.469-1.77-.702-3.318-1.873-4.645-3.512v-.469c1.991-.702 3.76-.702 5.309-.468h.884c-.221 0-.221 0-.442.234 0 0-.221 0-.442.234-.222.234-.443.469-.443.703 0 .234-.221.468-.221.936v.703c0 .468.221.468.221.703l.221.234c-.663-.703-1.327-1.64-1.99-2.576-.443-.937-.664-1.405-1.106-1.874-.443-.468-1.106-.936-1.549-1.405-1.327-.702-2.875-.702-4.203.469h-.221c-.221-.469-.221-.469-.221-.703zm-10.175-5.152c.221-1.405 0-3.045-.442-3.747-.221-.234-.221-.469-.443-.469 0 .235-.221 0-.442-.234l-1.991-.936-1.991-.703c-.221 0-.663-.234-.884-.468-.222 0-.222-.234-.222-.234h.664c1.106-.235 1.327-1.171 1.327-1.406 0-.234 0-.234-.221-.234-.221.235-.221.469-.221.703-.221.702-.221 1.405-.664 2.342 0 .234-.221.234-.442.234-.885-.469-1.549-.937-1.991-1.64-.221-.468-.442-.702-.663-1.405 0-.234-.222-.702 0-1.17.221-.469.442-1.874 1.99-2.108 1.327 0 1.327.234 1.77.234.221 0 .442.234.663.234.443.235.664.469.885.703.664.468 1.106.937 1.549 1.405.663.468 1.106.937 1.769 1.405.221.234.664.468 1.106 1.17.221.47.443.938.443 1.406.221 1.873-.443 3.513-1.106 4.683-.222.469-.222.469-.443.235 0 .234 0 0 0 0zm4.425-6.556c-.885-.468-1.769-1.17-2.654-1.64-.885-.702-1.77-1.17-2.433-1.873-.664-.468-1.106-.936-1.327-.936-.222-.235-.443-.235-.443-.469-.221-.468-.885-1.17-1.991-2.107-.221 0-.221-.235 0-.469.885-1.405 2.433-2.107 3.982-1.639.885.234 1.548.937 1.991 1.405.442.703.442 1.171.663 1.405.664.937 1.106 1.874 1.549 2.81.442.937 1.106 1.874 1.548 3.045-.442.234-.442.468-.885.468.221 0 .221 0 0 0zm-13.273 22.011c1.106.469 2.212.937 3.539 1.171l3.318 1.405c1.106.469 2.212.469 2.876 1.171.884.703 1.769 1.405 2.875 2.81v.469c-1.327 1.17-2.875 1.405-4.203 1.17-1.327-.234-2.654-1.405-3.318-2.341l-2.654-2.81c-.885-.937-1.769-1.874-2.433-2.81-.442 0-.442 0 0-.235-.221 0-.221 0 0 0z" fill="#17293B"/><path d="M287.27 87.936c.884.234 1.548.469 2.212.703.663.234 1.327.468 1.99.468.664.234 1.549-.234 1.991.469.443.468.885 1.17 1.549 2.576v.468c-.885 1.17-1.991 1.405-2.876 1.405-.885 0-1.548-.937-2.212-1.405a6.948 6.948 0 01-1.77-1.874c-.442-.702-.884-1.405-1.327-2.341 0-.235.221-.469.443-.469zM177.333 302.912c.884-5.62 2.211-11.006 3.981-16.627 1.106-2.575 1.991-5.386 3.982-7.727.884-1.171 2.433-2.342 4.424-2.576 1.106 0 1.99.234 2.433.468.663.234 1.106.234 1.769.234 2.434.234 4.646-.468 6.858-1.639 1.106-.468 2.212-1.171 3.318-1.873 1.106-.703 2.654-1.406 3.981-1.64 5.751-1.639 11.502-.468 16.59 1.874.221 0 .221.234 0 .234l-.221.234c-5.53 0-10.618.234-15.042 2.108-1.106.468-2.212.936-3.318 1.639-1.106.702-2.433 1.171-3.76 1.873-2.654.937-5.972 1.405-8.848.937-1.548-.234-3.318-.937-3.76-.937-.664 0-1.549.469-2.434 1.171-1.769 1.639-2.875 4.215-3.981 6.557-2.212 4.918-3.982 10.304-5.53 15.69 0 .234-.221.234-.221.234-.221 0-.221 0-.221-.234z" fill="#17293B"/><path d="M204.764 277.385c1.327-.234 2.655-.234 3.982-.234 1.327.234 2.654.469 3.981.937 1.327.468 2.876.937 3.539 2.342.443.702.664 1.405.885 2.107.221.703.221 1.64 0 2.576 0 .234-.221.235-.442.235-1.77-.469-2.655-1.171-3.539-1.64-.885-.468-1.327-1.639-2.212-2.341-.885-.703-1.77-1.406-2.876-2.108-1.106-.703-2.212-1.171-3.318-1.639 0 .234-.221 0 0-.235 0 .235 0 0 0 0z" fill="#17293B"/><path d="M197.686 280.666c6.193-.469 12.608.702 18.58 3.278 2.876 1.405 5.53 3.044 8.406 4.684 2.875 1.873 5.309 4.449 7.299 7.259l2.655 4.215c.884 1.405 1.769 2.81 2.433 4.45.442.936.663 1.873.885 3.044 0 1.171 0 2.108-.222 3.278-.442 2.108-1.548 3.747-2.654 5.152-4.424 5.386-10.839 8.665-17.253 9.133-.221 0-.221 0-.221-.234 0 0 0-.234.221-.234 5.751-2.81 10.617-6.557 13.935-11.475 1.77-2.342 2.433-4.449 1.549-6.791-.885-2.576-2.655-5.854-3.982-8.43a27.646 27.646 0 00-5.751-6.791c-2.433-1.874-5.088-3.747-7.742-5.152-5.309-3.045-11.502-4.684-17.696-4.918-.663 0-.663-.234-.442-.468-.221 0-.221 0 0 0zm8.625 48.942c-.664 1.64-1.549 3.045-3.318 3.747-1.549.703-3.097.703-4.646 1.171l-4.645.703c-1.548.234-3.097.468-4.645.468h-1.327c-.442 0-1.327-.234-1.991-.937-1.327-1.405-1.327-2.81-1.106-3.981 0-.702.221-1.171.443-1.639.221-.468.663-1.171.884-1.639.885-.937 1.77-1.639 2.876-1.874 1.991-.702 3.76-.468 5.309-.234 1.548.234 3.096.937 4.645 1.874.221 0 .221.234 0 .234h-.221l-4.424.937c-1.328.234-2.655.702-3.761 1.405-.442.234-.885.468-1.106.702 0 .234-.221.234-.221.234 0 .234-.221.469-.221.469-.221.468 0 .702-.221.468-.222 0-.222 0 0 0 .221 0 .442.234.884.234 2.876.234 5.973.234 9.07.234 1.548 0 3.096 0 4.424-.234 1.327-.234 2.433-1.405 3.318-2.576 0 0 .221-.234.221 0-.221 0-.221 0-.221.234z" fill="#17293B"/><path d="M177.999 311.811c1.105 2.81 2.433 5.62 3.539 8.43 1.106 2.81 1.769 6.089 2.654 8.665.885 2.342 2.875 3.278 5.087 4.449 2.212 1.171 4.867 2.108 7.742 3.513.221 0 .221.234.221.234l-.221.234c-2.875 1.171-5.972 1.405-9.29.468-1.548-.468-3.097-1.405-4.424-2.81-1.106-1.405-2.212-3.278-2.433-4.917-.664-3.279-.885-6.089-1.548-9.133-.443-3.045-1.327-5.855-1.77-8.899 0-.234 0-.234.221-.234.222-.234.222-.234.222 0z" fill="#17293B"/><path d="M158.753 299.634c-1.548 3.044-2.875 6.557-1.991 9.601.443 1.639 1.327 2.576 2.655 3.747l3.76 3.513c1.327 1.171 2.433 2.341 3.76 3.512 1.328 1.405 2.212 2.576 3.539 3.747l7.3 7.26c1.327 1.171 2.433 2.341 3.76 3.278.664.469 1.328.937 1.77 1.405l1.991 1.405c2.654 1.874 5.308 3.747 7.963 4.684 2.654 1.171 5.53 1.171 8.405.234 2.876-.937 5.53-2.81 8.185-5.152h.221v.234c-1.549 3.045-3.982 6.089-7.3 7.962-1.548.937-3.539 1.405-5.308 1.64-1.991.234-3.761 0-5.752-.703-3.539-1.171-6.636-3.278-9.29-5.386l-1.769-1.171c-.664-.702-1.328-1.171-1.991-1.873-1.327-1.171-2.433-2.576-3.539-3.747l-6.857-7.728c-1.106-1.405-2.212-2.81-3.318-3.981-1.106-1.171-2.212-2.576-3.318-3.747l-3.54-3.747c-1.106-1.171-2.433-2.81-2.654-4.918-.663-3.746 1.106-7.259 2.876-10.303 0 0 .221-.235.221 0 .221 0 .221.234.221.234zm1.548-3.28c-.664-2.341-1.106-4.683-.885-7.259 0-1.171.221-2.576.664-3.747.221-1.171.884-2.576 1.769-3.512 3.097-3.747 6.194-6.792 9.512-10.304 1.548-1.64 3.097-3.279 5.087-4.918a24.556 24.556 0 016.194-3.747c1.106-.468 2.433-.937 3.76-.937h2.212l1.991.703c2.433 1.171 3.982 3.278 4.867 5.62 0 .234 0 .234-.222.234h-.221c-1.769-1.405-3.76-2.576-5.53-2.81h-1.327c-.442 0-.664 0-1.106.234-.885.235-1.77.703-2.654 1.171-1.77.937-3.761 2.108-5.309 3.279-1.77 1.171-3.539 2.576-5.309 3.981-3.318 3.044-7.078 5.854-10.175 9.133-1.549 1.405-2.212 3.512-2.655 5.62-.442 2.108-.442 4.449 0 6.791 0 .234 0 .234-.221.234-.221.469-.442.234-.442.234z" fill="#17293B"/><path d="M178.439 273.873c6.414.703 12.608-.702 17.917-4.683 5.53-3.747 11.944-5.855 18.58-6.791a71.036 71.036 0 019.954-.703c3.318 0 6.636.703 9.954 1.874 6.415 2.341 12.166 6.557 15.926 12.177v.234h-.221c-5.53-3.747-11.06-6.557-16.811-8.196-2.875-.703-5.972-1.405-8.848-1.639-3.097-.469-6.193-.469-9.29-.235-6.194.469-12.166 2.108-17.696 5.152-5.751 3.513-12.829 4.45-19.023 3.045-.221 0-.221-.235-.221-.235h-.221zm42.25 10.304c3.76-.702 7.742-.702 11.502.235 1.991.468 3.761 1.405 5.53 2.576 1.77 1.17 2.876 2.107 4.645 2.81 1.77.702 3.318.936 5.088 1.171 1.77.234 3.982.468 5.972 1.17 3.982 1.64 7.079 4.684 8.848 8.665 0 .234 0 .234-.221.234h-.221c-3.539-2.107-6.636-3.747-9.954-4.449-1.548-.468-3.318-.703-5.309-1.171-1.991-.468-3.981-1.405-5.751-2.342-.885-.468-1.77-1.171-2.654-1.639-.885-.703-1.549-1.405-2.212-1.873-1.328-1.171-2.876-2.108-4.646-2.811-3.317-1.405-7.078-1.873-10.838-1.873 0-.234 0-.234.221-.703-.221.235-.221.235 0 0zm23.226-2.809a33.58 33.58 0 016.636 1.405c2.212.703 4.203 1.874 6.193 3.279 1.991 1.405 3.982 2.81 5.309 4.918 1.106 2.107 1.991 4.683 1.77 7.259 0 .234-.222.234-.222.234h-.221c-1.991-1.639-3.539-3.044-4.866-4.683-1.548-1.405-2.433-3.513-3.982-4.918-1.548-1.405-3.096-2.81-4.866-4.215-1.769-1.171-3.76-2.342-5.751-3.045-.221 0-.221-.234-.221-.234h.221z" fill="#17293B"/><path d="M202.328 264.741c.443-1.639.885-3.044 2.212-4.449.664-.703 1.548-1.171 2.433-.937.885.234 1.549.703 1.991.469.885 0 .885-1.874 1.327-3.513.221-.937.443-1.873 1.106-2.576.664-.703 1.549-1.405 2.433-1.639 1.77-.469 3.54-.469 5.088-.234 1.548.234 3.097.702 4.645 1.17 3.097 1.171 5.751 2.342 8.627 3.981 1.327.703 2.433 1.406 3.981 1.874 1.328.468 2.655.702 3.982.937 1.327.234 3.097.234 4.866.702 1.549.468 3.097.937 4.645 1.874 1.549.936 2.876 1.873 4.203 3.278a10.582 10.582 0 012.654 4.918c.885 3.747-.442 7.493-2.212 10.069 0 0-.221.235-.221 0v-.234c.664-3.044.885-6.323-.442-8.664-1.106-2.342-3.318-3.981-5.751-5.152l-3.982-1.405c-1.327-.469-2.654-.469-4.202-.703-3.318-.702-6.636-2.342-9.07-4.215-2.433-1.639-5.087-3.044-7.963-4.215-2.654-1.171-5.751-2.108-8.184-1.639-1.106.234-1.991.936-2.433 2.575-.221.703-.443 1.406-.664 2.342l-.663 1.405c-.443.469-.885.703-1.549.703-1.106 0-1.769-.703-2.433-.703-.442-.234-1.106 0-1.769.469-1.106.936-1.77 2.341-2.434 3.747 0 .234-.221.234-.221.234v-.469zm-7.742 75.873c-.442 3.981-.221 7.962 1.106 11.709 1.327 3.747 3.539 6.791 6.415 9.367 1.327 1.171 2.875 2.342 4.424 3.513 1.548 1.171 3.096 2.107 4.645 3.044 3.318 1.873 6.857 3.513 10.175 5.386 1.77.937 3.318 1.873 5.088 2.342.884.234 1.548.702 2.433.702.885.235 1.769.235 2.654.235 3.539.234 7.078 0 9.954-1.171 2.876-1.171 5.53-3.981 6.857-7.026 1.327-3.044.664-7.259-1.548-10.538v-.234h.221c1.548 1.171 2.876 3.044 3.76 4.918.885 2.107.885 4.449.443 6.791-1.106 4.449-3.982 8.196-7.963 10.304-3.982 2.107-8.406 2.107-12.387 1.639-1.106-.234-1.991-.468-3.097-.702-1.106-.235-2.212-.703-3.097-1.171-1.77-.937-3.539-1.874-5.088-3.045-3.318-2.107-6.636-3.981-9.953-6.088-1.549-1.171-3.318-2.342-4.867-3.513-1.548-1.171-2.875-2.576-4.424-3.981-2.875-2.81-5.087-6.557-6.193-10.538-1.106-3.981-1.106-8.196-.222-12.177 0-.234.222-.234.222-.234.442.234.663.234.442.468z" fill="#17293B"/><path d="M244.135 358.412c-1.77 2.576-4.867 4.449-8.406 4.683-1.769 0-3.097-.234-4.645-.468l-4.645-.703c-1.548-.234-3.097-.468-4.424-.702-1.548-.234-2.654-.234-3.982-.469-2.654-.234-5.308.469-8.405.937-.221 0-.221 0-.221-.234v-.234c1.991-2.81 4.866-4.684 8.405-5.386 1.77-.234 3.539 0 5.088.468l4.424 1.405 4.424 1.405c1.548.469 2.875.937 4.202 1.171 2.655.469 5.53-.468 7.963-2.576h.222c.221.468.221.468 0 .703zm-31.412-15.691c.221 2.576.885 4.683 1.991 6.557.443.936 1.549 1.405 1.77 2.342.442.936.663 1.873 1.106 3.746 0 .235 0 .235-.221.469-1.549.468-3.097-.234-4.203-1.171-1.106-.937-1.328-2.576-1.77-3.981-.221-1.405-.221-2.81-.221-4.216.221-1.405.442-2.575 1.106-3.746 0-.235.221-.235.442 0-.221-.235 0 0 0 0zm.223-3.746c4.867 2.107 9.954 3.981 15.042 4.449 5.087.469 10.175-.234 14.599-3.044 2.212-1.405 4.203-3.044 6.636-4.684.663-.468 1.327-.936 2.212-1.17.221 0 .663-.235.884-.235.222 0 .885 0 1.328.235 1.106.234 1.99 1.405 2.212 2.107.221.468.221.703.221 1.171v.937c0 .468 0 .936-.221 1.405a31.244 31.244 0 01-.664 2.341c-1.106 2.811-2.212 5.152-3.76 7.728-1.327 2.576-3.097 4.918-5.088 6.792h-.221v-.235c.885-2.81 1.77-5.386 2.654-7.962.664-2.576 1.77-5.386 2.433-7.962.222-.702.222-1.171.443-1.873v-.703s.442.703.885.703h.442c-.221 0-.885.234-1.327.702-2.212 1.171-4.645 2.81-7.078 3.981-2.434 1.405-5.309 2.108-8.185 2.576-2.875.235-5.53 0-8.405-.468-5.309-1.171-10.396-3.513-15.042-6.323 0 0-.221-.234 0-.234-.221-.234 0-.234 0-.234z" fill="#17293B"/><path d="M226.219 337.57a135.298 135.298 0 017.078-8.898c2.433-2.811 5.088-5.387 7.963-7.963 2.876-2.576 5.53-4.917 6.857-7.259a8.44 8.44 0 001.106-4.215c0-1.64-.442-3.513-.884-5.386 0-.235 0-.235.221-.235h.221c1.548 1.171 2.876 2.811 3.539 4.918.885 2.108.664 4.684 0 7.025-.885 2.342-2.433 3.982-3.981 5.152-1.549 1.171-3.097 2.108-4.646 3.045-2.875 2.107-5.751 4.449-8.626 6.791-2.876 2.342-5.53 4.918-8.185 7.494h-.221c-.664-.234-.663-.469-.442-.469zm-18.802-9.836c.885-.234 1.991-.468 2.876-.468.885 0 1.991 0 2.875.234.885.234 2.212 0 2.876.937.663.702 1.327 1.873 1.327 3.513 0 .234-.221.234-.221.468-1.549.468-2.433.468-3.097.234-.885 0-1.327-.937-1.991-1.405-.663-.468-1.327-.937-2.212-1.405-.663-.468-1.548-.937-2.433-1.405-.221-.234-.221-.468 0-.703-.221 0 0 0 0 0z" fill="#17293B"/><path d="M208.745 331.48c2.433 2.108 5.308 3.747 8.184 4.918 2.875 1.171 5.751 2.108 8.848 2.342 3.097.234 5.972-.234 8.848-.234 3.096-.235 5.972-.469 9.29-.703.221 0 .221 0 .221.234v.234c-2.433 2.576-5.751 4.216-9.069 4.918-3.318.937-6.857.234-10.175-.702-3.318-.937-6.415-2.108-9.29-3.981-2.876-1.874-5.309-3.981-7.521-6.792v-.234h.664zm48.66-26.695c1.548 3.747 2.875 7.493 3.76 11.474.442 2.108.664 3.982.885 6.089.221 2.108.442 3.981.442 6.089.221 4.215.221 8.664-1.769 12.645-1.77 3.981-5.088 7.26-8.848 8.665-.222 0-.222 0-.222-.234v-.234c2.212-3.279 3.982-6.557 5.088-10.07.885-3.513 1.991-7.025 2.212-11.006.221-3.981.221-7.962 0-11.709-.221-3.981-.885-7.728-1.991-11.709 0-.234 0-.234.221-.234 0 .234.222.234.222.234zm-8.181 53.158c.884-1.405 1.99-2.576 2.875-3.981l1.327-2.108c.222-.468.443-.703 1.106-1.171.222-.234.664-.468 1.328-.234.663.234.884.702 1.106.937.442 1.17.663 1.639 1.105 2.576l.222.468c0 .234 0-.234-.222-.234-.221-.234-.442 0 0-.234.222 0 .885-.235 1.77-.235.442 0 .885.235 1.327.469.221.234.664.468.664.702.663 1.171.885 2.108 1.106 3.045.442 2.107.221 3.981-.221 6.088-.222.937-.664 2.108-1.328 2.81-.442.937-1.769 1.874-2.654 2.108-2.876 1.171-5.53 2.576-8.627 3.981-.221 0-.221 0-.221-.234v-.234c1.327-3.279 3.982-6.089 6.857-7.962.664-.469.664-.469 1.106-.937.443-.469.664-.937.885-1.405.664-1.171.885-2.576.885-3.981 0-.703-.221-1.405-.221-1.639 0-.235 0 0 .221 0h-1.549c-.442 0-.884-.235-1.327-.469-.442-.234-.663-1.171-.663-1.405v-.702c0-.703-.221-1.64-.443-2.108h.443c-.221 0-.443.234-.664.702l-1.769 1.64c-1.106 1.171-2.434 2.342-3.54 3.278h-.221c-.663.703-.663.469-.663.469z" fill="#17293B"/><path d="M252.54 354.898c1.106.936 2.212 1.873 3.096 3.044.885 1.171 1.549 2.576 2.212 3.981.221.703.664 1.405.885 2.342.221.937.221 1.873-.221 2.81-.664 1.873-2.212 3.044-3.982 3.279-.221 0-.221-.235-.221-.235v-3.981c-.221-.936.443-1.873.221-3.044-.221-1.405-.221-2.576-.663-3.981-.221-1.405-.885-2.576-1.549-3.747v-.234c0-.234 0-.234.222-.234zm-63.926-96.013l-13.272-43.557c-1.106-3.513-2.212-7.26-4.202-10.07-1.991-3.044-3.982-6.088-6.415-8.899-4.645-5.62-10.175-10.538-16.59-11.943-3.097-.702-6.857-.234-10.618-.936-1.99-.469-3.981-.937-5.751-2.108-.884-.468-1.769-1.171-2.654-1.873-.885-.703-1.548-1.64-1.991-2.108-.442-.468-.885-.937-1.548-1.171-.664-.234-1.106-.468-1.77-.468-1.327-.234-3.318.234-5.309 0-1.99-.234-4.202-.937-6.193-2.342-.885-.702-2.212-.937-3.539-.937-2.876.235-5.973 2.108-8.848 3.981-2.876 1.874-5.53 4.216-8.184 6.791a64.366 64.366 0 01-8.627 7.026c-3.097 2.107-6.415 3.747-9.733 5.152-.221 0-.221 0-.221-.234v-.235c6.194-3.981 11.723-8.664 16.369-14.284 2.433-2.811 5.087-5.621 8.184-7.963 1.548-1.17 3.097-2.107 4.866-3.044 1.77-.937 3.539-1.873 5.751-2.107 2.212-.235 4.646 0 6.636 1.639 1.106.702 2.655 1.171 3.982 1.405 1.548.234 3.097-.234 5.309.234 1.106.234 2.212.468 3.318 1.171 1.106.468 1.99 1.405 2.654 2.342.664.936 1.106 1.405 1.77 1.873.442.469 1.105.937 1.769 1.405 1.327.937 2.876 1.405 4.424 1.874 1.548.468 3.318.468 5.088.702l2.654.234c.885.235 1.991.235 2.876.469 3.76.936 7.299 3.044 10.175 5.386 2.875 2.342 5.53 5.152 7.963 8.196 2.433 3.044 4.424 6.089 6.415 9.367 1.99 3.513 3.096 7.26 3.981 11.007l11.502 44.025c0 .234 0 .234-.221.234.221 0 0 0 0-.234zm-30.967 23.654c-7.079-3.045-13.936-6.791-19.908-11.943a142.2 142.2 0 01-8.405-8.197c-2.655-2.81-5.53-5.62-8.185-8.196-5.53-5.386-11.502-10.304-16.811-15.924-5.308-5.62-10.838-11.241-15.705-17.563v-.234h.222c6.414 4.215 12.608 9.132 18.359 14.284 5.972 5.152 11.06 11.007 16.368 16.861 5.309 5.62 10.175 11.943 15.705 17.329 5.309 5.386 11.945 9.836 18.581 13.348 0 0 .221.235 0 .235h-.221z" fill="#17293B"/><path d="M82.22 209.007l25.879 5.386c.664.234.885.702.885 1.171v.234c-.663 1.639-1.106 3.512-1.106 5.386 0 1.639.664 3.747 1.327 3.513 1.106.234 2.876-.703 3.982-1.874 1.327-1.171 2.433-2.576 3.097-4.215.442-.937 1.327-1.171 2.212-.703.221 0 .221.235.442.469 3.539 4.215 6.857 8.43 9.954 12.88 3.318 4.449 6.415 8.898 9.069 13.582a149.58 149.58 0 017.299 14.753c1.991 5.152 3.761 10.304 5.53 15.69 0 .234 0 .234-.221.234h-.221a225.623 225.623 0 01-7.963-14.05c-2.654-4.684-5.53-9.368-8.184-13.817-2.876-4.449-5.53-9.133-8.406-13.582-2.875-4.45-5.972-8.899-9.29-13.114l2.654-.234c-1.106 1.873-2.433 3.512-4.203 4.917-1.769 1.171-3.76 2.576-6.414 2.108-.664-.234-1.549-.703-1.991-1.171-.442-.468-.664-1.171-.885-1.873-.442-1.171-.442-2.342-.442-3.513 0-2.342.663-4.45 1.548-6.323l.664 1.639-25.438-7.259c-.221 0-.221-.234-.221-.234h.442zm33.621-30.21c4.203 1.873 8.406 3.747 12.387 6.323 3.982 2.576 7.742 5.152 10.839 9.367 1.548 2.108 2.654 4.449 2.876 7.259.221 2.576.221 4.684.884 6.792.664 2.107 1.549 4.215 2.876 5.62.442.468.664.702 1.106.937.442.234.885.702 1.327.936.885.703 1.991 1.171 2.876 1.874 1.991 1.171 3.981 2.341 5.972 3.278a19.9 19.9 0 013.097 1.639c1.106.703 2.212 1.405 3.318 2.576 1.991 2.342 2.875 5.152 3.318 7.494l1.327 7.025c1.77 9.133 5.751 17.564 11.06 25.292v.234h-.221c-7.079-6.089-12.609-14.753-15.042-24.589-.663-2.342-1.106-4.918-1.548-7.025-.443-2.342-1.106-4.215-2.212-5.62-.664-.703-1.327-1.406-1.991-1.874-.885-.468-1.769-1.171-2.875-1.639-1.991-1.171-3.982-2.342-5.973-3.747-.885-.703-1.991-1.405-2.875-2.108-.443-.468-.885-.702-1.549-1.17-.442-.469-1.106-.937-1.327-1.406-1.77-2.107-2.654-4.683-3.318-7.025-.442-2.576-.664-5.152-.664-7.494 0-2.107-.884-4.215-1.99-6.088-2.433-3.747-5.973-6.791-9.733-9.367-3.76-2.576-7.742-4.918-11.724-7.026 0 0-.221-.234 0-.234-.663-.234-.442-.468-.221-.234z" fill="#17293B"/><path d="M64.079 192.614c0-.702 0-1.405.663-2.107.664-.703 1.549-.703 2.212-.703 1.327 0 2.655.703 3.76 1.171 2.213 1.171 4.424 3.044 6.194 4.918 1.77 1.873 3.76 3.981 4.424 6.791.885 2.81.885 5.62 0 8.43 0 .234-.221.234-.221.234h-.221c-1.328-2.341-2.433-4.449-3.54-6.557-1.105-1.873-1.77-4.215-3.096-6.322-1.328-1.874-2.876-3.747-4.645-5.386-.885-.703-1.77-1.405-2.876-1.874a1.342 1.342 0 00-1.327 0c-.443.234-.664.703-.885 1.405 0 0-.221.234-.442 0 0 .234 0 0 0 0z" fill="#17293B"/><path d="M73.37 205.259c4.866 3.045 9.07 7.026 12.608 11.709 3.54 4.684 6.194 10.07 7.521 15.924 1.548 5.855 1.77 12.178 0 18.032-.664 2.81-2.212 6.089-4.645 8.196-2.433 2.108-5.53 3.045-8.184 3.747-2.876.703-5.53 1.171-8.406 1.639-2.876.469-5.751.469-8.848.235-2.875-.469-5.751-.937-8.627-2.108-2.654-1.171-5.087-2.576-7.741-3.981-4.867-2.81-9.512-6.557-13.936-10.304a78.67 78.67 0 01-11.945-12.645v-.235h.222c8.848 7.26 17.917 13.817 27.428 18.969 2.433 1.171 4.867 2.576 7.3 3.512a39.865 39.865 0 007.52 2.108c2.655.468 5.088.468 7.742.234 2.655-.234 5.53-.702 7.963-1.171 2.655-.468 5.088-1.171 6.857-2.81 1.991-1.639 3.097-3.747 3.982-6.557 1.77-5.152 1.77-11.006.664-16.626-1.991-11.241-9.07-21.311-18.139-27.868 0 0-.22-.234 0-.234.443 0 .664 0 .664.234zm-58.175 21.545c-4.202-6.557-5.972-15.222-3.981-23.184 1.99-7.962 7.078-14.987 13.714-19.203 3.318-2.107 7.3-3.512 11.281-3.981 3.982-.468 8.184.469 11.945 2.108 3.539 1.639 6.857 3.981 9.732 6.557 2.876 2.342 5.752 5.386 7.964 8.43v.235h-.222c-3.096-2.342-6.193-4.216-9.511-6.089-3.318-1.873-6.415-3.747-9.733-4.918-3.318-1.171-6.636-2.107-9.954-1.873-3.318 0-6.857.937-9.953 2.576-6.194 3.278-11.282 9.367-13.494 16.626-2.211 7.26-1.327 15.456 2.212 22.247v.234c.222.235 0 .235 0 .235z" fill="#17293B"/><path d="M54.79 219.544c.441-1.171.663-2.342 1.105-3.512l1.106-3.513c.221-.468.221-1.171.442-1.639 0-.235.222-.469.222-.703 0 0 .22-.234.22-.468.222-.234.222-.469.443-.703.664-.937 1.549-1.405 2.433-1.405.885 0 1.77.234 2.212.937.221.234.221.234 0 .468-.442.703-.884 1.171-1.106 1.639-.22.469-.22.703 0 .937v.469c-.22.468-.442.702-.442.936l-1.327 1.405c-.664.937-1.549 1.874-2.433 2.81-.885.937-1.77 1.64-2.655 2.576 0 .235 0 .235-.22-.234 0 .234 0 .234 0 0zm-7.742 8.899c-1.106.702-2.433 1.639-3.54 2.341-1.105.937-2.211 1.64-2.875 2.576-.442.469-.664.937-.885 1.64-.442.702-.663.936-.885 1.405a41.304 41.304 0 00-2.654 3.044c0 .234-.221.234-.442 0-1.328-1.405-1.549-3.513-.885-5.386.221-.937.885-1.639 1.548-2.108l1.991-1.405c1.327-.936 2.654-1.405 4.203-1.873 1.327-.469 2.875-.703 4.203-.703.22.234.442.234.22.469.222 0 .222 0 0 0z" fill="#17293B"/><path d="M36.876 245.069c1.548-3.981 4.202-7.494 7.078-10.304l4.203-4.449 3.981-4.215c.442-.703.885-1.406 1.106-2.342.221-.469.221-.937.442-1.171.222-.703.443-1.405.664-1.874 1.106-2.107 2.212-3.981 3.54-5.386 2.653-3.278 5.75-6.088 9.29-8.196h.22v.234c-1.769 3.981-3.981 7.494-6.193 10.773l-3.318 4.683c-.221.468-.442.703-.442.937-.222.468-.443 1.171-.664 1.639-.442 1.171-1.106 2.108-1.99 3.044-1.77 1.874-3.097 3.045-4.867 4.216l-4.645 3.746a36.745 36.745 0 00-4.424 3.981c-1.327 1.406-2.654 3.045-3.76 4.918 0 0-.221.234-.221 0v-.234z" fill="#17293B"/><path d="M66.067 198.937l3.76 9.132-.22-.234c2.432 1.874 4.202 5.152 3.76 8.431-.222 1.873-.885 3.044-1.328 4.449-.442 1.405-1.106 2.81-1.77 4.215-.663 1.405-2.211 2.81-3.76 3.513-1.548.702-3.096.937-4.866.702-1.77-.234-3.318-.936-3.76-.702-.443 0-1.327.702-1.549 1.639v.703c.222.468.443 1.171.664 1.873.221.703.442 1.405.663 1.874l.443.936c.221.234.442 1.405.442 1.874 0 1.171-.22 2.576-.663 3.512-.443.937-1.106 1.64-1.549 2.342-1.106 1.171-2.212 2.108-3.539 3.044-2.654 1.874-5.53 3.045-8.626 3.513-.885 0-1.77 0-2.655-.468-.442-.234-.885-.469-1.106-.937-.22-.468-.442-.702-.663-.937-.664-.936-1.991-1.405-3.318-1.405-.221 0-.221-.234-.221-.234s0-.234.22-.234c1.328-.468 3.097-.468 4.646.468.442.234.663.469.885.703.22.234.442.234.663.234.443 0 .885 0 1.327-.234 2.212-.703 4.645-2.108 6.415-3.981.885-.937 1.99-1.874 2.654-2.81.885-.937 1.106-1.874 1.106-2.108v-.234l-.442-1.171c-.221-.703-.442-1.405-.664-2.342a30.692 30.692 0 01-.663-2.342v-2.107c0-.469.221-1.171.442-1.639.885-1.874 2.433-3.513 4.645-3.747a7.85 7.85 0 012.655.468c.663.234 1.106.468 1.77.468 1.105.235 2.211 0 3.317-.234 1.106-.468 1.77-1.171 2.433-2.107.664-1.171 1.328-2.342 1.991-3.747.664-1.405 1.327-2.576 1.549-3.747.442-2.342-.443-5.386-2.434-7.025l-.22-.235-2.876-9.367c0-.234 0-.234.22-.234.222.234.222.234.222.469zm-44.014 40.981c-.663 0-1.327.234-1.77.468-.663.234-1.105.703-.884.703 0 .234.442.702.885 1.171.442.468.885.702 1.327 1.171 1.99 1.405 4.203 3.044 6.415 3.981 2.212 1.17 4.866 1.639 6.857 3.278 1.99 1.405 3.76 2.576 6.414 3.513.222 0 .222.234.222.234v.234c-2.433 1.639-5.973 1.171-8.406.234-2.433-.936-4.424-2.576-6.857-4.215-1.106-.702-2.212-1.639-3.318-2.576-1.106-.937-1.99-1.873-2.875-2.81-.443-.468-.885-1.171-1.328-1.639-.442-.703-.884-1.405-.884-2.576.22-.703.663-.937.884-1.171.443-.234.664-.234 1.106-.234h1.991c.442-.235.443 0 .221.234.222 0 .222 0 0 0zm46.893 10.07c.885-1.405 1.991-2.81 2.654-4.449.885-1.406 1.549-3.045 2.213-4.45.663-1.639.884-3.278 1.77-4.683.884-1.405 1.769-2.811 3.538-3.981h.443c.663 2.107.663 3.981.22 5.854-.442 1.873-1.769 3.279-2.875 4.684-1.106 1.405-2.212 2.81-3.539 3.981-1.327 1.171-2.654 2.341-4.203 3.278h-.22c-.222 0-.222 0 0-.234zm1.992-21.077c.663-.234 1.548-.468 2.212-.703.663-.234 1.327-.468 1.77-.702.663-.234 1.105-.937 1.769-.937.664 0 1.327.468 2.433 1.171.221 0 .221.234.221.468-.22 1.405-.663 2.342-1.327 2.811-.663.702-1.77.234-2.433 0-.885 0-1.548-.235-2.433-.469-.664-.234-1.549-.702-2.212-1.171-.221 0-.221-.234 0-.468-.221 0-.221 0 0 0zm-1.549 2.576l.663 2.81c.222.937.443 1.874.885 2.81.221.469.221.937.443 1.405.22.469.442.703.442 1.64 0 2.341-1.548 3.278-2.433 3.746-.885.469-2.433 1.171-3.76.937H64.08c-.221 0-.442 0-.663.234-.443.234-.664.469-1.77.937-.664.234-1.327 0-1.77-.234-.442-.234-.663-.703-.884-1.171-.222-.703-.222-1.171 0-1.873 0-.235.22-.235.22-.235.443.235.886.703 1.107.703.22 0 .22 0 .22-.234 0-.235-.22-.234-.441-.234-.443 0 0-.469.22-.937.222-.469.886-1.171 1.55-1.405.663-.469 1.547-.703 2.211-.703.885 0 1.327.234 1.549.234.663.235.884.469 1.769.235.664-.235.885-.469.885-.235v-1.17c0-.469-.221-.937-.221-1.64 0-2.107 0-3.981.22-6.088.664.234.664.234 1.107.468-.221-.234 0-.234 0 0zm-9.292 21.31l1.328.703c.442.234.664.234 1.106.234.443 0 .885-.234.885 0 0 .469 0 .937.222 2.343v.469c-.664 1.171-1.55 1.405-2.213 1.405-.664 0-.885-.937-1.106-1.405-.222-.469-.443-1.172-.443-1.64 0-.703 0-1.172.221-1.874-.442-.235-.221-.235 0-.235zm35.393-20.842c2.433 3.045 4.645 6.557 5.087 10.773.222 2.107-.442 4.449-1.548 6.088-.442.937-1.106 1.639-1.327 2.342a4.216 4.216 0 000 2.342c.221 1.639 1.327 3.044 2.654 4.449 1.327 1.405 2.655 2.342 4.203 3.747l9.069 7.26c5.972 4.683 12.166 9.132 18.359 13.348 3.097 2.107 6.194 3.981 9.512 5.854 3.318 1.873 6.857 3.279 10.175 5.152 0 0 .221.234 0 .234l-.221.234c-3.761-.702-7.521-1.17-11.281-2.576-3.761-1.17-7.3-3.044-10.618-4.917-6.857-3.981-12.387-9.367-18.138-14.519l-8.627-7.728c-1.327-1.171-2.875-2.576-4.202-4.215-1.328-1.64-2.655-3.513-2.876-5.855-.221-1.171 0-2.342.442-3.512.443-1.171 1.106-1.874 1.77-2.811 1.106-1.405 1.77-3.044 1.77-4.917 0-3.747-1.991-7.494-4.203-10.538v-.235c0-.234-.221-.234 0 0zm.443 26.228c-1.327 2.108-2.876 3.747-4.645 5.386-1.77 1.64-3.54 3.045-5.973 4.45-2.212 1.171-5.087 2.107-7.742 1.405-2.654-.703-4.866-2.342-6.193-4.684v-.468h.221c2.433.234 4.645.468 6.415.468 1.99 0 3.76.469 5.751-.234.885-.234 1.99-.702 2.876-1.171a19.814 19.814 0 003.096-1.639c1.991-1.171 3.76-2.342 5.751-3.747h.222c.442.234.442.234.22.234zm-31.41 6.791c7.079 2.576 13.936 5.386 21.014 8.431 6.857 3.044 13.714 6.323 20.35 9.835 6.636 3.513 13.493 7.026 19.687 11.475 6.193 4.449 12.166 9.133 17.696 14.753v.234h-.221c-6.858-3.512-13.272-7.259-19.687-11.006-6.415-3.747-12.608-8.196-19.023-12.177-6.415-3.981-13.05-7.728-19.687-11.241-6.636-3.512-13.271-7.025-20.129-10.07-.22 0-.22-.234-.22-.234h.22z" fill="#17293B"/><path d="M158.09 288.627c-.221 2.107-.664 3.981-1.549 5.854-.884 1.873-2.212 3.513-3.76 4.918-1.548 1.405-3.097 3.044-5.309 3.278-1.991.234-4.203.234-5.972-1.171-.221 0-.221-.234 0-.468 1.769-1.171 3.318-2.108 4.866-2.81 1.327-.703 3.097-.937 4.424-1.874 1.327-.936 2.655-1.873 3.982-3.278 1.106-1.405 2.212-2.81 3.097-4.684 0 0 0-.234.221.235 0-.235 0-.235 0 0z" fill="#17293B"/><path d="M28.47 253.968l-5.308 12.178c-1.77 3.981-3.982 7.962-6.194 11.708-1.106 1.874-1.99 3.747-1.99 5.855-.222 2.107 0 4.215.663 6.323 1.327 3.981 3.76 7.727 6.415 11.006 2.654 3.278 5.53 6.791 8.847 8.899 1.77 1.171 3.54 1.873 5.53 2.342 1.991.468 3.76.702 5.973.702 2.212 0 4.424.234 6.636.937 2.212.702 4.202 1.639 6.193 2.81.885.702 1.77 1.405 2.654 1.873.664.469 1.549.703 2.655 1.171 1.77.469 3.76.703 5.972.703 4.424.234 8.627 1.171 12.83 1.873 4.202.937 8.405 1.874 12.387 2.81 1.99.469 3.981.937 5.53.703.663 0 1.327-.234 1.77-.703.663-.468 1.548-1.405 3.317-2.107.885-.234 1.77-.234 2.654-.234.885.234 1.77.702 2.434 1.17 1.106.937 1.769 1.874 2.212 2.108 1.106.703 2.654.937 4.424.468 1.769-.234 3.539-.936 5.087-1.873 1.327-.937 2.433-2.342 3.539-4.215 1.106-1.874 1.991-3.981 3.539-5.855 1.549-1.873 3.982-3.512 6.415-3.747 2.212-.234 4.203-.468 6.415-.702 2.212-.234 4.424-.234 6.415-.234 1.99 0 3.76-.703 5.087-2.342 1.327-1.639 2.212-3.513 2.876-5.62 0-.234.221-.234.221-.234l.221.234c-.442 2.107-.885 4.449-2.212 6.557a13.112 13.112 0 01-2.433 2.576c-1.106.702-2.212.936-3.318 1.171a520.09 520.09 0 00-6.194.702c-1.99.234-4.202.703-6.193 1.171-1.77.468-3.097 1.639-4.203 3.044-1.106 1.405-1.769 3.513-2.875 5.621-.885 2.107-2.434 4.215-4.646 5.854-1.99 1.639-4.202 2.342-6.635 3.044-2.434.469-5.088.469-7.742-1.171-1.328-.936-1.991-1.873-2.434-2.341-.221-.235-.442-.235-.442-.235h-.442c-.443 0-1.106.703-1.991 1.406-1.106.702-2.654 1.405-3.982 1.405-2.654.234-4.866-.469-6.857-.937-4.203-1.171-8.184-2.342-12.166-3.279-3.981-.936-8.184-2.107-12.165-2.341-1.991-.235-4.424-.235-6.636-1.171-1.106-.234-2.212-.703-3.318-1.405-1.106-.703-1.77-1.405-2.655-1.874-1.548-1.171-3.539-2.107-5.308-2.576-1.77-.702-3.76-.937-5.752-.937-1.99-.234-4.423-.234-6.635-.936-2.212-.703-4.203-1.639-5.973-3.044-3.76-2.576-6.636-6.323-9.29-9.602-2.654-3.512-5.088-7.493-6.415-11.943-.663-2.342-.885-4.683-.442-7.025.221-2.342 1.327-4.684 2.433-6.557 2.212-3.747 4.424-7.494 6.415-11.475l5.75-11.943s.222-.234.222 0c-.885 0-.885.234-.885.234z" fill="#17293B"/><path d="M23.16 294.482c6.637 5.62 14.157 9.601 22.12 12.177 7.963 2.81 16.148 4.45 24.11 3.279 1.992-.468 3.983-.937 5.752-1.639.885-.235 1.77-.703 2.876-1.171 1.106-.469 2.433-.703 3.539-.937 2.433-.234 4.866 0 7.078.937 2.212.702 4.203 2.107 5.972 3.278 3.54 2.576 7.079 4.918 10.618 7.26 3.539 2.341 7.078 4.683 10.839 7.025 0 0 .221.234 0 .234 0 0-.222.234-.222 0-8.184-2.107-16.147-6.323-23.447-10.538-3.76-2.107-6.857-3.747-10.617-3.513-.885 0-1.548.235-2.654.469l-3.097.937c-2.212.702-4.424.936-6.636 1.405-8.848.936-17.475-1.405-25.438-4.684-7.963-3.278-15.484-7.962-21.677-14.051v-.234c.663-.234.885-.234.885-.234zm21.235-36.065l12.83 15.925-.664-.235 8.627.235c.664 0 1.106.468 1.106 1.17v.469l-3.318 7.493-.442-1.639a130.355 130.355 0 0017.917 9.133c6.193 2.576 12.608 4.45 19.023 6.089 6.414 1.639 13.05 3.278 19.465 5.152 6.415 1.873 13.051 3.746 19.465 5.854.221 0 .221.234.221.234l-.221.234c-6.857-.468-13.493-1.405-20.129-2.575-6.636-1.171-13.272-2.342-19.907-4.45-6.636-1.873-13.051-4.449-19.244-7.259-6.194-3.045-12.166-6.323-17.917-10.304-.443-.469-.664-1.171-.443-1.64l3.54-7.493.884 1.639-8.627-.702c-.22 0-.442-.235-.663-.235l-11.724-16.86v-.235h.221zm96.441-39.81c1.106 1.64 1.77 3.513 2.433 5.387.443 2.107.443 4.215.222 6.088-.222 2.108-.222 4.215-1.328 5.855-.884 1.639-2.212 3.278-4.202 4.449-.221 0-.222 0-.443-.234-.221-2.342.222-4.215.443-5.855.221-1.873 1.327-3.278 1.99-4.917.443-1.64.885-3.513 1.106-5.152.222-1.874 0-3.747-.442-5.621 0-.234 0-.234.221-.234v.234zm-22.342-38.171c-6.636.703-13.051 2.81-18.58 6.323-2.877 1.639-5.31 3.981-7.964 5.854-2.654 1.874-5.309 3.747-8.406 5.621h-.22v-.235c1.105-3.512 3.317-6.556 5.972-9.132 2.654-2.576 5.972-3.981 9.069-5.386 3.318-1.406 6.636-2.342 9.954-3.045 3.318-.468 6.857-.702 10.175-.234.221-.234.221 0 0 .234.221 0 0 0 0 0zm-84.276 80.792l-2.654 7.025-2.433 6.792c-.885 2.341-1.327 4.683-2.433 6.791-1.106 2.107-2.434 4.215-4.424 6.088h-.443v-.234c-.22-2.81.221-5.152.664-7.728.442-2.576 1.99-4.449 3.318-6.791 1.106-2.107 2.433-4.215 3.76-6.323 1.327-2.107 2.654-4.215 4.203-6.088 0 0 .221-.234.221 0l.221.468zm328.254 23.652c6.857-.468 13.493-.234 20.35.703 3.318.468 7.078.936 10.175 2.81 3.318 1.873 5.972 4.683 7.521 8.196 0 .234 0 .234-.222.234h-.221c-3.097-1.639-5.972-3.044-8.848-4.215-2.875-.937-5.972-2.342-9.069-3.279-3.097-.936-6.415-1.639-9.733-2.341-3.318-.703-6.635-1.171-9.953-1.64-.222 0-.222-.234 0-.468-.222 0-.222 0 0 0z" fill="#17293B"/><path d="M399.196 318.133c-1.548-1.171-2.875-2.342-4.203-3.981-1.106-1.405-2.211-3.279-2.875-5.386-.664-2.108-.443-4.45.663-6.557 1.106-2.108 2.876-3.513 4.424-4.45 1.77-1.171 3.318-1.873 5.088-2.81 1.548-.702 3.318-1.639 5.309-1.873 3.76-.937 7.52-.937 11.281 0 .221 0 .221.234.221.234s0 .234-.221.234c-3.539 1.405-6.857 2.576-9.954 3.981-1.548.703-3.318 1.405-4.866 1.874-1.77.468-3.318 1.17-4.867 1.873-1.548.702-2.875 1.639-3.76 2.81-.885 1.171-1.106 2.81-.885 4.449.442 3.513 2.654 6.557 5.088 9.368v.234h-.443z" fill="#17293B"/><path d="M446.31 269.658c-4.866 1.405-9.732 3.044-13.493 6.088-1.991 1.405-3.76 3.279-4.866 5.386-.664.937-1.106 2.108-1.549 3.279-.442 1.171-.884 2.576-1.548 3.747-1.106 2.575-2.212 4.917-3.539 7.259-1.327 2.342-2.876 4.45-3.76 6.323-.885 1.873-1.328 4.215-1.549 6.791 0 2.576.221 5.152.664 7.728 0 .234 0 .234-.221.234h-.222c-1.548-2.107-2.654-4.683-3.318-7.728-.663-2.81-.442-5.854.664-8.899 1.106-3.044 2.876-4.917 4.203-7.025 1.548-2.108 2.875-4.215 3.981-6.557.664-1.171 1.106-2.342 1.77-3.513.442-1.17 1.106-2.575 1.991-3.746 1.548-2.342 3.76-4.216 5.972-5.621 4.645-2.81 9.733-3.981 14.599-4.449.221 0 .221 0 .221.234.221.468.221.469 0 .469z" fill="#17293B"/><path d="M425.295 306.424c2.655-1.171 5.309-3.044 6.858-5.386.663-1.171 1.106-2.576 1.106-3.981 0-1.405-.222-2.81 0-4.918 0-1.873 1.105-4.215 2.433-5.62 1.327-1.405 3.096-2.342 4.866-2.81 3.318-.703 6.636-.469 9.733.702.221 0 .221.234.221.234s0 .235-.221.235c-3.097 1.405-5.973 2.107-8.406 3.278-2.433 1.171-4.424 1.874-5.087 4.449-.222 1.171-.222 3.045-.664 4.684-.221 1.873-1.106 3.513-2.212 4.918-2.212 2.576-5.309 3.981-8.405 4.449-.222 0-.222 0-.222-.234 0 0 0 .234 0 0zm32.073-48.007c-2.212 2.108-3.981 4.684-4.866 7.494-1.106 2.81-1.327 5.855-.885 8.899.221 2.81 1.327 5.854 3.097 7.728 1.77 1.873 4.424 2.107 6.857 1.405 1.106-.234 2.433-.937 3.097-1.639.442-.235.221-.703.221-.235.221.703 0 .235-.442 0-1.991-1.17-5.53-2.341-7.963-5.62-1.106-1.873-1.549-4.215-1.106-6.323.442-1.873 1.327-3.512 2.433-4.917 1.991-2.576 4.424-4.45 7.078-6.089h.221v.234c-1.769 2.576-3.539 4.918-4.866 7.494-.664 1.171-1.106 2.576-1.106 3.747 0 1.171.221 1.873.885 2.81.663.702 1.548 1.405 2.875 2.107 1.106.703 2.433 1.406 3.982 2.342.221.234.442.234.663.469.222.234.443.234.664.702.442.468.885 1.171 1.106 2.342.221 1.171-.221 1.873-.664 2.576-.442.468-.884.937-1.106 1.405-1.548 1.171-3.318 1.873-4.866 2.107-1.769.235-3.318.235-5.087-.234-1.77-.468-3.318-1.405-4.424-2.81-2.434-2.81-3.097-6.323-3.097-9.601 0-3.279.442-6.557 1.769-9.601 1.328-3.045 3.54-5.386 5.973-7.26h.221c-.442.234-.442.234-.664.468zm11.281.235c8.406-.469 17.032.468 25.217 3.044 3.981 1.405 7.963 3.044 11.944 4.683 3.982 1.64 7.742 3.279 11.724 5.387 1.991.936 3.76 2.107 5.751 3.512 1.991 1.405 3.539 3.279 4.866 5.152 2.655 3.981 4.424 7.962 5.973 12.177 3.096 8.197 5.972 16.627 8.184 25.292 0 .234 0 .234-.221.234h-.222c-4.423-7.728-8.184-15.456-11.944-23.418-.885-2.108-1.77-3.981-2.655-5.854-.884-1.874-1.769-3.747-2.875-5.621-1.106-1.639-2.212-3.278-3.76-4.449-1.549-1.171-3.318-2.342-5.088-3.513-3.539-2.107-7.299-3.981-11.06-5.854-3.76-1.874-7.52-3.747-11.502-5.152-7.742-3.044-16.147-4.45-24.332-4.684-.221-.468-.221-.702 0-.936-.221 0-.221 0 0 0zm-49.987 63.228c-1.327.234-2.876.468-4.203.468-1.327.235-2.876.235-4.203.235-1.327 0-2.875.468-4.203 0-1.327-.469-2.654-1.171-3.981-2.576-.221-.235 0-.235 0-.469 1.548-1.171 2.876-1.639 4.424-1.639 1.327-.234 2.654.468 4.203.937 1.327.234 2.654.702 4.202 1.171 1.328.468 2.655.702 4.203 1.405-.442 0-.221.234-.442.468zm-28.094-9.368c-3.097-1.171-5.972-2.342-8.848-3.513l-4.424-1.873c-1.548-.703-2.875-.937-4.645-1.639-3.097-1.406-6.193-3.045-8.405-5.855-2.212-2.81-3.761-5.854-4.424-9.367 0-.234 0-.234.221-.234h.221c2.655 2.107 4.866 4.449 7.3 6.322 2.212 1.874 4.202 4.216 6.857 5.855 1.106.702 2.875 1.405 4.202 2.108l4.203 2.576c2.654 1.873 5.53 3.512 8.184 5.151 0 0 .222.235 0 .235-.221.234-.442.234-.442.234zm-27.651 50.114c1.548-3.044 3.317-5.855 5.751-8.43 2.212-2.576 5.087-4.45 7.963-6.323 2.875-1.639 5.751-3.279 8.848-4.918.663-.468 1.327-.702 1.99-1.171.443-.468 1.106-.936 1.549-1.405.885-1.171 1.548-2.342 2.212-3.981.663-1.639 1.99-3.747 3.539-4.918 1.548-1.17 3.097-2.107 4.866-2.81 1.77-.468 3.982-.702 6.194 0 1.106.469 1.99 1.171 2.654 1.405l1.991 1.405c1.327.937 2.654 1.64 4.203 2.576.663.469 1.327.703 1.99.937.664.234 1.328.468 1.991.468 2.876.469 6.194.235 9.512-.234.221 0 .221 0 .221.234 0 0 0 .235-.221.235-2.876 1.639-6.194 3.044-9.733 3.044-.885 0-1.77 0-2.654-.234-.885-.234-1.991-.469-2.655-.937l-4.645-2.108c-.664-.468-1.548-.936-2.212-1.17-.663-.469-1.327-.937-1.769-.937-.885-.468-2.212-.468-3.54 0-1.327.234-2.654.937-3.76 1.639-1.106.703-1.77 1.639-2.654 3.044-1.327 3.279-4.203 6.792-7.742 7.728-3.097 1.171-5.973 2.576-8.848 3.981-2.876 1.405-5.751 3.044-8.184 5.152-2.434 2.108-4.424 4.918-6.194 7.728 0 0-.221.234-.221 0-.442.234-.442 0-.442 0z" fill="#17293B"/><path d="M399.859 335.228c-2.433 3.279-3.982 7.26-3.982 11.241-.221 3.981 1.106 7.962 3.097 11.006l-1.77-.937c1.549-.234 3.097-.468 4.645-.234 1.549 0 3.097.234 4.646.469 1.548.234 3.096.702 4.424 1.405 1.548.702 2.875 1.171 4.202 2.107.222 0 .222.234 0 .234l-.221.234c-1.548.235-3.097.469-4.645.469h-8.848c-1.548 0-2.876-.234-4.424-.234h-.221c-.664 0-1.106-.469-1.327-.937-1.991-4.215-2.876-8.899-2.212-13.348.221-2.342 1.106-4.449 2.212-6.323 1.106-1.873 2.433-3.747 3.981-5.152h.222c.221-.234.221-.234.221 0zm-8.408 26.227c-2.654.234-5.088.702-7.521 1.639-2.433.936-4.424 2.342-6.193 3.981-.885.936-1.77 1.873-2.876 2.81-1.106.937-2.212 1.873-4.203 2.342-1.769.468-3.76 0-5.087-1.171-1.327-.937-2.212-2.342-2.654-3.981 0-.234 0-.234.221-.234h.221c1.327.468 2.433.936 3.539 1.171 1.106.234 1.77 0 2.654-.469 1.328-.702 3.761-2.342 6.194-3.747 2.433-1.639 5.088-2.576 7.742-3.044 2.654-.468 5.53-.468 7.963 0 .221.234.221.468 0 .703.221 0 .221 0 0 0zm32.516-34.891c.443.468.885.702 1.328 1.171.442.468.885.937 1.106 1.405.443.469 1.106.703.885 1.406 0 .703-.442 1.405-1.327 2.342-.222 0-.222.235-.443.235-1.327 0-1.991-.469-2.434-.703-.442-.469-.221-1.171-.221-1.64v-1.874c0-.703.221-1.171.221-1.874.443-.468.664-.468.885-.468-.221 0 0 0 0 0zm31.413-38.172c-5.751 3.044-10.618 7.728-13.935 13.582-3.318 5.621-5.088 12.178-5.53 18.969l-.664-1.405c4.866 2.576 9.954 4.918 14.82 6.791 5.088 2.108 10.175 3.747 15.484 5.386 5.088 1.874 10.396 3.747 15.484 5.62 5.087 2.108 10.175 4.216 15.263 6.558.221 0 .221.234.221.234l-.221.234a180.61 180.61 0 01-16.148-3.513c-5.309-1.405-10.617-2.81-15.926-4.683-5.309-1.874-10.396-3.981-15.484-6.557-5.087-2.342-9.954-4.918-14.82-7.962-.443-.235-.664-.937-.664-1.406.443-3.512 1.106-7.025 2.212-10.303 1.106-3.279 2.655-6.557 4.645-9.368 3.761-5.854 9.069-10.303 15.263-12.879.221 0 .221 0 .221.234l-.221.468zm-17.254 2.108c.664-.702 1.548-1.405 2.433-1.873.885-.468 1.991-.937 2.876-1.171 1.106-.234 2.212-.937 3.097-.468 1.106.468 1.99 1.171 2.654 2.576v.468c-1.106.937-1.991 1.405-2.876 1.639-.884.234-1.769-.234-2.654-.468-.885 0-1.77-.234-2.654-.234h-2.876v-.469c0 .235 0 0 0 0zm21.676-3.279c1.991-.468 3.982-.937 5.973-.937 1.99-.234 3.981.001 5.972.235 3.982.468 7.963 1.873 11.724 3.747l-2.876 2.107c-.221-1.171-.885-2.342-1.77-3.044a7.073 7.073 0 00-2.875-1.874l-3.982-1.405a110.593 110.593 0 00-4.645-.702c-.221 0-.221-.234-.221-.234v-.235c1.327-.936 2.875-1.639 4.645-1.873 1.77-.234 3.539-.234 5.088.234 1.769.234 3.76 1.171 5.087 3.044 1.327 1.64 1.991 3.747 2.212 5.855v.234c0 1.171-.663 2.108-1.769 2.108-.443 0-.885 0-1.328-.469-3.096-2.341-6.414-3.981-10.175-4.917-3.76-.937-7.521-1.405-11.502-1.171-.221 0-.221 0-.221-.234.663-.235.663-.469.663-.469zm73.438 36.532c-3.76-2.342-8.406-3.747-12.387-2.576-1.991.703-3.982 1.874-5.972 2.81-1.991 1.171-3.982 2.342-6.194 3.279-2.212.936-4.203 1.873-6.415 2.81-2.212.702-4.424 1.405-6.414 1.873-.443 0-.885.234-1.328.469-.442.234-.442.234-.442 0v-.937c0 .234.221.234.221.468.221.469.443.937.885 1.405 1.106 1.874 2.433 3.981 3.76 6.089v.234h-.221c-1.991-1.171-3.981-2.576-5.751-4.215l-1.327-1.405c-.221-.234-.443-.469-.664-.937 0 0-.221-.234-.221-.468v-1.171c0-.234.221-.703.221-.937.664-1.405 1.549-1.873 2.212-2.342.664-.468 1.327-.702 1.77-.936 4.645-1.64 8.848-1.874 13.05-3.513 1.991-.703 4.203-1.639 6.194-2.576 1.991-.937 4.203-1.873 6.636-2.342 4.866-.702 9.733 1.171 13.051 4.45v.234c-.443.234-.443.234-.664.234zm-31.189 35.83c-1.106 1.405-2.212 2.81-3.097 4.449-.443.703-.885 1.639-1.106 2.342-.221.702-.221 1.405 0 1.639 0 0 .885.234 1.548.234h2.655c1.769 0 3.76.234 5.529.469 1.77.234 3.761.702 5.53 1.17 1.77.469 3.318.937 4.867 1.405l4.866 1.64c1.77.468 3.318 1.171 5.088 2.107.221 0 .221.234 0 .234l-.221.235c-3.54.936-7.3.936-11.06.234-1.77-.234-3.54-.937-5.309-1.639-1.548-.703-3.097-1.405-4.867-1.874-1.548-.468-3.317-.702-5.087-.937l-2.654-.468c-.443 0-.885-.234-1.549-.234-.442-.234-1.327-.468-1.769-1.171-.443-.702-.443-1.405-.443-2.107 0-.703.221-1.171.443-1.64.442-.936 1.106-1.639 1.548-2.576 1.106-1.405 2.654-2.81 3.982-3.981h.221c1.106.235 1.106.234.885.469z" fill="#17293B"/><path d="M520.63 329.373c-7.742 3.513-14.599 9.133-19.023 16.627-1.106 1.873-1.77 3.981-1.549 5.854.221 1.874 1.549 3.513 3.097 4.918 1.548 1.405 3.318 2.81 4.866 3.981l5.309 3.513c3.539 2.342 7.3 4.683 11.06 6.323 3.76 1.639 7.742 3.044 11.724 3.981 4.202.936 8.184 1.639 12.387 2.107 4.202.469 8.405.469 12.608.703 1.991 0 4.203.234 6.193 0 1.77 0 3.982-.468 5.752-1.171a25.542 25.542 0 0010.175-6.089c2.875-2.81 5.087-6.322 6.414-10.069 1.549-3.747 1.991-7.962 1.77-12.178-.221-4.215-1.327-8.196-3.318-11.709-1.991-3.512-5.088-6.556-8.406-8.43-3.539-1.873-7.52-3.278-11.502-4.449-3.981-1.171-8.184-1.874-12.387-2.108-.221 0-.221-.234-.221-.234 0-.234 0-.234.221-.234 8.406-.469 17.032.468 25.438 3.981 4.203 2.107 7.521 5.152 10.396 9.133 2.654 3.981 4.203 8.899 4.424 13.582.442 4.684-.221 9.601-1.991 14.285-1.769 4.449-4.202 8.664-7.742 11.943-3.318 3.278-7.52 5.386-11.944 6.791-2.212.469-4.424.937-6.636 1.171-2.212 0-4.424 0-6.415-.234-4.203-.234-8.405-.703-12.608-1.171-4.203-.468-8.627-1.405-12.608-2.576-4.203-1.171-8.185-2.576-12.166-4.449-3.982-1.874-7.521-4.45-11.06-6.792-1.77-1.17-3.539-2.341-5.309-3.746a44.9 44.9 0 01-4.866-4.45c-.885-.702-1.549-1.639-2.212-2.576-.664-.936-1.106-2.107-1.328-3.512-.221-2.576.885-4.918 1.991-6.792 2.433-3.746 5.309-7.259 8.848-9.835 3.318-2.81 7.3-4.918 11.06-6.557.221 0 .221 0 .221.234-.663 0-.663.234-.663.234z" fill="#17293B"/><path d="M535.452 324.924c.442-1.405 1.327-2.575 2.433-3.746 1.106-1.171 2.654-1.64 3.981-2.108 2.876-.468 5.309-.937 7.964-1.639 1.327-.469 2.433-.937 3.981-1.405.443 0 .885-.234 1.991 0 .442 0 1.106.468 1.548.937.443.468.664 1.17.664 1.639.221 2.107-.442 2.81-.885 3.512-.885 1.405-1.991 2.576-3.539 3.513-1.327.937-2.876 1.171-4.424.937-.221 0-.221-.234-.221-.234v-.235c1.106-1.171 1.991-2.107 2.654-3.044.664-.937 1.327-2.342 1.549-3.278.221-.469.221-1.171.221-.469 0 .234 0 .469.221.703.221.234.221.234.442.234.222 0 .222.234.443.234.442 0 .221 0 0 0-1.106 0-2.655.234-3.982.468-1.327.235-2.875.235-4.203.469h-3.981c-2.433-.234-4.867 1.405-6.415 3.747 0 0-.221.234-.221 0-.221 0-.221 0-.221-.235z" fill="#17293B"/><path d="M526.161 327.968c2.655-1.873 5.972-3.512 9.29-4.449 1.77-.468 3.54-1.171 5.309-.703 1.77.469 3.318 1.171 4.866 2.81v.469c-.884.468-1.769.702-2.654.937-.885.234-1.548.468-2.433.468-1.548.234-3.097-.234-4.645-.234-1.549 0-3.097 0-4.645.234-1.549.234-3.097.468-4.867.703-.221 0-.221-.001-.221-.235 0 .234 0 .234 0 0zm15.927 8.664a10.187 10.187 0 011.548 5.386c0 .469 0 1.171-.221 1.64-.221.468-.221.936-.221 1.17 0 .235-.221.703-.221 1.171v.703c0 .234 0 .702-.222.937-.221.702-.884 1.639-1.548 2.107-.663.469-1.327.703-2.654.469-.443 0-.885-.235-1.327-.703-.443-.468-.664-1.405-.664-1.873 0-1.171.221-1.405.443-1.64.221-.468.442-.702.663-1.171.442-.468.664-.936.885-1.405.221-.702.442-1.405.663-2.576 0-.234.222-.234.222-.234.884.469 1.548 1.405 1.99 2.576.443 1.171.222 2.576 0 3.513-.221.468-.442.937-.442 1.171v-.468c0-.235-.221-.937-.442-1.406-.222-.234-.664-.468-.664-.468-.664 0-.221.234-.221.234v.234l.221-.234.221-.702c.221-.469.221-.937.443-1.405.221-.469.442-.937.663-1.171.221-.234.221-.469.443-.937.442-1.405.442-3.279.221-4.918 0-.234 0-.234.221-.234-.221 0-.221 0 0 .234zm-1.547 25.994c.885.235 1.769.703 2.433 1.405.664.703 1.327 1.64 1.548 2.811.222 1.171.664 2.341 0 3.512-.663.937-1.769 1.64-3.096 1.405-.222 0-.222-.234-.222-.234-.442-1.405-.663-2.107-.663-2.81-.221-.468.442-.937.663-1.405.222-.468.222-1.171 0-1.874 0-.702-.442-1.405-.884-2.341-.222-.235-.222-.234.221-.469-.221 0-.221 0 0 0zm-1.99-.701c.442.469.664.937.885 1.64.221.703.221 1.406.221 1.874 0 .703.664.469.443.469-.222.234-.664.468-1.328 1.64 0 .234-.221.234-.442.234-1.328.234-2.213-.235-2.656-1.172a1.572 1.572 0 010-1.405c.222-.469.443-.937.664-.937l.885-.937c.443-.469.664-.937.885-1.406.222-.234.221-.234.443 0zm8.179-28.805c.884.937 1.548 1.873 2.212 3.044.442 1.171.885 2.576 1.106 3.981 0 1.405.442 3.044-.443 4.215-.885 1.171-1.991 2.108-3.539 2.342-.221 0-.221-.234-.442-.234-.222-1.64-.222-2.81-.222-3.747 0-.937.885-1.639 1.106-2.576.222-.937.443-2.108.443-3.044 0-1.171-.221-2.342-.443-3.513-.221-.468-.221-.468.222-.468-.222-.234-.222 0 0 0z" fill="#17293B"/><path d="M546.289 370.823c.664-2.576.664-5.152 0-7.26-.442-1.171-.884-2.107-1.769-2.81-.664-.702-1.549-1.171-2.433-1.405-2.433-.702-4.424-.468-6.636-.702-2.212-.235-4.645-.235-7.3-.937-.221 0-.221-.234-.221-.234v-.235c2.212-1.873 4.645-2.81 7.3-3.278 1.327-.234 2.875 0 4.202.234l1.991.703 1.77.936c1.327.469 2.654 1.64 3.539 2.811.885 1.405 1.327 2.81 1.548 4.215.443 3.044-.442 5.854-1.769 7.962 0 0-.222.234-.222 0 0 .234 0 .234 0 0zm-22.562-8.196c-1.327-.937-2.654-2.342-3.318-4.45-.442-2.107-.442-3.747-.221-5.62 0-1.171.221-1.639 0-2.342v-2.341c0-.469 0-.937.221-1.64.221-.468.442-.936.885-1.405.442-.468.885-.702 1.327-.702.885 0 1.548.234 1.991.468.442.234.663.703 1.106 1.171v.468c-.885.235-1.991.469-1.77.937h.442c.222-.234.222-.234.443-.234 0 0 .221.468.221.937a6.038 6.038 0 010 2.81 16.086 16.086 0 01-.885 2.576 30.81 30.81 0 00-.663 2.341c-.221.937-.443 1.64-.443 2.342-.221 1.405.443 3.044 1.327 4.45v.234h-.663zm-6.856-20.14c0 1.405-.222 2.576-.222 3.747v3.747c0 1.171.664 2.342.443 3.513-.221 1.17-.664 2.341-1.549 3.981 0 .234-.221.234-.442 0-1.327-.937-1.991-2.342-2.433-3.747-.443-1.405.221-2.81.442-4.216.221-1.405.664-2.576 1.327-3.981.664-1.171 1.106-2.341 1.991-3.512.221 0 .443 0 .443.468 0-.234 0-.234 0 0zm-6.414 5.386c0 .703 0 1.172.222 1.874.221.469.221.937.442 1.406.221.468.664.703.443 1.171-.222.469-.664.937-1.549 1.874 0 0-.222.235-.443.235-1.327 0-1.991-.703-2.434-1.406-.442-.703.221-1.406.443-2.108a5.147 5.147 0 011.106-1.875c.443-.468.885-.937 1.549-1.405 0 0 .221 0 .221.234zm14.596-12.645c-.664-.234-1.328-.469-1.77-.235-.442 0-1.106.001-1.327.235-.443.234-.664.702-.885.468l-2.212-1.171c-.221 0-.221-.234-.221-.234-.221-1.405.221-2.342 1.106-3.044.885-.703 1.769-.234 2.654.234.885.234 1.549.703 2.212 1.405.442.703.885 1.405 1.106 2.107-.442 0-.442.235-.663.235zm-7.073 27.634l-1.328.703c-.443.234-.885.469-1.328.469-.442.234-.885.702-1.327.234-.443-.469-.664-.937-.886-2.343v-.468c.664-1.172 1.107-1.64 1.549-1.874.443-.235.664.468 1.107.702.442.235.664.469 1.106.937l1.107 1.172c.221.234.221.234 0 .468zm34.507-34.659c2.875 1.171 6.193 1.873 9.29 1.873 1.548 0 3.096 0 4.645-.234 1.548-.234 3.539-.234 5.087.468 3.318 1.405 5.973 3.981 7.521 7.494.664 1.873.885 3.981.442 5.854a158.19 158.19 0 01-1.327 5.152c-.442 1.64-1.327 3.279-2.212 4.918-.885 1.639-1.769 3.044-2.212 4.215-.442 1.171-.663 2.576-.442 3.513.221.937.885 1.873 1.769 4.449.222.703.222 1.405 0 2.342-.221.703-.442 1.405-.884 2.108-.885 1.171-1.77 1.639-2.655 2.107-1.548.937-3.096 1.405-4.645 1.874-3.096.936-6.414 1.405-9.732 1.639-.221 0-.222 0-.222-.234 0 0 .001-.234.222-.234 2.875-1.405 5.751-2.576 8.626-4.216 1.327-.702 2.876-1.405 3.982-2.341.442-.469 1.106-.937 1.106-.937v-.468c-.221-.703-1.549-2.342-1.991-4.684-.442-2.576.221-4.449 1.106-6.323.885-1.873 1.991-3.044 2.875-4.449.885-1.405 1.549-2.576 2.212-3.981.443-1.405 1.106-3.045 1.549-4.45.442-1.405.221-2.81 0-4.215-.885-2.81-2.876-5.152-5.53-6.323-1.327-.702-2.654-.936-4.203-.702-1.548 0-3.318 0-4.866-.234-3.318-.469-6.415-1.405-9.29-2.81 0 0-.221-.235 0-.235-.443-.936-.443-.936-.221-.936zm-73.439 35.36c1.106 2.342 1.991 4.684 3.097 6.791 1.106 2.342 2.212 4.449 3.318 6.557 1.105 2.108 2.654 4.215 3.317 6.557.885 2.342 1.549 4.684 1.77 7.494 0 .234 0 .234-.221.234h-.221c-2.212-1.405-3.761-3.513-5.309-5.62-1.327-2.108-1.991-4.684-2.654-7.026-.885-2.341-1.549-4.917-1.991-7.259-.443-2.576-1.106-4.918-1.327-7.494 0-.234 0-.234.221-.234 0-.234-.221-.234 0 0z" fill="#17293B"/><path d="M494.75 350.917c-6.415 2.108-13.493 2.576-20.35.937-6.636-1.405-13.272-3.747-19.465-6.791-3.097-1.405-6.194-3.279-9.069-4.45-3.097-.936-6.194-.936-9.512-.468-1.548.234-3.097.702-4.424 1.405-.663.234-1.327.703-1.548 1.171-.443.468-.664.937-.664 1.171 0 .234.221.936.664 1.639l1.327 2.108c1.106 1.405 1.991 2.81 3.097 4.215 4.424 5.386 8.848 10.772 13.714 15.69 2.433 2.576 4.645 4.917 7.078 7.259 2.212 2.81 4.645 4.215 7.742 5.386 3.097 1.171 6.194 2.108 9.512 3.045l9.954 2.576c3.318.936 6.635 1.873 9.953 3.278 3.097 1.639 6.194 3.513 8.848 5.854v.235h-.221c-3.097-1.64-5.972-3.279-9.29-4.216-3.097-1.17-6.415-1.639-9.733-2.107-6.636-1.171-13.493-2.108-20.129-4.215a49.215 49.215 0 01-5.087-2.342c-1.77-.937-2.876-2.342-4.203-3.513-2.433-2.576-5.088-5.386-7.3-7.962-4.645-5.386-9.069-11.006-13.271-16.626-1.106-1.406-2.212-2.811-3.097-4.45-.442-.702-1.106-1.639-1.548-2.342-.443-.936-1.106-1.873-1.106-3.512 0-1.405.884-2.576 1.548-3.513.885-.937 1.77-1.405 2.654-1.873a22.252 22.252 0 015.309-1.405c3.539-.469 7.299-.469 10.617.936 3.318 1.405 6.194 3.279 9.291 4.684 5.972 3.278 12.387 5.854 18.801 7.493 6.415 1.874 13.493 1.64 19.908-.234.221 0 .221 0 .221.234 0 .703 0 .703-.221.703z" fill="#17293B"/><path d="M479.046 388.855c-2.654 2.81-4.866 5.855-6.857 9.133-.443.703-.885 1.64-.885 2.342 0 .703.221 1.405.664 2.108 1.106 1.171 2.654 2.107 4.202 3.044 3.318 1.639 6.857 2.576 10.397 3.278 3.539.703 7.299.703 10.838.937 1.77 0 3.761 0 5.751.234 1.991.234 3.982.469 6.194 1.64.442.234 1.106.702 1.548.936l1.106 1.171c.664.703 1.106.937 1.77 1.405.663.469 1.106.469 1.769.703.443 0 1.106 0 1.77-.234 1.327-.469 2.876-1.405 3.982-2.342.663-.469 1.106-1.171 1.769-1.874.664-.936 1.549-1.639 2.655-2.107 3.76-2.342 7.963-2.108 11.502-1.639.221 0 .221.234.221.234s0 .234-.221.234c-3.761.702-7.3 1.639-9.733 3.981-.664.468-1.106 1.171-1.548 1.873-.443.703-1.106 1.64-1.77 2.576-1.327 1.64-3.318 3.045-5.309 3.981-1.106.469-2.433.703-3.76.703s-2.433-.703-3.539-1.171c-1.106-.703-1.991-1.405-2.654-2.342l-.885-.937c-.221-.234-.443-.468-.885-.702-2.433-1.639-6.194-1.874-9.954-2.108-3.76-.234-7.521-.702-11.281-1.639-3.76-.937-7.299-2.342-10.839-4.215-1.769-.937-3.318-2.108-4.645-3.981-.663-.937-1.106-2.342-.663-3.513.221-1.171.884-2.107 1.327-2.81 2.212-3.044 4.866-6.088 7.742-8.664h.221c.221-.469.221-.235 0-.235z" fill="#17293B"/><path d="M503.377 400.329c5.087 1.873 9.953 3.278 15.262 3.981 5.088.702 10.396.936 15.484.234 1.327-.234 2.433-.468 3.539-.937 1.106-.468 1.991-.937 2.433-1.639l.222-.234c0-.234.221-.234.221-.469v-1.17c0-1.171-.443-2.576-.443-4.216 0-3.278.885-6.322 2.433-8.898a21.927 21.927 0 015.752-6.323h.221v.234c-1.327 2.576-2.655 4.918-3.318 7.26-.664 2.575-1.106 4.917-.885 7.259 0 1.171.442 2.342.442 3.981 0 .937 0 1.873-.221 3.044l-.663 1.405c-.222.469-.664.937-1.106 1.171-1.549 1.405-3.097 1.874-4.424 2.108-1.549.468-2.876.468-4.203.702-5.53.235-10.839-.468-16.147-1.873-5.309-1.405-10.175-3.278-15.042-5.854 0 0-.221-.235 0-.235.221.469.443.469.443.469zm-17.252-116.855c.884 2.342 1.327 5.152.884 7.728-.663 2.81-2.212 5.152-4.202 7.025-1.991 1.874-3.982 3.513-6.415 4.216-2.433.702-5.088.936-7.742-.235-.221 0-.221-.234-.221-.234v-.234c2.212-1.405 4.202-2.576 5.972-3.513 1.991-1.17 4.203-1.639 5.972-2.81 1.77-1.171 3.318-2.81 4.203-4.918.885-2.107 1.106-4.449.885-7.025 0-.234 0-.234.221-.234l.443.234zm-51.758 40.513c-.443.936-.664 1.873-.885 2.81a6.038 6.038 0 000 2.81c0 .937.664 1.639.442 2.342-.221.936-.442 1.639-1.106 3.278 0 .234-.221.234-.442.234-1.548-.234-2.433-1.405-2.875-2.576-.664-1.17 0-2.576.221-3.746.663-2.342 2.212-4.45 3.981-5.386.664 0 .664 0 .664.234.221 0 .221 0 0 0zm-14.6 19.671c-2.212 7.26-1.77 15.456 1.105 22.247 1.328 3.513 3.318 6.557 5.752 9.367 2.433 2.576 5.529 4.684 8.405 6.557 6.193 4.215 12.829 7.26 18.802 11.709l4.645 3.279c1.548 1.17 3.097 2.107 4.645 3.278 3.097 2.108 6.193 4.215 9.069 6.557 0 0 .221.234 0 .234h-.221c-3.539-1.171-7.079-2.576-10.396-4.215-3.318-1.405-6.636-3.513-9.954-5.152-6.415-3.747-12.608-7.962-18.581-12.411-3.096-2.342-6.193-4.45-8.626-7.728-2.434-3.279-4.424-6.557-5.751-10.538-2.655-7.494-2.212-15.924.663-23.184 0-.234.221-.234.221-.234.221-.234.443 0 .222.234z" fill="#17293B"/><path d="M422.198 343.892c.443 2.342.885 4.45 1.549 6.557.663 2.108 1.327 4.45 2.212 6.089.442.937 1.106 1.405 1.769 2.108l1.77 1.639.442.468c0 .234.221.234.442.234.664 0 1.328-.936 2.212-1.873h.443v.234a4.321 4.321 0 01-.664 4.215c-.442.703-1.548 1.171-2.433 1.406-.885 0-1.77-.235-2.654-.469-1.327-.702-2.433-1.639-3.097-2.81-.664-.937-1.327-2.342-1.77-3.513-.884-2.576-.884-4.917-1.106-7.259 0-2.342 0-4.684.222-7.026.221 0 .221-.234.663 0-.221 0-.221 0 0 0zm13.933 19.906c1.106 4.215 2.433 8.43 4.866 11.709 1.106 1.639 2.655 2.81 4.424 3.278 1.549.469 3.982.469 5.973.937 1.99.468 4.202.937 6.193 1.405 1.991.702 3.982 1.405 5.751 2.108 3.761 1.639 7.742 3.044 11.502 4.917.222 0 .222.235.222.235s0 .234-.222.234c-4.202.702-8.626.234-12.829-.937-4.203-1.171-7.742-3.279-11.723-4.449-.885-.235-1.991-.703-2.876-.937-.885-.234-1.991-.468-3.318-.937-2.212-.937-3.982-2.81-5.309-4.683-2.433-3.981-3.097-8.665-3.539-12.88 0-.234 0-.234.221-.234.443 0 .443 0 .664.234z" fill="#17293B"/><path d="M451.176 377.848c-.884.234-1.769.234-2.654.234h-2.654c-.885 0-1.77.469-2.433-.234-.664-.468-1.328-1.171-1.991-2.576v-.468c1.106-.937 1.991-1.405 2.875-1.405.885-.234 1.549.702 2.212 1.171.664.468 1.549.936 2.212 1.405.664.468 1.549.936 2.212 1.639.443-.234.443 0 .221.234.222 0 .222 0 0 0z" fill="#17293B"/></g><defs><filter id="filter0_d_2_23342" x="0" y="0" width="596.191" height="421.172" filterUnits="userSpaceOnUse" color-interpolation-filters="sRGB"><feFlood flood-opacity="0" result="BackgroundImageFix"/><feColorMatrix in="SourceAlpha" values="0 0 0 0 0 0 0 0 0 0 0 0 0 0 0 0 0 0 127 0" result="hardAlpha"/><feOffset dx="-5" dy="-5"/><feGaussianBlur stdDeviation="2"/><feComposite in2="hardAlpha" operator="out"/><feColorMatrix values="0 0 0 0 0.682353 0 0 0 0 0.682353 0 0 0 0 0.752941 0 0 0 0.15 0"/><feBlend in2="BackgroundImageFix" result="effect1_dropShadow_2_23342"/><feBlend in="SourceGraphic" in2="effect1_dropShadow_2_23342" result="shape"/></filter></defs></svg>