<svg width="193" height="281" fill="none" xmlns="http://www.w3.org/2000/svg"><path d="M62.815 229.893c.844 3.593 1.32 7.3 1.42 11.059a53.155 53.155 0 01-.419 7.875c-2.362 3.447-4.726 6.893-7.091 10.338a9.02 9.02 0 01-1.845 2.871c-1.793 1.852-3.898 2.271-5.816 2.722-6.074 1.421-4.73 1.887-9.543 2.847-5.245 1.034-10.546 1.261-15.736.675-3.337-.491-4.342-.173-4.543.292-.2.466.287.831.75 2.103.307.821.514 1.686.617 2.576l-5.932 7.162c-2.048-3.494-3.367-7.451-3.876-11.628L.405 270.619c1.958-2.534 3.913-5.07 5.865-7.608l4.202-1.412.938-9.601a63.1 63.1 0 016.181-7.557c3.251-3.398 5.881-6.144 9.654-8.063 1.415-.713 3.959-1.814 15.43-2.337 4.882-.217 9.074-.248 12.358-.19a368 368 0 01-4.28-13.272c-1.66-5.486-2.02-7.135-2.226-8.188a52.3 52.3 0 01-.701-14.67l9.28-12.094c-2.06 4.027-3.179 8.459-3.255 12.895-.013 2.16.25 4.207 3.58 14.397 3.302 9.979 4.17 11.445 5.384 16.974zm-5.748 11.146a26.405 26.405 0 01-5.24 1.411c-4.12.658-6.208-.057-9.804-.243-3.698-.184-6.782.441-12.907 1.711a95.878 95.878 0 00-10.892 2.909c-1.45 4.418-1.69 9.088-.687 13.447 13.023.709 26.221-.649 39.165-4.028 1.848-5.002 1.979-10.404.37-15.218l-.005.011zm8.588.745c3.033-.17 7.481-.948 11.48-4.181 1.767-1.412 2.622-2.645 5.36-6.007a242.46 242.46 0 018.74-10.029 69.492 69.492 0 00-2.668-16.311c-1.437-4.923-3.44-9.194-7.462-17.744-4.597-9.824-6.388-12.546-7.422-18.439a44.221 44.221 0 01-.537-10.768c-2.586 3.682-5.175 7.365-7.766 11.049a63.464 63.464 0 002.082 13.001c1.993 7.39 5.04 13.135 8.112 18.852 4.02 7.479 5.165 8.037 6.484 12.305 1.388 4.606 1.829 9.544 1.294 14.496a91.095 91.095 0 01-10.817 3.36 86.102 86.102 0 01-8.038 1.554l1.158 8.862z" fill="#E37958"/><path d="M83.582 188.486a102.173 102.173 0 0115.574-1.118c6.637.046 10.003.756 15.857-.799 5.854-1.556 8.466-3.844 9.902-5.538a16.573 16.573 0 003.062-5.5l6.816-10.264a73.931 73.931 0 00-4.294-9.832c-1.294-2.451-4.102-7.447-13.067-18.212-6.216-7.467-6.166-6.628-8.609-9.928-4.567-6.227-7.939-13.386-9.946-21.116-1.71 3.095-3.42 6.19-5.127 9.286a117.418 117.418 0 006.254 13.288 128.35 128.35 0 0010.667 16.102c3.194 4.242 6.614 8.22 6.614 8.22 4.893 5.789 7.353 8.053 8.682 12.53.814 2.732 2.028 5.379.835 7.055-.573.807-1.306.866-3.288 1.555-3.262 1.128-4.635 2.13-6.148 2.775-5.128 2.163-13.178.764-14.581.524-5.114-.856-12.92-1.216-24.255 1.382l5.052 9.59z" fill="#E37958"/><path d="M73.696 164.511a63.432 63.432 0 0114.048-4.004c6.483-1.041 10.109-.519 20.328-.97 5.394-.24 9.783-.62 12.6-.898l-11.126-13.066c-4.276.201-7.94.368-10.725.51-10.631.537-12.894.733-15.77 2.011-2.425 1.088-6.165 3.365-9.862 8.604l.507 7.813zm59.438-7.021c2.13.1 4.291-.357 6.294-1.33 2.004-.974 3.789-2.435 5.201-4.256 4.381-5.235 6.776-11.944 7.831-15.329a99.62 99.62 0 00-9.384-17.104c-4.674-6.823-9.976-12.689-13.543-16.609-7.707-8.471-10.193-9.888-12.784-15.263-2.123-4.47-3.327-9.422-3.539-14.554a5554.633 5554.633 0 01-4.573 12.231c1.796 5.903 4.402 11.438 7.739 16.436 5.12 7.621 9.398 10.034 16.613 19.102 3.713 4.662 6.526 7.613 8.748 12.721a42.257 42.257 0 012.962 10.258c-1.774.365-3.591.768-5.461 1.243a143.67 143.67 0 00-11.481 3.315l5.377 9.139z" fill="#E37958"/><path d="M99.132 104.94a15.798 15.798 0 013.479-6.161c2.12-2.27 4.818-3.819 7.703-4.424l5.221 7.887c-5.702 1.415-10.838 5.065-14.342 10.194l-2.061-7.496zm27.9-6.286c4.192.386 8.425.477 12.671.273a90.684 90.684 0 0018.197-2.718 89.775 89.775 0 0018.002-6.87c.354-.606.884-1.533 1.514-2.673 3.191-5.797 4.786-8.693 5.234-11.36.182-1.066.494-3.879-2.405-9.767-3.103-6.317-6.33-8.913-11.463-14.578-9.608-10.597-6.83-10.88-14.479-18.371-2.711-2.65-6.29-5.776-9.202-11.552-2.411-4.774-2.357-7.367-2.301-8.265.408-6.684 6.421-11.273 7.629-12.16l-13.467 1.12c-1.527 5.81-3.053 11.622-4.577 17.434a99.021 99.021 0 0010.766 19.243c4.029 5.606 7.95 9.74 12.7 14.756 5.919 6.249 7.015 6.324 10.122 10.03 4.331 5.246 7.679 11.345 9.886 18.008a109.722 109.722 0 01-13.513 4.911c-11.501 3.344-20.868 3.98-28.457 4.448-5.388.335-9.841.35-12.915.303l6.058 7.788z" fill="#E37958"/><path d="M115.468 74.258c16.053-6.169 32.749-9.6 49.432-10.16l-7.497-7.508c-2.742.295-6.149.681-10.066 1.203-22.258 2.978-27.453 5.77-30.731 9.838a19.124 19.124 0 00-2.705 4.573l1.567 2.054zm61.813-14.823l6.803-3.207 6.327-12.494c-.578-4.558-1.89-8.919-3.881-12.898a37.204 37.204 0 00-6.966-9.667l-4.831 8.82c5.067 3.947 8.412 9.872 9.381 16.617-3.448 3.67-8.027 5.85-12.734 6.064l5.901 6.765zM55.187 197.041L69.62 191.1l-3.91-11.717-1.225.256a8.151 8.151 0 00-3.245 1.469 9.013 9.013 0 00-2.431 2.766l-.924 1.625-2.698 11.542z" fill="#E37958"/><path d="M64.601 252.536a.635.635 0 00-.52-.016.773.773 0 00-.406.379.775.775 0 00-.055.553c.051.179.17.324.328.403a.642.642 0 00.52.016.779.779 0 00.406-.38.774.774 0 00.055-.553.637.637 0 00-.328-.402z" fill="#004E63"/><path d="M42.476 244.38a135.695 135.695 0 0013.041 9.823c.713.477 1.361-.844.653-1.319a132.266 132.266 0 01-12.753-9.622c-.654-.559-1.592.528-.946 1.116l.005.002z" fill="#E5E5E5"/><path d="M52.032 263.669c3.71-2.37 5.366-6.864 5.615-11.106.263-4.557-.66-9.181-1.74-13.462a124.464 124.464 0 00-4.175-12.905c-.617-1.671-1.338-3.326-1.827-5.038a43.026 43.026 0 01-.994-4.226 40.771 40.771 0 01-.677-5.48c-.063-1.344-.164-2.95.408-4.237.379-.863-.817-1.46-1.2-.591a9.002 9.002 0 00-.605 3.574c0 1.591.118 3.171.354 4.724a39.602 39.602 0 001.985 8.443c3.08 8.249 6.392 16.736 7.056 25.861.345 4.765-.483 10.442-4.905 13.262-.784.499-.07 1.672.705 1.181z" fill="#004E63"/><path d="M52.746 264.987c3.15-2.385 6.387-4.923 8.75-8.253a22.883 22.883 0 003.965-10.687c.871-7.716-1.593-14.867-4.548-21.498-1.581-3.557-3.512-7.142-3.51-11.296.002-.932-1.366-.773-1.364.153-.004 3.504 1.294 6.646 2.654 9.661a84.165 84.165 0 013.971 9.942c2.09 6.808 2.605 14.861-1.347 21.569-2.277 3.852-5.848 6.619-9.263 9.214-.737.562-.035 1.735.703 1.174l-.01.021zM36.07 237.188a3.113 3.113 0 011.814-.772 30.045 30.045 0 012.04-.359 38.405 38.405 0 014.331-.409c2.871-.1 5.72.12 8.501.657a.689.689 0 00.504-.141.801.801 0 00.296-.466.731.731 0 00-.078-.528.618.618 0 00-.41-.293 39.086 39.086 0 00-9.326-.664c-1.565.077-3.131.25-4.691.521-1.355.23-2.913.374-3.952 1.509-.637.696.347 1.615.981.924l-.01.021zm30.885 7.155c5.205-1.534 10.942-3.469 14.406-8.37 3.372-4.775 2.964-10.655 1.657-15.79-.814-3.179-1.902-6.25-2.492-9.508-.153-.896-1.467-.376-1.306.517.972 5.272 3.287 10.156 3.416 15.623.125 2.558-.488 5.157-1.757 7.456-1.464 2.316-3.477 4.205-5.815 5.455-2.68 1.533-5.611 2.416-8.495 3.264-.852.236-.468 1.607.386 1.353z" fill="#004E63"/><path d="M83.016 231.387c-.479.788.368 1.548 1.077 1.188.378-.278.706-.63.965-1.033.427-.525.858-1.047 1.283-1.566 1.503-1.832 3.19-3.638 4.327-5.742 1.093-2.027 1.223-4.136.98-6.31-.242-2.175-.495-4.315-1.415-6.207-.386-.8-1.55.043-1.169.842a15.427 15.427 0 011.132 4.792c.207 1.632.408 3.346-.146 4.996-.581 1.742-1.818 3.192-2.953 4.582l-1.829 2.235c-.305.375-.614.747-.916 1.117-.143.179-.636.959-.85 1.018l.523.015-.11-.054.33.406-.042-.12-.053.552.05-.1c.495-.806-.707-1.393-1.199-.592l.015-.019zm-33.884-24.028c-.156-4.32.776-8.695 2.702-12.681 1.925-3.987 4.776-7.442 8.262-10.017a25.527 25.527 0 016.095-3.32c.847-.324.457-1.672-.387-1.353-4.096 1.552-7.827 4.163-10.837 7.584a29.432 29.432 0 00-6.352 11.956 27.83 27.83 0 00-.846 7.992.671.671 0 00.227.46.613.613 0 00.477.143.734.734 0 00.464-.254.802.802 0 00.195-.51z" fill="#004E63"/><path d="M56.712 211.021c-1.359-3.428-1.777-7.369-1.794-11.159-.002-3.611.285-7.809 2.266-11.052.49-.809-.712-1.395-1.2-.592-2.066 3.405-2.425 7.796-2.428 11.589.006 3.942.425 8.146 1.845 11.729.334.821 1.632.32 1.311-.515z" fill="#004E63"/><path d="M54.69 199.369a2.43 2.43 0 011.336-1.021c.608-.265 1.227-.504 1.84-.753 1.262-.513 2.527-1.031 3.794-1.541l7.591-3.087c.84-.347.458-1.698-.387-1.353l-8.262 3.36-4.02 1.633c-1.173.478-2.44.916-3.09 2.171a.774.774 0 00-.056.553.64.64 0 00.329.402.642.642 0 00.52.016.776.776 0 00.406-.38zm25.652 9.955c-2.365-5.29-5.04-10.398-7.518-15.618-1.367-2.881-2.71-5.775-3.923-8.737-.952-2.321-2.05-4.806-2.344-7.393-.244-2.532.218-5.14 1.33-7.51 1.145-2.592 2.416-5.136 3.631-7.7a.774.774 0 00.055-.553.639.639 0 00-.328-.403.643.643 0 00-.52-.016.775.775 0 00-.406.38c-1.095 2.309-2.207 4.615-3.274 6.918a18.274 18.274 0 00-1.886 6.848c-.15 3.051.853 5.837 1.903 8.528 2.383 6.132 5.326 11.989 8.204 17.834 1.338 2.735 2.677 5.444 3.942 8.241.358.833 1.532-.032 1.173-.839l-.04.02z" fill="#004E63"/><path d="M90.19 208.814a92.325 92.325 0 00-4.214-9.766c-1.904-3.979-3.875-7.919-5.764-11.904-1.889-3.984-3.708-7.941-5.236-12.076-1.22-3.287-2.38-6.754-2.56-10.382-.142-1.709.06-3.459.596-5.134a12.931 12.931 0 012.653-4.264c2.385-2.624 5.504-4.308 8.497-5.943.813-.438.087-1.611-.707-1.176-5.115 2.8-11.137 6.419-12.225 12.958-.688 4.151.355 8.289 1.586 12.048 2.83 8.617 7.081 16.571 10.977 24.605 1.825 3.763 3.709 7.541 5.08 11.547.292.846 1.62.346 1.311-.515l.005.002z" fill="#004E63"/><path d="M83.265 149.06c7.755-1.915 15.646-2.634 23.422-2.134.861.057 1.186-1.384.308-1.43-7.89-.52-15.898.196-23.77 2.126-.866.23-.818 1.652.04 1.438zm-9.077 17.472c.966-1.072 2.303-1.542 3.602-1.852 1.44-.353 2.896-.606 4.343-.89a277.836 277.836 0 019.206-1.588 222.678 222.678 0 0118.472-2.043c3.455-.229 6.906-.369 10.352-.419.875-.007.83-1.448-.043-1.432a216.17 216.17 0 00-38.039 4.032c-1.64.313-3.286.61-4.933 1.032-1.47.311-2.848 1.085-3.95 2.219-.63.706.356 1.62.98.924l.01.017zm4.45 14.4c6.538.922 13.233.741 19.898.308 6.419-.417 12.959-.996 19.188-3.357a31.77 31.77 0 008.994-5.139c.717-.592.013-1.773-.704-1.182-4.908 4.057-10.846 6.096-16.763 7.115-3.191.552-6.407.829-9.614 1.051-3.208.223-6.481.399-9.73.451a73.575 73.575 0 01-10.971-.656.65.65 0 00-.267.013.714.714 0 00-.249.12.789.789 0 00-.304.474.76.76 0 00-.008.281c.015.093.047.18.094.256a.608.608 0 00.425.286l.011-.021z" fill="#004E63"/><path d="M80.722 188.899a121.893 121.893 0 0025.248.762c3.974-.29 8.062-.616 11.998-1.575a17.784 17.784 0 005.131-2.024c1.753-.99 3.17-2.574 4.005-4.476a129.041 129.041 0 017.436-14.711c.485-.811-.714-1.403-1.199-.592-2.404 4.04-4.57 8.22-6.486 12.515-.458 1.021-.849 2.089-1.362 3.089a7.088 7.088 0 01-2.173 2.414 14.746 14.746 0 01-4.811 2.221c-3.768 1.055-7.757 1.338-11.559 1.654a122.4 122.4 0 01-12.233.383c-4.588-.092-9.15-.446-13.666-1.06-.856-.114-1.174 1.311-.308 1.43l-.02-.03z" fill="#004E63"/><path d="M127.25 179.472c.16-2.847-.225-5.654-1.132-8.252a60.386 60.386 0 00-3.222-7.958 65.484 65.484 0 00-9.47-14.422c-3.59-4.154-7.603-7.874-11.106-12.117a40.646 40.646 0 01-4.685-6.908c-1.331-2.508-2.393-5.27-2.548-8.248-.34-6.332 2.986-12.437 6.204-17.794.485-.811-.717-1.397-1.199-.592-2.921 4.867-5.772 10.169-6.308 15.858-.552 5.938 2.058 11.25 5.195 15.693 3.222 4.558 7.19 8.38 10.976 12.428a68.74 68.74 0 0110.222 13.927 64.182 64.182 0 014.106 9.102c1.067 2.982 1.867 6.115 1.592 9.432-.077.927 1.291.768 1.365-.154l.01.005z" fill="#004E63"/><path d="M134.769 167.98c-.394-2.821-1.566-5.277-2.796-7.748a141.152 141.152 0 00-4.047-7.689 145.62 145.62 0 00-14.753-21.401c-1.876-2.238-3.837-4.473-5.651-6.813-3.218-4.168-6.148-8.942-6.837-14.533-.381-3.077-.131-6.571 2.1-9.067 2-2.256 4.955-3.259 7.665-3.839.861-.185.809-1.635-.045-1.44-2.469.528-5.006 1.337-7.115 2.969a10.507 10.507 0 00-2.709 3.182 10.615 10.615 0 00-1.273 3.996c-.71 5.656 1.474 11.166 4.224 15.582 3.211 5.136 7.446 9.418 11.139 14.136a145.218 145.218 0 0110.111 14.705 152.31 152.31 0 014.879 8.795c1.491 2.909 3.214 5.939 3.741 9.323.15.902 1.506.744 1.36-.156l.007-.002z" fill="#004E63"/><path d="M102.577 115.475c1.354-2.843 2.773-5.76 5.242-7.758 2.229-1.802 4.871-2.848 7.433-3.842a.777.777 0 00.407-.38.77.77 0 00.055-.554.636.636 0 00-.328-.402.642.642 0 00-.521-.017c-2.743 1.082-5.585 2.207-7.936 4.171-2.583 2.158-4.124 5.186-5.551 8.191a.773.773 0 00-.055.553.636.636 0 00.328.402.64.64 0 00.52.016.775.775 0 00.406-.38zm24.848 35.994a61.673 61.673 0 008.944-1.612 60.497 60.497 0 004.312-1.286c1.198-.407 2.944-.956 2.593-2.659-.185-.892-1.494-.37-1.306.517.111.535-6.442 2.165-7.079 2.33a59.161 59.161 0 01-7.496 1.256.737.737 0 00-.477.265.803.803 0 00-.186.531.683.683 0 00.215.486c.131.12.307.176.488.156l-.008.016z" fill="#004E63"/><path d="M132.132 159.358c2.599.318 5.427.585 8.018-.467 2.979-1.195 4.743-4.132 5.034-7.362.298-3.424-.97-6.722-2.202-9.693a67.053 67.053 0 00-4.619-8.995c-3.719-6.148-7.984-11.903-12.087-17.781l-13.121-18.824c-1.145-1.641-2.384-3.237-3.409-4.964-.953-1.483-1.294-3.347-.95-5.196a34.195 34.195 0 012.04-5.99 123.98 123.98 0 012.671-6.278c.389-.858-.808-1.455-1.199-.591a106.363 106.363 0 00-4.297 10.647 11.222 11.222 0 00-.681 4.778 10.008 10.008 0 001.726 4.24c1.979 3.031 4.125 5.941 6.19 8.896l6.369 9.137c4.135 5.98 8.377 11.854 12.433 17.886 3.638 5.419 7.162 11.176 9.104 17.622.985 3.303 1.3 7.863-1.977 10.302-2.559 1.902-5.948 1.516-8.725 1.169-.861-.103-1.179 1.322-.315 1.433l-.003.031z" fill="#004E63"/><path d="M115.434 136.473a226.115 226.115 0 0126.902 10.237c.767.378 1.438-.965.653-1.319a229.621 229.621 0 00-27.242-10.346c-.822-.255-1.126 1.177-.313 1.428zm-11.955-16.85l-.064.067.647-.258c-.326.659-.248 1.019.204 1.071l.511.174 1.019.352 2.007.695c1.253.435 2.506.869 3.759 1.317 2.503.889 5.001 1.791 7.492 2.706a602.172 602.172 0 0115.114 5.779c.799.315 1.457-1.002.653-1.319a635.644 635.644 0 00-28.628-10.584c-.749-.258-2.47-1.265-3.056-.058a.986.986 0 00-.079.623.826.826 0 00.314.501c.16.118.359.169.561.145a.92.92 0 00.546-.278c.66-.672-.331-1.588-.981-.924l-.019-.009zm3.218-9.953a80.662 80.662 0 0016.322 6.329c.838.223 1.146-1.207.313-1.428a79.296 79.296 0 01-15.982-6.219.636.636 0 00-.52-.016.777.777 0 00-.406.379.773.773 0 00-.055.553.636.636 0 00.328.402zm-6.574 47.795a547.84 547.84 0 0122.345 11.835c.754.418 1.406-.901.652-1.319a526.392 526.392 0 00-22.345-11.835.641.641 0 00-.519-.016.771.771 0 00-.406.38.774.774 0 00-.056.553.64.64 0 00.329.402zm-18.696 2.82a400.995 400.995 0 0026.617 14.573 719.694 719.694 0 007.75 3.766.644.644 0 00.52.016.779.779 0 00.406-.38.773.773 0 00.055-.553.636.636 0 00-.328-.402 403.14 403.14 0 01-26.926-13.998 460.305 460.305 0 01-7.446-4.331c-.736-.442-1.39.877-.653 1.319l.005-.01zm-6.42 7.354a402.298 402.298 0 0024.113 12.556 465.2 465.2 0 007.021 3.249c.772.381 1.438-.965.653-1.319a392.474 392.474 0 01-24.384-12.034 421.263 421.263 0 01-6.768-3.734c-.752-.423-1.404.896-.653 1.319l.018-.037zm-16.701 26.392a100.334 100.334 0 0011.947 7.209.643.643 0 00.52.016.775.775 0 00.406-.38.774.774 0 00.055-.553.637.637 0 00-.328-.402 98.005 98.005 0 01-11.672-6.995c-.696-.487-1.651.623-.946 1.116l.018-.011zm-2.174 9.601c3.082 1.561 5.973 3.604 8.874 5.436 3.819 2.436 7.617 4.902 11.46 7.291 1.335.823 2.669 1.684 4.066 2.394a.643.643 0 00.52.016.775.775 0 00.406-.38.774.774 0 00.055-.553.637.637 0 00-.328-.402c-3.082-1.561-5.974-3.605-8.874-5.437-3.822-2.431-7.613-4.899-11.463-7.285-1.332-.828-2.661-1.687-4.064-2.399a.638.638 0 00-.52-.016.775.775 0 00-.406.38.771.771 0 00-.055.552c.052.18.17.324.329.403zm.223 11.933a1021.674 1021.674 0 0025.556 16.222c.733.448 1.381-.874.653-1.319a995.571 995.571 0 01-25.556-16.222c-.716-.472-1.364.85-.653 1.319zm14.425 20.11l-7.877-5.621a.637.637 0 00-.486-.154.75.75 0 00-.48.249.807.807 0 00-.19.529c.003.19.077.366.206.489l7.88 5.623a.636.636 0 00.485.151.753.753 0 00.622-.496.79.79 0 00.047-.281.718.718 0 00-.056-.27.639.639 0 00-.151-.219z" fill="#E5E5E5"/><path d="M145.282 153.612c3.613-3.685 5.536-8.776 7.697-13.407.394-.856-.803-1.453-1.199-.592-2.089 4.523-3.961 9.487-7.482 13.08-.66.672.326 1.585.984.919z" fill="#004E63"/><path d="M152.351 138.241c-2.524-10.574-8.874-19.255-15.665-26.972-3.82-4.34-7.817-8.453-11.6-12.807-1.904-2.18-3.746-4.416-5.467-6.762a28.952 28.952 0 01-4.077-7.112c-.955-2.68-1.276-5.611-.937-8.553a20.686 20.686 0 012.884-8.368c.495-.806-.707-1.393-1.199-.592-2.762 4.589-3.787 10.008-2.854 15.088 1.029 5.602 4.636 10.093 7.993 14.212 7.211 8.81 15.735 16.437 22.118 26.014 3.333 4.927 6.043 10.386 7.485 16.396.212.885 1.521.363 1.306-.518l.013-.026z" fill="#004E63"/><path d="M118.057 68.124c1.93-1.995 4.789-2.527 7.25-3.17a182.456 182.456 0 018.772-2.052 189.582 189.582 0 018.719-1.605c2.698-.434 5.399-.756 8.095-1.21a31.364 31.364 0 008.624-2.585c.799-.407.439-1.753-.381-1.35-5.157 2.497-10.827 2.764-16.254 3.637a187.668 187.668 0 00-17.704 3.736c-2.827.732-5.884 1.376-8.1 3.67-.651.676.335 1.59.984.918l-.005.01zm-3.405 9.978c13.309-4.427 27.044-6.63 40.616-9.24l12.195-2.344c.866-.17.835-1.603-.041-1.438l-21.676 4.164c-6.781 1.308-13.565 2.608-20.293 4.29-3.752.938-7.489 1.988-11.183 3.218-.857.286-.47 1.639.382 1.35zm8.864 16.033c6.889-1.162 13.8-1.828 20.7-2.71 6.899-.882 13.705-1.901 20.383-3.988 3.324-1.038 6.64-2.566 9.092-5.36a.806.806 0 00.175-.523.678.678 0 00-.209-.477.615.615 0 00-.476-.162.727.727 0 00-.474.243c-2.145 2.454-5.051 3.803-7.958 4.758a78.784 78.784 0 01-9.769 2.4c-6.705 1.286-13.445 1.99-20.178 2.802-3.8.443-7.557.945-11.329 1.585-.872.147-.826 1.561.043 1.432zm4.867 7.988c6.585 1.031 13.367.144 20.036-1.094 3.419-.637 6.839-1.325 10.258-1.988 3.304-.647 6.658-1.394 9.801-2.922 3.272-1.621 6.256-4.081 8.021-7.49a.778.778 0 00.055-.553.638.638 0 00-.328-.402.64.64 0 00-.52-.017.772.772 0 00-.406.38c-3.273 6.335-10.377 8.343-16.402 9.532-6.409 1.254-12.86 2.725-19.314 3.334a43.406 43.406 0 01-10.906-.196.688.688 0 00-.504.14.804.804 0 00-.296.466.732.732 0 00.078.528.616.616 0 00.409.293l.018-.011z" fill="#004E63"/><path d="M177.143 87.496c-.115-7.533-4.122-14.172-7.857-20.032a150.855 150.855 0 00-14.051-18.272c-2.845-3.235-5.782-6.405-8.698-9.544-.593-.634-1.534.484-.945 1.115 5.138 5.523 10.262 11.085 14.977 17.028 4.541 5.727 8.836 11.832 12.12 18.52 1.713 3.472 3.026 7.257 3.089 11.339.006.19.083.365.214.485a.617.617 0 00.489.157.735.735 0 00.477-.265c.124-.15.19-.34.185-.53z" fill="#004E63"/><path d="M147.642 40.948c-3.987-4.976-7.239-10.584-9.66-16.655-1.149-2.898-2.361-5.997-2.735-9.195a13.144 13.144 0 01.395-4.971c.238-.86.516-1.712.832-2.55.266-.729.457-1.803 1.252-2.047a20.249 20.249 0 013.11-.435l2.957-.405 6.179-.85c.879-.124.836-1.556-.04-1.437-3.944.541-7.884 1.038-11.822 1.629a2.796 2.796 0 00-1.848.828c-.583.67-.836 1.688-1.129 2.508a20.305 20.305 0 00-1.304 5.265c-.281 3.51.911 6.902 2.036 10.03 2.506 7.021 6.094 13.482 10.628 19.136.538.673 1.709-.16 1.168-.841l-.019-.01zm29.141 47.637a68.036 68.036 0 004.925-13.16c.238-.913-1.091-1.135-1.333-.224a65.733 65.733 0 01-4.791 12.793.768.768 0 00-.055.553.636.636 0 00.328.402.639.639 0 00.519.016.777.777 0 00.407-.38z" fill="#004E63"/><path d="M182.196 74.826c-.482-4.886-2.622-9.172-5.338-12.908-3.043-4.173-6.69-7.812-10.179-11.542-3.945-4.218-8.006-8.35-11.78-12.746-3.405-3.971-6.578-8.412-8.178-13.62-1.649-5.35-1.718-11.528 1.063-16.845a.778.778 0 00.055-.553.637.637 0 00-.328-.402.641.641 0 00-.52-.016.775.775 0 00-.406.38c-2.456 4.695-2.843 10.012-1.916 14.94 1.008 5.355 3.639 10.034 6.781 14.152 3.429 4.489 7.412 8.476 11.244 12.573 3.833 4.097 7.707 7.965 11.24 12.256 3.356 4.072 6.34 8.833 6.907 14.49.087.909 1.454.763 1.36-.157l-.005-.002z" fill="#004E63"/><path d="M144.606 13.875l25.82 9.624 7.36 2.746c.802.297 1.464-1.017.653-1.32l-25.82-9.624-7.362-2.74c-.8-.303-1.457 1.014-.653 1.319l.002-.005zm.347 11.068A897.887 897.887 0 00175.569 36.5c.802.284 1.464-1.03.652-1.32a899.224 899.224 0 01-30.615-11.557c-.792-.318-1.454.996-.653 1.319zM156.327 39.7l27.207 9.79c.799.29 1.464-1.03.652-1.318l-27.206-9.79c-.807-.287-1.469 1.027-.653 1.319z" fill="#E5E5E5"/><path d="M172.75 56.773c2.512-.3 4.97-1.199 7.186-2.631a17.546 17.546 0 003.006-2.456c1.011-1.017 1.897-2.169 1.98-3.65.052-.926-1.315-.768-1.368.158-.06 1.159-1.143 2.154-1.923 2.898a16.492 16.492 0 01-2.698 2.063c-1.933 1.184-4.055 1.93-6.218 2.182a.695.695 0 00-.26.084.787.787 0 00-.402.712.718.718 0 00.059.27.616.616 0 00.643.373l-.005-.003zm3.308 4.567c3.174-.051 6.329-1.16 9.017-3.172.742-.56.035-1.735-.707-1.176-2.49 1.864-5.416 2.882-8.355 2.907a.737.737 0 00-.477.267.802.802 0 00-.184.533c.006.19.084.366.216.486s.309.175.49.154z" fill="#004E63"/><path d="M184.751 57.858c1.723-9.39-3.503-17.254-8.555-23.83-.526-.687-1.696.147-1.169.84 4.805 6.258 10.037 13.796 8.396 22.767-.169.921 1.161 1.151 1.328.223z" fill="#004E63"/><path d="M185.863 57.336a89.662 89.662 0 016.421-11.962c.509-.8-.695-1.38-1.199-.592a89.662 89.662 0 00-6.421 11.962c-.38.863.817 1.46 1.199.592z" fill="#004E63"/><path d="M192.038 45.22c-1.595-8.993-6.298-16.801-13.221-21.952-.69-.51-1.64.602-.95 1.113 6.743 4.999 11.321 12.596 12.863 21.348.15.902 1.464.382 1.308-.51z" fill="#004E63"/><path d="M173.928 34.208a52.023 52.023 0 005.407-9.056.768.768 0 00.055-.553.637.637 0 00-.328-.402.639.639 0 00-.519-.017.777.777 0 00-.407.38 50.12 50.12 0 01-5.191 8.73c-.564.752.417 1.676.983.918z" fill="#004E63"/><path d="M131.236 74.497a292.545 292.545 0 0026.746 10.574 272.56 272.56 0 007.717 2.495c.822.255 1.125-1.178.312-1.428a294.014 294.014 0 01-26.746-9.766 275.532 275.532 0 01-7.356-3.224c-.772-.38-1.438.965-.653 1.32l-.02.029zm-15.226 5.359l29.581 11.973 8.384 3.39c.796.32 1.454-.997.653-1.32l-29.581-11.973-8.384-3.39c-.796-.32-1.453.997-.653 1.32zm13.776 16.356l-10.187-4.58c-.785-.356-1.438.963-.653 1.318l10.187 4.581c.785.355 1.443-.962.653-1.319zm45.039-17.527a327.588 327.588 0 00-22.749-8.135c-.82-.26-1.128 1.17-.313 1.427a345.892 345.892 0 0122.41 8.027c.798.316 1.456-1.001.652-1.319z" fill="#E5E5E5"/><path d="M14.387 279.265c-.12.16-.192.353-.202.55a.879.879 0 00.146.541.766.766 0 00.432.313.819.819 0 00.544-.043c1.027-.4.544-1.642-.15-1.965-.264-.13-.292-.072-.446-.305a5.295 5.295 0 01-.323-.685 26.066 26.066 0 01-.653-1.635 27.985 27.985 0 01-.946-3.224c-.951-4.495-1.072-9.205-.356-13.883.38-2.645.935-5.274 1.66-7.865.252-.906-1.076-1.129-1.328-.222-2.172 7.849-3.083 16.347-.907 23.959a26.815 26.815 0 001.109 3.173c.185.499.406.979.662 1.436.11.18.26.325.442.422.101.066.21.12.326.161.263.07 1.245.667 1.064-.414l-.165.719.036-.074c.568-.75-.41-1.679-.98-.923l.035-.036zm7.921-6.745a63.075 63.075 0 01-3.94-12.828 43.412 43.412 0 01-.897-6.711c-.069-2.273.18-4.717 1.563-6.68.535-.767-.444-1.696-.988-.921-2.936 4.184-1.955 9.617-1.128 14.096a64.471 64.471 0 004.235 13.906c.348.828 1.515-.034 1.169-.842l-.014-.02z" fill="#004E63"/><path d="M16.493 280.121a16.74 16.74 0 005.01-7.531.768.768 0 00.009-.282.692.692 0 00-.095-.256.608.608 0 00-.426-.286.703.703 0 00-.511.138.821.821 0 00-.308.469 14.775 14.775 0 01-4.386 6.572.828.828 0 00-.301.471.758.758 0 00.07.538.626.626 0 00.422.288.69.69 0 00.516-.121zm2.484-33.487c4.06-4.646 8.669-9.547 14.65-10.77.867-.183.831-1.618-.04-1.437-6.377 1.31-11.253 6.315-15.591 11.283a.804.804 0 00-.193.529.68.68 0 00.208.489c.13.123.305.182.486.164a.734.734 0 00.48-.258z" fill="#004E63"/><path d="M18.522 248.3c9.337-2.519 18.825-3.999 28.303-4.412a126.47 126.47 0 018.05-.097c.875.018.83-1.423-.04-1.438-9.544-.18-19.157.72-28.677 2.685-2.688.56-5.367 1.207-8.038 1.941-.86.232-.472 1.579.386 1.353l.016-.032zm-.647 13.04c9.775.164 19.614-.653 29.386-2.441a150.36 150.36 0 008.35-1.787c.87-.227.817-1.652-.04-1.438a151.446 151.446 0 01-29.34 4.118c-2.8.114-5.601.146-8.4.094-.87-.015-.822 1.42.043 1.433l.001.021zm2.457 7.396c9.065.876 18.32.159 27.396-2.123a85.446 85.446 0 007.631-2.312c.854-.302.464-1.649-.382-1.351-8.69 3.076-17.686 4.669-26.638 4.715-2.59.035-5.149-.112-7.695-.357-.86-.083-1.177 1.342-.312 1.428zm-9.933-.839c-3.23.094-6.466.711-9.594 1.83l.387 1.353c2.21-.787 3.468-3.054 4.693-5.01l1.162-1.842c.148-.288.325-.56.527-.811.23-.247.486-.199.78-.179 1.392.083 2.783.179 4.171.267.864.052 1.191-1.382.313-1.428-1.427-.094-2.879-.213-4.278-.28a2.268 2.268 0 00-1.64.372 6.622 6.622 0 00-1.257 1.757c-.74 1.183-1.446 2.404-2.256 3.534a5.701 5.701 0 01-2.602 2.267c-.856.306-.466 1.654.387 1.353a29.87 29.87 0 019.237-1.724c.883-.024.835-1.459-.04-1.438l.01-.021z" fill="#004E63"/><path d="M49.927 259.119a13.667 13.667 0 01-4.759-2.152c-1.484-.969-2.942-1.99-4.402-3.006-2.95-2.047-5.853-4.162-8.596-6.494-.662-.556-1.612.557-.95 1.113 2.868 2.439 5.91 4.637 8.99 6.768 2.903 2.009 5.857 4.505 9.41 5.201.087.014.177.01.266-.013a.733.733 0 00.249-.12.788.788 0 00.304-.474.763.763 0 00.008-.282.687.687 0 00-.094-.255.62.62 0 00-.426-.286zm-12.695 4.152a204.712 204.712 0 01-16.574-13.838.62.62 0 00-.481-.146.732.732 0 00-.468.259.803.803 0 00-.19.518c0 .187.07.361.194.485a202.154 202.154 0 0016.569 13.835c.69.511 1.638-.596.95-1.113z" fill="#E5E5E5"/></svg>