<svg width="439" height="390" fill="none" xmlns="http://www.w3.org/2000/svg"><path d="M211.2 157.368c-38.814 1.634-55.083-7.642-78.822-9.734-44.727-4.003-110.738 17.749-127.475 64.225-17.31 48.07 25.507 101.939 54.452 125.535 33.264 27.092 70.339 32.27 104.128 36.98 27.646 3.821 52.809 7.375 79.805-3.888 30.694-12.811 27.36-29.557 61.302-58.388 55.512-47.163 103.678-35.738 126.51-81.745 4.174-8.406 9.916-19.975 6.811-33.091-8.34-35.241-74.351-55.293-123.587-51.586-10.288.783-13.661 2.13-54.5 6.811-25.793 2.98-38.708 4.461-48.624 4.881z" fill="#008BAA"/><path d="M354.178 227.24l-11.626 21.8-42.721 56.153-20.93-10.423 29.289-70.577 2.522-2.684 14.521-10.356 28.945 16.087z" fill="#5AC0E8"/><path d="M179.013 64.715l38.919-6.057 13.832 12.973-7.776 80.427 25.077-.86-1.729-75.975 35.346-8.301 16.631 14.96-10.508 73.634-24.217 19.029c-10.766-14.788-40.896-5.55-70.911 1.73" fill="#234558"/><path d="M299.782 197.817l6.917-16.039 12.189-14.253 43.944 21.16-6.62 19.822-7.136 14.97-22.928-12.935s-15.198 11.091-15.342 11.464l4.777-16.69-15.801-7.499z" fill="#00667E"/><path d="M290.658 194.77c.268.267 26.223 10.508 26.223 10.508l-7.165 17.109-22.984 54.538-15.122-8.321 10.728-61.502 8.32-12.332zm79.481-25.67l-14.387 13.231-36.416-16.182-5.779 5.502-2.427-28.067 41.298-76.92 24.312-.889 42.253 26.1-15.237 21.627 10.097 2.188-34.056 55.665-9.658-2.255z" fill="#0097B9"/><path d="M237.009 92.868c1.452-.172 25.258-1.595 25.258-1.595l16.775 10.202-.908 6.429 11.779-2.006 19.316 23.625-15.189 68.571-4.853-.248-7.27 10.737-3.143 20.358-17.195 1.987s-11.158-25.879-11.798-25.43c-.64.449 3.497-30.732 3.745-30.99.248-.258-8.598 3.458-8.598 3.458s-14.11-11.712-14.272-12.027c-.162-.315 6.353-73.07 6.353-73.07z" fill="#00667E"/><path d="M82.174 182.35c.602-.086 47.822 1.109 47.822 1.109l27.809 71.16-16.24 24.99-44.383-.229-37.142-65.266 22.134-31.764z" fill="#0097B9"/><path d="M73.48 73.82l49.265-21.505 26.042-4.776 36.406 93.371-25.038-6.554-19.555 20.453s8.731 45.396 8.731 45.692c0 .296-7.871 9.056-7.871 9.056l-10.222-26.748-12.944-.573L73.481 73.819z" fill="#0097B9"/><path d="M23.92 132.675c.4-.688 57.929-31.802 57.929-31.802l36.435 81.43-35.27-1.701-24.436 34.391 8.187 13.069-11.053-.316-13.374-29.098 2.436-9.133-20.854-56.84z" fill="#5AC0E8"/><path d="M24.188 131.816l71.867-38.67 14.931 16.163-86.798 22.507z" fill="#C9F7FF"/><path d="M160.423 134.557l38.641 14.329-28.792 24.122-31.105-15.438 21.256-23.013z" fill="#1CAFD4"/><path d="M18.58 104.905c.784-.258 12.983-5.197 12.983-5.197l6.228 12.983-14.797 6.228-4.414-14.014zm34.009-13.241c.258.774 6.238 13.757 6.238 13.757l9.6-4.414-5.196-12.199-10.642 2.856zm15.323-4.939c.515.783 4.929 12.982 4.929 12.982l11.683-5.97-6.228-10.642-10.384 3.63zm16.097-6.228c0 .784 3.888 12.467 3.888 12.467l10.642-4.156-5.97-12.199-8.56 3.888z" fill="#E37958"/><path d="M55.808 48.112l5.712 12.725 30.37-11.168-5.971-17.654-30.111 16.097zm48.023-7.012c0 .783-5.97-15.055-5.97-15.055l11.682-4.414 7.308 16.097-13.02 3.372z" fill="#fff"/><path d="M110.241 212.92c-.831.42 32.738 67.989 32.738 67.989l-46.58-2.522s-34.39-65.047-35.26-64.206c-.87.841 49.102-1.261 49.102-1.261z" fill="#1CAFD4"/><path d="M169.421 172.645l31.477-24.341 8.397 114.158-30.216 15.944-9.658-105.761z" fill="#00667E"/><path d="M278.955 131.94l-18.465 98.205 18.045-1.682 4.203-22.239 10.069-10.489 17.625-68.409-31.477 4.614z" fill="#1CAFD4"/><path d="M206.84 173.314a44.808 44.808 0 002.14 18.934c4.834 13.813 14.463 17.434 26.796 30.359 2.331 2.445 17.196 18.37 25.01 41.441a103.253 103.253 0 014.996 40.371c-.678 9.132-4.604 45.061-33.578 68.943-9.916 8.168-23.329 19.221-40.371 16.078-21.437-3.964-30.923-26.93-31.43-28.229-2.741-6.974-6.601-16.823-2.149-24.647 6.792-11.903 25.086-5.426 55.016-20.72 9.935-5.073 13.775-8.779 16.431-12.505 8.741-12.256 6.457-27.312 5.731-32.146-1.996-13.125-8.301-22.229-20.367-39.654a249.663 249.663 0 00-10.718-14.33l-2.474-42.826 4.967-1.069z" fill="#234558"/><path d="M231.354 131.605c-8.942 8.798-18.151 17.94-23.004 29.757a38.787 38.787 0 00-3.047 18.056 34.624 34.624 0 005.875 15.896 90.348 90.348 0 0011.282 13.231c4.069 4.127 8.12 8.244 11.912 12.629a140.511 140.511 0 0119.947 29.499 101.452 101.452 0 0110.604 38.289c0 .764 1.242.773 1.194 0-1.519-23.243-11.875-44.775-26.156-62.859-3.554-4.499-7.356-8.808-11.321-12.944-3.964-4.137-8.244-8.178-12.017-12.591-3.774-4.414-7.184-9.429-8.942-15.065a33.048 33.048 0 01-.067-18.38c3.774-14.129 14.435-24.723 24.542-34.677.554-.535-.296-1.386-.841-.841h.039zm45.204.459c-2.77 13.001-5.474 26.022-7.938 39.081-2.064 10.919-3.965 21.867-5.847 32.805-1.395 8.113-2.789 16.221-4.184 24.322-.134.754 1.013 1.079 1.146.325 2.274-13.107 4.49-26.214 6.792-39.311a1284.82 1284.82 0 016.162-32.748 2099.161 2099.161 0 015.015-24.159c.163-.745-.955-1.07-1.146-.315zm32.012-3.392c-3.468 9.849-6.038 20.014-8.531 30.14-2.36 9.61-4.547 19.259-6.687 28.926-.564 2.618-1.108 5.235-1.681 7.853-.172.745.955 1.07 1.146.315 1.404-6.343 2.732-12.696 4.165-19.03 2.417-10.728 4.968-21.436 7.872-32.04 1.452-5.321 2.999-10.633 4.824-15.849.258-.726-.888-1.031-1.146-.315h.038z" fill="#234558"/><path d="M277.733 133.038c10.814-1.223 21.551-2.971 32.27-4.776.755-.134.439-1.28-.315-1.156-10.623 1.805-21.246 3.554-31.955 4.776-.755.086-.764 1.28 0 1.194v-.038zm-12.285-24.646c3.19 8.158 6.486 16.24 10.26 24.169.334.697 1.366.086 1.031-.602-3.735-7.814-6.993-15.82-10.145-23.883-.277-.706-1.433-.391-1.146.325v-.009zm-1.68-1.864c-4.213 25.172-8.598 50.306-12.887 75.469a2685.688 2685.688 0 00-3.726 22.057c-.124.755 1.022 1.08 1.146.325 4.213-25.172 8.598-50.306 12.887-75.468a2645.683 2645.683 0 003.726-22.068c.124-.745-1.022-1.07-1.146-.315z" fill="#234558"/><path d="M264.836 107.388c8.483-.697 16.995-1.175 25.459-2.168.754-.096.764-1.29 0-1.195-8.464.956-16.976 1.472-25.459 2.169-.764.057-.764 1.251 0 1.194z" fill="#234558"/><path d="M290.572 104.637c5.99 7.958 12.419 15.61 18.782 23.242.487.593 1.327-.258.84-.85-6.333-7.556-12.657-15.122-18.59-23.003-.449-.602-1.49 0-1.032.611zm65.82-20.777a3662.07 3662.07 0 00-31.821 65.447 3847.78 3847.78 0 00-8.875 18.81c-.325.688.707 1.289 1.032.602a3843.512 3843.512 0 0131.477-65.62c3.057-6.216 6.13-12.428 9.218-18.638.344-.688-.687-1.29-1.031-.602zm32.309 28.697a1964.471 1964.471 0 00-30.34 54.805 1850.075 1850.075 0 00-8.283 15.724c-.306.573.459 1.252.955.726l.956-1.022c.516-.573-.325-1.423-.841-.85l-.955 1.022.955.726a1927.88 1927.88 0 0129.844-55.082 1701.28 1701.28 0 018.779-15.447.607.607 0 00-.25-.757.6.6 0 00-.782.155h-.038z" fill="#234558"/><path d="M412.602 92.495a155.424 155.424 0 01-24.503 21.456c-.621.439 0 1.481.601 1.032a157.437 157.437 0 0024.752-21.647c.516-.564-.325-1.414-.85-.841z" fill="#234558"/><path d="M357.996 89.553a309.59 309.59 0 0135.958 25.44c.592.487 1.442-.354.84-.841a312.037 312.037 0 00-36.196-25.63.6.6 0 00-.602 1.031zm-7.784-21.064l-.115.066h.612a1.244 1.244 0 00-.239 1.29c0 .296.067.592.105.889.038.296.105.84.162 1.26.153 1.109.316 2.207.507 3.306a88.3 88.3 0 001.27 6.104 93.52 93.52 0 003.917 12.305c.277.706 1.433.4 1.156-.316a93.321 93.321 0 01-4.958-17.1 97.61 97.61 0 01-.707-4.394c-.143-.955 0-2.618-.621-3.468a.868.868 0 00-1.59.11.873.873 0 00.386 1.045.583.583 0 00.612.001l.105-.067c.649-.41 0-1.442-.602-1.031zm-2.714 5.101c-9.82 18.47-19.644 36.919-29.471 55.35l-8.206 15.514c-.363.678.669 1.29 1.032.602a49989.784 49989.784 0 0129.471-55.34l8.254-15.514c.363-.679-.669-1.29-1.032-.612h-.048z" fill="#234558"/><path d="M310.776 143.46c-1.91 10.27-.277 20.921.573 31.229.067.764 1.261.764 1.195 0-.841-10.174-2.503-20.768-.621-30.914.143-.745-1.003-1.07-1.147-.315zm42.034-74.704a98.61 98.61 0 0121.58-1.91.601.601 0 000-1.195 100.31 100.31 0 00-21.895 1.91c-.755.154-.43 1.31.315 1.157v.038zm23.157-.773l40.428 26.48c.649.42 1.251-.611.602-1.031L376.568 66.95c-.64-.42-1.241.611-.601 1.032zm21.111 47.058c5.27-.253 10.521.8 15.285 3.066l-.21-.821-27.016 42.893-7.738 12.275c-.42.65.621 1.252 1.022.602l27.026-42.883 7.738-12.276a.612.612 0 00-.211-.821 33.433 33.433 0 00-15.934-3.229c-.764 0-.774 1.232 0 1.194h.038zm-4.002.744a478.726 478.726 0 01-22.64 39.473 473.263 473.263 0 01-7.203 10.91c-.43.64.602 1.232 1.032.602a473.294 473.294 0 0023.729-38.824 416.121 416.121 0 006.104-11.559c.354-.678-.678-1.289-1.022-.602z" fill="#234558"/><path d="M305.045 118.154c1.509 9.162.755 18.457 1.022 27.704a101.78 101.78 0 004.003 25.64 102.871 102.871 0 005.13 13.756c.315.707 1.347.096 1.031-.601a100.482 100.482 0 01-7.642-25.058c-1.49-8.865-1.328-17.721-1.356-26.672a93.428 93.428 0 00-1.032-15.065c-.124-.754-1.271-.439-1.147.315l-.009-.019zm-214.339-3.706c8.4 22.144 16.803 44.291 25.21 66.441l7.107 18.724c.268.707 1.424.401 1.156-.316l-25.22-66.44-7.107-18.724c-.267-.717-1.423-.411-1.146.315zm-68.229 20.52l55.541-19.01 15.81-5.407c.717-.249.412-1.405-.315-1.156l-55.55 19.01-15.8 5.417c-.727.239-.412 1.394.314 1.146z" fill="#234558"/><path d="M23.94 133.898a827.09 827.09 0 0042.415-22.115.603.603 0 00-.602-1.032 842.72 842.72 0 01-42.415 22.125c-.688.334-.086 1.356.601 1.022zm-5.58-28.993h.077a.598.598 0 00.296-.516c0-1.261-1.958-.955-1.519.373.376.743.835 1.441 1.366 2.082.507.803.956 1.624 1.395 2.465a27.89 27.89 0 012.866 10.843c0 .764 1.242.773 1.194 0a29.01 29.01 0 00-4.566-14.168c-.172-.257-1.195-1.413-1.099-1.662l-.267.354.086-.058-.459.067-.191-.325.296-.515h-.076c-.688.363-.086 1.394.601 1.031v.029z" fill="#234558"/><path d="M18.818 105.927l6.038-2.713 3.009-1.357 1.51-.678c.353-.153 1.232-.745 1.614-.516.238.153.487 1.06.611 1.337l.697 1.5 1.386 3.009 2.866 6.181c.286.612 1.299.182 1.089-.458a2.01 2.01 0 00-.956-1.223c-.678-.373-1.28.659-.602 1.032a.694.694 0 01.44.506l1.089-.459-3.239-7.012-1.547-3.343c-.325-.697-.64-2.102-1.471-2.388-.831-.287-1.863.496-2.541.802l-3.516 1.586-7.079 3.238c-.697.316-.095 1.347.602 1.032v-.076z" fill="#234558"/><path d="M23.681 118.785a131.97 131.97 0 0114.244-6.248c.716-.267.41-1.423-.316-1.156a137.317 137.317 0 00-14.53 6.372c-.687.354-.076 1.385.602 1.032zm12.553-20.281a153.987 153.987 0 005.656 13.154c.334.688 1.366.086 1.032-.602a140.734 140.734 0 01-5.532-12.868c-.267-.716-1.423-.41-1.156.316z" fill="#234558"/><path d="M36.435 98.16a75.594 75.594 0 016.037-2.264 77.085 77.085 0 013.076-.955c1.042-.296 2.111-.583 2.98.057a6.088 6.088 0 011.443 2.245c.468.956.956 1.91 1.357 2.933a70.44 70.44 0 012.369 6.209c.239.727 1.395.411 1.146-.324a76.104 76.104 0 00-2.617-6.802 72.47 72.47 0 00-1.605-3.372 4.633 4.633 0 00-1.748-2.092c-1.825-.956-4.3.153-6.076.716a81.186 81.186 0 00-6.964 2.599c-.707.305-.096 1.337.602 1.031v.02zm5.1 13.966a57.379 57.379 0 0010.356-4.289c.678-.363.076-1.395-.602-1.032a55.69 55.69 0 01-10.03 4.137.6.6 0 00-.11 1.08c.13.08.285.107.434.076l-.047.028zm9.917-20.042a117.28 117.28 0 015.961 13.107c.277.716 1.423.401 1.156-.316a120.696 120.696 0 00-6.085-13.374c-.363-.678-1.395-.076-1.032.602v-.019z" fill="#234558"/><path d="M52.617 91.387c2.178-.697 4.366-1.356 6.563-1.91a18.585 18.585 0 013.267-.822c1.108-.076 1.796 1.261 2.216 2.13a41.005 41.005 0 011.7 5.35 26.31 26.31 0 002.599 5.589.604.604 0 001.05-.177.6.6 0 00-.018-.425 25.255 25.255 0 01-2.809-6.41c-.554-1.91-.955-4.003-2.169-5.675a3.43 3.43 0 00-1.91-1.547c-1.09-.249-2.417.344-3.458.611-2.471.637-4.926 1.36-7.366 2.169-.726.238-.41 1.385.316 1.156l.019-.039zm5.665 15.6l5.187-2.866c.812-.449 1.615-.955 2.446-1.347.34-.218.732-.343 1.137-.363.267 0 .678.153.716.468.076.765 1.27.765 1.194 0a1.834 1.834 0 00-1.69-1.643 5.283 5.283 0 00-2.981 1.061l-6.61 3.63c-.68.372-.077 1.404.601 1.031v.029zm9.591-19.21c0-.096-.086-.182-.124-.278l-1.032.602 6.449 14.244c.325.697 1.347.086 1.031-.602L67.75 87.49c-.315-.697-1.347-.086-1.032.602 0 .095.086.181.125.277.315.697 1.347.095 1.031-.602v.01z" fill="#234558"/><path d="M67.835 86.945a44.884 44.884 0 018.608-3.792c.955-.316 2.187-.908 2.913.152a34.237 34.237 0 012.694 5.474 72.818 72.818 0 012.37 6.21c.238.726 1.394.42 1.155-.316a77.75 77.75 0 00-2.617-6.792 78.549 78.549 0 00-1.672-3.506 6.859 6.859 0 00-1.595-2.464 2.722 2.722 0 00-2.513-.23 42.25 42.25 0 00-3.42 1.147 45.771 45.771 0 00-6.524 3.095.593.593 0 10.601 1.022z" fill="#234558"/><path d="M72.372 101.064a137.363 137.363 0 0112.543-6.687c.698-.335.086-1.357-.601-1.032a137.436 137.436 0 00-12.543 6.687.603.603 0 00.601 1.032zm9.544-20.93a6565.77 6565.77 0 016.152 14.023c.306.698 1.337.096 1.032-.601-2.051-4.681-4.102-9.356-6.152-14.024-.306-.707-1.338-.096-1.032.602z" fill="#234558"/><path d="M82.461 80.783a14.518 14.518 0 014.862-2.57c.856-.27 1.736-.455 2.628-.553a7.755 7.755 0 011.413-.067c.621.057.87.468 1.09.955 1.595 3.821 3.066 7.747 4.604 11.616.277.707 1.433.402 1.156-.315L95.472 83l-1.395-3.543a5.979 5.979 0 00-1.347-2.551 3.582 3.582 0 00-2.627-.401c-1.003.091-1.994.28-2.961.563a16.363 16.363 0 00-5.512 2.866c-.592.487.258 1.328.85.85h-.019z" fill="#234558"/><path d="M86.96 94.033a22.325 22.325 0 0110.509-3.582c.764-.057.773-1.251 0-1.194a23.634 23.634 0 00-11.13 3.745c-.64.42-.047 1.452.602 1.031h.02zm13.03-18.676a3702.9 3702.9 0 0117.635 50.631 3888.847 3888.847 0 0116.918 50.87 3032.28 3032.28 0 019.229 28.792c.229.726 1.385.411 1.146-.325a3686.515 3686.515 0 00-16.508-51.003 4238.112 4238.112 0 00-17.195-50.764 3592.708 3592.708 0 00-10.04-28.516c-.249-.716-1.404-.41-1.147.315h-.038zm1.147 21.973a649.666 649.666 0 0128.133 77.655 627.58 627.58 0 016.105 22.383.602.602 0 001.155-.315 651.552 651.552 0 00-25.516-78.965 649.511 649.511 0 00-8.884-21.36c-.306-.708-1.337-.096-1.032.601h.039zm21.752-45.388c4.356 12.1 8.741 24.201 13.155 36.302 3.318 9.043 6.63 18.096 9.935 27.159 2.847 7.84 5.678 15.692 8.492 23.557.258.717 1.414.402 1.156-.324a9273.215 9273.215 0 00-13.154-36.302c-3.312-9.056-6.623-18.109-9.935-27.159a6943.756 6943.756 0 01-8.493-23.557c-.258-.717-1.414-.411-1.156.315v.01z" fill="#234558"/><path d="M97.88 148.208l41.775-27.197 11.931-7.776c.641-.42 0-1.452-.601-1.032l-41.776 27.207-11.931 7.767c-.64.42 0 1.452.602 1.031zm17.883-23.28a209.741 209.741 0 0026.748-18.925c.592-.497-.258-1.337-.841-.85a207.063 207.063 0 01-26.538 18.743.603.603 0 00.602 1.032h.029zM67.176 79.313a427.545 427.545 0 0144.622-20.482c4.35-1.7 8.728-3.324 13.135-4.872.717-.258.411-1.414-.325-1.156A429.133 429.133 0 0079.06 71.91a433.92 433.92 0 00-12.486 6.372c-.678.354-.076 1.385.602 1.032z" fill="#234558"/><path d="M46.16 25.844A615.75 615.75 0 0166.9 80.573c.238.736 1.394.42 1.155-.315a624.86 624.86 0 00-20.863-55.016c-.306-.707-1.338-.095-1.032.602zm3.458 2.846a607.467 607.467 0 0052.455-26.03c.678-.373.077-1.404-.602-1.032A606.39 606.39 0 0149.026 27.66c-.707.306-.096 1.338.601 1.032h-.01z" fill="#234558"/><path d="M101.051 2.927l18.791 45.74c.287.706 1.443.39 1.146-.316L102.207 2.61c-.286-.697-1.442-.391-1.156.316zm3.448.306a633.226 633.226 0 0019.727 50.707c.315.697 1.337.095 1.032-.602a644.492 644.492 0 01-19.613-50.42c-.238-.727-1.394-.42-1.146.315zm43.877 52.387c8.426 21.867 17.129 43.629 25.669 65.448 2.547 6.515 5.095 13.036 7.642 19.564.277.707 1.433.402 1.156-.315-8.435-21.867-17.128-43.628-25.678-65.447a33681.68 33681.68 0 01-7.643-19.565c-.267-.707-1.423-.401-1.146.315zm-9.639 156.345l12.83-13.632 1.787-1.911c.525-.554-.316-1.404-.851-.84l-12.82 13.661-1.786 1.91c-.526.564.315 1.404.84.841v-.029zm-96.284-13.842l-4.27-.373v1.194l27.704-2.054 3.926-.286c.755-.058.764-1.252 0-1.194l-27.704 2.044-3.926.296a.604.604 0 00-.526.597.601.601 0 00.526.597l4.27.373c.765.067.755-1.127 0-1.194zm.009-6.286a577.827 577.827 0 0155.054-8.263 608.18 608.18 0 0115.609-1.347c.755-.058.765-1.252 0-1.194a577.972 577.972 0 00-55.359 6.744 556.087 556.087 0 00-15.629 2.914c-.754.153-.43 1.299.325 1.146z" fill="#234558"/><path d="M43.188 190.881l-4.089 7.051a.6.6 0 00.25.756.604.604 0 00.782-.155l4.08-7.05a.592.592 0 00-.66-.875.597.597 0 00-.363.273zm-1.136 9.706a26269.03 26269.03 0 0012.514 27.112c.325.697 1.357.095 1.032-.602-4.178-9.037-8.35-18.074-12.514-27.111-.325-.698-1.357-.096-1.032.601zm8.817-75.755a400.381 400.381 0 0012.944 30.216c.325.698 1.357.086 1.022-.602a398.344 398.344 0 01-12.82-29.929c-.267-.717-1.423-.411-1.146.315z" fill="#234558"/><path d="M60.04 153.176a469.746 469.746 0 0137.362-12.973c.736-.22.42-1.376-.315-1.147a490.113 490.113 0 00-37.362 12.973c-.707.277-.401 1.433.315 1.147zm7.327.382a655.874 655.874 0 0011.779 26.815c.324.697 1.356.095 1.031-.602a642.189 642.189 0 01-11.654-26.529c-.287-.697-1.443-.391-1.156.316z" fill="#234558"/><path d="M68.389 155.602a40.382 40.382 0 0117.979-6.19l-.574-.44a6346.07 6346.07 0 016.01 14.435l2.865 6.993 1.548 3.725c.152.462.35.907.592 1.328.061.121.15.225.258.306.468.258-.2 0 .544-.096l.583.153-.277.678.105-.066c.65-.402.057-1.433-.602-1.032l-.105.067a.597.597 0 00-.267.668c.334 1.376 2.206.354 1.165-.955a18.029 18.029 0 01-2.025-4.184c-.64-1.538-1.27-3.067-1.91-4.595l-7.366-17.721a.621.621 0 00-.583-.43 41.824 41.824 0 00-18.58 6.353c-.64.411 0 1.443.602 1.032l.038-.029zm11.971 25.363a35.206 35.206 0 0019.497-2.751c-.698.306-.096 1.337.602 1.032 1.136-.507.43-2.054-.621-2.102a7.728 7.728 0 00-2.694.955c-1.051.392-2.13.726-3.22 1.013a33.436 33.436 0 01-13.24.736c-.755-.115-1.08 1.041-.325 1.146v-.029zm-46.62-38.736a109.944 109.944 0 009.554 32.747c.325.698 1.356.086 1.032-.602a108.08 108.08 0 01-9.439-32.145c-.095-.755-1.29-.765-1.194 0h.048z" fill="#234558"/><path d="M34.352 145.552a8.19 8.19 0 012.722-4.213c.611-.601 1.28-1.375 2.207-1.404a6.753 6.753 0 012.589.726c2.608 1.022 5.732 2.56 6.247 5.608.125.754 1.28.439 1.147-.316-.63-3.63-4.366-5.416-7.461-6.591a5.807 5.807 0 00-2.933-.583 4.649 4.649 0 00-2.398 1.471c-1.433 1.395-2.866 2.943-3.276 4.977-.134.755 1.012 1.08 1.156.325zm1.385 7.566l16.737-4.595a.595.595 0 10-.315-1.146l-16.746 4.585a.602.602 0 00.325 1.156z" fill="#234558"/><path d="M49.455 144.961a445.971 445.971 0 0113.422 32.633c.258.716 1.414.411 1.146-.315a442.118 442.118 0 00-13.546-32.92c-.315-.697-1.347-.086-1.022.602z" fill="#234558"/><path d="M43.504 175.014l11.75-3.143c1.854-.497 3.707-1.07 5.58-1.481 1.29-.286 3.142-.515 3.916.832a.604.604 0 001.032-.602c-1.72-3-6.257-1.128-8.741-.459l-13.852 3.697a.6.6 0 00-.367.721.603.603 0 00.682.435z" fill="#234558"/><path d="M50.754 173.915a34.251 34.251 0 002.57 7.938.582.582 0 00.362.274.58.58 0 00.45-.063.603.603 0 00.22-.812 32.282 32.282 0 01-2.446-7.643c-.143-.755-1.3-.43-1.156.325v-.019z" fill="#234558"/><path d="M51.566 174.651c-.363 0-.21-.525-.076-.697.27-.261.597-.454.955-.564.879-.334 1.767-.64 2.656-.955l2.56-.955c.544-.191 2.102-1.061 2.58-.602.234.333.4.71.486 1.108l.478 1.299c.344.955.678 1.825 1.013 2.742l2.034 5.474.153-.583s.077 0 .096.048c-.268-.707-1.424-.401-1.147.325a1.147 1.147 0 001.911.477.552.552 0 00.153-.583 609.027 609.027 0 00-2.8-7.565l-.773-2.083a5.472 5.472 0 00-.573-1.328c-.621-.86-1.614-.707-2.493-.392-2.37.851-4.844 1.605-7.146 2.618a2.178 2.178 0 00-1.519 1.911 1.463 1.463 0 001.424 1.528.6.6 0 00.526-.597.601.601 0 00-.526-.597l.028-.029z" fill="#234558"/><path d="M53.277 184.185l12.237-3.688a.602.602 0 00-.315-1.156l-12.238 3.697c-.735.22-.42 1.376.316 1.147zm24.407-35.003l6.563 18.896c.249.726 1.404.411 1.156-.315l-6.592-18.848c-.248-.726-1.404-.411-1.155.315l.028-.048z" fill="#234558"/><path d="M71.8 166.331c-.067 3.41 5.54 1.49 7.097 1.089a352.37 352.37 0 0012.868-3.544.604.604 0 00.11-1.071.6.6 0 00-.425-.085 337.45 337.45 0 01-10.317 2.866l-5.101 1.289c-.66.163-3.057.688-3.038-.573a.603.603 0 00-1.194 0v.029zm-48.873-50.383a131.438 131.438 0 003.707 10.9c.334.841.668 1.681 1.022 2.522.254.818.597 1.606 1.022 2.35.726 1.022 2.12.115 1.337-.888a.594.594 0 00-.583-.163h-.095c-.755.153-.44 1.309.315 1.156h.096l-.583-.153-.115-.267.277-.354-.105.058.468-.067c-.238-.048-.659-1.414-.764-1.691a70.789 70.789 0 01-.802-1.958c-.507-1.271-.956-2.542-1.462-3.822a121.579 121.579 0 01-2.58-7.919.602.602 0 00-1.155.315v-.019zm2.827 2.025L32.9 129.37c.41.649 1.443.057 1.032-.602l-7.146-11.378c-.401-.649-1.442 0-1.032.602v-.019z" fill="#234558"/><path d="M28.964 129.924l.955-10.929c.067-.764-1.127-.764-1.194 0l-.955 10.929c-.067.764 1.127.764 1.194 0zm5.732-15.972c1.764 4.668 3.528 9.342 5.293 14.023.267.717 1.423.402 1.146-.315a7258.871 7258.871 0 00-5.283-14.024c-.267-.716-1.423-.41-1.156.316z" fill="#234558"/><path d="M39.644 109.92v15.523a.601.601 0 001.194 0V109.92a.601.601 0 00-1.194 0z" fill="#234558"/><path d="M35.985 112.251c3.01 3.411 6.2 6.66 9.553 9.734.564.516 1.414-.324.84-.84a130.795 130.795 0 01-9.552-9.735c-.507-.583-1.347.268-.84.841z" fill="#234558"/><path d="M42.587 110.961a102.712 102.712 0 005.302 13.231c.334.688 1.366.086 1.031-.602a100.144 100.144 0 01-5.177-12.944c-.24-.726-1.386-.421-1.156.315zm5.627-2.703a159.32 159.32 0 008.521 8.454c.564.516 1.414-.324.84-.84a162.023 162.023 0 01-8.52-8.464c-.526-.564-1.367.286-.841.85z" fill="#234558"/><path d="M51.977 105.459a55.936 55.936 0 004.958 12.419c.363.678 1.395.076 1.032-.602a54.596 54.596 0 01-4.834-12.085.602.602 0 00-1.156.316v-.048zm10.05-1.672a30.131 30.131 0 00-2.866 12.839.604.604 0 00.597.526.6.6 0 00.597-.526 28.653 28.653 0 012.704-12.237c.325-.698-.698-1.299-1.032-.602z" fill="#234558"/><path d="M61.52 103.166a25.404 25.404 0 002.866 10.9c.363.678 1.395.076 1.032-.602a24.093 24.093 0 01-2.751-10.298c0-.764-1.223-.764-1.194 0h.047zm5.111-.65a30.722 30.722 0 009.276 8.923c.66.411 1.261-.621.602-1.032a29.298 29.298 0 01-8.846-8.492c-.43-.64-1.462 0-1.032.601z" fill="#234558"/><path d="M73.433 99.106a59.074 59.074 0 001.911 14.043.601.601 0 001.156-.315 56.999 56.999 0 01-1.91-13.728.601.601 0 00-1.195 0h.038zM59.151 25.357a58152.19 58152.19 0 0113.633 37.725c.258.716 1.413.41 1.146-.316a37729.55 37729.55 0 00-13.623-37.724c-.267-.717-1.413-.411-1.156.315z" fill="#234558"/><path d="M58.416 44.902l48.548-22.64c.697-.325.096-1.357-.602-1.032L57.804 43.832c-.687.325-.086 1.357.612 1.032v.038z" fill="#234558"/><path d="M68.83 19.95a610.257 610.257 0 0112.074 33.836c.23.726 1.386.411 1.147-.315a604.922 604.922 0 00-12.066-33.837c-.277-.707-1.433-.4-1.156.316zm8.567-4.623a157.566 157.566 0 0110.719 29.461.602.602 0 001.156-.315 160.024 160.024 0 00-10.843-29.729c-.335-.688-1.357-.086-1.032.602v-.02zm11.999-5.264l13.546 32.69c.296.707 1.452.401 1.156-.315-4.522-10.903-9.037-21.8-13.546-32.69-.287-.707-1.443-.402-1.156.315z" fill="#234558"/><path d="M59.84 63.387a305.682 305.682 0 0042.988-18.657 301.885 301.885 0 0011.664-6.505.604.604 0 00.155-.782.603.603 0 00-.756-.25 303.91 303.91 0 01-42.034 20.491 371.273 371.273 0 01-12.323 4.557c-.716.248-.41 1.404.315 1.146h-.01zm2.043-37.706l3.821 12.343a.603.603 0 001.156 0c.162-.402.162-.85 0-1.252-.277-.707-1.433-.4-1.156.316a.707.707 0 010 .62h1.156l-3.82-12.351a.602.602 0 00-1.157.324z" fill="#234558"/><path d="M63.269 27.783c1.118-.955 2.226-1.91 3.363-2.866.363-.296.42-.43.754-.067.21.261.393.543.545.84.327.536.627 1.088.898 1.654a19.313 19.313 0 011.366 3.744 8.398 8.398 0 01.277 4.29l.726-.42a2.866 2.866 0 00-2.37.754 30.738 30.738 0 00-2.512 2.226c-.554.544.296 1.385.841.85a32.64 32.64 0 011.69-1.557c.584-.497 1.281-1.27 2.036-1.118a.621.621 0 00.735-.42 9.755 9.755 0 00-.305-5.044 20.858 20.858 0 00-1.854-4.69c-.525-.956-1.394-3.038-2.818-2.494a8.247 8.247 0 00-2.006 1.595l-2.207 1.911c-.582.497.258 1.337.841.84v-.028zm8.683-7.413a62.697 62.697 0 003.516 12.81.612.612 0 00.955.268 1.127 1.127 0 00.306-1.28c-.287-.697-1.443-.391-1.146.325v.105l.955.268a62.69 62.69 0 01-3.516-12.81c-.114-.756-1.27-.44-1.146.314h.076z" fill="#234558"/><path d="M73.328 21.86l2.045-1.69c.525-.43 1.318-1.309 1.91-.497.366.663.658 1.365.87 2.092.305.793.601 1.595.869 2.398a22.647 22.647 0 011.099 4.891c-.018.778.007 1.556.076 2.331a.889.889 0 001.089.793c.755-.162.44-1.309-.315-1.146h-.105l.458.057s.058-1.06.048-1.213c0-.44-.057-.88-.105-1.319a22.323 22.323 0 00-.459-2.512 41.238 41.238 0 00-1.72-5.187c-.448-1.099-.916-2.819-2.359-2.819a3.18 3.18 0 00-1.91.956l-2.331 1.91c-.593.497.258 1.338.84.85v.106z" fill="#234558"/><path d="M76.5 32.846a2.25 2.25 0 00-.316.956.602.602 0 00.363.544.64.64 0 00.66-.124 61.95 61.95 0 015.292-3.821.611.611 0 00.21-.822.593.593 0 00-.812-.21 76.983 76.983 0 00-5.541 4.06l1.022.42a.955.955 0 01.153-.391.603.603 0 00-1.032-.602v-.01zm5.645-17.491c1.332 4.54 2.726 9.06 4.185 13.555.239.727 1.385.42 1.146-.315a746.257 746.257 0 01-4.184-13.555.594.594 0 10-1.147.315z" fill="#234558"/><path d="M83.98 16.76c0-.153 1.49-.956 1.72-1.07l2.044-1.214 1.022-.61c.146-.079.284-.172.411-.278.067 0 .162.373.191.44.315.754.621 1.518.955 2.283a99.7 99.7 0 012.98 8.989.594.594 0 101.147-.315 97.617 97.617 0 00-3.936-11.378c-.267-.64-.601-1.395-1.442-1.213-.42.15-.815.358-1.175.62l-1.328.794-2.665 1.576c-.64.382-1.242.87-1.041 1.7.2.832 1.337.43 1.155-.324h-.038z" fill="#234558"/><path d="M87.696 29.819c1.194.277 2.13-.583 3-1.252l2.76-2.14a.602.602 0 000-.85.62.62 0 00-.84 0l-2.446 1.91c-.363.287-.726.593-1.118.85a1.413 1.413 0 01-1.041.354c-.745-.172-1.07.956-.315 1.147v-.02zm13.078-1.759a937.121 937.121 0 003.907 11.693c.239.726 1.395.41 1.147-.325l-3.898-11.683c-.248-.726-1.395-.41-1.156.315z" fill="#234558"/><path d="M101.749 29.503a11.02 11.02 0 005.731-4.098h-1.031c2.092 3.496 3.821 7.384 3.821 11.54a.6.6 0 00.597.526.603.603 0 00.597-.526c0-4.356-1.758-8.464-3.955-12.142a.6.6 0 00-1.032 0 9.684 9.684 0 01-5.005 3.544c-.726.23-.421 1.385.324 1.156h-.047zm-24.667 7.843a139.508 139.508 0 014.7 12.17c.2.593 1.26.545 1.175-.162l-.048-.44c-.086-.754-1.28-.764-1.194 0l.048.44 1.175-.153a137.293 137.293 0 00-4.825-12.419c-.315-.707-1.337-.095-1.031.602v-.038z" fill="#234558"/><path d="M78.773 38.55a6.946 6.946 0 012.99-2.942c.172-.105.458-.162.19-.334.106.066.173.42.22.535.153.41.316.821.46 1.242a55.4 55.4 0 01.85 2.512c.528 1.681.98 3.388 1.356 5.12.172.803.277 1.634.468 2.436a1.26 1.26 0 001.108 1.09c.764.095.755-1.1 0-1.195.191 0 .057-.172 0-.286-.057-.115-.076-.478-.124-.707a34.085 34.085 0 00-.287-1.424c-.2-.955-.42-1.91-.668-2.808a58.921 58.921 0 00-1.7-5.398c-.23-.611-.412-1.614-.956-2.034-.545-.42-1.347.076-1.91.42a7.643 7.643 0 00-3.096 3.172c-.306.697.726 1.299 1.032.601h.067z" fill="#234558"/><path d="M83.081 49.793a32.297 32.297 0 003.907-2.245.612.612 0 00.249-.85.593.593 0 00-.812-.21 32.304 32.304 0 01-3.907 2.245.602.602 0 00.602 1.032l-.039.028zm-16.144-7.307a39.99 39.99 0 013.076 6.954c.382 1.156.717 2.34 1.003 3.535.105.458.22 1.04.783 1.117a.736.736 0 00.803-.764.612.612 0 00-.296-.516h-.057c-.679-.363-1.28.669-.602 1.032h.057l-.296-.516v-.143l.363-.277h-.076l.458.067c.105.114.115.066 0-.134s-.057-.268-.096-.401c-.038-.134-.124-.526-.2-.793a23.71 23.71 0 00-.382-1.376 82.957 82.957 0 00-.956-2.866 42.977 42.977 0 00-2.57-5.502c-.372-.669-1.404-.067-1.031.602l.02-.02z" fill="#234558"/><path d="M67.75 42.218c-.153.621.391 1.022.955.955.33-.105.63-.285.879-.525l1.117-.85c.793-.592 1.615-1.166 2.38-1.787l-.182-.057c.068.12.12.248.152.382.077.191.144.392.21.593.163.477.316.955.469 1.432a80.197 80.197 0 011.557 5.57c.41 1.681.62 3.506 1.566 5.006.402.65 1.443 0 1.032-.602-.955-1.433-1.08-3.239-1.47-4.843a82.103 82.103 0 00-1.53-5.446 20.073 20.073 0 00-.85-2.483 1.07 1.07 0 00-1.347-.688c-.35.17-.672.392-.955.659l-1.118.85-1.117.84-.612.469-.21.153c-.274.127-.274.204 0 .229l.153.583v-.086c.181-.745-.955-1.06-1.156-.316l.076-.038z" fill="#234558"/><path d="M72.335 54.073a13.565 13.565 0 005.932-2.579.611.611 0 00.22-.812.611.611 0 00-.822-.22 12.935 12.935 0 01-5.645 2.465.602.602 0 00-.42.726.611.611 0 00.735.42zM60.28 48.609l-.66-1.682-1.098.459a73.647 73.647 0 013.82 10.508.602.602 0 001.157-.315 77.38 77.38 0 00-3.965-10.824c-.267-.611-1.337-.172-1.089.459l.66 1.681c.286.707 1.432.401 1.155-.315l.02.029z" fill="#234558"/><path d="M58.464 48.14a2.627 2.627 0 003.152-.793c.43-.468.755-1.022 1.185-1.49.229-.239.525-.64.773-.286.178.372.313.763.402 1.165 1.031 3.229 1.91 6.515 2.866 9.773a.601.601 0 001.156-.316c-.956-3.458-1.863-7.002-3.048-10.412-.2-.593-.401-1.319-1.041-1.567-.64-.248-1.337.23-1.796.678-.678.679-1.758 2.866-3.01 2.217-.668-.373-1.27.659-.601 1.031h-.038z" fill="#234558"/><path d="M63.412 58.257a5.293 5.293 0 002.713-1.222 12.28 12.28 0 011.175-.813c.176-.106.361-.196.554-.267a2.35 2.35 0 01.592-.124.603.603 0 100-1.194 5.186 5.186 0 00-2.713 1.203c-.377.296-.773.567-1.184.812-.175.112-.36.204-.554.277a2.36 2.36 0 01-.583.134.603.603 0 100 1.194zm36.893-56.181a114.445 114.445 0 00-3.343 14.941c-.373 2.36-.698 4.777-.889 7.117 0 .545-.095 1.3.621 1.424a.744.744 0 00.88-.745c.076-.765-1.118-.755-1.195 0v.114l.287-.516c.506.344.716.249.611-.277 0-.22.048-.44.067-.659a146.625 146.625 0 01.516-4.385c.267-1.91.586-3.783.955-5.617a115.827 115.827 0 012.684-11.062.6.6 0 00-1.155-.315l-.039-.02z" fill="#234558"/><path d="M100.01 10.875l-3.354 13.642c-.181.754.956 1.07 1.147.325l3.353-13.652a.597.597 0 00-.867-.674.591.591 0 00-.279.359zM50.65 29.016a108.679 108.679 0 0112.017 7.022c.64.43 1.232-.602.602-1.032a107.808 107.808 0 00-12.018-7.021c-.688-.344-1.29.687-.602 1.031zm-.392 1.223a76.175 76.175 0 0113.775 11.463c.525.564 1.376-.286.84-.84A77.262 77.262 0 0050.86 29.207c-.64-.42-1.241.612-.601 1.032zM66.316 75.53a145.912 145.912 0 004.824-14.96.595.595 0 10-1.146-.325 144.554 144.554 0 01-4.834 14.97c-.277.716.879 1.03 1.156.314zm39.645-31.096l7.642 4.375 3.822 2.188a15.45 15.45 0 013.162 2.13c.554.535 1.394-.305.84-.84a15.273 15.273 0 00-3.152-2.178l-3.821-2.188-7.882-4.519a.6.6 0 00-.827.67.607.607 0 00.225.362h-.009zm-1.958.984a53.195 53.195 0 004.251 12.505c.334.688 1.366.086 1.032-.602a52.53 52.53 0 01-4.137-12.218c-.152-.755-1.299-.43-1.146.315zM74.045 65.499a65.66 65.66 0 002.178 7.48c.258.716 1.414.41 1.156-.316a66.305 66.305 0 01-2.188-7.48c-.172-.754-1.318-.439-1.146.316zm1.175-5.531a3.114 3.114 0 014.938-1.07c1.653 1.404 2.819 3.62 3.879 5.483a44.497 44.497 0 014.031 9.487c.117.844.55 1.613 1.213 2.149.65.43 1.242-.611.602-1.032-.64-.42-.63-1.337-.793-1.91a29.975 29.975 0 00-.592-1.787 45.598 45.598 0 00-1.385-3.487 45.202 45.202 0 00-3.821-6.983c-1.147-1.69-2.522-3.726-4.777-3.955a4.395 4.395 0 00-4.451 2.751c-.287.717.869 1.023 1.156.325v.029zm8.33-1.949a133.815 133.815 0 017.9 17.339c.268.716 1.424.4 1.156-.316a136.335 136.335 0 00-8.024-17.587c-.363-.669-1.395-.067-1.032.602v-.038zm10.279 32.757a90.323 90.323 0 014.566 9.974c.65 1.662 1.156 3.372 1.786 5.044.163.43.526.907 1.061.764a.747.747 0 00.382-1.137.603.603 0 00-.669-.267h-.076c-.717.248-.411 1.404.315 1.155h.076l-.668-.267v-.115l.296-.515-.077.066.459-.057c.153.134.153.057 0-.21-.153-.268-.115-.373-.182-.554-.114-.363-.238-.726-.363-1.099-.229-.63-.449-1.27-.687-1.91a96.206 96.206 0 00-5.15-11.464c-.362-.678-1.385-.076-1.031.602l-.038-.01zm2.149-.373a692.333 692.333 0 016.047 14.396c.287.707 1.443.402 1.156-.315a727.72 727.72 0 00-6.171-14.683c-.306-.707-1.328-.095-1.032.602zm-26.27-15.189l3.64 9.19a.6.6 0 001.155 0 2.683 2.683 0 000-1.232c-.134-.755-1.28-.44-1.146.315.047.198.047.404 0 .602h1.156l-3.64-9.19c-.287-.707-1.433-.401-1.156.315h-.01zm1.786-1.567l3.334 8.178a.612.612 0 00.736.41.593.593 0 00.41-.735l-3.324-8.178a.611.611 0 00-.946-.308.592.592 0 00-.21.633zm2.57.163a38.955 38.955 0 002.14 6.821.621.621 0 00.735.42.602.602 0 00.42-.735 38.835 38.835 0 01-2.15-6.83c-.162-.746-1.308-.43-1.145.324z" fill="#234558"/><path d="M75.487 70.79c1.12 3.02 2.242 6.041 3.363 9.066.267.707 1.423.402 1.156-.324l-3.373-9.057c-.258-.716-1.414-.41-1.146.316zm2.092 1.176l4.04 9.477a.612.612 0 00.822.22.622.622 0 00.21-.822l-4.012-9.477a.601.601 0 00-.822-.22.621.621 0 00-.21.822h-.028zm2.484 25.363c1.21 3.089 2.42 6.168 3.63 9.237l1.758 4.49c.181.449.363.956.955 1.023a.784.784 0 00.84-.803.603.603 0 00-.994-.376.603.603 0 00-.2.376v.115l.172-.421-.105.086.43-.172c.23.182.268.134.096-.143l-.21-.525-.316-.793-.726-1.853-1.347-3.43a322.3 322.3 0 01-2.79-7.127c-.276-.706-1.432-.4-1.155.316h-.038zm2.952.889a137.878 137.878 0 014.776 11.463c.268.717 1.414.402 1.156-.324-1.465-4-3.101-7.929-4.91-11.789-.334-.697-1.357-.086-1.032.602l.01.048zm.019-5.561l6.114 15.18c.286.707 1.442.401 1.156-.315l-6.143-15.2c-.277-.706-1.433-.4-1.147.316l.02.02zm3.247.851a139.802 139.802 0 014.729 14.12.608.608 0 00.501.418.599.599 0 00.588-.285 1.136 1.136 0 000-1.213c-.363-.678-1.395-.076-1.032.611l1.099.144a141.523 141.523 0 00-4.729-14.12c-.277-.707-1.433-.391-1.156.325zm2.122 1.338a57.867 57.867 0 015.359 15.103c.162.754 1.308.439 1.156-.315a59.518 59.518 0 00-5.484-15.39c-.353-.688-1.385-.086-1.031.602zM35.537 75.023a234.127 234.127 0 017.527 19.622.602.602 0 001.147 0l.315-.907c.258-.726-.898-1.032-1.146-.316l-.316.956h1.185a233.898 233.898 0 00-7.643-19.909c-.305-.697-1.337-.095-1.031.602l-.038-.048z" fill="#234558"/><path d="M35.651 74.317a44.084 44.084 0 017.031-3.468c1.156-.468 2.312-.956 3.477-1.357 1.166-.401 2.274-.735 3.296-.076.65.41 1.242-.621.602-1.032-2.178-1.404-5.11.287-7.203 1.118a48.602 48.602 0 00-7.805 3.821c-.65.401 0 1.433.602 1.032v-.038z" fill="#234558"/><path d="M49.694 68.996a179.465 179.465 0 017.748 19.392c.239.726 1.395.41 1.146-.315a182.008 182.008 0 00-7.862-19.68c-.325-.687-1.356-.085-1.032.603zM33.883 81.462a19.994 19.994 0 004.777-2.092.602.602 0 00-.602-1.032 18.952 18.952 0 01-4.452 1.977.594.594 0 10.316 1.147h-.038z" fill="#234558"/><path d="M32.509 80.449a198.368 198.368 0 016.983 15.619c.287.707 1.442.401 1.156-.315a233.837 233.837 0 00-7.108-15.916c-.343-.687-1.366-.076-1.031.612zm71.972-78.268c15.342 5.445 30.407 11.607 45.376 18.007 14.97 6.4 29.662 12.954 44.546 19.307 14.644 6.248 29.404 12.266 44.421 17.568a388.413 388.413 0 0045.635 13.298 259.488 259.488 0 0046.58 6.142c1.91.07 3.85.112 5.818.124a.603.603 0 00.376-.995.603.603 0 00-.376-.199 248.936 248.936 0 01-47.049-5.158 369.658 369.658 0 01-45.577-12.591c-15.113-5.159-29.949-11.072-44.66-17.282-14.96-6.314-29.786-12.925-44.699-19.344-14.682-6.334-29.423-12.496-44.478-18.008-1.853-.688-3.726-1.356-5.589-2.025-.726-.258-1.041.898-.324 1.156zm37.208 51.711c14.941 11.912 29.91 23.882 45.854 34.39 15.4 10.136 31.802 18.925 49.332 24.752a141.673 141.673 0 0029.948 6.582c.765.086.755-1.108 0-1.194-18.15-1.911-35.613-7.738-51.92-15.724-16.632-8.235-32.136-18.657-46.934-29.796-8.597-6.448-17.004-13.154-25.411-19.86-.602-.469-1.452.362-.85.85h-.019zm149.628 49.504A91.897 91.897 0 00339.206 89.2c4.289-2.723 8.598-5.78 11.769-9.763a21.283 21.283 0 003.821-6.86c.44-1.394 1.366-4.995-1.146-5.034a.604.604 0 00-.526.597.6.6 0 00.526.597c1.662 0-.955 5.923-1.28 6.516a24.66 24.66 0 01-4.184 5.53 57.327 57.327 0 01-11.464 8.598 90.525 90.525 0 01-45.357 12.84.598.598 0 00-.527.597.603.603 0 00.527.597l-.048-.019z" fill="#234558"/><path d="M295.186 112.403c8.235 2.742 16.785-.859 24.035-4.681a128.31 128.31 0 0021.17-14.08 130.66 130.66 0 0010.89-9.974c.535-.554-.306-1.395-.85-.85a126.668 126.668 0 01-18.858 16.001 125.979 125.979 0 01-10.584 6.582 66.774 66.774 0 01-11.464 5.311c-4.547 1.491-9.391 2.083-14.014.545-.726-.248-1.042.907-.315 1.146h-.01zm-110.814-50.42c1.987 23.395 7.489 46.265 12.122 69.23.64 3.172 1.271 6.343 1.863 9.553a403.763 403.763 0 011.299 7.27c.067.392.163.783.192 1.175.047.265.047.537 0 .803-.134.429-.306.515-.535.257.066-.773-1.128-.764-1.195 0-.143 1.72 2.35 1.634 2.866.211.382-1.118-.095-2.561-.286-3.678-.296-1.662-.593-3.334-.898-4.996a686.33 686.33 0 00-3.821-19.04c-2.675-12.801-5.465-25.592-7.585-38.508-1.214-7.375-2.198-14.797-2.866-22.249-.067-.764-1.261-.764-1.194 0l.038-.028zm4.289 9.553a124415.293 124415.293 0 0016.193 84.133c.143.754 1.299.43 1.146-.316-4.191-21.819-8.388-43.631-12.591-65.438a5425.595 5425.595 0 00-3.601-18.695c-.144-.754-1.29-.44-1.147.316z" fill="#234558"/><path d="M142.472 49.325c6.573 5.818 13.795 11.378 21.638 15.371 6.572 3.353 14.482 5.092 21.121.955a12.412 12.412 0 005.952-8.502c.115-.754-1.032-1.08-1.146-.325-1.003 6.688-8.044 10.356-14.33 10.098-7.872-.325-15.008-5.216-21.246-9.553a127.788 127.788 0 01-11.186-8.846c-.573-.506-1.424.334-.841.84l.038-.038z" fill="#234558"/><path d="M181.563 59.06a35.88 35.88 0 00-1.767 10.432 35.26 35.26 0 00.306 5.216 7.282 7.282 0 001.347 3.821c1.566 1.91 4.26 2.188 6.534 1.787 3.181-.554 5.846-2.647 9.037-3.191.755-.134.439-1.28-.315-1.156-2.866.487-5.245 2.15-7.977 2.942-2.102.621-5.015.67-6.458-1.27-.955-1.213-1.012-2.943-1.146-4.395a34.206 34.206 0 011.586-13.851c.238-.736-.908-1.042-1.147-.316v-.019z" fill="#234558"/><path d="M181.573 61.515l6.209-4.777c.64-.496 1.548-1.213 2.006-.2.22.566.399 1.147.535 1.738.382 1.357.755 2.713 1.108 4.08a181.244 181.244 0 013.401 15.838c.134.755 1.28.44 1.156-.315a192.487 192.487 0 00-4.327-19.278c-.44-1.557-1.099-4.996-3.497-3.62a31.748 31.748 0 00-3.467 2.655l-3.965 3.067c-.611.468.239 1.309.841.85v-.038zm.295 24.055a40.298 40.298 0 0018.992-5.876.604.604 0 00-.602-1.032 39.016 39.016 0 01-18.39 5.732c-.773 0-.773 1.233 0 1.194v-.019z" fill="#234558"/><path d="M191.737 58.563a72.454 72.454 0 0018.218 30.924 77.275 77.275 0 0030.359 19.029 69.8 69.8 0 0020.138 3.601.601.601 0 000-1.194 71.16 71.16 0 01-33.837-9.954 75.917 75.917 0 01-25.526-24.503 68.353 68.353 0 01-8.196-18.227.602.602 0 00-1.156.325z" fill="#234558"/><path d="M197.038 64.849a122.96 122.96 0 0052.914 44.221 120.71 120.71 0 0018.428 6.324.602.602 0 00.315-1.156 121.901 121.901 0 01-58.483-34.668 118.018 118.018 0 01-12.142-15.285c-.43-.63-1.461 0-1.032.602v-.038zm-91.125-56.61l25.879 38.212c.42.64 1.462 0 1.022-.602a71388.089 71388.089 0 00-25.869-38.212c-.43-.64-1.462 0-1.032.602zm252.486 93.991c-7.643 13.947-15.381 27.885-24.016 41.269-8.636 13.384-18.103 26.06-29.28 37.257a148.136 148.136 0 01-20.501 17.262c-.631.43 0 1.471.602 1.032 13.059-9.057 24.389-20.329 34.295-32.719 9.906-12.391 18.533-25.918 26.538-39.674 4.586-7.881 8.999-15.877 13.374-23.882.363-.679-.668-1.28-1.031-.602l.019.057zm26.795 5.693a5134.084 5134.084 0 01-27.799 45.358 4614.52 4614.52 0 01-28.296 45.052 4503.098 4503.098 0 01-16.24 25.382c-.421.65.611 1.251 1.031.602a4533.232 4533.232 0 0028.564-44.899 5792.83 5792.83 0 0028.086-45.186 5099.082 5099.082 0 0015.686-25.726.604.604 0 00-.251-.756.603.603 0 00-.781.154v.019z" fill="#234558"/><path d="M240.457 94.081c3.277 4.853 1.356 11.464 1.194 16.861a58.858 58.858 0 001.815 16.737 44.541 44.541 0 007.012 15.046c3.076 4.184 7.289 8.158 12.897 7.117a24.331 24.331 0 008.884-4.06 33.123 33.123 0 006.993-6.42c.477-.592-.363-1.442-.851-.85a30.117 30.117 0 01-13.479 9.696 9.203 9.203 0 01-8.33-.955 21.988 21.988 0 01-5.732-6.095c-6.133-8.894-8.368-19.956-7.986-30.627.2-5.579 2.006-12.075-1.366-17.08-.421-.63-1.462 0-1.032.611l-.019.02z" fill="#234558"/><path d="M242.731 95.046c3.2 8.331 3.821 17.406 7.317 25.65 2.914 6.917 8.054 13.26 15.801 14.674a14.057 14.057 0 0011.101-2.322c.611-.458 0-1.49-.602-1.031-5.875 4.442-14.206 2.33-19.106-2.484-5.656-5.503-7.795-13.46-9.553-20.912a102.557 102.557 0 00-3.821-13.9c-.268-.706-1.424-.4-1.147.325h.01zM124.78 53.548a58.97 58.97 0 01-6.152 33.188 58.402 58.402 0 01-38.412 29.805c-.755.172-.43 1.328.315 1.146a60.05 60.05 0 0028.076-15.428 59.442 59.442 0 0017.367-48.72c-.086-.764-1.28-.764-1.194 0v.01z" fill="#234558"/><path d="M126.996 60.14c.659 14.52 1.347 29.394-2.608 43.552a56.79 56.79 0 01-8.177 17.682c-1.911 2.704-4.375 6.544-8.197 5.933a23.373 23.373 0 01-4.977-1.749l-5.187-2.149a694.044 694.044 0 01-23.882-10.508c-.688-.315-1.3.716-.602 1.031A739.387 739.387 0 0095.26 123.6c3.544 1.5 7.098 3.172 10.747 4.404 1.522.604 3.2.691 4.777.248a8.863 8.863 0 003.573-2.722c9.247-10.508 12.925-24.838 13.918-38.518.659-8.95.249-17.94-.162-26.901 0-.764-1.223-.774-1.194 0l.076.029zM85.25 122.167a160.177 160.177 0 013.267 39.712c-.277 6.477-.698 13.135-2.589 19.373a41.664 41.664 0 01-8.55 14.951 123.747 123.747 0 01-13.861 13.173c-.583.497.267 1.347.84.841 8.598-7.327 17.597-15.151 21.8-25.946 2.37-6.085 2.98-12.715 3.392-19.173.444-6.903.444-13.827 0-20.73a162.556 162.556 0 00-3.096-22.516c-.153-.745-1.308-.43-1.156.315h-.047zm85.518 43.58c-5.904 11.626-8.206 24.762-14.721 36.111-2.99 5.196-6.888 9.973-11.989 13.211a32.7 32.7 0 01-25.057 3.994 29.247 29.247 0 01-4.605-1.529c-1.242-.525-4.27-1.595-3.678-3.353.239-.736-.955-1.051-1.156-.325-.898 2.694 2.818 4.127 4.7 4.91a32.294 32.294 0 008.455 2.188 34.206 34.206 0 0017.367-2.465c12.027-5.101 18.38-16.956 22.688-28.659 2.914-7.881 5.216-16.001 9.028-23.509.353-.679-.678-1.281-1.032-.602v.028z" fill="#234558"/><path d="M164.339 173.39a96.13 96.13 0 01-45.138 37.916 93.678 93.678 0 01-16.164 4.939c-.755.162-.439 1.309.315 1.156a97.444 97.444 0 0051.711-29.786 94.556 94.556 0 0010.279-13.623c.401-.649-.631-1.251-1.032-.602h.029z" fill="#234558"/><path d="M169.24 169.32a142.498 142.498 0 00-14.97 38.374c-.79 3.478-1.455 6.98-1.997 10.509-.42 2.799-.401 6.562-2.646 8.597-2.426 2.226-6.801 1.5-9.782 1.252a67.463 67.463 0 01-10.145-1.653 68.413 68.413 0 01-21.256-9.19c-.64-.42-1.241.621-.601 1.032a68.95 68.95 0 0029.299 10.718c3.228.401 6.859.956 10.078.268 2.866-.583 4.614-2.666 5.34-5.436.86-3.296 1.06-6.802 1.681-10.155a140.894 140.894 0 0116.03-43.705c.373-.668-.659-1.27-1.031-.601v-.01zm153.43 40.945l32.413 18.791a.607.607 0 00.757-.25.6.6 0 00-.155-.782l-32.413-18.791a.604.604 0 00-.756.25.604.604 0 00.154.782zm.249 1.929l-19.899 17.262c-.583.506.258 1.347.841.85l19.898-17.262c.583-.506-.267-1.347-.84-.85z" fill="#234558"/><path d="M352.81 228.204l-11.043 22.354c-.334.688.688 1.3 1.032.602l11.043-22.354c.344-.687-.688-1.289-1.032-.602zm-49.112.717a3373.868 3373.868 0 0118.705 10.203l9.113 5.034 4.557 2.532 2.484 1.385c.41.229.84.439 1.241.688a1.646 1.646 0 01.889 1.098c-.268-.716-1.423-.411-1.156.315a1.2 1.2 0 001.594.672c.198-.084.37-.221.498-.395.812-.955-.134-2.025-.955-2.55-1.911-1.261-4.07-2.274-6.076-3.401l-6.009-3.324a3699.775 3699.775 0 00-24.302-13.289c-.679-.363-1.281.669-.602 1.032h.019z" fill="#234558"/><path d="M306 227.249a935.908 935.908 0 01-20.691 52.418 29426.64 29426.64 0 01-6.382 14.453c-.315.698.717 1.299 1.032.602a938.682 938.682 0 0021.532-51.901c1.911-5.051 3.783-10.12 5.618-15.209.267-.726-.889-1.031-1.147-.315l.038-.048zm34.287 22.727a1459.23 1459.23 0 00-31.821 42.798 1860.999 1860.999 0 00-8.751 12.352c-.439.63.592 1.222 1.032.601a1449.876 1449.876 0 0131.381-43.122c3.038-4.018 6.101-8.027 9.19-12.027.468-.611-.563-1.204-1.031-.602zm-60.204 46.408a194.89 194.89 0 0118.762 10.996c.64.43 1.233-.602.602-1.032a194.88 194.88 0 00-18.762-10.995c-.678-.354-1.29.678-.602 1.031zm1.853-92.874c-3.038 17.196-6.073 34.391-9.104 51.586-.86 4.847-1.717 9.69-2.57 14.53-.134.755 1.013 1.08 1.146.325l9.114-51.586c.853-4.84 1.71-9.683 2.57-14.53.133-.745-1.022-1.07-1.156-.315v-.01zm6.295-7.575a87.673 87.673 0 0126.519 10.766.602.602 0 00.602-1.031 88.66 88.66 0 00-26.806-10.9c-.745-.172-1.06.955-.315 1.146v.019z" fill="#234558"/><path d="M289.36 197.157a24.218 24.218 0 00-8.245 7.394c-.449.631.593 1.233 1.032.602a22.975 22.975 0 017.814-6.964c.679-.373.077-1.404-.601-1.032zm24.454 12.658c.86.765 1.768-.487 1.252-1.308a.962.962 0 00-1.347-.249 2.668 2.668 0 00-1.032 1.576l-3.697 9.983c-.267.717.888 1.032 1.146.316l2.226-5.99 1.089-2.942c.172-.478.325-.956.535-1.433 0-.105.277-.383.277-.459-.219-.296-.305-.382-.239-.267.067.114.364.133.631-.067-.564-.507-1.414.334-.841.84zm-7.555 22.947l-21.275 41.546c-.344.678.688 1.28 1.032.602l21.236-41.546c.344-.688-.688-1.29-1.031-.602h.038zm-35.557 37.858a130.52 130.52 0 0015.065 7.337c.717.296 1.023-.86.325-1.146a129.947 129.947 0 01-14.788-7.222.6.6 0 00-.756.25.604.604 0 00.154.781zm10.241-62.381a357.12 357.12 0 0129.404 16.04.607.607 0 00.757-.25.6.6 0 00-.155-.782 364.544 364.544 0 00-29.404-16.039c-.688-.335-1.299.697-.602 1.031zm-140.582-54.165a629.509 629.509 0 0119.048 85.527 600.02 600.02 0 013.201 24.561c.076.755 1.27.764 1.194 0a630.47 630.47 0 00-15.667-86.378 611.55 611.55 0 00-6.62-24.026.607.607 0 00-.29-.323.607.607 0 00-.781.213.602.602 0 00-.085.426z" fill="#234558"/><path d="M139.779 155.832l19.106-19.517c.535-.554-.306-1.395-.841-.841l-19.106 19.517c-.535.545.306 1.395.841.841z" fill="#234558"/><path d="M158.455 136.076a195.322 195.322 0 0120.014 5.436 136.896 136.896 0 0119.153 8.359c.679.353 1.28-.669.602-1.032a139.011 139.011 0 00-19.106-8.388 194.52 194.52 0 00-20.367-5.55c-.745-.172-1.07.955-.315 1.146l.019.029zm40.791 14.836l.716 11.378 1.624 27.207 1.968 32.909 1.701 28.44.554 9.371c.095 1.462.086 2.971.267 4.433.005.063.005.127 0 .191.048.764 1.242.764 1.194 0l-.678-11.33-1.653-27.216-1.91-32.91-1.701-28.449-.563-9.362c-.086-1.471-.086-2.971-.268-4.433a1.218 1.218 0 000-.191c-.047-.764-1.242-.764-1.194 0l-.057-.038zm-62.667 5.932l35.479 15.428c.698.296 1.309-.726.602-1.032l-35.48-15.428c-.697-.305-1.308.726-.601 1.032z" fill="#234558"/><path d="M170.215 172.941a187.317 187.317 0 0130.999-23.433.598.598 0 00.225-.362.598.598 0 00-.401-.688.602.602 0 00-.426.018 189.005 189.005 0 00-31.219 23.624c-.564.526.277 1.366.841.841h-.019zm-3.277-3.487c3.305 27.665 6.613 55.328 9.925 82.987l2.78 23.233c.096.754 1.29.764 1.194 0-3.305-27.66-6.614-55.319-9.925-82.978l-2.78-23.242c-.096-.745-1.29-.755-1.194 0zm14.959 111.101l24.17-14.836c.649-.401.047-1.433-.602-1.022-8.063 4.942-16.119 9.888-24.169 14.836-.66.401-.058 1.433.601 1.022zm-39.462-1.003l14.673-25.554a.602.602 0 00-1.032-.602l-14.673 25.602a.6.6 0 00.25.756.604.604 0 00.782-.154v-.048z" fill="#234558"/><path d="M129.595 187.939l21.179 53.927 6.009 15.285c.277.706 1.433.401 1.156-.316l-21.179-53.926-6.009-15.285c-.277-.707-1.433-.401-1.156.315zm-71.017 26.892l30.216 52.876 8.493 14.95a.604.604 0 00.781.155.6.6 0 00.25-.756l-30.187-52.895-8.502-14.874a.601.601 0 00-1.05.544z" fill="#234558"/><path d="M58.76 215.576a156.662 156.662 0 0121.676-30.522c.516-.573-.325-1.414-.85-.841a157.763 157.763 0 00-21.857 30.761c-.363.678.668 1.28 1.031.602z" fill="#234558"/><path d="M77.245 188.082c4.346-4.652 11.253-4.776 17.195-4.451 7.9.382 15.801.955 23.691 1.433l13.757.84c.764 0 .764-1.156 0-1.194l-25.373-1.547c-4.022-.249-8.043-.535-12.075-.726a41.003 41.003 0 00-9.247.382 15.42 15.42 0 00-8.77 4.423c-.525.554.325 1.404.85.84h-.028z" fill="#234558"/><path d="M109.486 214.411a168.522 168.522 0 0021.752-34.229c.325-.688-.707-1.289-1.032-.602a167.793 167.793 0 01-21.561 33.99c-.477.592.354 1.442.841.841z" fill="#234558"/><path d="M106.525 211.965c8.54 17.724 17.077 35.467 25.611 53.229l7.232 15.037a.604.604 0 001.053-.042.602.602 0 00.045-.417l-.831-2.369c-.248-.726-1.404-.411-1.146.315s.544 1.576.821 2.369l1.089-.458a184658.33 184658.33 0 00-25.63-53.268 17161.67 17161.67 0 00-7.232-15.036c-.334-.697-1.366-.086-1.031.602l.019.038zm149.476-105.178a679.521 679.521 0 01-8.952 54.366 684.492 684.492 0 01-3.305 15.103c-.172.745.955 1.06 1.146.315a673.812 673.812 0 0010.26-54.538 696.198 696.198 0 002.045-15.284c.095-.755-1.108-.755-1.194 0v.038z" fill="#234558"/><path d="M238.356 95.027a71.474 71.474 0 0017.119 11.855c.688.344 1.289-.688.602-1.031a70.386 70.386 0 01-16.871-11.617c-.564-.525-1.414.315-.85.84v-.047z" fill="#234558"/><path d="M255.895 105.43a284.387 284.387 0 0022.22-4.862.592.592 0 00.416-.731.595.595 0 00-.731-.416 290.81 290.81 0 01-22.22 4.863c-.755.134-.44 1.28.315 1.146z" fill="#234558"/><path d="M264.922 93.298a51.327 51.327 0 0114.96 8.273c.593.478 1.443-.363.85-.84a53.056 53.056 0 00-15.494-8.598c-.726-.258-1.042.898-.316 1.146v.02zM55.216 228.577c3.305.296 6.63.516 9.944.678.774 0 .774-1.155 0-1.194a246.591 246.591 0 01-9.944-.678c-.764-.057-.764 1.137 0 1.194zm245.751 16.021a441.382 441.382 0 0129.9 17.902c.65.42 1.242-.612.602-1.032a431.98 431.98 0 00-29.901-17.902c-.668-.373-1.27.659-.601 1.032zm-6.812 14.568a431.098 431.098 0 0129.548 14.607c.678.372 1.28-.659.601-1.032a428.142 428.142 0 00-29.547-14.607c-.697-.305-1.309.727-.602 1.032zm-6.764 16.115a295.447 295.447 0 0123.003 12.343.602.602 0 00.602-1.032 289.055 289.055 0 00-23.003-12.333c-.688-.334-1.3.698-.602 1.022zm-2.407 10.242a221.003 221.003 0 0119.24 10.661c.65.411 1.251-.621.602-1.032a220.599 220.599 0 00-19.202-10.661c-.687-.334-1.299.698-.611 1.032h-.029zm17.252-144.116a291.722 291.722 0 00-15.285 2.016c-2.509.401-5.018.837-7.527 1.308-1.281.249-4.5.239-4.519 2.14a.598.598 0 00.597.526.6.6 0 00.597-.526c0-.678 5.522-1.337 6.152-1.442 2.197-.401 4.404-.764 6.611-1.108a299.58 299.58 0 0113.374-1.72c.755-.076.764-1.27 0-1.194zm-2.588 13.088a211.348 211.348 0 01-26.749 4.432c-.754.077-.764 1.28 0 1.195a214.76 214.76 0 0027.083-4.471c.755-.182.44-1.328-.315-1.156h-.019zm-38.269-27.618a55.485 55.485 0 0110.298 17.453c.258.717 1.414.402 1.156-.315a57.106 57.106 0 00-10.614-17.979c-.506-.582-1.347.268-.84.841zm-2.705 15.542l12.199 17.635c.43.621 1.462 0 1.032-.602l-12.199-17.635c-.439-.63-1.471 0-1.032.602zm86.599-30.76a807.637 807.637 0 0133.168 21.331.604.604 0 00.725-.096.597.597 0 00.096-.725l-.592-.87c-.42-.64-1.452 0-1.022.602.191.287.382.583.583.87l.812-.812a811.622 811.622 0 00-33.168-21.256.607.607 0 00-.757.25.598.598 0 00-.07.42.598.598 0 00.225.362v-.076z" fill="#234558"/><path d="M335.193 88.196a124.67 124.67 0 009.19 24.781c.344.687 1.366.086 1.032-.602a123.134 123.134 0 01-9.075-24.494.596.596 0 00-1.09-.136.598.598 0 00-.057.451zm-10.001 68.075l17.281 9.668 8.531 4.777c.889.496 2.006 1.461 3.095 1.356.66-.067 1.156-.525.956-1.213-.201-.688-1.385-.421-1.156.315-.163-.516-.955-.764-1.443-1.022l-1.91-1.051-3.535-1.977-7.079-3.965-14.157-7.91c-.678-.382-1.28.65-.602 1.022h.019z" fill="#234558"/><path d="M318.419 124.45a713.953 713.953 0 005.732 30.398c.162.754 1.308.439 1.156-.316a701.134 701.134 0 01-5.732-30.397c-.124-.755-1.271-.44-1.146.315h-.01zm96.484-32.385a863.017 863.017 0 01-14.224 22.736c-.421.65.611 1.252 1.032.602a793.111 793.111 0 0014.224-22.736.6.6 0 00-.67-.827.603.603 0 00-.362.225zm-45.557 77.341l.047-.277a.597.597 0 00-.279-.616.6.6 0 00-.676.033 180.273 180.273 0 01-16.001 14.807c-.592.488.258 1.328.841.851a180.676 180.676 0 0016.001-14.817l-.955-.573-.058.277c-.143.745 1.013 1.07 1.156.315h-.076zm-64.885 69.412a242.346 242.346 0 0131.821 16.861c.65.411 1.252-.621.602-1.031a242.27 242.27 0 00-31.84-16.89c-.697-.306-1.299.726-.602 1.032l.019.028zm-5.902 13.126a140.534 140.534 0 0113.269 6.983c2.073 1.232 4.098 2.532 6.114 3.821a21.362 21.362 0 006.152 3.124.594.594 0 10.316-1.146 21.966 21.966 0 01-6.21-3.239 142.34 142.34 0 00-6.152-3.869 140.197 140.197 0 00-12.887-6.754c-.697-.324-1.299.707-.602 1.032v.048zm-6.764 13.795a565.547 565.547 0 0025.707 13.623c.688.344 1.29-.688.602-1.032a529.466 529.466 0 01-25.707-13.623c-.669-.372-1.271.66-.602 1.032zm-4.395 14.863a535.194 535.194 0 0121.972 12.945c.65.41 1.252-.621.602-1.032a509.822 509.822 0 00-21.972-12.944.6.6 0 00-.756.25.604.604 0 00.154.781zm-5.082 8.742l21.323 12.763a.604.604 0 00.756-.25.605.605 0 00-.155-.782l-21.322-12.763a.6.6 0 00-.756.25.604.604 0 00.154.782zm8.56-18.743a107.91 107.91 0 0123.204 13.431c.611.459 1.203-.573.602-1.031a107.855 107.855 0 00-23.205-13.432c-.697-.296-1.308.726-.601 1.032zm-10.671-136.082c-6.888 11.922-14.874 23.338-24.838 32.872-9.963 9.534-21.847 16.918-35.135 20.434a61.986 61.986 0 01-11.464 1.91c-2.474.182-7.986.956-8.789-2.388-.181-.745-1.328-.43-1.156.315.602 2.522 3.353 3.277 5.646 3.401a46.495 46.495 0 0010.222-.86 71.274 71.274 0 0020.061-6.687c12.992-6.515 23.883-16.517 32.795-27.885a174.117 174.117 0 0013.613-20.51.602.602 0 00-1.031-.602h.076zm-93.065-76.94a116.868 116.868 0 01-21.016 64.377 114.122 114.122 0 01-12.419 14.836.598.598 0 000 .841.598.598 0 00.841 0 118.045 118.045 0 0031.754-60.528c1.223-6.44 1.9-12.972 2.025-19.526a.6.6 0 00-.597-.526.602.602 0 00-.597.526h.009zm23.491 21.102c17.195-.35 34.372-.56 51.529-.63 17.157-.07 34.333.006 51.529.23 9.693.12 19.392.292 29.098.515a.603.603 0 00.376-.995.603.603 0 00-.376-.199 3094.858 3094.858 0 00-132.156-.115.603.603 0 00-.376.995c.097.11.231.181.376.2z" fill="#234558"/><path d="M158.885 84.356l26.624-3.143c.755-.095.764-1.29 0-1.194l-26.624 3.143c-.755.086-.764 1.28 0 1.194z" fill="#234558"/><path d="M168.017 83.085l-5.78-42.806-.879.678c3.497 2.503 7.576.267 11.072-.956.822-.286 2.57-1.04 3.41-.64.956.478.516 3.315.497 4.185l-.105 7.365-.458 30.178a.6.6 0 00.597.526.603.603 0 00.597-.526l.372-24.933.191-12.591c0-1.347.468-3.468-.363-4.643-.831-1.175-2.359-.774-3.477-.516-3.697.85-8.044 4.175-11.731 1.538-.478-.344-.955.22-.879.678l5.789 42.798c.096.754 1.252.43 1.147-.315v-.02zm41.651-3.581a102.867 102.867 0 01-2.006-24.074l-1.175.153c.478 1.91 2.57 2.465 4.318 2.388 1.356-.067 2.923-.41 4.06.526 1.137.936 1.433 2.865 1.805 4.165a58.888 58.888 0 012.035 18.437c0 .764 1.156.764 1.194 0a60.471 60.471 0 00-1.958-18.323c-.554-2.073-1.06-4.91-3.305-5.798-1.825-.726-6.344.955-6.993-1.71a.603.603 0 00-1.175.162c-.27 8.184.432 16.37 2.092 24.389.153.754 1.299.43 1.146-.315h-.038zm27.972-2.484a19.882 19.882 0 01-1.767-9.974l-.44.583 6.028-1.252a33.127 33.127 0 015.732-1.098c3.477-.077 3.362 4.203 3.047 6.687-.057.43.43.62.755.573l8.426-1.127a.604.604 0 00.439-.583l-.067-17.549c0-1.376-.076-2.76 0-4.136.086-1.796 1.127-2.57 2.742-3.076a12.084 12.084 0 018.387.439l-.296-.516-2.121 24.456a.607.607 0 00.602.592l9.314-.611a.599.599 0 00.582-.485.602.602 0 00-.008-.27 61.216 61.216 0 01-.115-25.373l-.955.258c1.834 1.91 4.528 1.452 6.897 1.108.793-.114 2.512-.62 2.961.402.189.904.224 1.834.105 2.75v5.733c0 7.776-.121 15.542-.363 23.3 0 .773 1.166.764 1.195 0 .28-8.235.401-16.476.363-24.724 0-2.054 0-4.127-.058-6.18-.047-1.185-.344-2.38-1.671-2.628-2.79-.525-6.286 1.91-8.598-.573a.59.59 0 00-.955.268 62.498 62.498 0 00.114 26.012l.573-.764-9.314.612.592.601 2.121-24.455a.579.579 0 00-.296-.516 13.575 13.575 0 00-8.512-.783 7.283 7.283 0 00-3.229 1.47 4.356 4.356 0 00-1.194 3.402c-.066 7.088.058 14.176.086 21.264l.44-.573-8.426 1.137.755.573c.334-2.589.344-6.505-2.627-7.642-1.911-.697-4.204.181-6.066.564l-7.643 1.585a.613.613 0 00-.439.573 21.228 21.228 0 001.91 10.576c.316.697 1.347.095 1.032-.602l-.038-.029zm66.575.582a176.151 176.151 0 01-2.112-22.87l-.592.602c4.689-.112 9.381.093 14.043.611l-.592-.601.449 22.44a.6.6 0 00.597.526.604.604 0 00.597-.526l-.449-22.44a.619.619 0 00-.602-.593 104.463 104.463 0 00-14.043-.611.613.613 0 00-.602.592 178.17 178.17 0 002.159 23.195c.115.755 1.271.43 1.147-.325zm16.287-.832a16.557 16.557 0 01-1.06-3.496 3.372 3.372 0 01-.153-1.05c.076-.402.191-.373.487-.497a8.608 8.608 0 011.987-.268l7.939-1.08 3.974-.534a16.315 16.315 0 013.391-.373c1.576.124 1.242 1.71 1.232 2.866v3.955a.604.604 0 00.597.526.601.601 0 00.597-.526v-4.9c0-1.061 0-2.188-1.06-2.78a4.833 4.833 0 00-3.095-.21l-5.359.725c-3.449.468-6.888.898-10.327 1.395a1.572 1.572 0 00-1.263.611 1.579 1.579 0 00-.275 1.376c.19 1.569.602 3.103 1.223 4.557.296.697 1.452.391 1.156-.316l.009.02z" fill="#234558"/><path d="M242.383 271.5l-.423-1.212 3.646-1.348a4.866 4.866 0 01-1.341-2.107c-.635-1.897-.043-3.96 2.05-4.718 2.328-.885 3.905.665 4.617 2.807.361 1.015.53 2.144.542 3.214l-9.091 3.364zm8.033-4.27a6.583 6.583 0 00-.4-2.023c-.555-1.492-1.644-2.497-3.321-1.868-1.635.616-2.004 2.073-1.551 3.382.228.735.706 1.392 1.378 1.935l3.894-1.426zm-10.584-12.013l4.44-2.024c.885-.383.964-.569.611-1.264l.678-.318c.641 1.035.93 1.966-.137 2.351 1.053.156 1.634.996 2.109 2.083.775 1.907-.003 3.223-1.483 3.898l-3.512 1.629-.505-1.186 3.512-1.629c1.12-.509 1.543-1.5 1.037-2.685-.52-1.234-1.57-1.821-2.732-1.298l-3.512 1.629-.506-1.186zm2.819-5.333c.715-.49.49-1.655.019-2.583-.486-.976-1.275-1.751-2.021-1.359-.662.367-.475 1.115-.008 2.473.54 1.443 1.058 3.108-.141 3.803-1.185.744-2.433-.479-3.154-1.919-.722-1.441-.922-3.258.225-3.829l.517 1.074c-.621.354-.468 1.434-.012 2.313.414.891 1.218 1.715 1.865 1.3.579-.342.392-1.089-.075-2.447-.571-1.541-1.13-3.193.251-3.891 1.2-.695 2.474.466 3.325 2.027.752 1.539 1.004 3.232-.274 4.113l-.517-1.075zm-10.184-4.406c.798-.516 1.546.862.748 1.379-.7.539-1.505-.875-.748-1.379zm7.56-4.766l.615 1.097-5.532 3.653-.615-1.098 5.532-3.652zm-4.739-7.603l-3.139 2.533c-.946.777-1.069 1.997-.386 3.02.714 1.12 1.855 1.41 2.774.695l3.181-2.547.683 1.023-3.771 2.998c-.7.54-.847.801-.343 1.396l-.658.526c-.577-.68-1.354-1.565-.325-2.369-1.091.017-1.793-.624-2.404-1.561-1.12-1.693-.728-3.372.562-4.364l3.154-2.484.672 1.134zm-9.212-6.426l3.866 4.651c1.12-1.099.894-2.855-.203-4.179-.576-.679-1.191-1.187-1.998-1.58l.442-.782c.849.381 1.592 1.009 2.169 1.689 1.601 1.918 1.76 4.339.138 6.025-1.528 1.549-3.483 1.136-4.811-.491-1.59-2.03-1.43-4.013.397-5.333zm3.265 5.214l-3.187-3.788c-.915.875-.727 2.213.138 3.233.922 1.056 2.047 1.297 3.049.555zm-4.663-8.538c.442-.782-.143-1.781-.901-2.458-.759-.677-1.732-1.019-2.246-.322-.431.671-.01 1.292.912 2.347.994 1.141 2.034 2.429 1.282 3.683-.752 1.254-2.29.712-3.436-.328-1.145-1.04-1.969-2.663-1.172-3.77l.872.749c-.404.609.124 1.572.826 2.213.701.641 1.649 1.045 2.064.325.363-.596-.058-1.217-.98-2.273-1.051-1.177-2.132-2.451-1.188-3.819.809-1.218 2.317-.774 3.633.374 1.202 1.076 2.037 2.589 1.248 4.015l-.914-.736zm-6.602-5.518c.313-.903-.408-1.753-1.261-2.293-.853-.541-1.865-.71-2.25.108-.317.743.173 1.289 1.231 2.195 1.156.929 2.332 2.068 1.751 3.43-.566 1.411-2.112 1.139-3.363.347-1.251-.793-2.31-2.289-1.698-3.553l.967.612c-.317.743.347 1.557 1.143 2.061s1.781.735 2.083-.057c.249-.668-.226-1.165-1.284-2.071-1.228-1.014-2.457-2.028-1.755-3.589.581-1.362 2.138-1.202 3.586-.363 1.323.877 2.378 2.214 1.816 3.785l-.966-.612z" fill="#C4E0E3"/></svg>