<svg width="706" height="422" fill="none" xmlns="http://www.w3.org/2000/svg"><path d="M275.718 85.702c4.439-2.298 5.293-8.398 5.562-10.859 1.365-10.364-6.073-27.087-21.206-35.995-5.396-3.153-5.361-1.54-27.895-9.865-13.772-5.092-12.486-5.26-15.795-5.896-15.331-3.221-29.033 2.38-40.267 6.921-8.736 3.58-17.881 7.28-26.92 15.82-7.916 7.448-9.476 12.676-22.813 25.853-5.86 5.752-6.008 5.255-9.257 8.93-3.394 3.934-10.968 12.903-14.489 25.751-2.986 11.281.114 14.577-4.58 23.12-1.307 2.339-3.025 4.799-3.697 8.896-.844 5.014.732 7.682 1.29 12.17 1.117 8.975-3.483 11.105-3.514 18.474.041 3.126.844 6.566 15.293 24.013 5.777 7.044 10.407 12.482 18.383 20.926 12.884 13.692 14.758 13.999 18.249 20.102 5.567 9.704 6.334 19 6.721 24.404.478 6.46 1.591 22.146-7.823 35.777-4.802 7.06-10.466 10.481-17.457 15.055a2055.925 2055.925 0 00-47.242 30.973c9.732 8.354 40.888 33.264 89.198 36.5 34.802 2.393 44.312-16.894 90.236-21.282 6.494-.637-12.457-1.804 3.654-12.778 6.683-4.483 9.263-14.885 12.059-18.208-17.517-4.95 2.91-4.439-14.608-9.389.317-12.758.737-25.547 1.054-38.305 7.724-.247 13.687-1.917 17.486-3.374 5.201-1.984 9.613-3.625 12.552-7.964 1.149-1.75 1.722-5.06 2.663-11.618 5.851-38.652 1.752-12.428 3.023-20.492 1.027-7.016 1.229-7.834 1.22-10.105-.052-6.153-1.622-7.308-2.068-12.912-.354-4.548.567-4.823 1.902-15.287.995-7.873 1.492-11.809 1.173-14.745-.909-8.279-4.159-8.717-4.88-17.485-.338-4.121-.586-7.943 1.27-12.177 1.959-4.264 4.56-5.256 4.882-9.032.239-2.56-.601-4.258-2.651-8.517-2.08-4.359-4.087-8.847-6.269-13.175-4.673-9.322-3.96-10.292-7.483-17.25-2.093-4.03-5.363-9.766-10.83-16.145 1.214-.037 2.603-.235 3.874-.83z" fill="#17293B"/><path d="M297.576 141.443c-4.887.051-9.771.858-14.299 2.857-2.264 1-4.396 2.069-6.541 3.466-1.007.734-1.984 1.566-2.8 2.567-.815 1.001-1.439 2.269-1.463 3.683a6.328 6.328 0 00.256 1.98c.207.696.458 1.163.738 1.728l1.417 3.258c.989 2.194 1.948 4.29 3.039 6.454 1.091 2.164 2.254 4.198 3.754 6.24 1.471 1.942 3.146 3.824 4.966 5.446 1.821 1.622 3.582 3.045 4.452 4.842.501.932.768 1.827.728 2.813.046.528-.04.986-.126 1.445-.087.458-.173.917-.391 1.307-.71 1.727-2.446 3.002-4.417 4.239l-1.445.756c-.482.252-.994.404-1.607.587-1.301.496-2.585 1.421-3.489 2.123-2.086 1.596-3.774 4.156-4.32 6.808-.258 1.376-.209 2.66-.028 4.013.075.627.283 1.323.431 1.82.178.596.356 1.193.636 1.759.28.565.619 1.33 1.338 1.873.617.574 1.452.758 2.154.873 1.479.1 3.013-.357 4.004-1.518.495-.581.726-1.299.855-1.987.027-.658-.078-1.384-.358-1.95-.59-1.231-1.632-2.111-2.936-2.371l-.145.259c1.026.452 1.864 1.393 2.16 2.387.296.994.081 2.14-.648 2.682-.7.642-1.753.848-2.69.694-.966-.253-1.421-.658-1.718-1.652-.148-.497-.296-.994-.372-1.621-.075-.627-.223-1.124-.269-1.651-.092-1.055.05-2.072.295-3.119.519-1.995 1.698-3.645 3.537-4.951 1.006-.733 1.736-1.275 2.656-1.55.512-.152 1.096-.435 1.812-.648.584-.283 1.271-.596 1.825-.978 2.073-1.267 4.539-3.085 5.626-5.79 1.057-2.805.637-5.71-.748-8.111-1.384-2.401-3.512-3.931-5.273-5.354-1.761-1.423-3.377-3.106-4.788-4.85-1.441-1.843-2.575-3.778-3.738-5.812a72.84 72.84 0 01-3.214-6.293l-1.622-3.197c-.56-1.132-.929-1.996-.889-2.982.051-2.071 1.639-3.844 3.55-5.279 1.809-1.406 4.014-2.604 6.146-3.673 4.294-2.038 9.088-3.143 13.916-3.392l.043-.23z" fill="#E5E5E5"/><path d="M266.532 199.839c.39-1.307 1.044-2.476 2.051-3.21.452-.351 1.007-.733 1.518-.885a5.328 5.328 0 011.739-.519c1.155-.236 2.458.025 3.643-.112 1.287-.167 2.471-.304 4.138-.693l-.016-.428c-1.029-1.209-2.553-1.836-4.091-2.135a5.447 5.447 0 00-2.296.143c-.716.214-1.535.458-2.221.771-1.505.557-2.759 1.58-3.72 2.841-.829 1.329-1.262 2.866-1.081 4.219l.336.008z" fill="#E5E5E5"/><path d="M256.476 187.035a18.297 18.297 0 00-1.566 3.714c-.39 1.307-.576 2.553-.731 3.898a10.301 10.301 0 00.367 4.22 6.723 6.723 0 002.924 3.457c.69.444 1.32.689 2.082 1.003.732.215 1.362.46 2.065.575 1.537.299 3.059.17 4.418-.127 2.719-.595 5.392-1.716 7.522-3.542l-.089-.298c-1.419.098-2.706.266-4.023.333-1.286.168-2.501.205-3.817.273-1.317.068-2.399.174-3.511.181-.571-.046-1.244-.062-1.742-.238-.6-.146-1.069-.222-1.597-.498-2.022-.804-2.908-3.029-2.976-5.498a47.918 47.918 0 01.088-3.814 20.68 20.68 0 01.893-3.73l-.307.091z" fill="#E5E5E5"/><path d="M259.23 199.635c1.569-2.957 3.666-5.639 6.174-7.686 2.509-2.047 5.473-3.689 8.512-4.703 1.535-.458 3.129-.717 4.402-.555.673.016 1.201.291 1.831.536.528.276 1.349.788 2.243 1.171.498.176.894.383 1.363.46.468.077.864.283 1.333.36.936.153 1.873.307 2.853.231.98-.076 2.106-.411 2.908-1.083.802-.672 1.208-1.551 1.38-2.468l-.263-.138c-2.272 2.842-5.366 1.059-7.975-.22-.66-.344-1.145-.849-2.171-1.301a8.215 8.215 0 00-3.104-.697c-2.019-.048-3.861.502-5.541 1.219-3.359 1.435-6.204 3.474-8.727 5.85-2.492 2.475-4.266 5.493-5.439 8.657l.221.367zm8.383-46.226c.596 2.744 1.294 5.458 2.196 8.112.903 2.653 2.01 5.245 3.219 7.806 1.21 2.562 2.317 5.154 4.213 7.403 1.764 2.18 3.835 4.268 6.299 5.806l.277-.191c-1.137-2.691-2.491-4.993-3.978-7.364-1.385-2.401-3.119-4.482-4.576-6.753-1.457-2.271-2.739-4.703-3.919-7.165-1.282-2.432-2.39-5.024-3.365-7.547l-.366-.107zm-7.453-2.215a44.333 44.333 0 00-15.7-4.085c-5.547-.294-11.001.466-16.367 1.525a109.284 109.284 0 00-7.966 2.051c-2.66.793-5.231 1.885-7.67 3.045-4.95 2.45-9.548 5.337-13.572 9.026l.191.268c5.01-2.252 9.786-4.542 14.782-6.465 4.865-1.992 9.802-4.113 14.947-5.539 5.144-1.426 10.408-2.455 15.66-2.398 5.326-.073 10.538.971 15.549 2.831l.146-.259zm.561-2.224c.347-1.078.328-2.263.206-3.417a6.672 6.672 0 00-1.314-3.288c-.383-.535-.633-1.002-1.118-1.506-.485-.505-1.013-.781-1.54-1.056-.631-.245-1.231-.391-1.874-.307-.673-.016-1.287.167-1.944.579l-.013.329a30.41 30.41 0 002.334 2.226c.617.574 1.584.827 2.332 1.469l.97 1.01c.323.337.573.803.794 1.17.472.834.768 1.828.992 2.951l.175-.16z" fill="#E5E5E5"/><path d="M258.055 148.25c-1.137-2.692-2.815-5.33-5.163-7.228-1.174-.948-2.451-1.866-3.945-2.395-1.494-.528-3.032-.827-4.569-1.127-3.016-.399-6.002-.699-9.09-.969-3.058-.17-6.262-.081-9.318.506-6.111 1.173-12.174 3.63-17.016 7.564-2.407 2.016-4.52 4.27-6.471 6.692a33.976 33.976 0 00-4.696 7.786l.264.138c1.981-2.323 3.991-4.546 6.091-6.471 2.172-2.055 4.374-4.01 6.767-5.698a59.223 59.223 0 017.459-4.497c2.614-1.321 5.288-2.443 8.211-3.098 2.822-.625 5.732-.952 8.761-.881a274.7 274.7 0 018.941.472c1.478.101 2.986.301 4.319.661a13.961 13.961 0 013.826 1.998c2.391 1.668 4.215 4.046 5.527 6.577l.102-.03zm20.792-3.495c.568-.71 1.033-1.39 1.631-2.001.597-.611 1.224-1.123 1.852-1.635.627-.512 1.475-.656 1.97-1.237a21.6 21.6 0 00.816-1.001c.218-.39.538-.81.829-1.329l-.089-.299c-1.158-.52-2.211-.314-3.234-.009-.993.404-1.502 1.313-2.04 2.123-.538.81-1.077 1.62-1.351 2.568-.304.848-.578 1.796-.648 2.682l.264.138z" fill="#E5E5E5"/><path d="M282.731 142.839c1.383-1.711 3.001-3.384 4.737-4.66.905-.702 1.737-1.275 2.73-1.679.891-.374 2.162-.97 3.096-1.573.482-.252 1.036-.634 1.518-.886s1.036-.633 1.168-.565c.103-.03 0 0 0 0l.03.1c.132.069.425.306.646.673.221.367.442.734.722 1.3.221.367.471.833.62 1.33.398.964.593 1.988.816 3.112l.337.008c.683-1.07 1.001-2.247 1.084-3.462a5.717 5.717 0 00-.227-1.881l-.533-1.789c-.28-.566-.722-1.3-1.441-1.843a2.909 2.909 0 00-1.494-.528c-.571-.047-1.317.067-1.697.289-.861.473-1.181.893-1.633 1.245-.453.351-.905.702-1.255 1.023-.904.703-1.663 1.146-2.802 1.81-1.007.733-1.911 1.436-2.756 2.337a21.154 21.154 0 00-3.9 5.601l.234.038zm11.407-12.926c-.981-4.037-2.269-7.982-3.587-12.027-1.39-3.914-2.78-7.829-4.507-11.752-1.697-3.823-3.424-7.746-6.012-11.195-2.456-3.38-5.322-6.638-8.755-9.186l-.277.19c2.004 3.732 4.256 7.174 6.332 10.776 2.047 3.502 4.401 6.913 6.376 10.545 1.974 3.632 3.641 7.356 5.236 11.21a240.897 240.897 0 014.755 11.462l.439-.023zm-37.176-45.844c2.263-5.113 3.338-10.845 2.556-16.456-.105-.727-.18-1.354-.388-2.05l-.194-1.024-.296-.994a28.465 28.465 0 00-1.523-3.983c-1.311-2.531-2.9-4.872-4.869-6.99-1.969-2.12-4.185-3.948-6.547-5.516-1.246-.82-2.463-1.538-3.753-2.128-1.29-.59-2.609-1.278-4.074-1.707-2.725-.92-5.698-1.548-8.697-1.52-2.999.029-5.88.455-8.731.98-2.851.526-5.613 1.35-8.405 2.074-2.792.724-5.481 1.418-8.273 2.142-5.481 1.419-11.051 2.538-16.519 3.628-5.57 1.12-11.127 1.911-16.786 2.733-5.587.692-11.305 1.315-16.98 1.708l-.014.329c11.386.826 22.899.206 34.26-1.666 1.389-.198 2.851-.526 4.24-.724l4.211-.822c2.821-.625 5.613-1.35 8.375-2.173 5.554-1.548 10.917-3.364 16.428-4.683 2.719-.594 5.467-1.09 8.232-1.156a23.76 23.76 0 018.037 1.175c2.564.75 5.071 2.06 7.373 3.43 2.332 1.469 4.489 3.098 6.398 5.018 1.909 1.92 3.571 4.13 4.824 6.463.59 1.231 1.18 2.462 1.565 3.754l.399.964.296.994c.208.695.283 1.322.491 2.018.927 5.352.158 10.992-1.87 16.143l.234.039z" fill="#E5E5E5"/><path d="M262.341 82.68c3.055-4.698 4.995-10.147 5.559-15.727.534-5.68-.614-11.398-3.238-16.46-2.623-5.063-6.65-9.598-11.723-12.415l-1.979-1.033-2.051-.903c-1.363-.46-2.755-1.019-4.16-1.25-2.871-.659-5.725-.89-8.592-.792l-.013.328c5.433 1.41 10.546 3.24 15.006 6.24a54.697 54.697 0 016.236 4.851c1.982 1.79 3.614 3.901 4.94 6.104 2.68 4.504 4.148 9.802 3.862 15.191-.083 5.328-1.686 10.785-4.242 15.66l.395.207z" fill="#E5E5E5"/><path d="M267.674 84.879c1.699.467 3.441.706 5.166.515 1.726-.19 3.568-.739 4.806-2.19 1.238-1.452 1.582-3.286 1.517-4.998.037-1.743-.13-3.425-.4-5.076a152.65 152.65 0 00-1.647-10.008c-.774-3.34-1.752-6.62-3.212-9.649-1.49-3.127-3.359-6.033-5.68-8.588a49.785 49.785 0 00-7.46-7.084c-2.744-2.104-5.633-3.948-8.77-5.502-1.584-.826-3.21-1.424-4.836-2.02-1.627-.598-3.428-1.035-5.097-1.403-6.678-1.473-13.312-3.174-19.801-5.135-3.296-.966-6.519-2.06-9.814-3.026-3.326-1.065-7.001-1.809-10.643-1.697-7.316.125-14.124 2.697-20.286 5.941a101.112 101.112 0 00-8.845 5.452c-1.387.955-2.714 2.108-4.202 3.093-1.357 1.054-2.684 2.208-4.011 3.361l.191.268 4.291-2.795c1.518-.886 2.905-1.84 4.452-2.627 2.935-1.74 6.03-3.313 9.054-4.756 6.207-2.717 12.695-4.868 19.294-4.78 3.336-.02 6.411.578 9.634 1.673 3.193.996 6.519 2.06 9.887 2.896 6.664 1.801 13.371 3.373 20.091 4.616 1.67.368 3.309.636 4.804 1.165 1.524.628 3.121 1.126 4.674 1.853 2.976 1.385 5.938 3.1 8.55 5.135 5.296 3.94 9.91 8.95 12.975 14.747 3.095 5.895 4.276 12.47 5.355 19.075.269 1.652.539 3.303.574 4.916.036 1.613-.236 3.317-1.299 4.608-1.063 1.292-2.67 1.88-4.366 2.169-1.726.19-3.439.05-5.006-.348l.06.199zm-43.472 2.898c-2.47-3.052-6.151-5.31-10.235-5.931-.469-.077-1.039-.123-1.508-.2a8.05 8.05 0 00-1.551.03c-1.082.106-2.135.312-3.098.816-1.958.908-3.532 2.352-4.902 3.734-2.843 2.796-5.685 5.592-8.94 7.753-3.224 2.26-6.7 4.055-10.366 5.58-1.783.749-3.697 1.428-5.611 2.107-1.914.679-3.726 1.327-5.567 1.877-1.841.549-3.815 1.029-5.686 1.479-1.871.449-3.874.83-5.804 1.081a114.232 114.232 0 01-11.774 1.238c-3.949.204-7.958.209-11.894.084l-.014.329c7.806 1.893 16.002 2.48 24.162 1.453 4.095-.463 8.041-1.424 12.002-2.713 1.914-.679 3.9-1.488 5.683-2.236 1.884-.778 3.768-1.557 5.521-2.404 3.739-1.656 7.36-3.71 10.525-6.17a53.112 53.112 0 004.609-3.971c1.472-1.414 2.812-2.896 4.183-4.278 1.37-1.383 2.74-2.766 4.36-3.682 1.621-.916 3.581-1.068 5.527-.89 3.894.354 7.515 2.412 10.13 5.204l.248-.29zm-56.319 64.418a57.61 57.61 0 00-7.904 3.006c-1.271.595-2.512 1.29-3.753 1.985-1.241.695-2.482 1.39-3.693 2.184-1.211.794-2.423 1.588-3.605 2.482-1.181.893-2.172 2.054-3.03 3.285-1.615 2.429-2.775 5.265-2.823 8.093l.264.138c1.747-2.361 3.246-4.432 5.009-6.365 1.763-1.932 3.424-3.835 5.583-5.561 1.079-.863 2.188-1.626 3.268-2.49 1.109-.763 2.218-1.527 3.429-2.321 2.32-1.558 4.73-2.818 7.271-4.008l-.016-.428zm-.792 7.055c-1.284.924-2.407 2.016-3.5 3.208-1.092 1.192-2.185 2.384-3.146 3.644-.961 1.261-2.156 2.483-2.589 4.019-.535 1.567-.734 3.141-.435 4.892l.264.138c.729-.542 1.195-1.222 1.69-1.803.495-.581.961-1.261 1.324-1.91.859-1.23 1.19-2.736 1.887-4.134.697-1.399 1.423-2.698 2.15-3.997.726-1.299 1.658-2.659 2.516-3.889l-.161-.168zm.997 11.933c-.315 1.934-.659 3.768-.974 5.702a111.368 111.368 0 00-.768 5.641c-.212 1.903-.761 3.798-.637 5.709a15.537 15.537 0 001.178 5.818l.337.008a13.584 13.584 0 001.028-2.904c.274-.947.446-1.865.618-2.782.344-1.834.088-3.814.096-5.656-.022-1.942-.147-3.853-.169-5.795-.124-1.911-.146-3.853-.373-5.733l-.336-.008zm-6.115 3.772c-1.314.825-2.334 1.886-3.295 3.147-.961 1.261-1.658 2.659-1.959 4.264-.433 1.536-.807 3.271-.26 4.732.547 1.46 1.43 2.928 3.014 3.755l.277-.191c.067-1.643-.084-2.897-.133-4.181l-.227-1.881c-.075-.627-.253-1.223-.124-1.911.054-1.315.341-2.591.863-3.829.493-1.338 1.249-2.537 2.137-3.668l-.293-.237zm-6.734-8.383c-1.239 1.452-2.315 3.071-3.128 4.829-.812 1.758-1.332 3.752-1.442 5.625-.212 1.903-.365 4.005.301 5.863.296.994.768 1.828 1.341 2.631.574.803 1.25 1.575 2.101 2.188l.277-.191c-.052-2.041-.321-3.693-.518-5.474-.135-.826-.27-1.651-.434-2.576a10.754 10.754 0 01-.434-2.577 21.093 21.093 0 01.448-5.22c.374-1.735 1.084-3.462 1.824-5.09l-.336-.008zm-9.619 25.273l-7.38-13.168c-.663-1.102-1.457-2.272-2.704-3.091-.587-.474-1.319-.688-2.052-.903-.732-.214-1.507-.2-2.181-.215-.775.014-1.491.228-2.177.541-.687.313-1.416.855-1.869 1.206a26.454 26.454 0 00-2.71 2.865c-.816 1.001-1.763 1.933-2.46 3.331-.697 1.399-.926 2.874-.949 4.288.084 2.897.927 5.352 2.077 7.714 1.151 2.363 2.446 4.466 3.874 6.638 1.427 2.172 3 4.084 4.982 5.874l.277-.191c-1.12-2.263-2.241-4.527-3.23-6.721-.916-2.325-2.036-4.588-2.82-6.844-.887-2.225-1.671-4.48-1.884-6.689-.092-1.055.021-2.171.325-3.02.304-.848 1.12-1.849 1.833-2.819.815-1.001 1.631-2.002 2.403-2.773.423-.451.773-.772 1.182-.894.38-.221.994-.404 1.432-.427 1.083-.106 2.224-.014 3.075.598.924.483 1.659 1.454 2.394 2.425 2.664 4.076 5.592 8.29 8.387 12.435l.175-.16z" fill="#E5E5E5"/><path d="M147.002 193.489a14.218 14.218 0 00-.397 3.149c-.011 1.086-.021 2.171.173 3.196.194 1.024.55 2.217 1.285 3.188.353.436.838.941 1.468 1.186s1.23.391 1.699.467c.937.154 1.728.567 2.579 1.179.426.306.821.513 1.145.85.323.336.544.703.603.902.03.099.03.099-.043.229 0 0-.073.13-.175.161-.073.13-.277.191-.38.221l-.307.092c-.438.022-1.23-.391-2.081-1.003-1.702-1.224-3.668-2.586-5.894-3.329-1.129-.422-2.402-.583-3.646-.645-1.244-.062-2.369.274-3.247.319-1.521.129-3.236-.767-4.631-2.082-1.395-1.316-2.397-3.182-3.502-5.017l-.306.091c.183 2.11.733 4.327 1.999 6.331 1.236 1.904 3.423 3.633 6.349 3.735 1.347.031 2.297-.144 3.204-.09.878-.045 1.815.108 2.679.392 1.904.406 3.546 1.432 5.423 2.495.528.276.953.582 1.584.827.63.245 1.362.46 2.21.315l.614-.183c.204-.061.409-.122.584-.283.277-.191.657-.412.904-.702.248-.291.568-.711.654-1.169a3.115 3.115 0 00-.078-1.384 3.835 3.835 0 00-1.25-1.576c-.455-.405-.983-.681-1.408-.987-.953-.581-2.213-1.071-3.355-1.164-.571-.046-1.039-.123-1.405-.23-.367-.107-.792-.413-1.086-.651-.646-.673-1.015-1.537-1.311-2.531-.491-2.018-.675-4.128-.39-6.161l-.264-.138zm-5.696-4.903c-.805-.085-1.551.029-2.37.273-.818.244-1.534.458-2.293.901-.759.443-1.65.817-1.954 1.665-.304.848-.374 1.735.156 2.767l.264.138c1.126-.336 1.68-.717 2.132-1.069.555-.382.582-1.039 1.004-1.49.393-.55.816-1.001 1.341-1.482.524-.481 1.079-.863 1.736-1.275l-.016-.428zm49.061-83.9c-1.922 2.521-4.299 4.637-7.088 6.118-2.686 1.451-5.801 1.838-8.916 2.226-1.624.159-3.145.288-4.798.348s-3.174.189-4.768.448c-3.188.518-6.273 1.005-9.547 1.981l-.013.329c3.237.767 6.5.876 9.704.786 3.203-.089 6.434-.836 9.592-1.453 1.564-.359 3.231-.747 4.765-1.205 1.637-.488 3.215-1.175 4.601-2.13 2.772-1.909 4.928-4.392 6.527-7.249l-.059-.199zm55.642 58.087c-.943-1.667-2.061-3.173-3.383-4.619-.646-.673-1.293-1.346-2.041-1.989-.749-.642-1.6-1.254-2.699-1.576-2.094-.674-4.229-.362-6.13-.012-.95.175-1.973.48-2.894.755-.993.404-1.885.778-2.746 1.252-3.475 1.794-6.878 3.458-10.06 5.489-1.591 1.016-3.109 1.901-4.819 2.519-1.709.618-3.478 1.038-5.481 1.418l-.013.329a15.44 15.44 0 006.015.371c2.032-.281 4.019-1.09 5.772-1.938 1.752-.847 3.475-1.794 5.036-2.909 1.591-1.015 3.255-2.161 4.743-3.146.862-.473 1.591-1.015 2.38-1.359.789-.343 1.709-.618 2.528-.862 1.739-.519 3.537-.839 5.207-.47 1.639.268 3.034 1.584 4.4 2.8 1.365 1.217 2.658 2.563 3.775 4.069l.41-.122z" fill="#E5E5E5"/><path d="M211.249 163.507c2.891-1.512 5.753-3.123 8.644-4.634 2.891-1.512 5.812-2.924 8.792-4.137.716-.214 1.505-.557 2.25-.672.819-.244 1.565-.358 2.383-.602 1.564-.358 3.026-.686 4.313-.853 1.389-.198 2.692.063 3.982.652 1.29.59 2.566 1.508 3.697 2.686l.278-.191a7.887 7.887 0 00-2.753-4.374 11.745 11.745 0 00-2.434-1.439c-.894-.383-1.934-.506-2.841-.56-1.917-.078-3.656.441-5.263 1.028l-2.294.901-2.366 1.03c-2.994 1.542-5.825 3.253-8.628 5.062-2.67 1.879-5.443 3.788-7.981 5.736l.221.367z" fill="#E5E5E5"/><path d="M229.181 158.267c-.172.917-.212 1.903-.047 2.828.062.956.226 1.881.523 2.875.148.497.296.994.649 1.43.25.466.735.971 1.292 1.346 1.188.62 2.534.651 3.66.316 1.125-.336 2.221-.771 3.198-1.603 1.006-.733 1.66-1.903 1.846-3.148.4-2.393-.75-4.756-2.699-5.69l-.278.191c.461 1.919.394 3.563-.128 4.801a8.437 8.437 0 01-.944 1.689c-.393.55-1.02 1.061-1.707 1.374-1.402.527-2.574.335-3.282-1.294-.34-.764-.709-1.628-.975-2.523-.267-.895-.402-1.72-.567-2.645l-.541.053z" fill="#E5E5E5"/><path d="M234.254 156.971c1.422.658 2.246 1.928 2.06 3.174-.083 1.215-1.176 2.407-1.878 2.292-.644.083-1.174-.949-1.675-1.882-.251-.466-.472-.833-.547-1.46-.076-.627-.049-1.285.021-2.171l-.264-.138c-.891.374-1.591 1.016-1.998 1.894-.406.879-.519 1.995-.222 2.989.296.994.87 1.797 1.75 2.509.426.306.954.581 1.554.727.601.146 1.274.161 1.887-.022 1.228-.366 1.971-1.237 2.509-2.047.406-.879.579-1.796.414-2.721-.329-1.85-1.958-3.204-3.568-3.373l-.043.229zm10.988 8.088c-1.214.037-2.429.074-3.613.211-1.214.038-2.399.174-3.686.342-2.442.403-4.781.776-7.15 1.05-1.185.137-2.37.273-3.409.15-1.112.007-2.151-.116-3.19-.239-1.04-.123-2.109-.345-3.28-.537l-3.5-.904-.145.259c1.397 2.073 3.729 3.542 6.293 4.293 1.332.36 2.679.392 3.966.224 1.286-.167 2.514-.533 3.771-.8 1.258-.267 2.383-.602 3.508-.938l3.478-1.037c2.221-.771 4.663-1.174 6.944-1.746l.013-.328z" fill="#E5E5E5"/><path d="M220.453 164.117a18.046 18.046 0 004.721 2.381c1.728.566 3.573.774 5.358.783 1.814.108 3.556.346 5.296-.172.818-.244 1.739-.519 2.527-.862.789-.344 1.651-.817 2.35-1.459l-.088-.298c-.967-.253-1.772-.338-2.679-.392-.908-.054-1.713-.138-2.59-.093-1.683-.04-3.29.548-5.016.738-1.726.19-3.349.349-4.959.18-1.713-.139-3.28-.537-4.906-1.135l-.014.329zm54.274-10.016c1.004-1.49 2.169-2.811 3.526-3.865a13.626 13.626 0 014.63-2.031c.819-.244 1.594-.258 2.399-.174.805.085 1.376.131 2.079.246 1.405.23 2.622.95 4.192 2.105l.307-.091c.08-1.973-1.317-4.045-3.472-4.918-1.025-.452-2.269-.514-3.322-.308a15.443 15.443 0 00-2.967.885c-.891.374-1.752.847-2.614 1.32-.831.573-1.531 1.215-2.231 1.857-1.34 1.482-2.315 3.071-2.791 4.836l.264.138z" fill="#E5E5E5"/><path d="M276.232 153.544c1.327-1.153 2.947-2.07 4.511-2.428 1.667-.389 3.392-.578 4.725-.218.63.245 1.188.62 1.438 1.086l.604.903c.22.367.705.872 1.263 1.246 1.246.819 2.665.721 3.761.286 1.095-.435 1.898-1.107 2.436-1.917l-.191-.268c-.98.076-1.858.121-2.663.037-.703-.116-1.231-.391-1.422-.659-.132-.069-.221-.367-.514-.604a5.483 5.483 0 00-1.029-1.209c-.91-.81-2.038-1.232-3.21-1.424-1.068-.222-2.121-.016-3.174.189-1.023.306-1.841.55-2.703 1.023-1.752.847-3.254 2.161-4.258 3.651l.426.306z" fill="#E5E5E5"/><path d="M287.453 153.445c-.056.558-.142 1.016-.36 1.406-.086.459-.304.848-.522 1.238-.218.39-.7.642-.582 1.039.017.428.267.895.739 1.728l.263.138c1.01.024 1.565-.358 1.987-.809.423-.451.186-1.246.14-1.773a4.909 4.909 0 00-.504-1.69c-.251-.466-.501-.933-.956-1.338l-.205.061z" fill="#E5E5E5"/><path d="M289.251 156.48c-.127 1.445-.781 2.614-1.685 3.317-.452.351-1.066.534-1.68.717-.716.214-1.257.267-1.901.351-.643.083-1.244-.062-1.844-.208-.6-.146-1.201-.291-1.772-.338l-1.976-.276c-.703-.115-1.405-.23-2.21-.315l-.146.26c.577 1.56 1.913 2.677 3.437 3.304 1.524.628 3.352.408 4.916.05.818-.244 1.637-.489 2.293-.901.657-.412 1.416-.855 1.984-1.566 1.064-1.291 1.437-3.026.92-4.387l-.336-.008z" fill="#E5E5E5"/><path d="M276.882 159.087c.792.413 1.554.727 2.345 1.14.792.414 1.554.728 2.418 1.011.396.207.894.383 1.363.46.498.176 1.039.123 1.58.069 1.023-.305 1.987-.809 2.436-1.917l-.089-.298c-1.055-.551-1.758-.666-2.49-.881-.366-.107-.673-.015-1.01-.023-.307.091-.746.114-1.185.137-.805-.085-1.682-.04-2.59-.094-.877.045-1.682-.039-2.662.037l-.116.359z" fill="#E5E5E5"/><path d="M279.184 152.988c-.1.788-.169 1.674-.034 2.5.032.856.137 1.582.302 2.507.266.895 1.002 1.866 1.925 2.348a6.21 6.21 0 003.002.729c.542-.053 1.185-.137 1.769-.42a4.784 4.784 0 001.459-1.084c.743-.871 1.192-1.979 1.233-2.965.05-2.072-.922-3.838-2.463-4.894l-.277.191c.033.856-.067 1.643-.064 2.4-.129.688-.156 1.345-.314 1.934-.159.588-.347 1.077-.565 1.467-.218.39-.364.65-.977.833-.512.152-1.185.136-1.815-.109-.601-.145-1.026-.451-1.336-1.117a13.87 13.87 0 01-.856-2.125c-.208-.696-.445-1.491-.58-2.317l-.409.122z" fill="#E5E5E5"/><path d="M281.639 151.499a7.886 7.886 0 00-.711 1.727c-.158.589-.185 1.246-.212 1.903.076.627.21 1.453.857 2.126.323.337.851.612 1.217.719.468.077.937.154 1.376.131a2.51 2.51 0 001.402-.526c.482-.252.977-.833 1.166-1.322.376-.978.314-1.934.005-2.599-.31-.665-.722-1.3-1.28-1.675-.587-.474-1.115-.75-1.949-.934l-.278.191c.003.757.152 1.254.227 1.881.046.527.092 1.055.108 1.483.016.428.003.757.135.825.03.1.132.069.132.069.03.1-.073.13-.175.161-.307.091-.614.183-.746.114-.234-.038-.557-.375-.705-.872-.251-.466-.297-.994-.372-1.621-.046-.527-.092-1.055-.065-1.712l-.132-.069zm-28.301 79.549c3.497.148 6.991-.462 10.308-1.667 1.71-.618 3.198-1.603 4.63-2.03.717-.214 1.535-.458 2.281-.572.746-.114 1.623-.159 2.501-.205 1.755-.09 3.408-.15 5.164-.241.877-.045 1.653-.06 2.531-.105.877-.045 1.755-.091 2.778-.396.921-.274 1.812-.648 2.6-.992.38-.221.789-.343 1.066-.534l.819-.244c.541-.053 1.435.329 2.445.353 1.009.024 1.96-.152 2.719-.594l-.089-.299c-.907-.054-1.713-.138-2.372-.483-.63-.245-1.247-.818-2.448-1.11-.6-.145-1.273-.161-1.785-.009-.541.054-1.053.206-1.462.328-.818.244-1.534.458-2.28.572-.643.084-1.419.098-2.297.144-.877.045-1.725.189-2.573.334l-5.118.769c-.848.144-1.696.289-2.647.464-.92.275-1.739.519-2.63.893-1.782.748-3.139 1.802-4.614 2.458-2.993 1.542-6.297 2.419-9.748 2.799l.221.367z" fill="#E5E5E5"/><path d="M292.699 220.717c-.534-1.789-1.199-3.647-2.142-5.314-.471-.834-1.074-1.736-2.028-2.318a3.18 3.18 0 00-1.728-.567c-.673-.016-1.36.297-1.739.519-1.621.916-3.317 1.205-5.016.738-.835-.184-1.933-.506-3.045-.499-1.112.007-2.297.144-3.392.579-2.192.87-3.737 2.413-5.166 3.597-1.43 1.183-2.889 2.268-4.45 3.383-2.99 2.299-6.275 4.361-9.47 6.72l.089.299c3.874-.831 7.643-2.388 11.03-4.48a28.864 28.864 0 004.799-3.704c1.443-1.513 2.608-2.834 4.054-3.59a6.632 6.632 0 012.382-.603c.776-.014 1.713.139 2.752.262 2.108.346 4.491-.257 6.257-1.433.379-.221.657-.412.963-.504.337.008.674.016 1.069.223.762.314 1.306 1.017 1.85 1.721 1.118 1.507 1.959 3.204 2.697 4.932l.234.039zm-25.672 16.639c2.474.453 4.859.607 7.42.601 2.56-.006 5.032-.31 7.444-.813 2.412-.503 5.161-.998 7.32-2.724.525-.481 1.079-.863 1.574-1.443a7.098 7.098 0 001.12-1.85c.522-1.238.78-2.613.629-3.867l-.366-.107a15.935 15.935 0 01-2.199 2.712 9.566 9.566 0 01-2.466 1.817c-1.825.978-3.928 2.146-6.178 2.817-2.251.671-4.633 1.273-6.973 1.646-2.339.373-4.841.578-7.269.653l-.056.558zm-19.363-39.9c-1.241.695-2.393 1.688-3.515 2.78l-1.486 1.742c-.363.649-.829 1.329-1.192 1.979a11.984 11.984 0 00-.929 2.117c-.231.718-.433 1.536-.43 2.293.006 1.513.48 3.104 1.509 4.312l.307-.091a14.14 14.14 0 00.724-2.056c.261-.619.39-1.307.548-1.896.318-1.177.269-2.461.557-3.737.287-1.277.809-2.515 1.463-3.684s1.44-2.269 2.431-3.43l.013-.329zm21.137 48.462c1.753-.847 3.433-1.565 5.231-1.885 1.769-.419 3.626-.54 5.411-.531 1.786.009 3.382.507 5.022.775.835.184 1.567.399 2.431.682.865.284 1.627.598 2.652 1.049l.278-.19c-.593-1.988-2.282-3.541-4.201-4.376-1.026-.451-2.095-.674-3.178-.568-1.111.007-2.062.183-3.144.289-1.053.206-1.901.35-2.924.655-.921.275-1.944.58-2.835.954-1.752.847-3.475 1.794-4.977 3.108l.234.038z" fill="#E5E5E5"/><path d="M297.951 143.82c-2.229 2.613-3.709 5.869-4.077 9.117l-.507 5.022c-.17 1.674-.207 3.417.063 5.068.335 3.364 1.926 6.461 2.948 9.511.576 1.56.919 3.082 1.086 4.763.24 1.552.071 3.226.106 4.839a43.434 43.434 0 01-.696 5.511l-.516 2.752c-.172.917-.212 1.903-.384 2.82-.323 3.776-.645 7.552-.864 11.298-.22 3.745-.206 7.529-.06 11.382.125 1.911.249 3.822.578 5.672.164.925.329 1.85.464 2.676.032.856.094 1.812.025 2.698-.008 1.843-.25 3.646-.624 5.381-.373 1.735-1.084 3.462-1.633 5.358-1.229 3.722-1.624 7.628-1.58 11.511.022 1.942.279 3.922.373 5.733.033.856.036 1.613-.166 2.431a12.456 12.456 0 01-1.001 2.247c-1.876 3.049-4.382 5.852-7.432 7.952l.687-.313c-.512.153-.993.405-1.343.726l-.657.412c-.482.252-.832.573-1.344.725-.481.252-.963.504-1.475.657l-1.505.557c-2.016.709-4.092 1.22-6.197 1.631-2.105.412-4.24.724-6.537.867-1.082.107-2.164.213-3.276.22l-1.653.06-1.785-.009.204-.061a188.179 188.179 0 01-11.399-.497c-1.947-.177-3.791-.385-5.636-.592l-2.781-.362-1.405-.23-.703-.115-.337-.008-.131-.069-.132-.069c-.132-.068-.337-.007-.469-.076l.571.046a479.61 479.61 0 01-26.637-6.019c-4.437-1.058-8.802-2.245-13.269-3.403-4.467-1.157-8.758-2.475-13.225-3.632l-.146.26c4.279 1.646 8.528 3.193 12.849 4.61 4.322 1.417 8.643 2.835 13.038 4.122 8.715 2.704 17.62 4.919 26.567 6.905l.571.046c-.103.031-.205.061-.337-.008-.102.031-.102.031 0 0l.234.039.366.107.703.115 1.406.23c.937.154 1.874.307 2.913.43 1.976.277 3.82.485 5.767.662 3.893.354 7.757.609 11.634.535l.204-.061.235.038.438-.022.878-.045 1.755-.091c1.112-.007 2.297-.144 3.379-.25a72.183 72.183 0 006.814-1.058c2.31-.472 4.459-1.113 6.68-1.884l1.577-.686c.482-.252 1.066-.535 1.548-.787s1.036-.634 1.518-.885l.759-.443c.103-.031-.029-.1.043-.23l.687-.313c3.268-2.489 5.949-5.453 8.013-8.991.508-.91.987-1.918 1.232-2.965s.328-2.263.163-3.188c-.153-2.01-.453-3.761-.445-5.603-.087-3.654.265-7.331 1.319-10.892.476-1.766 1.157-3.592 1.574-5.557.417-1.964.526-3.837.607-5.809.04-.986-.022-1.941-.114-2.996s-.359-1.95-.523-2.875a43.881 43.881 0 01-.621-5.443c-.219-3.723-.233-7.507-.116-11.222.118-3.715.338-7.46.558-11.206.069-.886.109-1.872.282-2.79.069-.886.344-1.834.516-2.751.344-1.835.527-3.837.636-5.71.038-1.743.075-3.486-.195-5.137-.269-1.651-.671-3.371-1.247-4.931-1.154-3.12-2.716-6.117-3.123-9.351-.27-1.651-.203-3.295-.136-4.938.067-1.644.236-3.318.405-4.992.368-3.248 1.746-6.473 3.77-9.025l-.304.848zm-164.985 71.713c2.572 3.021 5.903 5.599 9.291 7.62 1.745.995 3.519 2.089 5.614 2.763 2.168.544 4.566.37 6.655-.469 2.119-.74 3.958-2.046 5.592-3.291.831-.573 1.634-1.245 2.29-1.657.278-.191.585-.283.482-.252 0 0-.102.03-.132-.069l-.132-.069c-.191-.268-.161-.168-.132-.069.31.665.504 1.69.669 2.615.267.894.461 1.919.625 2.844.461 1.919.922 3.838 1.617 5.795l.337.008c.284-2.033.365-4.005.313-6.046.04-.986-.052-2.041-.114-2.997-.092-1.055-.124-1.911-.407-3.234-.089-.298-.237-.795-.854-1.368-.293-.238-.557-.375-.821-.513-.264-.138-.601-.146-.835-.184-1.141-.093-1.901.35-2.382.602-1.139.664-1.839 1.306-2.641 1.978-1.502 1.314-2.931 2.498-4.582 3.315-1.65.816-3.478 1.037-5.22.799-1.772-.338-3.589-1.203-5.304-2.098-1.818-.865-3.533-1.761-5.205-2.886-1.673-1.125-3.243-2.28-4.667-3.695l-.057.558zm11.132 11.183c2.824 7.601 4.552 15.636 5.197 23.777.514 8.073.413 16.328-1.356 24.216-.417 1.964-.966 3.86-1.587 5.885a144.57 144.57 0 01-2.085 5.709c-1.537 3.813-3.103 7.527-5.094 10.935-2.094 3.439-4.775 6.403-7.749 9.13-3.077 2.757-6.506 5.079-10.157 7.033l.089.298c8.082-2.41 15.641-7.695 20.515-14.884 1.252-1.781 2.239-3.699 3.095-5.686a78.28 78.28 0 002.26-5.869 78.529 78.529 0 003.29-12.129c.774-4.127 1.109-8.232 1.079-12.444a116.416 116.416 0 00-.676-12.353c-.982-8.15-3.251-16.132-6.514-23.709l-.307.091zm115.607 51.463c-.274 5.06-.679 10.052-1.289 15.104a323.8 323.8 0 01-2.196 15.05c-.741 4.984-1.79 10.059-1.697 15.226.097 2.569.195 5.137.599 7.614.302 2.508 1.043 4.993 1.682 7.508l.307-.092c.239-2.56.141-5.129.206-7.529.136-2.53.171-5.03.337-7.46.405-4.992.606-9.922 1.113-14.944.508-5.022.986-10.143 1.259-15.203.171-5.03.21-10.129.045-15.166l-.366-.108zm.166 35.667c1.23.391 2.431.682 3.559 1.103 1.231.391 2.432.682 3.53 1.004 1.201.291 2.286.942 3.53 1.004.673.015 1.244.062 1.858-.121.643-.084 1.257-.267 2.075-.511l.014-.329c-.515-.604-1.072-.979-1.63-1.354-.557-.375-1.187-.62-1.685-.796-1.158-.52-2.517-.223-3.791-.385-1.244-.062-2.488-.124-3.804-.056-1.214.038-2.561.006-3.848.173l.192.268zm-47.557-35.821c.246 3.065.492 6.13.533 9.257.143 3.096.185 6.223.196 9.25.012 3.027-.386 6.176-.242 9.272.143 3.096.287 6.192.971 9.235l.337.007c1.1-3.034 1.63-6.114 1.895-9.332.296-3.118-.082-6.253-.357-9.418a139.58 139.58 0 00-1.104-9.303c-.48-3.104-1.062-6.178-1.849-9.19l-.38.222zm44.485 16.931c-.387 2.064-.936 3.959-1.821 5.847-.407.879-.915 1.788-1.424 2.697-.509.91-1.047 1.719-1.717 2.46-.67.741-1.341 1.483-2.04 2.124-.7.642-1.37 1.383-2.173 2.055-1.34 1.482-2.812 2.895-4.196 4.607l.191.267c1.185-.137 2.208-.442 3.304-.877.993-.404 2.029-1.038 2.934-1.74 1.838-1.306 3.031-3.285 4.15-5.135 1.12-1.849 1.946-3.935 2.538-6.06.489-2.094.744-4.226.663-6.367l-.409.122z" fill="#E5E5E5"/><path d="M430.351 121.1c-4.659-1.871-6.099-7.887-6.605-10.322-2.361-10.232 3.469-27.667 17.743-38.028 5.092-3.671 5.212-2.055 26.942-12.544 13.281-6.415 11.979-6.459 15.226-7.413 15.019-4.694 29.257-.41 40.926 3.05 9.078 2.739 18.577 5.56 28.435 13.23 8.631 6.686 10.694 11.763 25.295 23.656 6.412 5.188 6.512 4.677 10.114 8.038 3.771 3.608 12.206 11.848 16.961 24.355 4.07 10.991 1.287 14.586 6.801 22.676 1.532 2.212 3.485 4.507 4.551 8.539 1.326 4.932.007 7.751-.12 12.292-.254 9.081 4.551 10.768 5.289 18.133.26 3.13-.213 6.647-12.982 25.478-5.099 7.599-9.205 13.481-16.369 22.691-11.566 14.927-13.41 15.414-16.314 21.851-4.633 10.238-4.507 19.606-4.374 25.047.143 6.504.538 22.295 11.261 35.019 5.479 6.597 11.47 9.473 18.9 13.375a2061.182 2061.182 0 0150.211 26.427c-8.927 9.288-37.685 37.188-85.675 45.066-34.566 5.738-45.928-12.632-92.267-12.605-6.554-.013 12.283-3.002-4.88-12.425-7.114-3.84-10.693-13.992-13.808-17.046 17.039-6.633-3.336-4.159 13.703-10.792-1.543-12.725-3.191-25.471-4.735-38.196-7.746.495-13.869-.601-17.807-1.694-5.391-1.483-9.96-2.699-13.316-6.756-1.317-1.639-2.208-4.893-3.778-11.36-9.566-38.083-2.947-12.257-4.993-20.198-1.701-6.916-1.981-7.715-2.191-9.985-.539-6.158.92-7.464.827-13.109-.083-4.582-1.03-4.768-3.371-15.102-1.751-7.776-2.626-11.664-2.59-14.63.113-8.365 3.321-9.115 3.199-17.951-.059-4.153-.178-7.998-2.441-12.052-2.368-4.076-5.064-4.818-5.749-8.562-.485-2.537.192-4.315 1.833-8.771 1.66-4.557 3.235-9.238 5.001-13.775 3.777-9.769 2.97-10.671 5.824-17.967 1.705-4.23 4.424-10.279 9.277-17.182-1.218.079-2.626.015-3.954-.458z" fill="#17293B"/><path d="M413.855 178.933c4.89-.419 9.851-.082 14.57 1.482 2.36.782 4.594 1.646 6.874 2.837 1.077.636 2.134 1.375 3.045 2.297.912.922 1.658 2.131 1.818 3.542.09.655.054 1.391-.066 2.004-.141.716-.346 1.207-.572 1.799l-1.104 3.393c-.777 2.289-1.535 4.476-2.418 6.745-.882 2.268-1.85 4.414-3.154 6.6-1.283 2.083-2.777 4.126-4.442 5.922-1.664 1.797-3.288 3.389-3.985 5.269-.412.981-.592 1.901-.457 2.883.004.532.135.982.265 1.432.13.451.26.901.515 1.27.876 1.658 2.735 2.766 4.824 3.814l1.518.617c.506.205 1.032.309 1.663.433 1.348.37 2.721 1.171 3.693 1.787 2.239 1.395 4.172 3.792 4.973 6.391.39 1.351.465 2.64.414 4.01-.015.634-.156 1.35-.256 1.861-.121.613-.241 1.226-.467 1.819-.226.593-.492 1.39-1.158 2.002-.562.633-1.379.897-2.07 1.08-1.468.242-3.047-.068-4.148-1.133-.551-.533-.852-1.229-1.047-1.905-.09-.654-.055-1.391.171-1.983.472-1.288 1.429-2.268 2.707-2.654l.17.246c-.982.55-1.729 1.571-1.93 2.594-.201 1.022.125 2.147.906 2.62.761.574 1.834.678 2.756.435.942-.346 1.358-.795 1.559-1.817.1-.512.201-1.023.216-1.657.015-.634.116-1.145.111-1.677-.01-1.063-.25-2.066-.595-3.089-.711-1.945-2.048-3.482-4.012-4.611-1.077-.636-1.859-1.108-2.806-1.294-.526-.103-1.137-.33-1.873-.474-.612-.227-1.328-.473-1.919-.802-2.194-1.068-4.834-2.648-6.181-5.249-1.327-2.702-1.186-5.647-.032-8.181 1.153-2.534 3.133-4.269 4.757-5.861 1.624-1.592 3.078-3.429 4.322-5.309 1.263-1.981 2.211-4.024 3.179-6.17a73.284 73.284 0 002.608-6.601l1.314-3.352c.452-1.185.737-2.085.603-3.067-.25-2.066-2.008-3.685-4.057-4.937-1.944-1.232-4.263-2.218-6.498-3.082-4.489-1.625-9.389-2.269-14.239-2.054l-.065-.225z" fill="#E5E5E5"/><path d="M450.506 234.335c-.516-1.27-1.282-2.376-2.359-3.012-.486-.308-1.077-.636-1.603-.74a5.373 5.373 0 00-1.789-.351c-1.178-.125-2.456.261-3.653.238-1.303-.044-2.5-.067-4.204-.295l-.025-.43c.913-1.307 2.376-2.081 3.884-2.528a5.485 5.485 0 012.31-.077c.737.145 1.579.31 2.295.557 1.558.412 2.911 1.315 3.993 2.483.956 1.25 1.537 2.744 1.486 4.114l-.335.041z" fill="#E5E5E5"/><path d="M459.33 220.567a18.37 18.37 0 011.922 3.563c.516 1.269.821 2.497 1.106 3.827.285 1.33.34 2.721.039 4.254a6.761 6.761 0 01-2.592 3.738c-.647.51-1.253.816-1.985 1.203-.712.285-1.318.59-2.01.773-1.508.447-3.041.464-4.429.297-2.776-.333-5.557-1.197-7.861-2.818l.06-.307c1.428-.038 2.731.006 4.054-.053 1.303.044 2.52-.035 3.843-.094s2.415-.056 3.528-.156c.566-.101 1.237-.182 1.719-.406.586-.203 1.047-.325 1.548-.651 1.945-.998 2.617-3.308 2.448-5.783a48.087 48.087 0 00-.455-3.806 20.799 20.799 0 00-1.251-3.643l.316.062z" fill="#E5E5E5"/><path d="M457.787 233.429c-1.853-2.806-4.207-5.286-6.912-7.091-2.705-1.806-5.826-3.162-8.963-3.884-1.578-.31-3.196-.416-4.454-.132-.671.08-1.173.407-1.779.712-.501.326-1.273.918-2.13 1.387-.481.224-.857.468-1.318.59-.461.122-.837.366-1.298.488-.922.244-1.844.487-2.831.506-.987.018-2.145-.209-3.012-.804-.866-.595-1.357-1.435-1.617-2.335l.251-.163c2.544 2.623 5.466.543 7.952-.986.626-.408 1.063-.959 2.045-1.51a8.27 8.27 0 013.037-.996c2.014-.241 3.908.131 5.657.687 3.497 1.112 6.537 2.877 9.287 5.01 2.73 2.235 4.794 5.082 6.271 8.133l-.186.388zm-12.824-45.413c-.332 2.802-.769 5.583-1.416 8.322-.648 2.739-1.506 5.438-2.469 8.115-.963 2.677-1.821 5.376-3.5 7.806-1.555 2.349-3.425 4.636-5.74 6.411l-.296-.165c.878-2.8 2.012-5.232 3.27-7.745 1.154-2.534 2.688-4.78 3.926-7.191 1.239-2.411 2.287-4.966 3.23-7.541 1.049-2.555 1.906-5.253 2.639-7.869l.356-.143zm7.239-2.931a44.563 44.563 0 0115.305-5.593c5.517-.827 11.044-.591 16.51-.048 2.776.333 5.426.748 8.162 1.285 2.736.538 5.411 1.382 7.961 2.308 5.185 1.974 10.06 4.418 14.438 7.72l-.166.286c-5.225-1.77-10.22-3.601-15.4-5.043-5.056-1.524-10.196-3.171-15.477-4.102-5.281-.931-10.642-1.454-15.888-.892-5.332.439-10.443 1.983-15.275 4.325l-.17-.246zm-.775-2.169c-.451-1.044-.545-2.231-.535-3.396a6.705 6.705 0 01.999-3.414c.331-.572.536-1.063.972-1.614.437-.551.938-.877 1.439-1.204.606-.305 1.193-.509 1.844-.487.671-.08 1.303.044 1.999.393l.045.327a30.46 30.46 0 01-2.12 2.45c-.562.633-1.504.979-2.191 1.694l-.872 1.102c-.291.368-.496.858-.682 1.246-.391.879-.592 1.901-.708 3.047l-.19-.144z" fill="#E5E5E5"/><path d="M454.023 181.94c.878-2.801 2.302-5.6 4.468-7.723 1.082-1.061 2.27-2.102 3.714-2.774 1.443-.672 2.951-1.118 4.46-1.565 2.976-.69 5.933-1.277 8.995-1.843 3.041-.464 6.253-.683 9.365-.39 6.223.586 12.521 2.46 17.74 5.927 2.6 1.785 4.929 3.835 7.113 6.069a34.127 34.127 0 015.444 7.334l-.251.163c-2.204-2.132-4.427-4.161-6.712-5.884-2.369-1.846-4.758-3.589-7.313-5.047a59.382 59.382 0 00-7.891-3.779c-2.74-1.07-5.521-1.934-8.507-2.309-2.881-.353-5.822-.4-8.844-.038-2.916.382-5.958.846-8.894 1.331-1.468.243-2.957.587-4.255 1.075a14.041 14.041 0 00-3.633 2.366c-2.231 1.897-3.825 4.451-4.894 7.107l-.105-.02zm-21.124-1.496c-.636-.656-1.167-1.291-1.824-1.844-.656-.554-1.332-1.005-2.008-1.457-.677-.451-1.538-.514-2.089-1.047-.276-.267-.551-.533-.912-.923-.255-.368-.616-.758-.956-1.249l.06-.307c1.107-.632 2.18-.527 3.232-.32 1.032.309 1.628 1.169 2.244 1.927.616.758 1.232 1.516 1.597 2.437.386.819.751 1.74.906 2.62l-.25.163z" fill="#E5E5E5"/><path d="M428.831 178.902c-1.548-1.578-3.326-3.096-5.185-4.204-.972-.616-1.858-1.108-2.89-1.417-.927-.288-2.255-.762-3.247-1.275-.506-.206-1.097-.534-1.603-.74-.506-.205-1.097-.534-1.222-.452-.106-.021 0 0 0 0l-.02.102c-.126.082-.396.347-.582.735-.185.388-.371.777-.597 1.369-.185.389-.391.879-.491 1.39-.306 1.002-.402 2.045-.518 3.19l-.335.04c-.787-1.004-1.217-2.15-1.417-3.357a5.731 5.731 0 01.046-1.902l.361-1.84c.226-.593.597-1.369 1.264-1.982a2.919 2.919 0 011.443-.672c.566-.101 1.323-.058 1.724.127.906.39 1.267.779 1.753 1.087.486.308.972.616 1.352.903.972.616 1.774.985 2.976 1.54 1.077.636 2.049 1.252 2.981 2.072a21.266 21.266 0 014.437 5.225l-.23.061zm-12.647-11.828c.593-4.13 1.502-8.199 2.43-12.369 1.014-4.048 2.028-8.096 3.377-12.184 1.33-3.985 2.679-8.073 4.936-11.771 2.131-3.616 4.682-7.149 7.87-10.026l.296.164c-1.645 3.924-3.566 7.581-5.296 11.382-1.71 3.698-3.736 7.335-5.361 11.156-1.625 3.822-2.934 7.705-4.158 11.712a241.946 241.946 0 00-3.653 11.916l-.441.02zm32.764-49.41c-2.754-4.894-4.38-10.522-4.138-16.207.036-.737.051-1.371.191-2.086l.096-1.043.201-1.022c.281-1.431.647-2.74 1.139-4.13 1.068-2.656 2.432-5.149 4.197-7.457 1.765-2.307 3.805-4.348 6.015-6.144 1.168-.938 2.316-1.774 3.549-2.488 1.233-.713 2.486-1.529 3.909-2.098 2.636-1.181 5.547-2.096 8.549-2.355 3.001-.26 5.923-.11 8.824.14 2.901.252 5.742.81 8.603 1.266 2.86.456 5.616.891 8.477 1.347 5.617.891 11.294 1.475 16.865 2.04 5.677.583 11.309.84 17.046 1.118 5.652.155 11.429.228 17.142.076l.045.328c-11.305 1.92-22.875 2.407-34.414 1.627-1.408-.065-2.901-.252-4.309-.316l-4.289-.418a121.24 121.24 0 01-8.583-1.368c-5.702-1.014-11.238-2.314-16.875-3.102-2.776-.333-5.572-.564-8.343-.365a23.864 23.864 0 00-7.922 1.947c-2.491.997-4.872 2.547-7.042 4.137-2.19 1.694-4.19 3.53-5.915 5.633-1.724 2.104-3.173 4.473-4.201 6.925-.472 1.288-.943 2.576-1.204 3.905l-.307 1.001-.2 1.023c-.141.715-.156 1.349-.297 2.065-.413 5.44.898 11.006 3.421 15.961l-.23.06z" fill="#E5E5E5"/><path d="M443.435 116.794c-3.505-4.405-5.969-9.667-7.069-15.191-1.08-5.627-.481-11.455 1.655-16.769 2.137-5.313 5.727-10.235 10.528-13.539l1.88-1.223 1.964-1.1c1.318-.591 2.656-1.284 4.039-1.65 2.807-.934 5.638-1.44 8.514-1.618l.045.328c-5.297 1.932-10.233 4.253-14.404 7.68a54.952 54.952 0 00-5.769 5.45c-1.81 1.98-3.239 4.248-4.352 6.577-2.247 4.761-3.206 10.2-2.401 15.56.594 5.319 2.722 10.621 5.746 15.25l-.376.245z" fill="#E5E5E5"/><path d="M438.315 119.504c-1.653.631-3.372 1.036-5.116 1.012-1.744-.024-3.638-.396-5.015-1.728-1.377-1.333-1.898-3.134-1.997-4.852-.205-1.739-.199-3.437-.089-5.114a153.5 153.5 0 01.686-10.163c.452-3.415 1.115-6.789 2.284-9.957 1.189-3.27 2.778-6.355 4.854-9.132a50.01 50.01 0 016.777-7.8c2.541-2.367 5.253-4.489 8.24-6.344 1.504-.978 3.072-1.732 4.641-2.486 1.569-.753 3.328-1.363 4.961-1.892 6.535-2.113 13.005-4.452 19.304-7.037 3.203-1.282 6.32-2.687 9.522-3.969 3.223-1.384 6.826-2.48 10.479-2.719 7.325-.578 14.38 1.339 20.852 3.99a101.59 101.59 0 019.369 4.602c1.477.82 2.915 1.846 4.498 2.688 1.458.924 2.896 1.95 4.333 2.975l-.165.286-4.559-2.382c-1.603-.74-3.081-1.56-4.704-2.198-3.101-1.459-6.348-2.734-9.509-3.886-6.468-2.12-13.162-3.647-19.751-2.924-3.337.3-6.354 1.194-9.471 2.598-3.097 1.303-6.32 2.687-9.607 3.846-6.49 2.441-13.045 4.657-19.645 6.546-1.633.528-3.247.954-4.69 1.627-1.464.774-3.012 1.425-4.496 2.302-2.841 1.67-5.638 3.67-8.054 5.955-4.917 4.45-9.048 9.902-11.556 15.992-2.528 6.192-3.077 12.879-3.52 19.587-.111 1.677-.222 3.354-.102 4.97.119 1.616.554 3.294 1.742 4.483 1.187 1.189 2.85 1.622 4.574 1.748a14.186 14.186 0 004.971-.829l-.041.205zm43.744-1.281c2.176-3.288 5.639-5.899 9.663-6.913.461-.122 1.027-.223 1.488-.345a8.096 8.096 0 011.554-.12c1.092.003 2.164.107 3.176.518 2.044.72 3.757 2.012 5.26 3.263 3.111 2.522 6.221 5.045 9.683 6.893 3.442 1.95 7.089 3.409 10.901 4.583 1.854.577 3.833 1.072 5.812 1.567 1.979.495 3.853.969 5.747 1.341 1.894.372 3.913.662 5.827.932a56.74 56.74 0 005.907.524c3.889.233 7.922.282 11.891.106 3.968-.176 7.977-.556 11.9-1.059l.045.327c-7.622 2.643-15.76 4.017-24.017 3.775-4.139-.07-8.177-.651-12.261-1.559-1.979-.495-4.043-1.113-5.897-1.689-1.959-.597-3.918-1.195-5.751-1.873-3.898-1.297-7.715-3.003-11.117-5.157a53.427 53.427 0 01-4.989-3.528c-1.608-1.272-3.091-2.625-4.593-3.876-1.503-1.25-3.006-2.501-4.714-3.261-1.709-.761-3.683-.724-5.612-.36-3.859.729-7.282 3.135-9.628 6.178l-.275-.267zm62.5 58.994c2.736.538 5.536 1.3 8.192 2.247 1.327.473 2.635 1.048 3.942 1.624 1.308.575 2.616 1.15 3.903 1.828 1.288.678 2.575 1.355 3.842 2.135 1.268.78 2.37 1.846 3.346 2.993 1.848 2.274 3.28 4.998 3.6 7.821l-.251.163c-1.973-2.193-3.671-4.119-5.619-5.882-1.949-1.763-3.792-3.505-6.116-5.023-1.163-.76-2.345-1.417-3.507-2.176a176.309 176.309 0 00-3.652-1.991c-2.47-1.335-5-2.363-7.655-3.309l-.025-.43zm1.471 6.978c1.372.801 2.599 1.785 3.807 2.872 1.207 1.086 2.414 2.173 3.496 3.341 1.081 1.168 2.394 2.275 2.974 3.769.686 1.515 1.036 3.07.906 4.85l-.251.163c-.782-.472-1.312-1.108-1.863-1.64a12.277 12.277 0 01-1.508-1.783c-.977-1.147-1.452-2.621-2.283-3.952s-1.683-2.56-2.534-3.789c-.851-1.229-1.913-2.5-2.89-3.647l.146-.184zm.149 12.027c.501 1.904 1.021 3.705 1.521 5.608a110.57 110.57 0 011.311 5.566c.395 1.882 1.126 3.725 1.185 5.647a15.6 15.6 0 01-.618 5.931l-.336.04a13.694 13.694 0 01-1.307-2.805c-.365-.921-.625-1.822-.886-2.722-.52-1.801-.454-3.805-.639-5.647-.164-1.943-.224-3.866-.388-5.809-.06-1.923-.224-3.866-.178-5.768l.335-.041zm6.477 3.184c1.393.698 2.515 1.662 3.597 2.83 1.082 1.168 1.913 2.499 2.368 4.075.581 1.494 1.121 3.193.715 4.706-.406 1.512-1.149 3.065-2.652 4.044l-.296-.164c-.225-1.637-.194-2.905-.269-4.194l.046-1.902c.015-.634.136-1.247-.059-1.922a10.997 10.997 0 00-1.231-3.746c-.621-1.29-1.493-2.417-2.489-3.462l.27-.265zm5.927-9.029c1.378 1.333 2.61 2.849 3.591 4.528.982 1.679 1.692 3.624 1.982 5.485.395 1.883.75 3.97.264 5.892-.201 1.022-.592 1.9-1.089 2.758-.496.859-1.098 1.696-1.89 2.39l-.295-.165c-.145-2.045-.034-3.722-.008-5.522.055-.838.111-1.677.186-2.618a10.84 10.84 0 00.187-2.617c-.1-1.719-.41-3.478-.95-5.177-.541-1.699-1.417-3.357-2.313-4.914l.335-.04zm12.046 24.344l6.113-13.875c.557-1.165 1.239-2.411 2.407-3.35.541-.53 1.253-.815 1.964-1.1.712-.285 1.489-.345 2.16-.425.777-.06 1.513.085 2.23.332.716.247 1.498.719 1.984 1.027a26.543 26.543 0 012.985 2.603c.912.923 1.948 1.763 2.78 3.095.831 1.331 1.201 2.784 1.361 4.195.194 2.905-.413 5.44-1.336 7.913s-2.016 4.7-3.235 7.009c-1.218 2.309-2.607 4.372-4.417 6.352l-.295-.164c.903-2.371 1.806-4.742 2.583-7.031.693-2.412 1.595-4.783 2.163-7.113.672-2.31 1.239-4.641 1.24-6.87-.01-1.064-.23-2.169-.615-2.988-.386-.819-1.297-1.741-2.104-2.643-.911-.922-1.823-1.844-2.669-2.541-.466-.41-.847-.697-1.268-.78a3.653 3.653 0 00-1.473-.29c-1.092-.002-2.225.2-3.017.894-.877.571-1.519 1.613-2.16 2.655-2.272 4.331-4.794 8.826-7.191 13.239l-.19-.144z" fill="#E5E5E5"/><path d="M569.405 216.498c.345 1.024.585 2.026.7 3.111.115 1.084.23 2.168.134 3.211-.095 1.043-.336 2.27-.978 3.312-.311.469-.747 1.021-1.354 1.326a8.642 8.642 0 01-1.653.631c-.922.243-1.674.733-2.466 1.427-.396.346-.772.591-1.063.959-.291.367-.476.756-.516.96-.02.102-.02.102.065.225 0 0 .085.123.19.144.085.123.296.164.401.185l.316.062c.44-.02 1.192-.509 1.984-1.203 1.584-1.388 3.419-2.938 5.574-3.895 1.087-.53 2.345-.814 3.583-.995 1.237-.182 2.395.046 3.277.007 1.533-.018 3.162-1.078 4.43-2.527 1.268-1.45 2.091-3.412 3.019-5.353l.315.062c.02 2.127-.317 4.397-1.39 6.522-1.053 2.022-3.073 3.961-5.99 4.344-1.343.161-2.31.077-3.212.218-.882.039-1.804.283-2.641.649-1.864.59-3.407 1.773-5.182 3.017-.501.326-.897.673-1.503.979-.607.305-1.318.59-2.18.527l-.632-.124c-.21-.041-.42-.083-.611-.226-.295-.165-.696-.35-.972-.616-.275-.266-.636-.656-.766-1.106a3.124 3.124 0 01-.054-1.391 3.855 3.855 0 011.098-1.695c.416-.45.917-.776 1.313-1.123.897-.673 2.11-1.284 3.242-1.486.567-.101 1.028-.223 1.384-.365.355-.143.751-.49 1.022-.755.582-.735.867-1.635 1.068-2.657.297-2.065.278-4.192-.203-6.198l.251-.163zm5.225-5.45c.796-.162 1.553-.119 2.395.046.841.165 1.578.31 2.38.68.801.37 1.728.658 2.113 1.477.386.819.541 1.699.11 2.782l-.251.163c-1.157-.228-1.749-.556-2.234-.864-.592-.328-.682-.983-1.147-1.393-.446-.512-.912-.922-1.483-1.353-.571-.431-1.162-.759-1.859-1.108l-.024-.43zm-57.117-79.171c2.163 2.337 4.743 4.224 7.674 5.436 2.826 1.193 5.977 1.281 9.129 1.369 1.638.004 3.172-.014 4.83-.113 1.659-.098 3.192-.116 4.811-.01 3.236.211 6.368.402 9.735 1.063l.045.327c-3.162 1.078-6.414 1.501-9.626 1.719-3.212.218-6.514-.218-9.731-.531-1.598-.208-3.302-.437-4.88-.747-1.684-.33-3.327-.866-4.805-1.687-2.955-1.642-5.35-3.917-7.222-6.621l.04-.205zm-50.05 63.426c.782-1.757 1.755-3.371 2.938-4.943.582-.736 1.163-1.471 1.85-2.185.687-.715 1.479-1.408 2.546-1.836 2.03-.875 4.194-.768 6.128-.601.967.084 2.02.291 2.966.477 1.033.309 1.959.597 2.866.988 3.647 1.459 7.209 2.796 10.586 4.521 1.688.863 3.291 1.602 5.06 2.056 1.769.454 3.577.703 5.617.891l.045.327a15.497 15.497 0 01-5.978.949c-2.06-.086-4.124-.704-5.958-1.382-1.833-.679-3.647-1.46-5.315-2.425-1.688-.862-3.462-1.848-5.045-2.69-.907-.39-1.688-.862-2.51-1.13-.821-.267-1.768-.453-2.61-.619-1.789-.351-3.618-.498-5.251.03-1.614.427-2.882 1.876-4.13 3.223-1.248 1.348-2.412 2.818-3.384 4.432l-.421-.083z" fill="#E5E5E5"/><path d="M502.288 192.696c-3.036-1.234-6.052-2.569-9.088-3.803-3.036-1.233-6.092-2.365-9.188-3.291-.737-.145-1.559-.413-2.315-.455-.842-.165-1.598-.208-2.44-.373-1.599-.208-3.092-.395-4.394-.439-1.408-.064-2.686.322-3.919 1.035-1.233.714-2.421 1.754-3.439 3.041l-.295-.165a7.925 7.925 0 012.332-4.638 11.782 11.782 0 012.295-1.672c.857-.469 1.884-.692 2.786-.833 1.91-.262 3.698.089 5.362.522l2.379.68 2.465.803c3.142 1.254 6.137 2.692 9.113 4.232 2.851 1.622 5.806 3.264 8.531 4.967l-.185.389z" fill="#E5E5E5"/><path d="M483.854 189.18c.261.901.396 1.883.32 2.823a12.8 12.8 0 01-.247 2.925c-.1.511-.201 1.022-.511 1.492-.206.49-.642 1.042-1.163 1.47-1.128.734-2.471.895-3.628.668-1.158-.228-2.295-.557-3.352-1.296-1.077-.636-1.843-1.742-2.149-2.97-.63-2.354.293-4.827 2.152-5.948l.296.165c-.276 1.963-.052 3.599.589 4.787a8.489 8.489 0 001.107 1.598c.446.512 1.122.963 1.839 1.21 1.452.392 2.605.087 3.157-1.609.266-.797.552-1.697.733-2.617.18-.92.236-1.758.311-2.699l.546.001z" fill="#E5E5E5"/><path d="M478.659 188.372c-1.358.795-2.06 2.143-1.755 3.371.2 1.207 1.407 2.294 2.098 2.111.652.022 1.083-1.061 1.494-2.042.206-.49.392-.879.407-1.513.015-.634-.075-1.288-.23-2.168l.251-.163c.927.288 1.688.862 2.179 1.702.491.839.711 1.944.51 2.967-.201 1.022-.697 1.88-1.51 2.676a4.517 4.517 0 01-1.483.876c-.586.204-1.258.284-1.889.16-1.263-.248-2.089-1.047-2.705-1.805-.491-.84-.751-1.741-.676-2.681.151-1.882 1.65-3.392 3.244-3.716l.065.225zm-10.21 9.142c1.217-.079 2.435-.158 3.633-.135 1.217-.08 2.415-.057 3.718-.013 2.48.168 4.855.317 7.25.362 1.197.023 2.395.046 3.422-.177 1.113-.1 2.14-.322 3.167-.545 1.027-.223 2.075-.548 3.227-.853l3.413-1.24.17.245c-1.198 2.207-3.388 3.9-5.879 4.897-1.298.488-2.641.649-3.944.606-1.302-.044-2.565-.292-3.848-.438-1.282-.146-2.44-.373-3.597-.6l-3.577-.703c-2.295-.557-4.775-.726-7.11-1.078l-.045-.328z" fill="#E5E5E5"/><path d="M493.143 194.19a18.08 18.08 0 01-4.49 2.834c-1.674.733-3.498 1.118-5.282 1.298-1.804.283-3.523.689-5.312.337-.841-.165-1.788-.351-2.61-.619-.822-.267-1.728-.658-2.49-1.232l.061-.307c.942-.346 1.738-.508 2.64-.649.902-.141 1.699-.303 2.581-.342 1.679-.201 3.342.232 5.086.256 1.743.024 3.382.027 4.976-.297 1.698-.303 3.227-.852 4.795-1.606l.045.327zm-55.227-4.797c-1.147-1.394-2.439-2.603-3.897-3.526a13.661 13.661 0 00-4.825-1.585c-.841-.166-1.618-.106-2.415.056-.797.162-1.363.263-2.054.446-1.383.365-2.531 1.201-3.99 2.507l-.315-.062c-.27-1.964.928-4.17 2.998-5.25.982-.55 2.22-.732 3.292-.627 1.073.104 2.125.311 3.052.599.926.288 1.833.679 2.74 1.069.887.493 1.648 1.067 2.409 1.642 1.483 1.353 2.61 2.848 3.256 4.567l-.251.164z" fill="#E5E5E5"/><path d="M436.358 188.98c-1.437-1.026-3.146-1.786-4.744-1.994-1.704-.228-3.447-.252-4.745.236-.607.306-1.128.734-1.334 1.224l-.516.961c-.186.388-.622.939-1.143 1.368-1.168.938-2.596.976-3.733.647-1.137-.33-2.004-.925-2.62-1.683l.165-.286c.987-.018 1.869-.058 2.666-.219.692-.183 1.193-.509 1.358-.795.126-.082.186-.389.457-.654.185-.388.496-.858.912-1.307.832-.898 1.92-1.428 3.072-1.732 1.048-.326 2.12-.221 3.192-.117 1.052.207 1.894.372 2.801.763 1.833.679 3.461 1.848 4.608 3.241l-.396.347z" fill="#E5E5E5"/><path d="M425.129 189.959c.11.553.24 1.003.495 1.372.131.45.386.819.641 1.187.256.369.762.575.681.984.025.429-.18.92-.571 1.798l-.251.163c-1.007.121-1.598-.207-2.064-.617-.466-.411-.305-1.228-.31-1.76a4.905 4.905 0 01.341-1.738c.206-.49.411-.981.827-1.43l.211.041z" fill="#E5E5E5"/><path d="M423.624 193.167c.265 1.433 1.032 2.539 2.003 3.154.486.308 1.118.432 1.749.556.737.145 1.283.146 1.934.168.651.021 1.238-.182 1.824-.385.586-.204 1.173-.407 1.739-.508l1.949-.466c.692-.183 1.383-.366 2.18-.528l.171.246c-.427 1.615-1.655 2.86-3.119 3.634-1.463.775-3.312.73-4.91.522-.842-.165-1.684-.331-2.38-.68-.696-.349-1.498-.719-2.134-1.375-1.187-1.188-1.728-2.887-1.341-4.298l.335-.04z" fill="#E5E5E5"/><path d="M436.241 194.584c-.752.49-1.483.877-2.235 1.366a15.49 15.49 0 01-2.321 1.243 4.757 4.757 0 01-1.318.591c-.481.224-1.027.222-1.573.221-1.052-.206-2.064-.618-2.62-1.682l.06-.307c1.003-.652 1.694-.835 2.406-1.12.356-.142.671-.08 1.007-.121.316.062.756.043 1.197.023.797-.162 1.679-.201 2.581-.342.882-.039 1.679-.201 2.666-.22l.15.348z" fill="#E5E5E5"/><path d="M433.353 188.708c.175.778.33 1.658.274 2.496.05.859.015 1.595-.061 2.536-.18.92-.822 1.962-1.699 2.533a6.242 6.242 0 01-2.932 1.017c-.546-.002-1.197-.023-1.809-.25a4.824 4.824 0 01-1.563-.944c-.826-.799-1.382-1.864-1.517-2.846-.249-2.066.553-3.926 1.992-5.13l.295.165c.05.859.225 1.636.295 2.393.195.676.285 1.33.5 1.903.215.574.451 1.045.706 1.413.255.369.426.615 1.057.739.526.103 1.198.023 1.804-.283.586-.203.982-.55 1.228-1.245.226-.593.492-1.39.652-2.208.141-.715.302-1.533.357-2.372l.421.083z" fill="#E5E5E5"/><path d="M430.755 187.455c.341.492.661 1.085.877 1.659.215.573.305 1.227.395 1.882-.015.634-.071 1.473-.652 2.208-.291.367-.792.693-1.148.836-.461.122-.922.243-1.363.263a2.523 2.523 0 01-1.453-.392c-.506-.205-1.057-.738-1.292-1.209-.471-.942-.501-1.903-.255-2.598.246-.695.597-1.369 1.118-1.798.541-.53 1.043-.857 1.86-1.121l.295.164c.07.757-.03 1.268-.046 1.902.005.532.01 1.064.035 1.494.025.429.07.757-.056.838-.02.102-.125.082-.125.082-.02.102.085.123.19.143.316.062.632.124.757.043.23-.061.521-.429.622-.94.205-.49.2-1.022.216-1.656-.005-.532-.01-1.064-.1-1.718l.125-.082zm35.942 76.816c-3.482.483-7.035.21-10.467-.676-1.768-.454-3.351-1.296-4.824-1.585-.737-.145-1.579-.31-2.335-.353-.757-.042-1.639-.003-2.521.036-1.763.078-3.422.177-5.186.255-.882.039-1.658.099-2.54.138-.882.039-1.764.078-2.816-.128-.947-.186-1.874-.475-2.696-.742-.4-.185-.821-.268-1.117-.432l-.842-.165c-.546-.002-1.403.467-2.41.588-1.007.12-1.974.037-2.776-.333l.061-.307c.902-.141 1.698-.303 2.325-.711.606-.305 1.168-.938 2.34-1.345.587-.203 1.258-.284 1.784-.18.546.001 1.072.104 1.493.187.842.165 1.579.31 2.335.352.651.022 1.428-.038 2.31-.077.882-.039 1.744.024 2.606.087l5.191.277c.861.063 1.723.126 2.69.21.947.186 1.789.351 2.716.64 1.853.576 3.311 1.5 4.849 2.014 3.142 1.254 6.529 1.813 10.016 1.861l-.186.389z" fill="#E5E5E5"/><path d="M426.35 257.724c.362-1.84.849-3.762 1.631-5.519.391-.879.908-1.839 1.805-2.512a3.197 3.197 0 011.674-.733c.671-.08 1.387.167 1.788.352 1.709.76 3.432.886 5.086.255.817-.264 1.884-.691 2.997-.791 1.112-.1 2.31-.077 3.447.253 2.275.659 3.968 2.053 5.511 3.099 1.542 1.047 3.105 1.991 4.774 2.955 3.211 2.012 6.692 3.757 10.114 5.81l-.06.306c-3.954-.458-7.872-1.652-11.459-3.419a28.968 28.968 0 01-5.154-3.242c-1.588-1.373-2.88-2.583-4.398-3.2a6.654 6.654 0 00-2.44-.373c-.777.06-1.699.303-2.726.526-2.075.548-4.515.175-6.394-.831-.401-.185-.696-.349-1.012-.411-.336.04-.671.08-1.047.325-.732.387-1.208 1.143-1.684 1.899-.973 1.614-1.65 3.392-2.222 5.19l-.231.061zm27.267 14.169c-2.43.691-4.8 1.074-7.361 1.315-2.56.24-5.061.173-7.521-.098s-5.256-.502-7.58-2.02c-.571-.431-1.162-.759-1.713-1.292a7.122 7.122 0 01-1.297-1.741c-.641-1.188-1.032-2.539-1.001-3.807l.356-.142a15.866 15.866 0 002.459 2.5 9.598 9.598 0 002.64 1.581c1.919.801 4.133 1.767 6.448 2.222 2.315.455 4.755.828 7.13.976 2.375.148 4.895.112 7.33-.046l.11.552zm15.525-41.754c1.308.575 2.555 1.457 3.782 2.442l1.653 1.599c.426.614.957 1.249 1.382 1.864.426.614.831 1.331 1.132 2.027.3.696.58 1.494.65 2.251.14 1.514-.181 3.15-1.094 4.457l-.315-.062a14.254 14.254 0 01-.922-1.986c-.32-.594-.515-1.269-.73-1.842-.431-1.147-.505-2.435-.916-3.684-.41-1.249-1.051-2.436-1.817-3.542-.767-1.106-1.658-2.131-2.76-3.197l-.045-.327zm-16.476 50.485c-1.834-.678-3.583-1.234-5.411-1.381-1.809-.249-3.678-.192-5.462-.011-1.784.18-3.332.831-4.946 1.258-.817.264-1.529.549-2.366.915-.836.367-1.568.754-2.55 1.304l-.296-.164c.402-2.045 1.941-3.76 3.78-4.779.982-.55 2.03-.875 3.122-.873 1.112-.1 2.079-.016 3.172-.014 1.072.105 1.934.168 2.986.375.947.186 1.999.392 2.926.681 1.834.678 3.647 1.459 5.275 2.629l-.23.06z" fill="#E5E5E5"/><path d="M413.708 181.345c2.479 2.399 4.272 5.511 4.952 8.724l.99 4.972c.33 1.658.535 3.397.424 5.073-.011 3.396-1.305 6.645-2.033 9.794a18.778 18.778 0 00-.628 4.866c-.091 1.575.239 3.232.358 4.848.29 1.862.706 3.643 1.226 5.444l.781 2.701c.26.901.395 1.883.655 2.783.685 3.744 1.37 7.489 1.95 11.213.579 3.723.929 7.508 1.153 11.374.059 1.923.118 3.846-.033 5.727-.075.941-.151 1.881-.206 2.72.05.859.079 1.82.234 2.7.185 1.842.6 3.622 1.141 5.321.54 1.698 1.416 3.357 2.147 5.199 1.587 3.603 2.357 7.471 2.686 11.357.165 1.944.099 3.948.179 5.769.049.859.119 1.616.399 2.414.301.696.706 1.413 1.217 2.15 2.169 2.868 4.944 5.431 8.195 7.237l-.717-.247c.526.104 1.032.309 1.413.596l.697.349c.506.206.886.493 1.412.597.506.205 1.012.411 1.538.514l1.559.412c2.084.516 4.208.827 6.353 1.036 2.144.209 4.309.316 6.619.239 1.092.002 2.184.004 3.297-.096l1.658-.099 1.784-.18-.21-.041c3.798-.422 7.616-.946 11.35-1.593 1.929-.364 3.753-.749 5.577-1.134l2.746-.628 1.383-.366.692-.182.335-.04.126-.082.125-.081c.125-.082.336-.041.461-.122l-.566.101a481.596 481.596 0 0026.054-8.578c4.335-1.484 8.584-3.091 12.939-4.678 4.355-1.586 8.52-3.316 12.874-4.902l.171.245c-4.12 2.058-8.219 4.013-12.404 5.845-4.185 1.832-8.369 3.664-12.639 5.374-8.454 3.541-17.144 6.612-25.899 9.457l-.566.101c.105.021.21.042.336-.04.105.021.105.021 0 0l-.231.061-.356.143-.691.182-1.383.365c-.922.244-1.845.488-2.872.71-1.949.467-3.773.852-5.702 1.216-3.859.728-7.697 1.354-11.581 1.653l-.21-.041-.231.061-.441.019-.882.039-1.763.079c-1.113.1-2.31.077-3.403.074a72.432 72.432 0 01-6.914-.402c-2.355-.251-4.565-.685-6.859-1.242l-1.644-.535c-.506-.206-1.117-.432-1.623-.637-.506-.206-1.097-.534-1.603-.74l-.802-.37c-.105-.02.02-.102-.065-.225l-.716-.247c-3.507-2.175-6.472-4.881-8.876-8.22-.596-.86-1.172-1.823-1.517-2.846-.345-1.024-.545-2.231-.47-3.171-.039-2.025.092-3.805-.093-5.646-.264-3.662-.969-7.304-2.365-10.763-.646-1.72-1.502-3.48-2.108-5.404-.605-1.924-.895-3.786-1.165-5.75-.135-.982-.165-1.944-.174-3.007-.01-1.064.171-1.984.246-2.924.151-1.882.177-3.682.098-5.502-.139-3.744-.488-7.528-.963-11.231-.474-3.703-1.054-7.427-1.634-11.151-.155-.88-.29-1.862-.55-2.762-.155-.88-.521-1.801-.781-2.702-.52-1.801-.895-3.785-1.185-5.647-.205-1.739-.41-3.478-.299-5.155.111-1.677.347-3.436.774-5.051.853-3.229 2.127-6.377 2.223-9.649.111-1.677-.113-3.314-.338-4.95-.225-1.637-.555-3.295-.885-4.952-.68-3.213-2.368-6.305-4.637-8.661l.386.818zm171.849 55.844c-2.281 3.268-5.364 6.166-8.556 8.512-1.649 1.162-3.318 2.427-5.348 3.302-2.115.753-4.53.809-6.699.171-2.19-.537-4.154-1.666-5.907-2.753-.887-.493-1.753-1.088-2.45-1.437-.295-.164-.611-.226-.506-.206 0 0 .106.021.126-.081l.125-.082c.165-.286.145-.184.125-.081-.246.694-.341 1.737-.417 2.678-.18.92-.276 1.963-.352 2.904-.276 1.963-.552 3.926-1.059 5.95l-.336.04c-.48-2.006-.75-3.97-.894-6.015-.135-.982-.145-2.046-.175-3.007-.009-1.064-.059-1.923.097-3.273.06-.306.16-.818.722-1.45.271-.266.521-.429.772-.592.25-.163.586-.203.817-.264 1.132-.202 1.934.167 2.44.373 1.202.555 1.963 1.129 2.83 1.724 1.628 1.169 3.171 2.215 4.899 2.874 1.729.658 3.578.702 5.297.297 1.739-.508 3.473-1.548 5.102-2.608 1.734-1.039 3.363-2.1 4.926-3.385 1.564-1.285 3.023-2.591 4.311-4.143l.11.552zm-10.055 12.252c-2.092 7.87-3.048 16.07-2.91 24.272.262 8.121 1.156 16.365 3.683 24.081.606 1.924 1.336 3.767 2.152 5.732a144.29 144.29 0 002.634 5.507c1.902 3.665 3.825 7.228 6.144 10.444 2.424 3.237 5.389 5.943 8.625 8.383 3.341 2.462 6.993 4.453 10.831 6.057l-.061.306c-8.312-1.633-16.377-6.19-21.941-12.91-1.423-1.66-2.594-3.483-3.641-5.387a78.486 78.486 0 01-2.824-5.651 78.856 78.856 0 01-4.455-11.811c-1.171-4.052-1.901-8.124-2.275-12.338a116.693 116.693 0 01-.511-12.416c.199-8.243 1.7-16.441 4.234-24.331l.315.062zm-110.641 62.565c.76 5.033 1.645 9.985 2.74 14.978a325.688 325.688 0 003.642 14.836c1.221 4.911 2.757 9.885 3.161 15.06.149 2.578.298 5.155.132 7.671-.061 2.536-.563 5.092-.96 7.668l-.316-.062c-.485-2.537-.634-5.115-.929-7.509-.379-2.516-.654-5.012-1.054-7.426-.885-4.952-1.559-9.862-2.55-14.834-.99-4.973-1.96-10.047-2.719-15.08-.655-5.013-1.184-10.107-1.503-15.16l.356-.142zm3.262 35.677c-1.193.509-2.365.915-3.453 1.445-1.193.509-2.365.916-3.433 1.343-1.172.406-2.195 1.161-3.433 1.343-.671.08-1.237.181-1.869.057-.651-.022-1.282-.146-2.124-.311l-.045-.327c.456-.654.978-1.082 1.499-1.511.521-.428 1.127-.734 1.609-.958 1.107-.632 2.495-.465 3.753-.749 1.238-.181 2.475-.363 3.798-.421 1.218-.08 2.561-.241 3.863-.197l-.165.286zm44.106-40.386c.049 3.088.098 6.177.357 9.307.154 3.109.413 6.239.693 9.267.279 3.027.979 6.138 1.134 9.247.154 3.109.308 6.219-.084 9.327l-.336.04c-1.392-2.928-2.217-5.957-2.792-9.149-.595-3.089-.519-6.259-.548-9.45-.029-3.191.028-6.259.209-9.409.182-3.149.469-6.278.966-9.365l.401.185zm-42.85 21.204c.585 2.026 1.316 3.868 2.383 5.671.49.839 1.086 1.699 1.682 2.56.596.86 1.212 1.618 1.954 2.294.741.677 1.482 1.353 2.244 1.928.761.574 1.502 1.25 2.369 1.845 1.483 1.353 3.091 2.625 4.638 4.203l-.165.286c-1.198-.023-2.25-.23-3.387-.559-1.032-.309-2.129-.843-3.101-1.459-1.964-1.129-3.346-2.993-4.643-4.734-1.297-1.741-2.324-3.748-3.12-5.815-.69-2.047-1.151-4.155-1.275-6.303l.421.083z" fill="#E5E5E5"/></svg>