<svg width="559" height="356" fill="none" xmlns="http://www.w3.org/2000/svg"><path d="M166.804 207.115c-8.042 4.409-13.698 9.266-17.179 12.822-4.836 4.927-9.895 9.896-12.467 18.31-2.166 6.886-1.673 12.604-1.461 14.352 1.069 9.409 6.347 15.461 12.989 23.27 3.994 4.728 9.12 10.585 18.049 15.842 3.883 2.291 11.103 6.416 21.167 7.885 5.916.235 10.7.569 14.422.767 4.917-4.496 9.723-8.97 14.64-13.465.871-2.733 1.378-6.18-.098-9.144-1.496-3.072-4.337-4.105-4.084-4.6.486-1.096 11.944 2.906 19.377 5.092 3.53 1.015 10.326 2.873 32.991 5.226 22.777 2.332 36.077 2.638 50.874 3.558 13.29.866 32.729 2.593 56.608 6.507a50.803 50.803 0 011.329-11.98 55.49 55.49 0 013.189-9.424c.536 1.017 1.486 2.404 3.134 3.213 2.417 1.224 4.036.027 6.817.736 4.238 1.107 5.541 4.997 6.816 4.424 1.386-.595-.524-5.266 1.288-10.968.729-2.259 1.802-3.912 2.53-4.943 3.571.003 7.121-.102 10.802-.12 2.51-3.822 5.02-7.643 7.418-11.444l6.453-1.207c9.52-6.362 16.885-11.315 21.195-14.132.92-.619 2.984-1.899 3.177-3.946.173-2.156-2.123-3.961-3.154-4.55a44.202 44.202 0 005.604-3.283c4.694-3.225 7.507-6.656 9.005-8.5 6.445-8.022 9.259-13.911 13.104-19.212 3.188-4.507 8.51-10.53 17.22-16.294-.09-1.1-.07-2.221-.18-3.43 1.072-.424 2.751-1.296 4.441-2.73 1.285-1.134 2.124-2.185 2.509-2.592 10.473-13.579 12.041-15.66 13.852-17.675 7.336-8.188 15.722-13.221 15.722-13.221 4.037-2.431 7.142-3.682 7.73-6.697.76-3.941-3.557-7.938-5.216-9.416-1.506-1.282-5.045-4.196-11.629-5.534-10.316-2.205-19.006 1.208-23.092 2.755-11.482 4.493-25.513 13.822-23.867 19.548.354 1.274 1.658 2.706 5.076 3.743-2.022.267-6.453 1.207-9.579 4.809-2.085 2.401-3.097 5.607-3.735 7.738a32.765 32.765 0 00-.841 3.509c-1.295.466-3.217 1.272-5.523 2.486-3.784 1.936-6.07 3.258-8.043 5.638-2.519 3.153-2.369 5.807-3.299 5.757-1.264.013-3.478-5.048-2.04-9.675.921-3.077 4.928-6.285 12.981-12.484 3.106-2.48 4.836-3.698 6.435-6.231 2.054-3.178 2.399-6.259 2.652-7.983 2.536-19.692 1.13-20.435 3.043-25.598 3.24-8.539 8.459-10.185 7.875-17.004-.091-1.1-.484-5.05-3.649-7.81-3.033-2.672-6.937-2.612-9.931-2.611-8.031.161-14.465 3.934-17.814 6.349-7.8 5.704-11.018 13.122-13.681 19.207-3.795 8.643-4.627 16.509-4.912 19.914a84.692 84.692 0 00-.376 5.992 12.14 12.14 0 01-2.913-.796c-.859-.286-4.47-1.734-8.372-6.591-3.62-4.574-2.941-6.489-5.844-7.845-2.791-1.378-5.663-.729-6.088-.538-.557.104-2.741.736-5.21 3.545-4.462 5.08-4.606 11.7-4.647 12.713-.114 7.396 3.696 16.069 9.733 20.638 1.072.805 3.438 2.374 3.094 2.997-.324.731-2.7-.277-5.634.048-5.178.633-6.303 5.09-10.875 6.504-2.832.865-4.723-.011-10.761-2.122-19.154-6.362-26.083-5.848-30.523-4.347-2.701.952-3.561 1.895-3.996 2.647-2.611 4.511 5.073 11.118 3.252 13.694-1.386 1.823-6.109-.645-15.353-2.045-10.528-1.495-11.5.698-16.921-1.193-7.605-2.488-13.752-9.495-15.965-17.015-2.111-6.979-1.895-17.523 3.952-21.968 2.611-2.053 3.581-.558 6.485-2.889 4.613-3.657 3.724-8.407 9.461-14.061 1.083-.984 2.074-1.84 3.612-2.24 3.297-.84 6.301 1.057 7.373 1.862 7.041-6.681 14.174-13.49 21.216-20.17.395-2.197.811-4.286 1.095-6.462a26.583 26.583 0 007.333-.813c2.852-.757 5.614-1.385 7.829-3.7 2.034-2.056 2.743-4.423 3.057-5.822 2.61-.824 6.292-2.071 10.318-3.942 4.34-2.04 9.823-4.742 15.266-10.118 6.232-6.082 8.945-12.511 9.826-14.575 3.624-8.947 2.938-16.305 2.666-19.606-.362-4.402-.997-10.875-5.133-12.671-.88-.395-2.074-.618-4.967-.077-7.525 1.63-11.006 6.416-17.612 11.116-2.651 1.836-1.902.914-12.382 6.45-22.64 11.944-30.208 18.276-32.889 20.565-2.883 2.439-2.438 2.356-5.413 4.923-4.573 3.872-10.238 8.06-21.063 14.22a312.328 312.328 0 01-27.151 13.681c-.051 1.574-.214 3.169-.245 4.85.182.972.445 2.376-.072 3.925-.921 3.077-3.369 3.535-4.402 6.634-.87 2.732.13 5.003-.517 5.236-.87.275-2.022-4.65-5.248-5.276-1.547-.269-2.984.67-3.702 1.14-3.48 2.327-4.179 6.592-4.706 8.702-.76 2.711-5.282 7.468-14.55 17.023-9.946 10.241-12.566 11.624-15.459 12.166-1.78.333-3.267.387-5.634 1.277-4.805 2.016-7.598 5.555-9.166 7.636-3.775 5.064-4.849 10.405-5.214 13.378a10.598 10.598 0 00-4.137 3.12 11.849 11.849 0 00-2.227 4.104c-1.204.337-2.964.778-5.149 1.41-3.388.969-7.536 2.192-8.628 2.508-2.701.952-7.405 3.508-12.91 12.247 1.608 1.822 3.104 3.666 4.711 5.488-1.558 2.75-3.026 5.37-4.584 8.12a43.258 43.258 0 00-4.724-.01 57.933 57.933 0 00-5.957.779z" fill="#3A8A9D"/><path d="M167.239 208.818c4.205 6.476 8.299 12.973 12.393 19.47a1688.105 1688.105 0 0012.192 19.62 703.775 703.775 0 0012.596 19.321c2.204 3.163 4.296 6.348 6.611 9.49 2.204 3.163 4.499 6.198 6.703 9.361l-1.538.4a12.691 12.691 0 00-.361-6.86c-.758-2.205-2.184-4.285-3.994-5.958l-.02-.108.112-.02c1.051.697 2.012 1.523 2.77 2.498.758.976 1.537 2.059 2.093 3.184 1.02 2.379 1.394 4.991.968 7.641-.03.452-.546.772-.9.727-.243-.066-.375-.154-.506-.241a222.593 222.593 0 01-7.219-9.041 216.046 216.046 0 01-6.611-9.49c-4.206-6.476-8.097-13.123-12.1-19.749-3.892-6.646-7.784-13.293-11.565-19.96a832.986 832.986 0 00-11.675-19.94c-.02-.108-.02-.108.091-.129-.172-.303-.04-.216-.04-.216zm49.473 79.8c-1.063 1.092-2.216 2.314-3.279 3.406l-3.409 3.32c-1.174 1.113-2.216 2.314-3.43 3.211-1.326.919-2.671 1.729-4.279 2.365-.112.021-.112.021-.132-.087l-.02-.108c.759-1.483 1.801-2.684 2.975-3.797 1.062-1.093 2.519-1.924 3.713-2.929l3.844-2.842a157.134 157.134 0 003.865-2.734c.111-.021.111-.021.131.087.112-.021.112-.021.021.108zm-2.109-15.584c12.632 4.118 25.527 7.182 38.664 9.082 6.524 1.015 13.169 1.448 19.814 1.881l19.915 1.191 20.005 1.063c6.625.325 13.361.63 20.047 1.279 13.33 1.082 26.559 2.854 39.666 5.207l-1.305 1.026.852-6.528c.395-2.197.81-4.286 1.317-6.504 1.053-4.219 2.572-8.414 4.222-12.522 1.539-4.086 3.189-8.194 4.616-12.26 1.428-4.066 2.724-8.219 3.999-12.48 0 0 .091-.129.112-.021 0 0 .131.087.02.108-.922 4.307-2.087 8.547-3.271 12.679-1.296 4.153-2.704 8.327-4.111 12.501-1.407 4.174-2.835 8.24-3.777 12.439-.526 2.11-.831 4.178-1.114 6.354-.284 2.176-.457 4.331-.65 6.378-.122.582-.617 1.01-1.194 1.006l-.111.021c-13.087-2.245-26.225-4.146-39.485-5.465-6.574-.67-13.239-1.211-19.864-1.536l-19.935-1.3-19.955-1.407c-6.665-.541-13.33-1.082-19.874-2.205a228.768 228.768 0 01-38.673-9.75s-.132-.087-.021-.108c-.02-.108.071-.237.091-.129zm176.185-43.121a20.79 20.79 0 00-.352-3.733c-.222-1.187-.465-2.483-.798-3.65-.334-1.166-.889-2.292-1.223-3.458-.222-1.188-.555-2.355-.595-3.8-.021-.108.091-.128.091-.128l.111-.021c1.203.892 1.871 1.996 2.447 3.229.576 1.233.707 2.55.838 3.866.131 1.316.151 2.654.15 3.883-.111 1.25-.203 2.608-.557 3.791.02.108-.091.129-.091.129.111-.021-.021-.108-.021-.108zm-6.019-24.797c2.355 3.359 5.632 6.098 9.434 7.957 3.802 1.858 8.03 2.297 12.197 2.411 2.063-.05 4.198-.338 6.352-.517l6.312-.734c2.134-.287 4.288-.467 6.271-.95 2.002-.374 3.925-1.18 5.169-2.531.678-.685 1.093-1.545 1.194-2.234-.01-.669-.394-1.491-1.071-2.035-.698-.651-1.466-1.066-2.498-1.655-.9-.502-1.82-1.112-2.74-1.722-3.55-2.353-6.714-5.114-9.97-7.745-1.638-1.37-3.145-2.652-4.874-3.893-1.618-1.262-3.327-2.395-5.076-3.743-3.367-2.611-6.512-5.263-9.586-8.152l1.629-.528c-.638 2.131-1.296 4.153-2.177 6.217-.769 2.044-1.781 4.021-2.814 5.89-1.032 1.869-2.044 3.846-3.076 5.715-1.033 1.869-2.065 3.738-3.209 5.628l-.111.021-.02-.108c.901-1.956 1.67-3.999 2.571-5.956l2.702-5.869a88.43 88.43 0 002.46-5.935c.658-2.022 1.317-4.045 1.863-6.047.122-.581.638-.901 1.235-.789.131.087.374.153.394.261a325.195 325.195 0 009.636 7.807c1.618 1.262 3.347 2.503 4.965 3.765 1.638 1.369 3.276 2.739 4.803 4.129 3.165 2.76 6.218 5.541 9.545 7.936.809.631 1.709 1.133 2.609 1.635.9.502 1.932 1.091 2.781 1.938.829.739 1.628 1.93 1.536 3.288-.091 1.358-.82 2.388-1.7 3.223-1.629 1.757-3.905 2.518-6.019 2.914-2.114.395-4.268.575-6.423.754-4.177.446-8.466.913-12.815 1.056-1.042-.028-2.215-.144-3.277-.281-1.062-.136-2.124-.273-3.206-.517-2.144-.382-4.126-1.128-6.038-2.111a25.525 25.525 0 01-9.383-8.302c-.02-.108-.02-.108.091-.128.314-.171.314-.171.334-.063zm-41.558-38.709c-.882 4.522-.216 9.314 2.241 13.212 1.162 1.906 2.841 3.492 4.813 4.799 1.86 1.328 3.903 2.398 6.057 3.448 2.043 1.07 4.106 2.249 6.33 3.062 2.114.834 4.369 1.194 6.655 1.102 2.286-.093 4.451-.833 6.575-1.789 2.104-1.064 3.946-2.302 5.989-3.69l-.202.15c.111-.021.091-.129.202-.15l.111-.021.112-.021.202-.149.405-.299.698-.578c.496-.428.88-.835 1.376-1.263.88-.835 1.74-1.778 2.6-2.721a29.352 29.352 0 002.337-2.895c.729-1.03 1.458-2.06 1.741-3.007.142-.474.081-.798-.091-1.101-.171-.303-.455-.585-.849-.847-.9-.502-2.134-.941-3.347-1.273l-7.231-2.335c-2.448-.771-4.804-1.671-7.211-2.227a437.978 437.978 0 01-7.444-1.624l-7.443-1.625c-2.518-.534-5.037-1.069-7.464-1.732-.111.02-.131-.088-.02-.108l.091-.129c5.067.616 10.154 1.341 15.241 2.065 2.499.427 5.108.833 7.606 1.26 2.518.534 5.077 1.285 7.504 1.948 2.448.771 4.875 1.435 7.342 2.314 1.234.44 2.468.879 3.762 1.643a4.03 4.03 0 011.719 1.801c.384.822.344 1.836.131 2.546-.516 1.549-1.377 2.492-2.105 3.522-.84 1.051-1.569 2.081-2.54 3.045a33.69 33.69 0 01-2.823 2.763l-1.487 1.284-.809.598-.405.299-.202.15-.111.02s-.112.021 0 0c0 0 .111-.02.091-.128l-.203.149c-1.952 1.259-4.016 2.539-6.231 3.624-2.216 1.085-4.623 1.759-7.152 1.785-2.508.133-5.027-.401-7.272-1.322s-4.308-2.099-6.371-3.278c-2.062-1.178-4.125-2.357-6.006-3.793-1.881-1.436-3.58-3.129-4.782-5.251-2.497-4.114-2.961-9.055-1.968-13.599-.02-.108.091-.128.091-.128-.385.407-.253.494-.253.494zm69.402 9.031c-.759 1.483-1.083 3.443-.133 4.83.839 1.407 2.741 1.722 4.339 1.646 1.598-.075 3.166-.927 4.734-1.779 1.548-.96 2.984-1.899 4.4-2.946.699-.578 1.417-1.047 2.115-1.625a14.346 14.346 0 001.851-1.799c1.265-1.242 2.53-2.484 3.926-3.639 1.396-1.155 2.792-2.31 4.229-3.249.293-.279.698-.578.88-.835.294-.279.476-.536.456-.644.091-.129-.193-.411-.658-.436-.374-.153-.839-.178-1.325-.311-.111.021-.131-.087-.131-.087l.091-.129c.445-.083.89-.166 1.355-.141.243.066.466.024.729.199.242.066.637.327.717.759.142.756-.223 1.271-.364 1.744-.274.387-.547.773-.931 1.18-1.245 1.35-2.53 2.485-3.794 3.727-1.265 1.242-2.55 2.376-3.926 3.639-.698.578-1.376 1.263-2.205 1.753-.699.578-1.528 1.068-2.246 1.538-1.548.96-3.096 1.92-4.664 2.772-.85.382-1.679.872-2.549 1.147-.87.274-1.851.57-2.893.541a13.519 13.519 0 01-2.852-.472c-.88-.394-1.689-1.025-2.184-1.826-.9-1.732-.353-3.733.629-5.258l.111-.021c.273-.386.273-.386.293-.278zm28.729-8.949a63.444 63.444 0 005.506 16.513c.576 1.233 1.395 2.532 2.103 3.852.707 1.321 1.304 2.662 2.011 3.982 1.193 2.682 2.385 5.364 3.376 8.196.485 1.361.879 2.852 1.273 4.343l.515 2.138c.121.648.353 1.275.697 1.881l.516.909.192.411c.151.195.192.411.343.606.192.411.404.93.323 1.727-.05.345-.303.839-.597 1.118-.293.278-.607.448-.941.511-1.092.316-1.911.246-2.71.283-.82-.07-1.639-.14-2.347-.231-3.074-.431-5.987-1.227-8.789-2.043a68.142 68.142 0 01-8.434-3.228s-.131-.087-.02-.108c0 0 .091-.128.111-.02 5.785 1.376 11.661 2.623 17.548 3.31.708.091 1.416.182 2.103.165.688-.017 1.376-.034 1.71-.096l.111-.021-.091.129-.081-.432c-.02-.108-.152-.195-.192-.411l-.323-.498c-.172-.303-.364-.714-.536-1.017-.253-.735-.526-1.578-.667-2.334l-.404-2.159c-.262-1.403-.525-2.807-1.01-4.169-.859-2.744-1.829-5.468-3.021-8.15-.597-1.341-1.193-2.682-1.769-3.915-.596-1.341-1.395-2.532-1.991-3.874-2.294-5.492-3.81-11.131-4.657-16.894-.081-.432-.101-.54.142-.474-.132-.087 0 0 0 0z" fill="#17293B"/><path d="M411.651 180.758c.384.822.788 1.752 1.172 2.574.384.822.677 1.773 1.061 2.595.404.93.9 1.731.97 2.723.071.993.121 1.877-.254 2.953.02.108-.091.129-.222.042-.829-.739-1.345-1.648-1.729-2.47-.384-.822-.343-1.836-.525-2.807-.182-.972-.232-1.856-.414-2.828-.07-.992-.232-1.856-.302-2.849.02.108 0 .001.243.067-.132-.087 0 0 0 0zm-15.269 46.433c2.336 2.021 5.259 3.485 8.202 3.829 1.416.182 3.105-.022 4.571-.185l4.734-.55c3.156-.367 6.251-1.057 9.599-1.013 3.257.173 6.503.906 9.406 2.263 0 0 .131.087.02.108l-.112.021c-3.165-.302-6.311-.496-9.396-.366-1.486.055-3.064.238-4.662.314l-4.795.226-4.794.226c-1.598.076-3.196.151-4.855-.097-3.226-.626-6.098-2.435-8.251-4.714l-.021-.108c.223-.042.334-.062.354.046zm1.479-1.953c.627-.341 1.275-.574 1.902-.914.627-.341 1.275-.574 2.033-.828.648-.233 1.255-.681 2.054-.719.687-.017 1.507.053 2.275.468.111-.021.132.087.041.216-.547.773-1.174 1.114-1.801 1.454-.627.341-1.356.142-2.134.288-.688.017-1.467.162-2.155.179-.688.017-1.487.055-2.174.072l-.041-.216zm-3.036 3.473c-2.114 1.624-3.925 3.639-5.362 5.807-.709 1.139-1.417 2.277-1.771 3.46-.355 1.184-.467 2.434-.245 3.621.223 1.188.779 2.313 1.446 3.417.687 1.213 1.132 2.359 1.708 3.592 1.041 2.487 1.859 5.015 2.769 7.415.444 1.146.838 2.637 1.081 3.932.242 1.296.484 2.591.635 4.015l.394 3.949.281 3.97c.04 2.674.393 5.178-.103 8.064-.051.345-.102.69-.264 1.055-.071.237-.162.366-.344.623-.182.258-.496.428-.941.511-.708-.091-.991-.373-1.274-.655-.283-.282-.546-.457-.718-.76-.889-1.062-1.597-2.383-1.728-3.699-.02-.108-.02-.108.091-.129 0 0 .111-.021.132.087a8.835 8.835 0 002.294 3.035c.263.174.546.457.678.544.263.174.506.24.506.24l-.112.021s.091-.129.071-.237c.071-.236.122-.581.081-.797.001-1.229-.11-2.437-.241-3.754l-.393-3.949-.393-3.949-.262-3.861c-.131-1.317-.242-2.525-.373-3.841-.242-1.296-.444-2.376-.929-3.737-.819-2.529-1.526-5.078-2.435-7.478-.465-1.254-.91-2.4-1.486-3.633-.556-1.125-1.263-2.445-1.415-3.87-.151-1.424.052-2.803.497-4.115a14.579 14.579 0 012.105-3.522 22.857 22.857 0 015.737-5.654l.111-.021c.263.174.172.303.172.303zm2.324 37.667c1.862-1.13 3.986-2.086 6.424-1.984 1.153.008 2.275.469 3.246.734.485.133.971.265 1.396.074.445-.083.738-.361.9-.727.273-.386.415-.86.446-1.312.121-.582.465-1.205.718-1.699.506-.989 1.144-1.89 1.781-2.791 1.164-1.782 2.439-3.585 3.714-5.388 2.55-3.605 4.878-7.169 7.691-10.601 2.701-3.41 5.534-6.733 8.762-9.795l.111-.021.02.108c-2.155 3.867-4.594 7.452-7.033 11.036-2.439 3.585-5.383 6.929-7.973 10.319-1.296 1.695-2.702 3.41-3.977 5.213-.638.901-1.275 1.803-1.801 2.683-.253.495-.527.881-.668 1.354a4.603 4.603 0 01-.719 1.699c-.364.515-.971.964-1.639 1.089-.667.125-1.396-.074-1.881-.207-1.102-.352-2.002-.854-3.064-.991-2.124-.273-4.289.467-6.171 1.489-.111.021-.111.021-.131-.087-.132-.087-.152-.195-.152-.195z" fill="#17293B"/><path d="M419.183 253.653c5.412-2.464 10.48-5.535 15.245-8.996 2.317-1.775 4.634-3.549 6.91-5.539 2.165-1.969 4.199-4.025 6.212-6.19l-.071 1.466c-1.001-1.042-2.002-2.084-3.094-2.997-1.092-.913-2.275-1.697-3.57-2.461-1.294-.763-2.548-1.311-4.024-1.817-1.366-.527-2.822-.925-4.39-1.302-.111.021-.131-.087-.131-.087l.091-.129c1.598-.075 3.105-.022 4.673.355 1.547.27 3.024.776 4.52 1.39 1.497.613 2.812 1.485 4.126 2.356 1.335.98 2.447 2.001 3.489 3.259.323.498.313 1.058-.072 1.466-2.145 2.077-4.421 4.067-6.718 5.949-2.296 1.882-4.724 3.677-7.304 5.277a55.155 55.155 0 01-7.8 4.476c-2.62 1.383-5.391 2.572-8.183 3.653-.112.021-.112.021-.132-.087l.223-.042zm36.755-31.903c4.372-7.41 9.36-14.6 14.764-21.421 2.701-3.411 5.666-6.647 8.631-9.883 2.964-3.236 6.08-6.277 9.328-9.231l-.091.129c.182-.258.344-.623.304-.839l-.061-.324-.02-.108s-.374-.154-.728-.199c-.354-.046-.799.038-1.244.121l-.668.125-.779.145c-.556.104-1.021.08-1.578.184-1.021.079-2.063.051-3.014-.107-1.992-.186-3.894-.501-5.835-1.031-1.942-.531-3.773-1.083-5.552-1.979-3.631-1.555-6.988-3.497-9.89-6.083-.698-.652-1.396-1.303-2.002-2.084-.607-.78-1.234-1.669-1.213-2.79 0-1.229.992-2.085 1.821-2.575.941-.512 1.811-.786 2.813-.973.111-.021.111-.021.131.087.02.108.02.108-.091.129-.87.274-1.831.677-2.529 1.255-.718.469-1.265 1.242-1.235 2.019.142.755.617 1.449 1.203 2.121.587.672 1.264 1.216 2.053 1.739 2.932 2.133 6.36 3.838 9.839 5.199 3.479 1.361 7.12 2.356 10.771 2.79l2.792.148c.465.025.91-.058 1.375-.033.223-.042.466.024.688-.017l.779-.146c.556-.104 1.021-.079 1.598-.075.597.111 1.284.094 1.982.746l.455.586c.041.215.172.303.212.518.061.324.122.648.071.993-.102.689-.355 1.184-.719 1.699l-.091.128a175.302 175.302 0 00-18.303 18.508c-5.686 6.539-10.827 13.534-15.573 20.79l-.111.021c-.263-.174-.263-.174-.283-.282zm-.355-56.695c-.728 1.03-1.568 2.081-2.317 3.003-.729 1.03-1.589 1.973-2.429 3.024-.86.943-1.457 2.06-2.448 2.916-.992.856-2.003 1.604-3.409 2.091-.112.02-.112.02-.132-.088l-.02-.108c.445-1.312 1.154-2.45 1.903-3.372.728-1.03 1.851-1.799 2.731-2.634.992-.856 1.872-1.691 2.864-2.547.991-.856 1.983-1.712 2.994-2.46l.111-.02c.132.087.152.195.152.195zm27.594-8.849c.951 1.387 1.992 2.645 2.851 4.16.364.714.748 1.536 1.001 2.271.273.843.414 1.599.576 2.462.302 1.62.605 3.239 1.019 4.838.415 1.598.718 3.218 1.243 4.795.081.432.253.735.445 1.146.171.303.363.714.717.76.729.199 1.467-.163 2.185-.632 1.326-.918 2.327-2.335 3.461-3.664l6.617-7.719 6.617-7.718a56.484 56.484 0 016.861-7.652 60.007 60.007 0 018.295-6.133c1.437-.939 2.894-1.77 4.31-2.817 1.325-.918 2.63-1.945 3.41-3.319.799-1.267.87-2.733.477-4.224-.394-1.49-1.213-2.79-2.346-3.919-1.021-1.15-2.396-2.345-3.599-3.237-1.335-.98-2.741-1.722-4.237-2.336-2.994-1.228-6.311-1.725-9.659-1.769-.819-.071-1.73-.012-2.529.026l-1.264.013-1.244.121-2.488.241-2.448.458-1.224.229-1.204.337c-.758.254-1.649.42-2.407.674-1.497.615-3.126 1.143-4.603 1.866-3.085 1.36-5.978 3.13-8.74 4.987-5.504 3.823-10.643 8.36-14.974 13.527l-.121-.647c2.609 1.635 4.924 3.548 7.149 5.59 2.082 2.516 4.125 4.815 5.853 7.285zm-.202.15c-1.82-2.341-3.751-4.662-6.066-6.575-2.225-2.042-4.722-3.698-7.311-5.225-.243-.066-.303-.39-.121-.648 2.024-2.725 4.31-5.275 6.728-7.739a65.217 65.217 0 017.821-6.826c2.833-2.094 5.706-3.972 8.882-5.46 1.568-.852 3.197-1.38 4.917-2.037.869-.275 1.739-.549 2.498-.803l1.315-.357 1.335-.25 2.559-.479 2.62-.155 1.355-.141 1.265-.013c.91-.059 1.729.011 2.66.061 3.479.131 7.039.694 10.407 2.076 1.628.701 3.185 1.639 4.631 2.597 1.355 1.088 2.599 2.196 3.772 3.541 1.172 1.345 2.143 2.839 2.597 4.654.455 1.814.373 3.841-.699 5.494-.962 1.632-2.489 2.7-3.906 3.747-1.436.939-2.873 1.879-4.33 2.71a69.153 69.153 0 00-8.225 5.896c-2.59 2.16-4.765 4.69-6.92 7.328l-6.881 7.544-6.88 7.544c-1.153 1.221-2.155 2.638-3.703 3.598-.718.469-1.659.98-2.65.607-.506-.241-.698-.652-.89-1.063-.192-.411-.384-.822-.444-1.145-.94-3.177-1.455-6.544-2.06-9.783-.162-.864-.303-1.619-.576-2.462-.253-.735-.637-1.557-1.001-2.271-.707-1.321-1.749-2.578-2.699-3.965zm-39.469 10.622c4.462-5.08 8.904-10.269 13.477-15.37l.425 1.038c-1.79-.336-3.56-.563-5.371-1.007-1.81-.443-3.509-.908-5.249-1.588-1.739-.68-3.367-1.381-4.995-2.083l-4.885-2.103c-1.628-.701-3.256-1.402-4.904-2.211-.769-.415-1.649-.809-2.438-1.332-.788-.523-1.597-1.154-2.244-2.15-.324-.498-.425-1.038-.526-1.578.011-.561.021-1.121.163-1.595.141-.473.486-1.096.89-1.395.385-.407.921-.619 1.477-.723.981-.296 2.043-.159 2.994-.002.951.158 1.831.552 2.599.967l.02.108-.111.021a9.73 9.73 0 00-2.63-.514c-.819-.071-1.709.096-2.468.35-.738.361-1.123.768-1.224 1.458-.051.344-.101.689-.041 1.013.061.324.233.627.384.822.759.976 2.518 1.764 4.035 2.486 1.628.701 3.256 1.402 4.905 2.211 3.276 1.51 6.462 3.149 9.627 4.68 1.628.701 3.236 1.294 4.935 1.759 1.699.464 3.489.799 5.168 1.156l.112-.021c.354.046.546.457.495.801.02.108-.071.237-.182.258-4.725 4.906-9.471 9.704-14.196 14.611l-.111.02c-.222.042-.242-.066-.131-.087z" fill="#17293B"/><path d="M423.782 138.488c.162-.366.324-.731.597-1.118.162-.365.456-.643.618-1.009.182-.257.324-.731.748-.922.425-.191.891-.167 1.508.053.111-.021.131.087.151.195a2.398 2.398 0 01-.182 1.487c-.162.365-.628.341-1.052.532-.314.17-.739.362-1.053.532-.424.191-.758.254-1.183.445-.111.021-.223.041-.152-.195-.091.128-.111.021 0 0zm-35.481 31.33c.688-1.246 1.619-2.426 2.681-3.519a13.957 13.957 0 013.642-2.692c1.366-.703 2.843-1.426 4.309-1.588 1.599-.076 3.126.085 4.531.828 0 0 .132.087.041.216l-.111.021c-1.518.507-2.853.757-4.168 1.115-1.315.357-2.67.499-3.965.965-2.59.931-4.927 2.597-6.94 4.762l-.111.02s-.021-.108.091-.128zm-177.911-1.809c.616 5.136 2.475 10.152 5.457 14.399 1.446 2.187 3.185 4.097 5.126 5.857.981.934 1.942 1.76 2.902 2.585.961.826 1.942 1.76 2.922 2.694 1.851 1.889 3.499 3.927 5.167 6.073 1.557 2.167 3.002 4.355 4.246 6.692a85.625 85.625 0 013.416 7.183 92.04 92.04 0 012.435 7.478c1.303 5.119 1.958 10.472 1.572 15.796a60.043 60.043 0 01-1.165 7.927c-.335 1.292-.669 2.584-1.114 3.896-.466 1.204-.911 2.517-1.377 3.721-1.954 4.947-4.727 9.823-9.138 13.33a25.214 25.214 0 01-7.193 4.027c-2.609.823-5.28 1.323-8.051 1.282-.111.021-.131-.087-.131-.087-.021-.108.091-.129.091-.129 5.31-.546 10.429-2.732 14.152-6.222 3.834-3.511 6.314-8.109 8.065-12.906 1.843-4.926 3.129-9.747 3.535-14.963.538-5.129.054-10.178-1.117-15.21-.576-2.463-1.395-4.991-2.193-7.412-.909-2.4-1.93-4.779-3.153-7.008-1.223-2.23-2.578-4.546-4.003-6.626-1.537-2.059-3.074-4.118-4.924-6.007-.869-.954-1.85-1.888-2.699-2.735-.981-.934-1.942-1.76-2.923-2.694-1.85-1.888-3.609-3.906-5.055-6.094-2.891-4.375-4.548-9.54-5.163-14.677-.02-.108.091-.129.091-.129.202-.149.222-.041.222-.041zm-41.521 36.593c.374.154.637.328 1.011.482.131.087.374.153.505.24l.243.067.132.087c-2.145 2.077-.587.556-1.063 1.092.476-.536-1.062 1.093 1.063-1.092l.131.087.263.174c.131.087.263.174.506.241.374.153.637.328.809.631l-.86-.286c1.284.095 2.569.189 3.934.716.111-.021.132.087.041.216l-.112.021c-1.254.682-2.589.931-3.813 1.16l-.111.021-.749-.307c-.374-.153-.546-.457-.718-.76-.04-.216-.172-.303-.303-.39l-.152-.195-.02-.108-.02-.108c2.236-2.206.587-.557 1.062-1.092-.495.427 1.083-.985-1.062 1.092l-.02-.108-.02-.108-.152-.195c-.132-.087-.172-.303-.212-.519l-.516-.909s.091-.129.203-.15zm40.186-33.885c-.324.731-.78 1.375-1.103 2.106-.456.643-.78 1.374-1.235 2.018-.455.644-.648 1.462-1.366 1.932-.607.449-1.325.918-2.307 1.213-.111.021-.131-.087-.131-.087.041-1.013.365-1.744.709-2.367.324-.731 1.062-1.093 1.649-1.649.587-.557 1.174-1.114 1.781-1.562.607-.449 1.193-1.006 1.8-1.455l.112-.02c.07-.237.091-.129.091-.129zm-.358 8.559c-2.983-.56-5.997-.666-9.022-.212-3.024.454-5.836 1.427-8.456 2.81-2.62 1.384-5.048 3.179-7.062 5.344-2.013 2.164-4.027 4.328-5.666 6.646l-.051-.884c1.183 2.013 2.164 4.176 3.144 6.339.02.108.02.108-.091.129l-.111.021c-1.588-1.714-3.084-3.557-4.469-5.421-.172-.303-.212-.519-.05-.885l.091-.129a26.6 26.6 0 015.767-7.336 31.776 31.776 0 017.901-5.165 27.02 27.02 0 019.114-2.375c3.065-.238 6.251.172 9.163.968 0 0 .132.087.021.108l-.223.042z" fill="#17293B"/><path d="M176.533 208.644l3.269-5.305c1.053-1.761 1.974-3.609 2.895-5.457.394-.968.921-1.849 1.315-2.816a22.165 22.165 0 011.67-2.771c1.295-1.695 2.854-3.215 4.675-4.561 3.551-2.564 7.557-4.543 11.916-5.246 4.36-.704 8.941-.22 12.744 1.639 0 0 .131.087.02.108l-.112.021c-2.123-.274-4.227-.439-6.179-.409-2.064.051-4.087.317-6.089.692-3.986.857-7.89 2.146-11.259 4.452-1.75 1.11-3.217 2.502-4.553 3.98a19.045 19.045 0 00-1.73 2.447c-.526.881-.921 1.848-1.448 2.729-1.032 1.869-2.084 3.63-3.268 5.304l-3.643 5.151-.111.021c-.203.15-.223.042-.112.021zm9.677 10.481c-.211-4.207.731-8.405 2.665-12.231 2.044-3.846 5.14-6.995 8.691-9.558 1.71-1.326 3.571-2.456 5.564-3.499 2.013-.936 4.178-1.676 6.312-1.963 4.36-.704 8.982-.004 12.804 1.963l.02.108-.111.021c-4.177-.784-8.344-.898-12.329-.041-3.986.857-7.85 2.362-11.33 4.689-3.5 2.219-6.525 5.131-8.742 8.674-2.105 3.523-3.421 7.568-3.452 11.708.02.108-.092.129-.092.129s.132.087 0 0z" fill="#17293B"/><path d="M220.548 190.914c-4.157-.675-8.395-.553-12.36.412-3.965.965-7.769 2.794-11.006 5.188a24.978 24.978 0 00-4.401 4.175c-1.336 1.479-2.54 3.045-3.724 4.719-2.388 3.24-4.119 6.916-5.586 10.766 0 0-.092.128-.112.021 0 0-.131-.088-.02-.108.254-4.182 1.682-8.248 3.878-11.899s5.444-6.605 9.015-9.061c3.571-2.456 7.637-4.11 11.866-4.901 4.248-.683 8.546-.481 12.632.43.111-.02.132.088.02.108-.091.129-.091.129-.202.15zm-48.184 24.991c.86-.943 1.629-1.758 2.51-2.593.88-.835 1.76-1.67 2.509-2.592l-.183 1.487c-.546-.457-1.001-1.042-1.476-1.735-.364-.715-.728-1.429-.778-2.313-.02-.108.091-.129.091-.129.86.286 1.517.722 2.174 1.158.658.436 1.113 1.021 1.568 1.606l.171.303c.192.411.071.993-.354 1.184-1.052.532-2.064 1.28-3.096 1.92-1.031.64-2.084 1.172-3.115 1.812-.112.02-.112.02-.132-.088l.111-.02zm26.638 42.058l8.761-7.337a.607.607 0 01.819.07l5.814 7.069c1.951 2.429 3.993 4.728 5.924 7.049.324.498.314 1.059-.071 1.466-1.669 1.541-3.339 3.082-5.028 4.516l-2.702 2.181c-.9.727-1.821 1.346-2.741 1.965-.111.021-.111.021-.132-.087l-.02-.108a24.733 24.733 0 012.155-2.637c.749-.923 1.518-1.737 2.176-2.53 1.538-1.629 3.076-3.257 4.725-4.907l-.071 1.466c-1.84-2.449-3.589-5.027-5.429-7.476l-5.429-7.477.819.071-9.257 6.536-.111.02c-.293.279-.314.171-.202.15zm-2.912-5.713c1.174-1.113 2.327-2.335 3.612-3.469a36.044 36.044 0 011.872-1.691l1.76-1.67c.385-.407 1.093-.316 1.507.054l.132.087c.566.564 1.041 1.257 1.405 1.972.364.714.748 1.536 1.021 2.379.02.107.02.107-.091.128l-.111.021a9.728 9.728 0 01-2.215-1.373c-.678-.544-1.244-1.109-1.81-1.673l1.638.14c-.718.47-1.456.831-2.175 1.301-.718.47-1.436.939-2.063 1.28-1.457.831-2.782 1.749-4.239 2.58-.111.021-.111.021-.132-.087-.202.15-.091.129-.111.021z" fill="#17293B"/><path d="M213.031 256.009c-.332-3.625.003-7.375 1.066-10.926.587-1.786 1.417-3.505 2.378-5.138.962-1.632 2.166-3.198 3.41-4.548 2.601-2.721 5.838-5.115 9.48-6.578 3.662-1.355 7.576-1.976 11.379-1.346.111-.021.131.087.131.087l-.091.129c-3.671.687-7.171 1.676-10.459 3.185-3.288 1.509-6.403 3.321-9.064 5.718-1.265 1.242-2.51 2.592-3.511 4.009-1.002 1.416-1.852 3.028-2.571 4.727a26.374 26.374 0 00-1.945 10.532c.02.107-.091.128-.091.128-.092.129-.112.021-.112.021z" fill="#17293B"/><path d="M206.561 246.046c-.019-3.796.741-7.737 2.512-11.197 1.771-3.46 4.534-6.546 7.66-8.919 1.618-1.196 3.257-2.285 5.048-3.179a26.827 26.827 0 015.543-2.377c3.834-1.053 8.011-1.499 11.925-.89.112-.021.132.087.132.087l-.091.129c-3.915.62-7.566 1.415-11.117 2.75-1.72.657-3.551 1.334-5.23 2.207-1.699.765-3.378 1.638-5.017 2.726-3.187 2.049-5.899 4.791-7.821 8.056-1.944 3.156-3.078 6.944-3.301 10.673.02.108-.091.129-.091.129-.132-.087-.152-.195-.152-.195z" fill="#17293B"/><path d="M204.812 243.468c.426-3.879 1.56-7.666 3.442-11.147 1.883-3.481 4.513-6.654 7.488-9.222 3.086-2.588 6.586-4.807 10.511-5.988 3.924-1.181 8.122-1.52 12.056-.803.112-.021.132.087.132.087l-.091.129c-3.935.513-7.698 1.328-11.36 2.683-1.831.678-3.55 1.335-5.23 2.208-1.679.872-3.338 1.853-4.845 3.029-3.015 2.352-5.707 5.202-7.761 8.379-2.054 3.178-3.451 6.791-4.231 10.624.02.108-.091.129-.091.129s-.132-.087-.02-.108z" fill="#17293B"/><path d="M198.786 237.109c.365-4.202 1.55-8.335 3.746-11.986 2.176-3.759 5.161-6.887 8.712-9.451a69.414 69.414 0 015.584-3.391c2.013-.935 4.046-1.762 6.272-2.178 4.319-.92 8.799-.976 13.037.131.111-.021.131.087.02.108l-.091.129c-4.238.122-8.395.676-12.451 1.77-1.963.591-3.925 1.181-5.847 1.988-1.922.806-3.824 1.72-5.574 2.83-3.5 2.219-6.525 5.131-8.762 8.566-2.348 3.456-3.795 7.414-4.424 11.443.02.107-.091.128-.091.128-.111.021-.131-.087-.131-.087z" fill="#17293B"/><path d="M195.774 232.085a22.774 22.774 0 012.412-12.965c2.004-4.062 5.413-7.382 9.207-9.879a41.66 41.66 0 016.049-3.366c2.145-.848 4.421-1.609 6.666-1.917 4.603-.638 9.447.021 13.492 1.946 0 0 .132.087.02.108l-.111.02a34.75 34.75 0 00-13.017-.023c-4.208.899-8.335 2.229-12.169 4.511-3.743 2.152-7.082 5.235-9.278 8.886-2.196 3.651-3.32 8.107-3.2 12.443.02.107-.091.128-.091.128l.02.108z" fill="#17293B"/><path d="M192.164 229.408c-.697-4.339-.392-8.865 1.238-13.081 1.63-4.216 4.493-7.991 8.136-10.684 1.8-1.454 3.773-2.605 5.897-3.561 1.073-.424 2.125-.956 3.217-1.272 1.093-.316 2.185-.632 3.389-.969 4.541-.961 9.305-.735 13.583.588 0 0 .132.087.02.108 0 0-.091.128-.111.02-4.521-.16-8.83.199-13.109 1.335-1.092.316-2.073.611-3.054.907-1.093.316-2.054.719-3.126 1.143-2.033.827-3.935 1.741-5.776 2.98-3.572 2.455-6.405 5.779-8.206 9.691-1.802 3.913-2.481 8.286-2.027 12.559.02.108-.091.128-.091.128l.02.108zm-14.856-4.931c1.082-.984 2.074-1.84 3.157-2.825 1.082-.984 2.185-1.861 3.156-2.825.293-.278.647-.233.931.049l.02.108c1.456 1.628 2.912 3.255 4.479 4.861.414.37.313 1.059-.092 1.358l-.091.129a21.153 21.153 0 01-3.733 2.821c-1.345.81-2.691 1.621-4.299 2.257-.111.021-.111.021-.132-.087l-.02-.108a24.263 24.263 0 013.127-3.602 38.155 38.155 0 013.581-3.016l-.182 1.486a313.593 313.593 0 01-3.781-5.438l.95.158c-1.123.768-2.337 1.666-3.571 2.455-1.234.79-2.357 1.559-3.591 2.348-.111.021-.111.021-.132-.087.243.066.223-.042.223-.042z" fill="#17293B"/><path d="M188.938 225.095l1.305 1.433c.434.477.869.954 1.213 1.56.435.478.981.934 1.213 1.561.232.627.242 1.296.05 2.114.02.108-.091.129-.202.149-.86-.286-1.406-.742-1.841-1.22-.435-.477-.556-1.125-.788-1.752l-.697-1.88c-.233-.627-.354-1.275-.586-1.902.222-.042.202-.15.333-.063-.02-.107 0 0 0 0zm-10.17-12.512c.435.478.89 1.063 1.213 1.561.435.478.779 1.084 1.102 1.582.324.498.87.955 1.011 1.71.121.648.242 1.296-.061 2.135.02.108-.091.129-.203.149-.859-.286-1.294-.763-1.749-1.348-.435-.478-.465-1.254-.697-1.881-.233-.627-.354-1.275-.586-1.902-.121-.648-.354-1.275-.475-1.922.223-.042.202-.15.445-.084-.131-.087-.02-.107 0 0zm7.476 26.424c2.661-2.397 5.211-4.773 7.872-7.171.293-.278.758-.253 1.041.029l.021.108.02.108c1.385 1.864 2.638 3.641 4.023 5.505.304.39.293.95-.091 1.358l-.091.128a36.269 36.269 0 01-4.138 3.121 34.288 34.288 0 01-4.704 2.556c-.111.02-.111.02-.131-.088l-.021-.108c1.114-1.437 2.267-2.658 3.532-3.9 1.285-1.135 2.569-2.269 3.986-3.316l-.294 1.508c-1.071-2.035-2.234-3.94-3.396-5.846l1.061.137a260.142 260.142 0 01-8.74 6.216l-.112.021c.183-.258.162-.366.162-.366z" fill="#17293B"/><path d="M198.795 239.007c.435.477.87.954 1.396 1.303l1.304 1.432c.434.477.96.826 1.193 1.453.232.627.353 1.275.05 2.114.02.107-.091.128-.203.149-.839-.178-1.385-.635-1.82-1.112-.435-.477-.556-1.125-.768-1.644-.232-.627-.445-1.146-.677-1.773-.232-.627-.445-1.146-.566-1.794-.131-.087-.151-.195.091-.128-.131-.088-.02-.108 0 0zm36.394-37.535l16.84-1.697a435.386 435.386 0 0016.821-1.806c5.624-.716 11.228-1.541 16.831-2.366 5.624-.716 11.308-1.109 17.033-1.286 11.339-.333 22.687.003 33.984 1.912 11.186 1.931 22.108 4.916 32.494 9.342 0 0 .131.087.02.108 0 0-.091.129-.111.021-10.74-3.243-21.693-5.775-32.819-7.382-11.105-1.498-22.331-2.415-33.599-2.319-5.633.048-11.227.312-16.871.921-5.624.716-11.247 1.433-16.891 2.042-5.644.608-11.329 1.001-16.902 1.373l-16.922 1.266c-.111.02-.131-.087-.131-.087.111-.021.202-.15.223-.042zm10.093 34.873l33.446 5.812 16.668 2.916 16.708 3.133 16.707 3.132c2.741.493 5.502 1.094 8.223 1.479 2.721.385 5.623.512 8.435.769 11.287 1.24 22.534 3.495 33.264 7.298 0 0 .131.087.02.108 0 0-.091.129-.111.021-11.065-2.512-22.139-4.463-33.346-5.272-2.811-.256-5.603-.405-8.546-.748-2.943-.344-5.704-.945-8.465-1.545l-16.566-3.606-16.637-3.369-16.617-3.261-33.254-6.63c-.111.021-.131-.087-.131-.087.091-.129.182-.258.202-.15zm-33.565-71.713c1.498-5.532 4.787-10.729 9.815-14.015 2.448-1.687 5.372-2.681 8.244-3.33 2.893-.541 5.827-.866 8.719-1.408a457.913 457.913 0 0117.428-2.254c2.933-.325 5.887-.542 8.881-.543 2.994-.002 6.008.105 8.88.685 1.456.398 2.913.796 4.298 1.431 1.406.743 2.589 1.527 3.772 2.311 2.386 1.677 4.682 3.482 6.957 5.18 4.591 3.611 9.05 7.134 13.458 11.003 4.207 4.018 8.21 8.185 11.627 12.909a35.233 35.233 0 014.185 7.598c1.082 2.703 1.829 5.468 2.02 8.337.021.108-.091.129-.091.129-.111.021-.111.021-.131-.087-1.161-5.593-3.84-10.679-7.308-15.058-3.579-4.359-7.583-8.527-11.84-12.2-2.093-1.955-4.368-3.652-6.552-5.478l-6.663-5.458a155.788 155.788 0 00-6.755-5.329c-1.183-.785-2.275-1.698-3.529-2.245-1.163-.677-2.508-1.096-3.833-1.406-2.761-.601-5.573-.858-8.455-.877-2.883-.02-5.836.197-8.678.394a453.085 453.085 0 00-17.489 1.93c-2.913.433-5.866.65-8.648 1.171-2.782.52-5.594 1.493-8.082 2.964-4.957 3.05-8.266 8.138-9.897 13.583 0 0-.091.129-.111.021-.202.15-.202.15-.222.042z" fill="#17293B"/><path d="M312.563 174.933c5.563.188 11.075.722 16.537 1.6 2.74.493 5.552.749 8.131 1.607 2.69.838 5.269 1.697 7.706 3.029l.02.107-.111.021c-2.791-.148-5.532-.641-8.273-1.134-2.741-.493-5.32-1.351-7.97-1.973-2.649-.622-5.299-1.244-8.04-1.737-2.741-.493-5.37-1.007-8.091-1.392-.111.021-.131-.087-.131-.087l.222-.041zm-79.227-29.541c3.521-2.111 6.778-4.396 9.733-7.072 2.954-2.675 5.605-5.741 8.145-8.786 2.651-3.066 5.19-6.111 7.336-9.417 1.072-1.653 2.145-3.307 2.844-5.113.678-1.915 1.69-3.892 3.248-5.412.769-.815 1.69-1.434 2.873-1.879.648-.232 1.467-.162 2.084.058.617.219 1.142.568 1.668.917 1.679 1.585 2.619 3.532 3.427 5.392.809 1.86 1.324 3.999 1.374 6.112.05 2.114-.457 4.332-1.489 6.201-1.032 1.869-2.459 3.477-3.906 4.976-1.447 1.5-2.803 2.871-4.381 4.284-1.467 1.391-2.934 2.783-4.532 4.088-1.599 1.304-3.086 2.588-4.705 3.785l-.111.021-.02-.108c1.447-1.5 2.802-2.871 4.138-4.35 1.335-1.479 2.802-2.871 4.118-4.457 1.335-1.479 2.671-2.958 3.986-4.545 1.336-1.479 2.54-3.045 3.39-4.657.85-1.611 1.195-3.463 1.206-5.253.01-1.79-.444-3.604-1.121-5.377-.677-1.773-1.466-3.525-2.729-4.741-.567-.565-1.184-.785-1.851-.66-.334.062-.739.362-1.164.553-.404.299-.718.469-1.102.877-.698.577-1.245 1.35-1.791 2.122-.273.387-.435.752-.688 1.246-.162.366-.415.86-.557 1.334-.79 1.935-1.974 3.609-3.158 5.283-2.367 3.348-5.039 6.306-7.801 9.392-2.782 2.979-5.453 5.937-8.651 8.546a59.201 59.201 0 01-10.126 6.81c-.112.021-.111.021-.132-.087l.445-.083zm46.522-44.345a12.121 12.121 0 01-1.08-3.932c-.01-.669-.132-1.316-.03-2.006.051-.344.101-.69.374-1.075.274-.387.699-.578 1.032-.64.779-.146 1.507.053 2.256.36.617.22 1.254.548 1.871.767l3.762 1.643 14.916 6.484a115.205 115.205 0 007.463 2.962l7.666 2.812c1.254.548 2.599.967 3.873 1.622 1.274.656 2.528 1.203 3.681 2.44.566.565.971 1.495.798 2.421-.192.818-.648 1.462-1.234 2.019-1.194 1.005-2.752 1.297-4.168 1.114-.111.021-.131-.087-.131-.087l.091-.129c1.355-.141 2.65-.607 3.399-1.529.384-.407.617-1.01.627-1.57.031-.453-.273-.843-.687-1.212-.829-.739-2.083-1.287-3.317-1.726a97.13 97.13 0 00-3.813-1.299c-5.157-1.717-10.285-3.886-15.118-6.334l-14.573-7.107-3.671-1.772c-1.254-.547-2.457-1.44-3.59-1.34-.576-.003-.941.512-.931 1.18-.121.582-.111 1.25-.101 1.919.019 1.337.373 2.612.838 3.865.02.108.02.108-.091.129.02.108-.112.021-.112.021z" fill="#17293B"/><path d="M322.817 118.935l4.794-.226-.222.041c2.701-2.181 5.271-4.449 7.841-6.718 2.569-2.268 5.139-4.536 7.557-7l.02.108.385-.407.384-.407.658-.794 1.427-1.607c.951-1.072 1.902-2.144 2.722-3.303.84-1.05 1.77-2.23 1.589-3.202-.111-1.209-.91-2.4-2.002-3.313l-.02-.108.111-.02c1.274.655 2.72 1.613 3.246 3.191.081.432.161.864.131 1.317-.031.452-.193.818-.354 1.183-.324.731-.648 1.462-.992 2.085a41.42 41.42 0 01-2.55 3.606l-1.427 1.607c-.293.279-.476.536-.769.815l-.385.407-.202.149-.091.129-.111.021s-.111.021 0 0l-.091.129a187.21 187.21 0 01-8.104 6.543 242.902 242.902 0 01-8.407 6.154l-.223.042-4.743-.119c-.111.021-.132-.087-.132-.087-.131-.087-.151-.195-.04-.216z" fill="#17293B"/><path d="M333.01 63.843c.949 3.844 1.676 7.73 1.847 11.721.141 1.985.059 4.012-.043 5.93-.101 1.919-.092 3.817.272 5.76.232 1.856.909 3.629 1.697 5.38.788 1.753 1.708 3.592 2.385 5.365.384.822.748 1.536 1.405 1.972.546.456 1.254.547 2.124.273 1.76-.44 3.268-1.617 4.078-3.444 0 0 .091-.129.111-.021 0 0 .131.087.02.108-.041 1.013-.547 2.002-1.184 2.903-.638.902-1.558 1.521-2.631 1.945-1.072.424-2.539.586-3.702-.09-1.162-.676-1.809-1.673-2.325-2.582-.92-1.84-1.708-3.591-2.405-5.472-.698-1.88-1.193-3.911-1.354-6.004-.252-1.964-.19-4.099.134-6.059.213-1.94.426-3.879.396-5.884.072-3.925-.209-7.894-.916-11.673-.152-.195-.041-.216.091-.128-.02-.109-.02-.109 0 0z" fill="#17293B"/><path d="M282.886 91.99l6.352-2.977c2.105-1.064 4.249-1.912 6.333-3.084 4.077-2.215 8.133-4.538 12.15-7.077 3.905-2.518 7.81-5.036 11.674-7.77l11.392-8.053c.404-.299 1.001-.187 1.304.203.021.108.152.195.172.303.667 2.334.98 4.621 1.202 7.038.11 1.209.11 2.438.089 3.559 0 1.23-.243 2.392-.375 3.534a34.114 34.114 0 00-.124 6.727c.182 2.201.606 4.468 1.343 6.565.627 2.118 1.587 4.173 2.658 6.207.536 1.017 1.072 2.034 1.719 3.031.626.888 1.253 1.776 2.022 2.191.768.415 1.77.228 2.711-.283.92-.619 1.689-1.434 2.438-2.356 1.406-1.715 2.004-4.062 2.156-6.325-.02-.108.091-.129.091-.129l.132.087c.201 2.31-.133 4.83-1.459 6.977-.728 1.03-1.477 1.953-2.469 2.808a4 4 0 01-1.901.915c-.779.146-1.487.055-2.236-.252-1.385-.635-2.164-1.719-2.922-2.694-.647-.997-1.294-1.993-1.83-3.01-1.182-2.014-2.274-4.156-3.052-6.469-.778-2.312-1.333-4.666-1.555-7.083-.222-2.417-.09-4.788.265-7.2.132-1.143.375-2.306.396-3.427l.062-3.364a33.956 33.956 0 00-.918-6.755l1.365.526-11.655 7.879c-3.904 2.518-7.921 5.057-11.957 7.488a147.275 147.275 0 01-12.453 6.687c-2.104 1.064-4.249 1.912-6.484 2.889l-6.505 2.78c-.111.021-.111.021-.131-.087-.112.021-.091.129 0 0zm50.783-30.17c.041-1.014.324-1.96 1.093-2.775.658-.793 1.619-1.196 2.428-1.795l5.048-3.178 10.097-6.358c3.409-2.09 6.666-4.376 10.116-6.25 3.45-1.874 7.031-3.662 10.784-5.146.111-.02.111-.02.131.087l.02.108a96.367 96.367 0 01-9.772 6.856c-3.39 2.199-6.88 3.857-10.42 5.86l-10.44 5.752-5.24 2.768c-.83.49-1.811.785-2.489 1.47-.678.686-1.093 1.546-1.154 2.451.02.108-.091.129-.091.129-.091.129-.091.129-.111.02zm1.932-.138c3.145 1.423 6.179 2.866 9.304 4.181 3.145 1.424 6.27 2.739 9.395 4.053 1.608.594 3.124 1.316 4.712 1.8.749.308 1.608.594 2.357.9l2.467.88c1.74.68 3.428 1.705 4.439 3.416.192.41.384.822.597 1.34.08.433.181.972.04 1.446-.264 1.055-1.053 1.761-1.812 2.015-.111.02-.111.02-.131-.087l-.02-.108c.587-.557 1.022-1.309.901-1.957-.01-.668-.465-1.254-.92-1.839-.89-1.063-2.407-1.784-3.863-2.182l-1.214-.332c-.374-.154-.859-.286-1.234-.44-.859-.286-1.628-.7-2.376-1.008-1.517-.722-3.165-1.53-4.682-2.253l-9.162-4.655c-3.054-1.552-5.926-3.361-8.889-5.042l-.02-.108.111-.02zm32.904 20.774c5.867-.65 11.37-3.244 15.589-7.162 6.485-4.118 12.039-9.515 16.037-15.849.961-1.632 1.923-3.265 2.752-4.984a54.252 54.252 0 002.157-5.096c1.194-3.464 1.883-7.169 1.662-10.815a43.529 43.529 0 00-.676-5.46c-.343-1.835-.889-3.52-1.546-5.186-.657-1.665-1.627-3.16-2.942-4.03-.374-.154-.657-.436-1.031-.59-.374-.153-.748-.307-1.102-.352-.708-.091-1.619-.033-2.377.22-1.629.529-3.419 1.422-4.967 2.382l-4.978 2.942a89.374 89.374 0 00-9.499 6.47l-.111.02-.021-.107c2.712-2.742 5.707-5.202 8.853-7.466 1.639-1.089 3.146-2.265 4.805-3.245 1.659-.981 3.298-2.07 5.352-2.789.981-.295 2.073-.611 3.247-.496 1.173.116 2.296.577 3.216 1.187 1.86 1.328 3.003 3.125 3.791 4.877.808 1.86 1.283 3.783 1.626 5.618.344 1.835.596 3.8.626 5.805.039 3.904-.853 7.758-2.138 11.35-.699 1.807-1.529 3.526-2.359 5.246-.83 1.72-1.902 3.373-2.864 5.005-4.311 6.505-10.219 11.856-16.856 15.779l.112-.021c-4.462 3.851-10.228 6.27-16.115 6.813-.111.02-.131-.087-.131-.087-.223.041-.112.02-.112.02zm9.687 190.931c1.244 1.108 2.538 1.872 4.126 2.357 1.476.506 3.115.647 4.561.376 1.447-.27 2.681-1.06 3.804-1.829 1.234-.789 2.185-1.861 3.298-3.298l.223-.042.02.108c.101 1.769-.729 3.489-1.974 4.839-1.356 1.371-3.338 1.853-5.159 1.97-1.82.117-3.631-.326-5.148-1.048s-2.892-1.917-3.822-3.196c-.02-.108-.02-.108.091-.129-.131-.087-.131-.087-.02-.108zm34.717-44.036c-.94-.718-1.587-1.714-2.123-2.731-.556-1.126-.889-2.292-.889-3.521.001-1.23-.019-2.567.578-3.684s1.457-2.06 2.6-2.721c.112-.021.112-.021.132.087l.02.108c-.223 1.271-.486 2.326-.659 3.252-.152 1.034-.678 1.914-.83 2.948-.152 1.035-.082 2.027.12 3.107.202 1.079.738 2.096 1.254 3.006.02.108.02.108-.092.128.021.108 0 0-.111.021zm15.854-15.591c1.386.634 2.72 1.614 3.671 3.001.95 1.386 1.364 2.985 1.444 4.646.081 1.661-.173 3.384-1.063 4.78-.891 1.395-2.044 2.617-3.632 3.361-.112.021-.112.021-.132-.087l-.02-.108c.628-1.57 1.205-2.796 1.761-4.129.446-1.312 1.134-2.558 1.337-3.937.202-1.379.051-2.803-.525-4.036-.596-1.341-1.597-2.383-2.8-3.275l-.021-.108c-.151-.195-.04-.216-.02-.108zm2.741.493c-.01-.669.182-1.487.506-2.218a7.482 7.482 0 011.255-1.911c.587-.557 1.022-1.308 1.912-1.475a3.176 3.176 0 012.458.211c.111-.021.131.087.04.216-.546.772-1.042 1.2-1.558 1.52-.496.428-1.183.445-1.679.873-.516.32-1.012.748-1.508 1.176-.495.428-.839 1.051-1.295 1.695l-.111.021c.091-.129-.02-.108-.02-.108zm21.412-1.882c.971 1.494 1.537 3.288 1.789 5.252.121 1.877-.204 3.837-.902 5.644-.415.86-.81 1.827-1.356 2.6-.547.773-1.316 1.587-2.145 2.077-1.75 1.11-3.844 1.613-5.746 1.298-.111.021-.131-.087-.131-.087s-.02-.108.091-.129c1.679-.872 3.136-1.704 4.421-2.838 1.173-1.113 2.479-2.139 3.349-3.643.87-1.504 1.366-3.161 1.397-4.843.142-1.702-.181-3.43-.838-5.094-.02-.108-.02-.108.092-.129-.152-.195-.041-.216-.021-.108z" fill="#17293B"/><path d="M442.576 226.037c-3.136.475-6.806-1.297-7.786-4.689-.415-1.599-.181-3.43.578-4.913a8.84 8.84 0 011.325-2.147c.567-.665 1.265-1.242 1.983-1.712 1.437-.939 3.136-1.704 5.109-1.626 1.861.099 3.661 1.103 4.834 2.448 1.081 1.474 1.647 3.267 1.505 4.97-.142 1.703-1.104 3.335-2.429 4.253l-.111.021-.02-.108c.779-1.375 1.093-2.774.942-4.198-.131-1.317-.728-2.658-1.577-3.505-.87-.954-2.012-1.523-3.317-1.726-1.305-.203-2.62.155-3.854.945-.627.34-1.234.789-1.71 1.325-.475.536-.951 1.072-1.295 1.695-.688 1.246-1.002 2.646-.74 4.049.263 1.404 1.173 2.574 2.376 3.466 1.204.893 2.771 1.27 4.258 1.215.111-.02.131.087.131.087-.091.129-.091.129-.202.15zm-19.046 2.221c-1.255.682-2.792 1.081-4.228.791-1.548-.269-2.792-1.377-3.499-2.697-.708-1.321-1.102-2.811-.828-4.427.294-1.507 1.053-2.99 2.247-3.996 1.173-1.113 2.65-1.836 4.319-2.148 1.558-.292 3.439-.085 4.885.874a5.593 5.593 0 012.477 4.006c.171 1.532-.214 3.168-1.033 4.327l-.112.021-.02-.108c.537-2.67-.433-5.394-2.455-6.356-.9-.502-2.094-.726-3.338-.605-1.244.121-2.336.437-3.328 1.293-1.012.748-1.74 1.778-1.983 2.941-.355 1.183-.112 2.479.332 3.625.556 1.125 1.426 2.08 2.659 2.519 1.234.44 2.701.277 3.975-.296.112-.021.112-.021.132.087-.111.021-.091.129-.202.149zm-48.912-35.545c.667 1.104 1.425 2.079 2.386 2.905.96.826 1.992 1.416 3.114 1.876 1.123.461 2.387.448 3.449.584 1.173.116 2.326.124 3.702.09.111-.021.131.087.131.087l.021.108c-.931 1.18-2.428 1.795-3.895 1.958-1.578.183-2.984-.56-4.147-1.236-1.274-.656-2.366-1.569-3.144-2.652-.779-1.084-1.466-2.296-1.82-3.571-.02-.108-.02-.108.091-.129.091-.128.092-.128.112-.02zm15.641-12.423c.516-.32 1.073-.424 1.649-.42.577.003 1.325.31 1.74.68.525.348 1.092.913 1.102 1.582.009.668-.092 1.357-.81 1.827l-.223.042-1.132-1.129c-.283-.283-.121-.648-.313-1.059-.172-.303-.455-.585-.738-.868-.395-.261-.769-.415-1.345-.419.111-.02 0 0 .07-.236.021.108 0 0 0 0z" fill="#17293B"/><path d="M379.676 190.202c-.041 1.013.141 1.985.616 2.678a4.066 4.066 0 001.921 1.652c.749.307 1.639.14 2.458.211.819.07 1.709-.097 2.822-.305.111-.02.132.087.132.087l.02.108c-.355 1.184-1.478 1.953-2.681 2.29-1.204.337-2.569-.19-3.601-.779-1.051-.698-1.81-1.673-2.123-2.732-.313-1.059-.292-2.18.102-3.148 0 0 .092-.129.112-.021.202-.149.202-.149.222-.041zm7.811-6.266c.799-.037 1.75.12 2.518.535.789.523 1.375 1.195 1.668 2.146.384.822.677 1.773.374 2.612-.304.839-.85 1.612-1.812 2.015-.111.021-.111.021-.242-.066-.182-.972-.192-1.641-.313-2.288-.121-.648.223-1.271.122-1.811-.121-.648-.222-1.188-.677-1.773a3.956 3.956 0 00-1.82-1.112l.182-.258c-.111.021 0 0 0 0zm20.812-18.641c.353 1.274.818 2.528 1.485 3.633.668 1.104 1.335 2.208 2.204 3.163.87.955 1.942 1.76 2.7 2.735.869.955 1.739 1.91 2.538 3.101.02.108.02.108-.091.129l-.112.021c-1.527-.161-2.801-.817-3.984-1.601-1.183-.785-2.002-2.084-2.69-3.296-.798-1.192-1.263-2.446-1.748-3.808-.374-1.382-.616-2.678-.636-4.015.091-.129.091-.129.334-.062-.132-.087-.02-.108 0 0z" fill="#17293B"/><path d="M414.964 167.066c-.091 1.358-.072 2.695.171 3.99.242 1.296.596 2.57 1.152 3.695.556 1.126 1.516 1.952 2.254 2.819.849.847 1.77 1.457 3.175 2.2 0 0 .132.087.041.215l-.112.021c-1.517.508-3.196.151-4.51-.72-1.426-.851-2.063-2.408-2.437-3.791-.485-1.361-.636-2.786-.676-4.231-.04-1.445.274-2.844.72-4.157 0 0 .091-.129.111-.021.091-.128.111-.02.111-.02zm5.34.23c-.395.967-.547 2.001-.365 2.973.181.972.697 1.881 1.303 2.661.607.781 1.416 1.412 2.255 1.59.86.286 1.75.119 2.731-.176 1.942-.698 3.672-1.916 4.583-3.203.456-.644.759-1.483.709-2.368-.05-.884-.343-1.835-.768-2.873-.02-.108-.02-.108.091-.129l.112-.021c.92.61 1.769 1.457 2.234 2.711.445 1.146.262 2.633-.335 3.75s-1.7 1.994-2.752 2.526c-1.052.532-2.236.977-3.348 1.185-1.093.316-2.58.371-3.702-.09-1.234-.439-2.103-1.394-2.619-2.303-.323-.499-.536-1.018-.748-1.537-.212-.519-.313-1.058-.323-1.727-.091-1.1.264-2.284.901-3.185l.112-.021c.02.108.04.216-.071.237zm15.809-3.516c.394.261.566.564.87.955.303.39.495.801.576 1.233.081.431.404.93.151 1.424-.253.494-.526.88-1.305 1.026-.111.021-.111.021-.243-.066-.455-.585-.627-.889-.687-1.212-.172-.304.233-.603.283-.947l.152-1.034c.051-.345-.03-.777.001-1.23-.02-.108-.041-.216.202-.149-.131-.087-.111.021 0 0zm7.271-25.16c-.475.536-.839 1.051-1.072 1.654-.233.602-.486 1.096-.608 1.677-.121.582.091 1.101-.031 1.682-.121.582-.374 1.076-.678 1.915.02.108-.091.129-.223.041-.768-.414-1.152-1.237-1.293-1.992-.142-.756.273-1.616.617-2.239.324-.731.8-1.267 1.387-1.823.607-.449 1.214-.898 1.861-1.131 0 0 .111-.02.04.216.092-.128.092-.128 0 0zm-6.856-3.41a12.843 12.843 0 00-.567 1.894c-.122.581-.223 1.27-.234 1.831.01.668.223 1.187.101 1.769-.122.581-.354 1.183-.769 2.043.02.108-.091.129-.223.042-.789-.523-1.152-1.237-1.294-1.993-.141-.756.183-1.487.395-2.197.213-.71.557-1.333 1.012-1.977a8.895 8.895 0 011.427-1.607l.111-.021.041.216zm10.305 5.223c-.911 1.288-1.204 2.795-.74 4.049.354 1.275 1.264 2.446 2.498 2.885 1.233.44 2.437.103 3.641-.234 1.315-.358 2.458-1.018 3.632-2.132l.111-.021.02.108c-.031 1.682-1.346 3.269-2.914 4.121-.85.383-1.72.657-2.65.608-.931-.05-1.902-.315-2.69-.838a5.815 5.815 0 01-2.76-4.289c-.192-1.64.527-3.339 1.7-4.452l.112-.021.04.216zm8.148 10.321c.516-.32.92-.619 1.305-1.027.384-.407.658-.793.799-1.266.142-.474.061-.906.335-1.292.273-.386.546-.773 1.113-1.437l.222-.042c.678.544.819 1.299.829 1.968.01.669-.577 1.225-1.053 1.761-.475.536-1.102.877-1.618 1.197a5.663 5.663 0 01-1.892.354l-.04-.216zm16.001-.647c-1.831.678-3.511 1.551-4.887 2.813-1.376 1.263-2.357 2.788-2.854 4.445-.607 1.678-.395 3.426-.537 5.129-.122 1.81.089 3.558.23 5.543.021.108-.091.129-.091.129s-.111.021-.131-.087c-1.325-1.54-2.042-3.529-2.163-5.406-.252-1.964.163-4.053 1.084-5.901.81-1.828 2.237-3.435 3.856-4.632 1.639-1.089 3.561-1.895 5.472-2.141 0 0 .112-.021.021.108.111-.021 0 0 0 0zm10.042 5.049c-3.763.816-7.101 2.669-9.479 5.349-1.244 1.35-1.983 2.941-2.854 4.444-.87 1.504-1.609 3.095-2.419 4.922 0 0-.091.129-.111.021l-.02-.108c-.475-1.922-.171-3.991.528-5.797.678-1.915 2.125-3.415 3.612-4.698a20.088 20.088 0 015.048-3.179c1.831-.678 3.814-1.16 5.766-1.19 0 0 .02.108-.071.236.111-.02.111-.02 0 0zm3.376 4.508c-1.871.462-3.682 1.248-5.341 2.228-1.659.981-3.166 2.157-4.3 3.486a23.973 23.973 0 00-2.965 4.466c-.759 1.483-1.123 3.227-1.114 5.125.02.107-.091.128-.091.128s-.111.021-.131-.087c-1.234-1.669-1.435-3.977-.777-6a8.71 8.71 0 011.558-2.75 20.062 20.062 0 012.125-2.185c1.467-1.392 3.217-2.501 5.139-3.308a18.243 18.243 0 015.837-1.426c.131.087.151.195.06.323.112-.02.112-.02 0 0z" fill="#17293B"/><path d="M486.24 165.801c-1.386-.634-3.044-.883-4.359-.525-1.426.378-2.529 1.255-3.349 2.414-.344.623-.688 1.246-.921 1.848-.233.603-.334 1.292-.567 1.894-.334 1.292-.294 2.737-.102 4.377.02.108-.092.129-.092.129l-.111.021c-1.244-1.109-1.921-2.881-1.91-4.671.061-.906.233-1.832.669-2.583.435-.752.981-1.525 1.568-2.082 1.133-1.329 2.812-2.202 4.613-2.427 1.709-.096 3.428.476 4.763 1.456l.02.108-.222.041zm1.218 12.064c.203-.15.405-.3.588-.557.202-.15.273-.387.253-.495.091-.129-.193-.411-.061-.324.132.087.465.025.982-.295l.222-.042c.729.199.921.611.91 1.171-.01.561-.658.794-.991.857-.314.17-.759.253-1.113.208-.355-.046-.597-.112-.86-.287 0 0-.021-.108.07-.236.021.108 0 0 0 0zm-209.567-33.767c1.842-1.238 3.663-2.584 5.524-3.715 1.841-1.238 3.703-2.368 5.524-3.714l-.385.407c.233-.603.577-1.226.921-1.849a8.945 8.945 0 011.184-1.674c.82-1.159 1.66-2.21 2.742-3.194l.112-.021.02.108c-.203 1.379-.648 2.691-1.205 4.024-.233.603-.577 1.226-.81 1.828-.344.623-.708 1.138-1.052 1.761l-.092.129c-.091.128-.182.257-.293.278-2.013.935-4.006 1.978-6.019 2.914-2.013.935-4.006 1.978-6.019 2.913-.111.021-.111.021-.131-.087-.112.021-.132-.087-.021-.108zm19.888-9.419c-.617 1.01-1.234 2.019-1.831 3.136l-1.852 3.028.071-.236-.244 3.621c-.112 1.25-.021 2.35-.133 3.6s-.355 2.413-.598 3.576c-.354 1.183-.709 2.367-1.195 3.464 0 0-.091.128-.111.02l-.02-.107c-.222-1.188-.333-2.396-.444-3.605.001-1.229.001-2.458.244-3.621.243-1.163.486-2.326.709-3.596l.598-3.576-.02-.108c-.02-.108.091-.129.071-.237l2.246-2.766c.749-.923 1.498-1.845 2.358-2.788l.111-.02.04.215zm-.908 24.082c.952-3.53 1.773-7.148 2.128-10.79.233-1.831.244-3.621.255-5.411l.123-5.498c.05-.344.344-.623.678-.685 3.934-.513 7.738-2.341 10.298-5.278a23.447 23.447 0 003.127-4.831c.83-1.72 1.508-3.634 1.853-5.487l-.021-.108c.071-.236.162-.365.253-.494 1.305-1.026 2.631-1.944 3.936-2.971 1.325-.918 2.63-1.944 4.087-2.775.111-.021.111-.021.131.087l.021.108c-1.154 1.221-2.196 2.422-3.37 3.535-1.173 1.114-2.327 2.335-3.5 3.448l.344-.623c-.173 2.156-.72 4.157-1.6 6.222-.901 1.956-2.176 3.759-3.714 5.387-3.096 3.149-7.345 5.061-11.674 5.312l.678-.685-.477 5.452c-.122 1.811-.244 3.621-.589 5.474-.577 3.683-1.641 7.234-2.835 10.698 0 0-.091.129-.112.021 0 0-.131-.088-.02-.108z" fill="#17293B"/><path d="M319.24 112.118l-6.041 5.264.183-.258c-.325 1.961-1.003 3.875-1.813 5.703-.81 1.827-1.731 3.676-2.894 5.458-1.184 1.674-2.874 3.107-4.755 4.129a14.917 14.917 0 01-5.999 1.793c-.111.02-.131-.088-.131-.088s-.02-.108.091-.128a40.134 40.134 0 004.916-3.266c1.508-1.176 2.884-2.439 4.108-3.897 1.245-1.35 2.317-3.004 3.147-4.723.83-1.72 1.64-3.547 2.227-5.333l-.02-.108c-.02-.108.091-.129.182-.258l6.515-4.57.112-.021c.263.174.172.303.172.303zm-6.149-3.319a276.785 276.785 0 01-6.627 5.82l.182-.257-1.053 2.99c-.395.968-.901 1.956-1.296 2.924-1.032 1.869-2.044 3.846-3.562 5.583a13.415 13.415 0 01-2.701 2.181c-.921.619-1.993 1.043-3.065 1.467-2.165.74-4.279 1.136-6.494.991-.111.021-.131-.087-.131-.087s-.02-.108.091-.128c2.033-.828 3.975-1.526 5.746-2.528 1.79-.893 3.409-2.09 4.896-3.374 1.487-1.284 2.671-2.958 3.724-4.719.526-.88 1.052-1.761 1.447-2.729l1.204-2.795-.02-.108c-.02-.108.091-.129.203-.149 2.448-1.687 4.765-3.462 7.213-5.149l.111-.02c.223-.042.223-.042.132.087zm-5.016-2.191c-.496.428-.992.856-1.467 1.392l-1.488 1.283c-.495.428-.86.943-1.507 1.176-.648.233-1.315.358-2.155.18-.111.02-.131-.087-.151-.195.192-.819.668-1.354 1.164-1.782.495-.428 1.163-.553 1.81-.786.648-.233 1.184-.445 1.831-.678.648-.232 1.295-.465 1.851-.569.071-.237.071-.237.112-.021-.02-.108 0 0 0 0z" fill="#17293B"/><path d="M301.158 105.332c.838 2.636 1.009 5.398.381 8.197-.648 2.691-2.115 5.312-4.281 7.281-2.165 1.969-4.805 3.245-7.223 4.48-1.274.573-2.66 1.168-4.107 1.438-1.446.271-3.176.259-4.561-.376-1.477-.506-2.7-1.506-3.721-2.656-1.021-1.15-1.618-2.491-2.305-3.703-.576-1.233-1.193-2.682-1.455-4.085-.263-1.404-.323-2.957-.231-4.315.365-2.973 1.701-5.681 3.714-7.846 2.014-2.164 4.614-3.656 7.355-4.392.111-.021.111-.021.131.087 0 0 .02.108-.091.129-2.529 1.255-4.603 3.095-6.171 5.177-1.569 2.081-2.48 4.597-2.592 7.077-.223 2.5.352 4.962 1.484 7.32.576 1.233 1.132 2.358 1.779 3.355.759.975 1.719 1.801 2.842 2.262 2.265 1.028 4.895.313 7.444-.834 2.549-1.147 5.119-2.187 7.082-4.006a13.698 13.698 0 004.402-6.634c.779-2.604.719-5.386.012-7.936-.02-.108-.02-.108.091-.128l.021.108z" fill="#17293B"/><path d="M304.97 105.401c-2.144-.381-4.177-.783-6.21-1.185l-6.23-1.293c-2.053-.51-4.157-.675-6.25-1.401a32.41 32.41 0 01-5.896-2.584l-.02-.108.111-.021c2.175-.072 4.319.31 6.463.69 2.144.382 4.035 1.257 6.109 1.875l6.017 2.003c1.962.639 4.055 1.365 6.017 2.003 0 0 .132.087.02.108-.02-.108 0 0-.131-.087z" fill="#17293B"/><path d="M279.167 110.898c.436-1.981 1.337-3.938 2.895-5.458 1.447-1.5 3.44-2.543 5.533-3.046 2.114-.396 4.42-.38 6.443.582 1.011.482 1.861 1.328 2.507 2.325.647.996.961 2.055 1.051 3.155.182 2.201-.436 4.44-1.58 6.329-.506.989-1.254 1.911-2.044 2.618-.88.835-1.821 1.346-2.873 1.878-2.124.956-4.481 1.285-6.665.688-2.164-.489-4.066-2.033-5.076-3.744-.021-.108-.021-.108.091-.128l.111-.021c1.527 1.39 3.286 2.178 5.168 2.385 1.881.207 3.752-.255 5.32-1.107 1.679-.872 2.944-2.115 4.037-3.66.981-1.524 1.68-3.331 1.691-5.121.01-1.789-.869-3.413-2.426-4.35-1.558-.938-3.661-1.104-5.553-.75-1.911.246-3.833 1.052-5.3 2.444-1.488 1.284-2.52 3.153-3.087 5.047.02.108-.091.129-.111.021-.112.021-.132-.087-.132-.087zm55.829-27.203c2.023.963 4.147 1.236 6.261.84a15.542 15.542 0 003.055-.906 13.214 13.214 0 002.711-1.513c1.73-1.217 2.914-2.891 4.098-4.565 1.184-1.674 2.236-3.435 3.248-5.412 0 0 .091-.13.111-.021l.021.108c.201 2.308-.417 4.547-1.54 6.545-1.123 1.998-2.995 3.689-5.079 4.86-1.032.64-2.104 1.064-3.197 1.38-1.092.317-2.296.654-3.429.754-2.397.113-4.693-.463-6.533-1.683l-.02-.108c.182-.258.182-.258.293-.279z" fill="#17293B"/><path d="M335.809 76.95c1.243 1.109 2.74 1.723 4.207 1.56 1.487-.054 2.852-.757 4.066-1.654 1.214-.898 1.902-2.144 2.722-3.303.82-1.159 1.356-2.6 2.115-4.083 0 0 .092-.128.112-.02l.02.108c.546 1.685.403 3.388-.315 5.087a5.152 5.152 0 01-1.549 2.189c-.698.577-1.396 1.155-2.246 1.537-1.568.852-3.287 1.509-5.168 1.302-1.77-.228-3.328-1.165-4.278-2.552l-.02-.108.334-.062zm-1.151-6.153c-.141-.756-.04-1.445.152-2.263.213-.71.537-1.441 1.104-2.106.455-.644 1.001-1.416 1.892-1.583.758-.254 1.669-.312 2.569.19.111-.02.131.087.04.216-.567.665-1.063 1.093-1.558 1.52-.496.428-1.052.532-1.568.852-.496.428-.992.856-1.356 1.371a6.43 6.43 0 00-.921 1.849c-.111.02-.223.041-.354-.046.02.108 0 0 0 0zm7.346 17.733c2.063-.05 4.177-.446 6.099-1.253 1.922-.806 3.561-1.895 5.048-3.179 1.467-1.391 2.54-3.045 3.633-4.59 1.072-1.653 1.902-3.373 2.803-5.329 0 0 .091-.129.111-.02l.021.107c.403 2.16-.103 4.377-1.004 6.334-.992 2.085-2.661 3.626-4.371 4.951-1.821 1.346-3.814 2.39-5.908 2.893-2.094.503-4.359.704-6.483.43-.111.021-.132-.087-.132-.087.071-.236.071-.236.183-.257z" fill="#17293B"/><path d="M347.707 90.704c2.013.294 4.167.114 5.978-.671 1.831-.678 3.45-1.875 4.674-3.333 1.336-1.479 2.186-3.09 3.127-4.83.962-1.633 1.66-3.44 2.561-5.396 0 0 .091-.129.111-.02l.02.107c.384 2.051.1 4.227-.669 6.27-.77 2.044-2.308 3.673-3.886 5.085-1.578 1.413-3.531 2.672-5.625 3.175a12.25 12.25 0 01-6.362-.15s-.131-.088-.02-.109c-.02-.107-.02-.107.091-.128z" fill="#17293B"/><path d="M354.152 91.286c1.122.46 2.113.833 3.236 1.294l-.243-.067a12.686 12.686 0 006.617-5.26c.344-.623.688-1.246.921-1.848.232-.602.556-1.333.789-1.935.466-1.205.689-2.475.558-3.792l.172.303c-.455-.585-1.022-1.15-1.385-1.864-.021-.108-.021-.108.091-.128l.111-.021c.748.307 1.497.614 2.154 1.05l.131.087.152.195c.616 1.449.828 3.197.332 4.854-.304.839-.648 1.462-.972 2.193l-1.366 1.931c-1.042 1.201-2.216 2.314-3.561 3.125-1.346.81-2.843 1.425-4.4 1.717-.112.02-.112.02-.243-.067-1.032-.589-2.063-1.178-2.983-1.788l-.02-.108c-.203.15-.091.129-.091.129zm-17.923 1.453c.546-.773 1.113-1.438 1.659-2.21a16.394 16.394 0 011.791-2.123.61.61 0 01.91-.059l.132.088c1.334.98 2.578 2.087 3.913 3.067.414.37.515.909.131 1.316l-.091.129-.202.15a9.764 9.764 0 01-2.52 1.923c-.94.511-1.881 1.023-2.974 1.339-.111.02-.111.02-.131-.088l-.02-.108c.506-.988 1.143-1.89 1.801-2.683.658-.793 1.447-1.5 2.367-2.119l-.051 1.574c-1.041-1.258-2.194-2.495-3.346-3.732l.91-.058c-.698.577-1.376 1.263-2.074 1.84a50.219 50.219 0 01-2.205 1.754l-.112.02c.132.088.112-.02.112-.02z" fill="#17293B"/><path d="M339.234 86.031c.748.307 1.385.635 2.022.963.638.328 1.386.635 2.023.962.637.328 1.477.506 1.931 1.092.455.585.91 1.17 1.203 2.121.021.108-.091.129-.091.129-1.021.08-1.749-.12-2.387-.448-.748-.307-1.092-.913-1.658-1.477a16.771 16.771 0 01-1.547-1.499c-.455-.585-1.001-1.042-1.567-1.606l-.02-.108c.071-.237.071-.237.091-.129zm-36.076 25.073c1.142.568 2.154 1.049 3.185 1.638 1.032.59 2.063 1.179 3.206 1.747 1.031.589 2.154 1.05 3.114 1.876a11.136 11.136 0 012.366 2.798c.02.108.02.108-.091.128l-.111.021c-1.305-.203-2.427-.663-3.57-1.231-1.143-.569-1.881-1.436-2.821-2.154a48.001 48.001 0 01-2.73-2.283c-.961-.826-1.79-1.565-2.751-2.391l-.02-.108.223-.041zm-7.663 19.981c3.176-1.488 5.877-3.67 7.79-6.374 1.022-1.308 1.538-2.857 2.297-4.34.759-1.483 1.518-2.966 2.389-4.469 0 0 .091-.129.111-.021l.02.108c.344 1.835-.021 3.579-.608 5.365-.588 1.786-1.832 3.136-3.077 4.486a20.018 20.018 0 01-4.188 3.465c-1.568.852-3.268 1.617-4.916 2.037-.112.021-.112.021-.132-.087.223-.042.203-.15.314-.17zm-75.104 134.721c4.127-1.33 7.961-3.612 10.854-6.611 1.447-1.5 2.611-3.282 3.815-4.848 1.295-1.695 2.368-3.348 3.754-5.172l.112-.02.02.108c-.153 2.263-.922 4.306-2.045 6.304-1.124 1.998-2.793 3.539-4.483 4.973-1.689 1.433-3.662 2.584-5.675 3.519-2.013.936-4.198 1.568-6.312 1.963 0 0-.132-.087-.04-.216-.112.021 0 0 0 0zm-10.551-85.962l6.723 7.011 6.613 7.031c2.174 2.387 4.55 4.624 6.632 7.14 1.972 2.536 3.943 5.073 5.621 7.888.02.108.02.107-.091.128l-.111.021c-2.579-2.088-4.955-4.325-7.22-6.583-2.285-2.366-4.145-4.923-6.227-7.439l-6.117-7.459-6.026-7.589-.02-.108.223-.041z" fill="#17293B"/><path d="M229.82 259.573c-1.679-.356-3.175-.97-4.51-1.95-1.335-.979-2.508-2.324-3.033-3.902a9.413 9.413 0 01-.464-2.483c-.051-.884.142-1.703.223-2.5.385-1.636 1.124-3.227 1.883-4.71.779-1.374 1.761-2.899 2.914-4.12 1.133-1.33 2.55-2.377 4.138-3.121 3.156-1.596 6.888-1.958 10.104-.772 0 0 .132.087.021.108 0 0-.092.129-.112.021-1.709.096-3.287.279-4.713.658a15.833 15.833 0 00-4.269 1.804c-2.58 1.6-4.856 3.59-6.546 6.252a13.926 13.926 0 00-2.004 4.062c-.425 1.421-.588 3.015-.103 4.377.374 1.383 1.213 2.79 2.437 3.79 1.223 1.001 2.629 1.743 4.216 2.228 0 0 .132.088.021.108-.091.129-.203.15-.203.15z" fill="#17293B"/><path d="M233.684 254.381c-.931-.049-1.79-.335-2.67-.729-.88-.395-1.578-1.046-2.093-1.955-.495-.802-.586-1.902-.545-2.915.152-1.034.567-1.894.982-2.754.526-.88 1.204-1.566 1.882-2.251.789-.707 1.75-1.11 2.863-1.318 2.023-.267 4.096.351 5.471 1.547l.02.108-.111.02c-1.861-.099-3.479-.131-4.885.355-.648.233-1.295.466-2.014.936-.627.34-1.214.897-1.8 1.454-.931 1.18-1.559 2.749-.942 4.198.505 1.47 2.062 2.408 3.761 2.872.111-.02.132.088.132.088.04.216.06.323-.051.344zM405.42 122.815c2.417 1.224 4.601 3.05 6.178 5.325.778 1.084 1.354 2.317 2.153 3.508a12.7 12.7 0 002.517 2.993c.961.826 2.215 1.374 3.489 2.029 1.163.677 2.346 1.461 3.529 2.245 2.276 1.698 4.146 3.694 6.017 5.691 1.87 1.997 3.74 3.993 5.5 6.011.889 1.062 1.779 2.125 2.558 3.208.778 1.084 1.577 2.275 2.082 3.745.252.735.212 1.748-.001 2.459a4.745 4.745 0 01-1.235 2.018c-.475.536-1.062 1.093-1.689 1.434-.496.428-1.214.897-1.841 1.238-2.752 1.297-5.574 1.601-8.396 1.905-2.842.197-5.573.372-8.435.461-2.883-.02-5.846-.471-8.445-1.438a25.967 25.967 0 01-7.372-4.319 28.033 28.033 0 01-5.561-6.335c-1.486-2.403-2.547-4.998-3.477-7.506-.95-2.616-1.586-5.402-1.534-8.205.051-2.803.79-5.623 1.944-8.073 1.265-2.472 3.036-4.703 5.11-6.543l.111-.021.021.108c-3.734 4.051-5.87 9.255-5.588 14.454.13 2.545.837 5.094 1.747 7.494 1.041 2.487 2.062 4.866 3.507 7.054 2.78 4.396 6.997 7.854 11.861 9.849 4.773 2.124 10.417 1.515 15.919 1.38 2.731-.175 5.422-.567 7.769-1.565.536-.212 1.052-.532 1.659-.98.496-.428 1.012-.748 1.487-1.284.385-.407.749-.922.87-1.504.233-.602.284-.947.051-1.574-.333-1.166-1.111-2.25-1.779-3.354-.778-1.084-1.556-2.167-2.446-3.23-1.648-2.038-3.519-4.035-5.298-6.16-1.759-2.017-3.63-4.014-5.682-5.753-1.072-.805-2.144-1.61-3.307-2.287-1.163-.676-2.437-1.332-3.529-2.245s-1.891-2.104-2.558-3.208c-.687-1.213-1.263-2.446-2.042-3.529-1.445-2.188-3.629-4.014-5.955-5.367l-.02-.108.111-.021zm37.045 13.966c1.608.593 3.216 1.186 4.641 2.037a13.557 13.557 0 013.934 3.175 89.846 89.846 0 003.549 3.582c1.243 1.108 2.396 2.345 3.751 3.433.283.282.678.544 1.052.697.374.153.748.307 1.082.244.667-.124 1.214-.897 1.538-1.628.648-1.462.678-3.144.932-4.867l1.379-9.867 1.49-9.888c.304-3.298.811-6.744 1.692-10.038.881-3.293 2.248-6.454 3.635-9.507a90.851 90.851 0 002.145-4.535c.648-1.462 1.165-3.011 1.104-4.564-.04-1.446-.858-2.745-1.971-3.766-1.112-1.021-2.609-1.635-4.196-2.12-1.568-.377-3.247-.734-4.885-.874a17.933 17.933 0 00-4.906.247c-3.247.495-6.332 1.855-9.246 3.517-.718.47-1.456.831-2.175 1.3l-1.031.64-1.012.749-2.023 1.495-1.872 1.691-.88.835-.86.943c-.567.665-1.154 1.222-1.609 1.865-1.022 1.309-2.044 2.617-2.935 4.013a69.323 69.323 0 00-4.706 8.702c-2.551 6.064-4.444 12.563-5.407 19.112l-.435-.477c3.125.086 6.18.408 9.163.968 3.378.821 6.311 1.725 9.062 2.886zm-.071.237c-2.842-1.033-5.775-1.937-8.758-2.496-2.984-.56-5.998-.666-9.083-.536-.222.041-.485-.133-.435-.478.285-3.405.812-6.744 1.47-9.996.77-3.272 1.651-6.565 2.906-9.705 1.256-3.14 2.733-6.322 4.605-9.242.871-1.503 2.004-2.833 3.006-4.249l1.7-1.994.86-.943c.293-.279.698-.578.991-.856l1.983-1.712 2.135-1.516 1.123-.77 1.143-.66c.718-.47 1.437-.939 2.286-1.321 3.025-1.683 6.444-3.105 10.025-3.663 1.8-.225 3.621-.342 5.391-.115 1.77.228 3.449.584 5.259 1.028 1.699.464 3.459 1.253 4.854 2.556 1.375 1.195 2.406 3.014 2.416 4.911.009 1.898-.598 3.576-1.337 5.167-.739 1.591-1.498 3.073-2.257 4.556-1.518 2.966-2.794 5.998-3.695 9.183-1.013 3.206-1.449 6.416-1.864 9.735l-1.713 9.929-1.713 9.93c-.273 1.615-.415 3.318-1.154 4.909-.324.731-.851 1.611-1.943 1.927-.556.104-.951-.157-1.345-.419-.394-.261-.678-.543-1.072-.805-2.599-2.195-4.793-4.69-7.209-7.143-.566-.565-1.153-1.237-1.83-1.781a13.524 13.524 0 00-2.103-1.394c-1.426-.851-3.034-1.444-4.642-2.037z" fill="#17293B"/><path d="M32.99 268.677c3.559 5.48 9.059 12.72 16.773 20.104 27.836 26.303 60.12 28.98 70.376 29.632 16.567 1.147 39.759 2.62 55.098-13.881 4.887-5.272 7.518-10.904 9.168-15.011a389.276 389.276 0 01-19.842-5.116c-32.808-9.172-52.69-48.359-61.443-36.666-11.92 16.308-39.224 33.482-70.13 20.938z" fill="#3A8A9D"/><path d="M107.334 232.09c7.021-5.559 14.063-11.01 21.307-16.611a3574.782 3574.782 0 0018.534-14.193c1.578-1.413 3.055-2.136 4.036-2.431 1.184-.445 2.479-.911 3.844-.384.617.22 1.031.589 1.709 1.133 2.962 2.91 4.509 4.408 5.47 6.463.515.909.677 1.773.869 2.184 1.636 5.057 3.698 9.923 5.446 14.959 2.294 6.722 5.558 13.71 9.925 23.508 3.537 7.83 8.045 17.155 13.594 27.738.364.714.697 1.881.96 3.284.202 1.08.444 3.604-1.085 8.36-1.762 5.357-3.279 5.865-2.784 7.895.666 2.333 3.326 3.624 5.217 4.499 1.143.569 2.903 1.357 5.431 1.331.799-.038 4.592-.077 7.172-2.906.84-1.051 1.346-2.039 1.559-2.75-.061.906-.153 2.264-.689 3.705-.233.602-1.215 3.356-4.119 5.686-2.094 1.733-4.147 2.452-4.795 2.685-4.532 1.63-15.619 6.385-31.268 13.223-1.598.075-4.106.209-7.181-.221-3.782-.522-4.723-1.24-8.768-1.936-2.63-.514-5.179-.595-10.408-.847-5.583-.296-7.049-.134-9.294-1.054-2.508-1.096-4.096-2.81-5.117-3.96a64.667 64.667 0 01-2.446-4.459c-1.243-2.337-6.964-13.223-12.259-29.216-2.667-8.105-5.607-18.282-7.758-30.394-.737-3.326-.979-5.85-.907-7.316.01-.561.02-1.122.122-1.811.466-2.434 1.65-4.108 2.014-4.623.202-.149.769-.814 1.669-1.541z" fill="#EC5D3E"/><path d="M105.113 247.925c1.656 10.082 3.827 18.614 5.838 25.054 5.042 16.488 8.752 20.934 12.602 31.052.445 1.146 1.476 2.964 3.761 6.559.818 1.3 1.506 2.512 2.962 2.91 1.477.506 2.974-.109 3.601-.45 16.782-6.938 22.761-11.297 39.119-19.272.424-.192 4.005-1.979 7.657-4.003 4.077-2.215 3.755-5.171 3.765-5.732.051-1.574-.545-2.915-1.02-3.608-5.186-9.868-10.27-20.426-15.252-31.674-4.195-9.495-7.863-18.641-11.228-27.398-.414-1.598-2.95-10.845-5.062-15.366-.364-.714-.981-2.163-2.285-2.366-1.325-.311-2.499.802-3.015 1.122-14.275 10.492-33.082 23.842-38.99 29.193-.182.258-1.255.682-2.115 1.625-1.608 1.865-1.983 4.17-2.045 6.304l1.707 6.05z" fill="#1C4C5F"/><path d="M105.939 233.246l22.753-18.111 11.453-8.958c1.912-1.475 3.824-2.95 5.868-4.338a44.044 44.044 0 013.227-1.833c.516-.32 1.052-.532 1.679-.872.536-.212 1.163-.553 1.962-.591.799-.038 1.568.377 2.003.855.546.456.889 1.062 1.213 1.56.556 1.126.889 2.292 1.334 3.438.758 2.205 1.536 4.518 2.182 6.743.758 2.205 1.314 4.559 2.071 6.764l2.517 6.68c3.385 8.865 6.881 17.708 10.692 26.381 1.96 4.326 3.921 8.653 6.084 12.829a157.71 157.71 0 003.366 6.298c.536 1.017 1.183 2.014 1.739 3.139s1.091 2.142 1.536 3.288c.98 2.163 1.87 4.455 2.536 6.788.334 1.167.687 2.442.707 3.779.01.668.02 1.337-.081 2.026-.102.69-.203 1.379-.638 2.131-.324.731-.8 1.267-1.296 1.695-.475.536-.991.856-1.487 1.284-1.011.747-2.023 1.495-3.166 2.156-1.032.64-2.195 1.193-3.359 1.746l-3.267 1.616c-8.771 4.211-17.653 8.442-26.484 12.328l-6.686 3.039a84.695 84.695 0 01-7.051 2.324l-.87.275-.445.083-.222.041-.334.063c-.465-.025-1.133.1-1.821.117-1.264.013-2.609-.406-3.661-1.103-2.194-1.266-3.802-3.088-5.005-5.209-.02-.108-.02-.108.091-.129.112-.021.112-.021.132.087 1.294 1.993 2.993 3.686 5.147 4.736 1.031.589 2.113.834 3.266.841.577.004 1.133-.1 1.821-.117l.111-.021.223-.041.445-.083.87-.275a81.56 81.56 0 006.767-2.606l6.535-3.234 26.251-12.955 3.267-1.617c1.052-.532 2.105-1.064 3.136-1.704 1.032-.639 1.953-1.259 2.853-1.986.901-.727 1.781-1.562 2.105-2.293.182-.257.304-.839.334-1.291.031-.453.041-1.014.051-1.574a15.928 15.928 0 00-.606-3.239c-.646-2.226-1.515-4.409-2.384-6.593-.425-1.038-.981-2.163-1.516-3.181-.536-1.017-1.183-2.013-1.739-3.138a90.872 90.872 0 01-3.255-6.319c-2.072-4.305-4.032-8.632-5.993-12.958-3.831-8.781-7.216-17.645-10.49-26.53l-2.405-6.702c-.889-2.291-1.313-4.558-2.091-6.871-.647-2.226-1.425-4.538-2.183-6.743-.444-1.146-.666-2.333-1.182-3.243-.536-1.017-1.274-1.884-2.184-1.826-.465-.025-1.001.187-1.538.399-.536.212-1.052.532-1.588.744-1.052.532-2.084 1.172-3.136 1.704-1.952 1.259-3.976 2.755-5.888 4.23l-11.604 8.763-23.036 17.829-.111.021c.384-.408.384-.408.475-.536z" fill="#17293B"/><path d="M103.275 241.788c-.08-1.661.173-3.385.932-4.868.435-.751.871-1.503 1.569-2.081a5.399 5.399 0 011.011-.748c.203-.149.425-.191.516-.319l.496-.428c2.57-2.269 5.291-4.342 7.901-6.395 5.443-4.146 10.906-8.185 16.37-12.224l8.184-6.112 4.158-3.012 2.023-1.496c.719-.469 1.639-1.088 2.701-.952 1.153.008 1.891.875 2.367 1.569.495.801.747 1.536 1.132 2.358.636 1.557 1.162 3.135 1.687 4.712a142.674 142.674 0 012.839 9.637l-.02-.108c7.68 20.129 16.655 39.792 26.682 58.922l-.02-.107c.475.693.727 1.428.98 2.163l.222 1.187c.04.216-.03.453.01.669l-.01.56c-.031 1.682-.881 3.294-2.055 4.407-.587.557-1.174 1.113-1.912 1.475a49.92 49.92 0 01-1.993 1.043l-3.874 2.066c-2.6 1.492-5.15 2.639-7.77 4.023l-7.749 4.131c-5.129 2.747-10.257 5.494-15.669 7.959a108.686 108.686 0 01-8.093 3.525l-2.033.827c-.759.253-1.497.615-2.519.694-.91.059-1.861-.099-2.761-.601a4.745 4.745 0 01-1.83-1.78c-.819-1.3-1.506-2.512-2.305-3.703-.687-1.213-1.486-2.404-2.102-3.853-.97-2.724-2.032-5.319-3.315-7.872-1.173-2.574-2.456-5.127-3.538-7.83-1.172-2.574-2.142-5.298-3.112-8.022-1.829-5.468-3.415-10.87-4.688-16.442a214.03 214.03 0 01-3.13-16.733c-.02-.108-.02-.108.092-.129.111-.021.111-.021.131.087a214.008 214.008 0 003.797 16.609c1.475 5.422 3.193 10.911 5.204 16.122 2.031 5.318 4.356 10.359 6.923 15.465 1.284 2.554 2.365 5.256 3.426 7.851.556 1.126 1.375 2.425 2.062 3.637.799 1.192 1.506 2.512 2.265 3.487.778 1.084 1.547 1.499 2.679 1.399.577.004 1.113-.209 1.761-.441l2.033-.828 7.981-3.504c5.301-2.444 10.43-5.191 15.559-7.938 2.62-1.384 5.129-2.747 7.769-4.023 2.62-1.384 5.28-2.552 7.789-3.915l3.875-2.065c.627-.341 1.365-.703 1.881-1.023a6.044 6.044 0 001.508-1.176c.88-.835 1.477-1.952 1.477-3.181l.011-.561c-.02-.108.05-.344.03-.452l-.161-.864c-.101-.54-.445-1.146-.768-1.644l-.021-.108c-9.935-19.26-18.708-39.072-26.186-59.35l-.02-.108c-.828-3.197-1.768-6.373-2.707-9.55-.526-1.578-1.051-3.155-1.688-4.712-.364-.714-.637-1.557-.98-2.163-.344-.606-1.022-1.15-1.598-1.154-.708-.091-1.335.25-2.033.827l-2.024 1.496-4.158 3.012-8.316 6.025a1404.966 1404.966 0 00-16.52 12.029c-2.722 2.073-5.443 4.147-8.033 6.307l-.496.428c-.202.15-.405.299-.516.32a5.36 5.36 0 00-1.012.748c-.587.557-1.153 1.221-1.477 1.952-.759 1.483-1.033 3.099-1.064 4.78.021.108-.091.129-.091.129.354.046.354.046.334-.062zm63.604-12.12l1.91 4.671-.021-.108 1.001 2.271.98 2.163 2.184 4.285c.839 1.407 1.455 2.856 2.072 4.305l.424 1.038c.152.195.212.519.455.585.415.37 1.234.44 1.841-.009.111-.021.111-.021.131.087l.02.108c-.303.839-1.446 1.5-2.549 1.148-.596-.112-1.011-.482-1.446-.959l-.455-.585c-.151-.195-.172-.303-.323-.499a17.361 17.361 0 01-2.204-4.392c-.525-1.578-1.142-3.027-1.667-4.604l-.778-2.313-.333-1.167-.122-.648-.06-.324-.02-.108-.02-.107-.021-.108c-.414-1.599-.848-3.306-1.262-4.904-.021-.108-.021-.108.091-.129a.47.47 0 00.172.303z" fill="#17293B"/><path d="M167.97 229.352c1.668 3.375 3.336 6.751 4.781 10.168.768 1.644 1.557 3.396 2.436 5.019.495.801.88 1.623 1.355 2.317l.798 1.191.172.303.132.087s.02.108-.132-.087l-.131-.087-.132-.087c-.111.021-.242-.066-.334.062l-.111.021-.111.021c-.02-.108.051-.345.162-.366l-.02-.108a23.494 23.494 0 01-.041-.215c-.06-.324-.252-.735-.444-1.146l-1.264-2.446a43.404 43.404 0 01-2.345-5.148c-.272-.843-.677-1.773-.97-2.724-.081-.431-.293-.95-.374-1.382l-.141-.756-.121-.648a10.555 10.555 0 00-.818-2.528c-.192-.411-.385-.822-.668-1.105-.283-.282-.657-.435-1.142-.568-.112.021-.132-.087-.021-.108l.092-.129c.445-.083 1.021-.079 1.547.27.394.261.809.63 1.112 1.021.607.78 1.122 1.689 1.506 2.511.041.216.192.411.253.735.04.216.192.411.232.627l.577 1.233 1.152 2.466c.768 1.644 1.556 3.396 2.213 5.061l1.061 2.595c.192.411.293.951.505 1.47l.081.432c.041.216.061.324.01.668a3.25 3.25 0 01-.283.947c-.091.129-.162.366-.365.515-.091.129-.202.15-.404.3l-.223.041-.111.021c-.111.021-.223.042-.354-.045-.111.02-.111.02-.243-.067l-.111.021-.132-.087c-.263-.174-.283-.282-.283-.282l-.151-.195-.172-.304-.688-1.212c-.495-.801-.899-1.731-1.283-2.553-.789-1.752-1.445-3.417-2.123-5.19-1.242-3.566-2.576-7.004-3.91-10.442-.021-.108-.02-.108.091-.129-.132-.087-.132-.087-.112.021zm-30.15 88.771c2.984-.67 6.029-1.016 9.083-.693 1.527.161 2.984.559 4.42.849 1.436.29 2.983.559 4.399.741 1.528.162 3.055.323 4.471.505.708.091 1.527.161 2.255.36.728.199 1.416.182 2.104.166 1.375-.034 2.822-.305 4.096-.878 1.295-.466 2.641-1.276 4.027-1.871 2.751-1.297 5.503-2.593 8.295-3.674l4.198-1.568c1.406-.486 2.791-1.08 4.197-1.567 5.473-2.141 10.673-5.125 15.852-8.216.112-.021.112-.021.132.087l.02.108c-4.421 4.067-9.52 7.591-15.043 10.076-5.635 2.507-11.471 3.933-16.883 6.398-1.386.595-2.752 1.297-4.269 1.804-1.517.508-3.075.799-4.693.766-.82-.07-1.639-.14-2.367-.339s-1.436-.29-2.144-.381c-1.436-.29-2.964-.452-4.379-.634-1.548-.269-2.984-.559-4.44-.957-1.457-.398-2.933-.904-4.349-1.086-2.963-.451-5.937-.342-8.941.22 0 0-.132-.087-.041-.216-.111.021 0 0 0 0z" fill="#17293B"/><path d="M198.824 305.037c-2.802.412-5.836.197-8.243-1.587-1.203-.893-2.022-2.192-2.396-3.575-.374-1.382-.302-2.848-.211-4.206.101-.689.203-1.379.415-2.089.213-.71.557-1.333.79-1.935.466-1.205 1.022-2.538 1.468-3.85.911-2.517 1.448-5.188 1.206-7.712a10.256 10.256 0 00-1.02-3.609c-.556-1.125-1.244-2.337-1.931-3.549l-1.951-3.658-1.839-3.678c-2.305-4.932-4.629-9.973-6.509-15.096-.02-.108-.02-.108.091-.129 0 0 .111-.021.132.087 3.042 4.571 5.772 9.312 8.299 14.203l1.951 3.657 1.839 3.679a224.916 224.916 0 011.749 3.807c.596 1.341.879 2.852 1.03 4.277.211 2.977-.66 5.71-1.55 8.334-.557 1.334-1.023 2.538-1.58 3.871-.232.603-.577 1.226-.809 1.828-.233.602-.355 1.183-.456 1.873-.223 1.271-.315 2.629-.072 3.924a5.089 5.089 0 001.981 3.205c2.053 1.739 5.016 2.19 7.727 1.907.111-.021.131.087.131.087-.151-.195-.242-.066-.242-.066zm-30.044-77.512c-1.425-3.309-2.85-6.618-4.163-9.948l-2.082-4.974c-.657-1.665-1.425-3.309-1.971-4.995l.192.411c-.869-.954-1.628-1.93-2.406-3.013a34.714 34.714 0 01-2.113-3.293c-.02-.107-.02-.108.091-.128l.111-.021c1.163.676 2.124 1.502 3.085 2.328.96.826 1.921 1.652 2.79 2.607.132.087.152.195.172.303l.02.108c.657 1.665 1.092 3.371 1.657 5.165l1.546 5.186c1 3.5 1.98 6.892 2.98 10.393.021.108.02.107-.091.128.203-.149.182-.257.182-.257z" fill="#17293B"/><path d="M189.421 296.627c1.314.872 2.629 1.743 4.014 2.378 1.386.635 2.862 1.141 4.339 1.647 1.456.398 2.852.472 3.964.264 1.113-.208 2.216-1.085 3.369-2.306l.223-.042.02.108c.05.885-.142 1.703-.689 2.475-.435.752-1.224 1.458-2.185 1.862-.961.403-2.003.374-2.953.217-.84-.178-1.72-.573-2.468-.88-.748-.307-1.517-.721-2.154-1.049-.769-.415-1.406-.743-2.083-1.287-1.335-.979-2.558-1.979-3.579-3.129l-.021-.108c.091-.129.091-.129.203-.15zm-76.427-25.036l10.513-10.905 10.532-10.797c3.481-3.556 6.921-7.328 10.664-10.71 3.744-3.382 7.487-6.764 11.514-9.863l.111-.021.02.108c-3.177 3.946-6.637 7.61-10.098 11.275-3.46 3.664-7.335 6.958-10.947 10.427l-11.079 10.341-11.098 10.232-.112.021-.02-.108zm-4.226-33.065c.092-.129.294-.279.496-.428.203-.15.536-.212.799-.038.506.241.809.631 1.001 1.042.384.822.455 1.815-.183 2.716-.384.407-.657.793-1.173 1.113-.425.191-1.073.424-1.932.138-.374-.153-.698-.652-.87-.955-.06-.323-.121-.647-.05-.884.142-.474.526-.881.951-1.072.111-.021.111-.021.243.066.081.432.252.735.404.931.131.087.131.087.243.066.111-.021-.041-.216-.041-.216-.263-.174.466.025.759-.254.314-.17.546-.772.557-1.333.071-.237-.101-.54-.142-.756-.02-.108-.485-.132-.799.038-.111.021-.111.021-.131-.087l-.132-.087zm4.634-3.548c.162-.366.567-.665.991-.856.445-.083 1.002-.188 1.528.161.546.457.647.996.748 1.536-.011.561-.041 1.013-.203 1.379a3.467 3.467 0 01-.779 1.375 1.986 1.986 0 01-1.568.852c-.446.083-.931-.05-1.234-.44-.283-.282-.455-.585-.516-.909-.121-.648.132-1.142.425-1.42l.223-.042c.303.39.475.693.718.759.131.088.243.067.222-.041-.02-.108-.131-.087-.151-.195-.132-.087.738-.362 1.011-.748.385-.407.486-1.097.426-1.421-.02-.107-.283-.282-.637-.327-.354-.046-.668.125-.982.295l-.111.021c-.091.129-.111.021-.111.021zm5.615-3.844c.091-.129.162-.366.253-.495.091-.128.405-.299.759-.253.596.112.9.502 1.072.805.171.303.364.714.444 1.146.081.432.051.884-.202 1.379a2.434 2.434 0 01-1.022 1.308c-.516.32-1.315.358-1.953.03-.637-.328-.869-.955-.859-1.515.01-.561.172-.926.577-1.226l.223-.041c.303.39.566.564.718.759.262.175.374.154.354.046-.152-.195.151.195.445-.083.293-.279.415-.86.314-1.4-.041-.216-.101-.54-.233-.627-.02-.108-.465-.025-.647.233l-.111.021-.132-.087zm19.848-10.864c-.374-1.382-1.011-2.939-1.425-4.538-.02-.108.051-.344.162-.365a340.038 340.038 0 018.094-5.984c.404-.299.89-.166 1.173.116l.02.108.02.108.859 1.515-1.345-.418.719-.47c.404-.299 1.001-.187 1.304.203l.021.108.02.108.556 1.125c.192.411.07.993-.446 1.312l-.111.021-.83.491.577-1.226c.101.54.334 1.167.435 1.707.08.432-.061.905-.466 1.204a34.157 34.157 0 01-4.886 2.814c-.85.382-1.588.744-2.327 1.105l-2.124.956zm.071-.236l2.165-1.97 1.983-1.711c1.285-1.135 2.478-2.14 3.824-2.95l-.466 1.204-.323-1.727-.02-.108c-.081-.432.172-.926.617-1.01l.961-.403-.556 1.333-.465-1.253 1.456.398-.738.361-.112.021c-.425.191-1.021.079-1.213-.332l-.02-.108-.637-1.557 1.213.332-8.679 5.311.161-.366c.394 1.491.566 3.023.849 4.535z" fill="#17293B"/><path d="M143.57 212.798l.971 2.724-.88-.394c.789-.706 1.71-1.326 2.519-1.924l-.375 1.076-.576-1.233c-.192-.411-.273-.843-.374-1.383l1.608.593c-.647.233-1.557.292-2.893.541zm-.242-.066c.212-.71 1.072-1.653 1.973-2.38.405-.3 1.092-.316 1.396.074.02.108.131.087.151.195l.172.303c.192.411.384.822.485 1.362l.263 1.403.04.216a.827.827 0 01-.415.86c-.941.511-1.902.914-2.863 1.318l-.111.02c-.202.15-.577-.004-.617-.219l-.04-.216c-.314-1.059-.384-2.052-.434-2.936zm-14.325 9.607c.212-.711.688-1.246 1.295-1.695.607-.449 1.497-.615 2.316-.545.819.07 1.77.227 2.265 1.029.476.693.546 1.685 0 2.458-.091.129-.112.021-.223.042-.677-.544-1.183-.785-1.557-.938-.374-.154-.566-.565-.961-.826a2.887 2.887 0 00-1.527-.161c-.556.104-1.072.424-1.568.852l-.111.02.071-.236z" fill="#17293B"/><path d="M129.396 223.829c.142-.473.304-.839.8-1.266.384-.408 1.163-.553 1.76-.441.597.111 1.416.182 1.648.809.324.498.243 1.295-.233 1.831l-.223.042c-.748-.307-.991-.374-1.233-.44-.243-.066-.192-.411-.435-.477-.152-.195-.394-.262-.728-.199-.354-.046-.779.145-1.073.424-.131-.088-.242-.067-.283-.283.021.108.021.108 0 0z" fill="#17293B"/><path d="M130.094 225.71c.051-.345.101-.689.395-.968.202-.15.405-.299.739-.362.333-.062.708.091.971.266.506.241.941.718.799 1.192-.031.453-.415.86-1.083.985-.112.021-.112.021-.243-.067-.546-.456-.789-.523-.921-.61-.111.021.092-.129.183-.258l.222-.041c.112-.021-.02-.108-.02-.108-.243-.067-.465-.025-.779.146-.243-.067-.243-.067-.263-.175zm5.461 90.155c-8.638 1.839-17.721 2.533-26.581 1.955-8.88-.686-17.74-2.492-26.043-5.632-8.302-3.14-16.322-7.227-23.299-12.514-3.498-2.698-6.795-5.545-9.909-8.65-1.547-1.499-3.003-3.126-4.459-4.753a57.286 57.286 0 01-4.074-5.16l-.02-.108.111-.021c6.117 6.231 12.599 11.946 19.647 16.997 7.047 5.05 14.53 9.349 22.631 12.639a89.613 89.613 0 0025.456 6.189c8.789.814 17.71.486 26.409-1.029.091-.129.222-.042.131.087.111-.021 0 0 0 0z" fill="#17293B"/><path d="M363.974 55.32l-79.777-28.572c-7.508-2.736-14.078-1.52-19.709 1.216-6.57 3.04-8.134 4.255-8.134 4.255l-1.877 48.635c-.313 17.63 12.827 36.476 28.782 42.252l22.838 8.207 4.693 44.076 11.888-6.08 8.76-13.071 8.759-13.07 29.721 13.374s9.698-3.343 15.017-8.207c4.693-3.951 7.508-10.335 7.508-18.542l.313-32.829c.313-17.022-12.514-35.868-28.782-41.643z" fill="#C13821"/><path d="M352.08 61.098l-79.777-28.573c-15.955-5.776-29.095 3.951-29.408 21.277l-.312 32.829c-.313 17.63 12.826 36.476 28.782 42.252l22.838 8.207 8.447 19.15 8.447 19.15 8.759-13.071 8.76-13.07 22.838 8.207c15.956 5.775 29.095-3.952 29.408-21.278l.313-32.829c-.313-17.326-13.14-36.476-29.095-42.251z" fill="#EC5D3E"/><path d="M316.889 100.226l1.967-8.903c1.737.383 3.506.127 4.982-.723 1.476-.85 2.481-2.191 2.831-3.777.35-1.585.003-3.226-.978-4.619-.98-1.391-2.476-2.37-4.213-2.753l-30.883-6.822 1.967-8.903 30.883 6.822c4.342.959 8.083 3.404 10.533 6.885 2.452 3.481 3.319 7.581 2.444 11.544-.876 3.964-3.39 7.317-7.079 9.441-3.689 2.125-8.112 2.767-12.454 1.808z" fill="#F3B08C"/><path d="M312.302 121.002l-30.883-6.822 1.966-8.904 30.884 6.822c1.736.383 3.506.127 4.981-.723 1.476-.851 2.481-2.191 2.831-3.777.351-1.585.004-3.226-.977-4.618-.98-1.392-2.477-2.37-4.213-2.754L294.135 95.2l1.967-8.904 22.755 5.026c4.342.96 8.083 3.405 10.534 6.885 2.451 3.482 3.318 7.582 2.443 11.545-.876 3.964-3.39 7.317-7.078 9.442-3.69 2.124-8.112 2.767-12.454 1.808z" fill="#F3B08C"/><path d="M304.582 71.05l-9.752-2.155-9.178 41.551 9.752 2.154 9.178-41.55z" fill="#F3B08C"/><path d="M310.884 63.103l-9.753-2.154-1.967 8.904 9.753 2.154 1.967-8.904zm14.084 3.112l-9.753-2.154-1.967 8.903 9.753 2.154 1.967-8.903zm-25.229 47.342l-9.752-2.154-1.967 8.904 9.753 2.154 1.966-8.904zm14.083 3.112l-9.752-2.155-1.967 8.904 9.752 2.154 1.967-8.903z" fill="#F3B08C"/></svg>