<svg width="246" height="213" fill="none" xmlns="http://www.w3.org/2000/svg"><path d="M5.638 103.744a161.998 161.998 0 009.117-24.137c4.79-16.57 6.882-33.655 6.217-50.779 2.866-3.9 6.22-7.52 10.004-10.799 5.43-4.733 14.473-12.558 28.403-14.499a47.559 47.559 0 0112.528-.052 267.763 267.763 0 0016.478 5.3c14.947 4.301 27.685 8.045 44.005 8.87 6.344.322 12.701.191 19.003-.391l54.239 23.506c.743 2.915 1.932 7.246 3.514 12.381 2.158 6.82 2.608 7.26 4.333 12.821.957 3.169 1.229 4.368 4.489 17.347 1.123 4.433 2.364 9.395 2.554 10.137 1.737 6.626 5.989 17.262 17.742 34.464.073 3.823-1.151 7.565-3.525 10.777-2.374 3.212-5.797 5.757-9.858 7.33l-60.817-44.792-4.77 4.625 10.136 26.654c-2.207 4.391-5.357 8.383-9.291 11.774-3.44 2.961-12.821 11.014-21.69 8.675-2.479-.708-4.665-2.026-6.278-3.787l-22.55-13.02-9.623 2.772 33.517 63.688c-7.272 3.068-15.513 4.134-23.597 3.053a30.98 30.98 0 01-6.382-1.61c-8.177-3.092-11.19-8.714-16.755-15.015-4.334-4.824-9.364-9.167-14.97-12.923-3.955 2.57-6.5 2.624-8.08 2.218-2.753-.724-3.178-2.995-6.581-5.163-2.966-1.885-5.145-1.761-8.607-2.676-8.667-2.277-9.288-6.895-19.92-12.25a59.045 59.045 0 00-10.452-3.984L5.638 103.744z" fill="#C9F7FF"/><path d="M155.44 145.653c8.466-4.732 13.495-10.918 11.232-13.817-2.263-2.9-10.96-1.414-19.426 3.318-8.467 4.731-13.496 10.918-11.233 13.817 2.263 2.899 10.961 1.414 19.427-3.318z" fill="#F1C0A4"/><path d="M17.464 31.07c4.563 11.872 2.322 25.446-.518 37.351A276.909 276.909 0 014.6 104.916a.965.965 0 00.146.783c.162.239.42.418.726.505a1.5 1.5 0 00.928-.037c.291-.111.522-.31.648-.56A264.334 264.334 0 0019.76 67.472c2.609-11.811 4.714-25.095.187-36.86-.511-1.334-3.013-.876-2.482.458z" fill="#004E63"/><path d="M6.366 103.952a401.401 401.401 0 0012.133 51.177c.101.26.312.48.592.618.28.137.607.181.92.124.313-.057.587-.212.77-.433a.967.967 0 00.22-.767 399.61 399.61 0 01-12.133-51.176c-.242-1.39-2.744-.933-2.502.457zm27.164 53.685c1.58 3.166 3.818 6.068 6.606 8.567 3.22 2.577 7.466 3.389 11.17 5.274 3.703 1.886 7.151 4.387 11.243 5.872a30.636 30.636 0 0013.376 1.523c1.628-.167 1.031-2.289-.575-2.138-4.385.452-8.85-.171-12.871-1.796-3.722-1.502-6.852-3.814-10.417-5.588-3.565-1.775-7.207-2.348-10.033-4.593-2.629-2.367-4.736-5.116-6.217-8.112-.74-1.274-3-.282-2.261.992l-.02-.001z" fill="#004E63"/><path d="M17.768 153.228c32.619 11.228 65.838 25.347 87.428 49.978.992 1.128 2.865-.336 1.872-1.447-16.863-19.242-41.112-32.308-66.26-42.38-7.325-2.929-14.761-5.637-22.266-8.208-1.533-.527-2.307 1.531-.774 2.057z" fill="#004E63"/><path d="M105.746 202.429c10.139 2.364 20.244-.63 29.63-3.605 1.54-.486.32-2.428-1.199-1.942-8.679 2.748-18.268 5.661-27.656 3.472-1.582-.371-2.374 1.633-.775 2.075z" fill="#004E63"/><path d="M80.39 108.4l50.828 90.35c.719 1.272 2.981.263 2.262-1.01l-50.83-90.332c-.718-1.273-2.98-.281-2.26.992z" fill="#004E63"/><path d="M84.814 110.196c16.863-12.041 35.228-22.48 54.776-31.136.184-.156.305-.358.348-.577a.942.942 0 00-.11-.648 1.202 1.202 0 00-.526-.482 1.47 1.47 0 00-.752-.14c-19.763 8.732-38.332 19.267-55.384 31.422-1.252.9.496 2.518 1.747 1.635l-.099-.074zm57.781-28.778l76.99 65.171c1.163.997 3.056-.466 1.874-1.465L144.591 79.96c-1.184-.981-3.056.466-1.894 1.463l-.102-.005z" fill="#004E63"/><path d="M224.274 145.834c2.6-2.948 5.081-5.988 7.441-9.07 2.01-2.627 4.787-5.845 2.953-9.125-.718-1.273-2.979-.281-2.261.992.255.692.319 1.422.185 2.134a4.238 4.238 0 01-.953 1.965c-.884 1.354-1.929 2.648-2.912 3.928a571.52 571.52 0 01-6.528 7.979c-.976 1.123 1.182 2.307 2.157 1.201l-.082-.004z" fill="#004E63"/><path d="M217.332 96.299a20118.118 20118.118 0 0016.162 34.477c.615 1.303 2.857.292 2.262-1.01-5.402-11.47-10.79-22.956-16.163-34.46-.615-1.302-2.876-.31-2.261.993zm-142.65 77.229a322.525 322.525 0 019.747-40.02c.413-1.359-1.954-2.047-2.448-.692a331.65 331.65 0 00-9.856 40.591c-.23 1.385 2.328 1.506 2.557.121z" fill="#004E63"/><path d="M86.01 132.989a.196.196 0 01.008-.157c.037-.127.098-.248.18-.358.216-.318.47-.616.76-.888.71-.682 1.438-1.346 2.145-1.993a42.517 42.517 0 014.8-3.524c.126-.093.228-.208.3-.336a.934.934 0 00.12-.412.93.93 0 00-.08-.421 1.076 1.076 0 00-.268-.363 1.413 1.413 0 00-.885-.355 1.413 1.413 0 00-.915.27 41.41 41.41 0 00-5.44 4.052 23.269 23.269 0 00-2.427 2.345 2.775 2.775 0 00-.832 1.485 2.59 2.59 0 00.232 1.645c.72 1.273 2.98.281 2.261-.992l.041.002z" fill="#004E63"/><path d="M46.47 67.934c11.757 21.94 24.89 43.338 39.34 64.104.825 1.208 3.11.147 2.24-.994-14.4-20.775-27.491-42.177-39.216-64.115-.698-1.272-2.96-.28-2.262 1.01l-.102-.005zm-24.082 6.765c-2.155 2.219-2.31 5.492-2.582 8.218a71.807 71.807 0 00-.65 10.264 76.183 76.183 0 002.99 20.4c.102.261.313.481.593.618.28.138.608.182.92.125.313-.057.587-.212.77-.434a.966.966 0 00.22-.766c-2.704-9.257-3.555-18.814-2.516-28.264.32-2.847.312-6.599 2.472-8.905 1.014-1.086-1.143-2.287-2.158-1.201l-.059-.055z" fill="#004E63"/><path d="M26.41 75.063c2.972-2.582 8.29-1.877 11.994-.881 4.196 1.125 7.939 3.253 10.78 6.129 1.056 1.097 2.95-.366 1.873-1.447-3.314-3.333-7.714-5.755-12.628-6.95-4.44-1.047-10.18-1.476-13.766 1.53-1.134.993.594 2.61 1.748 1.618z" fill="#004E63"/><path d="M49.596 80.261a448.288 448.288 0 008.773 15.195c.18.221.449.38.754.447.306.066.628.036.906-.086.277-.122.492-.327.602-.576a.947.947 0 00-.001-.777 474.482 474.482 0 01-8.773-15.195c-.718-1.29-2.979-.298-2.261.992zM28 102.987c-.798-1.783 1.228-3.432 2.57-4.502a45.513 45.513 0 014.575-3.099 116.878 116.878 0 0110.502-5.313l-1.29-.061 4.84 3.003c1.335.831 2.712-.988 1.378-1.82l-4.8-2.983a1.392 1.392 0 00-.636-.186 1.393 1.393 0 00-.652.125 106.096 106.096 0 00-12.275 6.398c-3.383 2.16-8.266 5.28-6.413 9.433.595 1.302 2.856.31 2.262-.992l-.062-.003z" fill="#004E63"/><path d="M25.505 112.362c1.024-5.133 4.132-9.77 8.784-13.107 4.652-3.337 10.554-5.163 16.681-5.16 1.187.056 4.255-.218 4.923.826.18.221.449.38.754.447.306.066.628.036.906-.086a1.16 1.16 0 00.603-.576.947.947 0 00-.002-.778c-1.7-2.645-7.098-2.08-9.998-1.886-6.153.48-11.926 2.654-16.447 6.196-4.52 3.541-7.543 8.256-8.611 13.434-.29 1.365 2.157 2.074 2.448.692l-.041-.002z" fill="#004E63"/><path d="M28.433 116.793c.432-2.715 1.512-5.318 3.173-7.65 1.661-2.331 3.869-4.342 6.488-5.908 2.62-1.567 5.594-2.657 8.744-3.203a27.711 27.711 0 019.57.026c1.607.285 2.381-1.79.775-2.075a30.75 30.75 0 00-10.7-.07c-3.524.603-6.853 1.82-9.78 3.573-2.927 1.754-5.39 4.007-7.235 6.621-1.845 2.613-3.033 5.53-3.49 8.57-.21 1.386 2.348 1.507 2.557.121l-.102-.005z" fill="#004E63"/><path d="M29.107 116.843c3.494-11.455 18.353-14.835 30.524-16.004 1.627-.149 1.03-2.272-.596-2.122-13.051 1.127-28.643 5.257-32.358 17.47-.412 1.342 1.954 2.047 2.428.691l.002-.035z" fill="#004E63"/><path d="M21.094 112.433c4.31 15.566 15.46 29.214 31.14 38.118a1.5 1.5 0 00.91.076c.302-.07.562-.232.731-.455a.962.962 0 00.188-.759 1.095 1.095 0 00-.451-.682c-15.137-8.599-25.887-21.789-30.013-36.825a1.18 1.18 0 00-.592-.617 1.492 1.492 0 00-.92-.125 1.298 1.298 0 00-.77.433.968.968 0 00-.22.767l-.003.069zm38.903-14.982c6.028 15.571 12.26 32.896 3.689 48.526-.675 1.26 1.753 1.933 2.447.692 8.73-15.954 2.522-33.767-3.654-49.676-.511-1.333-3.013-.893-2.482.458zm55.92-50.099a666.438 666.438 0 0045.168 36.705c1.227.93 3.12-.516 1.872-1.447a659.472 659.472 0 01-45.168-36.705c-1.14-1.031-3.012.416-1.872 1.447z" fill="#004E63"/><path d="M156.011 89.453c.206-.286.431-.56.675-.823.13-.151 0 0 0 0l.193-.183c.149-.115.278-.249.407-.365l.848-.605.233-.146c.19-.113 0 0 0 0l.504-.255c.317-.16.645-.3.984-.425l.542-.201c.205.01 0 0 0 0l.266.013c.374-.1.754-.181 1.139-.243l.511.024.287.014c-.225-.011 0 0 .123.005.34.012.67-.09.92-.283.251-.193.401-.463.42-.752a1.03 1.03 0 00-.348-.783 1.416 1.416 0 00-.889-.358c-1.848.07-3.643.514-5.238 1.294-1.594.78-2.942 1.874-3.934 3.193a.948.948 0 00-.11.79c.081.267.276.5.547.653.271.154.598.216.916.174.319-.042.606-.184.804-.399l.2-.34z" fill="#004E63"/><path d="M161.048 85.26a435.602 435.602 0 0151.104 6.589c1.606.303 2.38-1.755.774-2.057a439.29 439.29 0 00-51.775-6.71 1.369 1.369 0 00-.821.326c-.217.19-.344.443-.357.71-.012.267.09.53.288.74.198.21.478.353.787.401zm43.358-41.972c.643 18.06 5.067 35.925 13.062 52.756.615 1.303 2.855.31 2.241-.993-7.791-16.483-12.107-33.968-12.747-51.642-.056-1.398-2.613-1.52-2.556-.12z" fill="#004E63"/><path d="M205.397 57.87a17.542 17.542 0 003.035 3.005l1.191.824c.855.69 1.418 1.602 1.6 2.588.941 3.063 1.862 6.126 2.804 9.189.941 3.063 2.154 6.035 2.747 9.081.594 3.047-.797 5.581.095 8.398.427 1.364 2.929.906 2.481-.458-.873-2.764.491-5.596-.094-8.398-.666-3.26-1.947-6.513-2.923-9.718-.975-3.204-1.75-6.33-2.914-9.456-.92-2.66-3.919-3.832-5.863-6.07-.93-1.143-3.191-.151-2.262 1.01l.103.004zm-53.813-39.471l-.006.122 1.612-.692-.226-.01.864.808.008-.156-.651 1.19c1.123.226 2.214.558 3.253.992l3.497 1.055a245.83 245.83 0 016.903 2.299c4.758 1.673 9.449 3.5 14.09 5.483a211.643 211.643 0 0125.394 13.137c1.355.832 2.712-.988 1.378-1.819a212.15 212.15 0 00-28.287-14.374 207.53 207.53 0 00-14.322-5.371 187.734 187.734 0 00-7.372-2.339c-1.556-.475-4.019-1.725-5.672-1.001a1.206 1.206 0 00-.56.51.976.976 0 00-.092.698c.056.24.192.463.39.643.198.179.452.307.73.37.325.081.672.055.971-.073a1.19 1.19 0 00.641-.619l.005-.104c.635-1.296-1.814-1.97-2.447-.71l-.101-.039z" fill="#004E63"/><path d="M72.507 6.437a260.047 260.047 0 0039.398 9.612 278.36 278.36 0 0019.851 2.458 83.802 83.802 0 0019.96.16c1.612-.255 1.035-2.376-.576-2.121-6.464 1.003-13.238.315-19.75-.255a261.233 261.233 0 01-20.379-2.587 259.864 259.864 0 01-37.728-9.377c-1.555-.51-2.333 1.635-.774 2.057l-.002.053zm-50.69 24.891c3.797-7.534 10.14-13.912 18.232-18.33a64.41 64.41 0 0112.984-5.354c4.76-1.38 11.038-3.211 16.075-2.205 1.604.32 2.399-1.736.774-2.057-5.32-1.072-11.235.445-16.282 1.812-5.207 1.39-10.167 3.36-14.75 5.862-8.616 4.704-15.36 11.502-19.376 19.533-.635 1.279 1.813 1.97 2.448.692l-.105.047z" fill="#004E63"/><path d="M57.79 7.644a728.525 728.525 0 0034.768 20.84c.283.118.607.145.91.075a1.27 1.27 0 00.73-.455.96.96 0 00.188-.758 1.092 1.092 0 00-.45-.682 702.274 702.274 0 01-34.768-20.84c-1.333-.848-2.71.971-1.377 1.82zM22.008 27.307a329.942 329.942 0 0118.283 30.825c.677 1.289 2.938.296 2.261-.992a327.514 327.514 0 00-18.283-30.826c-.823-1.225-3.084-.233-2.261.993z" fill="#004E63"/><path d="M45.712 28.498c2.712 3.825 4.057 8.227 3.87 12.66-.525 4.405-2.196 8.641-4.892 12.4-4.231 7.003-10.485 12.954-18.183 17.304-1.368.738-.128 2.699 1.2 1.942 8.528-4.797 15.39-11.441 19.895-19.264 2.569-3.873 4.109-8.188 4.514-12.647.112-4.67-1.325-9.291-4.145-13.335-.824-1.226-3.11-.147-2.261.992l.002-.052z" fill="#004E63"/><path d="M48.714 28.746c.572-.392 1.143-.748 1.713-1.105l.76-.453.926-.514a40.336 40.336 0 013.797-1.827c.299-.135.522-.365.623-.64a.97.97 0 00-.081-.835 1.34 1.34 0 00-.768-.525 1.54 1.54 0 00-.973.058 44.642 44.642 0 00-7.723 4.206 1.161 1.161 0 00-.363.336.95.95 0 00-.11.893c.058.148.15.284.273.4.123.117.273.21.44.273a1.495 1.495 0 001.055.003 1.27 1.27 0 00.431-.27z" fill="#004E63"/><path d="M56.144 25.084c6.432 2.799 13.36 4.65 20.488 5.471 6.118.691 12.932.962 18.087-2.267 1.33-.827-.418-2.428-1.728-1.617-4.69 2.919-11.446 2.302-16.93 1.641-6.448-.805-12.712-2.51-18.539-5.048-1.467-.628-2.844 1.174-1.378 1.82z" fill="#004E63"/><path d="M96.2 28.183c5.407-2.424 11.224-4.136 17.256-5.08 1.611-.256 1.036-2.394-.576-2.139-6.248.989-12.275 2.768-17.88 5.278a1.09 1.09 0 00-.513.636.96.96 0 00.114.773c.148.238.392.424.686.522.294.098.619.102.913.01zM89.4 29.8a111.369 111.369 0 0012.672 7.737c1.421.748 2.798-1.072 1.377-1.802a114.106 114.106 0 01-12.671-7.754 1.399 1.399 0 00-.481-.22 1.511 1.511 0 00-.541-.033 1.407 1.407 0 00-.507.16 1.187 1.187 0 00-.381.323.989.989 0 00-.19.43.943.943 0 00.037.461c.05.15.137.29.256.411.118.12.264.218.43.287zM42.622 61.295a26.178 26.178 0 013.177 5.647c.45.877 1 2.264 2.194 2.582 1.195.318 1.867-.906 2.557-1.624a15.173 15.173 0 014.51-2.596c1.83-.765 3.42-1.884 4.645-3.27.936-1.142-1.221-2.343-2.137-1.2-1.391 1.355-3.131 2.418-5.087 3.11-.99.456-1.922.997-2.783 1.612-.44.306-.84.65-1.197 1.026a3.9 3.9 0 00-.433.503 3.64 3.64 0 01-.376.575l.586-.251.532.025-.164-.008.539.305a6.052 6.052 0 01-1.145-1.8c-.337-.678-.652-1.374-.99-2.053a17.007 17.007 0 00-2.498-3.94 1.439 1.439 0 00-.896-.356 1.44 1.44 0 00-.925.27 1.046 1.046 0 00-.387.75c-.013.283.099.563.315.782l-.037-.089z" fill="#004E63"/><path d="M50.005 50.862a43.51 43.51 0 003.912 6.555c1.209 1.932 3.215 3.422 5.625 4.175 1.581.371 2.373-1.633.775-2.075-1.93-.64-3.507-1.883-4.408-3.472a44.558 44.558 0 01-3.643-6.192 1.14 1.14 0 00-.306-.373 1.372 1.372 0 00-.455-.238 1.507 1.507 0 00-1.034.058c-.157.07-.295.167-.405.286a1.01 1.01 0 00-.233.403.94.94 0 00-.022.45c.03.15.096.295.194.423z" fill="#004E63"/><path d="M53.036 48.738c-.882-3.026 1.768-6.18 3.803-8.44 2.018-2.263 4.571-4.138 7.497-5.508 5.559-2.61 12.101-3.323 18.32-1.994 1.603.337 2.373-1.633.774-2.075-7.19-1.578-14.776-.683-21.11 2.49-3.265 1.678-6.073 3.922-8.246 6.59-2.176 2.654-4.527 5.98-3.52 9.395.076.281.28.527.567.683.287.156.633.21.962.148.33-.06.614-.23.793-.472a.944.944 0 00.16-.817z" fill="#004E63"/><path d="M81.477 33.471c3.631 2.308 6.778 5.125 9.302 8.328.163.251.433.442.752.532.32.09.667.072.968-.05.299-.134.522-.364.623-.64a.97.97 0 00-.082-.834c-2.746-3.544-6.192-6.66-10.183-9.207a1.491 1.491 0 00-.956-.154 1.288 1.288 0 00-.8.454.971.971 0 00-.17.82c.071.283.267.534.548.7l-.002.051z" fill="#004E63"/><path d="M92.799 42.437a51.166 51.166 0 0110.46-4.426c.323-.073.6-.246.778-.486.178-.24.244-.53.185-.812a1.146 1.146 0 00-.571-.687 1.491 1.491 0 00-.968-.153 53.484 53.484 0 00-11.006 4.714 1.132 1.132 0 00-.61.634.956.956 0 00.09.824c.077.128.182.242.31.335.129.094.277.165.437.21a1.484 1.484 0 00.972-.062l-.077-.091zm-36.644-2.835c-.128-.58-.21-1.168-.245-1.757l.043-.905a2.129 2.129 0 01.024-.505c.007-.157.361-.28.51-.394l.888-.57 1.757-1.155 1.54-.922.888-.568c.102.005.628-.285.132-.203-.496.08-.005.104.197.166a21.54 21.54 0 004.324.903c.18.028.366.023.543-.014.177-.038.342-.107.484-.203.142-.097.258-.218.34-.357a.962.962 0 00.136-.446.961.961 0 00-.093-.457 1.13 1.13 0 00-.305-.386 1.366 1.366 0 00-.463-.248 1.506 1.506 0 00-.539-.066 19.075 19.075 0 01-2.419-.428 9.412 9.412 0 00-2.391-.584c-.941-.045-1.694.704-2.392 1.16L57 32.976l-2.11 1.314c-.723.358-1.287.906-1.611 1.564a4.88 4.88 0 00-.097 2.037c.046.754.154 1.506.324 2.248.304 1.376 2.806.919 2.482-.458l.168-.08z" fill="#004E63"/><path d="M47.125 28.53a89.108 89.108 0 016.993 7.312c.235.212.556.34.896.356.34.016.671-.08.925-.27.241-.2.383-.47.397-.758a1.049 1.049 0 00-.324-.792 99.165 99.165 0 00-6.993-7.31 1.303 1.303 0 00-.406-.28 1.48 1.48 0 00-1.013-.067 1.325 1.325 0 00-.443.222c-.128.099-.23.22-.302.354a.955.955 0 00-.018.863c.066.139.164.265.288.37zm7.095-3.485l6.127 7.41c.231.211.55.338.886.354.336.016.664-.08.914-.27a1.05 1.05 0 00.397-.757 1.048 1.048 0 00-.323-.792l-6.108-7.39a1.413 1.413 0 00-.895-.364 1.413 1.413 0 00-.926.277 1.046 1.046 0 00-.387.75c-.013.283.099.563.315.782zm6.5 37.213c3.798 3.997 9.264 6.59 15.221 7.221 5.958.632 11.933-.75 16.641-3.846 1.292-.863-.456-2.481-1.747-1.635-4.196 2.725-9.508 3.92-14.789 3.323-5.28-.596-10.105-2.934-13.433-6.509-1.034-1.113-2.907.351-1.893 1.446z" fill="#004E63"/><path d="M91.223 43.67c3.825 5.8 5.683 13.322.279 18.79-1.055 1.066 1.102 2.267 2.157 1.2 5.943-6.017 4.155-14.582-.177-20.947-.824-1.225-3.084-.25-2.261.993l.002-.035zm6.157 75.636c-3.862-11.088 6.451-20.633 16.371-26.2 4.712-2.838 10.146-4.7 15.879-5.444a41.394 41.394 0 0110.575.501c2.727.426 6.338.789 7.851 3.059.824 1.208 3.088.146 2.261-.992a8.683 8.683 0 00-2.683-2.355 10.193 10.193 0 00-3.565-1.221 51.833 51.833 0 00-11.335-1.34c-6.987.209-13.733 2.09-19.466 5.43-11.134 6.104-22.664 16.673-18.39 29.02.47 1.331 2.972.891 2.503-.475v.017z" fill="#004E63"/><path d="M147.732 90.702a307.195 307.195 0 0013.317 21.831c.823 1.226 3.084.234 2.24-.993a276.186 276.186 0 01-13.317-21.831c-.718-1.273-2.979-.28-2.261.992l.021.001zm-37.323 43.547c-1.614-9.22 7.116-16.083 15.109-20.8 7.994-4.716 17.711-9.055 27.822-7.407 1.607.268 2.401-1.788.775-2.075-11.206-1.891-21.649 2.605-30.489 7.892-8.84 5.287-17.497 12.765-15.717 22.795.242 1.39 2.745.915 2.502-.458l-.002.053zm.649 4.026a315.99 315.99 0 0023.66 14.678c.285.133.617.171.929.106.313-.064.584-.227.76-.456a.957.957 0 00.189-.778 1.097 1.097 0 00-.48-.69 313.9 313.9 0 01-23.68-14.679c-1.291-.881-2.648.939-1.378 1.819z" fill="#004E63"/><path d="M157.372 106.181l11.767 26.417c.573 1.318 2.835.308 2.261-.993-3.929-8.805-7.852-17.611-11.767-26.416-.594-1.32-2.835-.309-2.261.992z" fill="#004E63"/><path d="M134.889 149.769c-1.36-1.582-.538-3.777.256-5.397a27.174 27.174 0 013.506-5.208c2.741-3.35 6.516-5.983 10.918-7.615 4.429-1.655 9.456-1.803 14.063-.416a4.986 4.986 0 011.619.679c.482.316.887.71 1.191 1.158.304.449.5.943.576 1.454a3.29 3.29 0 01-.129 1.522c-.706 1.946-1.895 3.734-3.487 5.244-3.608 3.307-7.792 6.121-12.409 8.347-1.367.738-.127 2.681 1.201 1.924 5.029-2.411 9.562-5.495 13.43-9.136 3.131-3.342 6.401-8.77 1.354-12.15-4.395-2.861-11.272-2.663-16.335-1.384-5.46 1.517-10.215 4.435-13.619 8.359-3.138 3.498-7.856 9.626-4.127 13.99.972 1.128 2.845-.319 1.874-1.464l.118.093z" fill="#004E63"/><path d="M135.852 153.705c2.577 1.372 5.661 1.853 8.61 1.343 2.949-.511 5.536-1.973 7.223-4.083a.946.946 0 00.075-.774 1.155 1.155 0 00-.546-.63 1.49 1.49 0 00-.893-.171 1.33 1.33 0 00-.793.374c-1.305 1.644-3.311 2.787-5.602 3.192-2.29.405-4.689.04-6.699-1.018a1.515 1.515 0 00-.91-.076c-.302.07-.562.232-.732.456a.962.962 0 00-.187.758c.049.265.209.508.451.682l.003-.053zm-8.173-39.124c4.339 5.057 8.678 10.119 13.016 15.186.231.212.549.339.886.355.336.016.664-.081.914-.269.246-.197.391-.468.405-.758a1.035 1.035 0 00-.331-.792l-12.996-15.185a1.444 1.444 0 00-.896-.357 1.437 1.437 0 00-.925.271c-.241.199-.383.47-.397.757-.014.288.102.572.324.792zm-6.72 8.128a271.03 271.03 0 0114.233 12.452c.229.214.547.344.885.36.337.016.666-.083.915-.275.248-.192.395-.461.409-.748a1.014 1.014 0 00-.337-.784c-4.58-4.3-9.324-8.45-14.232-12.452-1.185-.963-3.078.483-1.873 1.447zm-7.138 7.427a194.48 194.48 0 0118.168 14.645c1.14 1.031 3.033-.415 1.893-1.446a196.999 196.999 0 00-18.683-15.019c-1.269-.897-2.647.922-1.378 1.82zm24.198-19.619l11.934 19.864c.181.222.449.38.755.447.306.066.628.036.906-.086.277-.122.492-.327.602-.576a.944.944 0 00-.002-.777l-11.934-19.864c-.74-1.256-3.001-.264-2.261.992zm6.341-5.336a232.072 232.072 0 0010.374 19.912c.74 1.256 3.001.264 2.262-1.01a217.649 217.649 0 01-10.29-19.943c-.595-1.302-2.856-.309-2.261.993l-.085.048zm6.04 1.036c4.474 6.844 8.164 14.031 11.017 21.461.512 1.315 3.014.875 2.504-.475-2.914-7.619-6.685-14.992-11.259-22.013-.803-1.224-3.068-.145-2.261.993l-.001.034zm-49.354 33.522a95.786 95.786 0 018.385-3.895c.257-.151.44-.377.513-.636a.955.955 0 00-.115-.773 1.265 1.265 0 00-.685-.522 1.506 1.506 0 00-.913-.011 95.7 95.7 0 00-8.384 3.896 1.131 1.131 0 00-.61.635.955.955 0 00.09.823c.076.128.182.242.31.336.129.093.277.165.437.209a1.474 1.474 0 00.972-.062zm59.027-32.157a55.193 55.193 0 006.284-6.298.96.96 0 00.177-.821 1.133 1.133 0 00-.556-.698 1.564 1.564 0 00-.966-.136 1.36 1.36 0 00-.812.453 50.885 50.885 0 01-5.855 5.883c-.122.095-.222.21-.292.338a.953.953 0 00-.117.41.952.952 0 00.078.419c.057.135.145.258.259.365.113.106.25.192.402.254a1.467 1.467 0 00.974.046c.157-.047.301-.12.424-.215zM92.64 123.306a20.21 20.21 0 012.086-.774l-.311.09a20.416 20.416 0 012.342-.552c.326-.062.608-.232.784-.472a.94.94 0 00.159-.81 1.142 1.142 0 00-.572-.687 1.494 1.494 0 00-.967-.153 19.07 19.07 0 00-4.7 1.417c-.258.151-.44.377-.514.637a.958.958 0 00.115.772c.147.239.391.424.685.522.295.099.62.102.913.011l-.02-.001zm57.266-35.66l-.806.154.908 2.032a5.874 5.874 0 001.104-.803 5.98 5.98 0 00.867-.988.808.808 0 00.163-.411.645.645 0 00.02-.435.887.887 0 00-.207-.377.915.915 0 00-.355-.296 1.492 1.492 0 00-.956-.154c-.328.056-.615.22-.801.455a4.68 4.68 0 01-.568.724l.216-.217c-.275.262-.582.5-.915.707l.274-.162a.862.862 0 00-.361.262.712.712 0 00-.242.355l-.014.296a.625.625 0 00-.02.418.496.496 0 00.152.252c.084.118.199.219.335.295a1.532 1.532 0 00.997.152l.785-.138c.329-.063.616-.23.802-.468a.757.757 0 00.162-.394.645.645 0 00.02-.435.997.997 0 00-.201-.384 1.211 1.211 0 00-.361-.288 1.585 1.585 0 00-.976-.168l-.022.016zm-36.625-46.125c-1.326-5.226-.949-10.64 1.09-15.652a8.208 8.208 0 011.488-2.861c1.242-1.11 4.462-1.15 6.21-1.26a37.53 37.53 0 0112.736 1.418c4.104 1.195 7.895 3.08 11.146 5.541 1.226.948 3.119-.498 1.873-1.447-3.704-2.862-8.074-5.024-12.814-6.338a40.598 40.598 0 00-14.666-1.28c-2.059.2-4.957.36-6.398 1.774-1.462 1.845-2.442 3.94-2.874 6.146a27.273 27.273 0 00-.292 14.4c.101.26.312.48.592.617.28.137.608.182.92.125.313-.057.587-.212.77-.434a.968.968 0 00.22-.766l-.001.017z" fill="#004E63"/><path d="M110.93 37.519a449.138 449.138 0 0024.299-15.287c1.292-.863-.456-2.482-1.727-1.617a476.393 476.393 0 01-23.729 14.93c-1.329.792-.13 2.733 1.199 1.941l-.042.033zm2.491 7.532l31.641-18.777c1.328-.775.129-2.734-1.2-1.942l-31.64 18.778c-1.328.775-.13 2.734 1.199 1.941zM21.805 89.608a333.155 333.155 0 0123.243-14.604c1.327-.758.128-2.716-1.221-1.925a357.384 357.384 0 00-23.751 14.964c-1.272.881.455 2.499 1.726 1.634l.003-.07zm3.311 7.589L53.64 79.719c1.33-.81-.418-2.427-1.747-1.635L23.388 95.579c-1.33.81.419 2.428 1.728 1.618z" fill="#004E63"/><path d="M23.356 85.44l1.235.338.305.485c-.014.296.123.006.19-.13.067-.14.142-.276.225-.408.157-.29.334-.56.51-.831.37-.583.78-1.146 1.229-1.687a25.03 25.03 0 013.014-3.05 70.678 70.678 0 017.302-5.273c1.29-.847-.457-2.465-1.748-1.619a61.523 61.523 0 00-8.223 6.102 23.877 23.877 0 00-3.31 3.682 20.64 20.64 0 00-1.242 1.983c-.407.783-.768 1.482-.107 2.246.148.146.34.255.554.314.214.06.443.068.66.023l.103.004c.329-.06.614-.23.793-.472a.944.944 0 00.16-.817 1.13 1.13 0 00-.568-.683 1.472 1.472 0 00-.961-.149l-.12-.058zm88.424-54.651c5.732-2.73 11.984-4.6 18.487-5.529 1.61-.238 1.035-2.376-.596-2.14-6.711.98-13.165 2.917-19.091 5.727-1.425.666-.246 2.606 1.2 1.942zm16.251 8.814a7.863 7.863 0 00-.443 3.708 8.36 8.36 0 001.328 3.575c.163.252.434.442.755.528.321.087.668.065.966-.063a1.16 1.16 0 00.623-.64.971.971 0 00-.082-.835 4.824 4.824 0 01-.456-.754.586.586 0 01-.093-.197c.005-.104.005-.121 0 0-.006.122 0 0 0 0a1.887 1.887 0 00-.094-.196 8.282 8.282 0 01-.377-1.553l.011-.244.015-.314.04-.835.015-.331a.697.697 0 00.01-.209c-.005.122-.005.122 0 0 .006-.122.149-.551.244-.809a.934.934 0 00-.072-.831 1.15 1.15 0 00-.309-.338 1.362 1.362 0 00-.435-.213 1.492 1.492 0 00-.978.061c-.302.13-.53.356-.634.63l-.034-.14z" fill="#004E63"/><path d="M131.779 40.094a216.595 216.595 0 0115.661-9.501c.291-.141.507-.372.604-.646a.984.984 0 00-.083-.83 1.292 1.292 0 00-.763-.537 1.489 1.489 0 00-.978.07 206.805 206.805 0 00-16.169 9.827c-1.29.846.458 2.464 1.728 1.617zm-9.716 11.666c17.542 15.155 41.083 24.159 65.866 25.192.312-.019.605-.134.822-.325.216-.19.343-.442.356-.71.012-.267-.09-.53-.288-.74a1.373 1.373 0 00-.787-.401c-24.103-.981-47.011-9.711-64.098-24.427-1.162-.997-3.035.45-1.873 1.464l.002-.052zm29.421-23.873c17.451 9.847 36.705 21.908 39.869 40.816.241 1.39 2.744.933 2.502-.457-3.179-19.467-23.085-32.03-41.055-42.181a1.5 1.5 0 00-.909-.077c-.303.07-.563.232-.732.456a.96.96 0 00-.187.758c.048.265.209.508.451.682l.061.003z" fill="#004E63"/><path d="M188.543 75.236c1.773-.667 3.321-1.696 4.508-2.997a4.95 4.95 0 001.126-2.247 4.645 4.645 0 00-.165-2.454 1.21 1.21 0 00-.584-.67 1.558 1.558 0 00-.955-.17 1.3 1.3 0 00-.792.48.975.975 0 00-.172.817c.073.15.128.304.163.462l-.012.26s-.006.123 0 0c.013.158.005.316-.022.471a1.14 1.14 0 01-.013.261s-.006.14 0 0a4.516 4.516 0 01-.33.91c.007-.157 0 0 0 0l-.155.236c-.006.14-.197.27-.306.404a1.457 1.457 0 00-.151.168c-.151.15.192-.166 0 0l-.406.347c-.29.227-.594.44-.912.637-.169.115.123.006 0 0l-.273.145c-.162.099-.331.19-.505.272l-1.089.49a1.137 1.137 0 00-.62.641.958.958 0 00.099.835c.166.248.437.435.757.522.32.086.664.066.963-.057l-.154.237zM53.05 151.095a15.04 15.04 0 005.081.263 14.134 14.134 0 004.773-1.437c.258-.15.44-.377.513-.636a.961.961 0 00-.114-.773 1.27 1.27 0 00-.686-.522 1.497 1.497 0 00-.912-.01 11.03 11.03 0 01-3.913 1.228 12.65 12.65 0 01-3.968-.188 1.47 1.47 0 00-1.044-.001c-.163.062-.31.152-.428.265a1.053 1.053 0 00-.263.393.937.937 0 00-.052.451c.02.153.077.3.167.434.09.133.212.25.358.342.145.091.311.156.487.191zm79.796-96.749l-.129.134.915-.27.245.01.542.672c.166-.478.401-.936.701-1.363.314-.578.628-1.157.982-1.698.689-1.137 1.439-2.253 2.21-3.385a38.615 38.615 0 015.629-5.876 29.102 29.102 0 016.824-4.702c3.06-1.408 6.425-1.04 9.747-.638 1.631.2 1.734-1.977.104-2.176-4.077-.507-8.168-.684-11.804 1.186-3.133 1.728-5.952 3.833-8.373 6.252a39.875 39.875 0 00-6.292 7.763 15.503 15.503 0 00-2.25 4.221c-.264 1.244 1.453 2.651 2.678 1.453 1.226-1.198-.672-2.684-1.747-1.636l.018.053z" fill="#004E63"/><path d="M132.033 54.224a14.247 14.247 0 01.118-9.692c1.171-3.134 3.418-5.885 6.455-7.9 3.001-1.97 6.511-3.309 10.251-3.912 2.626-.469 8.06-1.363 9.509 1.358.698 1.289 2.939.296 2.262-.993-1.732-3.257-6.656-3.176-10.117-2.817-4.517.479-8.809 1.9-12.497 4.137-3.711 2.205-6.51 5.346-8.011 8.99a16.104 16.104 0 00-.373 11.36c.49 1.332 2.991.892 2.481-.458l-.078-.073z" fill="#004E63"/><path d="M134.524 57.464c.558-2.922 2.111-5.627 4.469-7.78a37.162 37.162 0 016.718-5.51c5.188-3.214 10.82-5.876 16.776-7.93 1.503-.558.303-2.5-1.199-1.942-6.409 2.21-12.44 5.127-17.939 8.678a37.467 37.467 0 00-6.991 6.073c-2.346 2.337-3.841 5.21-4.308 8.276.027.267.167.517.394.705.227.188.526.3.839.314.314.015.622-.068.865-.233a1.06 1.06 0 00.459-.665l-.083.014zM101.96 37.303a124.898 124.898 0 0011.706 7.36 1.5 1.5 0 00.909.075c.303-.07.563-.231.732-.455a.96.96 0 00.187-.758 1.09 1.09 0 00-.451-.682 125.138 125.138 0 01-11.706-7.36 1.485 1.485 0 00-.966-.162 1.291 1.291 0 00-.811.462.999.999 0 00-.145.822c.074.28.268.53.545.698zM19.156 155.09c6.952 2.554 13.414 6.003 19.156 10.225 1.228.913 3.141-.532 1.873-1.464-6.066-4.477-12.9-8.133-20.254-10.835a1.111 1.111 0 00-.775 2.074zm52.94 24.126c11.533 7.625 21.766 16.587 30.393 26.617.991 1.147 2.865-.318 1.893-1.445-8.779-10.175-19.185-19.262-30.908-26.992-1.312-.882-2.69.955-1.378 1.82z" fill="#004E63"/><path d="M104.829 206.625c10.257-.142 20.847-.391 29.888-4.727 1.427-.683.125-2.629-1.199-1.941-8.663 4.144-18.862 4.342-28.586 4.492-1.641.027-1.765 2.202-.103 2.176zm121.557-57.759c5.073-4 9.053-8.901 11.669-14.366 1.1-1.988 1.645-4.171 1.593-6.381-.139-1.385-2.695-1.523-2.557-.121.045 2.072-.487 4.116-1.553 5.964-2.456 5.05-6.166 9.576-10.879 13.27-1.193.955.535 2.572 1.748 1.635l-.021-.001z" fill="#004E63"/><path d="M217.691 90.035a1684.487 1684.487 0 0020.154 41.087c.656 1.305 2.918.295 2.262-.992a1409.563 1409.563 0 01-20.155-41.087c-.615-1.303-2.877-.294-2.261.992zm-12.354-47.802a30.002 30.002 0 012.858 4.584c.181.222.449.38.755.447.305.067.627.036.905-.086.278-.121.492-.326.603-.575a.945.945 0 00-.002-.778 30.007 30.007 0 00-2.858-4.585 1.123 1.123 0 00-.295-.391 1.359 1.359 0 00-.456-.256 1.512 1.512 0 00-1.059.044 1.24 1.24 0 00-.415.292 1.013 1.013 0 00-.234.414.937.937 0 00-.013.461c.034.154.106.3.211.429z" fill="#004E63"/><path d="M208.581 47.76a47.124 47.124 0 00.054 13.579c.078.278.281.52.566.675.284.153.627.206.953.147.331-.062.618-.233.799-.476a.96.96 0 00.165-.822 45.86 45.86 0 01.02-12.981c.209-1.386-2.349-1.49-2.557-.121zm-72.613 100.874c-.748-2.827 2.309-5.474 4.245-7.389a45.904 45.904 0 017.152-5.577c5.136-3.247 11.418-6.038 18.091-5.39 1.632.164 1.735-2.012.103-2.177-7.53-.74-14.589 2.451-20.343 6.209a47.226 47.226 0 00-7.955 6.498c-2.303 2.317-4.645 5.015-3.776 8.302.08.281.286.526.575.68.289.155.636.206.965.143.329-.063.614-.235.79-.479a.946.946 0 00.153-.82z" fill="#004E63"/><path d="M135.024 151.694a16.491 16.491 0 007.85 1.191c2.685-.247 5.219-1.144 7.304-2.585 2.386-1.458 4.558-3.17 6.767-4.793l7.453-5.44c1.232-.901-.496-2.518-1.748-1.618-4.12 3.016-8.202 6.103-12.421 9.044-1.81 1.397-3.957 2.444-6.295 3.069-2.538.566-5.246.32-7.614-.692-1.466-.645-2.844 1.174-1.378 1.82l.082.004z" fill="#004E63"/></svg>