<svg width="145" height="158" fill="none" xmlns="http://www.w3.org/2000/svg"><path d="M16.46 81.814h21.794l3.113-20.345L6.23 57.573l16.456-19.48h22.24L34.25 19.913 50.707.432h30.245L75.615 37.66h23.573L88.513 19.48 104.97 0h30.245l-5.337 37.228H145v23.375l-16.457 19.48-5.337.865h15.123v23.376l-16.457 19.479-1.779-19.479-4.893 33.331-16.457 19.48-9.785-52.378H65.83l-4.448 33.331-16.901 18.614-9.785-51.945-34.693-3.896L16.46 81.814zm51.594.866h25.352l3.558-22.077H71.612L68.054 82.68z" fill="#EC5D3E"/><path d="M0 101.293h21.794l3.113-20.345H6.227V57.572h22.239l5.782-37.227h30.245l-5.338 37.227H82.73l5.782-37.227h30.245l-5.338 37.227h15.123v23.376H109.86l-3.113 20.345h15.122v23.376h-18.681L98.296 158H67.16l5.338-33.331H49.37L44.923 158H12.898l5.338-33.331H0v-23.376zm51.594.866h25.352l3.559-22.077H55.152l-3.558 22.077z" fill="#F3B08C"/></svg>