<svg width="157" height="153" fill="none" xmlns="http://www.w3.org/2000/svg"><path d="M32.457 2.143l-.2 29.863 31.331.196.2-29.863-31.331-.196z" fill="#C9F7FF"/><path d="M32.186 32.023l-.199 29.863 31.33.196.2-29.863-31.33-.196z" fill="#E37958"/><path d="M31.994 62.34l-.215 29.862 31.33.212.215-29.863-31.33-.212z" fill="#00667E"/><path d="M.215 92.254L0 122.117l31.33.212.216-29.863-31.33-.212z" fill="#F1C0A4"/><path d="M63.232 92.465l-.215 29.863 31.33.212.215-29.863-31.33-.212z" fill="#008DA2"/><path d="M62.713 122.926l-.215 29.862 31.33.212.215-29.863-31.33-.211z" fill="#00667E"/><path d="M125.588 151.891l31.331.079.081-29.863-31.331-.08-.081 29.864z" fill="#5AC0E8"/><path d="M94.155 122.076l31.331.079.081-29.863-31.331-.08-.081 29.864z" fill="#1BB0D6"/><path d="M93.806 92.14l31.331.08.081-29.864-31.331-.08-.08 29.864z" fill="#008DA2"/><path d="M125.277 92.32l31.331.08.081-29.864-31.331-.08-.081 29.864z" fill="#C9F7FF"/><path d="M124.712 29.863l31.331.08.081-29.864L124.793 0l-.081 29.863z" fill="#F1C0A4"/></svg>