<svg width="339" height="440" fill="none" xmlns="http://www.w3.org/2000/svg"><path d="M315.176 125.801c-3.349-6.06-8.917-8.446-17.524-12.002-20.022-8.249-30.132-12.418-35.211-14.004-11.623-3.645-21.865-6.81-36.13-8.412a159.264 159.264 0 00-15.219-.964 5.882 5.882 0 001.018-3.51c-.191-2.928-3.18-4.212-2.611-5.235.837-1.507 4.609-.268 12.633-.83 5.01-.327 6.008-.952 6.638-1.524 2.705-2.425 2.32-7.224 1.505-9.932-.486-1.746-1.285-4.29-3.557-5.51-4.046-2.17-9.062 2.041-11.004-.095-.975-1.054.064-2.373-1.201-4.137-1.266-1.764-2.842-1.242-4.061-2.559-2.455-2.574-1.236-9.427 2.369-11.752 2.185-1.404 3.884-.253 5.354-1.897 1.469-1.645 1.602-5.523-.058-6.92-1.661-1.396-3.933.642-6.315-.804-2.383-1.446-1.463-4.34-3.882-5.604a5.275 5.275 0 00-5.324.526c-2.32 1.814-1.003 4.893-3.212 6.323-1.699 1.112-3.086-.398-4.984.624-2.897 1.487-4.023 6.858-2.401 8.276 1.416 1.245 3.947-1.407 6.269-.252 2.909 1.454 4.241 8.23 1.565 11.16-1.932 2.136-4.867.996-18.466 1.898-2.743.183-4.417.324-6.039 1.554-3.227 2.403-3.955 7.231-3.388 10.686.249 1.678.881 5.296 3.501 6.586 2.619 1.29 4.481-.931 9.288.046 1.466.251 2.866.799 4.112 1.61a9.961 9.961 0 014.175 6.636c.118 1.03.367 3.205-.855 4.215-1.73 1.44-5.377-.34-6.194-.722-5.996-2.734-16.958-2.255-38.724-1.235-2.794.137-14.556 1.716-38.073 4.909-7.49 1.037-18.231 2.575-26.01 9.74a14.854 14.854 0 00-5.026 7.996c-1.099 5.444 1.853 10.168 3.18 12.271 2.376 3.899 4.603 4.995 10.805 10.165 5.673 4.728 5.92 5.474 10.716 9.529a148.642 148.642 0 0024.099 17.265c13.861 7.794 26.186 10.952 37.985 13.99a216.758 216.758 0 0017.521 3.735c-.288 3.127-.575 6.286-.86 9.478l3.433 2.071c-.773 2.665-1.704 5.268-2.566 7.907l-3.454 1.695c-.207 5.076-.43 10.147-.638 15.223l-7.352-5.343 2.623-10.86c-19.051.38-23.174 1.896-23.351 3.225-.084.73 1.049 1.075 3.283 4.468a24.148 24.148 0 012.476 4.49c.909 2.383.729 3.005 1.304 3.894.809 1.182 2.775 2.41 8.086 1.816l11.777 9.628a255.033 255.033 0 00-.961 7.009c-.566 4.49-.976 8.882-1.387 13.113-4.88-.453-9.103 1.853-10.438 5.35a8.09 8.09 0 00.029 5.417l-17.428 7.094a5.514 5.514 0 00-2.017-4.084 5.602 5.602 0 00-4.868-.883c-.758 1.675-1.501 3.353-2.259 5.027l-3.444-15.06c-2.097-.608-5.012-1.101-6.31.337-2.884 3.208 3.982 14.365 3.281 14.739-.701.375-2.533-4.844-5.609-4.837a4.206 4.206 0 00-2.469.952 4.236 4.236 0 00-1.419 2.237c-.425 2.461 2.927 3.434 2.915 6.512.022 2.462-2.096 2.698-2.42 5.526-.324 2.827 1.778 3.308 2.43 7.462.57 3.552-.69 5.081.567 6.377.902.919 1.857.442 4.799 1.119 1.922.229 3.753.948 5.318 2.089 2.993 2.762.463 7.565 2.986 9.244a4.598 4.598 0 002.831.441 4.614 4.614 0 002.547-1.32c2.615-2.885-1.122-9.266.897-10.542 1.079-.682 2.417.942 4.265.146a4.63 4.63 0 002.484-3.87c.197-3.33-3.726-4.596-3.278-6.36.618-2.518 8.703.021 18.685-4.033 2.555-1.024 3.863-1.945 4.946-1.262 1.765 1.09.455 4.723-.707 15.461-1.032 9.074-1.474 13.633-.963 15.402a7.936 7.936 0 01.034 5.403 6.83 6.83 0 01-2.1 2.601c-4.203 3.452-1.33 12.808-3.329 26.321-.762 5.108-1.702 7.355-.337 10.432 1.365 3.076 3.093 3.08 4.696 7.044a13.179 13.179 0 01.931 7.83 19.497 19.497 0 01-1.716 4.093c-.887 2.231-1.288 5.71 1.078 11.131.085 4.728.134 9.525.141 14.359a773.768 773.768 0 01-.389 28.378c3.895-17.233 6.449-28.626 6.39-28.644-.128.605-.3 1.198-.516 1.777-.133-.039.486-4.434 2.449-16.223l1.587-3.039 2.134-15.801a17.617 17.617 0 005.019-4.659c.85-1.23 1.579-2.54 2.175-3.912a32.715 32.715 0 001.399-3.607c1.182-9.555 2.28-19.081 3.296-28.577-.127-1.771-.25-3.556-.357-5.336l-2.254-3.271 2.246-17.341-2.819-2.921 3.103-2.31 2.624-15.996a37.817 37.817 0 004.141-2.297 21.597 21.597 0 007.234-6.28 16.043 16.043 0 002.319-5.619l6.91-2.185c-.808 2.783-.799 4.905.157 5.471.508.292 1.281.002 2.781-.589 2.934-1.172 4.42-1.768 4.908-3.119.488-1.351-.777-2.456-.139-3.716a3.633 3.633 0 014.555-1.295c2.048 1.493-1.27 6.582 1.26 9.451 1.282 1.431 3.667 1.93 4.552 1.144 1.162-1.027-.885-3.628.282-5.167 1.639-2.173 7.57.672 8.478-1.023.659-1.222-1.707-3.995-1.896-4.226-1.044-1.202-1.425-.991-1.77-1.734-1.013-2.027 1.609-3.947 1.233-6.624a5.757 5.757 0 00-2.749-3.767 11.473 11.473 0 002.732-4.617c.284-.918.442-1.872.47-2.833-.625-1.433-1.564-2.941-2.92-3.126-3.342-.456-5.974 7.624-8.204 7.25-1.323-.239-2.442-3.501-2.499-14.176l-5.545.35c4.35 11.053 4.248 14.218 3.17 14.9a2.427 2.427 0 01-2.387-.163c-.867-.653-.478-1.663-1.115-2.779a5.453 5.453 0 00-2.542-1.85 5.454 5.454 0 00-3.142-.136c-1.26.26-3.762 1.268-3.9 3.234-.128 1.712 1.578 3.668 4.229 4.02l-5.041 1.154-12.449-9.904a3.952 3.952 0 01.119-3.449c1.657-2.232 6.692.337 8.405-1.927 1.312-1.706-.365-4.921-.577-5.24a8.243 8.243 0 00-5.489-3.871l1.18-17.314-3.204-.93c-.144-2.321-.262-4.618-.419-6.943l2.079-2.366.332-10.802a180.356 180.356 0 0023.026 1.094c9.193-.173 16.465-.295 26.004-2.599a81.639 81.639 0 0026.776-11.445 74.898 74.898 0 007.112-5.528 143.017 143.017 0 0013.196-5.144c11.225-5.026 16.882-7.638 19.192-12.73 3.473-7.612-.977-15.949-1.358-16.622zm-128.002-9.947c.188 2.109.377 4.218.576 6.347l-10.01-6.115 9.434-.232zm-54.024 21.644l-16.881-9.199a95.18 95.18 0 0141.339-13.238l27.283 15.171-51.741 7.266zm13.691 4.518l39.547-5.187a105.51 105.51 0 00-.372 3.103 275.975 275.975 0 00-.968 10.73l-38.207-8.646zm61.348-23.821l27.622 4.515-27.653 2.988c.005-2.502.025-5 .031-7.503zm-3.096 33.74l-1.153-.607 1.433-11.398 20.373 11.015-20.653.99zm34.639-1.186l-28.066-17.773 40.317-4.145a62.183 62.183 0 0114.228 8.076c5.237 4.024 8.811 6.714 8.412 8.861-.49 2.795-7.736 5.364-34.834 4.95l-.057.031z" fill="#C9F7FF"/><path d="M175.378 62.144a5.06 5.06 0 00-2.32 4.464c.013.923.134 1.841.359 2.736.149.89.555 1.717 1.167 2.378a2.584 2.584 0 002.541.736 3.47 3.47 0 001.824-1.653 6.865 6.865 0 00.581-5.34 6.826 6.826 0 00-3.443-4.11.967.967 0 00-1.251.368.977.977 0 00.244 1.282 4.964 4.964 0 012.366 2.437 4.984 4.984 0 01.249 3.394c-.176.607-.743 2.176-1.599 1.703-.472-.25-.636-.843-.767-1.33a10.19 10.19 0 01-.343-1.962 3.395 3.395 0 011.311-3.36c1.061-.622.14-2.302-.936-1.683l.017-.06z" fill="#004E63"/><path d="M176.615 61.524a3.661 3.661 0 011.741-1.421c.82-.18 1.315.542 1.623 1.193a11.98 11.98 0 01.697 5.322 16.622 16.622 0 01-1.198 5.4c-.173.418-.366.828-.58 1.227a3.34 3.34 0 01-.658 1.11c-.751.488-1.396-.984-1.629-1.452-.544-1.105-2.236-.184-1.677.926a4.07 4.07 0 002.485 2.47c1.314.382 2.25-.47 2.87-1.559a18.256 18.256 0 002.272-7.831c.162-2.377-.007-5.492-1.471-7.458a3.067 3.067 0 00-2.998-1.255 4.84 4.84 0 00-2.817 1.928c-.786.944.534 2.354 1.325 1.395l.015.005zm11.869 8.259a10.812 10.812 0 00-.329 4.72c.077.722.293 1.422.635 2.062a2.117 2.117 0 002.268 1.01 4.42 4.42 0 002.07-1.116 5 5 0 001.341-1.698 4.623 4.623 0 00-.06-4.319 3.358 3.358 0 00-2.156-1.62 2.579 2.579 0 00-2.418.775.972.972 0 00.278 1.573.95.95 0 001.046-.178l.14-.152s.035-.118 0 0c-.034.119.25-.088.096-.052-.155.035.27-.05.139-.04l.178.051s.147.043 0 0a1.42 1.42 0 01.923.734c.208.348.32.746.322 1.153.005.406-.074.81-.231 1.184a3.64 3.64 0 01-1.972 1.884.643.643 0 01-.241.059s-.103-.03 0 0c.104.03 0 0 0 0l-.094-.172-.067-.212c.035-.118-.079-.28-.103-.415a8.29 8.29 0 01.186-4.504.987.987 0 00-.664-1.189.953.953 0 00-1.182.653l-.105-.191z" fill="#004E63"/><path d="M190.863 69.365a6.166 6.166 0 012.736-2.753 2.013 2.013 0 012.953.857 10.811 10.811 0 01.611 7.609 26.61 26.61 0 01-1.066 3.671c-.314.808-.827 2.52-1.928 2.507-1.1-.015-1.992-1.686-2.433-2.649a19.839 19.839 0 01-1.357-3.989c-.271-1.218-2.136-.748-1.865.47a20.496 20.496 0 001.368 4.057 7.845 7.845 0 002.401 3.425 3.159 3.159 0 003.419.19 5.573 5.573 0 002.008-2.837 21.47 21.47 0 001.807-8.16c-.012-2.442-.588-5.643-2.893-6.97-2.743-1.582-6.033 1.203-7.242 3.549-.575 1.101.992 2.101 1.626 1.017l-.145.006z" fill="#004E63"/><path d="M178.477 76.35c3.339.137 6.683.09 10.017-.144a.985.985 0 00.98-.951.972.972 0 00-.952-.967 90.264 90.264 0 01-10.012.13.971.971 0 00-.033 1.932zm.707-16.841a171.665 171.665 0 0121.05-.811.957.957 0 00.971-.947.958.958 0 00-.943-.971 166.24 166.24 0 00-21.049.81c-1.203.117-1.25 2.046-.014 1.923l-.015-.004zm30.353-.76c.296-.058.598-.078.899-.06l.236.068.62.18c.519.19.978.517 1.327.946l.142.17c-.082-.104 0 0 0 0l.225.386.096.22c.117.26-.046-.173-.026.09.02.262.089.298.129.438.039.14.035.155.047.223.013.068.018.214-.021.074l.013.453-.073.252c-.026.088 0 0 0 0l-.065.221s.125-.156.13-.17a.97.97 0 00.932 1.698 2.802 2.802 0 00.833-2.872 5.41 5.41 0 00-1.036-2.5 5.157 5.157 0 00-5.201-1.83.953.953 0 00-.71.792.956.956 0 00.02.373.97.97 0 001.161.69l.322.158z" fill="#004E63"/><path d="M194.228 65.88a315.877 315.877 0 0132.773-1.102.971.971 0 00.032-1.932 320.255 320.255 0 00-32.788 1.096c-1.217.113-1.264 2.041-.017 1.937z" fill="#004E63"/><path d="M226.855 65.17a9.485 9.485 0 012.291 2.939 9.52 9.52 0 01.985 3.597 6.98 6.98 0 01-3.267 6.291c-1.065.638-.148 2.333.918 1.695a8.94 8.94 0 004.28-7.747 11.354 11.354 0 00-3.812-8.104c-.894-.837-2.303.487-1.395 1.329z" fill="#004E63"/><path d="M194.941 83.341a379.202 379.202 0 0131.278-2.514c1.23-.044 1.273-1.958.028-1.918a359.4 359.4 0 00-31.772 2.563c-1.226.142-.745 2.015.466 1.87z" fill="#004E63"/><path d="M205.985 81.313c-.365 2.639-.461 7.105-3.852 7.759-1.218.224-.737 2.097.466 1.868a5.789 5.789 0 003.933-3.289 20.258 20.258 0 001.322-6.325.972.972 0 00-.933-.977 1 1 0 00-.98.951l.044.013z" fill="#004E63"/><path d="M195.223 82.316a5.731 5.731 0 00.446 5.25 5.8 5.8 0 004.779 2.622.957.957 0 00.971-.946.957.957 0 00-.943-.972l-.551-.031-.384-.112a3.544 3.544 0 01-.546-.158c-.163-.047 0 0 0 0l-.266-.078-.474-.297-.185-.134-.119-.035-.38-.399-.174-.227-.067-.1a4.596 4.596 0 01-.258-.492s-.107-.24-.073-.134l-.056-.192a3.91 3.91 0 01-.131-.488s-.027-.184-.05-.27c-.022-.088-.021.073.03-.105l-.001-.546c.019-.09.045-.18.077-.266l.03-.104a5.27 5.27 0 01.305-1.051.97.97 0 00-.645-1.198 1.018 1.018 0 00-1.201.663l-.134-.2zm-2.884 9.387a18.406 18.406 0 009.679 2.343 38.872 38.872 0 004.745-.405c.687-.106 1.627-.09 2.12-.685a1.196 1.196 0 00.197-.932 1.19 1.19 0 00-.55-.776.968.968 0 00-1.251.368.972.972 0 00.244 1.282l.118.035-.437-.592.06-.208.455-.574a5.19 5.19 0 01-1.788.316l-1.653.178c-1.228.102-2.461.13-3.691.085a15.343 15.343 0 01-7.178-2.082.964.964 0 00-1.25.367c-.126.206-.171.452-.126.689a.971.971 0 00.369.594l-.063-.003z" fill="#004E63"/><path d="M204.528 89.702l.295.086c-.236-.069.088.026.133.038l.556.29c.346.194.679.409.998.643l.251.185.133.039c-.104-.03-.104-.03 0 0l.404.374.187.182.103.03c-.077-.118-.107-.127 0 0l.048.11a8.16 8.16 0 01.022-.073.477.477 0 01.081-.282.974.974 0 00.305 1.325.967.967 0 001.321-.307c.19-.33.251-.718.173-1.09a1.938 1.938 0 00-.432-.831 6.247 6.247 0 00-1.15-1.056 11.618 11.618 0 00-2.752-1.553.967.967 0 00-1.201.663 1.001 1.001 0 00.664 1.188l-.139.04zm-8.043-2.189a5.53 5.53 0 00-1.773-.016 5.304 5.304 0 00-1.521.441 5.615 5.615 0 00-2.374 2.056.973.973 0 00.366 1.253.966.966 0 001.28-.246c.055-.094.118-.183.189-.266 0 0 .174-.158 0 0l.034-.118c.142-.152.29-.296.446-.433l.201-.086s.161-.114.257-.166a5.41 5.41 0 01.548-.29.762.762 0 00.148-.07l.284-.094c.212-.061.428-.106.647-.133-.148-.043 0 0 0 0l.306-.008.317.012.118.034c.248.066.512.04.742-.074.217-.129.378-.333.455-.574.133-.459-.126-1.112-.66-1.203l-.01-.019z" fill="#004E63"/><path d="M190.458 90.516c-.342 4.379-.665 8.747-1.006 13.126-.099 1.224 1.829 1.254 1.918.011l1.017-13.107c.088-1.243-1.826-1.268-1.929-.03zm17.495 1.56c-.345 4.32-.675 8.638-.988 12.955-.099 1.224 1.829 1.254 1.913.026.343-4.309.674-8.633.994-12.97.098-1.223-1.83-1.253-1.919-.01z" fill="#004E63"/><path d="M192.554 105.586c5.001 2.077 11.141 4.147 16.097.753 1.004-.703.087-2.398-.932-1.699-4.519 3.103-10.082.976-14.628-.905-1.143-.476-1.665 1.379-.537 1.851zm-2.487 4.544a25.696 25.696 0 009.514 3.081 22.52 22.52 0 004.89.086 5.916 5.916 0 003.814-1.558c.851-.892-.473-2.288-1.324-1.395a4.613 4.613 0 01-3.259 1.077 22.66 22.66 0 01-4.387-.165 23.54 23.54 0 01-8.245-2.762c-1.074-.6-2.083 1.001-1.003 1.636z" fill="#004E63"/><path d="M203.676 107.978l.644.428.141.121c.101.073.195.154.282.242.389.347.744.73 1.062 1.143l.117.146c.089.026.119.035 0 0 .08.1.151.207.212.319.143.206.267.425.371.653.094.172 0 0 0 0s.06.178.056.193l.046.174c.026.184 0 0 0 0l-.052.177s.056-.192.022-.074c-.035.119.129-.171 0 0l.03-.103-.03.103a.972.972 0 00.664 1.583.97.97 0 00.66-.187 2.087 2.087 0 00.496-2.152 6.178 6.178 0 00-1.047-1.909 10.363 10.363 0 00-2.791-2.575.985.985 0 00-1.326.322 1.002 1.002 0 00.319 1.328l.124.068zm-10.807-2.926a12.04 12.04 0 00-4.276 3.703.972.972 0 00.323 1.313.984.984 0 001.322-.306c.057-.093.12-.182.189-.267l.035-.118.405-.46c.303-.308.613-.604.93-.886l.481-.39s.185-.139.022-.074c-.163.065 0 0 0 0l.275-.177c.354-.243.723-.463 1.104-.659a.96.96 0 00.492-.946.958.958 0 00-.114-.357.968.968 0 00-1.3-.377l.112.001z" fill="#004E63"/><path d="M188.556 108.439a10080.15 10080.15 0 00-2.058 17.412c-.147 1.226 1.786 1.241 1.918.011l2.052-17.334c.147-1.225-1.786-1.24-1.933-.015l.021-.074zm18.139 2.598a510.512 510.512 0 00-1.341 15.662c-.089 1.242 1.84 1.272 1.913.025.369-5.243.816-10.464 1.342-15.661.118-1.234-1.796-1.26-1.928-.03l.014.004z" fill="#004E63"/><path d="M190.958 127.257a16.165 16.165 0 007.588 2.36 16.196 16.196 0 007.801-1.539c1.128-.524.192-2.208-.922-1.68a14.261 14.261 0 01-13.464-.776.955.955 0 00-1.317.316.96.96 0 00.314 1.319z" fill="#004E63"/><path d="M185.161 128.641a23.012 23.012 0 0021.948 2.548c1.156-.452.219-2.136-.922-1.68a21.089 21.089 0 01-20.083-2.52c-.991-.721-1.998.928-1.002 1.635l.059.017z" fill="#004E63"/><path d="M205.637 127.872l.203.46-.092-.235c.256.649.425 1.33.502 2.023l-.024-.247c-.022.074-.039.133.018.214.009.248.105.486.269.672a.945.945 0 00.683.294.97.97 0 00.976-.937 8.233 8.233 0 00-.264-1.681 9.19 9.19 0 00-.561-1.544 1.003 1.003 0 00-.573-.455 1.033 1.033 0 00-.742.074.956.956 0 00-.454.574c-.058.245-.031.502.077.729l-.018.059zm-19.575 4.449c-.3 5.413-.76 10.807-1.38 16.18-.147 1.226 1.781 1.256 1.914.026a281.74 281.74 0 001.395-16.176c.069-1.232-1.86-1.262-1.929-.03zm17.781 2.398a96.59 96.59 0 01-.793 10.46 94.916 94.916 0 01-.821 5.091c-.207 1.047-.808 3.393 1.039 3.319 1.229-.045 1.277-1.973.032-1.933l-.162-.047.683.294c-.074-.021.415-1.982.452-2.164.184-.637.226-1.331.341-2.004.218-1.413.425-2.846.584-4.276.331-2.906.509-5.84.576-8.774a.955.955 0 00-1.624-.7.964.964 0 00-.29.675l-.017.059zm-20.628 38.926c-.152 4.677-.601 9.34-1.344 13.96a1 1 0 00.66 1.202.966.966 0 001.186-.667 112.978 112.978 0 001.427-14.465.967.967 0 00-1.605-.65.966.966 0 00-.324.62zm16.565 1.291a286.235 286.235 0 01-1.407 13.733.969.969 0 001.929.03 305.89 305.89 0 001.392-13.737c.103-1.238-1.83-1.253-1.914-.026z" fill="#004E63"/><path d="M185.323 189.778a14.953 14.953 0 0012.305 1.018c1.041-.388 3.542-1.172 2.878-2.745a.986.986 0 00-1.157-.704.988.988 0 00-.709 1.174l.142-.488c-.107.37-.951.574-1.315.726-.478.199-.969.362-1.471.488a13.133 13.133 0 01-9.659-1.198c-1.094-.59-2.084 1.001-1.022 1.646l.008.083z" fill="#004E63"/><path d="M183.791 190.201l-.522 6.269a.969.969 0 001.929.029l.522-6.269a.967.967 0 00-.948-.981.986.986 0 00-.981.952zm13.501-.177a76.074 76.074 0 00-.312 7.309.988.988 0 00.949.982.969.969 0 00.965-.956c.003-2.439.104-4.882.316-7.324a.952.952 0 00-.952-.966.968.968 0 00-.966.955z" fill="#004E63"/><path d="M184.375 198.508a14.887 14.887 0 007.516 2.79c2.224.116 5.163-.412 6.67-2.238a.993.993 0 00.04-1.353.969.969 0 00-1.365-.042 6.71 6.71 0 01-5.532 1.685 13.07 13.07 0 01-6.311-2.473c-1.03-.7-2.033.935-1.018 1.631z" fill="#004E63"/><path d="M179.275 196.771a7.686 7.686 0 003.73 3.699 25.186 25.186 0 005.979 2.184c3.921.891 8.035.268 11.522-1.746 1.061-.623.144-2.317-.936-1.684a13.935 13.935 0 01-10.064 1.575 24.411 24.411 0 01-5.106-1.771 6.284 6.284 0 01-3.433-3.179c-.482-1.151-2.164-.21-1.692.922z" fill="#004E63"/><path d="M183.245 194.568a7.545 7.545 0 00-3.318 1.943.968.968 0 00-.295.685 1 1 0 00.255.667.981.981 0 001.365.043c.248-.256.52-.488.81-.696l-.199.135a6.938 6.938 0 011.444-.785l-.23.078.639-.216a.928.928 0 00.587-.423c.13-.222.172-.485.117-.737a.966.966 0 00-1.175-.694zm14.03 3.349l2.114 1.159.537.3.31.202c-.148-.042-.156-.125-.089-.025l.089.025c.168.194-.074-.133 0 0 .073.134-.107-.239 0 0a.464.464 0 01.016-.332l.034-.118a1.08 1.08 0 00-.121.751.989.989 0 00.794.698.984.984 0 00.968-.428 1.536 1.536 0 00-.131-1.643 2.89 2.89 0 00-.996-.818l-2.526-1.391a.958.958 0 00-1.003 1.635l.004-.015z" fill="#004E63"/><path d="M178.458 197.931a117.797 117.797 0 01-1.385 21.331c-.188 1.197 1.654 1.748 1.846.535a122.06 122.06 0 001.527-21.819c-.024-1.243-1.952-1.273-1.929-.03l-.059-.017z" fill="#004E63"/><path d="M179.699 206.236c-.111.385-.334.048.03.394.216.178.451.332.699.46.419.266.862.507 1.378.769.871.445 1.769.834 2.688 1.165a21.75 21.75 0 006.136 1.202 21.301 21.301 0 006.047-.589 5.717 5.717 0 004.271-2.966c.487-1.127-1.364-1.648-1.846-.536-.707 1.609-3.757 1.912-5.275 2.065a19.035 19.035 0 01-6.07-.268 19.308 19.308 0 01-5.525-2.036c-1.005-.565-3.215-2.442-4.089-.641-.542 1.095 1.099 2.117 1.63 1.003l-.074-.022z" fill="#004E63"/><path d="M200.294 199.322a485.327 485.327 0 01-2.467 23.569c-.163 1.221 1.766 1.251 1.913.026a521.607 521.607 0 002.483-23.565c.088-1.243-1.826-1.268-1.929-.03z" fill="#004E63"/><path d="M177.365 220.406a24.075 24.075 0 0012.325 5.421c2.064.218 4.151.08 6.17-.408 1.331-.337 4.617-1.068 4.413-2.958-.144-1.213-2.069-1.258-1.933-.015.033.218-2.036.838-2.29.941-.866.266-1.756.448-2.656.545a16.402 16.402 0 01-4.983-.209 23.129 23.129 0 01-10.032-4.933c-.979-.766-1.967.874-1.022 1.645l.008-.029zm-8.928 10.684a61.618 61.618 0 0110.878-2.285.986.986 0 00.966-.956.97.97 0 00-.933-.977 65.423 65.423 0 00-11.377 2.349c-1.178.364-.727 2.229.466 1.869z" fill="#004E63"/><path d="M168.961 232.928a73.292 73.292 0 0112.248-2.98.956.956 0 00.705-1.16.986.986 0 00-1.171-.709 72.542 72.542 0 00-12.248 2.98.968.968 0 00-.643 1.566.962.962 0 001.109.303z" fill="#004E63"/><path d="M164.646 228.705l.177.052.311.09c.227.042.45.106.664.193l.118.034.329.192.499.321.177.051.213.206c.16.16.308.332.443.514l.118.035.208.333.284.564a.935.935 0 00.061.178l.079.28.08.328s.047.335.042.189a2.99 2.99 0 01-.153 1.464l-.077.267s-.181.236-.056.192c.125-.044-.278.24-.178.173l-.248.137c-.172.094 0 0-.144.054l-.188.042-.118-.034-.192-.056c.103.03.088.026 0 0a.983.983 0 00-1.312.326.975.975 0 00.305 1.324 2.835 2.835 0 003.07-.265 3.845 3.845 0 001.416-3.168 6.378 6.378 0 00-1.704-4.122 6.352 6.352 0 00-3.984-1.991.97.97 0 00-.98.952.985.985 0 00.948.981l-.208.164z" fill="#004E63"/><path d="M162.15 228.591a7.064 7.064 0 00-.58 3.267 4.017 4.017 0 001.689 2.625 10.594 10.594 0 002.674 1.321 3.785 3.785 0 003.211-.031c1.077-.619.155-2.299-.921-1.68-.25.141-.542.187-.823.131l-1.019-.296-.965-.425a7.524 7.524 0 01-1.045-.592 1.979 1.979 0 01-.895-1.495 3.433 3.433 0 01.121-1.024c.101-.431.224-.856.369-1.274a.972.972 0 00-.645-1.198 1.006 1.006 0 00-1.201.663l.03.008z" fill="#004E63"/><path d="M166.476 230.457a59.304 59.304 0 00-11.451 4.205c-1.118.543-.182 2.227.922 1.68a58.555 58.555 0 0111-4.031.958.958 0 00.252-1.751.952.952 0 00-.723-.103zm33.581-10.562a4.796 4.796 0 013.078.315 4.811 4.811 0 012.249 2.129c.157.391.243.807.252 1.229.011.407-.069.812-.232 1.185a3.088 3.088 0 01-2.135 1.563 5.43 5.43 0 01-3.813-.817.969.969 0 00-1.377 1.056.974.974 0 00.37.594 7.666 7.666 0 004.847 1.117 5.059 5.059 0 003.532-2.185 5.31 5.31 0 00.501-4.052 5.289 5.289 0 00-2.529-3.198 7.774 7.774 0 00-5.197-.849.941.941 0 00-.336.161.956.956 0 00-.354 1.003.97.97 0 001.157.704l-.013.045z" fill="#004E63"/><path d="M203.331 223.012a150.845 150.845 0 0015.521-3.828c1.174-.349.653-2.25-.482-1.873a148.599 148.599 0 01-15.52 3.828c-1.218.224-.751 2.093.467 1.869l.014.004zm-37.796-7.965a163.94 163.94 0 0013.655 11.65c.998.755 1.991-.899 1.018-1.63a160.43 160.43 0 01-13.264-11.345c-.904-.856-2.294.458-1.409 1.325zm4.351-6.056a14.351 14.351 0 012.61 2.041l2.785 2.542 5.45 5c.909.841 2.303-.488 1.394-1.329l-5.641-5.168a32.72 32.72 0 00-5.536-4.704c-1.085-.62-2.084 1-1.018 1.631l-.044-.013z" fill="#004E63"/><path d="M166.689 214.547c.061-.292.144-.579.249-.858-.065.222 0 0 0 0a.763.763 0 01.056-.193c.155-.257.319-.509.491-.756.03-.104-.038.133 0 0l.164-.177c.204-.219.424-.424.658-.612 0 0 .203-.15.103-.082l.1-.068c.136-.091.277-.173.424-.246.111-.076.231-.138.358-.185l.224-.111c.271-.09.548-.16.829-.209l.203-.038c-.218.034 0 0 .074.022l.486-.02a.986.986 0 00.981-.951.97.97 0 00-.953-.967 6.71 6.71 0 00-6.484 5.021 1 1 0 00.66 1.203.984.984 0 001.186-.667l.191-.106zm-15.39-12.682c1.088.941 2.157 1.893 3.221 2.86l1.525 1.422.753.716c.137.136.292.261.425.412.132.151.096.108.074.022.121.243.162.047.116-.4a.984.984 0 00.304 1.324c.22.125.48.161.726.101s.46-.211.6-.423c.614-.848-.102-1.634-.667-2.28-.566-.645-1.258-1.183-1.849-1.74-1.266-1.154-2.524-2.337-3.82-3.388a1 1 0 00-1.369-.028.973.973 0 00-.026 1.357l-.013.045z" fill="#004E63"/><path d="M151.364 200.871c3.588-.227 7.189-.498 10.776-.886 3.145-.355 6.556-.521 9.337-2.106 1.061-.623.144-2.318-.922-1.68-2.665 1.57-6.102 1.664-9.093 1.984-3.31.372-6.723.602-10.087.83-1.224.078-1.271 2.007-.029 1.918l.018-.06z" fill="#004E63"/><path d="M156.777 207.322a118.905 118.905 0 018.632-4.366 40.595 40.595 0 008.113-4.179l-1.595-.96-1.832 4.99 1.87.286.063-.656a.98.98 0 00-.371-.764.966.966 0 00-.829-.178 24.858 24.858 0 00-7.292 3.502 1.002 1.002 0 00-.378 1.303.964.964 0 001.314.381 23.312 23.312 0 016.822-3.317l-1.195-.957-.048.661c-.087 1.13 1.528 1.245 1.89.275l1.832-4.99c.292-1.007-.895-1.496-1.576-.971a39.813 39.813 0 01-7.945 3.987 116.3 116.3 0 00-8.407 4.254c-1.072.604-.155 2.299.932 1.699z" fill="#004E63"/><path d="M158.129 208.292a31.924 31.924 0 019.727-1.576.956.956 0 00.971-.946.959.959 0 00-.943-.972c-3.47.011-6.918.559-10.222 1.625a.97.97 0 00-.69 1.164.953.953 0 001.157.705z" fill="#004E63"/><path d="M157.091 206.129a30.094 30.094 0 00-1.257 6.65.977.977 0 00.457.779.962.962 0 00.9.064c.114-.064.119-.078 0 0s.118.034 0 0c-.118-.035.118.034 0 0l.207.06.428.124.295.086a8.565 8.565 0 006.016.236.97.97 0 00.59-1.142.965.965 0 00-1.057-.727 6.812 6.812 0 01-3.729.218c-1.182-.343-2.554-1.351-3.79-.57l1.357.843a27.317 27.317 0 011.171-6.08.971.971 0 00-1.846-.536l.258-.005z" fill="#004E63"/><path d="M164.489 213.187a16.876 16.876 0 00-.051-6.612l-.956 1.2c2.379-.132 4.715-.7 6.891-1.677l-1.421-.621a9.072 9.072 0 002.198 4.619c.82.928 2.214-.401 1.395-1.329a7.221 7.221 0 01-1.74-3.715.975.975 0 00-1-.735.97.97 0 00-.426.128 16.976 16.976 0 01-5.895 1.5.963.963 0 00-.762.373.97.97 0 00-.179.831c.363 1.808.377 3.67.041 5.485a1.006 1.006 0 00.664 1.188.953.953 0 001.182-.652l.059.017z" fill="#004E63"/><path d="M163.632 214.046l.346.02-.251-.073c.22.032.433.094.635.184l-.236-.068c.198.091.385.205.558.338l-.195-.153c.166.136.315.292.441.465l-.149-.203c.124.222.327.39.568.469a.933.933 0 00.732-.092.92.92 0 00.454-.575.88.88 0 00-.076-.728 4.108 4.108 0 00-.521-.633 4.984 4.984 0 00-.691-.489 3.554 3.554 0 00-1.595-.463.967.967 0 00-.69.269.97.97 0 00-.29.683.986.986 0 00.948.981l.012.068zm-24.39 43.34a368.595 368.595 0 00-4.132 10.984c-.417 1.163 1.429 1.699 1.846.536a365.846 365.846 0 014.132-10.984c.447-1.155-1.399-1.69-1.846-.536z" fill="#004E63"/><path d="M140.945 257.254a2.356 2.356 0 00-1.572 1.502 2.871 2.871 0 00.093 2.05 4.315 4.315 0 003.327 2.827 3.262 3.262 0 003.215-2.085 4.006 4.006 0 00-.66-3.851 3.33 3.33 0 00-4.047-1.174.96.96 0 00.194 1.761.953.953 0 00.728-.082l.129-.058c-.171.094-.074-.022 0 0l.174-.046c.103.03-.163-.047 0 0l.265.077c.119.034-.177-.052 0 0l.355.103s.177.051 0 0l.177.051.255.17s-.152-.14 0 0l.162.047.229.26c-.132-.151 0-.001.059.129l.161.271.059.13c-.094-.172 0 0 0 0l.075.294s.042.35-.035.119c.017.103.024.207.022.311a.443.443 0 00-.039.133l-.043.148-.025.089-.086.296a.547.547 0 01-.043.148c.112-.112.034-.118 0 0a1.79 1.79 0 00-.175.271c-.039.133.039-.134 0 0l-.136.137-.131.122c.025-.089 0 0 0 0l-.119.078-.133.074c-.115.063.211-.067 0 0l-.313.085c-.104-.03.147.043 0 0l-.133-.038-.178-.052s.192.056 0 0l-.162-.047s-.192-.055 0 0l-.369-.219s-.177-.051 0 0l-.141-.121-.243-.264-.225-.273c-.133-.151 0 0 0 0l-.134-.2a2.507 2.507 0 01-.199-.363.402.402 0 01-.069-.148c.058.129 0 0 0 0l-.05-.159s-.05-.271-.04-.14c.01.131 0 0 0 0l.047-.163c.005-.014-.055.193 0 0l.061-.207c.055-.192 0 0 0 0 .014-.065.032-.13.055-.192 0 0-.178.173 0 0l.115-.064c.157-.098-.159.051 0 0a.972.972 0 00.199-1.705.964.964 0 00-.666-.163l.01.131zm7.752 24.656a7.707 7.707 0 00-2.99 2.969 4.63 4.63 0 00-.703 2.091 2.091 2.091 0 001.136 1.935 3.821 3.821 0 004.007-.732 4.023 4.023 0 001.5-3.738 3.582 3.582 0 00-3.163-3.004.968.968 0 00-.98.952.967.967 0 00.952.966c.177.052 0 0 0 0l.34.099c.133.038-.163-.047 0 0l.325.094.147.043c-.118-.035-.074-.022 0 0 .086.074.164.155.234.244l.088.138.146.267c.08.168 0 0 0 0a.902.902 0 01.063.227c.034.1.057.204.07.309-.037-.203 0 0-.039.133-.02.101-.049.2-.086.297.056-.193 0 0 0 0l-.06.207-.043.148-.098.34c-.035.119-.134.186-.194.281-.06.095.159-.162 0 0l-.14.152a1.821 1.821 0 01-.259.23s-.184.139 0 0l-.142.103-.301.154a.902.902 0 01-.152.084c-.239.107.173-.046 0 0l-.313.086a1.357 1.357 0 00.696-2.622 1.352 1.352 0 00-1.668.897 1.35 1.35 0 00.854 1.69l-.311.023-.148-.043c.222.064 0 0 0 0l-.147-.043c-.207-.06 0 0 0 0l-.133-.039c-.192-.055.133.039 0 0-.133-.038-.099-.157 0 0 .098.157-.059-.129 0 0l.034-.118c.009-.03.056-.192 0 0l.026-.089c.028-.125.064-.249.107-.37l.047-.163c.018-.059-.047.163 0 0l.214-.403c.145-.247.305-.485.478-.712l.03-.104c-.025.089.03-.103.035-.118l.308-.344c.22-.209.452-.399.683-.589.231-.189.146-.118 0 0l.195-.12.428-.261a.973.973 0 00.378-1.302.982.982 0 00-1.315-.382l-.136.137z" fill="#004E63"/><path d="M136.195 279.808l9.31 7.918a.986.986 0 001.369.028.972.972 0 00.025-1.357l-9.31-7.918a.98.98 0 00-1.354-.024.966.966 0 00-.3.669.95.95 0 00.26.684z" fill="#004E63"/><path d="M138.498 279.096l.181-.622a.468.468 0 00.043-.148l.174-.27.175-.271a.457.457 0 01.043-.148l-.022.074a4.4 4.4 0 01.474-.472c.091-.064.176-.136.254-.215-.026.089-.142.103 0 0l.138-.089c.171-.111.362-.216.572-.315.058-.022.114-.048.167-.08 0 0-.163.065 0 0l.332-.096.313-.086s.451-.062.148.043a.94.94 0 00.671-.271.95.95 0 00.31-.681.968.968 0 00-.953-.966 5.845 5.845 0 00-3.194 1.352 5.666 5.666 0 00-1.771 2.793.968.968 0 00.259 1.124.965.965 0 001.149.08.983.983 0 00.438-.669l.099-.067z" fill="#004E63"/><path d="M141.178 275.379a75.871 75.871 0 008.93 8.401.966.966 0 001.326-.321.984.984 0 00-.304-1.324 71.406 71.406 0 01-8.562-8.07c-.834-.932-2.214.401-1.39 1.314zm3.597-13.997l-4.261 8.395a.973.973 0 00.304 1.324.964.964 0 00.725.123.946.946 0 00.597-.43l4.275-8.39a.967.967 0 00.059-.697.965.965 0 00-1.111-.681.976.976 0 00-.593.371l.005-.015z" fill="#004E63"/><path d="M135.407 269.387a6.709 6.709 0 006.011 1.744.974.974 0 00.199-1.706.964.964 0 00-.666-.163l-.338.062c-.103-.03-.103-.03 0 0l-.169.031-.594.005-.325-.095-.162-.047-.576-.167-.576-.167c-.118-.034-.118-.034 0 0l-.162-.047-.325-.094a4.166 4.166 0 01-.514-.326l-.148-.043c.089.026.089.026 0 0l-.252-.233a.967.967 0 00-1.282.048.974.974 0 00-.113 1.28l-.008-.082zm-8.648-19.748c.905 4.388 1.828 8.765 2.748 13.157.256 1.213 2.107.739 1.865-.47-.919-4.392-1.843-8.769-2.747-13.157-.256-1.214-2.122-.744-1.866.47z" fill="#004E63"/><path d="M126.574 249.89a3.225 3.225 0 004.037 1.926 6.726 6.726 0 002.313-1.352c.77-.611 1.675-1.359 1.419-2.461a1.973 1.973 0 00-1.019-1.291 3.497 3.497 0 00-1.855-.281.968.968 0 00-.893.952.97.97 0 00.86.98c.236-.021.473-.027.71-.018l.236.068c-.133-.038 0 0 0 0s-.147-.043 0 0c.148.043.074.022 0 0-.073-.021.074.022 0 0 .01.244.06-.207 0 0a.263.263 0 01.052-.177c-.03.103-.03.103 0 0a5.754 5.754 0 01-.828.755l-.269.21a5.24 5.24 0 01-.494.323 3.537 3.537 0 01-.525.265l-.074-.022-.279.08s-.298.09 0 0a.449.449 0 01-.192-.056l-.251-.073c-.221-.064.192.056 0 0l-.458-.133-.088-.025-.222-.065c-.192-.055.133.151 0 0-.132-.15-.151-.14-.164-.208l.067.1-.077-.119-.048-.11c.048.11.058.129 0 0a.972.972 0 00-1.554-.601.971.971 0 00-.316 1.086l-.088.247z" fill="#004E63"/><path d="M128.808 248.484c.266-.42.521-.86.827-1.253l-.167.192c.109-.129.233-.243.371-.341l-.199.135a.93.93 0 01.267-.148l-.235.093c.104-.044.215-.072.327-.082l-.232.029c.127-.014.255-.009.38.014l-.251-.073.369.107-.251-.073c.119.048.229.112.329.192l-.196-.153.223.225-.149-.204.136.249-.096-.221c.034.079.059.161.073.246l-.024-.248c.002.111-.004.222-.017.332l.069-.236a1.352 1.352 0 01-.099.34l.069-.237c-.05.112-.113.218-.188.315l.153-.196c-.072.08-.152.154-.239.219l.199-.135a1.353 1.353 0 01-.263.133l.231-.078a1.072 1.072 0 01-.256.054l.247-.024c-.248.01-.485.105-.671.271a.975.975 0 00-.225 1.041.97.97 0 00.864.621 2.13 2.13 0 001.015-.3c.296-.189.548-.439.741-.732a2.207 2.207 0 00.26-1.834 2.321 2.321 0 00-2.441-1.537 2.314 2.314 0 00-.973.337 6.165 6.165 0 00-1.545 1.96.955.955 0 00.04 1.064.949.949 0 001.336.213.953.953 0 00.254-.275l-.063-.002zm4.266.692a142.463 142.463 0 002.497 14.625c.271 1.218 2.137.748 1.866-.47a146.267 146.267 0 01-2.512-14.629.955.955 0 10-1.851.474z" fill="#004E63"/><path d="M129.82 264.861a5.916 5.916 0 007.584-.753.971.971 0 00-.665-1.583.97.97 0 00-.66.187l-.291.285-.174.158-.025.089-.026.089-.176.109-.377.196-.148.069c-.239.107.178-.061 0 0l-.389.128-.377.083-.237.044c-.251-.073-.534.021-.802.008l-.192-.056s-.281-.081 0 0l-.384-.111-.562-.163c-.103-.03-.147-.043 0 0a4.056 4.056 0 01-.747-.458.973.973 0 00-1.327.322 1.002 1.002 0 00.32 1.328l-.345.029z" fill="#004E63"/><path d="M124.761 258.513a35.675 35.675 0 005.335 6.171.967.967 0 001.282-.049.97.97 0 00.112-1.28 34.081 34.081 0 01-5.051-5.768.958.958 0 10-1.678.926z" fill="#004E63"/><path d="M125.426 256.829a5.655 5.655 0 00-4.315 1.958 3.907 3.907 0 00-.369 4.307.984.984 0 001.314.381.975.975 0 00.378-1.303 1.682 1.682 0 01-.184-.358c.086.201 0 0 0 0l.039-.133s-.031-.282 0 0l.051-.178c.018-.059.073-.252.019-.396-.054-.144-.043.148 0 0a.983.983 0 00.056-.192l.056-.193a8.852 8.852 0 01.06-.207c.028-.072.05-.146.064-.222l.043-.148s.192-.218 0 0c.035-.119.187-.203.295-.3.053-.052.109-.1.17-.143.026-.089-.114.063 0 0 .24-.159.494-.295.758-.406l.074.021.174-.046.467-.121.218-.033.118.034.118.035.262-.021a.945.945 0 00.893-.58.961.961 0 00-.5-1.26.952.952 0 00-.365-.078l.106-.418z" fill="#004E63"/><path d="M120.308 262.438l4.226 5.576a.967.967 0 001.58-.668.97.97 0 00-.185-.661l-4.227-5.576a.965.965 0 00-1.364-.043 1.008 1.008 0 00-.03 1.372z" fill="#004E63"/><path d="M125.364 267.805a17.794 17.794 0 017.249-2.086.975.975 0 00.892-.953.969.969 0 00-.859-.98c-2.87.185-5.669.975-8.214 2.32a.963.963 0 00-.538.967.977.977 0 00.367.669.974.974 0 00.737.196.984.984 0 00.366-.133zm19.712-7.571l-.523.587c-.573.652-.104 1.96.901 1.642a209.99 209.99 0 0121.105-5.803.969.969 0 00.7-.79.967.967 0 00-.432-.962 1.901 1.901 0 00-1.774-.065c-1.146.47-.209 2.154.932 1.699l-.148-.043.268-1.752a213.505 213.505 0 00-21.135 5.906l.89 1.623.508-.591c.811-.92-.509-2.331-1.309-1.391l.017-.06z" fill="#004E63"/><path d="M165.801 257.066a9.65 9.65 0 013.939 5.958 12.38 12.38 0 01.173 4.095 12.987 12.987 0 01-.429 2.139c-.069.237-.285 1.426-.533 1.45-1.178.365-.726 2.229.467 1.869 1.578-.473 1.937-2.648 2.205-4.015.358-1.759.401-3.568.125-5.341a11.647 11.647 0 00-4.913-7.845c-1.034-.686-2.054 1.009-1.017 1.631l-.017.059z" fill="#004E63"/><path d="M169.305 270.426a187.136 187.136 0 01-24.988 6.827c-1.222.239-.756 2.108.467 1.869a185.15 185.15 0 0024.992-6.842c1.158-.403.662-2.28-.471-1.854z" fill="#004E63"/><path d="M161.447 259.269a14.653 14.653 0 012.476 5.646 7.373 7.373 0 01-.876 6.167.972.972 0 00.319 1.328.983.983 0 001.326-.321c1.658-2.072 1.604-4.976 1.123-7.459a16.71 16.71 0 00-2.974-6.69.967.967 0 00-1.58.668.975.975 0 00.186.661zm-35.998 9.123c3.205-1.221 5.513 1.969 6.193 4.702.397 1.526.48 3.117.244 4.677a11.91 11.91 0 01-.653 2.251c-.103.355-.206.71-.423 1.017l-.317.598-.06.207c-.224.256-.136.282.265.077l.573.455-.089-.026c-.677-1.031-2.37-.109-1.677.926.692 1.036 1.832.692 2.441-.191.555-.883.988-1.837 1.287-2.836.723-2.193.895-4.531.501-6.805a9.807 9.807 0 00-2.846-5.641 5.844 5.844 0 00-5.873-1.335 1.005 1.005 0 00-.709 1.175.958.958 0 00.441.595.95.95 0 00.734.099l-.032.055z" fill="#004E63"/><path d="M124.371 266.314a7.077 7.077 0 00-2.351 4.903.975.975 0 00.272.687.976.976 0 00.676.295 1.002 1.002 0 00.981-.952c.021-.1.05-.199.086-.296l.034-.118c.026-.174.075-.343.146-.504.042-.201.1-.399.172-.592l.064-.222c.022-.074.026-.089 0 0-.025.089.026-.089.039-.133a6.55 6.55 0 01.605-.981c.025-.088.06-.207 0 0 .062-.082.132-.159.21-.227.14-.152.291-.285.445-.433a.97.97 0 00-1.324-1.395l-.055-.032zm-.134 13.54a9.757 9.757 0 002.305 2.707 3.985 3.985 0 003.337.695.958.958 0 00.69-1.164.971.971 0 00-1.157-.705l-.323.067c.217-.033-.118-.034-.148-.043a5.476 5.476 0 01-.148-.043l-.635-.184c.163.047 0 0 0 0a3.902 3.902 0 01-.568-.358c-.104-.03-.104-.03 0 0l-.163-.047-.263-.253-.418-.49-.128-.166-.206-.284-.413-.617a.981.981 0 00-1.299-.377.948.948 0 00-.46.572.965.965 0 00.082.73l-.085-.04z" fill="#004E63"/><path d="M120.611 273.537a3.57 3.57 0 00-.517 3.269 5.345 5.345 0 002.083 2.643 3.548 3.548 0 003.414.541 3.088 3.088 0 001.726-2.581 4.106 4.106 0 00-1.382-3.242.952.952 0 00-.694-.39.962.962 0 00-.752.264.967.967 0 00-.302.74.98.98 0 00.354.715c.132.122.254.254.366.395a.266.266 0 01.103.03l.172.29a.667.667 0 01.111.225s.075.183 0 0c-.075-.182 0 0 0 0l.073.246.035.155c.021-.074.026-.089 0 0l-.064.222-.035.118c-.034.119.047-.163 0 0l-.094.326c-.052.178.025-.089 0 0l-.065.222s-.195.232-.021.074l-.159.163-.026.088c-.03.104.171-.094 0 0l-.206.101c.149-.069 0 0 0 0s-.162-.047 0 0l-.118-.034-.133-.039a2.45 2.45 0 01-.561-.162c-.103-.03 0 0 0 0l-.162-.048-.274-.159a3.977 3.977 0 01-.48-.332l-.089-.026-.248-.248a.665.665 0 01-.168-.194l-.122-.131s.078.119 0 0a5.855 5.855 0 01-.308-.539l-.048-.11c-.021.074 0 0 0 0l-.077-.344s.039-.133 0 0c-.038.134 0 0 .026-.088a2.299 2.299 0 01.006-.352l.035-.118.098-.341s.043-.148 0 0l.035-.118c.059-.103.126-.201.198-.296a.946.946 0 00-.035-1.058.96.96 0 00-.997-.368.971.971 0 00-.599.423l-.099.068z" fill="#004E63"/><path d="M122.415 273.498l.31.09.177.052.284.179.148.042.074.022.136.136.238.229c.056.095.122.184.195.266l-.077-.119.088.025.088.138c.118.188.222.385.31.588.09.187-.071-.197 0 0l.05.159c.04.104.073.21.1.318l.062.339-.026.089.034-.119-.043.148c.013.238.002.477-.03.713a.95.95 0 00.578.905.961.961 0 00.733.01.936.936 0 00.308-.204c.178-.184.288-.425.309-.681a5.228 5.228 0 00-.816-3.316 5.203 5.203 0 00-2.688-2.098.966.966 0 00-1.316.621.986.986 0 00.112.791.957.957 0 00.667.438l-.005.239z" fill="#004E63"/><path d="M124.107 272.079c.296.086-.133-.038.163.048l.502.145.162.047.468.264c.129.078.247.172.352.279.517.455.9 1.043 1.107 1.702a5.338 5.338 0 01-.993 4.527l1.597.014-.155-.35a.984.984 0 00-1.314-.381 1 1 0 00-.383 1.317l.174.339a.978.978 0 00.819.487.985.985 0 00.848-.436 7.087 7.087 0 001.16-6.261 5.412 5.412 0 00-4.506-3.731.972.972 0 00-.032 1.933l.031.057zm.872 11.232c-.045.91.095 1.818.41 2.671a3.064 3.064 0 001.942 1.752 6.07 6.07 0 002.719-.158 5.872 5.872 0 002.378-1.076.979.979 0 00.339-1.102.956.956 0 00-.95-.649.983.983 0 00-.714.355l-.214.131-.186.09-.148.07-.163.065-.193.056-.448.111a4.735 4.735 0 01-1.773.208.593.593 0 01-.222-.065l-.177-.051c.147.043 0 0 0 0l-.162-.159c.074.021 0 0 0 0a3.349 3.349 0 01-.216-.416 1.787 1.787 0 00-.068-.261l-.05-.271s.043-.148 0 0c-.023-.36-.028-.73-.018-1.097a.984.984 0 00-.952-.966.973.973 0 00-.981.951l-.153-.189z" fill="#004E63"/><path d="M133.336 281.161a41.05 41.05 0 00-3.87 4.896.961.961 0 00.048 1.063.946.946 0 00.276.251.982.982 0 001.321-.307 34.09 34.09 0 013.55-4.508.975.975 0 00.04-1.352.981.981 0 00-1.365-.043z" fill="#004E63"/><path d="M132.822 281.445a279.411 279.411 0 012.523 14.151c.188 1.226 2.058.741 1.865-.47a396.753 396.753 0 00-2.523-14.151c-.241-1.21-2.107-.74-1.865.47zm7.356.914a180.983 180.983 0 011.452 7.356c.222 1.22.43 2.436.633 3.667l.285 1.832c.052.32.092.621.148.926.056.305.043.349.074.519.031.169.057.353.118.034l1.083-.424.665.69-.474 1.083c1.134-.49.202-2.189-.922-1.68a.953.953 0 00-.47 1.067 1.027 1.027 0 00.732.79.965.965 0 001.098-.419c.374-.518.154-1.192.063-1.764-.09-.572-.215-1.411-.334-2.103a157.755 157.755 0 00-.653-3.93 178.806 178.806 0 00-1.566-8.014c-.271-1.218-2.136-.748-1.865.47l-.067-.1z" fill="#004E63"/><path d="M136.336 297.585a5.577 5.577 0 003.687 1.346 5.602 5.602 0 003.666-1.411.973.973 0 00.04-1.353.982.982 0 00-1.365-.043l-.297.251c.03-.104 0 0 0 0l-.157.099a2.16 2.16 0 01-.328.194l-.144.054c-.224.112.178-.061 0 0a5.14 5.14 0 01-.698.199l-.199.022c-.173.046.089.026 0 0l-.374.02a5.923 5.923 0 01-.741-.038 4.34 4.34 0 00-.192-.056l-.369-.107-.369-.107-.222-.064-.284-.179-.177-.052c-.192-.055.133.039 0 0a.984.984 0 00-1.354-.023.95.95 0 00-.239 1.036.954.954 0 00.198.316l-.082-.104zm36.405-29.565c-.402 4.971-.814 9.924-1.216 14.896-.098 1.223 1.83 1.253 1.933.015.398-4.957.8-9.929 1.212-14.881.088-1.243-1.826-1.268-1.929-.03zm19.41 2.743l-.968 13.105c-.089 1.242 1.825 1.268 1.928.03l.954-13.11c.088-1.242-1.826-1.268-1.914-.025z" fill="#004E63"/><path d="M172.847 284.599a24.173 24.173 0 009.847 3.033c1.698.134 3.406.091 5.096-.126 1.336-.19 3.502-.316 4.168-1.728.527-1.099-1.114-2.121-1.631-1.003-.252.537-1.321.58-1.799.682-.693.133-1.393.224-2.097.274a22.09 22.09 0 01-4.256-.063 21.477 21.477 0 01-8.281-2.691c-1.075-.601-2.069 1.005-1.007 1.65l-.04-.028z" fill="#004E63"/><path d="M173.552 287.356a12.478 12.478 0 0011.861 3.265c1.301-.345 3.474-.935 3.37-2.618-.009-1.239-1.938-1.268-1.914-.026-.052.178-1.076.507-1.273.578a13.21 13.21 0 01-1.605.401 10.52 10.52 0 01-9.03-2.925.966.966 0 00-1.282.049.974.974 0 00-.112 1.28l-.015-.004z" fill="#004E63"/><path d="M170.943 287.353c-.337 2.262 1.755 3.607 3.433 4.72a17.727 17.727 0 006.971 2.905c2.208.396 4.482.185 6.581-.61 1.808-.712 4.108-2.018 3.731-4.359-.219-1.235-2.088-.75-1.866.47.222 1.22-2.829 2.245-3.726 2.466-1.557.382-3.178.41-4.747.083a15.737 15.737 0 01-5.058-2.045 20.782 20.782 0 01-2.226-1.545c-.406-.31-1.326-.946-1.159-1.524.192-1.212-1.65-1.762-1.846-.535l-.088-.026z" fill="#004E63"/><path d="M188.551 288.69c.218.213.418.443.601.688l-.149-.204c.306.434.563.902.764 1.393l-.092-.235c.149.376.256.768.318 1.168.072.24.229.445.441.577a.944.944 0 00.735.117.99.99 0 00.694-1.179 6.933 6.933 0 00-1.918-3.654.962.962 0 00-1.099-.339.977.977 0 00-.649.953.978.978 0 00.354.715zm-15.916-2.756a4.502 4.502 0 00-1.282.832c-.38.35-.695.764-.931 1.223-.125.225-.162.49-.103.74a.93.93 0 00.422.588.955.955 0 001.326-.321 4.09 4.09 0 01.413-.651l-.153.197c.195-.241.419-.456.666-.642l-.203.15c.237-.177.499-.317.777-.417a.983.983 0 00.382-1.317.967.967 0 00-.587-.46l-.236-.068a1.074 1.074 0 00-.482.117l-.009.029z" fill="#004E63"/><path d="M170.414 288.901a123.359 123.359 0 01-.97 17.856c-.148 1.226 1.766 1.251 1.928.03a124.848 124.848 0 00.955-17.86c-.028-1.228-1.937-1.269-1.913-.026zm19.643 1.221a568.419 568.419 0 01-2.585 21.271c-.163 1.221 1.751 1.247 1.928.03a580.974 580.974 0 002.571-21.276c.132-1.229-1.801-1.245-1.914-.025z" fill="#004E63"/><path d="M171.827 309.247a21.036 21.036 0 009.754 3.52c1.707.176 3.429.136 5.126-.118 1.558-.238 3.383-.624 3.538-2.537.133-1.229-1.8-1.245-1.933-.015-.065.72-3.249.823-3.788.859-1.36.079-2.724.006-4.067-.217a18.707 18.707 0 01-7.64-3.083c-1.029-.7-2.039 1.014-1.007 1.65l.017-.059z" fill="#004E63"/><path d="M168.883 309.516a6.456 6.456 0 001.316 7.22 13.814 13.814 0 007.964 3.675c5.033.754 12.555-.451 14.598-5.893.433-1.159-1.413-1.694-1.846-.536-1.57 4.199-7.865 5.038-11.731 4.622a14.093 14.093 0 01-6.358-2.149c-1.859-1.262-3.369-3.674-2.312-5.936.531-1.114-1.099-2.117-1.631-1.003z" fill="#004E63"/><path d="M189.27 311.595c.13.214.25.409.361.634l.159.335.064.163c.082.224.149.453.202.685.029.123.052.247.068.373l-.043.148a7.44 7.44 0 01-.017 1.439c-.052.178 0 0 0 0a.587.587 0 00-.048.163 3.189 3.189 0 01-.107.37 6.399 6.399 0 01-.215.741.957.957 0 00.65 1.183.996.996 0 001.196-.648 7.492 7.492 0 00-.718-6.629.984.984 0 00-1.3-.377.964.964 0 00-.459.573.96.96 0 00.081.73l.126.117z" fill="#004E63"/><path d="M190.306 314.319l-1.195 15.704a326.634 326.634 0 01-.619 7.654l-.267 3.678-.133 1.839c-.032.441.092 2.001-.286 2.309l1.173-.125-.192-.056a.97.97 0 00-1.403 1.047.967.967 0 00.382.599l.206.06a1.004 1.004 0 001.159-.129c.774-.627.719-1.541.791-2.451l.316-4.291c.206-2.861.431-5.733.636-8.595l1.284-17.171c.099-1.224-1.83-1.253-1.918-.011l.066-.061zm-23.107-3.302a427.381 427.381 0 01-3.478 34.063c-.162 1.221 1.756 1.231 1.933.015a457.53 457.53 0 003.478-34.063c.069-1.232-1.845-1.257-1.933-.015z" fill="#004E63"/><path d="M165.155 345.93a17.78 17.78 0 0011.912 5.146 17.824 17.824 0 0012.248-4.316c.937-.804-.387-2.199-1.324-1.396a15.883 15.883 0 01-10.883 3.798 15.848 15.848 0 01-10.573-4.565c-.886-.867-2.28.462-1.395 1.329l.015.004z" fill="#004E63"/><path d="M165.065 346.738a8.572 8.572 0 001.85 5.818 13.838 13.838 0 005.588 4.029.978.978 0 00.797-.014.952.952 0 00.325-.248.986.986 0 00.082-1.151.971.971 0 00-.667-.438c-3.184-1.389-6.386-4.148-6.047-7.966a.952.952 0 00-.948-.981.981.981 0 00-.98.951zm19.814 1.351c.783 4.144-3.182 7.102-6.23 8.947-1.056.656-.134 2.336.932 1.698a19.473 19.473 0 005.457-4.516 8.406 8.406 0 001.706-6.599c-.237-1.224-2.107-.74-1.865.47z" fill="#004E63"/><path d="M170.312 357.072a9.34 9.34 0 009.881.876c1.107-.561.186-2.241-.922-1.68a7.492 7.492 0 01-7.956-.831.957.957 0 00-1.432 1.041.962.962 0 00.429.594z" fill="#004E63"/><path d="M169.196 357.278a405.901 405.901 0 01-1.941 22.967c-.132 1.23 1.786 1.241 1.918.011a419.645 419.645 0 001.956-22.963c.069-1.232-1.86-1.262-1.933-.015zm3.762-.385c2.967.768 6.099.595 8.966-.496a.987.987 0 00.694-1.179.945.945 0 00-1.16-.69 13.118 13.118 0 01-7.963.515c-1.181-.343-1.731 1.552-.537 1.85z" fill="#004E63"/><path d="M168.117 354.043a11.702 11.702 0 001.411 3.139c.124.222.327.39.568.469a.933.933 0 00.732-.092.91.91 0 00.454-.575.876.876 0 00-.076-.728 11.307 11.307 0 01-.959-1.883l.096.22c-.14-.346-.25-.683-.356-1.034a.97.97 0 00-.422-.588 1.01 1.01 0 00-.735-.117.985.985 0 00-.709 1.175l-.004.014zm10.875 2.803c-.349 6.02-.702 12.022-1.062 18.006-.073 1.247 1.845 1.258 1.914.026.362-5.995.716-11.997 1.062-18.006.084-1.228-1.845-1.258-1.914-.026z" fill="#004E63"/><path d="M168.713 374.89a8.195 8.195 0 006.319 2.668 6.043 6.043 0 003.228-.973c.538-.35.958-.855 1.205-1.448a1.15 1.15 0 00.035-.518 1.147 1.147 0 00-1.076-.972.958.958 0 00-.937.691c-.348 1.199 1.542 1.748 1.846.536l-.937.691-.679-.309-.121-.244v-.498l-.022.074-.034.119a2.1 2.1 0 01-.333.32 3.54 3.54 0 01-.923.423c-.734.197-1.5.248-2.253.149a6.306 6.306 0 01-3.894-2.029c-.835-.932-2.218.416-1.395 1.329l-.029-.009z" fill="#004E63"/><path d="M169.828 375.294l-.968 9.462-.491 4.673c-.109 1.092-.765 3.133.848 3.312a.954.954 0 00.937-.691l.026-.089a.984.984 0 00-.421-1.085l-.074-.022c-1.098-.575-2.098.997-1.018 1.631l.074.022-.407-1.081-.026.088.942-.706-.089-.025.832.498c.124.292.181-.622.211-.726l.099-.95.207-2.091.414-4.021c.287-2.72.547-5.453.778-8.201.133-1.229-1.8-1.244-1.933-.015l.059.017zm5.856.624c-.317 2.637-.634 5.274-.94 7.929a53.545 53.545 0 00-.745 7.81c.039 1.247 1.967 1.277 1.929.03.038-2.623.262-5.24.671-7.831.316-2.637.633-5.274.935-7.915.147-1.225-1.766-1.251-1.914-.025l.064.002z" fill="#004E63"/><path d="M168.983 392.336a4.606 4.606 0 003.266 1.453 4.614 4.614 0 003.324-1.323.998.998 0 00.03-1.371.933.933 0 00-.672-.295.961.961 0 00-.682.271l-.244.234-.127.108c-.166.128.176-.11 0 0l-.305.168-.134.073-.073-.021.073.021c.074.022-.245.074-.298.091l-.343.077-.132-.039c.118.034.147.043.073.022l-.073-.022-.355.01-.325-.095s-.178-.051 0 0c.177.052 0 0 0 0l-.473-.137-.325-.094c-.015-.004.222.064 0 0l-.147-.043-.31-.202s-.207-.06 0 0l-.259-.268a.951.951 0 00-1.349-.038.957.957 0 00-.041 1.352l-.099.068z" fill="#004E63"/><path d="M169.081 393.488l-.885 23.082a.969.969 0 001.929.029l.826-23.098a.971.971 0 00-.95-.893.97.97 0 00-.979.863l.059.017z" fill="#004E63"/><path d="M171.706 393.768a144.784 144.784 0 01-3.272 21.265c-.344 1.184 1.572 1.756 1.846.536a149.211 149.211 0 003.354-21.771c.103-1.238-1.83-1.254-1.928-.03zm.507-148.485c-3.176 1.952-5.818 5.374-5.336 9.286.482 3.912 4.309 7.222 7.902 8.858 8.478 3.888 17.891 1.354 25.386-3.453 1.04-.662.123-2.356-.922-1.68-6.251 3.997-13.811 6.49-21.157 4.327-3.396-.986-7.109-3.09-8.747-6.439-1.71-3.706.696-7.31 3.796-9.219 1.051-.642.133-2.337-.922-1.68z" fill="#004E63"/><path d="M195.499 246.421a16.762 16.762 0 014.958 6.254 8.771 8.771 0 011.01 3.969 2.46 2.46 0 01-1.814 2.443.964.964 0 00-.68.272.962.962 0 00-.223 1.042.943.943 0 00.51.526c.115.05.24.076.365.078a4.112 4.112 0 003.51-2.882 7.718 7.718 0 00-.497-5.184 18.917 18.917 0 00-6.124-8.197.966.966 0 00-1.25.367.974.974 0 00.243 1.283l-.008.029zm-21.969-2.698a21.215 21.215 0 00-7.038 3.785c-2.091 1.688-4.032 3.966-3.586 6.84a.955.955 0 001.161.69.972.972 0 00.705-1.16c-.317-2.162 1.889-4.026 3.396-5.194a18.598 18.598 0 015.882-3.109c1.178-.364.657-2.265-.467-1.869l-.053.017z" fill="#004E63"/><path d="M195.318 245.887a24.177 24.177 0 015.854 3.994 16.479 16.479 0 014.184 5.499c1.578 3.941-1.811 9.555-5.92 10.305-1.218.225-.747 2.079.467 1.869 4.799-.871 8.663-6.957 7.614-11.675a14.882 14.882 0 00-4.228-6.62 26.12 26.12 0 00-6.964-5.022c-1.107-.546-2.114 1.104-1.007 1.65z" fill="#004E63"/><path d="M171.094 266.081c8.345 7.606 20.129 5.84 29.959 2.529 1.173-.398.662-2.28-.466-1.869-9.05 2.992-20.309 5.103-28.098-1.989-.913-.826-2.322.498-1.395 1.329zm30.049-18.969l4.868-1.493a1.003 1.003 0 00.709-1.175.986.986 0 00-1.176-.694l-4.868 1.493a.972.972 0 00.467 1.869z" fill="#004E63"/><path d="M188.602 231.675l13.968 12.56c.912.826 2.321-.498 1.394-1.329l-13.968-12.56c-.913-.827-2.307.502-1.394 1.329zm-13.682 5.934a117.638 117.638 0 00-1.473 13.409c-.055 1.236 1.874 1.266 1.929.03.206-4.325.67-8.633 1.39-12.903a1.006 1.006 0 00-.645-1.199.974.974 0 00-1.201.663z" fill="#004E63"/><path d="M173.646 251.766c3.598 2.28 8.115 3.044 12.302 3.569 1.782.294 3.606.211 5.354-.244a4.3 4.3 0 002.269-1.252 1.368 1.368 0 00.247-1.139 1.343 1.343 0 00-.725-.91c-1.105-.497-2.123 1.134-1.003 1.635.058-.641-.085-.811-.439-.529a3.805 3.805 0 01-.551.242c-.264.084-.529.168-.803.232a10.39 10.39 0 01-2.013.203 22.445 22.445 0 01-4.214-.484 25.628 25.628 0 01-9.408-3.003.969.969 0 00-1.376 1.057.97.97 0 00.369.593l-.009.03z" fill="#004E63"/><path d="M193.008 237.512a87.945 87.945 0 01-.839 13.93.97.97 0 00.952.966.982.982 0 00.981-.951c.649-4.609.928-9.262.835-13.915-.024-1.243-1.952-1.273-1.929-.03z" fill="#004E63"/><path d="M176.316 238.095a43.337 43.337 0 009.936 2.674c3.099.353 6.831.184 8.225-3.023.492-1.141-1.359-1.662-1.846-.535-.487 1.126-2.069 1.614-3.248 1.705-1.444.101-2.894.02-4.317-.241a49.625 49.625 0 01-8.226-2.386c-1.181-.343-1.697 1.433-.537 1.85l.013-.044z" fill="#004E63"/><path d="M177.612 234.234a44.448 44.448 0 009.25 2.17c2.671.229 5.686.044 7.753-1.892a.97.97 0 00-1.324-1.395c-1.804 1.691-4.681 1.563-6.974 1.299a45.137 45.137 0 01-8.168-2.033.975.975 0 00-1.028 1.373.97.97 0 00.491.478z" fill="#004E63"/><path d="M178.094 229.703a16.256 16.256 0 00-3.814 8.62.962.962 0 00.264.683.961.961 0 00.67.294 1.003 1.003 0 00.98-.951 14.092 14.092 0 013.21-7.255 1.004 1.004 0 00.044-1.368.963.963 0 00-1.354-.023zm15.512.118a171.208 171.208 0 0016.024 12.209c1.029.7 2.053-1.009 1.002-1.635a169.088 169.088 0 01-15.631-11.903c-.937-.801-2.331.528-1.395 1.329z" fill="#004E63"/><path d="M190.305 230.548c.078.119.099.157.089.026-.01-.131 0 0 0 0s-.056.192 0 0 0 0-.021.074a.662.662 0 00.047-.163l-.026.089a.45.45 0 00.043-.148s-.14.152-.022.074a.927.927 0 00.147-.118s-.172.095 0 0c.171-.095.201-.086.281-.143-.175.109-.073-.021 0 0l.104.03.342-.077.148.043-.103-.03.088.025.341-.013a3.35 3.35 0 01.678.036c.118.034-.237-.069 0 0l.841.244.133.039a1.001 1.001 0 001.326-.322.973.973 0 00-.319-1.328 5.585 5.585 0 00-3.902-.458 2.724 2.724 0 00-1.699 1.112c-.189.319-.294.68-.305 1.051.012.426.17.835.449 1.157a.964.964 0 001.349.039 1.005 1.005 0 00.045-1.368l-.054.129zm-56.977-91.954a334.614 334.614 0 0144.402-5.753c1.224-.078 1.271-2.007.032-1.933a344.482 344.482 0 00-44.915 5.813c-1.222.239-.756 2.108.466 1.869l.015.004zm8.089 2.25a431.832 431.832 0 0144.153-5.776c1.227-.094 1.275-2.022.032-1.933a431.944 431.944 0 00-44.686 5.959c-1.214.21-.747 2.079.471 1.854l.03-.104zm63.866-13.571a1037.562 1037.562 0 0049.076-4.204c1.226-.142 1.259-2.075.033-1.933a1012.464 1012.464 0 01-49.076 4.204c-1.224.078-1.271 2.007-.033 1.933zm2.647 4.892a600.744 600.744 0 0146.796-7.161c1.222-.127 1.254-2.06.033-1.933a637.145 637.145 0 00-47.295 7.225c-1.208.244-.737 2.098.466 1.869zm-4.314 7.144a295.946 295.946 0 0129.316 15.616.948.948 0 00.724.115.972.972 0 00.593-.431.966.966 0 00-.04-1.065.948.948 0 00-.274-.254 291.71 291.71 0 00-29.312-15.631c-1.115-.517-2.137 1.129-1.007 1.65z" fill="#004E63"/><path d="M204.502 132.005a634.778 634.778 0 0038.321 20.396c1.091.541 2.109-1.09 1.002-1.635a647.178 647.178 0 01-38.316-20.411.969.969 0 00-1.376 1.057.97.97 0 00.369.593zm-53.041-22.082a372.369 372.369 0 0131.229 18.402.964.964 0 001.251-.367c.126-.206.171-.452.126-.689a.972.972 0 00-.369-.594 370.88 370.88 0 00-31.234-18.387c-1.083-.571-2.084 1-1.003 1.635zm2.894-4.072a114.725 114.725 0 0016.252 8.937c2.816 1.331 5.637 2.647 8.431 4.051a22.435 22.435 0 016.835 4.808c.819.928 2.214-.401 1.394-1.329-3.822-4.319-9.892-6.465-15.029-8.903a116.153 116.153 0 01-16.857-9.224c-1.029-.7-2.039 1.013-1.007 1.65l-.019.01z" fill="#004E63"/><path d="M173.986 115.174c4.59-1.253 9.335-.502 13.97.137a.973.973 0 00.965-.956.989.989 0 00-.276-.682.989.989 0 00-.672-.3c-4.777-.695-9.69-1.366-14.395-.051-1.184.331-.733 2.195.467 1.869l-.059-.017zm-8.316.188c-8.663-3.252-18.173-2.592-27.107-.385-8.934 2.207-17.577 5.398-24.649 10.954-.988.757.351 2.157 1.324 1.396 6.877-5.325 15.428-8.365 23.85-10.464 8.423-2.099 17.639-2.796 26.059.354 1.156.431 1.693-1.419.537-1.851l-.014-.004zm42.521 1.888a163.007 163.007 0 0126.772 5.953.97.97 0 00.537-1.85 167.444 167.444 0 00-27.268-6.066c-1.218-.161-1.232 1.762-.032 1.933l-.009.03zm40.944 9.696a44.696 44.696 0 0125.645 16.461c.754.989 2.148-.34 1.409-1.325a46.418 46.418 0 00-26.458-16.97c-1.181-.342-1.735 1.567-.537 1.851l-.059-.017z" fill="#004E63"/><path d="M112.834 113.098a10.808 10.808 0 00-3.177 8.468 8.257 8.257 0 004.35 6.527c1.107.546 2.124-1.085 1.018-1.631a6.456 6.456 0 01-3.479-5.118 8.893 8.893 0 012.598-6.855c.851-.892-.459-2.283-1.31-1.391z" fill="#004E63"/><path d="M113.633 114.758c4.363-3.116 9.621-4.849 14.68-6.447a117.337 117.337 0 0115.11-3.738 118.956 118.956 0 0131.464-1.336c1.221.097 1.249-1.821.018-1.937a119.987 119.987 0 00-47.376 5.243c-5.087 1.638-10.431 3.394-14.813 6.521-1.009.718-.092 2.413.917 1.694z" fill="#004E63"/><path d="M174.607 103.156c5.024.286 10.043.811 15.019 1.596l-.664-1.187-.125.429a.974.974 0 00.139.672.964.964 0 001.23.357.971.971 0 00.477-.493l.125-.43a.969.969 0 00-.072-.735.956.956 0 00-.573-.463c-5.147-.803-10.324-1.39-15.528-1.664-1.24-.087-1.272 1.846-.028 1.918zm32.705 3.935a132.13 132.13 0 0175.634 24.946c1.007.725 2.014-.925 1.007-1.65a133.996 133.996 0 00-76.609-25.229.972.972 0 00-.032 1.933z" fill="#004E63"/><path d="M280.451 129.82a26.448 26.448 0 01-2.009 8.582c-.723 1.717-1.993 4.992-4.199 5.202-1.212.146-1.259 2.075-.033 1.933 2.951-.348 4.489-3.112 5.616-5.562a29.044 29.044 0 002.571-10.184c.069-1.232-1.845-1.258-1.933-.015l-.013.044zM108.21 109.831c4.966-3.375 10.763-5.144 16.54-6.678a202.361 202.361 0 0118.888-4.07 191.584 191.584 0 0119.307-2.2c6.725-.44 13.635-.859 20.227.7 1.181.343 1.75-1.562.537-1.85-6.683-1.522-13.589-1.23-20.391-.796a201.23 201.23 0 00-19.459 2.171 197.963 197.963 0 00-19.576 4.176c-5.916 1.574-11.893 3.355-16.994 6.867-1.02.699-.102 2.394.921 1.68zm102.222-10.406a179.759 179.759 0 0140.274 7.207c11.78 3.546 23.513 8.523 32.437 17.276.881.881 2.275-.448 1.39-1.314-9.01-8.842-20.713-14.035-32.64-17.624a182.113 182.113 0 00-41.492-7.48c-1.239-.087-1.257 1.85-.028 1.918l.059.017zm-14.706-16.803a16.892 16.892 0 00-5.716.83 9.724 9.724 0 00-4.787 2.704c-2.123 3.011 4.263 5.394 6.275 5.962a38.532 38.532 0 0012.592.748c4.577-.267 9.135-.81 13.648-1.626 1.214-.21.748-2.079-.466-1.869a85.264 85.264 0 01-20.779 1.644 21.884 21.884 0 01-4.747-.8 9.712 9.712 0 01-4.634-2.404c-.632-.857.843-1.36 1.497-1.684a14.427 14.427 0 012.108-.865 15.117 15.117 0 014.998-.669.969.969 0 00.892-.953.971.971 0 00-.86-.98l-.021-.038z" fill="#004E63"/><path d="M202.779 85.134c2.794.15 5.54.79 8.114 1.888 1.138.398 2.202.984 3.148 1.732.277.257.588.62.502 1.029-.087.408-.138.473-.475.424a.97.97 0 00-.981.951.984.984 0 00.953.966 2.4 2.4 0 002.281-1.543c.117-.306.171-.632.158-.959-.028-1.613-1.49-2.647-2.762-3.337a26.078 26.078 0 00-10.919-3.04c-1.229-.068-1.257 1.85-.028 1.918l.009-.03zm-97.009 61.419c29.509 23.008 67.31 31.343 104.064 32.247 10.665.27 21.327-.056 31.971-.708 1.219-.063 1.267-1.992.028-1.918-36.856 2.373-75.049.409-109.044-15.361a133.803 133.803 0 01-26.07-15.878c-.978-.766-1.971.888-1.007 1.65l.058-.032zm139.828 30.939a92.398 92.398 0 0036.195-14.715c1.015-.685.098-2.38-.922-1.68a91.34 91.34 0 01-35.774 14.644c-1.218.225-.747 2.079.467 1.869l.034-.118z" fill="#004E63"/><path d="M84.417 126.169a223.144 223.144 0 00115.803 39.858c1.233.052 1.261-1.865.017-1.937a220.909 220.909 0 01-114.834-39.497c-1.01-.711-2.04 1.013-1.003 1.635l.017-.059z" fill="#004E63"/><path d="M85.472 125.239a8.42 8.42 0 01-3.465-3.509 32.545 32.545 0 01-2.39-4.674 13.22 13.22 0 01-.367-10.492c.516-1.118-1.11-2.136-1.645-1.007a15.114 15.114 0 00.034 11.968 32.837 32.837 0 002.687 5.306 10.014 10.014 0 004.067 4.085c1.11.531 2.132-1.115 1.002-1.635l.077-.042z" fill="#004E63"/><path d="M79.415 106.548c17.904-13.425 40.889-15.776 62.426-17.826 1.218-.112 1.265-2.041.033-1.933-22.133 2.118-45.41 4.593-63.797 18.408-.998.737.341 2.137 1.325 1.395l.013-.044z" fill="#004E63"/><path d="M141.999 88.51a23.188 23.188 0 016.317 6.536.966.966 0 001.258.28.973.973 0 00.424-1.22 25.261 25.261 0 00-6.982-7.227.944.944 0 00-.73-.118.946.946 0 00-.596.44.959.959 0 00.309 1.31zm-11.092 1.533c3.646 2.663 7.241 5.392 10.743 8.221a.968.968 0 001.326-.321 1.003 1.003 0 00-.319-1.329 260.551 260.551 0 00-10.743-8.22c-.992-.722-1.999.928-1.007 1.65z" fill="#004E63"/><path d="M134.157 89.879a273.33 273.33 0 008.911 7.914.982.982 0 001.354.024.957.957 0 00.04-1.353 222.883 222.883 0 01-8.911-7.914c-.909-.842-2.299.472-1.394 1.329zm-12.109.291l11.42 9.974c.917.812 2.326-.513 1.39-1.314l-11.416-9.99c-.921-.797-2.326.513-1.394 1.33z" fill="#004E63"/><path d="M119.423 92.153a55.41 55.41 0 0010.285 6.547.998.998 0 001.326-.322.972.972 0 00-.323-1.313 54.994 54.994 0 01-10.266-6.558.944.944 0 00-.73-.119.954.954 0 00-.596.44.988.988 0 00.304 1.324zm-8.205 1.407c3.846 2.03 7.619 4.2 11.324 6.496a.972.972 0 001.276-.347.976.976 0 00-.254-1.299 223.92 223.92 0 00-11.339-6.5c-1.098-.575-2.084 1-1.007 1.65z" fill="#004E63"/><path d="M108.204 94.291a182.004 182.004 0 0012.432 6.817c1.092.542 2.113-1.104 1.007-1.65a148.492 148.492 0 01-12.432-6.817.967.967 0 00-1.251.368.977.977 0 00.244 1.282zm-5.94 2.482l12.488 6.239c1.106.546 2.124-1.085 1.022-1.645l-12.503-6.244c-1.106-.546-2.124 1.085-1.007 1.65z" fill="#004E63"/><path d="M96.95 97.045a335.374 335.374 0 0114.402 5.543c1.148.461 1.67-1.394.537-1.851a336.94 336.94 0 00-14.402-5.543c-1.16-.417-1.697 1.434-.537 1.85zm-5.9 1.9a105.53 105.53 0 0015.876 5.986.968.968 0 001.082-.689.968.968 0 00-.545-1.161 101.14 101.14 0 01-15.42-5.79c-1.1-.512-2.118 1.119-1.007 1.65l.015.004z" fill="#004E63"/><path d="M90.14 100.928a73.468 73.468 0 0118.416 5.118c1.143.476 1.665-1.379.537-1.85a75.293 75.293 0 00-18.921-5.2c-1.218-.162-1.246 1.756-.033 1.932zm-6.695 2.488a63.887 63.887 0 0013.99 4.701c1.208.254 1.75-1.612.538-1.851a60.289 60.289 0 01-13.52-4.5c-1.101-.512-2.118 1.119-1.008 1.65zm-4.908 4.226l20.281 5.643a.966.966 0 001.082-.689.971.971 0 00-.545-1.162l-20.281-5.643a.966.966 0 00-1.082.689.972.972 0 00.545 1.162zm-.585 6.763c7.088.76 14.126 1.928 21.08 3.5 1.202.269 1.754-1.578.536-1.851a187.63 187.63 0 00-21.603-3.571c-1.227-.131-1.245 1.806-.018 1.937l.005-.015zm3.324 5.925a110.9 110.9 0 0016.603 2.762c1.23.116 1.259-1.802.028-1.918a110.11 110.11 0 01-16.094-2.695c-1.181-.343-1.75 1.563-.537 1.851zm5.957 6.399c4.417.564 8.871.784 13.323.655 1.23-.044 1.258-1.962.013-1.922a86.79 86.79 0 01-13.308-.651.97.97 0 00-.98.951.988.988 0 00.947.982l.005-.015zm8.387 4.921a55.02 55.02 0 007.806.355 1.003 1.003 0 00.981-.952.987.987 0 00-.949-.981 51.81 51.81 0 01-7.806-.355.98.98 0 00-.748.237.968.968 0 00-.254 1.108.978.978 0 00.572.537.959.959 0 00.398.051zm14.972 6.672a22.97 22.97 0 016.371.115.996.996 0 001.196-.648.971.971 0 00-.659-1.203 25.857 25.857 0 00-7.36-.129.975.975 0 00-.705 1.16 1 1 0 001.171.709l-.014-.004zm-2.735-31.082a17.672 17.672 0 00-6.857 8.845 7.384 7.384 0 00.194 5.401 13.947 13.947 0 003.291 4.165c.885.867 2.279-.462 1.394-1.329a13.829 13.829 0 01-2.788-3.249 5.527 5.527 0 01-.24-4.692 15.575 15.575 0 015.837-7.423c1.004-.704.087-2.399-.922-1.68l.091-.038z" fill="#004E63"/><path d="M105.891 130.409c4.442 4.499 10.768 6.094 16.504 8.287 6.788 2.596 13.503 5.443 20.407 7.751 13.767 4.588 28.2 6.384 42.53 7.925 1.227.132 1.26-1.801.033-1.932-13.974-1.503-27.944-3.293-41.341-7.613-6.448-2.111-12.706-4.713-19.034-7.127-5.97-2.326-13.107-3.883-17.747-8.584-.867-.878-2.261.451-1.395 1.329l.043-.036zm85.042 24.801a204.675 204.675 0 0027.577 1.966c8.614.22 17.275.277 25.743-1.536 1.211-.258.745-2.127-.467-1.868-8.298 1.781-16.805 1.689-25.244 1.471a200.292 200.292 0 01-27.072-1.883c-1.195-.186-1.746 1.66-.537 1.85z" fill="#004E63"/><path d="M117.476 130.817c5.082 4.556 11.583 7.148 17.94 9.298a201.33 201.33 0 0021.269 5.609c14.54 3.191 29.256 5.502 43.967 7.828 1.195.187 1.747-1.66.537-1.85-14.207-2.244-28.433-4.478-42.49-7.513-6.92-1.478-13.836-3.083-20.582-5.217-6.745-2.133-13.897-4.69-19.247-9.484-.913-.827-2.322.498-1.394 1.329z" fill="#004E63"/><path d="M274.083 144.376a129.532 129.532 0 01-17.308 3.309c-6.38.91-12.771 1.731-19.174 2.463-11.863 1.373-23.899 2.408-35.763.587-1.209-.191-1.765 1.67-.537 1.85 12.052 1.892 24.211.877 36.282-.5a731.637 731.637 0 0018.923-2.423 136.034 136.034 0 0018.043-3.417c1.189-.345.649-2.235-.466-1.869z" fill="#004E63"/><path d="M291.831 135.85c-1.225 9.74-12.826 11.703-20.58 13.21l-28.957 5.659c-1.203.229-.736 2.098.467 1.869 10.812-2.112 21.621-4.16 32.42-6.34 7.974-1.603 17.47-5.027 18.579-14.368.151-1.24-1.782-1.256-1.929-.03z" fill="#004E63"/><path d="M286.229 125.91c3.219 3.198 6.471 7.111 6.287 11.937-.054 1.236 1.86 1.262 1.914.025.222-5.344-3.228-9.732-6.828-13.216-.881-.882-2.276.447-1.39 1.314l.017-.06zm-68.245-34.856a28.64 28.64 0 00-4.983 7.96.971.971 0 00.645 1.199 1 1 0 001.201-.663 25.596 25.596 0 014.466-7.115 1.007 1.007 0 00.03-1.372.947.947 0 00-.672-.294.951.951 0 00-.682.27l-.005.015zm9.631.965a73.562 73.562 0 00-4.497 7.555.974.974 0 00.304 1.324.948.948 0 001.066-.031.959.959 0 00.256-.275 73.81 73.81 0 014.502-7.57.96.96 0 00-.664-1.449.956.956 0 00-.967.446z" fill="#004E63"/><path d="M218.328 92.246c2.977.295 5.921.86 8.797 1.685a.97.97 0 00.537-1.85 53.7 53.7 0 00-9.302-1.768.973.973 0 00-.651 1.61.965.965 0 00.619.323zm12.994.848l-3.457 4.246c-.572.7-1.158 1.398-1.715 2.103a1.128 1.128 0 00.058 1.622 1.06 1.06 0 001.566-.268.961.961 0 00.026-.972c-.601-1.073-2.293-.152-1.677.926l.025-.972.587-.423.735.117.437.592.026-.089-.005.512c-.056.193-.056.193 0 0l.149-.181.344-.414.572-.7 1.296-1.6a86.71 86.71 0 002.512-3.139.97.97 0 00-1.325-1.395l-.154.035z" fill="#004E63"/><path d="M233.904 94.79c2.636-.055 5.238.59 7.544 1.868.562.323 1.601-.001 1.468-.81l-.065.222-.352.331.021-.074-1.154-1.539a42.982 42.982 0 01-5.492 5.244.975.975 0 00-.045 1.368 1 1 0 001.369.028 42.955 42.955 0 005.492-5.245 1.004 1.004 0 00.112-1.268.953.953 0 00-1.233-.277 1.267 1.267 0 00-.66 1.173l1.468-.81a16.876 16.876 0 00-8.529-2.17c-1.225.03-1.273 1.959-.018 1.938l.074.021zm11.541.508a62.68 62.68 0 01-7.22 6.509.97.97 0 00-.045 1.367 1.014 1.014 0 001.369.028 61.642 61.642 0 007.22-6.509c.852-.892-.468-2.302-1.324-1.395z" fill="#004E63"/><path d="M246.046 97.366l4.513 1.55c.753.219 1.451.517 2.23.76a2.038 2.038 0 001.991-.242l-1.324-1.395a27.952 27.952 0 01-6.406 4.915c-1.086.6-.154 2.299.917 1.695a29.045 29.045 0 006.813-5.215.976.976 0 00.127-1.45.962.962 0 00-1.133-.2.967.967 0 00-.318.255.336.336 0 01.224-.111l-.31-.09-.975-.283-1.923-.655-3.902-1.34a.954.954 0 00-1.099 1.381c.12.223.321.391.562.47l.013-.045zm13.95 1.913a18.823 18.823 0 00-4.354 2.316l-4.401 2.752a.985.985 0 00-.382 1.318.966.966 0 001.299.377l4.287-2.689a33.43 33.43 0 001.975-1.289 8.76 8.76 0 011.88-.963 1.005 1.005 0 00.709-1.175.966.966 0 00-1.175-.694l.162.047z" fill="#004E63"/><path d="M259.35 100.68a34.97 34.97 0 007.391 3.22l-.19-1.773-9.671 4.803c-1.108.561-.186 2.241.917 1.694l9.675-4.817a.971.971 0 00-.19-1.772 33.193 33.193 0 01-6.925-3.005.957.957 0 00-1.433 1.041.958.958 0 00.43.594l-.004.015zm1.061 9.201a49.632 49.632 0 0111.827-5.06c1.185-.331.718-2.199-.467-1.869a51.95 51.95 0 00-12.277 5.234c-1.066.638-.149 2.332.917 1.695z" fill="#004E63"/><path d="M271.013 105.123c2.89 1.079 6.014.3 8.815 1.515a.972.972 0 00.537-1.851c-2.846-1.227-5.985-.452-8.815-1.514a.987.987 0 00-1.201.663.973.973 0 00.664 1.187z" fill="#004E63"/><path d="M277.49 105.317l-11.41 4.892a.948.948 0 00-.46.573.96.96 0 00.082.73.965.965 0 001.3.377l11.409-4.892a.97.97 0 00.378-1.303.982.982 0 00-1.299-.377zm-6.715 7.249a44.57 44.57 0 0112.641-3.282.972.972 0 00.893-.581.946.946 0 00-.192-1.047.943.943 0 00-.673-.29 47.293 47.293 0 00-13.586 3.506.96.96 0 00-.469.578.947.947 0 00.087.739.998.998 0 001.299.377z" fill="#004E63"/><path d="M283.57 108.751a66.942 66.942 0 0124.402 12.521 20.993 20.993 0 017.081 9.422 10.803 10.803 0 01-2.525 11.241c-.931.837.408 2.237 1.325 1.396a12.223 12.223 0 003.564-10.796 19.213 19.213 0 00-6.241-10.992c-7.394-7.073-17.364-11.892-27.069-14.643a.97.97 0 00-.537 1.851zm-78.737 58.646a200.434 200.434 0 0044.995-1.616c14.47-2.029 29.324-4.718 43.178-9.478a67.906 67.906 0 0020.151-10.574c.973-.761-.366-2.161-1.324-1.395-10.951 8.604-24.678 12.101-38.01 15.119a272.128 272.128 0 01-43.891 6.366c-8.344.446-16.707.326-25.033-.361-1.231-.116-1.263 1.817-.028 1.918l-.038.021z" fill="#004E63"/><path d="M276.006 116.171c4.761-2.118 10.119-2.265 14.899-4.393 1.139-.504.203-2.188-.921-1.68-4.761 2.118-10.12 2.265-14.896 4.378-1.138.504-.202 2.188.918 1.695z" fill="#004E63"/><path d="M277.123 117.618a81.936 81.936 0 0113.15-3.937c1.208-.243.741-2.112-.471-1.854a80.355 80.355 0 00-13.146 3.923 1.02 1.02 0 00-.709 1.174.971.971 0 001.176.694zm8.243 1.83a140.181 140.181 0 0112.153-3.536.973.973 0 00.2-1.706.966.966 0 00-.666-.163 127.212 127.212 0 00-12.228 3.515.98.98 0 00-.823 1.201.959.959 0 00.887.732.954.954 0 00.403-.064l.074.021z" fill="#004E63"/><path d="M284.54 121.135a90.705 90.705 0 0116.251-3.311 1.003 1.003 0 00.981-.952.97.97 0 00-.949-.981 93.253 93.253 0 00-16.758 3.404c-1.189.346-.722 2.214.471 1.854l.004-.014zm4.43 3.548a163.867 163.867 0 0117.426-3.387c1.22-.175.754-2.044-.466-1.868a161.69 161.69 0 00-17.39 3.429.973.973 0 00-.2 1.706.966.966 0 00.666.163l-.036-.043z" fill="#004E63"/><path d="M289.718 125.526a129.873 129.873 0 0116.242-2.174c1.227-.093 1.275-2.021.032-1.932a136.549 136.549 0 00-16.666 2.259c-1.222.239-.741 2.112.466 1.869l-.074-.022zm2.415 4.151a280.005 280.005 0 0120.261-1.296c1.225-.03 1.273-1.958.028-1.918-6.759.174-13.517.621-20.257 1.282-1.222.127-1.254 2.059-.032 1.932z" fill="#004E63"/><path d="M293.682 128.971a115.375 115.375 0 0115.938-2.342c1.213-.097 1.26-2.026.018-1.937a121.518 121.518 0 00-16.437 2.406c-1.201.278-.735 2.146.481 1.873zm.2 5.163c5.92-.54 11.85-.837 17.79-.89a.972.972 0 00.032-1.933 221.19 221.19 0 00-17.864.868c-1.217.113-1.264 2.041-.032 1.933l.074.022zm.602 3.112a89.211 89.211 0 0121.485 1.274c1.201.22 1.753-1.627.537-1.851a91.766 91.766 0 00-22.041-1.291c-1.238.075-1.271 2.007-.032 1.933l.051-.065zm-2.014 5.338a74.506 74.506 0 0116.51 1.757c1.203.268 1.74-1.582.537-1.851a76.384 76.384 0 00-17.077-1.841.957.957 0 00-.971.946.956.956 0 00.942.972l.059.017zm-3.194 3.728a134.143 134.143 0 0117.173 2.286c1.196.235 1.748-1.611.537-1.85a138.946 138.946 0 00-17.691-2.324c-1.225-.082-1.257 1.85-.032 1.933l.013-.045zm-7.326 3.508c5.08.977 10.206 1.742 15.351 2.271 1.242.136 1.255-1.786.029-1.917a176.365 176.365 0 01-14.829-2.2c-1.197-.235-1.748 1.611-.537 1.851l-.014-.005zm-8.193 2.134a39.035 39.035 0 007.096 2.363l7.472 2.168a.966.966 0 001.082-.689.973.973 0 00-.545-1.161l-7.192-2.087a39.352 39.352 0 01-6.91-2.229c-1.087-.557-2.109 1.089-1.003 1.635zm-11.443 2.908a220.336 220.336 0 018.68 3.69.98.98 0 001.322-.307.972.972 0 00-.319-1.328 223.854 223.854 0 00-9.146-3.906.972.972 0 00-1.196.648 1.004 1.004 0 00.659 1.203zm-78.447-1.011a118.51 118.51 0 01-6.491 6.864.972.972 0 00.664 1.583.97.97 0 00.66-.187c2.241-2.207 4.496-4.458 6.491-6.865a.97.97 0 00-1.324-1.395z" fill="#004E63"/><path d="M184.712 155.188l-2.17 7.476a1.006 1.006 0 00.665 1.188.955.955 0 001.181-.652c.619-2.518 1.315-5.028 2.17-7.477a.971.971 0 00-1.369-1.029.97.97 0 00-.477.494zm15.994 2.538c-.398 2.147-.783 4.299-1.181 6.446a.987.987 0 00.659 1.203.97.97 0 001.187-.667c.398-2.148.783-4.299 1.181-6.447a1 1 0 00-.659-1.202.974.974 0 00-1.187.667z" fill="#004E63"/><path d="M202.3 157.144a26.445 26.445 0 002.739 7.889.968.968 0 001.701-.25.971.971 0 00-.02-.69 24.3 24.3 0 01-2.554-7.419.976.976 0 00-.432-.594.958.958 0 00-.725-.11.987.987 0 00-.709 1.174zm-33.551-5.047a32.808 32.808 0 01-5.831 5.033 1.002 1.002 0 00-.378 1.303.964.964 0 001.314.381 35.415 35.415 0 006.278-5.305.984.984 0 00.03-1.372.945.945 0 00-.672-.294.945.945 0 00-.682.271l-.059-.017z" fill="#004E63"/><path d="M166.678 152.556a55.882 55.882 0 00-9.715 4.901.988.988 0 00-.383 1.318.968.968 0 001.3.377 53.457 53.457 0 019.265-4.727.989.989 0 00.705-1.16.966.966 0 00-1.172-.709zm-17.022-3.302l-5.456 2.526a.97.97 0 00-.378 1.303.995.995 0 001.315.381l5.529-2.504a.971.971 0 00-.936-1.685l-.074-.021z" fill="#004E63"/><path d="M147.453 149.289a49.546 49.546 0 01-7.374 2.29.99.99 0 00-.694 1.179.952.952 0 001.161.69 50.486 50.486 0 007.824-2.465.972.972 0 00.382-1.317.998.998 0 00-1.299-.377zm-18.171-.393a108.803 108.803 0 019.58-1.618.963.963 0 00.586-.439.962.962 0 00.104-.725.985.985 0 00-1.156-.705c-3.223.403-6.417.942-9.58 1.619-1.212.258-.745 2.127.466 1.868z" fill="#004E63"/><path d="M126.402 148.173a98.666 98.666 0 0111.46-1.313c1.239-.075 1.267-1.993.033-1.933-4.006.216-7.997.666-11.951 1.348-1.214.209-.747 2.078.466 1.869l-.008.029zm-7.367-5.235l8.049-.152c1.241-.026 1.273-1.958.033-1.933l-8.054.167c-1.24.026-1.273 1.958-.028 1.918zm96.999 16.04a23.351 23.351 0 005.971 6.018.983.983 0 001.326-.321 1.005 1.005 0 00-.319-1.329 20.413 20.413 0 01-5.282-5.304 1.015 1.015 0 00-1.314-.382.988.988 0 00-.382 1.318zm3.73.055a111.83 111.83 0 007.298 6.082.969.969 0 001.322-.307.99.99 0 00-.32-1.328 115.232 115.232 0 01-6.906-5.776.962.962 0 00-.649-.218.96.96 0 00-.632.267.97.97 0 00-.113 1.28zm15.947.662c.837.775 1.63 1.594 2.378 2.455a31.161 31.161 0 012.052 2.586.964.964 0 001.671.207.975.975 0 00.01-1.147 36.084 36.084 0 00-4.717-5.43.963.963 0 00-1.281.048.97.97 0 00-.113 1.281z" fill="#004E63"/><path d="M236.885 160.726l5.28 3.378a.961.961 0 001.063-.042.953.953 0 00.384-.626.956.956 0 00-.444-.967l-5.28-3.378a.954.954 0 00-1.425 1.035.969.969 0 00.422.6zm14.128-1.567a4.363 4.363 0 012.04.913c.651.461 1.323.961 1.957 1.37a16.285 16.285 0 004.554 1.851c1.181.343 1.735-1.567.537-1.851a14.149 14.149 0 01-4.533-1.925 9.833 9.833 0 00-4.523-2.291.972.972 0 00-.032 1.933z" fill="#004E63"/><path d="M254.217 160.089c2.569.585 5.12 1.229 7.662 1.902a.968.968 0 001.082-.689.97.97 0 00-.545-1.162c-2.525-.732-5.094-1.317-7.662-1.901a.991.991 0 00-.723.1c-.22.124-.385.326-.463.567a.952.952 0 00.649 1.183zm-67.957-25.912c5.377 2.603 12.253 5.336 17.758 1.428.99-.708.073-2.402-.936-1.684-4.918 3.485-11.013.93-15.819-1.379-1.111-.531-2.114 1.104-1.007 1.65l.004-.015z" fill="#004E63"/><path d="M187.057 131.487a2.931 2.931 0 00-.043 1.913c.049.181.129.351.239.503.138.22.315.413.523.569.226.18.493.302.778.354.168.042.34.059.513.053a2.16 2.16 0 00.738-.171c.333-.15.602-.413.76-.743.077-.158.126-.328.146-.503.045-.27.049-.545.012-.815a2.391 2.391 0 00-1.346-1.707 5.87 5.87 0 00-1.077-.425.933.933 0 00-.732.093.906.906 0 00-.455.574.936.936 0 00.077.729c.127.218.331.381.573.455.25.056.496.128.738.214l-.251-.073c.189.085.367.191.533.315l-.191-.168.269.287-.149-.204.157.287-.092-.236c.036.112.061.227.076.343l-.024-.247c.01.09.01.182.001.273l.069-.237c-.016.081-.039.16-.069.237l.073-.252c-.013.071-.033.14-.06.207l.153-.196-.136.137.204-.149-.172.094.22-.096-.211.067.251-.04a.921.921 0 01-.287-.003l.251.073-.295-.086.236.069a1.09 1.09 0 01-.255-.17l.192.168-.183-.198.149.204a.83.83 0 01-.157-.287l.077.231a2.12 2.12 0 01-.089-.411l.024.248a3.093 3.093 0 01.009-.527l-.069.237.138-.474a.92.92 0 00-.077-.728 1.042 1.042 0 00-.568-.47.998.998 0 00-1.201.663l.01.019z" fill="#004E63"/><path d="M191.279 131.78a1.626 1.626 0 00-1.203.502c-.308.344-.496.78-.536 1.241-.009.475.153.937.455 1.303.288.337.666.585 1.088.717.399.127.822.162 1.236.102a2.1 2.1 0 00.77-.226c.267-.14.497-.344.668-.593.165-.261.252-.564.254-.873a1.554 1.554 0 00-.163-.818 2.013 2.013 0 00-1.107-.931 1.661 1.661 0 00-.458-.133 3.342 3.342 0 00-.669-.065 2.388 2.388 0 00-.87.181c-.21.091-.398.229-.549.402a1.02 1.02 0 00-.294.685.985.985 0 00.948.981.984.984 0 00.671-.27c.047-.054.099-.104.155-.148l-.185.139.187-.09-.235.092a.79.79 0 01.275-.065l-.248.025c.153-.016.308-.009.459.021l-.251-.073c.184.021.364.073.531.154l-.236-.069.303.169-.195-.153.147.155-.135-.2.08.168-.092-.236a.624.624 0 01-.039.134l-.024-.248a.78.78 0 01-.051.177l.073-.251-.052.177.073-.251c-.013.071-.033.14-.06.207l.153-.196a1.134 1.134 0 01-.155.147l.199-.134-.228.126.235-.093c-.11.043-.226.069-.343.078l.247-.025c-.17.016-.341.014-.511-.004l.251.073a2.658 2.658 0 01-.472-.137l.251.073a1.28 1.28 0 01-.354-.215l.191.168-.193-.217.138.185-.125-.229.092.235-.042-.189.024.248c.015-.076.037-.15.065-.222l-.069.237.069-.237-.073.252a.863.863 0 01.147-.231l-.168.193.131-.123-.184.139a.978.978 0 01.152-.084l-.234.093.154-.036-.247.025.088.025a.966.966 0 00.686-.274.976.976 0 00.295-.677 1.003 1.003 0 00-.948-.981l.057-.032z" fill="#004E63"/><path d="M194.197 132.482c-.544.35-.948.881-1.14 1.499-.087.347-.076.712.031 1.053.076.229.193.443.346.63.155.169.347.301.56.387.403.155.841.193 1.265.11a1.724 1.724 0 001.068-.701c.076-.153.124-.319.142-.489.078-.163.129-.338.15-.518a2.094 2.094 0 00-.276-.979 2.417 2.417 0 00-.89-.852 6.064 6.064 0 00-.984-.414.971.971 0 00-.728.078 1.048 1.048 0 00-.473.585.936.936 0 00.091.733c.132.214.335.375.573.455l.531.154-.251-.073c.181.076.351.174.508.292l-.196-.153c.095.07.178.154.248.248l-.149-.204.122.244-.092-.235c.039.082.062.17.068.261l-.024-.248c-.014.081-.037.16-.069.237l.069-.237a.505.505 0 01-.06.207l.069-.237a.293.293 0 01-.043.148l.153-.196a.665.665 0 01-.113.112l.204-.15-.153.084.231-.077-.241.058.251-.039-.369.005.251.073-.222-.065.237.069-.178-.051.196.153-.111-.113.134.2-.08-.168.092.235a1.23 1.23 0 01-.052-.207l.025.248a1.255 1.255 0 01-.001-.274l-.073.252a.953.953 0 01.081-.281l-.068.237c.03-.104.06-.208.198-.296l-.168.192c.182-.213.393-.401.626-.557a.98.98 0 00.299-.699.97.97 0 00-.581-.889.954.954 0 00-.372-.078l-.247.025a.943.943 0 00-.424.246l.009-.03z" fill="#004E63"/><path d="M197.186 132.611a1.945 1.945 0 00-1.938 1.492 2.263 2.263 0 00.927 2.324 2.744 2.744 0 002.633.138 1.96 1.96 0 00.967-1.068 1.878 1.878 0 00-.148-1.423 2.592 2.592 0 00-2.417-1.327c-.248.01-.485.105-.671.27a.954.954 0 00-.294.685c-.002.255.092.5.265.687a.949.949 0 00.683.295l.399.003-.236-.068c.148.019.293.06.428.124l-.251-.073a1.4 1.4 0 01.379.238l-.177-.163.244.263-.149-.204c.065.097.122.199.168.306l-.092-.235c.024.067.041.136.052.207l-.024-.248a.992.992 0 01-.056.193l.073-.252a.516.516 0 01-.06.207l.073-.251a.799.799 0 01-.056.192l.153-.196a.665.665 0 01-.193.169l.203-.15a.928.928 0 01-.267.147l.235-.092a1.962 1.962 0 01-.433.115l.251-.04a2.35 2.35 0 01-.496.001l.251.073-.458-.133.236.068a1.468 1.468 0 01-.309-.202l.191.168-.218-.24.138.185-.157-.286.092.235a2.648 2.648 0 01-.085-.314l.039.252a.913.913 0 01.077-.266l-.069.237.065-.222-.073.251c.016-.086.04-.17.073-.251l-.149.181a.95.95 0 01.197-.183l-.203.149.233-.141-.22.097.222-.048-.247.025.132.038a.97.97 0 00.981-.951.99.99 0 00-.283-.675.988.988 0 00-.669-.292l.038-.021zm3.23-13.284c.134-.186 0 0 0 0-.06.054-.115.113-.164.177l-.352.331a4.64 4.64 0 00-.773.899 2.492 2.492 0 00-.322 1.994 3.069 3.069 0 002.839 2.188 3.408 3.408 0 003.074-2.319 3.886 3.886 0 00-.476-3.878 2.602 2.602 0 00-2.088-1.023 2.308 2.308 0 00-2.066 1.215.973.973 0 00.304 1.324.966.966 0 001.326-.322l.052-.177c.043-.148-.021.074 0 0l.03-.104c.14-.152-.182.076 0 0l.114-.063s-.192.056 0 0l.189-.042c.173-.046-.178-.051 0 0l.133.039c.177.051-.148-.043 0 0l.28.081s-.221-.064 0 0c.058 0 .114.017.163.047l.147.155c.162.16-.063-.114 0 0l.098.157.074.134-.022.074c-.054-.144 0 0 0 0l-.034.118.041.189c.043.237.03-.104-.021.074l.015.277s.016.278-.09.311c-.106.034.056-.192 0 0l-.056.193c-.024.11-.055.219-.094.325l-.022.075-.021.074-.082.281a.468.468 0 00-.043.148c-.034.118 0 0 0 0s-.206.213-.248.249a.422.422 0 01-.127.107s.156-.099 0 0l-.272.162s-.124.045-.144.055l-.169.031c-.192.057.192.056 0 0s-.236-.068-.302-.007c-.066.061.237.068.074.021l-.295-.085c-.118-.035 0 0 .074.021a1.883 1.883 0 00-.274-.16c-.148-.043.021-.074 0 0l-.104-.03a1.503 1.503 0 01-.208-.221c-.103-.03 0 0 0 0l-.077-.118-.059-.13c-.098-.157.056.193 0 0a1.293 1.293 0 00-.064-.275c.084.152-.039.133 0 0l-.026.089.039-.134c.06-.143.142-.276.242-.395 0 0-.121.142 0 0l.164-.177c.108-.097.216-.194.31-.295.269-.248.514-.521.733-.815a.946.946 0 00-.035-1.058.924.924 0 00-.274-.251.98.98 0 00-1.322.306l.211.158zm2.636-47.275a2.065 2.065 0 00-.384.386 2.87 2.87 0 00-.438.627 2.745 2.745 0 00-.43 1.48 2.22 2.22 0 001.874 2.15c.564.129 1.156.05 1.666-.224a2.284 2.284 0 001.035-1.305 2.39 2.39 0 00.028-1.42 2.216 2.216 0 00-.98-1.312 2.41 2.41 0 00-1.748-.266 2.34 2.34 0 00-1.456.99.96.96 0 00-.111.724.962.962 0 00.434.59.983.983 0 001.322-.307l.034-.118-.153.196a1.01 1.01 0 01.225-.224l-.203.15c.098-.07.206-.124.319-.164l-.23.078a1.44 1.44 0 01.376-.084l-.247.025.41.022-.237-.068.37.107-.251-.073.273.16-.155-.126c.073.06.139.128.197.202l-.197-.202c.066.091.124.189.172.29l-.097-.22c.046.117.075.238.087.363l-.024-.248c.012.138.01.277-.008.415l.069-.237a1.004 1.004 0 01-.103.355l.068-.237a1.283 1.283 0 01-.179.285l.149-.181-.201.198.188-.154a1.422 1.422 0 01-.267.148l.231-.078a1.443 1.443 0 01-.376.084l.247-.025-.38-.014.251.073-.399-.116.251.073a1.207 1.207 0 01-.299-.183l.191.168a1.155 1.155 0 01-.222-.225l.153.189a1.167 1.167 0 01-.172-.291l.092.235a2.502 2.502 0 01-.098-.381l.039.252a1.205 1.205 0 01.009-.415l-.069.237a3.11 3.11 0 01.15-.518l-.073.251c.089-.189.2-.367.33-.53l-.168.192c.121-.14.255-.267.399-.382a.937.937 0 00.243-1.037.925.925 0 00-.202-.315.963.963 0 00-.679-.31l-.252.04a.938.938 0 00-.434.227l.04.028zm20.627-.019a2.31 2.31 0 00-1.751 2.285 2.45 2.45 0 001.729 2.428 3.224 3.224 0 003.073-.714 2.378 2.378 0 00.826-1.799 2.495 2.495 0 00-.731-1.672 2.933 2.933 0 00-1.93-.8 4.52 4.52 0 00-2.045.481.964.964 0 00-.459.573.96.96 0 00.081.73.982.982 0 001.3.377s.154-.035.163-.065c.008-.03-.178.06 0 0l.283-.094.29-.06s.133.038.169-.032l-.088-.026.073.022.288.003.177.051-.089-.026.251.073c.178.052-.236-.068 0 0l.133.039.118.034c.119.035-.172-.178 0 0l.173.179c.122.131-.114-.162 0 0l.063.114.062.115-.043-.125-.022.074-.026.089c.046.173.065-.223 0 0l-.025.088c-.026.09-.043.148 0 0a.378.378 0 00-.035.119c-.056.192.065-.222 0 0l-.034.118-.03.104c-.009.03.043-.148 0 0a1.338 1.338 0 01-.217.194l-.025.089c.197-.184.104-.082 0 0l-.21.115-.095.053c-.163.065.235-.092 0 0s-.29.06-.449.11c.26-.068.133.04 0 0l-.088-.025-.266-.077c.331.016 0 0 0 0l-.133-.039.118.035-.221-.065c-.104-.03-.103-.142 0 0l-.119-.034-.073-.021c-.089-.026.14.233.067.1l-.095-.172c-.069-.149.067.212-.021.074l.021-.074.026-.09c.022-.073.06-.206 0 0l.065-.221c0-.027.007-.052.021-.074.047-.163-.077.266-.021.074l.06-.208-.03.104.034-.118a.374.374 0 01.03-.104s.132-.122-.026.089l.155-.148c-.197.184-.176.11-.104.082a.716.716 0 01.134-.073l-.125.044.154-.036a.956.956 0 00.69-1.164.984.984 0 00-1.156-.705l-.045-.398z" fill="#004E63"/><path d="M223.284 65.947l.225.162.074.021c.127.113.247.234.359.361.113.109.219.225.316.349l.153.188c.194.286.37.584.526.891l.096.22c.064.163.117.328.16.497.096.315.169.636.218.962.031.17 0 0-.022.074l.029.233c-.048.162.009.355.01.516.001.161-.021.347-.038.519-.018.171-.035.118-.052.178l-.034.118a5.89 5.89 0 01-.288.992.954.954 0 00.649 1.183.984.984 0 001.197-.648 7.604 7.604 0 00.079-4.778 7.574 7.574 0 00-2.789-3.873.981.981 0 00-1.326.322 1.004 1.004 0 00.319 1.328l.139.185zm-23.858 1.329l.281.081.39.258s.103.03 0 0l.176.163.301.344c.107.128-.109-.176 0 0l.098.157.231.42.096.221s.104.303.139.458c.224 1.37.188 2.77-.108 4.126a.968.968 0 00.948.981.975.975 0 00.966-.956c.34-1.593.326-3.24-.041-4.827a4.957 4.957 0 00-3.06-3.36.967.967 0 00-1.196.648 1 1 0 00.659 1.203l.12.083z" fill="#004E63"/><path d="M201.766 75.049a7 7 0 01-3.132 6.105.96.96 0 00.193 1.761.957.957 0 00.728-.08 8.943 8.943 0 004.14-7.756.968.968 0 00-1.929-.03zm22.296.851c-.051.178.001.385-.007.576-.007.19-.06.207-.09.31a9.44 9.44 0 00-.021.075c-.09.39-.202.776-.335 1.154a1.722 1.722 0 00-.082.282c-.03.103-.03.103 0 0l-.034.118c-.013.045-.108.37-.277.514-.17.143-.207.325-.317.486a1.33 1.33 0 01-.177.221c.145-.166-.034.119-.043.148a1.002 1.002 0 00-.044 1.368.98.98 0 001.369.028 7.635 7.635 0 001.968-5.24.999.999 0 00-.948-.981.97.97 0 00-.966.956l.004-.015zM183.76 62.666c.057 3.612.087 7.537-2.135 10.616a.988.988 0 00.319 1.329.997.997 0 001.326-.322c2.407-3.33 2.474-7.645 2.415-11.578-.024-1.243-1.953-1.273-1.929-.03l.004-.015z" fill="#004E63"/><path d="M186.042 62.14a15.44 15.44 0 018.236 3.401.996.996 0 001.368.028.949.949 0 00.295-.673.95.95 0 00-.269-.684 17.734 17.734 0 00-9.598-4.004.97.97 0 00-.98.951 1 1 0 00.948.982z" fill="#004E63"/><path d="M192.979 63.286a5.51 5.51 0 01.869-2.556 1.972 1.972 0 012.097-.66c.989.324 1.87.913 2.548 1.703.851.876 1.652 1.8 2.4 2.766a.957.957 0 001.034.237.953.953 0 00.532-.503.972.972 0 00.021-.732.944.944 0 00-.197-.316 27.415 27.415 0 00-2.879-3.21 6.694 6.694 0 00-3.667-1.931 3.778 3.778 0 00-3.251 1.271 6.828 6.828 0 00-1.353 3.396 1 1 0 00.659 1.203c.443.128 1.114-.143 1.187-.668zm7.254-30.575A179.292 179.292 0 01198 54.535c-.192 1.212 1.65 1.763 1.846.536a182.37 182.37 0 002.292-22.304c.054-1.237-1.874-1.267-1.918-.011l.013-.045z" fill="#004E63"/><path d="M201.281 34.396c2.179.165 4.336.554 6.436 1.16l1.58.46a2.162 2.162 0 001.545.19 1.17 1.17 0 00.677-1.4 1.17 1.17 0 00-1.308-.837.97.97 0 00.466 1.869l.074.021-.735-.117.074.022-.345-.357-.066-.212.142-.489-.022.075.352-.332c.324-.013.381-.044.172-.094l-.266-.077-.605-.176-1.049-.304a30.178 30.178 0 00-2.285-.567 32.95 32.95 0 00-4.748-.687.95.95 0 00-.681.271.967.967 0 00-.223 1.043.956.956 0 00.876.604l-.061-.066z" fill="#004E63"/><path d="M200.949 33.609l5.199-.097c.486-.02 3.631-.375 3.294.731a.969.969 0 001.846.536 2.384 2.384 0 00-.866-2.53 4.468 4.468 0 00-2.993-.724l-6.461.196c-1.23.044-1.272 1.958-.032 1.932l.013-.044z" fill="#004E63"/><path d="M202.516 32.234c2.313.364 4.67.348 6.978-.046a.958.958 0 00.69-.667 1.033 1.033 0 00-.226-.932 5.844 5.844 0 00-3.774-2.058 3.682 3.682 0 00-2.17.253 1.417 1.417 0 00-.599 1.898c.111.22.278.405.483.54a.998.998 0 001.327-.321.993.993 0 00.107-.729.983.983 0 00-.426-.6.582.582 0 01.229.628.597.597 0 01-.105.211s-.182.076 0 0l.133.039.326-.018.28.081.207.06c.206.044.408.103.606.176l.443.129c.204.1.4.216.587.347l.24.166.141.12.463.504.464-1.599c-1.976.32-3.988.331-5.966.035a.984.984 0 00-1.182.652c-.134.459.125 1.112.645 1.198l.099-.067zm6.897 1.616c-.121 3.688-.247 7.397-.378 11.125l-.18 5.422-.084 2.608a6.626 6.626 0 01-.358 2.833c-.586 1.082.995 2.087 1.645 1.007a11.47 11.47 0 00.669-5.119l.196-5.865.391-11.941c.05-1.222-1.879-1.252-1.918-.011l.017-.06z" fill="#004E63"/><path d="M198.765 56.972a11.644 11.644 0 0011.222-.436c1.051-.642.134-2.337-.921-1.68a9.713 9.713 0 01-9.307.51.964.964 0 00-1.25.368.973.973 0 00.243 1.282l.013-.044zm12.493-18.831l5.716-.332-.948-.981a23.01 23.01 0 00-.161 3.918c.046.671.106 1.347.2 2.016l.158.945c-.003.162.003.325.019.487l-.026.089a.201.201 0 01.201-.086l-.133-.039c-.295-.086-.631-.087-.941-.177a12.869 12.869 0 00-1.997-.403 3.47 3.47 0 00-3.011 1.053.987.987 0 00-.04 1.353.968.968 0 001.365.042c.716-.867 1.937-.497 2.876-.257 1.255.365 3.005.68 3.482-.964a3.876 3.876 0 00-.015-1.77c-.098-.654-.197-1.308-.231-1.96a21.397 21.397 0 01.132-4.264.97.97 0 00-.948-.981l-5.717.332a.985.985 0 00-.98.951.968.968 0 00.948.981l.051.047zm-11.121-.964a7.01 7.01 0 01-4.106.029 4.498 4.498 0 00-1.968-.282 1.769 1.769 0 00-1.477 1.337 3.333 3.333 0 00.482 2.258c.316.622.67 1.222.958 1.884a2.47 2.47 0 01-.301 3.026.966.966 0 00-.295.673.949.949 0 00.269.684.968.968 0 001.35.038 3.876 3.876 0 001.202-3.648 13.87 13.87 0 00-1.591-3.784c-.101-.206-.125-.453-.225-.66.054.145-.119.079-.039.134.08.056.213-.018.258-.005.494.063 1.078.313 1.595.462a9.21 9.21 0 004.412-.196c1.189-.345.722-2.214-.467-1.869l-.057-.08z" fill="#004E63"/><path d="M192.794 37.712a7.706 7.706 0 00-1.283 5.855 6.735 6.735 0 001.153 2.758 2.384 2.384 0 001.544 1.026 2.03 2.03 0 001.678-.653 6.158 6.158 0 012.813-1.64.97.97 0 00-.466-1.868 7.82 7.82 0 00-3.315 1.767l-.286.27s-.196.232-.159.163c.036-.07-.115.063 0 0l-.207-.06a3.742 3.742 0 01-.648-1.135 5.698 5.698 0 01.722-5.521.958.958 0 00-.309-1.31.966.966 0 00-1.322.307l.085.04z" fill="#004E63"/><path d="M195.843 38.404c.081-.282.271-.548.426-.808l.266-.42s.149-.182 0 0l.145-.167a1.17 1.17 0 01.155-.148l.108-.096.026-.09.205-.1c.022-.074-.089-.026 0 0l.26-.07s.104.03 0 0l.258-.005a69.471 69.471 0 00.266.078l.428.124c.177.051 0 0 0 0l.222.064.408.247.4.276.133.04a.941.941 0 01.177.163c.259.22.507.452.742.697a.968.968 0 001.35.038.984.984 0 00.297-.675.984.984 0 00-.252-.692 6.335 6.335 0 00-4.259-2.375 4.199 4.199 0 00-2.108.964 4.218 4.218 0 00-1.279 1.937.984.984 0 00.304 1.324.982.982 0 001.326-.321l-.004.015zm6.756 24.062l-.147-.043c-.074-.022.221.064 0 0l-.119-.034c.074.021.207.06 0 0l-.147-.043s.162.047 0 0l-.107-.128c-.104-.03.083.153 0 0l-.168-.305c-.052-.095.05.159 0 0l-.05-.159a5.356 5.356 0 01-.151-.638 235.797 235.797 0 01-.558-3.099.968.968 0 00-1.727-.205.975.975 0 00-.143.69c.215 1.137.376 2.292.618 3.39.11.58.366 1.124.743 1.579a2.162 2.162 0 001.707.736.953.953 0 00.681-.271.968.968 0 00.223-1.043.956.956 0 00-.876-.604l.221.177zm5.931-6.481a12.174 12.174 0 01-3.668 6.736.972.972 0 00.665 1.582.964.964 0 00.66-.186 13.905 13.905 0 004.189-7.597.97.97 0 00-1.699-.917.99.99 0 00-.147.382zm-2.348 202.011a27.688 27.688 0 007.719-1.773.986.986 0 00.705-1.16.98.98 0 00-1.171-.709 26.376 26.376 0 01-7.225 1.724.986.986 0 00-.98.951.954.954 0 00.952.967zm3.926-13.917a3.526 3.526 0 00-.66 2.945 3.525 3.525 0 001.853 2.377c1.07.543 2.232.88 3.427.994 1.249.16 2.51.225 3.77.195 1.707-.035 5.854-.147 4.966-2.989a5.927 5.927 0 00-2.075-2.561 14.138 14.138 0 00-2.958-1.837c-2.013-.953-5.615-2.72-6.814.254a.968.968 0 00.664 1.188.982.982 0 001.182-.652c.316-.759 1.863-.021 2.323.16.935.356 1.847.771 2.73 1.242a9.854 9.854 0 012.366 1.778c.158.174.793.743.764 1.008-.029.264-.578.282-.747.313a16.85 16.85 0 01-3.259.194 21.864 21.864 0 01-3.34-.295 4.297 4.297 0 01-2.613-1.095c-.382-.448-.682-1.29-.234-1.786.826-.916-.494-2.326-1.324-1.395l-.021-.038zm-8.073-1.091a18.54 18.54 0 005.902 3.992.957.957 0 001.182-.652.988.988 0 00-.645-1.199l-.594-.269-.696-.362a13.757 13.757 0 01-1.356-.843 16.901 16.901 0 01-2.355-1.983.967.967 0 00-1.58.668.977.977 0 00.186.661l-.044-.013z" fill="#004E63"/><path d="M213.77 250.663l.267 5.422c.057 1.349-.04 3.728 1.535 4.314.856.248 1.67-.238 2.356-.617l2.518-1.227c1.361-.665 3.518-1.42 3.465-3.281a5.77 5.77 0 00-1.164-2.553l-.786-1.319a2.527 2.527 0 00-.253-.507c.067.1-.048.163-.325.179a.986.986 0 00.966-.956.967.967 0 00-.948-.981 1.732 1.732 0 00-1.539 1.193c-.071.22-.097.451-.077.681a6.53 6.53 0 001.229 2.604l.818 1.377c.188.344.222.45-.084.73-.776.551-1.621.997-2.514 1.325-.921.471-1.868.919-2.784 1.375l-.373.181c-.148.07-.035.119.31.09l-.228-.483a5.076 5.076 0 01-.147-1.15l-.318-6.353c-.058-1.236-1.967-1.277-1.914-.025l-.01-.019z" fill="#004E63"/><path d="M214.678 256.801c5.828-2.98 12.125-4.154 18.475-5.458 1.212-.258.746-2.127-.466-1.869-3.383.624-6.766 1.247-10.035 2.193a46.928 46.928 0 00-8.906 3.435c-1.107.562-.175 2.261.932 1.699zm21.321-27.296a26.614 26.614 0 00-7.512 10.163.972.972 0 00.645 1.199 1 1 0 001.201-.663 24.36 24.36 0 016.986-9.289c.967-.795-.372-2.195-1.32-1.41z" fill="#004E63"/><path d="M235.984 230.495l.203.348.115.21c.092.235.026-.089 0 0s.167.53.231.805c.122.596.29 1.181.501 1.751a2.941 2.941 0 002.635 1.952 2.182 2.182 0 001.575-.682 2.506 2.506 0 00.474-2.239 8.285 8.285 0 00-.649-1.793 4.129 4.129 0 00-1.167-1.494 2.791 2.791 0 00-1.801-.635 2.29 2.29 0 00-1.877.948.962.962 0 00.031 1.068.93.93 0 00.274.256.978.978 0 001.321-.306c-.212.291 0 0 0 0s-.174.158 0 0c.174-.159.119.034 0 0-.118-.035 0 0 0 0l.104.03s.114-.064 0 0c-.115.063 0 0 0 0l.147.042-.073-.021.236.069c.221.064-.163-.048 0 0l.133.038.074.022.096.108.118.034s.118.147 0 0c-.117-.146-.021.074-.021.074l.078.119.163.32.127.278c.025.058.045.117.061.178 0 0-.061-.178 0 0 .06.178.173.452.246.697l.081.329-.043.148c-.01.05-.024.1-.043.148 0 0 .064-.222 0 0-.065.222 0 0 0 0l-.03.104c-.009.029 0 0 0 0l-.03.103-.074-.021c-.115.063 0 0 0 0l-.222.048s.177.051 0 0l-.163-.047c-.118-.035 0 0 0 0l-.118-.035a30.227 30.227 0 01-.221-.064l.073.021-.118-.034-.103-.03-.118-.034c-.122-.132 0 0 0 0s-.109-.176-.151-.253l-.153-.301s-.075-.182 0 0l.026-.088a11.595 11.595 0 00-1.038-3.046.976.976 0 00-.57-.552.982.982 0 00-.791.061.98.98 0 00-.481.632.975.975 0 00.15.78l.782-.046z" fill="#004E63"/><path d="M239.066 234.439a216.287 216.287 0 00-7.345 8.045 1.005 1.005 0 00-.045 1.368.986.986 0 001.365.043c2.4-2.755 4.783-5.45 7.35-8.06.855-.908-.469-2.303-1.325-1.396zm-13.37-11.969a30.728 30.728 0 012.606 11.655c.039 1.247 1.953 1.273 1.929.03a33.388 33.388 0 00-2.839-12.621.978.978 0 00-1.314-.381 1.001 1.001 0 00-.382 1.317zm-4.314 1.622a105.816 105.816 0 012.172 11.994.968.968 0 001.176.695.99.99 0 00.69-1.165 106.262 106.262 0 00-2.172-11.994.97.97 0 00-1.139-.59.97.97 0 00-.727 1.06z" fill="#004E63"/><path d="M221.442 222.617a1.926 1.926 0 00-.006.848c.07.283.209.544.404.76.299.358.695.623 1.139.764a4.39 4.39 0 002.71.096 2.94 2.94 0 002.195-2.044 2.351 2.351 0 00-.176-1.656 2.127 2.127 0 00-1.297-1.051 3.465 3.465 0 00-1.678.035 3.49 3.49 0 00-1.467.818.966.966 0 00-.3.669.944.944 0 00.26.684.984.984 0 001.364.043l.026-.089c.034-.118 0 0 0 0l.18-.124c.072-.034.143-.073.21-.116l.088.026c.187-.091-.211.067 0 0l.419-.12c.218-.033-.192-.055 0 0l.243-.009.207.06a39.548 39.548 0 00-.103-.03l.088.025c.133.039-.074-.021-.088-.025-.015-.005.118.034.111.112-.007.079 0 0 0 0l.074.022c.074.021-.03.103 0 0a.211.211 0 00-.022.074l-.025.089.025-.089a.799.799 0 00-.056.192 1.619 1.619 0 00-.004.015 1.066 1.066 0 00-.06.207l.026-.089-.026.089a.949.949 0 01-.03.104l.03-.104s-.039.133-.159.163c0 0 .18-.125 0 0l-.21.115-.114.064s.182-.076 0 0a3.53 3.53 0 01-.453.125l-.103-.03s.192.056 0 0l-.311.022-.492-.014c-.089-.026-.266-.077 0 0l-.473-.137c-.177-.052.237.068 0 0l-.206-.06c-.104-.03-.202-.187 0 0l-.137-.136c-.122-.132.134.199 0 0-.134-.2.063.114.044.125l-.044-.125s.02.262-.03.103c-.05-.159.064-.222-.022.075a1.125 1.125 0 00-.091-.733.916.916 0 00-.573-.455c-.443-.129-1.105.112-1.182.652l.095.06zm-8.926 18.902a304.773 304.773 0 0019.969-5.972c1.168-.383.661-2.28-.467-1.869a307.827 307.827 0 01-19.969 5.972.974.974 0 00-.199 1.706.965.965 0 00.666.163z" fill="#004E63"/><path d="M211.699 236.498a36.405 36.405 0 015.251 3.257.941.941 0 00.724.124.959.959 0 00.598-.43.988.988 0 00-.319-1.329 36.035 36.035 0 00-5.247-3.272.97.97 0 00-1.376 1.057.966.966 0 00.369.593z" fill="#004E63"/><path d="M214.018 236.064c.056-.193-.06.207 0 0l.065-.222.107-.371c.132-.249.277-.49.434-.724 0 0 .169-.304.217-.306.049-.002-.043.148 0 0a.824.824 0 01.16-.163c.085-.094.179-.18.282-.255l.03-.104-.026.089c.055-.028.107-.062.157-.099.099-.067.235-.092.32-.164l-.13.059.11-.048.133.038.17-.031.103.03-.103-.03.355-.009.147.043c-.266-.078-.118-.035 0 0l.148.042c.096.036.195.064.295.086.177.051-.151-.14 0 0l.147.155a.967.967 0 001.58-.668.97.97 0 00-.185-.661 3.181 3.181 0 00-3.866-.528 6.36 6.36 0 00-2.585 3.392.936.936 0 00.077.728.958.958 0 00.572.455.909.909 0 00.727-.078c.211-.137.375-.336.47-.57l.089-.086z" fill="#004E63"/><path d="M217.723 234.443a17.593 17.593 0 005.806 3.498.97.97 0 001.082-.689.971.971 0 00-.545-1.162 15.682 15.682 0 01-4.932-3.036.967.967 0 00-1.281.049.97.97 0 00-.113 1.28l-.017.06zm19.734 2.675c1.411 3.909 2.594 8.553.081 12.303-.681 1.022 1.008 2.042 1.645 1.007 2.817-4.191 1.726-9.371.139-13.78a1.014 1.014 0 00-1.175-.694.963.963 0 00-.586.439.962.962 0 00-.104.725z" fill="#004E63"/><path d="M234.112 251.348l5.234-1.483a.973.973 0 00.694-1.179.981.981 0 00-1.161-.69l-5.233 1.483a.974.974 0 00-.69 1.164.98.98 0 001.171.709l-.015-.004z" fill="#004E63"/><path d="M233.129 251.592l2.322 3.034a.967.967 0 001.35.038c.192-.181.305-.431.314-.695a1.174 1.174 0 00-.269-.672l-2.327-3.019a.88.88 0 00-.679-.309.964.964 0 00-.98.94.953.953 0 00.269.683zm-5.507-.056l.823 9.083c.069.646.765 1.281 1.361.828a2.508 2.508 0 012.217-.304c.46.238.962.383 1.477.429a1.538 1.538 0 001.433-1.077c.344-1.185-1.458-1.707-1.846-.536 0 0 .393-.416.426-.31l-.295-.085-.653-.286a4.64 4.64 0 00-1.269-.208 4.226 4.226 0 00-2.407.682l1.36.828c-.288-3.015-.567-6.044-.838-9.087a.957.957 0 00-1.632-.689.966.966 0 00-.286.678l.129.054z" fill="#004E63"/><path d="M232.127 251.735a20.43 20.43 0 01.668 7.353.955.955 0 001.623.688.973.973 0 00.296-.677 22.006 22.006 0 00-.722-7.834.964.964 0 00-1.138-.59.969.969 0 00-.727 1.06zm5.069 4.713c.729.122 1.467.18 2.207.175l.976-.054a4.89 4.89 0 00.991-.161 1.713 1.713 0 001.126-2.114 2.688 2.688 0 00-1.545-1.572.957.957 0 00-.739-.102.958.958 0 00-.268 1.752c.213.091.416.204.606.337l.089.026-.089-.026.097.108c.151.14-.094-.172 0 0s-.062-.226 0 0l.03-.103-.043.148.043-.148s-.056.192 0 0c.056-.193.026-.089 0 0l.123-.093-.074-.022.104.03a2.473 2.473 0 00-.309.071l-.163-.047c.104.03.119.035 0 0-.124.029-.251.04-.378.035-.279.027-.56.036-.841.029l-.76-.028-.399-.116-.207-.06c-.192-.056.192.056 0 0a1.03 1.03 0 00-.727.078.963.963 0 00-.455.574c-.133.459.111 1.108.645 1.199l-.04.084z" fill="#004E63"/><path d="M237.164 249.826c1.099 1.731 2.172 3.551 3.084 5.373a.948.948 0 00.944.491.953.953 0 00.809-.689.97.97 0 00-.075-.728c-.929-1.874-1.971-3.637-3.066-5.383a.953.953 0 00-.577-.498.976.976 0 00-.759.076.97.97 0 00-.36 1.358zm-88.62-162.242a65.396 65.396 0 005.953 8.838.95.95 0 001.034.237.947.947 0 00.316-.199 1.003 1.003 0 00.045-1.367 63.01 63.01 0 01-5.656-8.43c-.616-1.078-2.293-.152-1.692.921z" fill="#004E63"/><path d="M149.168 88.247c1.331.382 2.697.628 4.078.734a8.7 8.7 0 002.073-.137c.338-.076.671-.172.997-.289l.436-.178c.021-.074.639-.216.205-.213-.433.002-.103-.03-.055.192.047.222.231.308.348.454l.79 1.032c.518.696 1.037 1.392 1.549 2.054a10.764 10.764 0 002.984 3.402c1.066.63 2.083-1 1.002-1.635a11.86 11.86 0 01-2.946-3.584 65.018 65.018 0 00-1.535-2.05 4.95 4.95 0 00-1.461-1.644 2.004 2.004 0 00-1.769.193 5.16 5.16 0 01-1.954.445 15.442 15.442 0 01-4.27-.678.97.97 0 00-1.082.69.973.973 0 00.545 1.16l.065.052zm12.18-1.587c1.14 3.06 2.369 6.092 3.686 9.096a.967.967 0 001.299.377.986.986 0 00.382-1.318 207.413 207.413 0 01-3.501-8.624 1.015 1.015 0 00-1.172-.709.971.971 0 00-.694 1.179z" fill="#004E63"/><path d="M161.981 87.791c2.964 1.759 6.456 1.311 9.674.704l-1.079-.474a52.888 52.888 0 012.712 7.208c.347 1.176 2.208.72 1.865-.47a55.165 55.165 0 00-2.862-7.684.965.965 0 00-1.079-.474c-2.692.503-5.719 1.005-8.201-.485a.967.967 0 00-1.25.367.973.973 0 00.243 1.283l-.023.025zm12.716.319a8.49 8.49 0 011.573 3.297c.447 1.494.86 2.995 1.288 4.5a.983.983 0 001.176.694.971.971 0 00.69-1.164c-.455-1.577-.881-3.145-1.355-4.712a10.232 10.232 0 00-1.978-3.944.964.964 0 00-1.282.048.976.976 0 00-.112 1.281z" fill="#004E63"/><path d="M175.827 88.63a53.979 53.979 0 016.285.026 7.926 7.926 0 012.179.215l-.438-.256c.162.048.144.331.175.5l.227 1.094.436 2.084.861 4.15c.256 1.215 2.126.73 1.87-.484l-.992-4.75-.479-2.322c-.147-.652-.268-1.394-.896-1.768a5.441 5.441 0 00-2.204-.35c-.751-.059-1.566-.119-2.253-.125a65.538 65.538 0 00-4.817.047c-1.219.063-1.266 1.992-.013 1.922l.059.017zm37.948 2.198a19.793 19.793 0 00-2.47 8.24.972.972 0 00.952.966.984.984 0 00.981-.951 17.46 17.46 0 012.109-7.27.962.962 0 00-.314-1.318.954.954 0 00-1.317.316l.059.017zM189.35 88.54a52.262 52.262 0 00-.337 9.164 1 1 0 00.948.982.985.985 0 00.981-.952 52.21 52.21 0 01.322-9.168.969.969 0 00-.948-.981.97.97 0 00-.966.956z" fill="#004E63"/><path d="M189.892 90.095c.288.007.574.032.859.073l-.251-.073a8.28 8.28 0 011.876.544.95.95 0 001.024-.309.96.96 0 00.096-1.068 1.124 1.124 0 00-.583-.474 9.208 9.208 0 00-3.014-.65.985.985 0 00-.981.952 1.004 1.004 0 00.949.981l.025.024zm18.276 1.241a7.865 7.865 0 012.934-.288l.354.103c.104.03.133.038 0 0l.207.06.709.205a7.79 7.79 0 011.329.498.964.964 0 001.275-.347.971.971 0 00-.254-1.299 9.987 9.987 0 00-7.103-.68.974.974 0 00-.591 1.142.967.967 0 001.057.727l.083-.12z" fill="#004E63"/></svg>