<svg width="279" height="276" fill="none" xmlns="http://www.w3.org/2000/svg"><path d="M107.334 38.023l7.245-2.234c4.606.446 11.435 1.103 19.783 2.188 4.487.558 6.752.905 9.361 1.37 8.679 1.654 9.888 3.074 20.43 6.021 11.028 3.021 16.527 4.611 20.529 5.095 2.82.4 4.768.47 6.766 1.946 3.994 2.95 3.149 7.691 7.348 10.056 1.758.951 1.99.208 4.726 1.081 5.218 1.677 5.379 4.69 12.004 9.666 4.423 3.34 5.71 3.018 7.714 5.761 1.491 2.08 1.589 3.393 3.579 5.841 2.011 2.517 4.016 3.766 5.38 4.69 1.364.923 8.432 5.838 12.383 13.133 3.073 5.698 3.424 11.565 3.655 14.555a38.62 38.62 0 01-.078 6.223c1.941 1.791 4.585 4.859 5.724 9.287.703 2.771.611 4.965.365 7.655-1.684 20.459-1.987 22.718-3.401 26.365-1.393 3.716-2.223 5.764-4.045 8.343-3.271 4.369-6.422 5.64-8.737 10.61-.97 2.092-1.252 3.673-1.54 4.733-1.063 4.285-4.341 10.375-14.217 18.051-1.513 5.321-3.953 7.642-5.916 8.77-3.334 1.924-7.103 1.444-9.502 4.648-.654.874-.936 1.708-2.152 2.755-1.717 1.426-2.807 1.388-3.707 2.712-.781 1.211-.247 1.943-.697 2.978-.781 1.958-3.566 2.668-6.766 3.281-5.746 1.1-9.46 1.798-15.093 1.519-1.484-.065-5.514-.391-10.557-1.748-3.868-1.047-5.872-1.55-8.221-2.916-1.709-1.041-2.475-1.776-4.381-2.458-1.976-.66-2.546-.26-5.788-.53-4.262-.328-8.06-.65-9.726-3.049-.514-.663-.922-1.732-1.365-1.67-.443.062-.387 1.239-.928 2.228-.929 1.481-3.004 1.748-4.403 1.955-4.058.58-9.846-.697-10.957-3.79-.281-.66-.302-1.475-.942-1.8-.894-.397-1.674.815-3.405 1.199-2.314.49-4.845-.97-6.224-2.188-1.286-1.171-1.307-1.986-2.299-2.203-1.456-.223-2.068 1.534-3.531 1.537-2.461.012-3.699-4.983-5.309-4.711-.724.149-.5 1.125-1.4 1.702-1.99 1.286-4.775-2.486-9.881-2.554-2.16-.006-2.666.598-3.833.062-1.92-.976-1.709-3.282-4.001-4.217-1.147-.468-1.393-.019-2.398-.53-1.688-.973-1.245-2.529-2.926-3.728-1.11-.853-1.456-.224-3.03-1.082-1.414-.834-1.463-1.491-3.362-3.145-.43-.391-1.111-.853-2.497-1.844-2.953-2.077-4.03-2.566-4.135-3.654-.112-.861.542-.988.402-1.692-.394-1.521-3.496-1.088-4.234-2.727-.696-1.503 1.288-3.31.479-4.18-.605-.71-2.005.244-3.495-.341-1.491-.586-2.089-2.269-2.588-4.131-1.427-4.862-2.095-7.27-2.186-10.304-.034-6.337 2.098-11.401 3.624-14.187a16.1 16.1 0 01-3.974.105c-3.748-.412-6.203-2.119-9.48-4.245-9.261-6.031-8.86-4.736-11.09-6.961-2.925-2.981-4.184-5.804-6.201-10.335-1.52-3.415-3.6-8.15-4.007-14.447-.113-1.608.064-5.023.367-11.763.226-4.252.338-6.378.437-7.304.965-8.588 1.479-13.9 5.32-17.922 2.377-2.525 5.296-3.799 5.48-6.693.07-1.516-.711-1.798-.549-3.267.254-2.916 3.285-3.328 6.97-7.601 3.11-3.648 3.06-5.798 5.544-6.49 1.78-.474 3.08.245 4.248-.712 1.146-1.026.373-2.28 1.027-3.902 1.112-2.882 4.86-2.47 11.584-5.888 3.587-1.853 3.137-2.311 6.647-3.917 3.299-1.54 4.319-1.48 8.989-3.07 4.6-1.569 4.332-1.934 10.276-4.14 5.028-1.925 7.589-2.864 10.198-3.146 2.173-.446 5.957-.418 10.57 1.295z" fill="#4BAEBD"/><path d="M47.895 60.314l13.026-4.466 3.284-1.087 3.306-1.02c2.138-.809 4.121-1.868 6.464-2.516 2.342-.648 4.733-.639 7.068-.313 1.202.152 2.285.415 3.46.725l3.34.837 3.32.768c1.062.196 2.194.37 3.284.406 2.202.143 4.53-.052 6.851-.021 4.641.062 9.248.508 13.805 1.044 2.314.257 4.733.855 6.864 1.766 1.076.49 2.131.912 3.137 1.423.984.443 2.06.933 3.003 1.24 4.325 1.28 8.713 2.764 12.933 4.45 4.177 1.549 8.629 2.491 13.208 3.095.07-.021.091.047.112.115.021.068-.049.09-.12.112-4.62.006-9.248-.509-13.664-1.835a364.557 364.557 0 01-6.485-2.033l-3.291-.926-3.291-.927c-1.196-.378-2.251-.8-3.306-1.221-1.055-.422-2.06-.933-3.115-1.354-2.04-.865-4.065-1.435-6.309-1.714-4.508-.626-9.016-1.252-13.538-1.426-2.272-.12-4.55-.015-6.913-.182a25.53 25.53 0 01-3.468-.5l-3.34-.836-3.291-.927a30.473 30.473 0 00-3.25-.79c-2.194-.369-4.445-.422-6.597.093-2.152.514-4.227 1.528-6.456 2.29-1.126.347-2.202.604-3.327.951l-3.327.952-13.152 4.056c-.07.022-.162-.025-.162-.025-.112-.114-.112-.114-.063-.204zm112.97 10.041c2.813 2.12 6.154 3.703 9.621 4.202 1.779.273 3.545.251 5.394.502 1.85.251 3.784.775 5.43 1.612 1.715.815 3.234 1.99 4.564 3.297a22.678 22.678 0 013.396 4.255c1.997 2.969 3.586 6.362 4.218 9.9.021.069-.049.09-.119.112-.071.022-.092-.046-.092-.046-.928-1.506-1.786-3.034-2.784-4.518-.999-1.485-1.955-2.833-3.073-4.206-2.166-2.767-4.05-5.621-7.039-7.313a13.996 13.996 0 00-4.775-1.739c-1.709-.294-3.587-.387-5.409-.796-1.8-.34-3.565-1.066-5.14-1.925-1.576-.858-3.074-1.964-4.431-3.114-.021-.068-.042-.136.028-.158l.211-.065zm31.786 26.79c-2.919 2.02-5.529 4.543-7.273 7.62-.837 1.528-1.632 3.192-2.652 4.627-1.02 1.435-2.019 2.938-3.222 4.28-.647.647-1.456 1.27-2.392 1.484-.914.282-1.913.291-2.813.121-.9-.171-1.772-.499-2.623-.759a23.527 23.527 0 00-2.581-.623c-3.439-.657-6.984-.162-10.402.743-1.709.453-3.488.927-5.176 1.448-1.688.52-3.447 1.062-5.022 1.698a20.088 20.088 0 00-4.537 2.519 16.883 16.883 0 00-3.573 3.641c-1.991 2.78-2.955 6.139-4.01 9.452-.964 3.359-2.16 6.716-2.449 10.016-.289 3.3 1.005 6.486 3.466 8.714 1.195 1.125 2.651 2.095 4.107 3.065 1.455.97 2.89 1.872 4.444 2.662 1.554.79 3.116 1.354 4.797 1.807 1.68.452 3.565 1.066 5.183 2.06a27.525 27.525 0 014.451 3.183c1.378 1.218 2.567 2.569 3.685 3.942a26.62 26.62 0 003.65 3.579c1.336 1.082 2.77 1.984 4.254 2.795 1.484.812 3.017 1.534 4.656 1.851a15.9 15.9 0 005.064-.069c1.68-.294 3.256-.929 4.635-1.952.689-.511 1.287-1.069 1.772-1.742.486-.672.858-1.459 1.302-2.268 1.906-3.052 4.635-5.686 7.709-7.456.07-.022.14-.043.162.025.021.068.042.136-.029.158-2.897 2.089-5.395 4.726-6.999 7.76-.372.787-.745 1.574-1.259 2.404-.513.831-1.231 1.5-1.899 2.08-1.477 1.202-3.242 1.971-5.113 2.398-1.871.428-3.756.561-5.697.264-1.941-.298-3.706-1.023-5.282-1.881-1.575-.859-3.171-1.785-4.599-2.913-1.427-1.128-2.757-2.436-3.924-3.719-1.188-1.351-2.264-2.588-3.53-3.691a23.5 23.5 0 00-4.135-2.907c-1.484-.812-2.975-1.397-4.677-1.918-.851-.26-1.772-.499-2.644-.827-.872-.329-1.695-.747-2.518-1.166-1.645-.836-3.122-1.875-4.578-2.845-1.477-1.038-2.932-2.008-4.332-3.294-1.329-1.307-2.44-2.907-3.129-4.636-.689-1.729-.906-3.678-.709-5.531.127-1.832.577-3.614 1.048-5.327.472-1.714 1.035-3.381 1.598-5.049.562-1.667 1.104-3.402 1.759-5.023.633-1.689 1.519-3.306 2.588-4.831 2.23-3.003 5.409-5.178 8.842-6.536 1.716-.678 3.495-1.152 5.183-1.673 1.709-.453 3.468-.995 5.198-1.379 3.531-.79 7.237-1.261 10.859-.511.9.17 1.751.43 2.602.691.851.26 1.653.61 2.553.781 1.66.384 3.439-.09 4.593-1.342 1.245-1.206 2.244-2.709 3.264-4.143 1.041-1.367 1.857-2.963 2.764-4.512 1.836-3.031 4.516-5.575 7.527-7.55.07-.021.14-.043.161.025l-.098.18zm-42.08 66.45c.464 1.5.668 3.154.478 4.781-.19 1.627-.866 3.18-1.745 4.571-.971 1.345-2.054 2.575-3.229 3.759a124.797 124.797 0 01-3.496 3.394c-1.195 1.115-2.391 2.231-3.861 3.207a14.88 14.88 0 01-2.335 1.168l-1.266.391c-.422.13-.795.17-1.147.279-.703.217-1.203.595-1.498 1.134-.317.471-.478 1.193-.479 1.94-.07 1.515.113 3.102.344 4.599.162.771.373 1.453.605 2.203.232.75.527 1.704.478 2.541a9.83 9.83 0 01-.197 2.6c-.19.88-.472 1.714-.845 2.501-.302.765-.696 1.484-.682 1.779.014.294.281.66.759.96.479.301 1.217.447 1.955.592.718.078 1.505.133 2.272.121 1.533-.025 3.024-.186 4.48-.71 1.477-.455 2.87-1.183 4.15-2.026 2.61-1.776 4.797-4.168 6.689-6.768.05-.09.141-.044.141-.044l.042.137c-1.393 2.968-3.313 5.727-5.958 7.886a16.51 16.51 0 01-4.424 2.635c-1.646.656-3.397.973-5.141 1.062-.837.035-1.766.022-2.645-.08a7.958 7.958 0 01-2.714-.806c-.915-.465-1.836-1.45-1.864-2.786a4.372 4.372 0 01.352-1.602c.176-.428.373-.787.5-1.125a8.556 8.556 0 001.083-4.218c0-.746-.098-1.313-.351-2.132a14.89 14.89 0 01-.527-2.451c-.204-1.655-.316-3.263-.218-4.936.05-.837.219-1.785.803-2.638.583-.852 1.484-1.428 2.328-1.689.422-.13.865-.192 1.287-.322.351-.108.724-.149 1.146-.279.704-.217 1.435-.592 2.096-.945 1.372-.796 2.589-1.844 3.784-2.959 1.217-1.048 2.413-2.163 3.63-3.211 1.196-1.115 2.321-2.209 3.313-3.486.921-1.255 1.618-2.74 1.85-4.23.282-1.581.19-3.121-.203-4.642-.021-.068.049-.09.119-.112.05-.09.141-.043.141-.043z" fill="#1C4C5F"/><path d="M148.55 191.178c-.549-1.025-.999-2.231-1.076-3.477-.077-1.246.289-2.553 1.133-3.56.774-.986 1.913-1.785 3.067-2.29 1.153-.506 2.419-.896 3.678-1.06 1.259-.165 2.56-.192 3.854.006s2.553.781 3.622 1.497c1.069.716 1.948 1.565 2.876 2.324.928.759 1.786 1.54 2.764 2.209 3.79 2.789 8.242 4.478 12.771 5.919 1.125.4 2.3.71 3.474 1.02l3.524.93c2.327.551 4.705 1.013 7.152 1.453.07-.022.091.047.113.115.021.068-.05.09-.12.111-4.979.341-9.973-.359-14.741-1.577-2.419-.598-4.782-1.512-6.976-2.628a36.305 36.305 0 01-6.259-4.044 44.888 44.888 0 01-2.757-2.436c-.879-.849-1.737-1.63-2.644-2.321-.907-.691-1.892-1.134-3.045-1.376-1.154-.242-2.314-.257-3.432-.136-1.189.142-2.356.353-3.461.768-1.104.416-2.145 1.035-2.869 1.931-.746.827-1.154 1.999-1.189 3.13-.036 1.131.323 2.29.822 3.406.021.068.042.136-.028.158-.232-.004-.232-.004-.253-.072zm1.222 1.715c2.517 2.659 5.513 4.871 8.931 6.207 3.347 1.357 7.061 2.154 10.641 2.021.907-.056 1.793-.18 2.658-.372s1.801-.406 2.736-.62c1.962-.381 4.072-.285 5.964.102 3.875.821 7.363 2.882 9.881 5.541.021.068.042.137-.028.158l-.141.044c-3.312-1.742-6.681-3.168-10.219-3.645-1.779-.272-3.495-.341-5.267-.093-1.773.248-3.735.629-5.753.58-3.967-.121-7.673-1.144-11.105-2.774-3.432-1.63-6.35-4.09-8.65-7.041-.021-.068-.042-.136.028-.158.232.003.324.05.324.05zm41.627 15.764c1.286 1.918 2.123 4.125 2.467 6.483.127 1.156.183 2.333.077 3.486a9.993 9.993 0 01-.992 3.518 10.122 10.122 0 01-2.342 2.888c-.978.824-2.11 1.397-3.194 1.881-2.166.967-4.536 1.772-6.963 2.147a8.54 8.54 0 01-1.884.134c-.626-.031-1.323-.041-2.103-.323l-.549-.279a1.365 1.365 0 01-.541-.505c-.204-.161-.289-.434-.373-.706a2.509 2.509 0 01-.091-.794c.077-.994.534-1.509.83-2.048.612-1.01 1.175-1.931 1.576-2.876a8.17 8.17 0 00.485-2.913 10.632 10.632 0 00-.695-2.997 6.03 6.03 0 00-1.737-2.376c-.725-.598-1.787-.794-2.968-.877-.556-.053-1.161-.016-1.695 0l-.907.055-.443.062-.514.084c-.07.022-.091-.046-.112-.115-.022-.068.049-.09.119-.111l.071-.022.14-.043.211-.065.422-.131.844-.26a8.651 8.651 0 011.822-.338c.605-.037 1.28-.096 1.927.004.647.099 1.315.266 1.885.613 1.209.673 2.06 1.68 2.651 2.842a10.876 10.876 0 011.117 3.613c.099 1.314-.035 2.625-.492 3.886-.479 1.193-1.21 2.315-1.865 3.189-.316.471-.562.92-.591 1.079.022.068-.049.089.043.136 0 0 .021.068.112.114.021.069.113.115.183.093.274.14.851.261 1.315.267.556.053 1.069-.031 1.604-.046 1.118-.121 2.215-.31 3.34-.657 1.077-.258 2.181-.673 3.285-1.088a12.426 12.426 0 002.905-1.568 7.538 7.538 0 002.166-2.461 7.693 7.693 0 001.049-3.086c.197-1.107.162-2.216.127-3.325-.141-2.198-.837-4.447-1.912-6.431-.021-.068-.042-.136.028-.158.07-.021.091.047.162.025zm-16.855 19.985a8.92 8.92 0 01-3.285 1.834c-1.195.369-2.658.372-3.896-.142-1.238-.515-2.279-1.389-3.059-2.417-.76-.961-1.54-1.99-2.06-3.174-.591-1.162-.9-2.411-1.259-3.57-.288-1.18-.534-2.225-.991-3.204-.387-1.001-.984-1.937-1.652-2.851-.668-.914-1.456-1.717-2.405-2.544-.021-.068-.042-.136.028-.158l.141-.044c2.44.667 4.662 2.371 5.914 4.674.661 1.14.921 2.479 1.047 3.635.127 1.156.323 2.29.71 3.291a14.247 14.247 0 001.624 3.009c.598.936 1.385 1.738 2.391 2.25.935.533 2.138.684 3.306.474 1.167-.211 2.25-.694 3.291-1.314.07-.022.141-.044.162.025.021.068.042.136-.007.226z" fill="#1C4C5F"/><path d="M158.779 207.814c-.71 1.19-1.512 2.333-2.61 3.269a9.222 9.222 0 01-3.643 2.169c-1.407.434-2.87.437-4.199.623a19.04 19.04 0 00-3.995.784c-.633.195-1.245.459-1.948.676l-2.04.629-.984.304-.422.13c-.071.021-.071.021-.12.111-.119.112-.148.27-.134.564-.007.227.078.499.113.862.309 1.249.85 2.501 1.251 3.796.401 1.295.802 2.591 1.132 3.908.19.613.33 1.317.555 1.546.113.115.225.229.479.301.253.071.436.164.759.214 1.041.127 2.307-.264 2.975-.843a.749.749 0 00.317-.471c.028-.159.077-.248.084-.475.007-.226-.077-.499-.183-.839-.105-.341-.232-.75-.168-1.293-.007-.52.246-1.196.654-1.62a4.173 4.173 0 011.189-.89c.872-.418 1.688-.52 2.525-.554.837-.035 1.667.158 2.447.44.781.282 1.554.79 2.068 1.453.513.663.836 1.46.998 2.231.141.704.211 1.429.309 1.996.014.294.099.567.232.75.064.204.246.297.429.39.296.208 1.02.059 1.765-.021 1.421-.14 2.856.015 4.262.328.071-.022.092.047.113.115.021.068-.049.09-.12.111-.696-.009-1.392-.018-2.046.109-.675.059-1.329.186-1.984.313-.351.108-.633.195-1.005.235-.352.109-.865.192-1.301.028-.436-.164-.894-.396-1.182-.83-.267-.366-.394-.775-.499-1.116-.232-.75-.281-1.407-.45-1.952-.169-.546-.408-1.069-.745-1.413-.675-.688-1.85-.998-2.989-.946-.535.016-1.118.121-1.519.32-.211.065-.401.198-.45.288-.12.111-.12.111-.078.248-.056.316.225.976.337 1.837a2.9 2.9 0 01-.232 1.491c-.225.518-.563.92-.872 1.165-.739.601-1.562.93-2.335 1.169a7.698 7.698 0 01-2.511.102c-.415-.096-.83-.192-1.266-.357-.366-.186-.823-.418-1.132-.92-.288-.434-.415-.843-.52-1.184-.106-.341-.141-.703-.246-1.044a36.477 36.477 0 00-.97-3.883c-.331-1.317-.781-2.523-1.132-3.908-.106-.341-.141-.703-.127-1.156.015-.452.169-.948.507-1.351.169-.201.408-.424.689-.511l.563-.174 1.006-.235c.654-.127 1.357-.344 1.99-.539l2.04-.63c1.357-.343 2.827-.573 4.199-.622 1.441-.072 2.764-.031 4.051-.354 1.287-.322 2.539-1.007 3.587-1.853 1.048-.846 1.941-1.943 2.673-3.065.049-.089.14-.043.14-.043-.253-.071-.232-.003-.281.087z" fill="#1C4C5F"/><path d="M148.789 226.578c.626.031 1.252.062 1.808.115a11 11 0 011.758.204c.576.121 1.231-.006 1.779.273.274.14.478.301.703.53.225.229.45.459.647.846.021.068-.028.158-.098.18-.401.198-.753.306-1.034.393-.352.109-.675.059-.907.056-.626-.031-1.076-.49-1.604-.7-.548-.279-1.076-.49-1.554-.791-.478-.3-1.027-.579-1.596-.926-.092-.047-.043-.136-.043-.136l.141-.044z" fill="#1C4C5F"/><path d="M147.699 228.781c2.75-.325 5.486-.198 8.18.54 1.336.334 2.665.895 3.804 1.589 1.14.694 2.258 1.32 3.496 1.835 2.405 1.05 5.014 1.515 7.693 1.958 2.68.444 5.36.887 8.018 1.262 1.364.176 2.637.307 3.917.211 1.231-.007 2.518-.329 3.805-.651l3.974-.852 3.974-.853c1.308-.254 2.687-.53 3.791-.945.541-.242.872-.418 1.118-.867.317-.472.401-.946.535-1.51.112-.632.204-1.332.436-2.076a4.792 4.792 0 011.175-1.931c1.055-1.072 2.398-1.71 3.777-1.986.07-.022.091.047.112.115.022.068-.049.09-.049.09-1.202.595-2.363 1.326-3.045 2.358-.387.493-.591 1.078-.725 1.642-.134.564-.106 1.153-.106 1.9-.021.679-.141 1.537-.535 2.256a4.267 4.267 0 01-.823 1.075c-.358.335-.759.533-1.09.71-1.414.66-2.701.982-4.058 1.326-2.715.688-5.331 1.196-8.018 1.726-1.4.208-2.708.462-4.241.487-1.463.003-2.848-.242-4.213-.419-2.7-.511-5.331-1.044-7.982-1.645-2.63-.533-5.373-1.181-7.891-2.346-1.259-.583-2.419-1.345-3.558-2.039-1.069-.716-2.236-1.252-3.523-1.677-2.504-.871-5.282-1.134-7.913-.92-.07.022-.091-.047-.112-.115-.063-.204-.014-.294.077-.248zm47.144-5.503c2.342.099 4.712.04 7.068-.313s4.691-.775 6.85-1.515c4.41-1.435 8.131-4.599 10.34-8.417.542-.989.992-2.024 1.301-3.015.289-1.06.507-2.098.542-3.229.127-1.085.162-2.216.247-3.437.035-1.131.141-2.284.176-3.415.036-1.131.12-2.352.296-3.527.176-1.174.352-2.349.69-3.498.338-1.15.605-2.278 1.245-3.446.148-.27.366-.561.675-.806.31-.245.732-.375 1.126-.347.738.145 1.188.604 1.568 1.084.021.069.042.137-.028.158-.07.022-.07.022-.162-.024-.478-.301-.977-.67-1.42-.608-.444.062-.641.422-.866.939-.38 1.014-.506 2.098-.612 3.251-.303 2.259-.303 4.5-.282 6.808.035 1.11.021 2.309-.064 3.53-.106 1.153-.211 2.306-.387 3.48a19.98 19.98 0 01-.901 3.564c-.408 1.171-.999 2.25-1.59 3.328-2.638 4.174-6.823 7.332-11.507 8.628-1.196.368-2.384.511-3.552.722-1.189.142-2.356.353-3.566.427-2.398.217-4.81.14-7.124-.118-.071.022-.092-.046-.113-.114-.021-.068-.021-.068.05-.09z" fill="#1C4C5F"/><path d="M210.935 213.535c-1.286-2.665-1.912-5.683-1.63-8.758.141-1.537.464-2.981.929-4.468.415-1.398.971-2.839 1.013-4.196.021-.679-.028-1.336-.239-2.018-.211-.681-.471-1.273-.872-1.822-.4-.548-.871-1.075-1.364-1.67-.492-.595-.956-1.348-1.209-2.166-.415-1.59-.197-3.375.43-4.838.626-1.462 1.315-2.721 1.892-4.093 1.245-2.7 2.308-5.492 3.44-8.305.577-1.373 1.133-2.814 1.801-4.141l1.893-4.093c.323-.698.647-1.395 1.062-2.046.394-.719.858-1.459 1.505-2.107.19-.133.31-.245.5-.378s.38-.266.499-.378c.38-.267.711-.443 1.041-.62.732-.375 1.393-.728 2.075-1.013 2.757-1.299 5.627-2.482 8.447-3.576.071-.022.162.025.162.025.021.068.021.068-.028.158-2.581 1.617-5.254 3.188-7.857 4.738-1.301.775-2.694 1.503-3.559 2.442-.816.849-1.301 2.268-1.878 3.641-.577 1.373-1.154 2.746-1.801 4.14-.647 1.395-1.245 2.699-1.893 4.094-1.245 2.699-2.469 5.466-3.784 8.187-.669 1.327-1.386 2.743-2.005 3.979-.275.608-.528 1.283-.57 1.894-.113.632-.043 1.357.077 1.992.119.636.45 1.206.851 1.754.4.549.963 1.122 1.336 1.829.443.684.745 1.413.977 2.163.126.409.161.771.218 1.202.035.363.021.815-.015 1.199-.119 1.606-.767 3-1.252 4.419-.485 1.42-.901 2.817-1.154 4.24-.345 2.869.048 5.885 1.194 8.593.022.068-.028.158-.028.158-.112-.115-.183-.093-.204-.161z" fill="#1C4C5F"/><path d="M238.95 151.423c-.647 2.141-1.295 4.283-2.034 6.378-.809 2.116-1.639 4.165-2.631 6.188-.52 1.057-1.062 2.046-1.765 3.009-.387.493-.774.986-1.344 1.385-.57.4-1.28.843-2.187.899-.535.016-.718-.077-.95-.08-.253-.072-.485-.075-.717-.078-.232-.003-.394-.028-.535.016l-.021-.069-.021-.068c-.049.09.014.295.028.589.084.273.169.545.134.93.035.362-.099.926-.521 1.056-.401.199-.724.149-.978.078-.07.022-.091-.047-.112-.115-.021-.068.049-.09.049-.09.281-.086.542-.241.57-.399.098-.18.007-.227-.056-.431-.064-.205-.197-.387-.352-.638-.155-.251-.309-.502-.387-1.001-.063-.205-.028-.589.19-.881.219-.291.408-.424.669-.579.471-.22.844-.26 1.125-.347.373-.04.675-.059.978-.078.302-.018.696.01.696.01.211-.065.541-.242.851-.487.38-.266.739-.601 1.076-1.004a15.452 15.452 0 001.914-2.532c1.195-1.862 2.208-3.818 3.2-5.841 1.013-1.956 1.914-4.026 2.836-6.028.049-.089.049-.089.14-.043.134.183.155.251.155.251zm-13.402 30.645a5.924 5.924 0 01-1.287-1.918 3.92 3.92 0 01-.169-1.292c.014-.453.261-.902.598-1.305.626-.716 1.449-1.044 2.181-1.419.752-.307 1.456-.524 2.208-.831 1.456-.524 2.757-1.298 4.185-1.664 1.477-.456 2.905-.821 4.558-.958.07-.021.091.047.112.115 0 0 .021.068-.049.09-1.104 1.162-2.455 2.027-3.848 2.755-1.392.728-3.003 1.001-4.522 1.32-.795.17-1.519.319-2.223.536-.703.217-1.406.434-1.835.79-.429.357-.633.942-.563 1.668.119.635.422 1.363.844 1.98.021.068.042.136-.029.158-.07.022-.161-.025-.161-.025z" fill="#1C4C5F"/><path d="M224.27 207.331c6.176-6.685 10.699-14.726 12.986-23.273.577-2.12 1.063-4.286 1.295-6.524.254-2.169.324-4.431.346-6.603.022-4.413-.14-8.919-.209-13.378-.07-2.219-.14-4.438-.351-6.614-.105-1.087-.211-2.175-.457-3.219-.246-1.045-.541-1.999-1.026-2.82-.197-.388-.577-.868-.844-1.234-.359-.412-.626-.778-1.055-1.168-.696-.756-1.582-1.379-2.468-2.002-1.702-1.267-3.826-2.405-5.535-4.193-.829-.939-1.54-1.989-1.968-3.127l-.528-1.704c-.098-.567-.218-1.203-.295-1.701-.126-1.156-.21-2.176-.506-3.13-.274-.887-.829-1.686-1.666-2.399-1.582-1.379-3.692-2.222-5.781-2.997-2.089-.774-4.353-1.121-6.625-1.242-.07.021-.091-.047-.112-.115-.022-.068.049-.09.119-.112 2.307-.263 4.621-.006 6.928.478 2.187.595 4.486 1.304 6.484 2.779.998.738 1.849 1.745 2.299 2.951.45 1.205.576 2.361.752 3.427.099.567.176 1.066.323 1.543.148.478.296.955.514 1.41.365.933.991 1.711 1.687 2.467 1.372 1.444 3.383 2.467 5.267 3.827 1.885 1.361 3.643 3.059 4.902 5.135.661 1.141.949 2.321 1.146 3.456.197 1.134.253 2.311.358 3.399.161 2.265.161 4.506.161 6.746a868.961 868.961 0 01-.093 13.397c-.071 2.262-.163 4.456-.466 6.716-.302 2.259-.837 4.515-1.484 6.656-2.639 8.655-7.486 16.648-13.866 23.171-.07.021-.14.043-.162-.025-.119.112-.14.043-.07.022zm-21.928-103.018c.133 2.423-.127 4.819-.873 7.14-.837 2.275-2.068 4.521-3.953 6.148-1.886 1.627-4.059 2.82-6.211 4.082l-6.408 3.693-6.428 3.626c-2.174 1.193-4.277 2.365-6.542 3.511-2.194 1.125-4.431 2.114-6.534 3.285a22.29 22.29 0 00-2.848 1.999 10.316 10.316 0 00-2.033 2.643c-.542.989-.971 2.092-1.049 3.087a3.31 3.31 0 00.141 1.45c.147.477.344.865.682 1.209.337.344.675.688 1.132.92.457.232.914.465 1.442.676 1.033.353 2.166.526 3.347.61 1.112.106 2.138-.062 3.285-.341 1.055-.325 2.138-.809 3.221-1.292 2.166-.967 4.34-2.16 6.555-3.217 4.431-2.113 8.82-4.363 13.498-6.179 4.768-1.769 9.713-2.473 14.678-2.361.07-.022.091.046.112.114.021.069-.049.09-.119.112-2.469.239-4.895.614-7.258 1.193-2.364.58-4.685 1.295-6.851 2.262-2.216 1.057-4.34 2.16-6.534 3.285l-6.492 3.421c-2.195 1.125-4.368 2.318-6.583 3.375-1.154.505-2.307 1.01-3.665 1.354a12.775 12.775 0 01-4.051.354c-1.343-.109-2.588-.397-3.875-.822-.619-.257-1.238-.514-1.807-.861-.57-.347-1.112-.852-1.583-1.379-.422-.617-.773-1.255-.984-1.937-.211-.682-.211-1.429-.119-2.129.183-1.401.732-2.616 1.393-3.716.64-1.168 1.484-2.175 2.441-3.068.956-.892 2.068-1.534 3.179-2.175 2.244-1.215 4.48-2.203 6.696-3.26a128.08 128.08 0 006.513-3.353l6.471-3.489 6.471-3.49c2.173-1.193 4.367-2.318 6.224-3.787 1.836-1.537 3.131-3.579 3.968-5.854a17.665 17.665 0 001.077-6.978c-.021-.069.049-.09.119-.112a.525.525 0 01.155.251zm13.318 11.426c.267-1.875.858-3.7 1.449-5.525a31.02 31.02 0 012.554-5.194c1.027-1.661 2.125-3.344 3.56-4.683 1.526-1.292 3.186-2.401 5.064-3.055.07-.022.161.025.183.093.021.068.021.068-.05.09-1.21 1.568-2.462 2.999-3.643 4.409-.626.716-1.203 1.342-1.829 2.058a25.65 25.65 0 00-1.829 2.058c-1.161 1.478-2.139 3.049-3.025 4.667a30.096 30.096 0 00-2.251 5.175c.021.068-.05.09-.141.043l-.042-.136zm-11.581-15.024c2.145-.288 4.255-.939 6.168-1.977 1.914-1.038 3.672-2.327 5.044-3.87 1.371-1.544 2.335-3.41 2.701-5.464.387-1.986.219-4.025-.323-6.024-.224-.976-.611-1.977-1.047-2.888-.436-.912-.893-1.89-1.329-2.802-1.012-1.779-2.145-3.446-3.537-4.958-1.322-1.534-2.953-2.823-4.634-4.022-1.751-1.178-3.65-2.086-5.668-2.883-.092-.046-.092-.046-.043-.136-.021-.068.05-.09.141-.043 4.445.421 8.721 2.538 11.92 5.658 1.576 1.606 2.912 3.434 3.847 5.46.478 1.048.864 2.05 1.251 3.05.387 1.001.654 2.114.9 3.158.443 2.178.534 4.465-.022 6.653-.556 2.188-1.759 4.277-3.342 5.885-1.582 1.609-3.523 2.805-5.549 3.728a17.236 17.236 0 01-6.457 1.543c-.07.022-.091-.046-.112-.114-.049.09.021.068.091.046z" fill="#1C4C5F"/><path d="M208.908 76.224c-.366 2.802-1.175 5.665-2.899 8.063a12.016 12.016 0 01-3.116 3.127c-1.189.89-2.42 1.643-3.538 2.51-1.118.868-2.145 1.782-3.109 2.901-.457.514-.914 1.029-1.35 1.611-.366.561-.802 1.144-.817 1.596-.007.227.014.295.106.341.091.047.345.118.598.19.647.099 1.413.086 2.131.164 1.526.201 3.136.675 4.374 1.936.605.71.907 1.438 1.167 2.03.26.592.591 1.162.992 1.711.731 1.119 1.631 2.036 2.651 2.842 1.019.805 2.278 1.388 3.551 2.265a7.089 7.089 0 011.786 1.54c.492.595 1.006 1.258 1.308 1.987.654 1.366 1.188 2.844 1.09 4.518-.05.836-.31 1.738-.866 2.432-.534.763-1.385 1.249-1.997 1.513-.662.353-1.273.616-1.773.994a5.869 5.869 0 00-1.322 1.454c-.732 1.122-1.077 2.498-1.26 3.898.021.068-.049.09-.119.112-.071.022-.092-.047-.113-.115a9.457 9.457 0 01.578-4.36 7.009 7.009 0 011.336-1.906c.598-.558 1.238-.979 1.878-1.401 2.476-1.211 1.843-4.003.613-6.238-.331-.57-.64-1.072-1.069-1.462-.45-.459-.879-.849-1.449-1.197-1.069-.715-2.44-1.413-3.593-2.401a14.318 14.318 0 01-2.933-3.502c-.421-.617-.724-1.345-1.005-2.005-.281-.66-.541-1.252-.83-1.686-.358-.412-.858-.78-1.406-1.06-.549-.279-1.217-.446-1.864-.545-.647-.1-1.364-.177-2.173-.3-.415-.097-.9-.171-1.329-.562-.113-.114-.225-.229-.267-.365-.113-.115-.155-.251-.197-.388a1.395 1.395 0 01-.021-.815c.239-.97.675-1.552 1.182-2.157.436-.582.963-1.118 1.491-1.654a28.902 28.902 0 013.341-2.898c1.21-.821 2.511-1.596 3.672-2.327 1.23-.753 2.236-1.736 3.13-2.833 1.695-2.24 2.687-5.01 3.236-7.719-.021-.068.049-.09.12-.112.042.137.133.183.084.273zm-30.46-9.052l5.112 2.83a112.51 112.51 0 015.183 2.807c.844.487 1.688.973 2.511 1.391.366.186.802.35 1.104.332.232.003.401-.198.549-.468.344-.63.373-1.534.26-2.395a4.508 4.508 0 00-.928-2.253c-.956-1.348-2.623-2.253-4.381-3.205-1.779-1.02-3.432-2.377-4.634-4.022a20.551 20.551 0 01-2.806-5.333c-.66-1.888-1.089-3.772-1.237-5.743-.021-.068.05-.09.12-.111.07-.022.091.046.091.046 1.491 3.573 3.101 7.035 5.569 9.784 1.21 1.419 2.567 2.569 4.114 3.585 1.568 1.085 3.439 2.15 4.634 4.022a6.799 6.799 0 011.02 3.047c.007.52.014 1.04-.05 1.583-.063.543-.197 1.107-.563 1.668-.147.27-.365.56-.696.737a1.476 1.476 0 01-1.055.325c-.767.013-1.245-.288-1.702-.52-.914-.465-1.709-1.041-2.504-1.618a243.436 243.436 0 00-4.894-3.12l-4.916-3.19c-.091-.046-.042-.136-.042-.136.049-.09.12-.111.141-.043z" fill="#1C4C5F"/><path d="M182.542 62.474c-2.046-.638-4.085-1.503-5.907-2.659-1.821-1.156-3.467-2.74-4.88-4.32a52.18 52.18 0 00-2.089-2.268c-.745-.666-1.47-1.264-2.243-1.773-1.568-1.084-3.495-1.834-5.563-2.54-.091-.047-.091-.047-.042-.137l.049-.09c2.223-.536 4.649-.164 6.66.858 1.006.512 2.005 1.25 2.673 2.163.738.893 1.315 1.76 1.891 2.628a21.479 21.479 0 004.107 4.559c1.561 1.31 3.432 2.377 5.331 3.285.091.046.112.114.042.136.063.205.063.205-.029.158z" fill="#1C4C5F"/><path d="M163.891 65.687c.317-2.711.24-5.45-.28-8.128-.52-2.677-.97-5.377-2.292-7.657-1.322-2.281-3.523-3.918-6.055-4.63a13.65 13.65 0 00-3.931-.505c-1.301.027-2.546.486-3.861.966-2.631.961-5.24 1.99-7.85 3.019-2.63.96-5.331 1.943-8.137 2.584a30.625 30.625 0 01-4.361.598c-1.442.072-2.905.075-4.36-.148-2.982-.425-5.605-1.931-7.539-3.949-.021-.068-.042-.136.028-.158l.141-.043c2.32 1.525 4.915 2.442 7.581 2.59a24.032 24.032 0 004.023-.194c1.329-.186 2.729-.394 3.995-.784 1.287-.323 2.602-.803 3.938-1.215 1.337-.412 2.673-.825 3.988-1.305l8.046-2.63c1.337-.413 2.814-.869 4.368-.825a10.4 10.4 0 012.222.21c.739.146 1.477.292 2.167.527 2.827.92 5.274 2.855 6.61 5.43 1.336 2.575 1.596 5.407 2.024 8.038a29.983 29.983 0 01-.212 8.28c.021.069-.049.09-.119.112-.092-.046-.113-.114-.134-.183z" fill="#1C4C5F"/><path d="M133.523 55.189c-.247.449-.514.83-.76 1.28-.267.38-.514.83-.851 1.233-.268.381-.472.967-.894 1.097-.19.133-.471.22-.773.239-.282.086-.584.105-.999.009-.091-.047-.183-.093-.134-.183a2.35 2.35 0 01.099-.927c.077-.248.155-.495.324-.697.246-.45.83-.555 1.209-.821.38-.267.851-.487 1.302-.775.471-.22.851-.486 1.343-.638.07-.022.162.025.162.025-.05.09-.028.158-.028.158zm15.88 8.992c1.027-.167 2.012-.47 2.792-.935a5.525 5.525 0 001.963-1.875c.267-.381.373-.787.549-1.215.105-.406.281-.834.457-1.261.352-.856.703-1.71 1.224-2.768.049-.09.12-.111.141-.043l.021.068c.379.48.548 1.026.647 1.593.098.567.126 1.156.063 1.698-.106 1.153-.95 2.16-1.696 2.988a6.932 6.932 0 01-2.912 1.794 6.912 6.912 0 01-3.256.183c-.07.021-.091-.047-.112-.115.049-.09.049-.09.119-.112zm7.643 11.011c-2.131.583-4.312 1.255-6.38 2.042-2.088.72-4.114 1.643-6.119 2.634-.991.53-1.983 1.06-3.158 1.497-1.174.437-2.482.691-3.706.471-2.567-.328-4.677-1.918-5.823-3.88-.021-.068-.042-.136.028-.158l.071-.022c1.005.512 1.941 1.045 2.953 1.33.943.307 1.934.524 2.933.514 1.857.025 3.847-.514 5.964-1.391 2.138-.809 4.298-1.55 6.52-2.086 2.223-.536 4.417-.914 6.632-1.224.071-.021.092.047.113.115.091.046.042.136-.028.158zm-20.198-3.031l-8.581 2.647c-1.407.433-2.884.889-4.311 1.255l-4.333 1.187c-1.407.433-2.834.8-4.107 1.416-1.203.595-2.434 1.348-3.482 2.194-2.258 1.667-4.115 3.883-5.909 6.303-.049.09-.14.043-.14.043l-.043-.136c.718-2.91 2.315-5.717 4.678-7.79 1.217-1.048 2.568-1.913 4.073-2.526 1.526-.546 3.045-.865 4.494-1.162l4.438-.846c1.449-.298 2.898-.595 4.417-.914 2.968-.617 5.866-1.212 8.834-1.829.07-.022.091.047.112.115-.021-.068-.07.022-.14.043zm-22.261 3.505c.113-1.38.226-2.758.127-4.072a18.198 18.198 0 00-.527-3.945c-.26-1.339-.85-2.5-1.089-3.772-.12-.635-.309-1.248-.45-1.952-.141-.703-.26-1.339-.26-2.085-.021-.069.049-.09.12-.112 0 0 .07-.022.091.047 1.203.898 2.046 2.132 2.609 3.452.281.66.492 1.342.562 2.067l.211 2.175c.14 1.45.049 2.898-.134 4.298a18.56 18.56 0 01-1.035 4.128c.021.068-.049.09-.14.044l-.085-.273zm39.7 12.027a37.011 37.011 0 01-11.43 6.139c-4.199 1.37-8.601 1.831-12.87 2.476-2.146.288-4.361.598-6.569.681-1.069.031-2.23.016-3.229.025-.534.016-.998.01-1.441.072-.443.062-.725.148-1.055.325-.331.177-.64.421-.837.78-.218.292-.394.72-.619 1.237-.401.946-.922 2.002-1.555 2.944a16.317 16.317 0 01-4.629 4.714c-.07.021-.14.043-.161-.025-.021-.068-.021-.068.028-.158 1.421-1.633 2.567-3.406 3.391-5.228.401-.945.731-1.869 1.041-2.86.155-.496.359-1.082.724-1.643a6.215 6.215 0 011.393-1.475c.57-.4 1.344-.638 1.927-.743.654-.127 1.21-.075 1.815-.112 1.09.037 2.18.074 3.249.043 2.11.096 4.227-.034 6.393-.254 4.262-.418 8.588-.632 12.709-1.754 4.143-1.053 8.032-2.925 11.612-5.299.071-.022.141-.043.162.025 0 0 .021.068-.049.09zm-52.679 16.248c-.549 1.961-.936 3.948-1 5.984.007 2.014.387 3.988 1.237 5.742.436.911 1.111 1.599 1.857 2.265.745.666 1.491 1.333 2.306 1.977l4.705 4.001c1.561 1.311 3.073 2.712 4.585 4.112.766.735 1.512 1.401 2.18 2.315.309.502.548 1.026.717 1.571.169.546.267 1.113.274 1.634.056 1.177-.232 2.237-.472 3.207-.239.97-.478 1.94-.556 2.935-.169.948-.155 1.989-.183 2.894.063.951.218 1.949.351 2.879a332.44 332.44 0 002.51 11.847c.449 1.952.899 3.905 1.441 5.904.224.976.492 2.088.527 3.198.035 1.109-.043 2.104-.099 3.167-.078.995-.155 1.989.035 2.603.084.273.196.387.45.459.182.093.576.12 1.019.058.887-.123 1.829-.563 2.722-.914.964-.372 1.906-.812 2.94-1.205a61.8 61.8 0 0112.217-3.096c.07-.022.091.047.113.115.021.068-.05.09-.12.111a90.312 90.312 0 00-11.697 4.28l-2.827 1.32c-.943.44-1.934.97-3.102 1.181-.584.105-1.329.186-2.089-.028-.344-.118-.731-.372-1.047-.648-.317-.276-.514-.663-.619-1.004-.281-.66-.309-1.249-.338-1.838a9.062 9.062 0 01.05-1.583c.077-.995.064-2.036.092-2.941-.042-.883-.246-1.791-.471-2.767-.45-1.953-.921-3.973-1.3-5.947-.38-1.974-.78-4.016-1.09-6.012-.309-1.996-.688-3.97-1.019-6.034-.154-.998-.33-2.064-.273-3.127.035-1.131.112-2.126.26-3.142.148-1.016.436-2.076.676-3.046.309-.992.57-1.894.528-2.777a4.03 4.03 0 00-.19-1.36c-.148-.478-.253-.818-.52-1.184a14.363 14.363 0 00-1.976-2.154 125.363 125.363 0 00-4.445-4.156l-4.514-4.134a90.288 90.288 0 01-2.279-2.135c-.766-.734-1.483-1.558-1.87-2.559-.893-1.891-1.244-4.023-1.111-6.081.134-2.057.592-4.065 1.211-6.049-.021-.068.049-.09.141-.043.021.068.112.115.063.205zm-9.474 105.608c.38-1.013.851-1.98 1.414-2.9.633-.942 1.4-1.702 2.462-2.253.992-.53 2.3-.784 3.404-.453 1.083.264 2.068.707 3.08.992 1.013.285 2.005.502 3.025.561 1.019.059 1.976-.087 2.96-.39 1.991-.54 3.946-1.441 5.902-2.343 1.955-.902 3.91-1.804 5.753-2.82.921-.508 1.864-.948 2.532-1.528.38-.266.528-.536.626-.716.077-.248.183-.654.078-.995-.092-.793-.436-1.658-.992-2.457-.485-.821-1.181-1.577-1.877-2.334-1.393-1.512-3.024-2.801-4.677-4.158l-.042-.137.141-.043a21.426 21.426 0 015.633 3.266c.837.713 1.674 1.426 2.412 2.318.738.893 1.357 1.897 1.617 3.236a4.183 4.183 0 01-.134 2.057c-.302.766-.83 1.302-1.308 1.748-.999.756-2.012 1.218-3.025 1.68-2.046.855-4.044 1.62-6.02 2.454-1.998.765-4.045 1.621-6.267 2.157a10.696 10.696 0 01-3.397.226c-1.111-.105-2.265-.347-3.249-.79-1.034-.354-1.969-.887-2.912-1.193-.942-.307-1.92-.23-2.862.21-.943.44-1.73 1.131-2.335 1.916-.676.805-1.168 1.704-1.618 2.739-.05.09-.05.09-.141.043-.162-.024-.183-.093-.183-.093z" fill="#1C4C5F"/><path d="M129.911 187.965l-7.013 2.984-3.552 1.469c-1.153.505-2.349.874-3.481 1.447a15.584 15.584 0 00-3.194 1.881 41.18 41.18 0 00-1.427 1.113c-.429.356-.887.871-1.527 1.292a5.449 5.449 0 01-1.976.834 6.274 6.274 0 01-2.138.062c-1.365-.177-2.56-.555-3.805-.843a73.243 73.243 0 00-3.622-.75c-1.224-.22-2.497-.35-3.7-.502a21.393 21.393 0 00-3.593-.161c-1.14.052-2.328.195-2.877.663-.239.223-.408.424-.422.877-.035.384.134.929.281 1.407.366.932 1.083 1.757 2.019 2.29 1.962 1.112 4.507 1.373 7.025 1.044.07-.022.092.047.113.115.021.068-.05.09-.05.09-2.419.895-5.24 1.242-7.827.099-1.308-.493-2.412-1.571-3.045-2.87-.281-.66-.563-1.32-.584-2.135.015-.452.05-.837.226-1.264.176-.428.443-.809.802-1.144.717-.669 1.49-.908 2.215-1.057.725-.148 1.4-.207 2.075-.266 1.371-.05 2.665.149 3.96.347 1.294.198 2.538.487 3.762.707 1.245.288 2.49.576 3.756.932 1.195.378 2.391.757 3.523.93a4.368 4.368 0 001.625.022c.513-.084 1.076-.257 1.526-.546.45-.288.858-.712 1.358-1.09.478-.447 1.069-.778 1.568-1.156 1.09-.71 2.293-1.305 3.446-1.81l14.349-5.172c.07-.022.161.025.161.025.092.046.113.114.043.136zm-43.993 14.689c-.999.756-2.11 1.397-3.397 1.72-1.287.322-2.743.099-3.931-.505-1.21-.673-2.09-1.522-2.99-2.439-.9-.918-1.638-1.81-2.467-2.749-.83-.939-1.66-1.878-2.42-2.839-.759-.96-1.448-1.943-2.116-2.857-1.385-1.738-3.171-3.279-5.12-4.844l-.041-.136.14-.043c1.294.198 2.44.666 3.63 1.27 1.117.626 2.207 1.41 3.107 2.328.921.985 1.61 1.967 2.25 3.04.62 1.004 1.308 1.986 1.998 2.968.689.983 1.448 1.943 2.207 2.904.739.893 1.569 1.832 2.455 2.454.886.623 2.06.933 3.249.791 1.188-.143 2.363-.58 3.404-1.2.07-.021.14-.043.162.025-.07.022-.05.09-.12.112z" fill="#1C4C5F"/><path d="M54.416 160.093a53.848 53.848 0 00-1.753 7.038c-.422 2.37-.591 4.812-.781 7.186-.1 2.42-.268 4.862.477 7.022.169.546.408 1.069.647 1.593l.464.753c.154.251.358.412.562.573.858.781 1.808 1.609 2.687 2.458a183.04 183.04 0 015.035 5.318 48 48 0 012.348 2.86c.71 1.05 1.35 2.123 1.85 3.238.239.524.527.958.886 1.37.358.412.717.824 1.146 1.215.408.322.865.555 1.413.833a21.12 21.12 0 011.695.747c1.189.605 2.187 1.342 3.136 2.17.95.827 1.8 1.834 2.588 2.637.809.871 1.625 1.515 2.63 2.026.528.211.985.444 1.562.564.323.05.76.214 1.034.354.344.118.64.325.914.465 1.21.672 2.173 1.794 2.84 2.708.36.412.697.756 1.063.942.182.093.365.186.597.189.232.003.254.071.394.028s.471-.22.915-.282c.421-.13.794-.17 1.188-.142a6.458 6.458 0 012.194.368c.69.236 1.26.583 1.787.794.527.21 1.055.421 1.56.564.507.142 1.175.31 1.66.384.254.071.556.053.718.077.162.025.443-.062.162.025-.07.022-.12.112-.169.202-.05.089-.099.179-.078.248-.028.158 0 0-.02-.069l-.254-.818c-.19-.613-.309-1.249-.428-1.884-.014-.294-.099-.567-.155-.998-.042-.136.007-.226.014-.452.05-.09.007-.226.106-.406.077-.248.148-.27.197-.36.267-.381.689-.511.97-.598.141-.043.303-.018.443-.062.141-.043.233.003.303-.018.232.003.394.028.555.052.324.05.669.168.992.217 1.245.289 2.349.62 3.552.772 1.132.174 2.313.257 3.544.251.605-.037 1.14-.053 1.723-.158.584-.105 1.168-.211 1.822-.338.675-.059 1.442-.071 2.089.028.647.099 1.315.267 1.913.456 1.216.446 2.426 1.118 3.256 2.057 1.821 1.903 2.362 4.649 1.87 7.041.021.068-.05.09-.12.112-.07.021-.091-.047-.113-.115.085-1.221-.041-2.377-.449-3.446-.408-1.069-1.027-2.073-1.864-2.786-.857-.781-1.863-1.292-2.967-1.624-.577-.121-1.154-.242-1.709-.294a6.282 6.282 0 00-1.604.046c-.513.084-1.146.279-1.779.474-.654.127-1.308.254-1.984.313-1.28.096-2.602.056-3.875-.074-1.273-.13-2.518-.418-3.741-.638-.324-.05-.577-.121-.809-.124-.162-.025-.253-.072-.324-.05-.07.022-.07.022-.161-.025l-.07.022s.14-.043.19-.133c.07-.022 0 0 .098-.18.049-.09.028-.158.028-.158-.021-.068 0 0 0 0 .042.136.077.499.162.772.098.567.267 1.112.435 1.657l.274.887c.064.204.127.409.092.793a1.115 1.115 0 01-.253.676 1.613 1.613 0 01-.458.514c-.38.267-.682.285-.893.35-.281.087-.443.062-.675.059a15.058 15.058 0 01-1.111-.105c-.647-.099-1.245-.288-1.913-.456-.668-.167-1.287-.424-1.906-.682-.619-.257-1.097-.557-1.533-.722-.436-.164-.992-.217-1.456-.223-.232-.003-.464-.006-.675.059l-.844.26c-.422.131-1.048.1-1.463.004a4.754 4.754 0 01-1.125-.4c-.732-.372-1.224-.967-1.604-1.447-.78-1.029-1.406-1.807-2.341-2.34a4.144 4.144 0 00-.661-.394c-.275-.139-.366-.186-.69-.235a3.297 3.297 0 01-.942-.307 6.536 6.536 0 01-.893-.397c-1.188-.604-2.25-1.546-3.08-2.485-.83-.939-1.568-1.831-2.426-2.612-.858-.781-1.765-1.472-2.792-2.052-.478-.301-1.006-.511-1.625-.768-.548-.279-1.188-.605-1.709-1.042a8.101 8.101 0 01-1.37-1.444 9.114 9.114 0 01-.992-1.71c-.478-1.048-1.027-2.074-1.716-3.056-.619-1.004-1.427-1.875-2.187-2.836a179.926 179.926 0 00-4.824-5.382c-.808-.871-1.687-1.72-2.566-2.569-.225-.23-.45-.459-.626-.778-.155-.251-.33-.57-.485-.821-.26-.592-.52-1.184-.69-1.73-.688-2.476-.449-4.939-.259-7.313.261-2.396.43-4.838.993-7.252a49.037 49.037 0 011.984-7.034c-.02-.068.05-.09.141-.044.12-.111.14-.043.092.047z" fill="#1C4C5F"/><path d="M107.916 215.735c.07 1.472.513 2.903 1.336 4.069.893 1.143 2.123 1.884 3.502 2.355.689.235 1.406.313 2.124.39.717.078 1.371-.049 2.187-.152 1.632-.204 3.453.205 4.895.881 1.42.607 2.792 1.304 4.184 2.07l1.983 1.18c.296.208.591.416.865.555.275.14.528.211.802.35 1.104.332 2.504.124 3.889-.378 1.386-.502 2.708-1.208 4.101-1.937.07-.021.141-.043.162.025.021.068.021.068-.028.158a14.795 14.795 0 01-3.581 3.121c-.71.443-1.463.75-2.307 1.01a7.347 7.347 0 01-2.743.099c-.485-.074-.921-.238-1.378-.471-.436-.164-.752-.44-1.048-.648l-1.842-1.224c-1.182-.83-2.504-1.617-3.805-2.336-.64-.326-1.28-.651-1.948-.818-.668-.168-1.315-.267-2.061-.186-.675.059-1.582.114-2.391-.01a12.33 12.33 0 01-2.349-.619c-1.491-.586-2.806-1.599-3.692-2.969-.794-1.323-1.139-2.935-.977-4.404-.021-.068.05-.09.12-.111-.021-.068-.042-.137 0 0zm10.908-8.817c1.913.456 3.819 1.137 5.451 2.427.815.644 1.441 1.422 2.039 2.358.527.957.773 2.002 1.076 2.73.302.728.886 1.37 1.589 1.9.633.551 1.385.991 2.067 1.453.387.254.753.44 1.097.558.366.186.781.282 1.196.378.394.028.788.056 1.139-.053.352-.108.732-.375 1.069-.778.071-.021.141-.043.162.025l.021.068a2.54 2.54 0 01-.696 1.485 2.775 2.775 0 01-1.695.747c-1.189.142-2.342-.099-3.327-.543-.984-.443-1.87-1.066-2.588-1.89-.717-.824-1.385-1.738-1.701-2.761-.338-1.091-.429-1.884-.752-2.681-.324-.796-.858-1.527-1.463-2.237-1.259-1.33-2.947-2.303-4.712-3.028-.091-.046-.091-.046-.042-.136 0 0-.021-.068.07-.022zm-18.737 11.156c.669.167 1.266.356 1.913.456.647.099 1.203.151 1.808.114.605-.037 1.125-.347 1.681-.294.302-.019.555.053.879.102l1.132.174c.092.046.113.114.134.182-.282.834-.971 1.345-1.724 1.652-.752.307-1.603.047-2.271-.121-.739-.145-1.379-.471-2.019-.796-.569-.347-1.16-.762-1.631-1.289-.021-.068-.042-.137.028-.158l.07-.022zm-43.021-53.646c-.479 1.94-.725 3.883-.67 5.808-.014 1.946.324 3.783.823 5.646.478 1.794 1.497 3.347 2.496 4.831 1.02 1.553 2.278 2.882 3.79 4.283.021.068.042.136-.028.158l-.07.022c-2.054-.413-3.967-1.615-5.38-3.195-.718-.825-1.294-1.692-1.68-2.693-.388-1.001-.633-2.046-.788-3.044-.155-.997-.239-2.017-.323-3.037-.014-1.041-.007-2.014.14-3.03.297-2.033.775-3.973 1.577-5.864.05-.089.05-.089.14-.043 0 0 .022.068-.028.158zm10.491 16.481a11.714 11.714 0 01-2.186-4.329c-.415-1.59-.549-3.267-.267-4.847.19-1.627.683-3.273 1.632-4.686.486-.672 1.112-1.388 1.822-1.831.69-.512 1.583-.862 2.448-1.054 1.73-.384 3.446-.316 5.092-.226 1.624.022 3.383.226 4.972.632.83.192 1.568.338 2.42.598.414.096.85.261 1.328.561.275.14.43.391.563.573.133.183.288.434.422.617.457.979.429 1.884.499 2.609.07.726.21 1.429.611 1.978.33.57.78 1.028 1.372 1.444.59.415 1.322.787 1.983 1.18 1.392.766 2.764 1.463 4.198 1.618.647.099 1.344.108 1.977-.087.562-.173 1.153-.505 1.54-.998.478-.446.844-1.007 1.168-1.704.274-.607.457-1.261.619-1.983.183-1.401.113-2.873-.33-4.305-.422-1.363-1.146-2.708-2.159-3.74a7.725 7.725 0 00-3.903-2.157c-1.498-.359-3.172-.291-4.761.05-.07.021-.092-.047-.113-.115-.02-.068.05-.09.05-.09 1.554-.703 3.256-.93 4.972-.862.88.103 1.71.295 2.581.623a9.496 9.496 0 012.279 1.389 9.97 9.97 0 012.932 4.248c.647 1.593.822 3.406.674 5.169-.119.859-.38 1.761-.731 2.616a9.108 9.108 0 01-1.583 2.355c-.697.738-1.618 1.246-2.603 1.55-.984.303-2.004.244-2.975.096-1.87-.32-3.375-1.2-4.81-2.101-.682-.462-1.414-.834-2.117-1.364-.703-.53-1.4-1.286-1.814-2.129a6.688 6.688 0 01-.66-2.634c-.043-.883-.022-1.562-.26-2.086-.043-.136-.155-.251-.197-.387-.113-.115-.226-.229-.317-.276-.204-.161-.549-.279-.893-.397-.69-.235-1.52-.427-2.279-.641-1.519-.428-3.045-.629-4.712-.787-1.645-.09-3.242-.27-4.761.049a5.655 5.655 0 00-3.742 2.349c-.922 1.255-1.456 2.765-1.759 4.277-.281 1.58-.26 3.142.063 4.686.323 1.543.998 2.978 1.933 4.257.021.069.042.137-.028.158-.098.18-.19.134-.19.134z" fill="#1C4C5F"/><path d="M90.192 169.148c-2.173-1.047-4.121-2.612-5.5-4.577-1.378-1.965-2.116-4.351-2.32-6.752-.055-1.178.008-2.467.416-3.639.408-1.171 1.048-2.339 2.026-3.164.957-.892 2.089-1.465 3.355-1.856 1.196-.369 2.455-.533 3.735-.629 2.51-.102 5.05.384 7.243 1.5a22.348 22.348 0 013.144 1.943c.928.759 1.878 1.587 2.707 2.526 3.207 3.641 5.415 8.038 6.778 12.696.718 2.318 1.224 4.701 1.357 7.124.077 1.246.063 2.446-.141 3.778-.226 1.264-.683 2.526-1.182 3.651-.296.539-.641 1.168-1.006 1.729-.387.493-.774.985-1.231 1.5-.866.939-1.822 1.831-2.912 2.541-1.091.709-2.293 1.304-3.58 1.627-.633.195-1.449.297-2.054.334a13.95 13.95 0 01-1.97-.139c-2.517-.418-4.796-1.06-7.166-1.748-2.278-.641-4.648-1.329-6.899-2.129-2.25-.799-4.55-1.509-6.829-2.151-2.278-.641-4.676-1.171-7.004-1.723-.07.022-.092-.046-.113-.114-.021-.068.05-.09.12-.112 2.454.214 4.79.539 7.237.979 2.377.462 4.775.992 7.053 1.634 2.35.619 4.607 1.193 7.005 1.723 2.328.551 4.677 1.171 6.92 1.45 1.133.174 2.202.143 3.116-.139 1.055-.326 2.068-.788 2.947-1.432.9-.577 1.829-1.311 2.575-2.138a9.443 9.443 0 001.062-1.299c.316-.471.584-.852.809-1.37.471-.966.921-2.001 1.118-3.108.219-1.038.254-2.169.219-3.278-.091-2.287-.485-4.556-1.089-6.759-1.209-4.407-3.234-8.711-6.167-12.213-.738-.893-1.526-1.695-2.433-2.386-.858-.781-1.814-1.382-2.82-1.894-2.032-1.091-4.339-1.574-6.709-1.515-2.3.037-4.775.502-6.47 1.996-.859.712-1.47 1.723-1.85 2.736-.36 1.081-.465 2.234-.43 3.344.09 2.287.738 4.626 2.024 6.545a13.854 13.854 0 005.197 4.595c.092.047.113.115.042.137-.19.133-.26.155-.33.176zm-9.1-12.727c-1.505.614-3.144 1.044-4.782.728-.81-.124-1.681-.452-2.314-1.004-.724-.598-1.048-1.394-1.35-2.123-.556-1.546-.928-2.999-1.512-4.388-.583-1.388-1.237-2.755-2.032-4.078-.773-1.255-1.722-2.829-1.898-4.642a7.814 7.814 0 01.106-2.647c.19-.88.563-1.667.886-2.364 1.196-2.609 1.246-5.687.993-8.745-.02-.068.05-.09.12-.112.07-.022.091.047.091.047.675 1.434 1.16 3.002 1.343 4.589.183 1.587.035 3.35-.55 4.949-.302.766-.555 1.441-.668 2.073-.112.632-.204 1.333-.155 1.99.05.657.169 1.292.38 1.974.21.682.562 1.32.935 2.027a50.835 50.835 0 011.814 4.369c.534 1.478.787 3.043 1.23 4.475.21.682.492 1.342.963 1.869.45.458 1.182.83 1.85.997 1.427.382 3.038.109 4.606-.3.07-.022.092.046.113.115-.05.089-.12.111-.169.201zm-14.676-14.069c-1.73 1.131-3.658 1.875-5.69 2.278-2.054.334-4.15.533-6.175-.037-1.013-.285-1.998-.729-2.813-1.373a5.677 5.677 0 01-1.73-2.603c-.295-.955-.52-1.931-.816-2.885-.224-.977-.52-1.931-.794-2.817a76.442 76.442 0 00-1.94-5.526c-.78-1.775-1.582-3.619-2.721-5.06-.605-.71-1.26-1.33-2.019-1.544-.76-.213-1.758-.204-2.44.081a1.785 1.785 0 00-.88.645c-.217.291-.414.65-.52 1.056-.281.834-.38 1.76-.387 2.734-.106 1.899.042 3.87.189 5.841.007.521.063.951.091 1.54.007.521.056 1.178-.457 2.008-.267.381-.697.738-1.119.868-.422.13-.865.192-1.188.143-.718-.078-1.245-.289-1.773-.499-.527-.211-1.005-.512-1.504-.881a4.831 4.831 0 00-.725-.598c-.225-.229-.38-.48-.604-.709a7.865 7.865 0 01-1.294-3.186c-.351-2.132-.218-4.19-.013-6.269.45-4.023.943-7.909 1.253-11.888.31-3.979.641-7.889.93-11.937-.02-.068.05-.09.12-.111.07-.022.091.046.112.114.681 7.931.476 15.985-.235 23.896-.155 1.99-.19 3.868.126 5.637.183.84.436 1.658.879 2.343l.38.48.428.391c.317.276.682.462 1.048.648.366.185.802.35 1.104.331.162.025.232.003.303-.018l.07-.022c.07-.022.155-.496.19-.88a9.275 9.275 0 00-.05-1.404c-.076-1.993-.153-3.985-.02-6.043.078-.995.205-2.079.564-3.161.225-.517.429-1.103.907-1.549a3.285 3.285 0 011.59-1.088c.633-.195 1.217-.301 1.751-.316.605-.037 1.182.083 1.78.273 1.216.446 2.025 1.317 2.65 2.094 1.224 1.714 2.026 3.558 2.757 5.424.731 1.865 1.322 3.774 1.842 5.705l.674 2.928c.225.976.38 1.974.654 2.86.274.887.69 1.73 1.413 2.328.725.598 1.569 1.084 2.49 1.323 1.864.545 3.931.505 5.936.26 2.004-.244 3.931-.988 5.683-2.051.07-.022.14-.043.162.025a.903.903 0 00-.17.201z" fill="#1C4C5F"/><path d="M21.456 124.031c-1.174-7.032-1.04-14.317.713-21.355.45-1.782.992-3.517 1.857-5.203.795-1.664 2.005-3.232 3.37-4.55 1.364-1.316 2.863-2.45 4.586-3.355.872-.418 1.744-.837 2.771-1.004.211-.065.514-.084.816-.102a3.57 3.57 0 01.858.034c.253.07.577.12.83.192.274.14.527.21.802.35.57.347.97.895 1.188 1.351.218.456.365.933.492 1.342l.801 2.59 1.512 5.136c.457 1.726.984 3.43 1.54 4.976.252.819.646 1.593 1.026 2.074.155.251.359.412.633.551.274.14.436.164.738.146.605-.037 1.569-.409 2.342-.648a7.232 7.232 0 002.195-1.125c1.4-.954 2.532-2.274 3.826-3.57a96.322 96.322 0 017.878-7.657c.07-.022.141-.043.162.025.021.068.021.068-.028.158-2.293 2.798-4.586 5.596-6.858 8.463-1.112 1.388-2.251 2.935-3.799 4.159a10.324 10.324 0 01-2.623 1.481c-.472.22-.894.35-1.316.48-.492.152-.984.304-1.568.409-.605.037-1.322-.04-1.87-.319-.62-.257-1.14-.694-1.428-1.128-.739-.892-1.013-1.779-1.357-2.643-.619-1.751-1.006-3.499-1.462-5.225l-1.28-5.132c-.183-.84-.457-1.726-.64-2.566-.126-.409-.253-.818-.428-1.137-.176-.32-.31-.502-.514-.663-.478-.3-1.216-.447-2.011-.276-.816.102-1.569.409-2.37.806-1.534.771-2.983 1.816-4.319 2.974-1.336 1.16-2.378 2.526-3.215 4.054-.837 1.528-1.4 3.195-1.871 4.909-1.977 6.808-2.435 14.044-1.585 21.026.02.068-.05.09-.12.111-.232-.003-.253-.071-.274-.139zm9.851 14.661c-.148 2.51.351 5.119 1.8 7.062.689.983 1.617 1.742 2.714 2.3 1.027.579 2.244 1.025 3.313.994.232.004.443-.061.654-.127.14-.043.19-.133.239-.223.148-.269.211-.812.134-1.311-.035-1.109-.323-2.29-.541-3.492-.218-1.202-.506-2.383-.766-3.722-.24-1.27-.338-2.584-.204-3.895-.02-.068.05-.09.12-.112.07-.021.091.047.091.047l1.54 3.483c.26.592.5 1.116.78 1.776.26.591.45 1.205.661 1.887.4 1.295.64 2.566.57 4.081-.092.701-.142 1.537-.725 2.389-.17.202-.338.403-.598.558-.12.112-.26.155-.33.177l-.352.108c-.493.152-.957.146-1.35.118-1.597-.18-2.856-.762-4.017-1.525-1.16-.762-2.151-1.726-2.834-2.934a10.463 10.463 0 01-1.25-3.796 10.861 10.861 0 01.19-3.868c-.021-.068.049-.09.12-.112.02.069.112.115.041.137z" fill="#1C4C5F"/><path d="M25.428 138.115c-.506-3.13-.871-6.303-1.166-9.498a102.517 102.517 0 01-.21-9.644c.078-3.235.085-6.449.719-9.631.563-3.161 1.358-6.319 2.66-9.334.049-.09.049-.09.14-.044.07-.021.092.047.043.137-.078 3.235-.41 6.399-.67 9.541-.26 3.143-.824 6.303-1.084 9.446-.26 3.142-.43 6.331-.438 9.545a131.34 131.34 0 00.26 9.554c.02.068-.05.089-.12.111-.113-.115-.113-.115-.134-.183z" fill="#1C4C5F"/><path d="M51.89 159.901c-2.637-.307-5.288-.908-7.742-1.869-2.455-.96-4.733-2.349-6.864-4.007-2.04-1.611-4.05-3.381-5.97-5.104-1.99-1.701-3.882-3.582-5.345-5.819-.801-1.097-1.413-2.328-1.863-3.533a35.114 35.114 0 01-1.37-3.685c-.83-2.433-1.681-4.933-2.44-7.388l-2.229-7.453c-.38-1.227-.689-2.476-1.09-3.771-.19-.614-.309-1.249-.45-1.952-.034-.363-.07-.726-.105-1.088a5.131 5.131 0 01-.014-1.041c-.006-2.762.655-5.355 1.338-7.881.682-2.526 1.527-5.026 2.3-7.506.845-2.5 1.619-4.98 2.625-7.456.549-1.214 1.006-2.476 1.646-3.644.62-1.236 1.26-2.405 2.132-3.57.436-.582.872-1.165 1.561-1.676.31-.245.69-.512 1.112-.642.351-.108.541-.242.801-.397.45-.288.81-.622 1.027-.914.176-.427.176-.427-.105-1.087-.084-.273-.302-.729-.358-1.16a1.127 1.127 0 01.02-.678c.008-.226.085-.474.162-.722.331-.924 1.09-1.457 1.66-1.856 1.21-.822 2.343-1.395 3.342-2.151 1.02-.688 1.885-1.627 2.588-2.59.387-.493.612-1.011.886-1.618.204-.586.409-1.172.662-1.847.253-.676.668-1.327 1.217-1.795.548-.468 1.118-.867 1.8-1.152 1.295-.549 2.694-.756 4.016-.716.07-.022.092.046.113.114.021.069-.05.09-.12.112-1.35.118-2.637.44-3.748 1.081-.52.31-1.02.688-1.477 1.203a3.346 3.346 0 00-.838 1.528c-.204.585-.316 1.217-.5 1.871a7.22 7.22 0 01-.872 1.912 12.14 12.14 0 01-2.722 3.155c-1.027.914-2.279 1.6-3.278 2.355-.499.378-.837.781-.893 1.097-.05.09-.028.158-.077.248.02.068-.028.158.014.295.063.204.126.409.28.66.156.25.374.706.38 1.227.078.499-.077.995-.253 1.422-.422.877-1.09 1.457-1.73 1.878-.33.177-.732.375-.992.53-.19.133-.4.198-.64.422-.359.334-.767.759-1.154 1.252-1.385 1.995-2.412 4.403-3.37 6.79-.956 2.386-1.822 4.818-2.666 7.319a200.555 200.555 0 00-2.484 7.413c-.773 2.479-1.407 4.915-1.485 7.403a8.36 8.36 0 00.085 1.766c.098.567.218 1.203.407 1.816.31 1.249.619 2.498.998 3.725l2.088 7.497c.69 2.476 1.448 4.93 2.208 7.384.38 1.228.83 2.433 1.28 3.638.45 1.206 1.019 2.3 1.729 3.35 1.42 2.102 3.171 4.026 5.02 5.771 1.92 1.723 3.79 3.536 5.781 5.237 1.97 1.633 4.177 3.043 6.582 4.094a26.563 26.563 0 007.575 2.07c.07-.022.091.046.112.114a.575.575 0 00-.302.019zM49.576 57.779c2.44-2.321 5.268-4.388 8.335-5.932 1.533-.771 3.109-1.406 4.776-1.995 1.617-.5 3.348-.883 4.986-1.314 3.299-.793 6.316-2.247 9.228-4.041 1.491-.908 3.025-1.68 4.692-2.269 1.645-.657 3.284-1.087 4.902-1.586 3.256-.93 6.562-1.95 9.973-2.628.443-.062.865-.192 1.33-.186.513-.084.928.012 1.392.019.879.102 1.779.272 2.63.533.851.26 1.561.564 2.349.62.739.145 1.554.043 2.37-.06 1.562-.182 2.933-.979 4.445-1.818 1.513-.84 3.299-1.54 5.114-1.652 1.863-.202 3.593.161 5.302.455 1.709.295 3.299.7 5.008.995a70.295 70.295 0 009.994 1.175c.858.034 1.624.021 2.482.056.837-.035 1.653-.137 2.56-.193 1.815-.111 3.594.162 5.303.456 1.709.294 3.46.725 5.064 1.425 1.652.611 3.228 1.47 4.641 2.303 1.484.812 2.877 1.577 4.389 2.231 1.512.654 3.052 1.15 4.641 1.556 1.611.474 3.179.812 4.797 1.06 1.617.248 3.263.338 5 .474 3.474.273 6.885 1.088 10.099 2.262 3.193 1.106 6.442 2.644 8.946 5.008a18.886 18.886 0 015.189 8.556c.021.068-.05.09-.12.112-.07.021-.091-.047-.091-.047-1.181-3.07-3.115-5.835-5.605-7.905-2.51-2.138-5.583-3.356-8.734-4.326a51.73 51.73 0 00-4.839-1.196 32.474 32.474 0 00-4.951-.564c-1.645-.09-3.432-.137-5.12-.363-1.758-.205-3.467-.499-5.148-.951a57.129 57.129 0 01-4.965-1.606c-1.582-.632-3.158-1.49-4.641-2.302-1.484-.812-2.877-1.578-4.368-2.163-1.491-.586-3.08-.992-4.648-1.33-1.639-.316-3.257-.564-4.79-.539a60.74 60.74 0 00-2.581.124 97.873 97.873 0 01-2.644-.08 85.2 85.2 0 01-10.219-1.404c-1.639-.317-3.32-.769-4.958-1.085-1.639-.316-3.278-.632-4.79-.54-1.582.115-3.108.66-4.571 1.41-.732.376-1.513.84-2.335 1.169-.823.328-1.738.61-2.624.734-.886.124-1.814.112-2.764.031-.97-.148-1.751-.43-2.532-.712a8.342 8.342 0 00-2.306-.484c-.394-.028-.788-.056-1.16-.015-.374.04-.817.102-1.19.142-3.27.636-6.597 1.587-9.874 2.448-1.639.431-3.278.862-4.874 1.429a24.173 24.173 0 00-4.572 2.157c-2.933 1.726-6.161 3.244-9.481 3.97-1.66.362-3.341.656-4.959 1.155-1.617.5-3.193 1.135-4.747 1.838-3.018 1.453-5.866 3.452-8.328 5.705-.07.022-.14.044-.162-.025-.295-.207-.316-.276-.246-.297zm167.68 16.542c2.525.94 4.993 2.195 6.787 4.255a8.18 8.18 0 011.743 3.645c.26 1.338.337 2.584.928 3.746.57 1.094 1.54 1.99 2.609 2.706.57.347 1.118.626 1.716.815l.942.306c.345.118.619.258.964.375 2.496 1.097 4.669 2.892 6.441 4.884 1.772 1.993 3.305 4.209 4.648 6.558 1.252 2.302 2.475 4.763 3.206 7.375 1.533 5.203 1.617 10.704.476 15.984l-.253-.818a16.26 16.26 0 012.989 3.186c.422.617.844 1.233 1.195 1.872.352.638.584 1.388.865 2.048.935 2.774 1.265 5.585 1.455 8.439.119 2.875-.156 5.723-.522 8.525-.183 1.4-.366 2.801-.64 4.155-.254 1.423-.669 2.82-.824 4.063-.225 1.264-.267 2.622-.239 3.957.027 1.336.175 2.56.456 3.967s.232 2.991-.022 4.413c-.253 1.422-.647 2.888-1.175 4.171-.506 1.351-1.196 2.609-1.955 3.889-.781 1.212-1.562 2.424-2.455 3.521-1.857 2.215-3.918 4.27-6.268 5.891-.07.021-.14.043-.161-.025-.021-.068-.043-.136.028-.158 2.124-1.85 4.023-3.93 5.606-6.285a28.103 28.103 0 002.131-3.57c.62-1.236 1.239-2.473 1.626-3.712.457-1.261.731-2.616.865-3.927.204-1.332.127-2.578-.112-3.848-.26-1.339-.562-2.814-.632-4.286-.07-1.472-.049-2.898.183-4.388.233-1.491.598-2.799.803-4.131.274-1.354.408-2.665.591-4.066.387-2.733.704-5.445.627-8.184-.056-2.672-.365-5.414-1.145-7.937-.19-.613-.38-1.227-.71-1.797a7.636 7.636 0 00-.971-1.642c-.731-1.119-1.631-2.036-2.672-2.91a.887.887 0 01-.253-.818c1.133-5.055 1.204-10.304-.174-15.257-.689-2.476-1.729-4.843-2.981-7.146-1.251-2.302-2.693-4.472-4.373-6.418-1.681-1.946-3.692-3.715-6.027-4.787l-.893-.397-.964-.375a13.718 13.718 0 01-1.828-.93c-1.16-.762-2.173-1.794-2.785-3.024-.612-1.23-.661-2.634-.899-3.905a8.27 8.27 0 00-1.54-3.483c-1.632-2.036-4.03-3.313-6.505-4.342-.092-.046-.092-.046-.042-.136.049-.09.049-.09.14-.044z" fill="#1C4C5F"/><path d="M241.292 149.281a27.95 27.95 0 002.624-3.722 26.7 26.7 0 001.984-4.047c.253-.675.485-1.419.647-2.141.162-.722.415-1.398.577-2.12.486-1.419.901-2.817 1.597-4.301.05-.09.12-.112.141-.044l.091.047c.556 1.546.527 3.198.316 4.757-.211 1.559-1.069 3.018-1.787 4.434a18.947 18.947 0 01-2.701 3.97 23.078 23.078 0 01-3.376 3.282c-.071.021-.141.043-.162-.025 0 0-.021-.068.049-.09zm2.709-15.398c-.879-1.596-1.589-3.393-1.996-5.209-.204-.908-.267-1.859-.26-2.832.007-.974.176-1.922.345-2.87.429-1.85.739-3.589 1.07-5.259.38-1.76.689-3.499 1.119-5.349-.021-.068.049-.09.119-.111l.092.046c.78 1.776.927 3.747.822 5.646-.078.995-.247 1.943-.599 2.799l-.963 2.612a13.875 13.875 0 00-.718 5.151c.084 1.766.562 3.56 1.089 5.265.021.068-.028.158-.028.158s-.071.021-.092-.047zm-8.863-31.396a20.09 20.09 0 00-3.539 5.498c-.851 1.98-1.147 4.013-.887 6.098.106 1.088.211 2.176.387 3.242.105 1.088.14 2.197.034 3.35-.162 2.216-.556 4.428-1.365 6.545-.049.09-.049.09-.141.043l-.091-.046c-.372-2.201-.513-4.398-.632-6.527-.119-2.129.064-4.276.064-6.517.035-1.131.141-2.284.409-3.412a12.975 12.975 0 011.238-3.219c1.153-1.999 2.624-3.722 4.319-5.216.07-.022.14-.043.162.025.07-.022.091.046.042.136zM85.982 147.819c-1.048-.648-2.026-1.318-3.003-1.987-.978-.669-1.906-1.428-2.855-2.256-.88-.849-1.758-1.698-2.37-2.928a2.058 2.058 0 01-.267-1.113c.014-.452.12-.858.366-1.308.098-.179.267-.381.457-.514s.31-.245.5-.378l.47-.22.472-.22c1.245-.459 2.391-.738 3.496-1.153 1.104-.415 2.138-.809 3.242-1.224.541-.242 1.104-.415 1.554-.704l1.625-.725 3.186-1.655c.07-.021.141-.043.162.025.021.068.021.068-.05.09-1.364 2.064-3.41 3.666-5.654 4.881a16.624 16.624 0 01-3.524 1.311c-1.217.3-2.476.465-3.53.79-.493.152-.986.304-1.133.573-.17.202-.204.586-.078.995.296.955 1.034 1.847 1.843 2.718 1.546 1.763 3.333 3.303 5.119 4.843l.042.137c.021.068-.05.09-.07.022z" fill="#1C4C5F"/><path d="M102.672 139.011c-2.574-1.595-5.05-3.371-7.018-5.751a15.631 15.631 0 01-2.363-3.902c-.534-1.478-.858-3.021-.857-4.515-.021-1.562.281-3.074.113-4.366-.19-1.361-.823-2.659-1.695-3.734-1.765-2.219-4.416-3.567-7.243-4.488-1.449-.449-2.806-.852-4.262-1.075-1.435-.155-2.898-.152-4.297.056-2.82.347-5.507 1.623-7.744 3.359-1.118.868-2.244 1.961-3.32 2.966a32.761 32.761 0 00-2.891 3.356c-1.724 2.398-3.222 5.026-4.284 7.818-.05.09-.05.09-.141.044-.07.021-.091-.047-.042-.137.535-3.003 1.646-5.885 3.194-8.602.809-1.37 1.73-2.625 2.743-3.834 1.035-1.14 2.069-2.281 3.285-3.328 1.217-1.047 2.638-1.934 4.122-2.615a19.027 19.027 0 014.776-1.249c3.284-.341 6.582.359 9.403 1.506 2.869 1.057 5.837 2.68 7.777 5.218.936 1.28 1.632 2.783 1.814 4.37.183 1.587-.19 3.121-.211 4.546-.092 1.447.119 2.876.611 4.218s1.195 2.618 2.04 3.852c1.736 2.377 4.092 4.264 6.616 5.95.092.046.043.136.043.136-.099.18-.169.201-.169.201zm-52.334 5.163c-1.006 1.729-1.554 3.69-1.358 5.571.197 1.881 1.027 3.567 2.377 4.943a10.021 10.021 0 002.222 1.705c.773.508 1.667.905 2.42 1.345 1.645.836 3.487 1.314 5.59 1.636.07-.022.092.046.113.115l-.05.089c-1.955.902-4.416.915-6.505.14-2.16-.753-3.762-2.2-5.148-3.939-.647-.846-1.244-1.782-1.56-2.804-.387-1.001-.493-2.089-.528-3.199a9.885 9.885 0 012.294-5.785l.14-.044c.043.137.043.137-.007.227z" fill="#1C4C5F"/><path d="M68.601 151.908c-2.35 1.621-4.966 2.876-7.884 3.403-.373.04-.725.149-1.027.167-.282.087-.654.128-.844.261-.07.021-.05.09.049-.09.05-.09-.042-.136.028-.158l.092.046c.204.161.478.301.773.509 1.21.672 2.483 1.549 3.516 2.649.542.505.964 1.122 1.364 1.67.226.23.36.413.542.506.204.161.457.232.71.303 1.034.354 2.377.462 3.7.502 2.714.059 5.486-.198 8.39-.272.07-.022.092.046.113.114.02.068-.05.09-.05.09a22.131 22.131 0 01-4.086 1.485c-1.428.365-2.806.641-4.318.734-1.513.093-3.088-.019-4.6-.672a5.464 5.464 0 01-1.069-.716c-.316-.276-.675-.688-.85-1.008-.423-.616-.732-1.118-1.133-1.667-.78-1.029-1.8-1.834-2.96-2.597a10.279 10.279 0 01-.908-.691c-.091-.046-.203-.161-.267-.365-.112-.115-.197-.388-.12-.636.078-.248.177-.427.367-.561.12-.111.26-.155.38-.266.47-.22.843-.26 1.216-.301.373-.04.746-.08 1.048-.099 2.722-.167 5.423-1.15 7.927-2.519.07-.022.14-.044.161.025-.21.065-.19.133-.26.154zm14.561-63.264a22.85 22.85 0 01.022-9.64c.352-1.603.936-3.202 1.562-4.664.626-1.463 1.393-2.97 1.527-4.28.021-.679-.098-1.314-.429-1.884-.26-.592-.71-1.05-1.3-1.466-.521-.437-1.182-.83-1.864-1.292-.682-.462-1.498-1.107-1.976-2.154-.408-1.07-.253-2.312.19-3.12.492-.9 1.14-1.547 1.829-2.058 1.357-1.091 2.912-1.795 4.508-2.362.07-.021.162.025.162.025.021.068.021.068-.05.09-1.286 1.07-2.503 2.117-3.537 3.257-.507.604-.943 1.187-1.147 1.773-.204.585-.197 1.106 0 1.493.197.388.717.825 1.308 1.24.59.415 1.364.923 2.018 1.543 1.379 1.218 2.293 3.176 1.955 5.073-.17.948-.45 1.782-.845 2.5-.372.788-.787 1.439-1.111 2.136-.718 1.416-1.365 2.81-1.808 4.366-.929 2.975-1.169 6.186-.803 9.36.02.067-.05.089-.12.11 0 0-.07.022-.091-.046zM68.754 68.966c.373 2.2.302 4.462-.07 6.743a19.138 19.138 0 01-.916 3.27 19.001 19.001 0 01-1.4 3.195c-.59 1.078-1.294 2.042-2.089 2.959-.886.87-1.885 1.627-3.038 2.132-2.237.989-4.867 1.202-7.076.54-.07.02-.091-.047-.042-.137l.05-.09c2.222-.536 4.332-1.187 6.083-2.25a14.05 14.05 0 002.54-1.754c.808-.623 1.483-1.428 2.138-2.302.584-.853 1.055-1.82 1.597-2.808a17.27 17.27 0 001.14-3.04c.668-2.073.921-4.242.921-6.483-.02-.068.05-.09.12-.112-.07.022.021.069.042.137zm-2.417-11.801c-1.217 1.047-2.321 2.21-3.151 3.511a14.69 14.69 0 00-1.801 4.14c-.394 1.466-.352 3.096-1.31 4.735-.266.382-.513.831-.871 1.166a5.247 5.247 0 01-1.21.82c-.872.42-1.85.497-2.7.236-.071.022-.092-.046-.043-.136l.05-.09c.801-.397 1.441-.818 1.92-1.264.457-.515.773-.986 1.027-1.661.274-.608.436-1.33.76-2.027.302-.765.534-1.51.907-2.296.302-.766.675-1.553 1.07-2.272.464-.74.949-1.413 1.526-2.039a15.886 15.886 0 013.903-3.07c.07-.023.141-.044.162.024-.19.133-.26.155-.239.223zm-12.647 6.44c-1.104 1.909-2.392 3.725-3.75 5.562a150.038 150.038 0 01-4.248 5.194 30.034 30.034 0 01-2.356 2.594c-.837.78-1.836 1.537-2.92 2.02-2.144 1.035-4.487 1.683-6.758 1.562-.07.022-.092-.046-.113-.115-.02-.068.05-.09.05-.09 2.074-1.013 4.009-1.983 5.788-3.204.9-.576 1.73-1.13 2.61-1.775a21.469 21.469 0 002.433-2.095c1.534-1.519 3.187-3.149 4.699-4.735 1.512-1.587 3.004-3.242 4.382-5.011l.14-.044.043.137zM78.033 46.91a10.293 10.293 0 001.977-.833c.59-.331 1.181-.663 1.73-1.131.549-.468.844-1.007 1.435-1.339.59-.331 1.16-.731 2.075-1.013.07-.022.162.025.183.093.077.499.042.883-.134 1.31a2.497 2.497 0 01-.591 1.08c-.485.672-1.308 1-2.06 1.307-.732.375-1.527.545-2.322.716a9.92 9.92 0 01-2.3.037c-.07.022-.091-.047-.112-.115.05-.09.12-.111.12-.111zm16.669.088c.52.437.921.985 1.181 1.577.33.57.471 1.274.542 1.999.035.363.07.725.035 1.11-.036.384-.141.79-.36 1.08-.485.673-1.195 1.116-2.144 1.036-.07.022-.183-.093-.134-.183.12-.858.204-1.332.288-1.807.015-.452.444-.808.507-1.35.134-.565.218-1.039.19-1.628a6.978 6.978 0 00-.316-1.77c-.021-.067.028-.157.099-.179.02.068.02.068.112.115zm67.316 32.561c2.588 1.143 4.923 2.962 6.519 5.383.823 1.165 1.336 2.575 1.737 3.87.492 1.342.892 2.637 1.314 4 .422 1.364.844 2.728.724 4.333-.07.769-.401 1.692-1.069 2.272-.739.601-1.604.793-2.328.942-1.449.297-3.074.275-4.551-.016a17.274 17.274 0 01-2.187-.595c-.689-.235-1.399-.54-1.927-.75-.598-.189-1.153-.242-1.828-.183a8.266 8.266 0 00-1.892.36 42.11 42.11 0 00-3.946 1.441c-1.315.48-2.61 1.029-3.974 1.599-1.294.548-2.68 1.05-3.995 1.531-2.701.982-5.402 1.964-8.124 2.879-2.722.914-5.465 1.76-8.229 2.538-.07.021-.091-.047-.112-.115-.021-.068.049-.09.049-.09 5.121-2.625 10.346-4.909 15.664-7.146a167.595 167.595 0 018.039-3.152 45.483 45.483 0 014.22-1.301c.724-.149 1.519-.32 2.286-.332a6.317 6.317 0 012.426.372c.781.282 1.4.54 2.018.796.619.258 1.287.425 1.956.593 1.315.266 2.658.374 3.987.189.675-.06 1.238-.233 1.618-.5.359-.334.605-.783.717-1.416.155-1.242-.175-2.56-.505-3.876-.331-1.317-.753-2.681-1.083-3.998-.401-1.295-.801-2.59-1.483-3.8-1.414-2.327-3.537-4.21-6.027-5.534-.091-.046-.112-.115-.042-.136-.042-.137.028-.158.028-.158zm33.527-2.948c.992.964 2.124 1.884 3.411 2.309.598.189 1.224.22 1.716.068.422-.13.76-.533 1.125-1.094.366-.56.57-1.147.894-1.844.274-.607.598-1.304.964-1.865.781-1.212 1.582-2.356 2.638-3.428.07-.021.14-.043.161.025l.021.068c0 .747-.07 1.516-.232 2.238s-.415 1.397-.668 2.073c-.507 1.351-1.379 2.516-2.392 3.725-.289.313-.577.626-.886.87-.38.267-.852.487-1.274.617-.956.146-1.807-.114-2.538-.486-.661-.394-1.273-.877-1.744-1.404-.472-.527-.964-1.122-1.294-1.692-.021-.068-.042-.136.028-.158-.021-.068 0 0 .07-.022zm47.043 103.263c-.07-1.472.071-3.009.282-4.568.233-1.49.605-3.024 1.161-4.465.556-1.441.999-2.997 1.921-4.252.921-1.255 2.096-2.439 3.559-3.189.07-.021.141-.043.162.025l.021.068c-.535 1.509-1.203 2.836-1.801 4.14-.598 1.305-1.541 2.492-2.209 3.818-.668 1.327-1.245 2.699-1.66 4.097a29.26 29.26 0 00-1.133 4.308c.021.068-.05.089-.12.111-.141.043-.162-.025-.183-.093zm6.236-24.925c-.549-1.026-.837-2.206-1.104-3.319a15.206 15.206 0 01-.176-1.813c-.028-.588.015-1.199.057-1.809.084-1.221.239-2.464.901-3.564a5.88 5.88 0 011.16-1.478c.478-.447.978-.825 1.59-1.088.07-.022.162.025.162.025l.021.068c-.226 1.264-.606 2.278-.894 3.337-.31.992-.943 1.934-1.231 2.994a15.56 15.56 0 00-.542 3.229c-.106 1.153 0 2.241.196 3.375.021.068-.049.09-.119.111.07-.021-.021-.068-.021-.068z" fill="#1C4C5F"/></svg>