<svg width="298" height="84" fill="none" xmlns="http://www.w3.org/2000/svg"><path d="M71.874 31.315l-9.038-9.104a4.91 4.91 0 00-3.474-1.45 4.882 4.882 0 00-3.474 1.45l-8.518 8.58-8.522-8.58a4.91 4.91 0 00-3.474-1.45 4.88 4.88 0 00-3.475 1.45l-9.042 9.104a4.95 4.95 0 00-1.44 3.5 4.98 4.98 0 001.44 3.5l8.518 8.58 15.99 16.109 15.986-16.109 8.518-8.58c.457-.46.82-1.005 1.067-1.605a4.986 4.986 0 00.002-3.789 4.946 4.946 0 00-1.064-1.606z" fill="#00B2C2"/><path d="M95.857 31.315L86.82 22.21a4.91 4.91 0 00-3.475-1.45 4.88 4.88 0 00-3.474 1.45l-8.517 8.58-8.518-8.58a4.906 4.906 0 00-3.474-1.45 4.88 4.88 0 00-3.475 1.45l-9.042 9.104a4.976 4.976 0 00-1.435 3.5 4.98 4.98 0 001.435 3.5l8.518 8.58 15.99 16.109 15.991-16.109 8.518-8.58a4.98 4.98 0 00-.005-7z" fill="#36D1DC"/><path d="M120.895 41.585l-3.964-7.356h-3.401v7.356h-4.226v-20.46h8.721a6.457 6.457 0 014.757 1.751 6.375 6.375 0 011.8 4.817c0 2.818-1.197 4.84-3.267 5.851l4.329 8.041h-4.749zm-7.405-11.082h3.964c.745 0 1.458-.297 1.985-.825a2.826 2.826 0 000-3.986 2.802 2.802 0 00-1.985-.825h-3.964v5.636zm31.024-6.061h-8.977v4.547h7.787v3.706h-7.787v5.045h9.001v3.845h-13.277v-20.98h13.253v3.837zm18.917.394h-8.639v4.436h7.045v3.72h-7.045v8.593h-4.126V21.117h12.765v3.719zm23.533-1.337a10.017 10.017 0 012.323 3.482 9.929 9.929 0 01.687 4.114 10.028 10.028 0 01-.69 4.128 10.122 10.122 0 01-2.32 3.5 11.78 11.78 0 01-7.706 2.862 11.781 11.781 0 01-7.707-2.862 10.119 10.119 0 01-2.316-3.501 10.022 10.022 0 01-.686-4.127 9.891 9.891 0 01.683-4.113 9.998 9.998 0 012.319-3.483 11.681 11.681 0 017.707-2.894c2.84 0 5.582 1.03 7.706 2.894zm-12.322 2.664a6.706 6.706 0 00-1.388 2.29 6.639 6.639 0 00-.378 2.642 6.778 6.778 0 001.766 4.932 6.084 6.084 0 002.118 1.401 6.158 6.158 0 002.513.423 6 6 0 002.49-.42 5.928 5.928 0 002.086-1.404 6.794 6.794 0 001.381-2.292 6.74 6.74 0 00.385-2.64 6.656 6.656 0 00-.378-2.642 6.706 6.706 0 00-1.388-2.29 5.96 5.96 0 00-2.088-1.402 6.022 6.022 0 00-2.488-.421 6.192 6.192 0 00-2.512.425c-.798.314-1.52.79-2.119 1.398zm33.061 15.422l-3.964-7.356h-3.401v7.356h-4.226v-20.46h8.721a6.457 6.457 0 014.757 1.751 6.375 6.375 0 011.8 4.817c0 2.818-1.197 4.84-3.274 5.851l4.336 8.041h-4.749zm-7.412-11.082h4.003c.745 0 1.458-.297 1.985-.825a2.826 2.826 0 000-3.986 2.802 2.802 0 00-1.985-.825h-4.003v5.636zm35.14-9.386v11.97c0 2.667-.794 4.77-2.32 6.275a10.18 10.18 0 01-6.357 2.223 10.18 10.18 0 01-6.356-2.223c-1.589-1.482-2.329-3.584-2.329-6.275v-11.97h4.212v11.915c0 3.138 1.549 4.848 4.497 4.848s4.482-1.695 4.482-4.848V21.117h4.171zm28.596 20.404h-4.195v-9.06l-6.756 9.124-6.78-9.084v9.06h-4.226V20.605l11.006 14.469 10.951-14.469v20.916z" fill="#00B2C2"/><path d="M118.743 58.75l2.506-6.115h1.716l-4.196 10.117-2.633-6.288-2.632 6.288-4.212-10.117h1.716l2.509 6.115 2.598-6.248 2.628 6.248zm7.507 3.83h-1.579v-9.945h1.579v9.945zm8.501-3.75v-6.195h1.58v10.104l-6.042-6.328v6.169h-1.58V52.465l6.042 6.365zm10.083 0v-6.195h1.579v10.104l-6.041-6.328v6.169h-1.58V52.465l6.042 6.365zm5.62 3.75h-1.579v-9.945h1.579v9.945zm8.501-3.75v-6.195h1.579v10.104l-6.031-6.328v6.169h-1.579V52.465l6.031 6.365zm13.171-1.461v.53c0 1.477-.421 2.652-1.253 3.525-.832.872-1.954 1.302-3.367 1.302a4.779 4.779 0 01-1.907-.32 4.813 4.813 0 01-1.629-1.049c-.911-.917-1.371-2.166-1.371-3.736 0-1.57.447-2.82 1.358-3.737.911-.918 2.106-1.368 3.536-1.368a4.78 4.78 0 012.969.93 4.044 4.044 0 011.58 2.538l-1.624.266c-.264-1.451-1.359-2.329-2.931-2.329-2.005 0-3.285 1.305-3.285 3.697 0 2.392 1.292 3.697 3.285 3.697 1.598 0 2.693-.838 2.944-2.54h-2.228v-1.396l3.923-.01zm12.992-3.337h-3.512v8.548h-1.58v-8.548h-3.511v-1.397h8.592l.011 1.397zm9.396 8.548h-1.58v-4.426h-4.646v4.426h-1.58v-9.945h1.58v4.108h4.646v-4.108h1.58v9.945zm8.672-8.548h-4.634v2.737h4.052v1.371h-4.052v3.032h4.634v1.408h-6.203v-9.945h6.203v1.397zm14.207 8.548h-1.579v-4.426h-4.644v4.426h-1.58v-9.945h1.58v4.108h4.644v-4.108h1.579v9.945zm8.67-8.548h-4.634v2.737h4.052v1.371h-4.052v3.032h4.634v1.408h-6.203v-9.945h6.203v1.397zm10.769 8.548h-1.714l-.897-1.856h-4.476l-.894 1.856h-1.717l4.844-10.13 4.854 10.13zm-6.412-3.27h3.14l-1.58-3.257-1.56 3.257zm13.858 3.27l-2.085-3.803h-2.177v3.803h-1.58v-9.945h3.986a3.086 3.086 0 012.243.812c.569.53.858 1.288.858 2.259 0 1.397-.648 2.365-1.703 2.806l2.219 4.068h-1.761zm-4.262-5.211h2.229c.99 0 1.688-.6 1.688-1.663 0-1.064-.698-1.674-1.688-1.674h-2.229v3.337zm15.439-3.337h-3.509v8.548h-1.58v-8.548h-3.506v-1.397h8.59l.005 1.397zm7.311-.758a2.707 2.707 0 011.016 2.121l-1.595.093c-.053-.997-.79-1.61-1.887-1.61-1.161 0-1.844.613-1.844 1.504a1.065 1.065 0 00.49.997 6.34 6.34 0 001.701.57c1.148.282 1.809.531 2.443.945.634.413.937 1.037.937 1.888 0 .97-.332 1.716-1.003 2.206a4.191 4.191 0 01-2.561.733 4.453 4.453 0 01-2.733-.796 2.798 2.798 0 01-1.108-2.22l1.598-.093c.066 1.061.989 1.743 2.243 1.743 1.2 0 1.966-.493 1.966-1.49a1.085 1.085 0 00-.542-1.011 6.823 6.823 0 00-1.819-.624 8.391 8.391 0 01-1.888-.625c-.871-.425-1.279-1.024-1.332-2.18a2.695 2.695 0 01.882-2.074c.595-.56 1.44-.838 2.535-.838 1.037-.01 1.864.241 2.501.76z" fill="#13293D"/></svg>