<svg width="33" height="28" viewBox="0 0 33 28" fill="none" xmlns="http://www.w3.org/2000/svg">
<path opacity="0.95" d="M31.3041 5.52025L25.2363 0.759831C24.6182 0.274909 23.8263 0.0694487 23.0347 0.188668C22.2431 0.307893 21.5168 0.742049 21.0155 1.39558L16.3802 7.43819L10.6653 2.95462C10.0472 2.46973 9.25525 2.26427 8.46368 2.38349C7.67214 2.50273 6.94584 2.93683 6.44451 3.5904L1.52302 10.0061C1.02166 10.6597 0.786406 11.479 0.868966 12.2841C0.951558 13.0891 1.3452 13.8137 1.96332 14.2986L7.68147 18.7847L18.4089 27.2021L27.1095 15.8583L31.7447 9.8157C32.2469 9.16194 32.4827 8.3418 32.4001 7.53609C32.3174 6.73035 31.9232 6.00515 31.3041 5.52025Z" fill="#6DB97E"/>
</svg>
