<svg width="153" height="130" viewBox="0 0 153 130" fill="none" xmlns="http://www.w3.org/2000/svg">
<path d="M147.004 32.2466L118.268 4.64787C115.341 1.83626 111.555 0.275118 107.743 0.307659C103.931 0.339978 100.405 1.96359 97.9411 4.82082L75.159 31.2397L48.0947 5.24574C45.1676 2.43435 41.3814 0.873173 37.5694 0.90558C33.7571 0.938235 30.2311 2.5618 27.7672 5.41916L3.57863 33.469C1.11456 36.3262 -0.085736 40.1833 0.241777 44.1917C0.569291 48.2 2.39781 52.0313 5.32513 54.8428L32.4047 80.8509L83.2072 129.65L125.97 80.0536L148.752 53.6346C151.22 50.7767 152.423 46.9165 152.095 42.9046C151.767 38.8928 149.935 35.0583 147.004 32.2466Z" fill="#FF502F"/>
</svg>
