<svg width="50" height="53" viewBox="0 0 50 53" fill="none" xmlns="http://www.w3.org/2000/svg">
<path opacity="0.95" d="M39.0382 15.1691L33.1465 10.1923C32.5463 9.68536 31.7623 9.45139 30.967 9.54191C30.1716 9.63243 29.4301 10.04 28.9054 10.675L24.0547 16.546L18.5056 11.8587C17.9055 11.3518 17.1214 11.1178 16.3261 11.2083C15.5308 11.2989 14.7892 11.7064 14.2646 12.3414L9.1143 18.575C8.58964 19.21 8.3249 20.0203 8.37829 20.8278C8.43172 21.6352 8.7989 22.3736 9.39907 22.8806L14.9513 27.5705L25.3673 36.3704L34.4724 25.3486L39.3231 19.4776C39.8486 18.8425 40.1139 18.0314 40.0605 17.2232C40.007 16.415 39.6393 15.676 39.0382 15.1691Z" fill="#FF502F"/>
<path opacity="0.95" d="M10.6667 37.7883L16.5309 42.7975C17.1282 43.3077 17.9109 43.546 18.7068 43.4599C19.5026 43.3738 20.2464 42.9703 20.7745 42.3382L25.6576 36.494L31.1807 41.2118C31.778 41.7221 32.5608 41.9603 33.3566 41.8742C34.1524 41.7881 34.8962 41.3846 35.4243 40.7525L40.6089 34.5475C41.1371 33.9154 41.4063 33.1065 41.3573 32.2987C41.3083 31.491 40.9452 30.7506 40.3479 30.2403L34.8216 25.5199L24.4543 16.6627L15.2886 27.6341L10.4055 33.4783C9.8765 34.1105 9.60674 34.9201 9.65571 35.7286C9.70474 36.5371 10.0684 37.2781 10.6667 37.7883Z" fill="#FF502F"/>
</svg>
