<svg width="279" height="276" viewBox="0 0 279 276" fill="none" xmlns="http://www.w3.org/2000/svg">
<path d="M107.334 38.0233C109.726 37.2858 112.117 36.5482 114.579 35.789C119.185 36.2353 126.014 36.8923 134.362 37.9769C138.849 38.5347 141.114 38.8818 143.723 39.3467C152.402 41.0015 153.611 42.4209 164.153 45.368C175.181 48.3895 180.68 49.9792 184.682 50.4627C187.502 50.8625 189.45 50.9337 191.448 52.4088C195.442 55.359 194.597 60.1004 198.796 62.4649C200.554 63.4163 200.786 62.6726 203.522 63.5465C208.74 65.223 208.901 68.2352 215.526 73.2121C219.949 76.5527 221.236 76.2304 223.24 78.973C224.731 81.0524 224.829 82.3663 226.819 84.8145C228.83 87.3308 230.835 88.5797 232.199 89.5032C233.563 90.4267 240.631 95.3416 244.582 102.637C247.655 108.335 248.006 114.202 248.237 117.192C248.413 119.752 248.3 121.878 248.159 123.415C250.1 125.206 252.744 128.274 253.883 132.702C254.586 135.473 254.494 137.667 254.248 140.357C252.564 160.816 252.261 163.075 250.847 166.722C249.454 170.438 248.624 172.486 246.802 175.065C243.531 179.434 240.38 180.705 238.065 185.675C237.095 187.767 236.813 189.348 236.525 190.408C235.462 194.693 232.184 200.783 222.308 208.459C220.795 213.78 218.355 216.101 216.392 217.229C213.058 219.153 209.289 218.673 206.89 221.877C206.236 222.751 205.954 223.585 204.738 224.632C203.021 226.058 201.931 226.02 201.031 227.344C200.25 228.555 200.784 229.287 200.334 230.322C199.553 232.28 196.768 232.99 193.568 233.603C187.822 234.703 184.108 235.401 178.475 235.122C176.991 235.057 172.961 234.731 167.918 233.374C164.05 232.327 162.046 231.824 159.697 230.458C157.988 229.417 157.222 228.682 155.316 228C153.34 227.34 152.77 227.74 149.528 227.47C145.266 227.142 141.468 226.82 139.802 224.421C139.288 223.758 138.88 222.689 138.437 222.751C137.994 222.813 138.05 223.99 137.509 224.979C136.58 226.46 134.505 226.727 133.106 226.934C129.048 227.514 123.26 226.237 122.149 223.144C121.868 222.484 121.847 221.669 121.207 221.344C120.313 220.947 119.533 222.159 117.802 222.543C115.488 223.033 112.957 221.573 111.578 220.355C110.292 219.184 110.271 218.369 109.279 218.152C107.823 217.929 107.211 219.686 105.748 219.689C103.287 219.701 102.049 214.706 100.439 214.978C99.7145 215.127 99.9394 216.103 99.0391 216.68C97.0486 217.966 94.264 214.194 89.158 214.126C86.9989 214.12 86.4924 214.724 85.325 214.188C83.4051 213.212 83.6164 210.906 81.3238 209.971C80.1775 209.503 79.9312 209.952 78.9256 209.441C77.2378 208.468 77.6811 206.912 76.0003 205.713C74.8892 204.86 74.5445 205.489 72.9693 204.631C71.5557 203.797 71.5066 203.14 69.6079 201.486C69.1789 201.095 68.4968 200.633 67.1114 199.642C64.1578 197.565 63.0818 197.076 62.9765 195.988C62.8641 195.127 63.5182 195 63.3776 194.296C62.984 192.775 59.8823 193.208 59.1441 191.569C58.448 190.066 60.4316 188.259 59.6229 187.389C59.0182 186.679 57.6185 187.633 56.1275 187.048C54.6366 186.462 54.039 184.779 53.5399 182.917C52.1129 178.055 51.4451 175.647 51.3541 172.613C51.3198 166.276 53.4515 161.212 54.978 158.426C54.0215 158.572 52.6712 158.689 51.0043 158.531C47.2558 158.119 44.8015 156.412 41.5244 154.286C32.2627 148.255 32.6634 149.55 30.4342 147.325C27.5089 144.344 26.2504 141.521 24.2325 136.99C22.7138 133.575 20.6327 128.84 20.2257 122.543C20.1133 120.935 20.2896 117.52 20.593 110.78C20.8186 106.528 20.9314 104.402 21.03 103.476C21.9947 94.8884 22.5089 89.5768 26.3494 85.5544C28.727 83.0288 31.6459 81.7551 31.8291 78.8607C31.8996 77.3454 31.119 77.0634 31.281 75.5945C31.5346 72.6784 34.5659 72.2662 38.2518 67.9928C41.3609 64.3454 41.3119 62.1947 43.7947 61.5037C45.5741 61.0295 46.8751 61.7485 48.0427 60.7909C49.1893 59.7652 48.4158 58.5101 49.0701 56.8894C50.1817 54.0074 53.9303 54.4195 60.6543 51.0014C64.2414 49.1483 63.7914 48.6897 67.3011 47.0844C70.5998 45.5443 71.6196 45.6032 76.2897 44.0134C80.8895 42.4454 80.6223 42.0797 86.5656 39.8733C91.5944 37.9489 94.1546 37.0099 96.7639 36.7279C98.9372 36.2817 102.721 36.3096 107.334 38.0233Z" fill="#4BAEBD"/>
<path d="M47.8948 60.3139L60.9206 55.8484L64.2052 54.7607C65.3305 54.4136 66.4558 54.0665 67.5108 53.7411C69.649 52.9323 71.6325 51.8725 73.9746 51.2248C76.3166 50.5772 78.7079 50.5865 81.0428 50.9119C82.2454 51.0637 83.3285 51.3271 84.503 51.637L87.8436 52.4737L91.163 53.2423C92.225 53.4375 93.3573 53.6111 94.4474 53.6483C96.6487 53.7908 98.9767 53.5956 101.298 53.6266C105.939 53.6886 110.546 54.1348 115.103 54.671C117.417 54.9282 119.836 55.5263 121.967 56.4374C123.043 56.927 124.098 57.3485 125.104 57.8598C126.088 58.303 127.164 58.7926 128.107 59.0994C132.432 60.3793 136.82 61.8637 141.04 63.5495C145.217 65.099 149.669 66.0411 154.248 66.6454C154.318 66.6237 154.339 66.6919 154.36 66.7601C154.381 66.8282 154.311 66.8499 154.24 66.8716C149.62 66.8778 144.992 66.3634 140.576 65.037C138.367 64.3738 136.229 63.6889 134.091 63.0041L130.8 62.0775L127.509 61.1509C126.313 60.7728 125.258 60.3514 124.203 59.9299C123.148 59.5085 122.143 58.9971 121.088 58.5757C119.048 57.7111 117.023 57.1409 114.779 56.8619C110.271 56.2359 105.763 55.6099 101.241 55.4364C98.9694 55.3155 96.6907 55.4209 94.3276 55.2535C93.1461 55.1698 92.0138 54.9963 90.8604 54.7546L87.5198 53.9178L84.2285 52.9912C83.1243 52.6597 82.0413 52.3963 80.9793 52.201C78.785 51.8322 76.5345 51.7795 74.3823 52.294C72.2301 52.8084 70.1553 53.8217 67.9257 54.5841C66.8004 54.9311 65.7243 55.1883 64.5989 55.5354L61.2722 56.4868L48.1198 60.5432C48.0495 60.5649 47.9581 60.5184 47.9581 60.5184C47.8455 60.4038 47.8455 60.4038 47.8948 60.3139Z" fill="#1C4C5F"/>
<path d="M160.865 70.3549C163.678 72.4746 167.019 74.0582 170.486 74.5571C172.265 74.8298 174.031 74.8081 175.88 75.0592C177.73 75.3102 179.664 75.8339 181.31 76.6706C183.025 77.4856 184.544 78.6601 185.874 79.9679C187.203 81.2756 188.342 82.7167 189.27 84.2227C191.267 87.1915 192.856 90.5849 193.488 94.1238C193.509 94.192 193.439 94.2137 193.369 94.2354C193.298 94.2571 193.277 94.1889 193.277 94.1889C192.349 92.6828 191.491 91.155 190.493 89.6707C189.494 88.1863 188.538 86.8382 187.42 85.4654C185.254 82.698 183.37 79.8439 180.381 78.1519C178.876 77.2718 177.315 76.7078 175.606 76.4134C173.897 76.119 172.019 76.026 170.197 75.6169C168.397 75.2761 166.632 74.5509 165.057 73.6925C163.481 72.8341 161.983 71.7278 160.626 70.5781C160.605 70.5099 160.584 70.4417 160.654 70.42C160.725 70.3983 160.795 70.3766 160.865 70.3549Z" fill="#1C4C5F"/>
<path d="M192.651 97.1451C189.732 99.1656 187.122 101.688 185.378 104.765C184.541 106.293 183.746 107.957 182.726 109.392C181.706 110.827 180.707 112.33 179.504 113.672C178.857 114.319 178.048 114.942 177.112 115.156C176.198 115.438 175.199 115.447 174.299 115.277C173.399 115.106 172.527 114.778 171.676 114.518C170.825 114.257 169.995 114.065 169.095 113.895C165.656 113.238 162.111 113.733 158.693 114.638C156.984 115.091 155.205 115.565 153.517 116.086C151.829 116.606 150.07 117.148 148.495 117.784C146.849 118.441 145.337 119.281 143.958 120.303C142.579 121.326 141.356 122.599 140.385 123.944C138.394 126.724 137.43 130.083 136.375 133.396C135.411 136.755 134.215 140.112 133.926 143.412C133.637 146.712 134.931 149.898 137.392 152.126C138.587 153.251 140.043 154.221 141.499 155.191C142.954 156.161 144.389 157.063 145.943 157.853C147.497 158.643 149.059 159.207 150.74 159.66C152.42 160.112 154.305 160.726 155.923 161.72C157.519 162.647 158.996 163.685 160.374 164.903C161.752 166.121 162.941 167.472 164.059 168.845C165.156 170.15 166.372 171.343 167.709 172.424C169.045 173.506 170.479 174.408 171.963 175.219C173.447 176.031 174.98 176.753 176.619 177.07C178.236 177.317 180.002 177.296 181.683 177.001C183.363 176.707 184.939 176.072 186.318 175.049C187.007 174.538 187.605 173.98 188.09 173.307C188.576 172.635 188.948 171.848 189.392 171.039C191.298 167.987 194.027 165.353 197.101 163.583C197.171 163.561 197.241 163.54 197.263 163.608C197.284 163.676 197.305 163.744 197.234 163.766C194.337 165.855 191.839 168.492 190.235 171.526C189.863 172.313 189.49 173.1 188.976 173.93C188.463 174.761 187.745 175.43 187.077 176.01C185.6 177.212 183.835 177.981 181.964 178.408C180.093 178.836 178.208 178.969 176.267 178.672C174.326 178.374 172.561 177.649 170.985 176.791C169.41 175.932 167.814 175.006 166.386 173.878C164.959 172.75 163.629 171.442 162.462 170.159C161.274 168.808 160.198 167.571 158.932 166.468C157.666 165.365 156.281 164.373 154.797 163.561C153.313 162.749 151.822 162.164 150.12 161.643C149.269 161.383 148.348 161.144 147.476 160.816C146.604 160.487 145.781 160.069 144.958 159.65C143.313 158.814 141.836 157.775 140.38 156.805C138.903 155.767 137.448 154.797 136.048 153.511C134.719 152.204 133.608 150.604 132.919 148.875C132.23 147.146 132.013 145.197 132.21 143.344C132.337 141.512 132.787 139.73 133.258 138.017C133.73 136.303 134.293 134.636 134.856 132.968C135.418 131.301 135.96 129.566 136.615 127.945C137.248 126.256 138.134 124.639 139.203 123.114C141.433 120.111 144.612 117.936 148.045 116.578C149.761 115.9 151.54 115.426 153.228 114.905C154.937 114.452 156.696 113.91 158.426 113.526C161.957 112.736 165.663 112.265 169.285 113.015C170.185 113.185 171.036 113.445 171.887 113.706C172.738 113.966 173.54 114.316 174.44 114.487C176.1 114.871 177.879 114.397 179.033 113.145C180.278 111.939 181.277 110.436 182.297 109.002C183.338 107.635 184.154 106.039 185.061 104.49C186.897 101.459 189.577 98.9145 192.588 96.9405C192.658 96.9188 192.728 96.8971 192.749 96.9653C192.7 97.0552 192.651 97.1451 192.651 97.1451Z" fill="#1C4C5F"/>
<path d="M150.571 163.595C151.035 165.095 151.239 166.749 151.049 168.376C150.859 170.003 150.183 171.556 149.304 172.947C148.333 174.292 147.25 175.522 146.075 176.706C144.9 177.89 143.775 178.984 142.579 180.1C141.384 181.215 140.188 182.331 138.718 183.307C138.007 183.75 137.206 184.147 136.383 184.475C135.961 184.605 135.539 184.736 135.117 184.866C134.695 184.996 134.322 185.036 133.97 185.145C133.267 185.362 132.767 185.74 132.472 186.279C132.155 186.75 131.994 187.472 131.993 188.219C131.923 189.734 132.106 191.321 132.337 192.818C132.499 193.589 132.71 194.271 132.942 195.021C133.174 195.771 133.469 196.725 133.42 197.562C133.462 198.445 133.413 199.282 133.223 200.162C133.033 201.042 132.751 201.876 132.378 202.663C132.076 203.428 131.682 204.147 131.696 204.442C131.71 204.736 131.977 205.102 132.455 205.402C132.934 205.703 133.672 205.849 134.41 205.994C135.128 206.072 135.915 206.127 136.682 206.115C138.215 206.09 139.706 205.929 141.162 205.405C142.639 204.95 144.032 204.222 145.312 203.379C147.922 201.603 150.109 199.211 152.001 196.611C152.051 196.521 152.142 196.567 152.142 196.567C152.163 196.636 152.163 196.636 152.184 196.704C150.791 199.672 148.871 202.431 146.226 204.59C144.939 205.66 143.448 206.568 141.802 207.225C140.156 207.881 138.405 208.198 136.661 208.287C135.824 208.322 134.895 208.309 134.016 208.207C133.137 208.105 132.216 207.866 131.302 207.401C130.387 206.936 129.466 205.951 129.438 204.615C129.459 203.937 129.614 203.441 129.79 203.013C129.966 202.585 130.163 202.226 130.29 201.888C131.028 200.54 131.373 199.164 131.373 197.67C131.373 196.924 131.275 196.357 131.022 195.538C130.79 194.788 130.607 193.949 130.495 193.087C130.291 191.432 130.179 189.824 130.277 188.151C130.327 187.314 130.496 186.366 131.08 185.513C131.663 184.661 132.564 184.085 133.408 183.824C133.83 183.694 134.273 183.632 134.695 183.502C135.046 183.394 135.419 183.353 135.841 183.223C136.545 183.006 137.276 182.631 137.937 182.278C139.309 181.482 140.526 180.434 141.721 179.319C142.938 178.271 144.134 177.156 145.351 176.108C146.547 174.993 147.672 173.899 148.664 172.622C149.585 171.367 150.282 169.882 150.514 168.392C150.796 166.811 150.704 165.271 150.311 163.75C150.29 163.682 150.36 163.66 150.43 163.638C150.48 163.548 150.571 163.595 150.571 163.595Z" fill="#1C4C5F"/>
<path d="M148.55 191.178C148.001 190.153 147.551 188.947 147.474 187.701C147.397 186.455 147.763 185.148 148.607 184.141C149.381 183.155 150.52 182.356 151.674 181.851C152.827 181.345 154.093 180.955 155.352 180.791C156.611 180.626 157.912 180.599 159.206 180.797C160.5 180.995 161.759 181.578 162.828 182.294C163.897 183.01 164.776 183.859 165.704 184.618C166.632 185.377 167.49 186.158 168.468 186.827C172.258 189.616 176.71 191.305 181.239 192.746C182.364 193.146 183.539 193.456 184.713 193.766C185.888 194.076 187.062 194.386 188.237 194.696C190.564 195.247 192.942 195.709 195.389 196.149C195.459 196.127 195.48 196.196 195.502 196.264C195.523 196.332 195.452 196.354 195.382 196.375C190.403 196.716 185.409 196.016 180.641 194.798C178.222 194.2 175.859 193.286 173.665 192.17C171.47 191.054 169.354 189.691 167.406 188.126C166.477 187.367 165.528 186.539 164.649 185.69C163.77 184.841 162.912 184.06 162.005 183.369C161.098 182.678 160.113 182.235 158.96 181.993C157.806 181.751 156.646 181.736 155.528 181.857C154.339 181.999 153.172 182.21 152.067 182.625C150.963 183.041 149.922 183.66 149.198 184.556C148.452 185.383 148.044 186.555 148.009 187.686C147.973 188.817 148.332 189.976 148.831 191.092C148.852 191.16 148.873 191.228 148.803 191.25C148.571 191.246 148.571 191.246 148.55 191.178Z" fill="#1C4C5F"/>
<path d="M149.772 192.893C152.289 195.552 155.285 197.764 158.703 199.1C162.05 200.457 165.764 201.254 169.344 201.121C170.251 201.065 171.137 200.941 172.002 200.749C172.867 200.557 173.803 200.343 174.738 200.129C176.7 199.748 178.81 199.844 180.702 200.231C184.577 201.052 188.065 203.113 190.583 205.772C190.604 205.84 190.625 205.909 190.555 205.93C190.484 205.952 190.484 205.952 190.414 205.974C187.102 204.232 183.733 202.806 180.195 202.329C178.416 202.057 176.7 201.988 174.928 202.236C173.155 202.484 171.193 202.865 169.175 202.816C165.208 202.695 161.502 201.672 158.07 200.042C154.638 198.412 151.72 195.952 149.42 193.001C149.399 192.933 149.378 192.865 149.448 192.843C149.68 192.846 149.772 192.893 149.772 192.893Z" fill="#1C4C5F"/>
<path d="M191.399 208.657C192.685 210.575 193.522 212.782 193.866 215.14C193.993 216.296 194.049 217.473 193.943 218.626C193.838 219.779 193.521 220.997 192.951 222.144C192.36 223.222 191.586 224.207 190.609 225.032C189.631 225.856 188.499 226.429 187.415 226.913C185.249 227.88 182.879 228.685 180.452 229.06C179.869 229.166 179.193 229.225 178.568 229.194C177.942 229.163 177.245 229.153 176.465 228.871C176.282 228.778 176.099 228.685 175.916 228.592C175.733 228.499 175.529 228.338 175.375 228.087C175.171 227.926 175.086 227.653 175.002 227.381C174.918 227.108 174.904 226.814 174.911 226.587C174.988 225.593 175.445 225.078 175.741 224.539C176.353 223.529 176.916 222.608 177.317 221.663C177.647 220.74 177.816 219.791 177.802 218.75C177.718 217.731 177.493 216.754 177.107 215.753C176.741 214.821 176.094 213.975 175.37 213.377C174.645 212.779 173.583 212.583 172.402 212.5C171.846 212.447 171.241 212.484 170.707 212.5C170.404 212.518 170.102 212.537 169.8 212.555L169.357 212.617L168.843 212.701C168.773 212.723 168.752 212.655 168.731 212.586C168.709 212.518 168.78 212.496 168.85 212.475C168.85 212.475 168.85 212.475 168.921 212.453L169.061 212.41L169.272 212.345L169.694 212.214C169.975 212.128 170.257 212.041 170.538 211.954C171.101 211.781 171.685 211.675 172.36 211.616C172.965 211.579 173.64 211.52 174.287 211.62C174.934 211.719 175.602 211.886 176.172 212.233C177.381 212.906 178.232 213.913 178.823 215.075C179.392 216.169 179.772 217.396 179.94 218.688C180.039 220.002 179.905 221.313 179.448 222.574C178.969 223.767 178.238 224.889 177.583 225.763C177.267 226.234 177.021 226.683 176.992 226.842C177.014 226.91 176.943 226.931 177.035 226.978C177.035 226.978 177.056 227.046 177.147 227.092C177.168 227.161 177.26 227.207 177.33 227.185C177.604 227.325 178.181 227.446 178.645 227.452C179.201 227.505 179.714 227.421 180.249 227.406C181.367 227.285 182.464 227.096 183.589 226.749C184.666 226.491 185.77 226.076 186.874 225.661C187.908 225.267 188.9 224.737 189.779 224.093C190.658 223.448 191.404 222.621 191.945 221.632C192.508 220.712 192.867 219.63 192.994 218.546C193.191 217.439 193.156 216.33 193.121 215.221C192.98 213.023 192.284 210.774 191.209 208.79C191.188 208.722 191.167 208.654 191.237 208.632C191.307 208.611 191.328 208.679 191.399 208.657Z" fill="#1C4C5F"/>
<path d="M174.544 228.642C173.637 229.444 172.525 230.086 171.259 230.476C170.064 230.845 168.601 230.848 167.363 230.334C166.125 229.819 165.084 228.945 164.304 227.917C163.544 226.956 162.764 225.927 162.244 224.743C161.653 223.581 161.344 222.332 160.985 221.173C160.697 219.993 160.451 218.948 159.994 217.969C159.607 216.968 159.01 216.032 158.342 215.118C157.674 214.204 156.886 213.401 155.937 212.574C155.916 212.506 155.895 212.438 155.965 212.416C156.035 212.394 156.035 212.394 156.106 212.372C158.546 213.039 160.768 214.743 162.02 217.046C162.681 218.186 162.941 219.525 163.067 220.681C163.194 221.837 163.39 222.971 163.777 223.972C164.164 224.973 164.712 225.998 165.401 226.981C165.999 227.917 166.786 228.719 167.792 229.231C168.727 229.764 169.93 229.915 171.098 229.705C172.265 229.494 173.348 229.011 174.389 228.391C174.459 228.369 174.53 228.347 174.551 228.416C174.572 228.484 174.593 228.552 174.544 228.642Z" fill="#1C4C5F"/>
<path d="M158.779 207.814C158.069 209.004 157.267 210.147 156.169 211.083C155.163 212.065 153.862 212.84 152.526 213.252C151.119 213.686 149.656 213.689 148.327 213.875C146.977 213.993 145.669 214.247 144.332 214.659C143.699 214.854 143.087 215.118 142.384 215.335C141.681 215.552 141.048 215.747 140.344 215.964L139.36 216.268C139.219 216.311 139.078 216.354 138.938 216.398C138.867 216.419 138.867 216.419 138.818 216.509C138.699 216.621 138.67 216.779 138.684 217.073C138.677 217.3 138.762 217.572 138.797 217.935C139.106 219.184 139.647 220.436 140.048 221.731C140.449 223.026 140.85 224.322 141.18 225.639C141.37 226.252 141.51 226.956 141.735 227.185C141.848 227.3 141.96 227.414 142.214 227.486C142.467 227.557 142.65 227.65 142.973 227.7C144.014 227.827 145.28 227.436 145.948 226.857C146.138 226.723 146.237 226.544 146.265 226.386C146.293 226.227 146.342 226.138 146.349 225.911C146.356 225.685 146.272 225.412 146.166 225.072C146.061 224.731 145.934 224.322 145.998 223.779C145.991 223.259 146.244 222.583 146.652 222.159C147.06 221.734 147.44 221.468 147.841 221.269C148.713 220.851 149.529 220.749 150.366 220.715C151.203 220.68 152.033 220.873 152.813 221.155C153.594 221.437 154.367 221.945 154.881 222.608C155.394 223.271 155.717 224.068 155.879 224.839C156.02 225.543 156.09 226.268 156.188 226.835C156.202 227.129 156.287 227.402 156.42 227.585C156.484 227.789 156.666 227.882 156.849 227.975C157.145 228.183 157.869 228.034 158.614 227.954C160.035 227.814 161.47 227.969 162.876 228.282C162.947 228.26 162.968 228.329 162.989 228.397C163.01 228.465 162.94 228.487 162.869 228.508C162.173 228.499 161.477 228.49 160.823 228.617C160.148 228.676 159.494 228.803 158.839 228.93C158.488 229.038 158.206 229.125 157.834 229.165C157.482 229.274 156.969 229.357 156.533 229.193C156.097 229.029 155.639 228.797 155.351 228.363C155.084 227.997 154.957 227.588 154.852 227.247C154.62 226.497 154.571 225.84 154.402 225.295C154.233 224.749 153.994 224.226 153.657 223.882C152.982 223.194 151.807 222.884 150.668 222.936C150.133 222.952 149.55 223.057 149.149 223.256C148.938 223.321 148.748 223.454 148.699 223.544C148.579 223.655 148.579 223.655 148.621 223.792C148.565 224.108 148.846 224.768 148.958 225.629C149.015 226.06 148.951 226.602 148.726 227.12C148.501 227.638 148.163 228.04 147.854 228.285C147.115 228.886 146.292 229.215 145.519 229.454C144.724 229.624 143.887 229.658 143.008 229.556C142.593 229.46 142.178 229.364 141.742 229.199C141.376 229.013 140.919 228.781 140.61 228.279C140.322 227.845 140.195 227.436 140.09 227.095C139.984 226.754 139.949 226.392 139.844 226.051C139.584 224.712 139.274 223.463 138.874 222.168C138.543 220.851 138.093 219.645 137.742 218.26C137.636 217.919 137.601 217.557 137.615 217.104C137.63 216.652 137.784 216.156 138.122 215.753C138.291 215.552 138.53 215.329 138.811 215.242C139.022 215.177 139.233 215.112 139.374 215.068L140.38 214.833C141.034 214.706 141.737 214.489 142.37 214.294C143.003 214.098 143.706 213.881 144.41 213.664C145.767 213.321 147.237 213.091 148.609 213.042C150.05 212.97 151.373 213.011 152.66 212.688C153.947 212.366 155.199 211.681 156.247 210.835C157.295 209.989 158.188 208.892 158.92 207.77C158.969 207.681 159.06 207.727 159.06 207.727C158.807 207.656 158.828 207.724 158.779 207.814Z" fill="#1C4C5F"/>
<path d="M148.789 226.578C149.415 226.609 150.041 226.64 150.597 226.693C151.223 226.724 151.778 226.776 152.355 226.897C152.931 227.018 153.586 226.891 154.134 227.17C154.408 227.31 154.612 227.471 154.837 227.7C155.062 227.929 155.287 228.159 155.484 228.546C155.505 228.614 155.456 228.704 155.386 228.726C154.985 228.924 154.633 229.032 154.352 229.119C154 229.228 153.677 229.178 153.445 229.175C152.819 229.144 152.369 228.685 151.841 228.475C151.293 228.196 150.765 227.985 150.287 227.684C149.809 227.384 149.26 227.105 148.691 226.758C148.599 226.711 148.648 226.622 148.648 226.622C148.719 226.6 148.719 226.6 148.789 226.578Z" fill="#1C4C5F"/>
<path d="M147.699 228.781C150.449 228.456 153.185 228.583 155.879 229.321C157.215 229.655 158.544 230.216 159.683 230.91C160.823 231.604 161.941 232.23 163.179 232.745C165.584 233.795 168.193 234.26 170.872 234.703C173.552 235.147 176.232 235.59 178.89 235.965C180.254 236.141 181.527 236.272 182.807 236.176C184.038 236.169 185.325 235.847 186.612 235.525L190.586 234.673L194.56 233.82C195.868 233.566 197.247 233.29 198.351 232.875C198.892 232.633 199.223 232.457 199.469 232.008C199.786 231.536 199.87 231.062 200.004 230.498C200.116 229.866 200.208 229.166 200.44 228.422C200.672 227.678 201.087 227.028 201.615 226.491C202.67 225.419 204.013 224.781 205.392 224.505C205.462 224.483 205.483 224.552 205.504 224.62C205.526 224.688 205.455 224.71 205.455 224.71C204.253 225.305 203.092 226.036 202.41 227.068C202.023 227.561 201.819 228.146 201.685 228.71C201.551 229.274 201.579 229.863 201.579 230.61C201.558 231.289 201.438 232.147 201.044 232.866C200.847 233.225 200.58 233.607 200.221 233.941C199.863 234.276 199.462 234.474 199.131 234.651C197.717 235.311 196.43 235.633 195.073 235.977C192.358 236.665 189.742 237.173 187.055 237.703C185.655 237.911 184.347 238.165 182.814 238.19C181.351 238.193 179.966 237.948 178.601 237.771C175.901 237.26 173.27 236.727 170.619 236.126C167.989 235.593 165.246 234.945 162.728 233.78C161.469 233.197 160.309 232.435 159.17 231.741C158.101 231.025 156.934 230.489 155.647 230.064C153.143 229.193 150.365 228.93 147.734 229.144C147.664 229.166 147.643 229.097 147.622 229.029C147.559 228.825 147.608 228.735 147.699 228.781Z" fill="#1C4C5F"/>
<path d="M194.843 223.278C197.185 223.377 199.555 223.318 201.911 222.965C204.267 222.612 206.602 222.19 208.761 221.45C213.171 220.015 216.892 216.851 219.101 213.033C219.643 212.044 220.093 211.009 220.402 210.018C220.691 208.958 220.909 207.92 220.944 206.789C221.071 205.704 221.106 204.573 221.191 203.352C221.226 202.221 221.332 201.068 221.367 199.937C221.403 198.806 221.487 197.585 221.663 196.41C221.839 195.236 222.015 194.061 222.353 192.912C222.691 191.762 222.958 190.634 223.598 189.466C223.746 189.196 223.964 188.905 224.273 188.66C224.583 188.415 225.005 188.285 225.399 188.313C226.137 188.458 226.587 188.917 226.967 189.397C226.988 189.466 227.009 189.534 226.939 189.555C226.869 189.577 226.869 189.577 226.777 189.531C226.299 189.23 225.8 188.861 225.357 188.923C224.913 188.985 224.716 189.345 224.491 189.862C224.111 190.876 223.985 191.96 223.879 193.113C223.576 195.372 223.576 197.613 223.597 199.921C223.632 201.031 223.618 202.23 223.533 203.451C223.427 204.604 223.322 205.757 223.146 206.931C222.97 208.106 222.653 209.324 222.245 210.495C221.837 211.666 221.246 212.745 220.655 213.823C218.017 217.997 213.832 221.155 209.148 222.451C207.952 222.819 206.764 222.962 205.596 223.173C204.407 223.315 203.24 223.526 202.03 223.6C199.632 223.817 197.22 223.74 194.906 223.482C194.835 223.504 194.814 223.436 194.793 223.368C194.772 223.3 194.772 223.3 194.843 223.278Z" fill="#1C4C5F"/>
<path d="M210.935 213.535C209.649 210.87 209.023 207.852 209.305 204.777C209.446 203.24 209.769 201.796 210.234 200.309C210.649 198.911 211.205 197.47 211.247 196.113C211.268 195.434 211.219 194.777 211.008 194.095C210.797 193.414 210.537 192.822 210.136 192.273C209.736 191.725 209.265 191.198 208.772 190.603C208.28 190.008 207.816 189.255 207.563 188.437C207.148 186.847 207.366 185.062 207.993 183.599C208.619 182.137 209.308 180.878 209.885 179.506C211.13 176.806 212.193 174.014 213.325 171.201C213.902 169.828 214.458 168.387 215.126 167.06L217.019 162.967C217.342 162.269 217.666 161.572 218.081 160.921C218.475 160.202 218.939 159.462 219.586 158.814C219.776 158.681 219.896 158.569 220.086 158.436C220.276 158.303 220.466 158.17 220.585 158.058C220.965 157.791 221.296 157.615 221.626 157.438C222.358 157.063 223.019 156.71 223.701 156.425C226.458 155.126 229.328 153.943 232.148 152.849C232.219 152.827 232.31 152.874 232.31 152.874C232.331 152.942 232.331 152.942 232.282 153.032C229.701 154.649 227.028 156.22 224.425 157.77C223.124 158.545 221.731 159.273 220.866 160.212C220.05 161.061 219.565 162.48 218.988 163.853C218.411 165.226 217.834 166.599 217.187 167.993C216.54 169.388 215.942 170.692 215.294 172.087C214.049 174.786 212.825 177.553 211.51 180.274C210.841 181.601 210.124 183.017 209.505 184.253C209.23 184.861 208.977 185.536 208.935 186.147C208.822 186.779 208.892 187.504 209.012 188.139C209.131 188.775 209.462 189.345 209.863 189.893C210.263 190.442 210.826 191.015 211.199 191.722C211.642 192.406 211.944 193.135 212.176 193.885C212.302 194.294 212.337 194.656 212.394 195.087C212.429 195.45 212.415 195.902 212.379 196.286C212.26 197.892 211.612 199.286 211.127 200.705C210.642 202.125 210.226 203.522 209.973 204.945C209.628 207.814 210.021 210.83 211.167 213.538C211.189 213.606 211.139 213.696 211.139 213.696C211.027 213.581 210.956 213.603 210.935 213.535Z" fill="#1C4C5F"/>
<path d="M238.95 151.423C238.303 153.564 237.655 155.706 236.916 157.801C236.107 159.917 235.277 161.966 234.285 163.989C233.765 165.046 233.223 166.035 232.52 166.998C232.133 167.491 231.746 167.984 231.176 168.383C230.606 168.783 229.896 169.226 228.989 169.282C228.454 169.298 228.271 169.205 228.039 169.202C227.786 169.13 227.554 169.127 227.322 169.124C227.09 169.121 226.928 169.096 226.787 169.14C226.787 169.14 226.787 169.14 226.766 169.071C226.745 169.003 226.724 168.935 226.745 169.003C226.696 169.093 226.759 169.298 226.773 169.592C226.857 169.865 226.942 170.137 226.907 170.522C226.942 170.884 226.808 171.448 226.386 171.578C225.985 171.777 225.662 171.727 225.408 171.656C225.338 171.678 225.317 171.609 225.296 171.541C225.275 171.473 225.345 171.451 225.345 171.451C225.626 171.365 225.887 171.21 225.915 171.052C226.013 170.872 225.922 170.825 225.859 170.621C225.795 170.416 225.662 170.234 225.507 169.983C225.352 169.732 225.198 169.481 225.12 168.982C225.057 168.777 225.092 168.393 225.31 168.101C225.529 167.81 225.718 167.677 225.979 167.522C226.45 167.302 226.823 167.262 227.104 167.175C227.477 167.135 227.779 167.116 228.082 167.097C228.384 167.079 228.778 167.107 228.778 167.107C228.989 167.042 229.319 166.865 229.629 166.62C230.009 166.354 230.368 166.019 230.705 165.616C231.402 164.879 232.056 164.005 232.619 163.084C233.814 161.222 234.827 159.266 235.819 157.243C236.832 155.287 237.733 153.217 238.655 151.215C238.704 151.126 238.704 151.126 238.795 151.172C238.929 151.355 238.95 151.423 238.95 151.423Z" fill="#1C4C5F"/>
<path d="M225.548 182.068C224.985 181.495 224.563 180.878 224.261 180.15C224.134 179.741 224.078 179.31 224.092 178.858C224.106 178.405 224.353 177.956 224.69 177.553C225.316 176.837 226.139 176.509 226.871 176.134C227.623 175.827 228.327 175.61 229.079 175.303C230.535 174.779 231.836 174.005 233.264 173.639C234.741 173.183 236.169 172.818 237.822 172.681C237.892 172.66 237.913 172.728 237.934 172.796C237.934 172.796 237.955 172.864 237.885 172.886C236.781 174.048 235.43 174.913 234.037 175.641C232.645 176.369 231.034 176.642 229.515 176.961C228.72 177.131 227.996 177.28 227.292 177.497C226.589 177.714 225.886 177.931 225.457 178.287C225.028 178.644 224.824 179.229 224.894 179.955C225.013 180.59 225.316 181.318 225.738 181.935C225.759 182.003 225.78 182.071 225.709 182.093C225.639 182.115 225.548 182.068 225.548 182.068Z" fill="#1C4C5F"/>
<path d="M224.27 207.331C230.446 200.646 234.969 192.605 237.256 184.058C237.833 181.938 238.319 179.772 238.551 177.534C238.805 175.365 238.875 173.103 238.897 170.931C238.919 166.518 238.757 162.012 238.688 157.553C238.618 155.334 238.548 153.115 238.337 150.939C238.232 149.852 238.126 148.764 237.88 147.72C237.634 146.675 237.339 145.721 236.854 144.9C236.657 144.512 236.277 144.032 236.01 143.666C235.651 143.254 235.384 142.888 234.955 142.498C234.259 141.742 233.373 141.119 232.487 140.496C230.785 139.229 228.661 138.091 226.952 136.303C226.123 135.364 225.412 134.314 224.984 133.176C224.794 132.563 224.625 132.017 224.456 131.472C224.358 130.905 224.238 130.269 224.161 129.771C224.035 128.615 223.951 127.595 223.655 126.641C223.381 125.754 222.826 124.955 221.989 124.242C220.407 122.863 218.297 122.02 216.208 121.245C214.119 120.471 211.855 120.124 209.583 120.003C209.513 120.024 209.492 119.956 209.471 119.888C209.449 119.82 209.52 119.798 209.59 119.776C211.897 119.513 214.211 119.77 216.518 120.254C218.705 120.849 221.004 121.558 223.002 123.033C224 123.771 224.851 124.778 225.301 125.984C225.751 127.189 225.877 128.345 226.053 129.411C226.152 129.978 226.229 130.477 226.376 130.954C226.524 131.432 226.672 131.909 226.89 132.364C227.255 133.297 227.881 134.075 228.577 134.831C229.949 136.275 231.96 137.298 233.844 138.658C235.729 140.019 237.487 141.717 238.746 143.793C239.407 144.934 239.695 146.114 239.892 147.249C240.089 148.383 240.145 149.56 240.25 150.648C240.411 152.913 240.411 155.154 240.411 157.394C240.41 161.876 240.388 166.288 240.318 170.791C240.247 173.053 240.155 175.247 239.852 177.507C239.55 179.766 239.015 182.022 238.368 184.163C235.729 192.818 230.882 200.811 224.502 207.334C224.432 207.355 224.362 207.377 224.34 207.309C224.221 207.421 224.2 207.352 224.27 207.331Z" fill="#1C4C5F"/>
<path d="M202.342 104.313C202.475 106.736 202.215 109.132 201.469 111.453C200.632 113.728 199.401 115.974 197.516 117.601C195.63 119.228 193.457 120.421 191.305 121.683L184.897 125.376L178.469 129.002C176.295 130.195 174.192 131.367 171.927 132.513C169.733 133.638 167.496 134.627 165.393 135.798C164.352 136.418 163.403 137.084 162.545 137.797C161.707 138.578 161.053 139.452 160.512 140.44C159.97 141.429 159.541 142.532 159.463 143.527C159.4 144.069 159.456 144.5 159.604 144.977C159.751 145.454 159.948 145.842 160.286 146.186C160.623 146.53 160.961 146.874 161.418 147.106C161.875 147.338 162.332 147.571 162.86 147.782C163.893 148.135 165.026 148.308 166.207 148.392C167.319 148.498 168.345 148.33 169.492 148.051C170.547 147.726 171.63 147.242 172.713 146.759C174.879 145.792 177.053 144.599 179.268 143.542C183.699 141.429 188.088 139.179 192.766 137.363C197.534 135.594 202.479 134.89 207.444 135.002C207.514 134.98 207.535 135.048 207.556 135.116C207.577 135.185 207.507 135.206 207.437 135.228C204.968 135.467 202.542 135.842 200.179 136.421C197.815 137.001 195.494 137.716 193.328 138.683C191.112 139.74 188.988 140.843 186.794 141.968L180.302 145.389C178.107 146.514 175.934 147.707 173.719 148.764C172.565 149.269 171.412 149.774 170.054 150.118C168.767 150.441 167.346 150.58 166.003 150.472C164.66 150.363 163.415 150.075 162.128 149.65C161.509 149.393 160.89 149.136 160.321 148.789C159.751 148.442 159.209 147.937 158.738 147.41C158.316 146.793 157.965 146.155 157.754 145.473C157.543 144.791 157.543 144.044 157.635 143.344C157.818 141.943 158.367 140.728 159.028 139.628C159.668 138.46 160.512 137.453 161.469 136.56C162.425 135.668 163.537 135.026 164.648 134.385C166.892 133.17 169.128 132.182 171.344 131.125C173.559 130.068 175.683 128.965 177.857 127.772L184.328 124.283L190.799 120.793C192.972 119.6 195.166 118.475 197.023 117.006C198.859 115.469 200.154 113.427 200.991 111.152C201.828 108.878 202.18 106.529 202.068 104.174C202.047 104.105 202.117 104.084 202.187 104.062C202.3 104.177 202.321 104.245 202.342 104.313Z" fill="#1C4C5F"/>
<path d="M215.66 115.739C215.927 113.864 216.518 112.039 217.109 110.214C217.792 108.435 218.636 106.681 219.663 105.02C220.69 103.359 221.788 101.676 223.223 100.337C224.749 99.0451 226.409 97.9357 228.287 97.2818C228.357 97.2601 228.448 97.3066 228.47 97.3748C228.491 97.443 228.491 97.443 228.42 97.4647C227.21 99.0327 225.958 100.464 224.777 101.874C224.151 102.59 223.574 103.216 222.948 103.932C222.301 104.58 221.675 105.296 221.119 105.99C219.958 107.468 218.98 109.039 218.094 110.657C217.208 112.274 216.434 114.007 215.843 115.832C215.864 115.9 215.793 115.922 215.702 115.875C215.702 115.875 215.681 115.807 215.66 115.739Z" fill="#1C4C5F"/>
<path d="M204.079 100.715C206.224 100.427 208.334 99.7762 210.247 98.7381C212.161 97.6999 213.919 96.4108 215.291 94.8675C216.662 93.3243 217.626 91.4587 217.992 89.4041C218.379 87.4177 218.211 85.3786 217.669 83.3798C217.445 82.4037 217.058 81.4027 216.622 80.4916C216.186 79.5805 215.729 78.6013 215.293 77.6902C214.281 75.9114 213.148 74.2442 211.756 72.7319C210.434 71.1979 208.803 69.9088 207.122 68.7095C205.371 67.5319 203.472 66.6239 201.454 65.8274C201.362 65.781 201.362 65.781 201.411 65.6911C201.39 65.6229 201.461 65.6012 201.552 65.6477C205.997 66.0692 210.273 68.1858 213.472 71.3064C215.048 72.9116 216.384 74.74 217.319 76.7667C217.797 77.8141 218.183 78.8151 218.57 79.8161C218.957 80.817 219.224 81.9295 219.47 82.9739C219.913 85.1524 220.004 87.4394 219.448 89.6273C218.892 91.8151 217.689 93.9038 216.106 95.5121C214.524 97.1205 212.583 98.3167 210.557 99.2401C208.531 100.164 206.309 100.7 204.1 100.783C204.03 100.805 204.009 100.737 203.988 100.669C203.939 100.759 204.009 100.737 204.079 100.715Z" fill="#1C4C5F"/>
<path d="M208.908 76.2241C208.542 79.0256 207.733 81.889 206.009 84.2875C205.158 85.5209 204.103 86.5931 202.893 87.4144C201.704 88.3037 200.473 89.0568 199.355 89.9245C198.237 90.7922 197.21 91.7063 196.246 92.8251C195.789 93.3395 195.332 93.8539 194.896 94.4365C194.53 94.9974 194.094 95.58 194.079 96.0324C194.072 96.2587 194.093 96.3268 194.185 96.3733C194.276 96.4198 194.53 96.4911 194.783 96.5624C195.43 96.6615 196.196 96.6491 196.914 96.7266C198.44 96.9281 200.05 97.4022 201.288 98.6635C201.893 99.3731 202.195 100.101 202.455 100.693C202.715 101.285 203.046 101.855 203.447 102.404C204.178 103.523 205.078 104.44 206.098 105.246C207.117 106.051 208.376 106.634 209.649 107.511C210.31 107.904 210.943 108.456 211.435 109.051C211.927 109.646 212.441 110.309 212.743 111.038C213.397 112.404 213.931 113.882 213.833 115.556C213.783 116.392 213.523 117.294 212.967 117.988C212.433 118.751 211.582 119.237 210.97 119.501C210.308 119.854 209.697 120.117 209.197 120.495C208.698 120.874 208.241 121.388 207.875 121.949C207.143 123.071 206.798 124.447 206.615 125.847C206.636 125.915 206.566 125.937 206.496 125.959C206.425 125.981 206.404 125.912 206.383 125.844C206.243 124.394 206.405 122.925 206.961 121.484C207.284 120.787 207.77 120.114 208.297 119.578C208.895 119.02 209.535 118.599 210.175 118.177C212.651 116.966 212.018 114.174 210.788 111.939C210.457 111.369 210.148 110.867 209.719 110.477C209.269 110.018 208.84 109.628 208.27 109.28C207.201 108.565 205.83 107.867 204.677 106.879C203.524 105.89 202.539 104.7 201.744 103.377C201.323 102.76 201.02 102.032 200.739 101.372C200.458 100.712 200.198 100.12 199.909 99.6861C199.551 99.2739 199.051 98.9052 198.503 98.6263C197.954 98.3474 197.286 98.18 196.639 98.0809C195.992 97.9817 195.275 97.9042 194.466 97.7802C194.051 97.6842 193.566 97.6098 193.137 97.2193C193.024 97.1047 192.912 96.99 192.87 96.8537C192.757 96.739 192.715 96.6026 192.673 96.4663C192.588 96.1936 192.574 95.8992 192.652 95.6513C192.891 94.6813 193.327 94.0987 193.834 93.4944C194.27 92.9118 194.797 92.3757 195.325 91.8396C196.38 90.7674 197.477 89.8315 198.666 88.9421C199.876 88.1209 201.177 87.3462 202.338 86.6148C203.568 85.8618 204.574 84.8794 205.468 83.7824C207.163 81.5419 208.155 78.7715 208.704 76.063C208.683 75.9948 208.753 75.9731 208.824 75.9514C208.866 76.0878 208.957 76.1343 208.908 76.2241Z" fill="#1C4C5F"/>
<path d="M178.448 67.172L183.56 70.0013C185.297 70.8845 187.056 71.8359 188.743 72.8089C189.587 73.2955 190.431 73.782 191.254 74.2004C191.62 74.3863 192.056 74.5505 192.358 74.5319C192.59 74.535 192.759 74.3336 192.907 74.064C193.251 73.4349 193.28 72.53 193.167 71.6685C193.055 70.807 192.753 70.0788 192.239 69.4156C191.283 68.0676 189.616 67.1627 187.858 66.2113C186.079 65.1918 184.426 63.8344 183.224 62.1889C182.021 60.5434 181.079 58.7429 180.418 56.8556C179.758 54.9684 179.329 53.0842 179.181 51.1133C179.16 51.0451 179.231 51.0234 179.301 51.0017C179.371 50.98 179.392 51.0482 179.392 51.0482C180.883 54.6213 182.493 58.0828 184.961 60.8316C186.171 62.2509 187.528 63.4006 189.075 64.417C190.643 65.5017 192.514 66.5677 193.709 68.4395C194.307 69.3753 194.644 70.4662 194.729 71.4857C194.736 72.0063 194.743 72.5269 194.679 73.0693C194.616 73.6116 194.482 74.1756 194.116 74.7365C193.969 75.0061 193.751 75.2974 193.42 75.474C193.111 75.7188 192.759 75.8273 192.365 75.7994C191.598 75.8118 191.12 75.5112 190.663 75.2788C189.749 74.814 188.954 74.2376 188.159 73.6611C186.521 72.5982 184.882 71.5353 183.265 70.5405L178.349 67.3517C178.258 67.3052 178.307 67.2153 178.307 67.2153C178.356 67.1255 178.427 67.1038 178.448 67.172Z" fill="#1C4C5F"/>
<path d="M182.542 62.4741C180.496 61.8358 178.457 60.9712 176.635 59.8152C174.814 58.6593 173.168 57.0758 171.755 55.4953C171.037 54.671 170.341 53.9149 169.666 53.2269C168.921 52.5606 168.196 51.9625 167.423 51.4543C165.855 50.3697 163.928 49.6197 161.86 48.9132C161.769 48.8667 161.769 48.8667 161.818 48.7768L161.867 48.687C164.09 48.1508 166.516 48.5227 168.527 49.5454C169.533 50.0567 170.532 50.7942 171.2 51.7084C171.938 52.6009 172.515 53.4686 173.091 54.3363C174.244 56.0717 175.637 57.584 177.198 58.8949C178.759 60.2057 180.63 61.2718 182.529 62.1797C182.62 62.2262 182.641 62.2944 182.571 62.3161C182.634 62.5206 182.634 62.5206 182.542 62.4741Z" fill="#1C4C5F"/>
<path d="M163.891 65.6874C164.208 62.9759 164.131 60.2364 163.611 57.5589C163.091 54.8815 162.641 52.1823 161.319 49.9015C159.997 47.6206 157.796 45.9844 155.264 45.2716C153.998 44.9152 152.634 44.7386 151.333 44.7665C150.032 44.7944 148.787 45.253 147.472 45.7334C144.841 46.694 142.232 47.7228 139.622 48.7517C136.992 49.7123 134.291 50.6947 131.485 51.3362C130.036 51.6336 128.636 51.8413 127.124 51.9342C125.682 52.0055 124.219 52.0086 122.764 51.7855C119.782 51.3609 117.159 49.8548 115.225 47.8374C115.204 47.7692 115.183 47.701 115.253 47.6793C115.323 47.6577 115.323 47.6577 115.394 47.636C117.714 49.1607 120.309 50.0779 122.975 50.2267C124.297 50.267 125.669 50.2174 126.998 50.0315C128.327 49.8456 129.727 49.6379 130.993 49.2475C132.28 48.9252 133.595 48.4449 134.931 48.0327C136.268 47.6206 137.604 47.2084 138.919 46.7281L146.965 44.0971C148.302 43.6849 149.779 43.2294 151.333 43.2728C152.1 43.2604 152.817 43.3379 153.555 43.4836C154.294 43.6292 155.032 43.7748 155.722 44.0104C158.549 44.9308 160.996 46.8645 162.332 49.4397C163.668 52.0149 163.928 54.8474 164.356 57.4783C164.665 60.2209 164.602 63.0037 164.144 65.7587C164.165 65.8269 164.095 65.8486 164.025 65.8702C163.933 65.8238 163.912 65.7556 163.891 65.6874Z" fill="#1C4C5F"/>
<path d="M133.523 55.1886C133.276 55.6379 133.009 56.0191 132.763 56.4685C132.496 56.8496 132.249 57.299 131.912 57.7018C131.644 58.083 131.44 58.6687 131.018 58.7988C130.828 58.9321 130.547 59.0189 130.245 59.0375C129.963 59.1242 129.661 59.1428 129.246 59.0467C129.155 59.0003 129.063 58.9538 129.112 58.8639C129.077 58.5013 129.134 58.1852 129.211 57.9373C129.288 57.6894 129.366 57.4415 129.535 57.2401C129.781 56.7907 130.365 56.6854 130.744 56.4189C131.124 56.1524 131.595 55.9323 132.046 55.6441C132.517 55.4241 132.897 55.1576 133.389 55.0057C133.459 54.9841 133.551 55.0305 133.551 55.0305C133.501 55.1204 133.523 55.1886 133.523 55.1886Z" fill="#1C4C5F"/>
<path d="M149.403 64.1815C150.43 64.0142 151.415 63.7105 152.195 63.2456C153.046 62.7591 153.694 62.1114 154.158 61.3708C154.425 60.9896 154.531 60.5837 154.707 60.156C154.812 59.7501 154.988 59.3224 155.164 58.8947C155.516 58.0394 155.867 57.1841 156.388 56.1274C156.437 56.0375 156.508 56.0158 156.529 56.084C156.529 56.084 156.529 56.084 156.55 56.1522C156.929 56.6325 157.098 57.1779 157.197 57.745C157.295 58.3122 157.323 58.901 157.26 59.4433C157.154 60.5961 156.31 61.6032 155.564 62.4306C154.748 63.2797 153.707 63.8995 152.652 64.2249C151.597 64.5503 150.458 64.6029 149.396 64.4077C149.326 64.4294 149.305 64.3612 149.284 64.293C149.333 64.2032 149.333 64.2032 149.403 64.1815Z" fill="#1C4C5F"/>
<path d="M157.046 75.1921C154.915 75.7747 152.734 76.4471 150.666 77.2343C148.578 77.9532 146.552 78.8767 144.547 79.8683C143.556 80.3982 142.564 80.9281 141.389 81.3651C140.215 81.802 138.907 82.0561 137.683 81.8361C135.116 81.5076 133.006 79.9178 131.86 77.9562C131.839 77.888 131.818 77.8199 131.888 77.7982C131.959 77.7765 131.959 77.7765 131.959 77.7765C132.964 78.2878 133.9 78.8208 134.912 79.106C135.855 79.4127 136.846 79.6297 137.845 79.6204C139.702 79.6452 141.692 79.106 143.809 78.229C145.947 77.4202 148.107 76.6795 150.329 76.1434C152.552 75.6073 154.746 75.2293 156.961 74.9194C157.032 74.8977 157.053 74.9659 157.074 75.034C157.165 75.0805 157.116 75.1704 157.046 75.1921Z" fill="#1C4C5F"/>
<path d="M136.848 72.1612C133.964 73.0506 131.08 73.9399 128.267 74.8076C126.86 75.2415 125.383 75.697 123.956 76.0627L119.623 77.2496C118.216 77.6834 116.789 78.0491 115.516 78.6658C114.313 79.2608 113.082 80.0138 112.034 80.8598C109.776 82.527 107.919 84.7428 106.125 87.163C106.076 87.2529 105.985 87.2064 105.985 87.2064C105.964 87.1382 105.964 87.1382 105.942 87.07C106.66 84.1601 108.257 81.3525 110.62 79.2793C111.837 78.2319 113.188 77.3673 114.693 76.7537C116.219 76.2083 117.738 75.8891 119.187 75.5916L123.625 74.7456C125.074 74.4482 126.523 74.1506 128.042 73.8315C131.01 73.2148 133.908 72.6198 136.876 72.0031C136.946 71.9814 136.967 72.0496 136.988 72.1178C136.967 72.0496 136.918 72.1395 136.848 72.1612Z" fill="#1C4C5F"/>
<path d="M114.587 75.6658C114.7 74.2868 114.813 72.9078 114.714 71.5938C114.686 70.2582 114.497 68.8978 114.187 67.6489C113.927 66.3101 113.337 65.1481 113.098 63.8775C112.978 63.2422 112.789 62.6286 112.648 61.9252C112.507 61.2217 112.388 60.5864 112.388 59.8396C112.367 59.7714 112.437 59.7497 112.508 59.728C112.508 59.728 112.578 59.7063 112.599 59.7745C113.802 60.6732 114.645 61.9066 115.208 63.2267C115.489 63.8868 115.7 64.5686 115.77 65.2937C115.84 66.0189 115.911 66.744 115.981 67.4691C116.121 68.9194 116.03 70.3667 115.847 71.7674C115.664 73.1681 115.319 74.544 114.812 75.8952C114.833 75.9633 114.763 75.985 114.672 75.9385C114.629 75.8022 114.608 75.734 114.587 75.6658Z" fill="#1C4C5F"/>
<path d="M154.287 87.6929C150.883 90.3858 146.986 92.4838 142.857 93.8318C138.658 95.2015 134.256 95.6632 129.987 96.3078C127.841 96.596 125.626 96.9059 123.418 96.9895C122.349 97.0205 121.188 97.005 120.189 97.0143C119.655 97.0298 119.191 97.0236 118.748 97.0856C118.305 97.1476 118.023 97.2343 117.693 97.411C117.362 97.5876 117.053 97.8324 116.856 98.1919C116.638 98.4832 116.462 98.9108 116.237 99.4284C115.836 100.374 115.315 101.43 114.682 102.372C113.486 104.235 111.903 105.843 110.053 107.086C109.983 107.107 109.913 107.129 109.892 107.061C109.871 106.993 109.871 106.993 109.92 106.903C111.341 105.27 112.487 103.497 113.311 101.675C113.712 100.73 114.042 99.8064 114.352 98.8148C114.507 98.3189 114.711 97.7333 115.076 97.1723C115.442 96.6114 115.97 96.0753 116.469 95.6972C117.039 95.2975 117.813 95.0589 118.396 94.9535C119.05 94.8265 119.606 94.8791 120.211 94.842C121.301 94.8792 122.391 94.9164 123.46 94.8854C125.57 94.9814 127.687 94.8513 129.853 94.6313C134.115 94.2129 138.441 93.9991 142.562 92.8773C146.705 91.8237 150.594 89.9519 154.174 87.5782C154.245 87.5565 154.315 87.5348 154.336 87.603C154.336 87.603 154.357 87.6712 154.287 87.6929Z" fill="#1C4C5F"/>
<path d="M101.608 103.941C101.059 105.902 100.672 107.889 100.608 109.925C100.615 111.939 100.995 113.913 101.845 115.667C102.281 116.578 102.956 117.266 103.702 117.932C104.447 118.598 105.193 119.265 106.008 119.909L110.713 123.91C112.274 125.221 113.786 126.622 115.298 128.022C116.064 128.757 116.81 129.423 117.478 130.337C117.787 130.839 118.026 131.363 118.195 131.908C118.364 132.454 118.462 133.021 118.469 133.542C118.525 134.719 118.237 135.779 117.997 136.749C117.758 137.719 117.519 138.689 117.441 139.684C117.272 140.632 117.286 141.673 117.258 142.578C117.321 143.529 117.476 144.527 117.609 145.457C118.368 149.405 119.219 153.4 120.119 157.304C120.568 159.256 121.018 161.209 121.56 163.208C121.784 164.184 122.052 165.296 122.087 166.406C122.122 167.515 122.044 168.51 121.988 169.573C121.91 170.568 121.833 171.562 122.023 172.176C122.107 172.449 122.219 172.563 122.473 172.635C122.655 172.728 123.049 172.755 123.492 172.693C124.379 172.57 125.321 172.13 126.214 171.779C127.178 171.407 128.12 170.967 129.154 170.574C133.1 169.133 137.243 168.079 141.371 167.478C141.441 167.456 141.462 167.525 141.484 167.593C141.505 167.661 141.434 167.683 141.364 167.704C137.334 168.873 133.458 170.292 129.667 171.984C128.725 172.424 127.782 172.864 126.84 173.304C125.897 173.744 124.906 174.274 123.738 174.485C123.154 174.59 122.409 174.671 121.649 174.457C121.305 174.339 120.918 174.085 120.602 173.809C120.285 173.533 120.088 173.146 119.983 172.805C119.702 172.145 119.674 171.556 119.645 170.967C119.617 170.379 119.632 169.926 119.695 169.384C119.772 168.389 119.759 167.348 119.787 166.443C119.745 165.56 119.541 164.652 119.316 163.676C118.866 161.723 118.395 159.703 118.016 157.729C117.636 155.755 117.236 153.713 116.926 151.717C116.617 149.721 116.238 147.747 115.907 145.683C115.753 144.685 115.577 143.619 115.634 142.556C115.669 141.425 115.746 140.43 115.894 139.414C116.042 138.398 116.33 137.338 116.57 136.368C116.879 135.376 117.14 134.474 117.098 133.591C117.112 133.139 117.056 132.708 116.908 132.231C116.76 131.753 116.655 131.413 116.388 131.047C115.853 130.316 115.157 129.559 114.412 128.893C112.97 127.471 111.458 126.07 109.967 124.737L105.453 120.603C104.707 119.937 103.941 119.203 103.174 118.468C102.408 117.734 101.691 116.91 101.304 115.909C100.411 114.018 100.06 111.886 100.193 109.828C100.327 107.771 100.785 105.763 101.404 103.779C101.383 103.711 101.453 103.689 101.545 103.736C101.566 103.804 101.657 103.851 101.608 103.941Z" fill="#1C4C5F"/>
<path d="M92.1341 209.549C92.514 208.536 92.9854 207.569 93.5481 206.649C94.1812 205.707 94.9479 204.947 96.01 204.396C97.0017 203.866 98.3099 203.612 99.4141 203.943C100.497 204.207 101.482 204.65 102.494 204.935C103.507 205.22 104.499 205.437 105.519 205.496C106.538 205.555 107.495 205.409 108.479 205.106C110.47 204.566 112.425 203.665 114.381 202.763C116.336 201.861 118.291 200.959 120.134 199.943C121.055 199.435 121.998 198.995 122.666 198.415C123.046 198.149 123.194 197.879 123.292 197.699C123.369 197.451 123.475 197.045 123.37 196.704C123.278 195.911 122.934 195.046 122.378 194.247C121.893 193.426 121.197 192.67 120.501 191.913C119.108 190.401 117.477 189.112 115.824 187.755C115.803 187.687 115.782 187.618 115.782 187.618C115.852 187.597 115.853 187.597 115.923 187.575C117.941 188.371 119.812 189.437 121.556 190.841C122.393 191.554 123.23 192.267 123.968 193.159C124.706 194.052 125.325 195.056 125.585 196.395C125.704 197.03 125.683 197.708 125.451 198.452C125.149 199.218 124.621 199.754 124.143 200.2C123.144 200.956 122.131 201.418 121.118 201.88C119.072 202.735 117.074 203.5 115.098 204.334C113.1 205.099 111.053 205.955 108.831 206.491C107.755 206.748 106.545 206.822 105.434 206.717C104.323 206.612 103.169 206.37 102.185 205.927C101.151 205.573 100.216 205.04 99.2733 204.734C98.3309 204.427 97.3533 204.504 96.4108 204.944C95.4683 205.384 94.6805 206.075 94.0756 206.86C93.4003 207.665 92.9079 208.564 92.4576 209.599C92.4084 209.689 92.4084 209.689 92.3169 209.642C92.1552 209.618 92.1341 209.549 92.1341 209.549Z" fill="#1C4C5F"/>
<path d="M129.911 187.965L122.898 190.949L119.346 192.418C118.193 192.923 116.997 193.292 115.865 193.865C114.711 194.37 113.67 194.99 112.671 195.746C112.172 196.124 111.673 196.502 111.244 196.859C110.815 197.215 110.357 197.73 109.717 198.151C109.077 198.573 108.465 198.836 107.741 198.985C107.016 199.133 106.25 199.146 105.603 199.047C104.238 198.87 103.043 198.492 101.798 198.204C100.553 197.916 99.3998 197.674 98.1761 197.454C96.9524 197.234 95.6794 197.104 94.4768 196.952C93.2742 196.8 92.0223 196.738 90.8829 196.791C89.7436 196.843 88.555 196.986 88.0063 197.454C87.7672 197.677 87.5984 197.878 87.5842 198.331C87.549 198.715 87.7177 199.26 87.8654 199.738C88.2309 200.67 88.9482 201.495 89.8835 202.028C91.8456 203.14 94.3915 203.401 96.9094 203.072C96.9798 203.05 97.0008 203.119 97.0219 203.187C97.043 203.255 96.9727 203.277 96.9727 203.277C94.5532 204.172 91.7329 204.519 89.1449 203.376C87.8368 202.883 86.7328 201.805 86.1 200.506C85.8187 199.846 85.5375 199.186 85.5165 198.371C85.5306 197.919 85.5659 197.534 85.7418 197.107C85.9176 196.679 86.1849 196.298 86.5437 195.963C87.2611 195.294 88.0348 195.055 88.7592 194.906C89.4836 194.758 90.1588 194.699 90.834 194.64C92.2055 194.59 93.4995 194.789 94.7936 194.987C96.0876 195.185 97.3324 195.474 98.5561 195.694C99.8009 195.982 101.046 196.27 102.312 196.626C103.507 197.004 104.703 197.383 105.835 197.556C106.412 197.677 106.946 197.661 107.46 197.578C107.973 197.494 108.536 197.321 108.986 197.032C109.436 196.744 109.844 196.32 110.344 195.942C110.822 195.495 111.413 195.164 111.912 194.786C113.002 194.076 114.205 193.481 115.358 192.976L129.707 187.804C129.777 187.782 129.868 187.829 129.868 187.829C129.96 187.875 129.981 187.943 129.911 187.965Z" fill="#1C4C5F"/>
<path d="M85.9181 202.654C84.9193 203.41 83.808 204.051 82.5209 204.374C81.2338 204.696 79.778 204.473 78.5895 203.869C77.3799 203.196 76.5009 202.347 75.6008 201.43C74.7007 200.512 73.9624 199.62 73.1326 198.681C72.3029 197.742 71.4731 196.803 70.7137 195.842C69.9542 194.882 69.2651 193.899 68.5971 192.985C67.2118 191.247 65.4257 189.706 63.4777 188.141C63.4566 188.073 63.4355 188.005 63.4355 188.005C63.4355 188.005 63.5059 187.983 63.5762 187.962C64.8703 188.16 66.0166 188.628 67.2051 189.232C68.3233 189.858 69.4132 190.642 70.3133 191.56C71.2345 192.545 71.9236 193.527 72.5635 194.6C73.1823 195.604 73.8714 196.586 74.5605 197.568C75.2496 198.551 76.009 199.511 76.7684 200.472C77.5068 201.365 78.3365 202.304 79.2226 202.926C80.1087 203.549 81.2832 203.859 82.4718 203.717C83.6604 203.574 84.8349 203.137 85.8759 202.517C85.9462 202.496 86.0166 202.474 86.0376 202.542C85.9673 202.564 85.9884 202.632 85.9181 202.654Z" fill="#1C4C5F"/>
<path d="M54.4155 160.093C53.6697 162.414 53.0856 164.76 52.6633 167.131C52.241 169.501 52.0719 171.943 51.8817 174.317C51.7829 176.737 51.6137 179.179 52.3589 181.339C52.5277 181.885 52.7667 182.408 53.0058 182.932C53.1605 183.183 53.3152 183.434 53.4698 183.685C53.6245 183.936 53.8285 184.097 54.0324 184.258C54.8903 185.039 55.8397 185.867 56.7187 186.716C58.4064 188.436 60.1152 190.224 61.7536 192.034C62.5834 192.973 63.3217 193.865 64.1023 194.894C64.8125 195.944 65.4523 197.017 65.9515 198.132C66.1906 198.656 66.4789 199.09 66.8375 199.502C67.1961 199.914 67.5548 200.326 67.9837 200.717C68.3916 201.039 68.8487 201.272 69.3972 201.55C69.9247 201.761 70.5436 202.018 71.0921 202.297C72.2806 202.902 73.2792 203.639 74.2285 204.467C75.1779 205.294 76.0287 206.301 76.8163 207.104C77.625 207.975 78.4408 208.619 79.4464 209.13C79.9739 209.341 80.431 209.574 81.0077 209.694C81.3312 209.744 81.7672 209.908 82.0415 210.048C82.3861 210.166 82.6814 210.373 82.9557 210.513C84.1653 211.185 85.1287 212.307 85.7967 213.221C86.1553 213.633 86.4929 213.977 86.8586 214.163C87.0414 214.256 87.2242 214.349 87.4563 214.352C87.6884 214.355 87.7095 214.423 87.8502 214.38C87.9908 214.337 88.3214 214.16 88.7645 214.098C89.1865 213.968 89.5593 213.928 89.9531 213.956C90.7197 213.943 91.4582 214.089 92.1474 214.324C92.8366 214.56 93.4062 214.907 93.9337 215.118C94.4611 215.328 94.9885 215.539 95.4949 215.682C96.0013 215.824 96.6694 215.992 97.1546 216.066C97.4078 216.137 97.7103 216.119 97.872 216.143C98.0338 216.168 98.3151 216.081 98.0338 216.168C97.9634 216.19 97.9142 216.28 97.865 216.37C97.8157 216.459 97.7665 216.549 97.7875 216.618C97.7594 216.776 97.7876 216.618 97.7665 216.549L97.5134 215.731C97.3236 215.118 97.2041 214.482 97.0846 213.847C97.0706 213.553 96.9862 213.28 96.93 212.849C96.8878 212.713 96.9371 212.623 96.9442 212.397C96.9934 212.307 96.9512 212.171 97.0497 211.991C97.1271 211.743 97.1975 211.721 97.2467 211.631C97.514 211.25 97.936 211.12 98.2173 211.033C98.358 210.99 98.5197 211.015 98.6604 210.971C98.8011 210.928 98.8925 210.974 98.9629 210.953C99.1949 210.956 99.3567 210.981 99.5184 211.005C99.842 211.055 100.187 211.173 100.51 211.222C101.755 211.511 102.859 211.842 104.062 211.994C105.194 212.168 106.375 212.251 107.606 212.245C108.211 212.208 108.746 212.192 109.329 212.087C109.913 211.982 110.497 211.876 111.151 211.749C111.826 211.69 112.593 211.678 113.24 211.777C113.887 211.876 114.555 212.044 115.153 212.233C116.369 212.679 117.579 213.351 118.409 214.29C120.23 216.193 120.771 218.939 120.279 221.331C120.3 221.399 120.229 221.421 120.159 221.443C120.089 221.464 120.068 221.396 120.046 221.328C120.131 220.107 120.005 218.951 119.597 217.882C119.189 216.813 118.57 215.809 117.733 215.096C116.876 214.315 115.87 213.804 114.766 213.472C114.189 213.351 113.612 213.23 113.057 213.178C112.501 213.125 111.967 213.141 111.453 213.224C110.94 213.308 110.307 213.503 109.674 213.698C109.02 213.825 108.366 213.952 107.69 214.011C106.41 214.107 105.088 214.067 103.815 213.937C102.542 213.807 101.297 213.519 100.074 213.299C99.7502 213.249 99.4971 213.178 99.265 213.175C99.1032 213.15 99.0118 213.103 98.9414 213.125C98.8711 213.147 98.8711 213.147 98.7797 213.1C98.7797 213.1 98.7797 213.1 98.7094 213.122C98.7094 213.122 98.85 213.079 98.8993 212.989C98.9696 212.967 98.8993 212.989 98.9978 212.809C99.047 212.719 99.0259 212.651 99.0259 212.651C99.0048 212.583 99.0259 212.651 99.0259 212.651C99.0681 212.787 99.1032 213.15 99.1876 213.423C99.2859 213.99 99.4547 214.535 99.6234 215.08L99.8975 215.967C99.9608 216.171 100.024 216.376 99.9889 216.76C99.9818 216.986 99.9044 217.234 99.7356 217.436C99.6371 217.615 99.4683 217.817 99.2784 217.95C98.8985 218.217 98.5961 218.235 98.3851 218.3C98.1038 218.387 97.942 218.362 97.71 218.359C97.3161 218.331 96.9223 218.303 96.5988 218.254C95.9517 218.155 95.3539 217.966 94.6858 217.798C94.0177 217.631 93.3988 217.374 92.78 217.116C92.1611 216.859 91.6829 216.559 91.2469 216.394C90.8108 216.23 90.2552 216.177 89.791 216.171C89.559 216.168 89.3269 216.165 89.1159 216.23C88.9049 216.295 88.6939 216.36 88.2719 216.49C87.8499 216.621 87.2239 216.59 86.809 216.494C86.3941 216.397 86.0494 216.28 85.6838 216.094C84.9524 215.722 84.4601 215.127 84.0804 214.647C83.2999 213.618 82.6741 212.84 81.7387 212.307C81.5348 212.146 81.2605 212.006 81.0777 211.913C80.8034 211.774 80.712 211.727 80.3885 211.678C80.065 211.628 79.7204 211.51 79.4461 211.371C79.1015 211.253 78.8272 211.114 78.553 210.974C77.3645 210.37 76.3026 209.428 75.4728 208.489C74.6431 207.55 73.9047 206.658 73.0468 205.877C72.1889 205.096 71.2817 204.405 70.2549 203.825C69.7767 203.524 69.2493 203.314 68.6304 203.057C68.0819 202.778 67.4419 202.452 66.9215 202.015C66.4012 201.578 65.9511 201.12 65.5503 200.571C65.1495 200.023 64.819 199.452 64.5589 198.861C64.0808 197.813 63.5323 196.787 62.8432 195.805C62.2245 194.801 61.4158 193.93 60.6563 192.969C59.0882 191.138 57.4498 189.328 55.8324 187.587C55.0237 186.716 54.1447 185.867 53.2657 185.018C53.0407 184.788 52.8156 184.559 52.6399 184.24C52.4852 183.989 52.3094 183.67 52.1547 183.419C51.8946 182.827 51.6344 182.235 51.4657 181.689C50.7768 179.213 51.0163 176.75 51.2065 174.376C51.467 171.98 51.6362 169.538 52.1991 167.124C52.6918 164.732 53.3462 162.364 54.1834 160.09C54.1623 160.022 54.2327 160 54.3241 160.046C54.4437 159.935 54.4647 160.003 54.4155 160.093Z" fill="#1C4C5F"/>
<path d="M107.916 215.735C107.986 217.207 108.429 218.638 109.252 219.804C110.145 220.947 111.375 221.688 112.754 222.159C113.443 222.394 114.16 222.472 114.878 222.549C115.595 222.627 116.249 222.5 117.065 222.397C118.697 222.193 120.518 222.602 121.96 223.278C123.38 223.885 124.752 224.582 126.144 225.348C126.805 225.741 127.466 226.135 128.127 226.528C128.423 226.736 128.718 226.944 128.992 227.083C129.267 227.223 129.52 227.294 129.794 227.433C130.898 227.765 132.298 227.557 133.683 227.055C135.069 226.553 136.391 225.847 137.784 225.118C137.854 225.097 137.925 225.075 137.946 225.143C137.967 225.211 137.967 225.211 137.918 225.301C136.905 226.51 135.758 227.536 134.337 228.422C133.627 228.865 132.874 229.172 132.03 229.432C131.165 229.624 130.258 229.68 129.287 229.531C128.802 229.457 128.366 229.293 127.909 229.06C127.473 228.896 127.157 228.62 126.861 228.412L125.019 227.188C123.837 226.358 122.515 225.571 121.214 224.852C120.574 224.526 119.934 224.201 119.266 224.034C118.598 223.866 117.951 223.767 117.205 223.848C116.53 223.907 115.623 223.962 114.814 223.838C114.005 223.714 113.246 223.501 112.465 223.219C110.974 222.633 109.659 221.62 108.773 220.25C107.979 218.927 107.634 217.315 107.796 215.846C107.775 215.778 107.846 215.756 107.916 215.735C107.895 215.667 107.874 215.598 107.916 215.735Z" fill="#1C4C5F"/>
<path d="M118.824 206.918C120.737 207.374 122.643 208.055 124.275 209.345C125.09 209.989 125.716 210.767 126.314 211.703C126.841 212.66 127.087 213.705 127.39 214.433C127.692 215.161 128.276 215.803 128.979 216.333C129.612 216.884 130.364 217.324 131.046 217.786C131.433 218.04 131.799 218.226 132.143 218.344C132.509 218.53 132.924 218.626 133.339 218.722C133.733 218.75 134.127 218.778 134.478 218.669C134.83 218.561 135.21 218.294 135.547 217.891C135.618 217.87 135.688 217.848 135.709 217.916L135.73 217.984C135.667 218.527 135.442 219.044 135.034 219.469C134.555 219.915 133.944 220.178 133.339 220.216C132.15 220.358 130.997 220.117 130.012 219.673C129.028 219.23 128.142 218.607 127.424 217.783C126.707 216.959 126.039 216.045 125.723 215.022C125.385 213.931 125.294 213.138 124.971 212.341C124.647 211.545 124.113 210.814 123.508 210.104C122.249 208.774 120.561 207.801 118.796 207.076C118.705 207.03 118.705 207.03 118.754 206.94C118.754 206.94 118.733 206.872 118.824 206.918Z" fill="#1C4C5F"/>
<path d="M100.087 218.074C100.756 218.241 101.353 218.43 102 218.53C102.647 218.629 103.203 218.681 103.808 218.644C104.413 218.607 104.933 218.297 105.489 218.35C105.791 218.331 106.044 218.403 106.368 218.452C106.691 218.502 107.015 218.551 107.5 218.626C107.592 218.672 107.613 218.74 107.634 218.808C107.352 219.642 106.663 220.153 105.91 220.46C105.158 220.767 104.307 220.507 103.639 220.339C102.9 220.194 102.26 219.868 101.62 219.543C101.051 219.196 100.46 218.781 99.9889 218.254C99.9679 218.186 99.9468 218.117 100.017 218.096C100.017 218.096 100.017 218.096 100.087 218.074Z" fill="#1C4C5F"/>
<path d="M57.0655 164.428C56.587 166.368 56.3406 168.311 56.3966 170.236C56.3823 172.182 56.7196 174.019 57.2187 175.882C57.6967 177.676 58.7163 179.229 59.7148 180.713C60.7344 182.266 61.9931 183.595 63.505 184.996C63.5261 185.064 63.5472 185.132 63.4768 185.154L63.4065 185.176C61.3529 184.763 59.4401 183.561 58.0267 181.981C57.3094 181.156 56.7328 180.289 56.3462 179.288C55.9595 178.287 55.7135 177.242 55.5589 176.244C55.4043 175.247 55.32 174.227 55.2358 173.207C55.2218 172.166 55.229 171.193 55.3768 170.177C55.6725 168.144 56.151 166.204 56.953 164.313C57.0022 164.224 57.0023 164.224 57.0937 164.27C57.0937 164.27 57.1148 164.338 57.0655 164.428Z" fill="#1C4C5F"/>
<path d="M67.5572 180.909C66.5516 179.651 65.7852 178.169 65.3705 176.58C64.9558 174.99 64.8224 173.313 65.1039 171.733C65.294 170.106 65.7866 168.46 66.7362 167.047C67.2216 166.375 67.8476 165.659 68.558 165.216C69.2473 164.704 70.1406 164.354 71.0057 164.162C72.7359 163.778 74.4519 163.846 76.0976 163.936C77.7223 163.958 79.4805 164.162 81.0699 164.568C81.8998 164.76 82.6382 164.906 83.4892 165.166C83.9041 165.262 84.3402 165.427 84.8184 165.727C85.0926 165.867 85.2473 166.118 85.3809 166.3C85.5145 166.483 85.6692 166.734 85.8028 166.917C86.2598 167.896 86.2316 168.801 86.3018 169.526C86.372 170.252 86.5126 170.955 86.9134 171.504C87.2439 172.074 87.6939 172.532 88.2847 172.948C88.8754 173.363 89.6068 173.735 90.2678 174.128C91.6603 174.894 93.0316 175.591 94.4663 175.746C95.1134 175.845 95.8096 175.854 96.4426 175.659C97.0053 175.486 97.5961 175.154 97.983 174.661C98.4613 174.215 98.8271 173.654 99.1507 172.957C99.4251 172.35 99.608 171.696 99.7699 170.974C99.9529 169.573 99.8828 168.101 99.4399 166.669C99.0181 165.306 98.2939 163.961 97.2813 162.929C96.2687 161.897 94.9466 161.11 93.3783 160.772C91.8803 160.413 90.2064 160.481 88.6169 160.822C88.5465 160.843 88.5254 160.775 88.5043 160.707C88.4833 160.639 88.5536 160.617 88.5536 160.617C90.108 159.914 91.81 159.687 93.5261 159.755C94.4052 159.858 95.2351 160.05 96.1071 160.378C96.9088 160.729 97.6613 161.169 98.3857 161.767C99.7429 162.916 100.741 164.401 101.318 166.015C101.965 167.608 102.14 169.421 101.992 171.184C101.873 172.043 101.612 172.945 101.261 173.8C100.888 174.587 100.374 175.418 99.6778 176.155C98.9814 176.893 98.06 177.401 97.0753 177.705C96.0907 178.008 95.0709 177.949 94.1003 177.801C92.2296 177.481 90.7246 176.601 89.29 175.7C88.6079 175.238 87.8765 174.866 87.1733 174.336C86.47 173.806 85.7739 173.05 85.359 172.207C84.9442 171.364 84.7403 170.456 84.6983 169.573C84.6562 168.69 84.6774 168.011 84.4383 167.487C84.3961 167.351 84.2836 167.236 84.2415 167.1C84.1289 166.985 84.0164 166.871 83.925 166.824C83.7211 166.663 83.3765 166.545 83.0319 166.427C82.3427 166.192 81.5128 166 80.7533 165.786C79.2342 165.358 77.708 165.157 76.0412 164.999C74.3955 164.909 72.799 164.729 71.2798 165.048C69.7396 165.299 68.3891 166.164 67.5379 167.397C66.6164 168.652 66.0817 170.162 65.7791 171.674C65.4975 173.254 65.5184 174.816 65.8418 176.36C66.1651 177.903 66.84 179.338 67.7753 180.617C67.7963 180.686 67.8174 180.754 67.7471 180.775C67.6486 180.955 67.5572 180.909 67.5572 180.909Z" fill="#1C4C5F"/>
<path d="M90.1918 169.148C88.0187 168.101 86.0708 166.536 84.6925 164.571C83.3143 162.606 82.5762 160.22 82.3726 157.819C82.3165 156.641 82.38 155.352 82.788 154.18C83.1961 153.009 83.8363 151.841 84.814 151.016C85.7706 150.124 86.903 149.551 88.169 149.16C89.3647 148.791 90.6236 148.627 91.9036 148.531C94.4144 148.429 96.9533 148.915 99.1475 150.031C100.245 150.589 101.292 151.237 102.291 151.974C103.219 152.733 104.169 153.561 104.998 154.5C108.205 158.141 110.413 162.538 111.776 167.196C112.494 169.514 113 171.897 113.133 174.32C113.21 175.566 113.196 176.766 112.992 178.098C112.766 179.362 112.309 180.624 111.81 181.749C111.514 182.288 111.169 182.917 110.804 183.478C110.417 183.971 110.03 184.463 109.573 184.978C108.707 185.917 107.751 186.809 106.661 187.519C105.57 188.228 104.368 188.823 103.081 189.146C102.448 189.341 101.632 189.443 101.027 189.48C100.331 189.471 99.7047 189.44 99.0577 189.341C96.5399 188.923 94.2613 188.281 91.8912 187.593C89.6126 186.952 87.2426 186.264 84.9921 185.464C82.7416 184.665 80.4419 183.955 78.1633 183.313C75.8847 182.672 73.4865 182.142 71.1586 181.59C71.0883 181.612 71.0672 181.544 71.0461 181.476C71.025 181.408 71.0954 181.386 71.1657 181.364C73.6202 181.578 75.9551 181.903 78.4026 182.343C80.7797 182.805 83.1779 183.335 85.4565 183.977C87.8054 184.596 90.063 185.17 92.4612 185.7C94.789 186.251 97.138 186.871 99.3815 187.15C100.514 187.324 101.583 187.293 102.497 187.011C103.552 186.685 104.565 186.223 105.444 185.579C106.344 185.002 107.273 184.268 108.019 183.441C108.427 183.016 108.764 182.613 109.081 182.142C109.397 181.671 109.665 181.29 109.89 180.772C110.361 179.806 110.811 178.771 111.008 177.664C111.227 176.626 111.262 175.495 111.227 174.386C111.136 172.099 110.742 169.83 110.138 167.627C108.929 163.22 106.904 158.916 103.971 155.414C103.233 154.521 102.445 153.719 101.538 153.028C100.68 152.247 99.7239 151.646 98.7183 151.134C96.6859 150.043 94.3791 149.56 92.009 149.619C89.7092 149.656 87.2335 150.121 85.5383 151.615C84.6802 152.327 84.0682 153.338 83.6882 154.351C83.3294 155.432 83.2237 156.585 83.2588 157.695C83.3499 159.982 83.9966 162.321 85.2834 164.24C86.5702 166.158 88.3774 167.766 90.4802 168.835C90.5716 168.882 90.5927 168.95 90.5223 168.972C90.3324 169.105 90.2621 169.127 90.1918 169.148Z" fill="#1C4C5F"/>
<path d="M81.0922 156.421C79.587 157.035 77.9483 157.465 76.3096 157.149C75.5008 157.025 74.6288 156.697 73.9959 156.145C73.2716 155.547 72.9481 154.751 72.6458 154.022C72.0904 152.476 71.7179 151.023 71.1343 149.634C70.5508 148.246 69.8969 146.879 69.1023 145.556C68.3289 144.301 67.3796 142.727 67.2041 140.914C67.0916 140.052 67.1199 139.147 67.3099 138.267C67.4999 137.387 67.8728 136.6 68.1964 135.903C69.3924 133.294 69.442 130.216 69.1893 127.158C69.1682 127.09 69.2385 127.068 69.3088 127.046C69.3792 127.024 69.4003 127.093 69.4003 127.093C70.0752 128.527 70.5603 130.095 70.743 131.682C70.9256 133.269 70.7777 135.032 70.1937 136.631C69.8912 137.397 69.6379 138.072 69.5253 138.704C69.4126 139.336 69.3211 140.037 69.3703 140.694C69.4194 141.351 69.5389 141.986 69.7498 142.668C69.9607 143.35 70.3122 143.988 70.6849 144.695C71.3599 146.129 71.9645 147.586 72.4988 149.064C73.0331 150.542 73.2861 152.107 73.729 153.539C73.9399 154.221 74.2211 154.881 74.6923 155.408C75.1423 155.866 75.8737 156.238 76.5418 156.405C77.9695 156.787 79.5801 156.514 81.1485 156.105C81.2189 156.083 81.24 156.151 81.261 156.22C81.2118 156.309 81.1415 156.331 81.0922 156.421Z" fill="#1C4C5F"/>
<path d="M66.4157 142.352C64.6854 143.483 62.7583 144.227 60.7257 144.63C58.672 144.964 56.5761 145.163 54.5507 144.593C53.538 144.308 52.5534 143.864 51.7377 143.22C50.9008 142.507 50.3031 141.571 50.0079 140.617C49.7126 139.662 49.4877 138.686 49.1924 137.732C48.9675 136.755 48.6723 135.801 48.3981 134.915C47.8076 133.006 47.1678 131.187 46.4577 129.389C45.6773 127.614 44.8758 125.77 43.7366 124.329C43.1319 123.619 42.4779 122.999 41.7184 122.785C40.9588 122.572 39.9601 122.581 39.2779 122.866C38.9262 122.974 38.6167 123.219 38.3987 123.511C38.1806 123.802 37.9836 124.161 37.8781 124.567C37.5967 125.401 37.4981 126.327 37.4909 127.301C37.3851 129.2 37.5326 131.171 37.68 133.142C37.6869 133.663 37.7431 134.093 37.7712 134.682C37.7782 135.203 37.8273 135.86 37.3138 136.69C37.0465 137.071 36.6174 137.428 36.1954 137.558C35.7734 137.688 35.3303 137.75 35.0068 137.701C34.2894 137.623 33.762 137.412 33.2345 137.202C32.7071 136.991 32.2289 136.69 31.7296 136.321C31.5046 136.092 31.3006 135.931 31.0053 135.723C30.7803 135.494 30.6256 135.243 30.4005 135.014C29.7114 134.031 29.2826 132.894 29.1069 131.828C28.7555 129.696 28.8894 127.638 29.0937 125.559C29.5443 121.536 30.0372 117.65 30.3472 113.671C30.6572 109.692 30.9883 105.782 31.2772 101.734C31.2561 101.666 31.3264 101.644 31.3968 101.623C31.4671 101.601 31.4882 101.669 31.5093 101.737C32.1904 109.668 31.9853 117.722 31.2739 125.633C31.1189 127.623 31.0835 129.501 31.3997 131.27C31.5825 132.11 31.8356 132.928 32.2785 133.613L32.6583 134.093L33.0872 134.484C33.4037 134.76 33.7694 134.946 34.1351 135.132C34.5008 135.317 34.9368 135.482 35.2392 135.463C35.4009 135.488 35.4713 135.466 35.5416 135.445C35.612 135.423 35.5416 135.445 35.612 135.423C35.6823 135.401 35.7667 134.927 35.802 134.543C35.8161 134.09 35.8091 133.57 35.7529 133.139C35.6758 131.146 35.5987 129.154 35.7327 127.096C35.8102 126.101 35.9369 125.017 36.2957 123.935C36.5209 123.418 36.7249 122.832 37.2032 122.386C37.5901 121.893 38.1598 121.493 38.7928 121.298C39.4258 121.103 40.0096 120.997 40.5441 120.982C41.1489 120.945 41.7256 121.065 42.3234 121.255C43.5401 121.701 44.3487 122.572 44.9746 123.349C46.1981 125.063 46.9996 126.907 47.7308 128.773C48.462 130.638 49.0525 132.547 49.5727 134.478C49.7976 135.454 50.0225 136.43 50.2474 137.406C50.4724 138.382 50.627 139.38 50.9011 140.266C51.1753 141.153 51.5901 141.996 52.3145 142.594C53.0388 143.192 53.8827 143.678 54.804 143.917C56.6676 144.462 58.7354 144.422 60.7398 144.177C62.7443 143.933 64.6714 143.189 66.4228 142.126C66.4931 142.104 66.5635 142.083 66.5845 142.151C66.465 142.262 66.4157 142.352 66.4157 142.352Z" fill="#1C4C5F"/>
<path d="M21.4557 124.031C20.2822 116.999 20.4168 109.714 22.169 102.676C22.6194 100.894 23.1611 99.1589 24.0264 97.4731C24.8214 95.809 26.0313 94.2409 27.3959 92.9239C28.7605 91.6069 30.2587 90.4727 31.9819 89.5678C32.854 89.1495 33.7262 88.7311 34.753 88.5638C34.964 88.4987 35.2665 88.4801 35.5689 88.4615C35.8713 88.4429 36.1034 88.446 36.4269 88.4956C36.6801 88.5669 37.0036 88.6164 37.2568 88.6877C37.531 88.8272 37.7842 88.8984 38.0585 89.0379C38.6281 89.385 39.0289 89.9335 39.2469 90.389C39.4648 90.8446 39.6125 91.3218 39.739 91.7309C40.0132 92.6172 40.2663 93.4353 40.5404 94.3216L42.0518 99.4565C42.5087 101.183 43.036 102.887 43.5914 104.433C43.8445 105.252 44.2382 106.026 44.6179 106.507C44.7726 106.758 44.9766 106.919 45.2508 107.058C45.5251 107.198 45.6868 107.222 45.9893 107.204C46.5941 107.167 47.5577 106.795 48.3314 106.556C49.105 106.318 49.8365 105.943 50.5258 105.431C51.9255 104.477 53.058 103.157 54.3523 101.861C56.8283 99.156 59.4379 96.6335 62.2303 94.2039C62.3006 94.1822 62.371 94.1605 62.3921 94.2287C62.4132 94.2969 62.4132 94.2969 62.3639 94.3868C60.0708 97.1851 57.7776 99.9834 55.5056 102.85C54.3942 104.238 53.2546 105.785 51.7072 107.009C50.8983 107.632 50.0472 108.118 49.0836 108.49C48.6124 108.71 48.1904 108.84 47.7684 108.97C47.2761 109.122 46.7837 109.274 46.2 109.379C45.5951 109.416 44.8778 109.339 44.3292 109.06C43.7104 108.803 43.1899 108.366 42.9017 107.932C42.1633 107.04 41.8892 106.153 41.5447 105.289C40.926 103.538 40.5394 101.79 40.0825 100.064L38.8032 94.9321C38.6204 94.0923 38.3463 93.206 38.1635 92.3662C38.037 91.9571 37.9104 91.548 37.7347 91.2288C37.5589 90.9096 37.4253 90.7268 37.2213 90.5657C36.7431 90.2651 36.0047 90.1194 35.2099 90.2899C34.3941 90.3921 33.6415 90.6989 32.8397 91.0956C31.3064 91.8672 29.8574 92.9115 28.521 94.0705C27.1846 95.2295 26.1435 96.5961 25.3063 98.1239C24.4692 99.6517 23.9063 101.319 23.4349 103.033C21.4577 109.841 20.9996 117.077 21.8496 124.059C21.8707 124.127 21.8003 124.149 21.73 124.17C21.4979 124.167 21.4768 124.099 21.4557 124.031Z" fill="#1C4C5F"/>
<path d="M31.3074 138.692C31.1593 141.202 31.6583 143.811 33.1068 145.754C33.7959 146.737 34.7242 147.496 35.8213 148.054C36.848 148.633 38.0647 149.079 39.1337 149.048C39.3658 149.052 39.5768 148.987 39.7878 148.921C39.9285 148.878 39.9777 148.788 40.027 148.698C40.1747 148.429 40.2381 147.886 40.1608 147.387C40.1258 146.278 39.8376 145.097 39.6197 143.895C39.4019 142.693 39.1137 141.512 38.8536 140.173C38.6147 138.903 38.5164 137.589 38.6502 136.278C38.6291 136.21 38.6994 136.188 38.7698 136.166C38.8401 136.145 38.8612 136.213 38.8612 136.213L40.4009 139.696C40.6611 140.288 40.9002 140.812 41.1814 141.472C41.4415 142.063 41.6313 142.677 41.8422 143.359C42.2429 144.654 42.4819 145.925 42.4113 147.44C42.3198 148.141 42.2705 148.977 41.6866 149.829C41.5178 150.031 41.349 150.232 41.0887 150.387C40.9691 150.499 40.8285 150.542 40.7581 150.564L40.4065 150.672C39.9141 150.824 39.45 150.818 39.0561 150.79C37.4596 150.61 36.2008 150.028 35.0405 149.265C33.8801 148.503 32.8886 147.539 32.2065 146.331C31.5245 145.122 31.1238 143.827 30.9552 142.535C30.7866 141.242 30.85 139.953 31.1456 138.667C31.1245 138.599 31.1948 138.577 31.2652 138.555C31.2863 138.624 31.3777 138.67 31.3074 138.692Z" fill="#1C4C5F"/>
<path d="M25.4281 138.115C24.9221 134.985 24.5568 131.812 24.2619 128.617C24.0373 125.4 23.9744 122.208 24.0522 118.973C24.13 115.738 24.1375 112.524 24.7709 109.342C25.334 106.181 26.1292 103.023 27.4307 100.008C27.48 99.9178 27.48 99.9178 27.5714 99.9643C27.6417 99.9426 27.6628 100.011 27.6136 100.101C27.5358 103.336 27.2048 106.5 26.9441 109.642C26.6835 112.785 26.1204 115.945 25.8597 119.088C25.5991 122.23 25.4298 125.419 25.4223 128.633C25.3938 131.778 25.4777 135.038 25.6813 138.187C25.7024 138.255 25.632 138.276 25.5617 138.298C25.4492 138.183 25.4492 138.183 25.4281 138.115Z" fill="#1C4C5F"/>
<path d="M51.8908 159.901C49.2534 159.594 46.6021 158.993 44.1477 158.032C41.6933 157.072 39.4147 155.683 37.284 154.025C35.2446 152.414 33.2334 150.644 31.3136 148.921C29.3235 147.22 27.4319 145.339 25.9693 143.102C25.1677 142.005 24.556 140.774 24.106 139.569C23.5857 138.385 23.1147 137.111 22.7351 135.884C21.9055 133.451 21.0549 130.951 20.2956 128.496L18.0672 121.043C17.6876 119.816 17.3783 118.567 16.9776 117.272C16.7878 116.658 16.6683 116.023 16.5277 115.32C16.4926 114.957 16.4575 114.594 16.4224 114.232C16.3873 113.869 16.3732 113.575 16.4084 113.191C16.4018 110.429 17.0633 107.836 17.7458 105.31C18.4284 102.784 19.2727 100.284 20.0467 97.8044C20.891 95.3036 21.6649 92.8245 22.671 90.3484C23.2197 89.1337 23.6771 87.8724 24.3172 86.7041C24.9363 85.4676 25.5765 84.2993 26.4487 83.1341C26.8848 82.5515 27.321 81.969 28.0103 81.4576C28.3198 81.2128 28.6996 80.9463 29.1216 80.8161C29.4733 80.7077 29.6632 80.5744 29.9234 80.4195C30.3736 80.1313 30.7323 79.7966 30.9504 79.5053C31.1263 79.0776 31.1262 79.0777 30.845 78.4176C30.7607 78.1449 30.5427 77.6893 30.4865 77.2586C30.4232 77.0541 30.4303 76.8278 30.5077 76.5799C30.5147 76.3537 30.5921 76.1058 30.6695 75.8579C31.0002 74.9344 31.7599 74.4014 32.3296 74.0016C33.5394 73.1804 34.6718 72.6071 35.6706 71.851C36.6905 71.163 37.5557 70.224 38.2591 69.2603C38.646 68.7676 38.8711 68.25 39.1455 67.6426C39.3495 67.0569 39.5536 66.4712 39.8069 65.7957C40.0601 65.1201 40.4752 64.4693 41.0238 64.0014C41.5725 63.5335 42.1422 63.1337 42.8244 62.8486C44.1186 62.3001 45.5182 62.0925 46.8404 62.1328C46.9107 62.1111 46.9318 62.1792 46.9529 62.2474C46.974 62.3156 46.9037 62.3373 46.8333 62.359C45.483 62.4767 44.1959 62.799 43.0846 63.4405C42.5641 63.7504 42.0647 64.1284 41.6075 64.6429C41.1995 65.0674 40.904 65.6066 40.7703 66.1707C40.5663 66.7563 40.4537 67.3885 40.2707 68.0424C40.0878 68.6963 39.7642 69.3935 39.3984 69.9544C38.6879 71.1444 37.7242 72.2631 36.6762 73.1091C35.6492 74.0233 34.3972 74.7082 33.3984 75.4643C32.899 75.8424 32.5614 76.2452 32.5051 76.5613C32.4558 76.6512 32.4769 76.7194 32.4277 76.8092C32.4488 76.8774 32.3995 76.9673 32.4417 77.1037C32.505 77.3082 32.5683 77.5127 32.7229 77.7637C32.8776 78.0147 33.0956 78.4703 33.1026 78.9909C33.1799 79.4898 33.025 79.9856 32.8492 80.4133C32.427 81.2903 31.7588 81.8698 31.1188 82.2913C30.7882 82.4679 30.3873 82.6662 30.127 82.8212C29.9371 82.9544 29.7261 83.0195 29.487 83.2426C29.1282 83.5773 28.7203 84.0019 28.3334 84.4946C26.9476 86.4903 25.9205 88.8982 24.9636 91.2843C24.0068 93.6705 23.1414 96.1032 22.2971 98.604C21.4317 101.037 20.5874 103.537 19.8134 106.017C19.0395 108.496 18.4062 110.932 18.3285 113.42C18.2862 114.03 18.3353 114.687 18.4126 115.186C18.511 115.753 18.6305 116.389 18.8203 117.002C19.1295 118.251 19.4388 119.5 19.8185 120.727L21.9062 128.224C22.5951 130.7 23.3544 133.154 24.1136 135.608C24.4932 136.836 24.9432 138.041 25.3931 139.246C25.8431 140.452 26.4126 141.546 27.1228 142.596C28.5432 144.698 30.2941 146.622 32.1436 148.367C34.0634 150.09 35.9339 151.903 37.924 153.604C39.8931 155.237 42.1012 156.647 44.5064 157.698C46.9115 158.748 49.4433 159.461 52.0807 159.768C52.151 159.746 52.1721 159.814 52.1932 159.882C52.0315 159.858 51.9611 159.879 51.8908 159.901Z" fill="#1C4C5F"/>
<path d="M49.576 57.7788C52.0168 55.4577 54.8444 53.3907 57.911 51.8475C59.4443 51.0759 61.0198 50.4406 62.6867 49.8518C64.3044 49.3529 66.0346 48.9686 67.6733 48.5379C70.9719 47.7446 73.9893 46.2912 76.9012 44.4969C78.3924 43.5889 79.9257 42.8173 81.5926 42.2285C83.2384 41.5715 84.8772 41.1408 86.4948 40.6419C89.7513 39.7122 93.0569 38.6926 96.468 38.014C96.9111 37.952 97.3331 37.8219 97.7973 37.8281C98.3107 37.7444 98.7257 37.8405 99.1898 37.8467C100.069 37.9489 100.969 38.1194 101.82 38.3797C102.671 38.64 103.381 38.9437 104.169 38.9995C104.908 39.1451 105.723 39.0429 106.539 38.9406C108.101 38.7578 109.472 37.9614 110.984 37.1216C112.497 36.2818 114.283 35.5814 116.098 35.4698C117.961 35.2684 119.691 35.631 121.4 35.9254C123.109 36.2198 124.699 36.6258 126.408 36.9202C129.685 37.5524 133.04 37.9366 136.402 38.0947C137.26 38.1288 138.026 38.1164 138.884 38.1505C139.721 38.1164 140.537 38.0141 141.444 37.9584C143.259 37.8468 145.038 38.1195 146.747 38.4139C148.456 38.7083 150.207 39.1391 151.811 39.8395C153.463 40.45 155.039 41.3084 156.452 42.142C157.936 42.9539 159.329 43.7193 160.841 44.3732C162.353 45.0271 163.893 45.5229 165.482 45.9289C167.093 46.4031 168.661 46.7408 170.279 46.9888C171.896 47.2367 173.542 47.3266 175.279 47.4629C178.753 47.7356 182.164 48.5507 185.378 49.7252C188.571 50.8315 191.82 52.3686 194.324 54.7331C196.827 57.0976 198.592 60.0633 199.513 63.2893C199.534 63.3574 199.463 63.3791 199.393 63.4008C199.323 63.4225 199.302 63.3543 199.302 63.3543C198.121 60.2833 196.187 57.519 193.697 55.4489C191.187 53.3107 188.114 52.0928 184.963 51.1228C183.352 50.6486 181.763 50.2427 180.124 49.9266C178.486 49.6105 176.889 49.4307 175.173 49.3626C173.528 49.2727 171.741 49.2262 170.053 49C168.295 48.7954 166.586 48.501 164.905 48.0486C163.224 47.5961 161.593 47.0538 159.94 46.4433C158.358 45.8111 156.782 44.9527 155.299 44.1408C153.815 43.3289 152.422 42.5634 150.931 41.9777C149.44 41.392 147.851 40.986 146.283 40.6483C144.644 40.3322 143.026 40.0843 141.493 40.109C140.727 40.1214 139.819 40.1772 138.912 40.233C137.984 40.2206 137.126 40.1865 136.268 40.1524C132.793 39.8797 129.418 39.4272 126.049 38.7485C124.41 38.4324 122.729 37.98 121.091 37.6639C119.452 37.3478 117.813 37.0317 116.301 37.1247C114.719 37.2393 113.193 37.7847 111.73 38.5347C110.998 38.9096 110.217 39.3745 109.395 39.703C108.572 40.0314 107.657 40.3134 106.771 40.4374C105.885 40.5613 104.957 40.549 104.007 40.4684C103.037 40.3196 102.256 40.0376 101.475 39.7556C100.695 39.4736 99.9563 39.328 99.1686 39.2722C98.7747 39.2443 98.3809 39.2164 98.0081 39.2567C97.6354 39.297 97.1922 39.3589 96.8195 39.3992C93.549 40.0345 90.2223 40.9858 86.9448 41.8473C85.306 42.2781 83.6672 42.7088 82.0707 43.2759C80.4741 43.843 78.99 44.5248 77.4989 45.4328C74.5659 47.1589 71.3375 48.6773 68.0178 49.4025C66.358 49.765 64.677 50.0594 63.0594 50.5583C61.4417 51.0573 59.8662 51.6925 58.3118 52.396C55.2944 53.8494 52.4458 55.8482 49.9839 58.1011C49.9136 58.1228 49.8432 58.1445 49.8221 58.0763C49.5268 57.8687 49.5057 57.8005 49.576 57.7788Z" fill="#1C4C5F"/>
<path d="M217.256 74.3214C219.781 75.2604 222.249 76.5155 224.043 78.5763C224.893 79.5834 225.526 80.8819 225.786 82.2206C226.046 83.5594 226.123 84.8051 226.714 85.9672C227.284 87.0612 228.254 87.9568 229.323 88.6726C229.893 89.0197 230.441 89.2986 231.039 89.4876L231.981 89.7944C232.326 89.9122 232.6 90.0517 232.945 90.1694C235.441 91.2665 237.614 93.0608 239.386 95.0534C241.158 97.046 242.691 99.2617 244.034 101.611C245.286 103.913 246.509 106.374 247.24 108.986C248.773 114.189 248.857 119.69 247.716 124.97L247.463 124.152C248.596 125.073 249.629 126.173 250.452 127.338C250.874 127.955 251.296 128.571 251.647 129.21C251.999 129.848 252.231 130.598 252.512 131.258C253.447 134.032 253.777 136.843 253.967 139.697C254.086 142.572 253.811 145.42 253.445 148.222C253.262 149.622 253.079 151.023 252.805 152.377C252.551 153.8 252.136 155.197 251.981 156.44C251.756 157.704 251.714 159.062 251.742 160.397C251.769 161.733 251.917 162.957 252.198 164.364C252.479 165.771 252.43 167.355 252.176 168.777C251.923 170.199 251.529 171.665 251.001 172.948C250.495 174.299 249.805 175.557 249.046 176.837C248.265 178.049 247.484 179.261 246.591 180.358C244.734 182.573 242.673 184.628 240.323 186.249C240.253 186.27 240.183 186.292 240.162 186.224C240.141 186.156 240.119 186.088 240.19 186.066C242.314 184.216 244.213 182.136 245.796 179.781C246.598 178.638 247.308 177.448 247.927 176.211C248.547 174.975 249.166 173.738 249.553 172.499C250.01 171.238 250.284 169.883 250.418 168.572C250.622 167.24 250.545 165.994 250.306 164.724C250.046 163.385 249.744 161.91 249.674 160.438C249.604 158.966 249.625 157.54 249.857 156.05C250.09 154.559 250.455 153.251 250.66 151.919C250.934 150.565 251.068 149.254 251.251 147.853C251.638 145.12 251.955 142.408 251.878 139.669C251.822 136.997 251.513 134.255 250.733 131.732C250.543 131.119 250.353 130.505 250.023 129.935C249.762 129.343 249.432 128.773 249.052 128.293C248.321 127.174 247.421 126.257 246.38 125.383C246.155 125.153 246.071 124.881 246.127 124.565C247.26 119.51 247.331 114.261 245.953 109.308C245.264 106.832 244.224 104.465 242.972 102.162C241.721 99.8598 240.279 97.6905 238.599 95.7444C236.918 93.7983 234.907 92.0288 232.572 90.9566L231.679 90.5599L230.715 90.1849C230.096 89.9277 229.457 89.6023 228.887 89.2552C227.727 88.4929 226.714 87.4609 226.102 86.2307C225.49 85.0004 225.441 83.5966 225.203 82.326C224.964 81.0554 224.443 79.8716 223.663 78.8428C222.031 76.8068 219.633 75.53 217.158 74.5012C217.066 74.4547 217.066 74.4547 217.116 74.3648C217.165 74.2749 217.165 74.2749 217.256 74.3214Z" fill="#1C4C5F"/>
<path d="M241.292 149.281C242.305 148.072 243.156 146.839 243.916 145.559C244.676 144.279 245.344 142.953 245.9 141.512C246.153 140.837 246.385 140.093 246.547 139.371C246.709 138.649 246.962 137.973 247.124 137.251C247.61 135.832 248.025 134.434 248.721 132.95C248.771 132.86 248.841 132.838 248.862 132.906L248.953 132.953C249.509 134.499 249.48 136.151 249.269 137.71C249.058 139.269 248.2 140.728 247.482 142.144C246.765 143.56 245.864 144.884 244.781 146.114C243.768 147.323 242.643 148.416 241.405 149.396C241.334 149.417 241.264 149.439 241.243 149.371C241.243 149.371 241.222 149.303 241.292 149.281Z" fill="#1C4C5F"/>
<path d="M244.001 133.883C243.122 132.287 242.412 130.49 242.005 128.674C241.801 127.766 241.738 126.815 241.745 125.842C241.752 124.868 241.921 123.92 242.09 122.972C242.519 121.122 242.829 119.383 243.16 117.713C243.54 115.953 243.849 114.214 244.279 112.364C244.258 112.296 244.328 112.274 244.398 112.253L244.49 112.299C245.27 114.075 245.417 116.046 245.312 117.945C245.234 118.94 245.065 119.888 244.713 120.744L243.75 123.356C243.187 125.023 242.947 126.74 243.032 128.507C243.116 130.273 243.594 132.067 244.121 133.772C244.142 133.84 244.093 133.93 244.093 133.93C244.093 133.93 244.022 133.951 244.001 133.883Z" fill="#1C4C5F"/>
<path d="M235.138 102.487C233.646 104.142 232.451 106.005 231.599 107.985C230.748 109.965 230.452 111.998 230.712 114.083C230.818 115.171 230.923 116.259 231.099 117.325C231.204 118.413 231.239 119.522 231.133 120.675C230.971 122.891 230.577 125.103 229.768 127.22C229.719 127.31 229.719 127.31 229.627 127.263L229.536 127.217C229.164 125.016 229.023 122.819 228.904 120.69C228.785 118.561 228.968 116.414 228.968 114.173C229.003 113.042 229.109 111.889 229.377 110.761C229.644 109.633 230.073 108.53 230.615 107.542C231.768 105.543 233.239 103.82 234.934 102.326C235.004 102.304 235.074 102.283 235.096 102.351C235.166 102.329 235.187 102.397 235.138 102.487Z" fill="#1C4C5F"/>
<path d="M85.9818 147.819C84.9339 147.171 83.9564 146.501 82.9789 145.832C82.0014 145.163 81.0731 144.404 80.1238 143.576C79.2448 142.727 78.3658 141.878 77.7541 140.648C77.5783 140.328 77.4728 139.988 77.487 139.535C77.5011 139.083 77.6066 138.677 77.8529 138.227C77.9513 138.048 78.1202 137.846 78.3101 137.713C78.5 137.58 78.6196 137.468 78.8095 137.335L79.2807 137.115L79.752 136.895C80.9969 136.436 82.1433 136.157 83.2476 135.742C84.3518 135.327 85.3857 134.933 86.49 134.518C87.0315 134.276 87.5942 134.103 88.0444 133.814C88.5859 133.573 89.1275 133.331 89.6691 133.089C90.7312 132.538 91.7932 131.986 92.8553 131.434C92.9256 131.413 92.996 131.391 93.017 131.459C93.0381 131.527 93.0381 131.527 92.9678 131.549C91.6031 133.613 89.5563 135.215 87.3126 136.43C86.1802 137.003 85.0056 137.44 83.7888 137.741C82.5721 138.041 81.3131 138.206 80.2581 138.531C79.7658 138.683 79.2734 138.835 79.1257 139.104C78.9569 139.306 78.9217 139.69 79.0482 140.099C79.3435 141.054 80.0818 141.946 80.8905 142.817C82.4375 144.58 84.2237 146.12 86.0099 147.66C86.031 147.729 86.0521 147.797 86.0521 147.797C86.0732 147.865 86.0028 147.887 85.9818 147.819Z" fill="#1C4C5F"/>
<path d="M102.672 139.011C100.098 137.416 97.6225 135.64 95.6536 133.26C94.6691 132.07 93.8745 130.747 93.291 129.358C92.7567 127.88 92.4334 126.337 92.4336 124.843C92.4127 123.281 92.7153 121.769 92.5467 120.477C92.357 119.116 91.7242 117.818 90.8522 116.743C89.0873 114.524 86.436 113.176 83.6088 112.255C82.1601 111.806 80.8028 111.403 79.347 111.18C77.9122 111.025 76.4494 111.028 75.0498 111.236C72.2295 111.583 69.5427 112.859 67.3059 114.595C66.1876 115.463 65.0621 116.556 63.9859 117.561C62.9308 118.633 61.9672 119.751 61.0949 120.917C59.3715 123.315 57.8731 125.943 56.8107 128.735C56.7615 128.825 56.7615 128.825 56.67 128.779C56.5997 128.8 56.5786 128.732 56.6279 128.642C57.1628 125.639 58.2744 122.757 59.822 120.04C60.631 118.67 61.5525 117.415 62.5655 116.206C63.5995 115.066 64.6335 113.925 65.8503 112.878C67.0672 111.831 68.488 110.944 69.9721 110.263C71.4772 109.649 73.116 109.218 74.7477 109.014C78.0321 108.673 81.3305 109.373 84.1506 110.52C87.0199 111.577 89.9877 113.2 91.9284 115.738C92.8636 117.018 93.5597 118.521 93.7424 120.108C93.925 121.695 93.552 123.229 93.5307 124.654C93.4391 126.101 93.6499 127.53 94.142 128.872C94.6342 130.214 95.3373 131.49 96.1811 132.724C97.9179 135.101 100.274 136.988 102.798 138.674C102.89 138.72 102.841 138.81 102.841 138.81C102.742 138.99 102.672 139.011 102.672 139.011Z" fill="#1C4C5F"/>
<path d="M50.3384 144.174C49.3324 145.903 48.7836 147.864 48.9803 149.745C49.1769 151.626 50.0066 153.312 51.3568 154.688C52.0318 155.376 52.7351 155.906 53.5789 156.393C54.3525 156.901 55.2456 157.298 55.9981 157.738C57.6437 158.574 59.4863 159.052 61.5891 159.374C61.6595 159.352 61.6805 159.42 61.7016 159.489L61.6524 159.578C59.6971 160.48 57.2355 160.493 55.1469 159.718C52.9878 158.965 51.3845 157.518 49.9992 155.779C49.3523 154.933 48.7546 153.997 48.4383 152.975C48.0516 151.974 47.9463 150.886 47.9112 149.776C48.0241 147.651 48.8542 145.602 50.2048 143.991C50.2751 143.969 50.3454 143.947 50.3454 143.947C50.3876 144.084 50.3876 144.084 50.3384 144.174Z" fill="#1C4C5F"/>
<path d="M68.6012 151.908C66.2519 153.529 63.6354 154.784 60.7166 155.311C60.3439 155.351 59.9922 155.46 59.6898 155.478C59.4085 155.565 59.0357 155.606 58.8458 155.739C58.7755 155.76 58.7965 155.829 58.895 155.649C58.9443 155.559 58.8529 155.513 58.9232 155.491C58.9232 155.491 58.9232 155.491 59.0146 155.537C59.2186 155.698 59.4928 155.838 59.7882 156.046C60.9978 156.718 62.2706 157.595 63.3044 158.695C63.8458 159.2 64.2677 159.817 64.6685 160.365C64.8936 160.595 65.0272 160.778 65.21 160.871C65.414 161.032 65.6671 161.103 65.9203 161.174C66.9541 161.528 68.2974 161.636 69.6196 161.676C72.3344 161.735 75.1055 161.478 78.0101 161.404C78.0805 161.382 78.1016 161.45 78.1226 161.518C78.1437 161.586 78.0734 161.608 78.0734 161.608C76.73 162.247 75.4148 162.727 73.987 163.093C72.5592 163.458 71.1807 163.734 69.6686 163.827C68.1565 163.92 66.5811 163.808 65.069 163.155C64.7033 162.969 64.3166 162.714 64.0001 162.439C63.6837 162.163 63.325 161.751 63.1493 161.431C62.7274 160.815 62.418 160.313 62.0171 159.764C61.2366 158.735 60.2169 157.93 59.0566 157.167C58.7612 156.96 58.4659 156.752 58.1494 156.476C58.058 156.43 57.9455 156.315 57.8822 156.111C57.7697 155.996 57.6853 155.723 57.7627 155.475C57.8401 155.227 57.9386 155.048 58.1285 154.914C58.2481 154.803 58.3888 154.759 58.5083 154.648C58.9796 154.428 59.3524 154.388 59.7251 154.347C60.0979 154.307 60.4706 154.267 60.7731 154.248C63.4949 154.081 66.1957 153.098 68.6997 151.729C68.77 151.707 68.8404 151.685 68.8614 151.754C68.6504 151.819 68.6715 151.887 68.6012 151.908Z" fill="#1C4C5F"/>
<path d="M83.1618 88.6442C82.4941 85.4895 82.4805 82.2077 83.1842 79.0035C83.5361 77.4013 84.12 75.8023 84.7462 74.3396C85.3723 72.8769 86.1391 71.3708 86.2729 70.0599C86.2941 69.3813 86.1747 68.746 85.8442 68.1758C85.584 67.5839 85.134 67.1252 84.5433 66.71C84.0229 66.273 83.3618 65.8795 82.6797 65.4177C81.9976 64.956 81.1818 64.3114 80.7037 63.264C80.2959 62.1948 80.4508 60.9522 80.894 60.1433C81.3865 59.2447 82.0336 58.597 82.7229 58.0857C84.0804 56.9948 85.6348 56.2914 87.2314 55.7243C87.3017 55.7026 87.3932 55.7491 87.3932 55.7491C87.4142 55.8172 87.4143 55.8172 87.3439 55.8389C86.0567 56.9081 84.8399 57.9555 83.8058 59.0959C83.2994 59.7002 82.8633 60.2828 82.6592 60.8685C82.4552 61.4542 82.4622 61.9748 82.659 62.3622C82.8559 62.7496 83.3763 63.1865 83.967 63.6017C84.5577 64.017 85.3313 64.5252 85.9853 65.145C87.3636 66.3629 88.2776 68.3214 87.9398 70.218C87.7708 71.1663 87.4894 71.9999 87.0954 72.7188C86.7226 73.506 86.3075 74.1567 85.9839 74.854C85.2664 76.2702 84.6192 77.6647 84.1759 79.2204C83.2471 82.1953 83.0075 85.4058 83.3728 88.5791C83.3939 88.6473 83.3236 88.669 83.2532 88.6907C83.2532 88.6907 83.1829 88.7124 83.1618 88.6442Z" fill="#1C4C5F"/>
<path d="M68.7543 68.9658C69.1267 71.1661 69.0561 73.4283 68.6831 75.7091C68.486 76.8155 68.1482 77.9652 67.7683 78.9785C67.4095 80.06 66.9592 81.0951 66.3683 82.1735C65.7774 83.2519 65.0739 84.2157 64.2791 85.133C63.3928 86.0038 62.394 86.7599 61.2405 87.2651C59.0038 88.2536 56.3735 88.4674 54.1652 87.8042C54.0948 87.8259 54.0737 87.7578 54.123 87.6679L54.1722 87.578C56.3948 87.0419 58.5048 86.3912 60.2561 85.3282C61.1775 84.82 62.0075 84.2653 62.7953 83.5742C63.6042 82.9513 64.2795 82.1456 64.9337 81.2717C65.5175 80.4195 65.9889 79.4527 66.5305 78.4641C67.0019 77.4972 67.3818 76.4839 67.6703 75.424C68.3387 73.3509 68.5922 71.1816 68.5925 68.9411C68.5714 68.8729 68.6418 68.8512 68.7121 68.8295C68.6418 68.8512 68.7332 68.8977 68.7543 68.9658Z" fill="#1C4C5F"/>
<path d="M66.337 57.1651C65.1202 58.2125 64.0158 59.3746 63.1858 60.6761C62.3557 61.9777 61.7788 63.3505 61.3847 64.8163C60.9907 66.2821 61.0327 67.9121 60.0759 69.5514C59.8086 69.9326 59.5624 70.382 59.2037 70.7167C58.8449 71.0513 58.3948 71.3395 57.9939 71.5378C57.1217 71.9562 56.1441 72.0337 55.2932 71.7734C55.2228 71.7951 55.2017 71.7269 55.251 71.637L55.3002 71.5472C56.102 71.1505 56.7421 70.729 57.2204 70.2828C57.6776 69.7684 57.9942 69.2973 58.2475 68.6218C58.5218 68.0144 58.6837 67.2923 59.0073 66.5951C59.3098 65.8296 59.542 65.0859 59.9149 64.2988C60.2174 63.5333 60.5903 62.7462 60.9842 62.0272C61.4485 61.2866 61.9339 60.6142 62.5107 59.9882C63.6643 58.7362 64.9725 57.7353 66.4144 56.9171C66.4848 56.8955 66.5551 56.8737 66.5762 56.9419C66.3863 57.0752 66.316 57.0969 66.337 57.1651Z" fill="#1C4C5F"/>
<path d="M53.6901 63.6047C52.5857 65.5136 51.2984 67.3296 49.9408 69.1673C48.562 70.9367 47.1622 72.6381 45.6921 74.3611C44.9676 75.2567 44.2219 76.0841 43.3357 76.9549C42.4986 77.7358 41.4999 78.4919 40.4167 78.9753C38.2715 80.0104 35.9294 80.658 33.6577 80.5372C33.5874 80.5589 33.5663 80.4907 33.5452 80.4225C33.5241 80.3543 33.5945 80.3327 33.5945 80.3327C35.6693 79.3193 37.6036 78.3494 39.3831 77.1284C40.2834 76.552 41.1134 75.9973 41.9926 75.3527C42.8718 74.7081 43.6596 74.0171 44.4263 73.2578C45.9597 71.7394 47.6127 70.1093 49.125 68.5227C50.6373 66.936 52.1286 65.2812 53.5073 63.5117C53.5776 63.4901 53.6479 63.4684 53.6479 63.4684C53.669 63.5365 53.6901 63.6047 53.6901 63.6047Z" fill="#1C4C5F"/>
<path d="M78.0334 46.9107C78.7368 46.6937 79.419 46.4086 80.0098 46.077C80.6006 45.7455 81.1915 45.4139 81.7401 44.946C82.2888 44.478 82.5842 43.9388 83.1751 43.6072C83.7659 43.2756 84.3356 42.8759 85.25 42.5939C85.3203 42.5722 85.4117 42.6187 85.4328 42.6868C85.5101 43.1858 85.4749 43.57 85.299 43.9977C85.1934 44.4037 84.9964 44.7631 84.708 45.0761C84.2227 45.7486 83.3997 46.0771 82.6472 46.3838C81.9157 46.7588 81.1209 46.9293 80.3262 47.0997C79.5103 47.202 78.7437 47.2144 78.0263 47.1369C77.956 47.1586 77.9349 47.0904 77.9139 47.0222C77.9631 46.9324 78.0334 46.9107 78.0334 46.9107Z" fill="#1C4C5F"/>
<path d="M94.702 46.9977C95.2223 47.4347 95.6232 47.9832 95.8833 48.5751C96.2138 49.1453 96.3543 49.8488 96.4246 50.5739C96.4597 50.9365 96.4948 51.2991 96.4596 51.6833C96.4244 52.0676 96.3188 52.4736 96.1008 52.7649C95.6154 53.4373 94.905 53.8805 93.9555 53.7999C93.8852 53.8216 93.7727 53.7069 93.822 53.617C93.9416 52.7586 94.0261 52.2845 94.1105 51.8104C94.1247 51.3579 94.5537 51.0016 94.6171 50.4592C94.7508 49.8952 94.8353 49.4211 94.8072 48.8323C94.7792 48.2435 94.6808 47.6764 94.491 47.0628C94.4699 46.9946 94.5191 46.9047 94.5895 46.883C94.6106 46.9512 94.6105 46.9512 94.702 46.9977Z" fill="#1C4C5F"/>
<path d="M162.018 79.5586C164.606 80.7021 166.941 82.5212 168.537 84.9415C169.36 86.1067 169.873 87.5167 170.274 88.812C170.766 90.1539 171.166 91.4492 171.588 92.8128C172.01 94.1763 172.432 95.5398 172.312 97.1451C172.242 97.9136 171.911 98.8371 171.243 99.4166C170.504 100.018 169.639 100.21 168.915 100.359C167.466 100.656 165.841 100.634 164.364 100.343C163.626 100.197 162.866 99.9836 162.177 99.7481C161.488 99.5126 160.778 99.2089 160.25 98.9982C159.652 98.8091 159.097 98.7564 158.422 98.8153C157.817 98.8525 157.163 98.9796 156.53 99.1748C155.264 99.5653 153.878 100.067 152.584 100.616C151.269 101.096 149.974 101.645 148.61 102.215C147.316 102.763 145.93 103.265 144.615 103.746C141.914 104.728 139.213 105.71 136.491 106.625C133.769 107.539 131.026 108.385 128.262 109.163C128.192 109.184 128.171 109.116 128.15 109.048C128.129 108.98 128.199 108.958 128.199 108.958C133.32 106.333 138.545 104.049 143.863 101.812C146.521 100.693 149.131 99.6644 151.902 98.6604C153.287 98.1583 154.694 97.7245 156.122 97.3588C156.846 97.2101 157.641 97.0396 158.408 97.0273C159.245 96.9932 160.053 97.1171 160.834 97.3991C161.615 97.6811 162.234 97.9383 162.852 98.1955C163.471 98.4528 164.139 98.6201 164.808 98.7875C166.123 99.054 167.466 99.1624 168.795 98.9765C169.47 98.9176 170.033 98.7441 170.413 98.4776C170.772 98.1429 171.018 97.6936 171.13 97.0614C171.285 95.8187 170.955 94.5017 170.625 93.1846C170.294 91.8676 169.872 90.504 169.542 89.187C169.141 87.8916 168.741 86.5963 168.059 85.3877C166.645 83.0604 164.522 81.1762 162.032 79.853C161.941 79.8065 161.92 79.7384 161.99 79.7167C161.948 79.5803 162.018 79.5586 162.018 79.5586Z" fill="#1C4C5F"/>
<path d="M195.545 76.6112C196.537 77.5749 197.669 78.4953 198.956 78.9199C199.554 79.1089 200.18 79.1399 200.672 78.988C201.094 78.8579 201.432 78.455 201.797 77.8941C202.163 77.3332 202.367 76.7475 202.691 76.0503C202.965 75.4429 203.289 74.7456 203.655 74.1847C204.436 72.973 205.237 71.8295 206.293 70.7573C206.363 70.7356 206.433 70.7139 206.454 70.7821L206.475 70.8503C206.475 71.5971 206.405 72.3657 206.243 73.0877C206.081 73.8098 205.828 74.4853 205.575 75.1609C205.068 76.512 204.196 77.6772 203.183 78.8858C202.894 79.1988 202.606 79.5118 202.297 79.7566C201.917 80.0231 201.445 80.2431 201.023 80.3733C200.067 80.5189 199.216 80.2586 198.485 79.8867C197.824 79.4932 197.212 79.0097 196.741 78.4829C196.269 77.9561 195.777 77.3611 195.447 76.7909C195.426 76.7227 195.405 76.6545 195.475 76.6328C195.454 76.5647 195.475 76.6328 195.545 76.6112Z" fill="#1C4C5F"/>
<path d="M242.588 179.874C242.518 178.402 242.659 176.865 242.87 175.306C243.103 173.816 243.475 172.282 244.031 170.841C244.587 169.4 245.03 167.844 245.952 166.589C246.873 165.334 248.048 164.15 249.511 163.4C249.581 163.379 249.652 163.357 249.673 163.425L249.694 163.493C249.159 165.002 248.491 166.329 247.893 167.633C247.295 168.938 246.352 170.125 245.684 171.451C245.016 172.778 244.439 174.15 244.024 175.548C243.538 176.967 243.144 178.433 242.891 179.856C242.912 179.924 242.841 179.945 242.771 179.967C242.63 180.01 242.609 179.942 242.588 179.874Z" fill="#1C4C5F"/>
<path d="M248.824 154.949C248.275 153.923 247.987 152.743 247.72 151.63C247.621 151.063 247.572 150.406 247.544 149.817C247.516 149.229 247.559 148.618 247.601 148.008C247.685 146.787 247.84 145.544 248.502 144.444C248.797 143.905 249.184 143.412 249.662 142.966C250.14 142.519 250.64 142.141 251.252 141.878C251.322 141.856 251.414 141.903 251.414 141.903L251.435 141.971C251.209 143.235 250.829 144.249 250.541 145.308C250.231 146.3 249.598 147.242 249.31 148.302C249.021 149.362 248.824 150.468 248.768 151.531C248.662 152.684 248.768 153.772 248.964 154.906C248.985 154.974 248.915 154.996 248.845 155.017C248.915 154.996 248.824 154.949 248.824 154.949Z" fill="#1C4C5F"/>
</svg>
