<svg width="210" height="315" viewBox="0 0 210 315" fill="none" xmlns="http://www.w3.org/2000/svg">
<path d="M63.8154 235.893C64.6591 239.486 65.1347 243.193 65.2345 246.952C65.2911 249.569 65.1514 252.202 64.8165 254.827C62.4542 258.274 60.0904 261.72 57.7249 265.165C57.2968 266.233 56.6685 267.211 55.8804 268.036C54.0866 269.888 51.9818 270.307 50.0636 270.758C43.9899 272.179 45.3344 272.645 40.5212 273.605C35.2759 274.639 29.9747 274.866 24.7848 274.28C21.4477 273.789 20.4428 274.107 20.2423 274.572C20.0417 275.038 20.5293 275.403 20.9918 276.675C21.2986 277.496 21.5057 278.361 21.6087 279.251L15.6771 286.413C13.6288 282.919 12.3098 278.962 11.8006 274.785L1.40457 276.619C3.36306 274.085 5.31834 271.549 7.27043 269.011L11.4722 267.599L12.4103 257.998C14.2791 255.315 16.3467 252.787 18.5913 250.441C21.8423 247.043 24.4722 244.297 28.2447 242.378C29.6598 241.665 32.2038 240.564 43.6752 240.041C48.5565 239.824 52.7493 239.793 56.0325 239.851C54.8252 236.334 53.3404 231.846 51.7521 226.579C50.093 221.093 49.7331 219.444 49.5266 218.391C48.6072 213.62 48.371 208.677 48.8259 203.721L58.1054 191.627C56.0458 195.654 54.9274 200.086 54.8507 204.522C54.838 206.682 55.1019 208.729 58.4312 218.919C61.7333 228.898 62.6013 230.364 63.8154 235.893ZM58.0668 247.039C56.3562 247.693 54.6006 248.165 52.8269 248.45C48.7061 249.108 46.6192 248.393 43.0233 248.207C39.3251 248.023 36.2411 248.648 30.1163 249.918C26.4516 250.668 22.8149 251.639 19.2242 252.827C17.7735 257.245 17.5348 261.915 18.5371 266.274C31.5596 266.983 44.7585 265.625 57.7017 262.246C59.5495 257.244 59.6809 251.842 58.072 247.028L58.0668 247.039Z" fill="#E37958"/>
<path d="M66.6552 247.784C69.6876 247.614 74.1365 246.836 78.1351 243.603C79.9022 242.191 80.7568 240.958 83.4949 237.596C85.4674 235.202 88.4141 231.72 92.2359 227.567C91.9884 221.983 91.092 216.506 89.5667 211.256C88.1303 206.333 86.1266 202.062 82.1047 193.512C77.5083 183.688 75.7166 180.966 74.6827 175.073C74.0672 171.558 73.8868 167.939 74.1459 164.305C71.5598 167.987 68.9712 171.67 66.3801 175.354C66.6279 179.789 67.3257 184.148 68.4616 188.355C70.4551 195.745 73.502 201.49 76.5742 207.207C80.5948 214.686 81.739 215.244 83.058 219.512C84.4462 224.118 84.8868 229.056 84.3516 234.008C80.7978 235.358 77.1854 236.48 73.5349 237.368C70.6828 238.055 67.9875 238.569 65.4974 238.922L66.6552 247.784Z" fill="#E37958"/>
<path d="M84.5824 194.486C89.7699 193.714 94.9748 193.341 100.156 193.368C106.793 193.414 110.159 194.124 116.013 192.569C121.867 191.013 124.479 188.725 125.915 187.031C127.274 185.417 128.317 183.543 128.977 181.531L135.793 171.267C134.592 167.868 133.157 164.582 131.499 161.435C130.205 158.984 127.397 153.988 118.432 143.223C112.216 135.756 112.266 136.595 109.823 133.295C105.256 127.068 101.884 119.909 99.8768 112.179C98.1663 115.274 96.4574 118.369 94.7501 121.465C96.5673 126.046 98.6558 130.483 101.004 134.753C104.172 140.413 107.736 145.794 111.671 150.855C114.865 155.097 118.285 159.075 118.285 159.075C123.178 164.864 125.638 167.128 126.967 171.605C127.781 174.337 128.995 176.984 127.802 178.66C127.229 179.467 126.496 179.526 124.514 180.215C121.252 181.343 119.879 182.345 118.366 182.99C113.238 185.153 105.188 183.754 103.785 183.514C98.6712 182.658 90.865 182.298 79.5298 184.896L84.5824 194.486Z" fill="#E37958"/>
<path d="M74.6964 170.511C79.2607 168.625 83.9736 167.282 88.744 166.507C95.2268 165.466 98.8529 165.988 109.072 165.537C114.466 165.297 118.855 164.917 121.672 164.639L110.546 151.573C106.27 151.774 102.606 151.941 99.8209 152.083C89.1898 152.62 86.9267 152.816 84.0502 154.094C81.626 155.182 77.8856 157.459 74.1888 162.698L74.6964 170.511Z" fill="#E37958"/>
<path d="M134.134 163.49C136.264 163.59 138.425 163.133 140.428 162.16C142.432 161.186 144.217 159.725 145.629 157.904C150.01 152.669 152.405 145.96 153.46 142.575C150.872 136.531 147.73 130.804 144.076 125.471C139.402 118.648 134.1 112.782 130.533 108.862C122.826 100.391 120.34 98.9739 117.749 93.5989C115.626 89.1298 114.422 84.1776 114.21 79.0451C112.695 83.1113 111.171 87.1883 109.637 91.2761C111.433 97.1791 114.039 102.714 117.376 107.712C122.496 115.333 126.774 117.746 133.989 126.814C137.702 131.476 140.515 134.427 142.737 139.535C144.142 142.773 145.137 146.22 145.699 149.793C143.925 150.158 142.108 150.561 140.238 151.036C136.167 152.027 132.337 153.157 128.757 154.351L134.134 163.49Z" fill="#E37958"/>
<path d="M100.132 110.94C100.811 108.65 102.006 106.533 103.611 104.779C105.731 102.509 108.429 100.96 111.314 100.355L116.535 108.242C110.833 109.657 105.697 113.307 102.193 118.436L100.132 110.94Z" fill="#E37958"/>
<path d="M128.032 104.654C132.224 105.04 136.457 105.131 140.703 104.927C146.792 104.648 152.887 103.738 158.9 102.209C165.068 100.595 171.103 98.2919 176.902 95.339C177.256 94.7325 177.786 93.806 178.416 92.6661C181.607 86.869 183.202 83.9731 183.65 81.3062C183.832 80.2403 184.144 77.4272 181.245 71.5394C178.142 65.2222 174.915 62.6257 169.782 56.9611C160.174 46.3637 162.952 46.0803 155.303 38.5899C152.592 35.9394 149.013 32.8141 146.101 27.0379C143.69 22.2638 143.744 19.671 143.8 18.7733C144.208 12.0885 150.221 7.49999 151.429 6.61297L137.962 7.73239C136.435 13.5432 134.909 19.3549 133.385 25.1673C136.281 32.0254 139.891 38.4767 144.151 44.4103C148.18 50.0156 152.101 54.1499 156.851 59.1659C162.77 65.4149 163.866 65.4901 166.973 69.1962C171.304 74.4423 174.652 80.5408 176.859 87.2038C172.438 89.1449 167.925 90.7855 163.346 92.1151C151.845 95.4588 142.478 96.0941 134.889 96.5629C129.501 96.8976 125.048 96.9123 121.974 96.8657L128.032 104.654Z" fill="#E37958"/>
<path d="M116.468 80.2579C132.521 74.0892 149.217 70.6577 165.9 70.0978L158.403 62.5903C155.661 62.8849 152.254 63.2712 148.337 63.7934C126.079 66.7713 120.884 69.5639 117.606 73.6311C116.499 75.0176 115.586 76.5599 114.901 78.2042L116.468 80.2579Z" fill="#E37958"/>
<path d="M178.281 65.4355C180.549 64.3664 182.816 63.2973 185.084 62.2283L191.411 49.7336C190.833 45.1764 189.521 40.8154 187.53 36.836C185.713 33.2192 183.364 29.9595 180.564 27.1686L175.733 35.9899C180.8 39.9357 184.145 45.8609 185.114 52.6062C181.666 56.2751 177.087 58.4555 172.38 58.6697L178.281 65.4355Z" fill="#E37958"/>
<path d="M56.1866 203.041L70.6198 197.1L66.7097 185.383L65.4852 185.639C64.3318 185.873 63.223 186.375 62.2405 187.108C61.2581 187.841 60.427 188.787 59.8085 189.874L58.8849 191.499L56.1866 203.041Z" fill="#E37958"/>
<path d="M65.6011 258.536C65.4421 258.457 65.2552 258.451 65.0816 258.52C64.9079 258.588 64.7618 258.724 64.6752 258.899C64.5887 259.074 64.5688 259.273 64.62 259.452C64.6712 259.631 64.7893 259.776 64.9483 259.855C65.1073 259.933 65.2942 259.939 65.4678 259.871C65.6415 259.802 65.7877 259.666 65.8742 259.491C65.9608 259.316 65.9806 259.117 65.9294 258.938C65.8782 258.759 65.7601 258.614 65.6011 258.536Z" fill="#004E63"/>
<path d="M43.4762 250.38C47.631 253.92 51.9845 257.199 56.517 260.203C57.23 260.68 57.878 259.359 57.1698 258.884C52.7363 255.942 48.479 252.73 44.4172 249.262C43.763 248.703 42.8255 249.79 43.4714 250.378L43.4762 250.38Z" fill="#E5E5E5"/>
<path d="M53.0317 269.669C56.7411 267.299 58.3978 262.805 58.6474 258.563C58.9098 254.006 57.9875 249.382 56.9078 245.101C55.7442 240.704 54.3503 236.396 52.7322 232.196C52.1146 230.525 51.3943 228.87 50.9048 227.158C50.5043 225.774 50.1726 224.364 49.9109 222.932C49.563 221.134 49.3368 219.303 49.2338 217.452C49.1709 216.108 49.0704 214.502 49.6416 213.215C50.021 212.352 48.8246 211.755 48.4426 212.624C47.9986 213.774 47.7919 214.994 47.8373 216.198C47.8372 217.789 47.9554 219.369 48.1909 220.922C48.5486 223.83 49.2145 226.662 50.1764 229.365C53.2554 237.614 56.5677 246.101 57.2319 255.226C57.5768 259.991 56.7486 265.668 52.3273 268.488C51.5432 268.987 52.2576 270.16 53.0317 269.669Z" fill="#004E63"/>
<path d="M53.7461 270.987C56.8954 268.602 60.1327 266.064 62.4968 262.734C64.7017 259.554 66.074 255.855 66.4609 252.047C67.332 244.331 64.8675 237.18 61.9131 230.549C60.3318 226.992 58.4005 223.407 58.4035 219.253C58.405 218.321 57.0374 218.48 57.0385 219.406C57.0351 222.91 58.3328 226.052 59.6932 229.067C61.2185 232.273 62.5448 235.594 63.6643 239.009C65.7549 245.817 66.2692 253.87 62.3168 260.578C60.0403 264.43 56.469 267.197 53.0544 269.792C52.3169 270.354 53.0191 271.527 53.7565 270.966L53.7461 270.987Z" fill="#004E63"/>
<path d="M37.0698 243.188C37.5934 242.733 38.2308 242.462 38.8841 242.416C39.5517 242.273 40.2428 242.154 40.9236 242.057C42.3655 241.838 43.8116 241.702 45.2555 241.648C48.126 241.548 50.9753 241.768 53.7562 242.305C53.93 242.328 54.1106 242.277 54.2599 242.164C54.4091 242.051 54.5153 241.884 54.5559 241.698C54.5965 241.513 54.5684 241.324 54.4776 241.17C54.3867 241.017 54.2401 240.912 54.0689 240.877C51.0201 240.285 47.8917 240.062 44.7423 240.213C43.1772 240.29 41.6107 240.463 40.0508 240.734C38.6955 240.964 37.1384 241.108 36.0993 242.243C35.4622 242.939 36.4458 243.858 37.0803 243.167L37.0698 243.188Z" fill="#004E63"/>
<path d="M67.9553 250.343C73.1602 248.809 78.8975 246.874 82.3614 241.973C85.7333 237.198 85.3252 231.318 84.0177 226.183C83.2038 223.004 82.1158 219.933 81.5262 216.675C81.373 215.779 80.0593 216.299 80.22 217.192C81.1915 222.464 83.5065 227.348 83.6358 232.815C83.7606 235.373 83.1483 237.972 81.8789 240.271C80.4152 242.587 78.4023 244.476 76.0645 245.726C73.3844 247.259 70.4527 248.142 67.5685 248.99C66.7175 249.226 67.1012 250.597 67.9553 250.343Z" fill="#004E63"/>
<path d="M84.0162 237.387C83.537 238.175 84.3844 238.935 85.0932 238.575C85.4714 238.297 85.7994 237.945 86.0582 237.542C86.4849 237.017 86.9165 236.495 87.3406 235.976C88.8437 234.144 90.5313 232.338 91.6681 230.234C92.7609 228.207 92.8914 226.098 92.6487 223.924C92.4061 221.749 92.1525 219.609 91.2328 217.717C90.8473 216.917 89.6838 217.76 90.0645 218.559C90.6897 220.06 91.0717 221.679 91.1956 223.351C91.4026 224.983 91.6044 226.697 91.0504 228.347C90.469 230.089 89.2318 231.539 88.0966 232.929L86.2682 235.164C85.9634 235.539 85.6539 235.911 85.3517 236.281C85.2093 236.46 84.7156 237.24 84.5017 237.299L85.0251 237.314L84.9148 237.26L85.2451 237.666L85.2027 237.546L85.1504 238.098L85.2 237.998C85.6945 237.192 84.4929 236.605 84.001 237.406L84.0162 237.387Z" fill="#004E63"/>
<path d="M50.1315 213.359C49.9759 209.039 50.9081 204.664 52.8337 200.678C54.7593 196.691 57.6098 193.236 61.0962 190.661C62.9924 189.268 65.0441 188.151 67.191 187.341C68.0376 187.017 67.6483 185.669 66.8043 185.988C62.7083 187.54 58.9771 190.151 55.9675 193.572C52.958 196.994 50.7706 201.11 49.6147 205.528C48.945 208.161 48.6596 210.857 48.7687 213.52C48.7833 213.703 48.8646 213.868 48.9956 213.98C49.1267 214.093 49.2976 214.144 49.4728 214.123C49.648 214.102 49.8142 214.011 49.9368 213.869C50.0594 213.727 50.1291 213.544 50.1315 213.359Z" fill="#004E63"/>
<path d="M57.7122 217.021C56.3533 213.593 55.9349 209.652 55.9185 205.862C55.9158 202.251 56.2029 198.053 58.1839 194.81C58.6736 194.001 57.472 193.415 56.9849 194.218C54.9181 197.623 54.5588 202.014 54.5556 205.807C54.5621 209.749 54.9815 213.953 56.4011 217.536C56.7347 218.357 58.0332 217.856 57.7122 217.021Z" fill="#004E63"/>
<path d="M55.6907 205.369C56.0112 204.872 56.4878 204.508 57.0257 204.348C57.6339 204.083 58.2535 203.844 58.8661 203.595C60.1283 203.082 61.3933 202.564 62.6603 202.054L70.2511 198.967C71.0912 198.62 70.7092 197.269 69.8644 197.614L61.6016 200.974L57.5827 202.607C56.4093 203.085 55.1423 203.523 54.4916 204.778C54.4051 204.952 54.3852 205.151 54.4364 205.331C54.4876 205.51 54.6058 205.654 54.7648 205.733C54.9238 205.811 55.1106 205.817 55.2842 205.749C55.4579 205.681 55.6041 205.544 55.6907 205.369Z" fill="#004E63"/>
<path d="M81.3417 215.324C78.9767 210.034 76.3012 204.926 73.8243 199.706C72.457 196.825 71.1146 193.931 69.9011 190.969C68.9492 188.648 67.8516 186.163 67.5568 183.576C67.3129 181.044 67.7748 178.436 68.8865 176.066C70.0321 173.474 71.3028 170.93 72.5182 168.366C72.6048 168.191 72.6246 167.992 72.5734 167.813C72.5222 167.633 72.4041 167.489 72.2451 167.41C72.0861 167.332 71.8992 167.326 71.7255 167.394C71.5519 167.462 71.4057 167.599 71.3192 167.774C70.2244 170.083 69.1125 172.389 68.0447 174.692C66.9706 176.843 66.3277 179.178 66.1592 181.54C66.0099 184.591 67.0122 187.377 68.0616 190.068C70.4451 196.2 73.3884 202.057 76.2663 207.902C77.6043 210.637 78.9431 213.346 80.2083 216.143C80.5659 216.976 81.7398 216.111 81.3813 215.304L81.3417 215.324Z" fill="#004E63"/>
<path d="M91.1891 214.814C89.9659 211.463 88.5593 208.202 86.9759 205.048C85.0722 201.069 83.1013 197.129 81.2124 193.144C79.3235 189.16 77.5044 185.203 75.9763 181.068C74.7565 177.781 73.5963 174.314 73.4161 170.686C73.2739 168.977 73.4769 167.227 74.0119 165.552C74.6109 163.968 75.5158 162.514 76.6651 161.288C79.0498 158.664 82.1687 156.98 85.1617 155.345C85.9755 154.907 85.249 153.734 84.4548 154.169C79.3397 156.969 73.3178 160.588 72.2297 167.127C71.542 171.278 72.5851 175.416 73.8161 179.175C76.6465 187.792 80.8975 195.746 84.7926 203.78C86.6182 207.543 88.5018 211.321 89.8734 215.327C90.1647 216.173 91.4923 215.673 91.1844 214.812L91.1891 214.814Z" fill="#004E63"/>
<path d="M84.2648 155.06C92.0196 153.145 99.9109 152.426 107.687 152.926C108.548 152.983 108.873 151.542 107.995 151.496C100.105 150.976 92.0965 151.692 84.2245 153.622C83.3591 153.852 83.4072 155.274 84.2648 155.06Z" fill="#004E63"/>
<path d="M75.188 172.532C76.1543 171.46 77.4907 170.99 78.7901 170.68C80.2299 170.327 81.6858 170.074 83.133 169.79C86.2067 169.207 89.2754 168.677 92.339 168.202C98.4853 167.262 104.643 166.581 110.811 166.159C114.266 165.93 117.717 165.79 121.163 165.74C122.038 165.733 121.993 164.292 121.12 164.308C108.438 164.516 95.7126 165.864 83.081 168.34C81.4403 168.653 79.7952 168.95 78.1484 169.372C76.6788 169.683 75.3 170.457 74.1979 171.591C73.5678 172.297 74.5539 173.211 75.1788 172.515L75.188 172.532Z" fill="#004E63"/>
<path d="M79.6381 186.932C86.1756 187.854 92.8713 187.673 99.5363 187.24C105.955 186.823 112.495 186.244 118.724 183.883C121.937 182.7 124.978 180.962 127.718 178.744C128.435 178.152 127.731 176.971 127.014 177.562C122.106 181.619 116.168 183.658 110.251 184.677C107.06 185.229 103.844 185.506 100.637 185.728C97.4294 185.951 94.1555 186.127 90.9076 186.179C87.2206 186.233 83.5544 186.014 79.9357 185.523C79.8483 185.509 79.7578 185.513 79.6693 185.536C79.5808 185.559 79.4961 185.599 79.4201 185.656C79.344 185.712 79.278 185.783 79.2258 185.864C79.1737 185.946 79.1365 186.036 79.1163 186.13C79.0961 186.224 79.0933 186.319 79.1081 186.411C79.1228 186.504 79.1548 186.591 79.2023 186.667C79.2498 186.743 79.3118 186.808 79.3848 186.857C79.4578 186.906 79.5403 186.939 79.6277 186.953L79.6381 186.932Z" fill="#004E63"/>
<path d="M81.7225 194.899C90.0318 196.025 98.4873 196.28 106.97 195.661C110.944 195.371 115.032 195.045 118.968 194.086C120.747 193.692 122.479 193.01 124.099 192.062C125.852 191.072 127.269 189.488 128.104 187.586C130.266 182.53 132.751 177.614 135.54 172.875C136.025 172.064 134.826 171.472 134.341 172.283C131.937 176.323 129.771 180.503 127.855 184.798C127.397 185.819 127.006 186.887 126.493 187.887C125.958 188.857 125.211 189.687 124.32 190.301C122.837 191.338 121.206 192.091 119.509 192.522C115.741 193.577 111.752 193.86 107.95 194.176C103.862 194.508 99.7849 194.636 95.7175 194.559C91.1287 194.467 86.5667 194.113 82.0514 193.499C81.1948 193.385 80.8774 194.81 81.7435 194.929L81.7225 194.899Z" fill="#004E63"/>
<path d="M128.25 185.472C128.41 182.625 128.025 179.818 127.118 177.22C126.227 174.476 125.15 171.817 123.896 169.262C121.355 164.006 118.173 159.16 114.426 154.84C110.836 150.686 106.823 146.966 103.32 142.723C101.537 140.605 99.9683 138.291 98.6347 135.815C97.3039 133.307 96.2422 130.545 96.087 127.567C95.7475 121.235 99.0731 115.13 102.291 109.773C102.776 108.962 101.574 108.376 101.092 109.181C98.1705 114.048 95.3198 119.35 94.7837 125.039C94.232 130.977 96.8424 136.289 99.9786 140.732C103.201 145.29 107.169 149.112 110.955 153.16C114.904 157.313 118.336 161.988 121.177 167.087C122.77 169.988 124.143 173.031 125.283 176.189C126.35 179.171 127.15 182.304 126.875 185.621C126.798 186.548 128.166 186.389 128.24 185.467L128.25 185.472Z" fill="#004E63"/>
<path d="M135.769 173.98C135.375 171.159 134.203 168.703 132.973 166.232C131.7 163.621 130.35 161.058 128.926 158.543C126.06 153.471 122.91 148.599 119.493 143.949C117.787 141.624 116.014 139.355 114.173 137.142C112.297 134.904 110.336 132.669 108.522 130.329C105.304 126.161 102.374 121.387 101.685 115.796C101.304 112.719 101.554 109.225 103.785 106.729C105.785 104.473 108.74 103.47 111.45 102.89C112.311 102.705 112.259 101.255 111.405 101.45C108.936 101.978 106.399 102.787 104.29 104.419C103.194 105.275 102.269 106.361 101.581 107.601C100.893 108.841 100.459 110.205 100.308 111.597C99.5975 117.253 101.782 122.763 104.532 127.179C107.743 132.315 111.978 136.597 115.671 141.315C119.324 145.982 122.7 150.892 125.782 156.02C127.501 158.89 129.127 161.822 130.661 164.815C132.152 167.724 133.875 170.754 134.402 174.138C134.552 175.04 135.908 174.882 135.762 173.982L135.769 173.98Z" fill="#004E63"/>
<path d="M103.577 121.475C104.931 118.632 106.35 115.715 108.819 113.717C111.048 111.915 113.69 110.869 116.252 109.875C116.426 109.807 116.572 109.67 116.659 109.495C116.746 109.32 116.766 109.121 116.714 108.941C116.663 108.762 116.545 108.617 116.386 108.539C116.226 108.46 116.039 108.454 115.865 108.522C113.122 109.604 110.28 110.729 107.929 112.693C105.346 114.851 103.805 117.879 102.378 120.884C102.291 121.059 102.272 121.257 102.323 121.437C102.374 121.616 102.492 121.761 102.651 121.839C102.81 121.918 102.997 121.923 103.171 121.855C103.344 121.787 103.491 121.65 103.577 121.475Z" fill="#004E63"/>
<path d="M128.425 157.469C131.423 157.156 134.411 156.617 137.369 155.857C138.819 155.483 140.256 155.054 141.681 154.571C142.879 154.164 144.625 153.615 144.274 151.912C144.089 151.02 142.78 151.542 142.968 152.429C143.079 152.964 136.526 154.594 135.889 154.759C133.406 155.34 130.902 155.76 128.393 156.015C128.212 156.036 128.04 156.131 127.916 156.28C127.792 156.429 127.725 156.62 127.73 156.811C127.736 157.002 127.813 157.176 127.945 157.297C128.076 157.417 128.252 157.473 128.433 157.453L128.425 157.469Z" fill="#004E63"/>
<path d="M133.132 165.358C135.731 165.676 138.559 165.943 141.15 164.891C144.129 163.696 145.893 160.759 146.184 157.529C146.482 154.105 145.214 150.807 143.982 147.836C142.66 144.705 141.117 141.699 139.363 138.841C135.644 132.693 131.379 126.938 127.276 121.06L114.155 102.236C113.01 100.595 111.771 98.9987 110.746 97.2718C109.793 95.7887 109.452 93.9254 109.796 92.0765C110.287 90.0269 110.971 88.0197 111.836 86.0856C112.669 83.9674 113.56 81.875 114.507 79.8085C114.896 78.9502 113.699 78.3532 113.308 79.2168C111.684 82.6887 110.249 86.244 109.011 89.8642C108.438 91.407 108.204 93.0432 108.33 94.6416C108.583 96.2005 109.173 97.6504 110.056 98.8813C112.035 101.913 114.181 104.823 116.246 107.778L122.615 116.915C126.75 122.895 130.992 128.769 135.048 134.801C138.686 140.22 142.21 145.977 144.152 152.423C145.137 155.726 145.452 160.286 142.175 162.725C139.616 164.627 136.227 164.241 133.45 163.894C132.589 163.791 132.271 165.216 133.135 165.327L133.132 165.358Z" fill="#004E63"/>
<path d="M116.434 142.473C125.621 145.315 134.604 148.733 143.336 152.71C144.103 153.088 144.774 151.745 143.989 151.391C135.145 147.372 126.049 143.918 116.747 141.045C115.925 140.79 115.621 142.222 116.434 142.473Z" fill="#E5E5E5"/>
<path d="M104.479 125.623L104.415 125.69L105.062 125.432C104.736 126.091 104.814 126.451 105.266 126.503L105.777 126.677L106.796 127.029L108.803 127.724C110.056 128.159 111.309 128.593 112.562 129.041C115.065 129.93 117.563 130.832 120.054 131.747C125.104 133.6 130.142 135.527 135.168 137.526C135.967 137.841 136.625 136.524 135.821 136.207C126.369 132.452 116.826 128.924 107.193 125.623C106.444 125.365 104.723 124.358 104.137 125.565C104.043 125.762 104.015 125.983 104.058 126.188C104.101 126.394 104.212 126.571 104.372 126.689C104.532 126.807 104.731 126.858 104.933 126.834C105.135 126.81 105.328 126.711 105.479 126.556C106.139 125.884 105.148 124.968 104.498 125.632L104.479 125.623Z" fill="#E5E5E5"/>
<path d="M107.697 115.67C112.885 118.363 118.353 120.483 124.019 121.999C124.857 122.222 125.165 120.792 124.332 120.571C118.783 119.077 113.43 116.994 108.35 114.352C108.191 114.273 108.004 114.267 107.83 114.336C107.657 114.404 107.511 114.54 107.424 114.715C107.337 114.89 107.318 115.089 107.369 115.268C107.42 115.447 107.538 115.592 107.697 115.67Z" fill="#E5E5E5"/>
<path d="M101.123 163.465C108.66 167.237 116.109 171.182 123.468 175.3C124.222 175.718 124.874 174.399 124.12 173.981C116.768 169.858 109.32 165.913 101.775 162.146C101.616 162.068 101.43 162.062 101.256 162.13C101.082 162.198 100.936 162.335 100.85 162.51C100.763 162.685 100.743 162.884 100.794 163.063C100.846 163.242 100.964 163.387 101.123 163.465Z" fill="#E5E5E5"/>
<path d="M82.4271 166.285C91.1122 171.477 99.9845 176.334 109.044 180.858C111.618 182.128 114.201 183.383 116.794 184.624C116.953 184.702 117.14 184.708 117.314 184.64C117.487 184.572 117.633 184.435 117.72 184.26C117.807 184.085 117.826 183.886 117.775 183.707C117.724 183.528 117.606 183.383 117.447 183.305C108.298 178.978 99.3225 174.312 90.5208 169.307C88.0378 167.894 85.5557 166.45 83.0747 164.976C82.3386 164.534 81.6859 165.853 82.4219 166.295L82.4271 166.285Z" fill="#E5E5E5"/>
<path d="M76.0071 173.639C83.8992 178.094 91.9367 182.279 100.12 186.195C102.45 187.297 104.791 188.38 107.141 189.444C107.913 189.825 108.579 188.479 107.794 188.125C99.5298 184.397 91.4021 180.385 83.4104 176.091C81.1405 174.866 78.8843 173.621 76.6416 172.357C75.8903 171.934 75.2376 173.253 75.9889 173.676L76.0071 173.639Z" fill="#E5E5E5"/>
<path d="M59.3055 200.031C63.1204 202.711 67.1109 205.119 71.253 207.24C71.412 207.318 71.5989 207.324 71.7726 207.256C71.9462 207.188 72.0924 207.051 72.1789 206.876C72.2655 206.701 72.2854 206.502 72.2342 206.323C72.1829 206.144 72.0648 205.999 71.9058 205.921C67.8604 203.864 63.9621 201.528 60.2339 198.926C59.5384 198.439 58.583 199.549 59.2881 200.042L59.3055 200.031Z" fill="#E5E5E5"/>
<path d="M57.1316 209.632C60.2142 211.193 63.1054 213.236 66.006 215.068C69.8249 217.504 73.6234 219.97 77.4659 222.359C78.8011 223.182 80.1349 224.043 81.5323 224.753C81.6913 224.831 81.8782 224.837 82.0519 224.769C82.2255 224.701 82.3717 224.564 82.4582 224.389C82.5448 224.214 82.5646 224.015 82.5134 223.836C82.4622 223.657 82.3441 223.512 82.1851 223.434C79.1025 221.873 76.2114 219.829 73.3108 217.997C69.4892 215.566 65.6981 213.098 61.8483 210.712C60.5157 209.884 59.1866 209.025 57.7843 208.313C57.6254 208.234 57.4385 208.229 57.2649 208.297C57.0913 208.365 56.945 208.502 56.8585 208.677C56.7719 208.851 56.7521 209.05 56.8033 209.229C56.8545 209.409 56.9726 209.553 57.1316 209.632Z" fill="#E5E5E5"/>
<path d="M57.3548 221.565C65.7978 227.101 74.3165 232.509 82.9109 237.787C83.6444 238.235 84.2923 236.913 83.5637 236.468C74.9675 231.193 66.4488 225.786 58.0076 220.246C57.292 219.774 56.6441 221.096 57.3548 221.565Z" fill="#E5E5E5"/>
<path d="M71.7797 241.675L63.9033 236.054C63.7707 235.938 63.5969 235.882 63.4174 235.9C63.2379 235.917 63.0662 236.007 62.9375 236.149C62.8127 236.297 62.7443 236.487 62.7472 236.678C62.75 236.868 62.8239 237.044 62.9527 237.167L70.8339 242.79C70.9666 242.905 71.1395 242.959 71.3179 242.941C71.4962 242.923 71.6668 242.834 71.7949 242.693C71.8574 242.62 71.9065 242.536 71.9396 242.445C71.9726 242.354 71.9889 242.259 71.9875 242.164C71.9861 242.07 71.967 241.978 71.9313 241.894C71.8957 241.81 71.8442 241.735 71.7797 241.675Z" fill="#E5E5E5"/>
<path d="M146.282 159.612C149.895 155.927 151.818 150.836 153.979 146.205C154.373 145.349 153.176 144.752 152.78 145.613C150.691 150.136 148.819 155.1 145.298 158.693C144.638 159.365 145.624 160.278 146.282 159.612Z" fill="#004E63"/>
<path d="M153.351 144.241C150.827 133.667 144.477 124.986 137.686 117.269C133.866 112.929 129.869 108.816 126.086 104.462C124.182 102.281 122.34 100.046 120.619 97.7C118.945 95.5621 117.574 93.1692 116.542 90.5875C115.587 87.9077 115.266 84.9765 115.605 82.0349C115.943 79.0934 116.932 76.2255 118.489 73.6668C118.984 72.8605 117.782 72.2741 117.29 73.0751C114.528 77.6636 113.503 83.0833 114.436 88.163C115.465 93.7648 119.072 98.2563 122.429 102.375C129.64 111.185 138.164 118.812 144.547 128.389C147.88 133.316 150.59 138.775 152.032 144.785C152.244 145.67 153.553 145.148 153.338 144.267L153.351 144.241Z" fill="#004E63"/>
<path d="M119.057 74.1239C120.987 72.129 123.846 71.5969 126.307 70.9536C129.21 70.1985 132.135 69.5148 135.079 68.9024C138.024 68.29 140.93 67.755 143.798 67.2973C146.496 66.8628 149.197 66.5414 151.893 66.0863C154.838 65.6559 157.742 64.7859 160.517 63.5025C161.316 63.0955 160.956 61.7493 160.136 62.1521C154.979 64.6489 149.309 64.9163 143.882 65.7894C137.956 66.7424 132.055 67.9875 126.178 69.5248C123.351 70.2566 120.294 70.9007 118.078 73.1947C117.427 73.8711 118.413 74.7846 119.062 74.1134L119.057 74.1239Z" fill="#004E63"/>
<path d="M115.652 84.1024C128.961 79.6749 142.696 77.4729 156.268 74.8628L168.463 72.5177C169.329 72.3476 169.298 70.9146 168.422 71.0799L146.746 75.2444C139.965 76.5519 133.181 77.8517 126.453 79.5334C122.701 80.4715 118.964 81.5224 115.27 82.752C114.413 83.0378 114.8 84.3906 115.652 84.1024Z" fill="#004E63"/>
<path d="M124.516 100.135C131.405 98.9728 138.316 98.3071 145.216 97.4253C152.115 96.5435 158.921 95.524 165.599 93.4368C168.923 92.3991 172.239 90.8715 174.691 88.0769C174.809 87.9282 174.872 87.7408 174.866 87.5543C174.86 87.3677 174.785 87.1967 174.657 87.0773C174.529 86.958 174.359 86.8996 174.181 86.9147C174.004 86.9298 173.834 87.0172 173.707 87.1583C171.562 89.6116 168.656 90.961 165.749 91.9157C162.528 92.9277 159.265 93.7292 155.98 94.3156C149.275 95.6016 142.535 96.306 135.802 97.1185C132.002 97.5608 128.245 98.063 124.473 98.7027C123.601 98.8498 123.647 100.264 124.516 100.135Z" fill="#004E63"/>
<path d="M129.383 108.123C135.968 109.154 142.75 108.267 149.419 107.029C152.838 106.392 156.258 105.704 159.677 105.041C162.981 104.394 166.335 103.647 169.478 102.119C172.75 100.498 175.734 98.038 177.499 94.6289C177.585 94.454 177.605 94.2551 177.554 94.0759C177.503 93.8968 177.385 93.752 177.226 93.6735C177.067 93.595 176.88 93.5893 176.706 93.6575C176.532 93.7257 176.386 93.8622 176.3 94.0371C173.027 100.372 165.923 102.38 159.898 103.569C153.489 104.823 147.038 106.294 140.584 106.903C136.921 107.296 133.26 107.23 129.678 106.707C129.504 106.684 129.323 106.734 129.174 106.847C129.025 106.96 128.919 107.127 128.878 107.313C128.837 107.498 128.866 107.688 128.956 107.841C129.047 107.994 129.194 108.1 129.365 108.134L129.383 108.123Z" fill="#004E63"/>
<path d="M178.143 93.4962C178.028 85.9626 174.021 79.3244 170.286 73.4635C166.049 66.9894 161.353 60.8832 156.235 55.192C153.39 51.9567 150.453 48.7874 147.537 45.6481C146.944 45.014 146.003 46.1316 146.592 46.7633C151.73 52.2858 156.854 57.8476 161.569 63.7914C166.11 69.5184 170.405 75.6228 173.689 82.3113C175.402 85.7826 176.715 89.5684 176.778 93.6497C176.784 93.8403 176.861 94.0151 176.992 94.1355C177.124 94.256 177.3 94.3122 177.481 94.2918C177.662 94.2715 177.833 94.1762 177.958 94.027C178.082 93.8778 178.148 93.6868 178.143 93.4962Z" fill="#004E63"/>
<path d="M148.642 46.9483C144.655 41.9716 141.403 36.3637 138.982 30.2929C137.833 27.3951 136.621 24.2961 136.247 21.0981C136.058 19.4558 136.193 17.7642 136.642 16.127C136.88 15.2661 137.158 14.4151 137.474 13.5772C137.74 12.8481 137.931 11.7741 138.726 11.5298C139.757 11.3036 140.796 11.1583 141.836 11.095L144.793 10.6902L150.972 9.8403C151.851 9.71611 151.808 8.28362 150.932 8.40253C146.988 8.94407 143.048 9.44151 139.11 10.0318C138.435 10.0571 137.774 10.353 137.262 10.8596C136.679 11.5305 136.426 12.5478 136.133 13.3684C135.463 15.066 135.023 16.8395 134.829 18.6327C134.548 22.1436 135.74 25.5349 136.865 28.6635C139.371 35.684 142.959 42.1448 147.493 47.7992C148.031 48.4719 149.202 47.6381 148.661 46.9577L148.642 46.9483Z" fill="#004E63"/>
<path d="M177.783 94.5856C179.877 90.3729 181.53 85.958 182.708 81.4257C182.946 80.5122 181.617 80.2899 181.375 81.201C180.231 85.6078 178.624 89.9 176.584 93.9938C176.497 94.1688 176.477 94.3676 176.529 94.5468C176.58 94.7259 176.698 94.8707 176.857 94.9492C177.016 95.0277 177.203 95.0334 177.376 94.9652C177.55 94.897 177.696 94.7605 177.783 94.5856Z" fill="#004E63"/>
<path d="M183.196 80.8258C182.714 75.9402 180.574 71.6544 177.858 67.918C174.815 63.7446 171.168 60.1064 167.679 56.3759C163.734 52.1575 159.673 48.0267 155.899 43.6304C152.494 39.6589 149.321 35.2179 147.721 30.0103C146.072 24.6605 146.003 18.4819 148.784 13.1649C148.87 12.99 148.89 12.7911 148.839 12.612C148.788 12.4328 148.67 12.288 148.511 12.2095C148.352 12.1311 148.165 12.1253 147.991 12.1935C147.818 12.2617 147.671 12.3982 147.585 12.5732C145.129 17.2694 144.742 22.586 145.669 27.5138C146.677 32.8689 149.308 37.5481 152.45 41.6655C155.879 46.1545 159.862 50.1417 163.694 54.2387C167.527 58.3357 171.401 62.2038 174.934 66.4947C178.29 70.5665 181.274 75.3282 181.841 80.9841C181.928 81.8936 183.295 81.7477 183.201 80.8282L183.196 80.8258Z" fill="#004E63"/>
<path d="M145.606 19.8746L171.426 29.4991L178.786 32.2448C179.588 32.542 180.25 31.2278 179.439 30.9259L153.619 21.3014L146.257 18.561C145.457 18.2585 144.8 19.5751 145.604 19.8799L145.606 19.8746Z" fill="#E5E5E5"/>
<path d="M145.953 30.9428C156.085 34.9802 166.29 38.8328 176.569 42.5007C177.371 42.785 178.033 41.4707 177.221 41.1817C166.939 37.5122 156.734 33.6596 146.606 29.6239C145.814 29.3056 145.152 30.6198 145.953 30.9428Z" fill="#E5E5E5"/>
<path d="M157.327 45.7007L184.534 55.4905C185.333 55.7801 185.998 54.4606 185.186 54.1716L157.98 44.3817C157.173 44.0951 156.511 45.4093 157.327 45.7007Z" fill="#E5E5E5"/>
<path d="M173.75 62.7727C176.262 62.4739 178.72 61.5741 180.936 60.1419C182.017 59.4442 183.026 58.62 183.942 57.6864C184.953 56.6689 185.839 55.5175 185.922 54.0355C185.974 53.1096 184.607 53.2683 184.554 54.1943C184.494 55.3528 183.411 56.3478 182.631 57.092C181.798 57.876 180.893 58.5676 179.933 59.1545C178 60.3395 175.878 61.0843 173.715 61.3373C173.625 61.3474 173.537 61.3759 173.455 61.4214C173.374 61.4668 173.3 61.5282 173.238 61.6021C173.177 61.676 173.129 61.7609 173.097 61.852C173.065 61.9431 173.05 62.0385 173.053 62.1329C173.055 62.2273 173.076 62.3188 173.112 62.4021C173.149 62.4855 173.202 62.5591 173.267 62.6188C173.399 62.7392 173.574 62.7954 173.755 62.7751L173.75 62.7727Z" fill="#004E63"/>
<path d="M177.058 67.3395C180.232 67.2887 183.387 66.1792 186.075 64.1681C186.817 63.6089 186.11 62.4328 185.368 62.9921C182.878 64.8557 179.952 65.874 177.013 65.8993C176.832 65.9204 176.66 66.0165 176.536 66.1664C176.412 66.3163 176.346 66.5079 176.352 66.6989C176.358 66.8898 176.436 67.0646 176.568 67.1848C176.7 67.3049 176.877 67.3605 177.058 67.3395Z" fill="#004E63"/>
<path d="M185.751 63.8576C187.474 54.4674 182.248 46.6036 177.196 40.0272C176.67 39.3411 175.5 40.1749 176.027 40.8687C180.832 47.1258 186.064 54.6642 184.423 63.6353C184.254 64.5561 185.584 64.7861 185.751 63.8576Z" fill="#004E63"/>
<path d="M186.863 63.336C188.698 59.1917 190.846 55.1905 193.284 51.3738C193.793 50.5747 192.589 49.9935 192.085 50.7821C189.647 54.5988 187.499 58.6 185.664 62.7443C185.284 63.6074 186.481 64.2044 186.863 63.336Z" fill="#004E63"/>
<path d="M193.038 51.2196C191.443 42.2267 186.74 34.4185 179.817 29.2683C179.127 28.7572 178.177 29.87 178.867 30.3812C185.61 35.3797 190.188 42.9773 191.73 51.7292C191.88 52.6307 193.194 52.1105 193.038 51.2196Z" fill="#004E63"/>
<path d="M174.928 40.2077C177.029 37.3863 178.842 34.3489 180.335 31.1518C180.422 30.9769 180.442 30.7779 180.39 30.5988C180.339 30.4196 180.221 30.2749 180.062 30.1965C179.903 30.118 179.716 30.1122 179.543 30.1804C179.369 30.2486 179.223 30.3852 179.136 30.5601C177.704 33.6408 175.963 36.5685 173.945 39.2891C173.381 40.0417 174.362 40.9656 174.928 40.2077Z" fill="#004E63"/>
<path d="M132.236 80.4967C140.966 84.4553 149.882 87.9799 158.982 91.0707C161.547 91.9423 164.119 92.774 166.699 93.5659C167.521 93.8209 167.824 92.3885 167.011 92.1382C157.938 89.3146 149.022 86.0591 140.265 82.3718C137.796 81.3325 135.344 80.2581 132.909 79.1485C132.137 78.7675 131.471 80.1128 132.256 80.4675L132.236 80.4967Z" fill="#E5E5E5"/>
<path d="M117.01 85.8556L146.591 97.8285L154.975 101.218C155.771 101.538 156.429 100.222 155.628 99.8988L126.047 87.9259L117.663 84.5367C116.867 84.216 116.21 85.5326 117.01 85.8556Z" fill="#E5E5E5"/>
<path d="M130.786 102.212L120.599 97.6311C119.814 97.2764 119.161 98.5954 119.946 98.9501L130.133 103.531C130.918 103.886 131.576 102.569 130.786 102.212Z" fill="#E5E5E5"/>
<path d="M175.825 84.6852C168.353 81.6976 160.77 78.9857 153.076 76.5497C152.256 76.2895 151.948 77.7195 152.763 77.9774C160.319 80.3937 167.789 83.0693 175.173 86.0042C175.971 86.3196 176.629 85.003 175.825 84.6852Z" fill="#E5E5E5"/>
<path d="M15.3866 285.265C15.2662 285.425 15.1955 285.618 15.1854 285.815C15.1753 286.012 15.2263 286.202 15.3306 286.356C15.435 286.511 15.5869 286.62 15.7632 286.669C15.9394 286.718 16.1304 286.702 16.3068 286.626C17.3338 286.226 16.8508 284.984 16.1572 284.661C15.8934 284.531 15.8646 284.589 15.7115 284.356C15.588 284.137 15.48 283.908 15.388 283.671C15.1522 283.134 14.9339 282.587 14.7352 282.036C14.3572 280.987 14.0411 279.911 13.7887 278.812C12.8378 274.317 12.717 269.607 13.4326 264.929C13.8135 262.284 14.3685 259.655 15.0933 257.064C15.3449 256.158 14.0167 255.935 13.765 256.842C11.5931 264.691 10.6817 273.189 12.8579 280.801C13.1631 281.887 13.5335 282.947 13.967 283.974C14.1516 284.473 14.3729 284.953 14.6288 285.41C14.7382 285.59 14.8899 285.735 15.0706 285.832C15.1725 285.898 15.2819 285.952 15.3967 285.993C15.66 286.063 16.642 286.66 16.4607 285.579L16.2957 286.298L16.3323 286.224C16.9005 285.474 15.9222 284.545 15.3513 285.301L15.3866 285.265Z" fill="#004E63"/>
<path d="M23.3076 278.52C21.5556 274.44 20.235 270.14 19.3683 265.692C18.8972 263.498 18.5971 261.254 18.4711 258.981C18.4022 256.708 18.651 254.264 20.0342 252.301C20.5688 251.534 19.5905 250.605 19.0459 251.38C16.1102 255.564 17.091 260.997 17.9182 265.476C18.8163 270.306 20.2371 274.971 22.1533 279.382C22.5013 280.21 23.6678 279.348 23.3216 278.54L23.3076 278.52Z" fill="#004E63"/>
<path d="M17.4929 286.121C19.8045 284.145 21.5509 281.52 22.5033 278.59C22.5235 278.496 22.5264 278.4 22.5117 278.308C22.4969 278.215 22.4649 278.129 22.4174 278.052C22.3699 277.976 22.3078 277.911 22.2348 277.862C22.1618 277.813 22.0792 277.78 21.9918 277.766C21.8156 277.742 21.6322 277.791 21.4796 277.904C21.327 278.017 21.2169 278.185 21.1724 278.373C20.3293 280.928 18.8019 283.217 16.7859 284.945C16.6353 285.06 16.5275 285.229 16.4847 285.416C16.4418 285.604 16.467 285.796 16.5552 285.954C16.6509 286.107 16.8023 286.211 16.9773 286.242C17.1524 286.273 17.3373 286.23 17.4929 286.121Z" fill="#004E63"/>
<path d="M19.9767 252.634C24.0365 247.988 28.6457 243.087 34.6276 241.864C35.4939 241.681 35.4584 240.246 34.5873 240.427C28.2102 241.737 23.3343 246.742 18.9957 251.71C18.8697 251.858 18.8005 252.048 18.8033 252.239C18.8061 252.43 18.8809 252.606 19.011 252.728C19.141 252.851 19.3158 252.91 19.4969 252.892C19.678 252.874 19.8506 252.781 19.9767 252.634Z" fill="#004E63"/>
<path d="M19.5222 254.3C28.8591 251.781 38.3468 250.301 47.8255 249.888C50.5134 249.77 53.1968 249.738 55.8758 249.791C56.7501 249.809 56.705 248.368 55.8355 248.353C46.2914 248.173 36.6781 249.073 27.1579 251.038C24.47 251.598 21.7907 252.245 19.1198 252.979C18.2592 253.211 18.6485 254.558 19.5065 254.332L19.5222 254.3Z" fill="#004E63"/>
<path d="M18.8752 267.34C28.6503 267.504 38.4893 266.687 48.2613 264.899C51.05 264.385 53.8333 263.789 56.6111 263.112C57.4813 262.885 57.4283 261.46 56.5708 261.674C46.8645 264.014 37.0413 265.393 27.2317 265.792C24.4302 265.906 21.6298 265.938 18.8305 265.886C17.961 265.871 18.0088 267.306 18.8735 267.319L18.8752 267.34Z" fill="#004E63"/>
<path d="M21.3317 274.736C30.3973 275.612 39.6519 274.895 48.7284 272.613C51.2924 271.966 53.8361 271.195 56.3595 270.301C57.2126 269.999 56.8233 268.652 55.9775 268.95C47.2877 272.026 38.2905 273.619 29.3386 273.665C26.7493 273.7 24.1904 273.553 21.6444 273.308C20.7844 273.225 20.4669 274.65 21.3317 274.736Z" fill="#004E63"/>
<path d="M11.399 273.897C8.16893 273.991 4.93339 274.608 1.80488 275.727L2.19167 277.08C4.40122 276.293 5.66037 274.026 6.88491 272.07L8.04718 270.228C8.1952 269.94 8.37176 269.668 8.57354 269.417C8.80348 269.17 9.06018 269.218 9.35439 269.238C10.7457 269.321 12.1365 269.417 13.5252 269.505C14.3886 269.557 14.7162 268.123 13.8379 268.077C12.4105 267.983 10.9595 267.864 9.56036 267.797C9.0046 267.702 8.41911 267.835 7.92012 268.169C7.41064 268.678 6.98484 269.273 6.66313 269.926C5.92223 271.109 5.21671 272.33 4.40691 273.46C3.77835 274.48 2.86341 275.278 1.80488 275.727C0.949122 276.033 1.33852 277.381 2.19167 277.08C5.20535 276.013 8.32077 275.432 11.4289 275.356C12.3119 275.332 12.2642 273.897 11.3886 273.918L11.399 273.897Z" fill="#004E63"/>
<path d="M50.9273 265.119C49.2125 264.712 47.6018 263.984 46.168 262.967C44.6841 261.998 43.2263 260.977 41.7659 259.961C38.8163 257.914 35.9128 255.799 33.1701 253.467C32.5085 252.911 31.5579 254.024 32.2195 254.58C35.0879 257.019 38.13 259.217 41.2108 261.348C44.1128 263.357 47.0672 265.853 50.6194 266.549C50.7068 266.563 50.7973 266.559 50.8857 266.536C50.9742 266.513 51.0589 266.472 51.135 266.416C51.211 266.36 51.277 266.289 51.3291 266.208C51.3812 266.126 51.4185 266.036 51.4387 265.942C51.459 265.848 51.4618 265.753 51.447 265.66C51.4322 265.568 51.4002 265.481 51.3527 265.405C51.3052 265.328 51.2431 265.264 51.1701 265.215C51.0972 265.166 51.0146 265.133 50.9273 265.119Z" fill="#E5E5E5"/>
<path d="M38.2322 269.271C32.4767 264.96 26.9521 260.348 21.6584 255.433C21.5268 255.319 21.3541 255.266 21.177 255.287C20.9998 255.308 20.832 255.401 20.7091 255.546C20.5862 255.691 20.5179 255.877 20.5185 256.064C20.5192 256.251 20.5888 256.425 20.7126 256.549C25.9981 261.463 31.5211 266.075 37.2816 270.384C37.9715 270.895 38.9195 269.788 38.2322 269.271Z" fill="#E5E5E5"/>
</svg>
