<svg width="193" height="281" viewBox="0 0 193 281" fill="none" xmlns="http://www.w3.org/2000/svg">
<path d="M62.8154 229.893C63.6591 233.486 64.1347 237.193 64.2345 240.952C64.2911 243.569 64.1514 246.202 63.8165 248.827C61.4542 252.274 59.0904 255.72 56.7249 259.165C56.2968 260.233 55.6685 261.211 54.8804 262.036C53.0866 263.888 50.9818 264.307 49.0636 264.758C42.9899 266.179 44.3344 266.645 39.5212 267.605C34.2759 268.639 28.9747 268.866 23.7848 268.28C20.4477 267.789 19.4428 268.107 19.2423 268.572C19.0417 269.038 19.5293 269.403 19.9918 270.675C20.2986 271.496 20.5057 272.361 20.6087 273.251L14.6771 280.413C12.6288 276.919 11.3098 272.962 10.8006 268.785L0.404572 270.619C2.36306 268.085 4.31834 265.549 6.27043 263.011L10.4722 261.599L11.4103 251.998C13.2791 249.315 15.3467 246.787 17.5913 244.441C20.8423 241.043 23.4722 238.297 27.2447 236.378C28.6598 235.665 31.2038 234.564 42.6752 234.041C47.5565 233.824 51.7493 233.793 55.0325 233.851C53.8252 230.334 52.3404 225.846 50.7521 220.579C49.093 215.093 48.7331 213.444 48.5266 212.391C47.6072 207.62 47.371 202.677 47.8259 197.721L57.1054 185.627C55.0458 189.654 53.9274 194.086 53.8507 198.522C53.838 200.682 54.1019 202.729 57.4312 212.919C60.7333 222.898 61.6013 224.364 62.8154 229.893ZM57.0668 241.039C55.3562 241.693 53.6006 242.165 51.8269 242.45C47.7061 243.108 45.6192 242.393 42.0233 242.207C38.3251 242.023 35.2411 242.648 29.1163 243.918C25.4516 244.668 21.8149 245.639 18.2242 246.827C16.7735 251.245 16.5348 255.915 17.5371 260.274C30.5596 260.983 43.7585 259.625 56.7017 256.246C58.5495 251.244 58.6809 245.842 57.072 241.028L57.0668 241.039Z" fill="#E37958"/>
<path d="M65.6552 241.784C68.6876 241.614 73.1365 240.836 77.1351 237.603C78.9022 236.191 79.7568 234.958 82.4949 231.596C84.4674 229.202 87.4141 225.72 91.2359 221.567C90.9884 215.983 90.092 210.506 88.5667 205.256C87.1303 200.333 85.1266 196.062 81.1047 187.512C76.5083 177.688 74.7166 174.966 73.6827 169.073C73.0672 165.558 72.8868 161.939 73.1459 158.305C70.5598 161.987 67.9712 165.67 65.3801 169.354C65.6279 173.789 66.3257 178.148 67.4616 182.355C69.4551 189.745 72.502 195.49 75.5742 201.207C79.5948 208.686 80.739 209.244 82.058 213.512C83.4462 218.118 83.8868 223.056 83.3516 228.008C79.7978 229.358 76.1854 230.48 72.5349 231.368C69.6828 232.055 66.9875 232.569 64.4974 232.922L65.6552 241.784Z" fill="#E37958"/>
<path d="M83.5824 188.486C88.7699 187.714 93.9748 187.341 99.156 187.368C105.793 187.414 109.159 188.124 115.013 186.569C120.867 185.013 123.479 182.725 124.915 181.031C126.274 179.417 127.317 177.543 127.977 175.531L134.793 165.267C133.592 161.868 132.157 158.582 130.499 155.435C129.205 152.984 126.397 147.988 117.432 137.223C111.216 129.756 111.266 130.595 108.823 127.295C104.256 121.068 100.884 113.909 98.8768 106.179C97.1663 109.274 95.4574 112.369 93.7501 115.465C95.5673 120.046 97.6558 124.483 100.004 128.753C103.172 134.413 106.736 139.794 110.671 144.855C113.865 149.097 117.285 153.075 117.285 153.075C122.178 158.864 124.638 161.128 125.967 165.605C126.781 168.337 127.995 170.984 126.802 172.66C126.229 173.467 125.496 173.526 123.514 174.215C120.252 175.343 118.879 176.345 117.366 176.99C112.238 179.153 104.188 177.754 102.785 177.514C97.6712 176.658 89.865 176.298 78.5298 178.896L83.5824 188.486Z" fill="#E37958"/>
<path d="M73.6964 164.511C78.2607 162.625 82.9736 161.282 87.744 160.507C94.2268 159.466 97.8529 159.988 108.072 159.537C113.466 159.297 117.855 158.917 120.672 158.639L109.546 145.573C105.27 145.774 101.606 145.941 98.8209 146.083C88.1898 146.62 85.9267 146.816 83.0502 148.094C80.626 149.182 76.8856 151.459 73.1888 156.698L73.6964 164.511Z" fill="#E37958"/>
<path d="M133.134 157.49C135.264 157.59 137.425 157.133 139.428 156.16C141.432 155.186 143.217 153.725 144.629 151.904C149.01 146.669 151.405 139.96 152.46 136.575C149.872 130.531 146.73 124.804 143.076 119.471C138.402 112.648 133.1 106.782 129.533 102.862C121.826 94.3909 119.34 92.9738 116.749 87.5988C114.626 83.1297 113.422 78.1775 113.21 73.045C111.695 77.1112 110.171 81.1882 108.637 85.276C110.433 91.179 113.039 96.7139 116.376 101.712C121.496 109.333 125.774 111.746 132.989 120.814C136.702 125.476 139.515 128.427 141.737 133.535C143.142 136.773 144.137 140.22 144.699 143.793C142.925 144.158 141.108 144.561 139.238 145.036C135.167 146.027 131.337 147.157 127.757 148.351L133.134 157.49Z" fill="#E37958"/>
<path d="M99.132 104.94C99.811 102.65 101.006 100.533 102.611 98.779C104.731 96.509 107.429 94.96 110.314 94.355L115.535 102.242C109.833 103.657 104.697 107.307 101.193 112.436L99.132 104.94Z" fill="#E37958"/>
<path d="M127.032 98.654C131.224 99.04 135.457 99.131 139.703 98.927C145.792 98.648 151.887 97.738 157.9 96.209C164.068 94.595 170.103 92.2919 175.902 89.339C176.256 88.7325 176.786 87.806 177.416 86.6661C180.607 80.869 182.202 77.9731 182.65 75.3062C182.832 74.2403 183.144 71.4272 180.245 65.5394C177.142 59.2222 173.915 56.6257 168.782 50.9611C159.174 40.3637 161.952 40.0803 154.303 32.5899C151.592 29.9394 148.013 26.8141 145.101 21.0379C142.69 16.2638 142.744 13.671 142.8 12.7733C143.208 6.08851 149.221 1.5 150.429 0.612976L136.962 1.7324C135.435 7.54321 133.909 13.3549 132.385 19.1673C135.281 26.0254 138.891 32.4767 143.151 38.4103C147.18 44.0156 151.101 48.1499 155.851 53.1659C161.77 59.4149 162.866 59.4901 165.973 63.1962C170.304 68.4423 173.652 74.5408 175.859 81.2038C171.438 83.1449 166.925 84.7855 162.346 86.1151C150.845 89.4588 141.478 90.0941 133.889 90.5629C128.501 90.8976 124.048 90.9123 120.974 90.8657L127.032 98.654Z" fill="#E37958"/>
<path d="M115.468 74.2579C131.521 68.0892 148.217 64.6577 164.9 64.0978L157.403 56.5903C154.661 56.8849 151.254 57.2712 147.337 57.7934C125.079 60.7713 119.884 63.5639 116.606 67.6311C115.499 69.0176 114.586 70.5599 113.901 72.2042L115.468 74.2579Z" fill="#E37958"/>
<path d="M177.281 59.4355C179.549 58.3664 181.816 57.2973 184.084 56.2283L190.411 43.7336C189.833 39.1764 188.521 34.8154 186.53 30.836C184.713 27.2192 182.364 23.9595 179.564 21.1686L174.733 29.9899C179.8 33.9357 183.145 39.8609 184.114 46.6062C180.666 50.2751 176.087 52.4555 171.38 52.6697L177.281 59.4355Z" fill="#E37958"/>
<path d="M55.1866 197.041L69.6198 191.1L65.7097 179.383L64.4852 179.639C63.3318 179.873 62.223 180.375 61.2405 181.108C60.2581 181.841 59.427 182.787 58.8085 183.874L57.8849 185.499L55.1866 197.041Z" fill="#E37958"/>
<path d="M64.6011 252.536C64.4421 252.457 64.2552 252.451 64.0816 252.52C63.9079 252.588 63.7618 252.724 63.6752 252.899C63.5887 253.074 63.5688 253.273 63.62 253.452C63.6712 253.631 63.7893 253.776 63.9483 253.855C64.1073 253.933 64.2942 253.939 64.4678 253.871C64.6415 253.802 64.7877 253.666 64.8742 253.491C64.9608 253.316 64.9806 253.117 64.9294 252.938C64.8782 252.759 64.7601 252.614 64.6011 252.536Z" fill="#004E63"/>
<path d="M42.4762 244.38C46.631 247.92 50.9845 251.199 55.517 254.203C56.23 254.68 56.878 253.359 56.1698 252.884C51.7363 249.942 47.479 246.73 43.4172 243.262C42.763 242.703 41.8255 243.79 42.4714 244.378L42.4762 244.38Z" fill="#E5E5E5"/>
<path d="M52.0317 263.669C55.7411 261.299 57.3978 256.805 57.6474 252.563C57.9098 248.006 56.9875 243.382 55.9078 239.101C54.7442 234.704 53.3503 230.396 51.7322 226.196C51.1146 224.525 50.3943 222.87 49.9048 221.158C49.5043 219.774 49.1726 218.364 48.9109 216.932C48.563 215.134 48.3368 213.303 48.2338 211.452C48.1709 210.108 48.0704 208.502 48.6416 207.215C49.021 206.352 47.8246 205.755 47.4426 206.624C46.9986 207.774 46.7919 208.994 46.8373 210.198C46.8372 211.789 46.9554 213.369 47.1909 214.922C47.5486 217.83 48.2145 220.662 49.1764 223.365C52.2554 231.614 55.5677 240.101 56.2319 249.226C56.5768 253.991 55.7486 259.668 51.3273 262.488C50.5432 262.987 51.2576 264.16 52.0317 263.669Z" fill="#004E63"/>
<path d="M52.7461 264.987C55.8954 262.602 59.1327 260.064 61.4968 256.734C63.7017 253.554 65.074 249.855 65.4609 246.047C66.332 238.331 63.8675 231.18 60.9131 224.549C59.3318 220.992 57.4005 217.407 57.4035 213.253C57.405 212.321 56.0374 212.48 56.0385 213.406C56.0351 216.91 57.3328 220.052 58.6932 223.067C60.2185 226.273 61.5448 229.594 62.6643 233.009C64.7549 239.817 65.2692 247.87 61.3168 254.578C59.0403 258.43 55.469 261.197 52.0544 263.792C51.3169 264.354 52.0191 265.527 52.7565 264.966L52.7461 264.987Z" fill="#004E63"/>
<path d="M36.0698 237.188C36.5934 236.733 37.2308 236.462 37.8841 236.416C38.5517 236.273 39.2428 236.154 39.9236 236.057C41.3655 235.838 42.8116 235.702 44.2555 235.648C47.126 235.548 49.9753 235.768 52.7562 236.305C52.93 236.328 53.1106 236.277 53.2599 236.164C53.4091 236.051 53.5153 235.884 53.5559 235.698C53.5965 235.513 53.5684 235.324 53.4776 235.17C53.3867 235.017 53.2401 234.912 53.0689 234.877C50.0201 234.285 46.8917 234.062 43.7423 234.213C42.1772 234.29 40.6107 234.463 39.0508 234.734C37.6955 234.964 36.1384 235.108 35.0993 236.243C34.4622 236.939 35.4458 237.858 36.0803 237.167L36.0698 237.188Z" fill="#004E63"/>
<path d="M66.9553 244.343C72.1602 242.809 77.8975 240.874 81.3614 235.973C84.7333 231.198 84.3252 225.318 83.0177 220.183C82.2038 217.004 81.1158 213.933 80.5262 210.675C80.373 209.779 79.0593 210.299 79.22 211.192C80.1915 216.464 82.5065 221.348 82.6358 226.815C82.7606 229.373 82.1483 231.972 80.8789 234.271C79.4152 236.587 77.4023 238.476 75.0645 239.726C72.3844 241.259 69.4527 242.142 66.5685 242.99C65.7175 243.226 66.1012 244.597 66.9553 244.343Z" fill="#004E63"/>
<path d="M83.0162 231.387C82.537 232.175 83.3844 232.935 84.0932 232.575C84.4714 232.297 84.7994 231.945 85.0582 231.542C85.4849 231.017 85.9165 230.495 86.3406 229.976C87.8437 228.144 89.5313 226.338 90.6681 224.234C91.7609 222.207 91.8914 220.098 91.6487 217.924C91.4061 215.749 91.1525 213.609 90.2328 211.717C89.8473 210.917 88.6838 211.76 89.0645 212.559C89.6897 214.06 90.0717 215.679 90.1956 217.351C90.4026 218.983 90.6044 220.697 90.0504 222.347C89.469 224.089 88.2318 225.539 87.0966 226.929L85.2682 229.164C84.9634 229.539 84.6539 229.911 84.3517 230.281C84.2093 230.46 83.7156 231.24 83.5017 231.299L84.0251 231.314L83.9148 231.26L84.2451 231.666L84.2027 231.546L84.1504 232.098L84.2 231.998C84.6945 231.192 83.4929 230.605 83.001 231.406L83.0162 231.387Z" fill="#004E63"/>
<path d="M49.1315 207.359C48.9759 203.039 49.9081 198.664 51.8337 194.678C53.7593 190.691 56.6098 187.236 60.0962 184.661C61.9924 183.268 64.0441 182.151 66.191 181.341C67.0376 181.017 66.6483 179.669 65.8043 179.988C61.7083 181.54 57.9771 184.151 54.9675 187.572C51.958 190.994 49.7706 195.11 48.6147 199.528C47.945 202.161 47.6596 204.857 47.7687 207.52C47.7833 207.703 47.8646 207.868 47.9956 207.98C48.1267 208.093 48.2976 208.144 48.4728 208.123C48.648 208.102 48.8142 208.011 48.9368 207.869C49.0594 207.727 49.1291 207.544 49.1315 207.359Z" fill="#004E63"/>
<path d="M56.7122 211.021C55.3533 207.593 54.9349 203.652 54.9185 199.862C54.9158 196.251 55.2029 192.053 57.1839 188.81C57.6736 188.001 56.472 187.415 55.9849 188.218C53.9181 191.623 53.5588 196.014 53.5556 199.807C53.5621 203.749 53.9815 207.953 55.4011 211.536C55.7347 212.357 57.0332 211.856 56.7122 211.021Z" fill="#004E63"/>
<path d="M54.6907 199.369C55.0112 198.872 55.4878 198.508 56.0257 198.348C56.6339 198.083 57.2535 197.844 57.8661 197.595C59.1283 197.082 60.3933 196.564 61.6603 196.054L69.2511 192.967C70.0912 192.62 69.7092 191.269 68.8644 191.614L60.6016 194.974L56.5827 196.607C55.4093 197.085 54.1423 197.523 53.4916 198.778C53.4051 198.952 53.3852 199.151 53.4364 199.331C53.4876 199.51 53.6058 199.654 53.7648 199.733C53.9238 199.811 54.1106 199.817 54.2842 199.749C54.4579 199.681 54.6041 199.544 54.6907 199.369Z" fill="#004E63"/>
<path d="M80.3417 209.324C77.9767 204.034 75.3012 198.926 72.8243 193.706C71.457 190.825 70.1146 187.931 68.9011 184.969C67.9492 182.648 66.8516 180.163 66.5568 177.576C66.3129 175.044 66.7748 172.436 67.8865 170.066C69.0321 167.474 70.3028 164.93 71.5182 162.366C71.6048 162.191 71.6246 161.992 71.5734 161.813C71.5222 161.633 71.4041 161.489 71.2451 161.41C71.0861 161.332 70.8992 161.326 70.7255 161.394C70.5519 161.462 70.4057 161.599 70.3192 161.774C69.2244 164.083 68.1125 166.389 67.0447 168.692C65.9706 170.843 65.3277 173.178 65.1592 175.54C65.0099 178.591 66.0122 181.377 67.0616 184.068C69.4451 190.2 72.3884 196.057 75.2663 201.902C76.6043 204.637 77.9431 207.346 79.2083 210.143C79.5659 210.976 80.7398 210.111 80.3813 209.304L80.3417 209.324Z" fill="#004E63"/>
<path d="M90.1891 208.814C88.9659 205.463 87.5593 202.202 85.9759 199.048C84.0722 195.069 82.1013 191.129 80.2124 187.144C78.3235 183.16 76.5044 179.203 74.9763 175.068C73.7565 171.781 72.5963 168.314 72.4161 164.686C72.2739 162.977 72.4769 161.227 73.0119 159.552C73.6109 157.968 74.5158 156.514 75.6651 155.288C78.0498 152.664 81.1687 150.98 84.1617 149.345C84.9755 148.907 84.249 147.734 83.4548 148.169C78.3397 150.969 72.3178 154.588 71.2297 161.127C70.542 165.278 71.5851 169.416 72.8161 173.175C75.6465 181.792 79.8975 189.746 83.7926 197.78C85.6182 201.543 87.5018 205.321 88.8734 209.327C89.1647 210.173 90.4923 209.673 90.1844 208.812L90.1891 208.814Z" fill="#004E63"/>
<path d="M83.2648 149.06C91.0196 147.145 98.9109 146.426 106.687 146.926C107.548 146.983 107.873 145.542 106.995 145.496C99.105 144.976 91.0965 145.692 83.2245 147.622C82.3591 147.852 82.4072 149.274 83.2648 149.06Z" fill="#004E63"/>
<path d="M74.188 166.532C75.1543 165.46 76.4907 164.99 77.7901 164.68C79.2299 164.327 80.6858 164.074 82.133 163.79C85.2067 163.207 88.2754 162.677 91.339 162.202C97.4853 161.262 103.643 160.581 109.811 160.159C113.266 159.93 116.717 159.79 120.163 159.74C121.038 159.733 120.993 158.292 120.12 158.308C107.438 158.516 94.7126 159.864 82.081 162.34C80.4403 162.653 78.7952 162.95 77.1484 163.372C75.6788 163.683 74.3 164.457 73.1979 165.591C72.5678 166.297 73.5539 167.211 74.1788 166.515L74.188 166.532Z" fill="#004E63"/>
<path d="M78.6381 180.932C85.1756 181.854 91.8713 181.673 98.5363 181.24C104.955 180.823 111.495 180.244 117.724 177.883C120.937 176.7 123.978 174.962 126.718 172.744C127.435 172.152 126.731 170.971 126.014 171.562C121.106 175.619 115.168 177.658 109.251 178.677C106.06 179.229 102.844 179.506 99.637 179.728C96.4294 179.951 93.1555 180.127 89.9076 180.179C86.2206 180.233 82.5544 180.014 78.9357 179.523C78.8483 179.509 78.7578 179.513 78.6693 179.536C78.5808 179.559 78.4961 179.599 78.4201 179.656C78.344 179.712 78.278 179.783 78.2258 179.864C78.1737 179.946 78.1365 180.036 78.1163 180.13C78.0961 180.224 78.0933 180.319 78.1081 180.411C78.1228 180.504 78.1548 180.591 78.2023 180.667C78.2498 180.743 78.3118 180.808 78.3848 180.857C78.4578 180.906 78.5403 180.939 78.6277 180.953L78.6381 180.932Z" fill="#004E63"/>
<path d="M80.7225 188.899C89.0318 190.025 97.4873 190.28 105.97 189.661C109.944 189.371 114.032 189.045 117.968 188.086C119.747 187.692 121.479 187.01 123.099 186.062C124.852 185.072 126.269 183.488 127.104 181.586C129.266 176.53 131.751 171.614 134.54 166.875C135.025 166.064 133.826 165.472 133.341 166.283C130.937 170.323 128.771 174.503 126.855 178.798C126.397 179.819 126.006 180.887 125.493 181.887C124.958 182.857 124.211 183.687 123.32 184.301C121.837 185.338 120.206 186.091 118.509 186.522C114.741 187.577 110.752 187.86 106.95 188.176C102.862 188.508 98.7849 188.636 94.7175 188.559C90.1287 188.467 85.5667 188.113 81.0514 187.499C80.1948 187.385 79.8774 188.81 80.7435 188.929L80.7225 188.899Z" fill="#004E63"/>
<path d="M127.25 179.472C127.41 176.625 127.025 173.818 126.118 171.22C125.227 168.476 124.15 165.817 122.896 163.262C120.355 158.006 117.173 153.16 113.426 148.84C109.836 144.686 105.823 140.966 102.32 136.723C100.537 134.605 98.9683 132.291 97.6347 129.815C96.3039 127.307 95.2422 124.545 95.087 121.567C94.7475 115.235 98.0731 109.13 101.291 103.773C101.776 102.962 100.574 102.376 100.092 103.181C97.1705 108.048 94.3198 113.35 93.7837 119.039C93.232 124.977 95.8424 130.289 98.9786 134.732C102.201 139.29 106.169 143.112 109.955 147.16C113.904 151.313 117.336 155.988 120.177 161.087C121.77 163.988 123.143 167.031 124.283 170.189C125.35 173.171 126.15 176.304 125.875 179.621C125.798 180.548 127.166 180.389 127.24 179.467L127.25 179.472Z" fill="#004E63"/>
<path d="M134.769 167.98C134.375 165.159 133.203 162.703 131.973 160.232C130.7 157.621 129.35 155.058 127.926 152.543C125.06 147.471 121.91 142.599 118.493 137.949C116.787 135.624 115.014 133.355 113.173 131.142C111.297 128.904 109.336 126.669 107.522 124.329C104.304 120.161 101.374 115.387 100.685 109.796C100.304 106.719 100.554 103.225 102.785 100.729C104.785 98.473 107.74 97.47 110.45 96.89C111.311 96.705 111.259 95.255 110.405 95.45C107.936 95.978 105.399 96.787 103.29 98.419C102.194 99.275 101.269 100.361 100.581 101.601C99.893 102.841 99.459 104.205 99.308 105.597C98.5975 111.253 100.782 116.763 103.532 121.179C106.743 126.315 110.978 130.597 114.671 135.315C118.324 139.982 121.7 144.892 124.782 150.02C126.501 152.89 128.127 155.822 129.661 158.815C131.152 161.724 132.875 164.754 133.402 168.138C133.552 169.04 134.908 168.882 134.762 167.982L134.769 167.98Z" fill="#004E63"/>
<path d="M102.577 115.475C103.931 112.632 105.35 109.715 107.819 107.717C110.048 105.915 112.69 104.869 115.252 103.875C115.426 103.807 115.572 103.67 115.659 103.495C115.746 103.32 115.766 103.121 115.714 102.941C115.663 102.762 115.545 102.617 115.386 102.539C115.226 102.46 115.039 102.454 114.865 102.522C112.122 103.604 109.28 104.729 106.929 106.693C104.346 108.851 102.805 111.879 101.378 114.884C101.291 115.059 101.272 115.257 101.323 115.437C101.374 115.616 101.492 115.761 101.651 115.839C101.81 115.918 101.997 115.923 102.171 115.855C102.344 115.787 102.491 115.65 102.577 115.475Z" fill="#004E63"/>
<path d="M127.425 151.469C130.423 151.156 133.411 150.617 136.369 149.857C137.819 149.483 139.256 149.054 140.681 148.571C141.879 148.164 143.625 147.615 143.274 145.912C143.089 145.02 141.78 145.542 141.968 146.429C142.079 146.964 135.526 148.594 134.889 148.759C132.406 149.34 129.902 149.76 127.393 150.015C127.212 150.036 127.04 150.131 126.916 150.28C126.792 150.429 126.725 150.62 126.73 150.811C126.736 151.002 126.813 151.176 126.945 151.297C127.076 151.417 127.252 151.473 127.433 151.453L127.425 151.469Z" fill="#004E63"/>
<path d="M132.132 159.358C134.731 159.676 137.559 159.943 140.15 158.891C143.129 157.696 144.893 154.759 145.184 151.529C145.482 148.105 144.214 144.807 142.982 141.836C141.66 138.705 140.117 135.699 138.363 132.841C134.644 126.693 130.379 120.938 126.276 115.06L113.155 96.236C112.01 94.595 110.771 92.9987 109.746 91.2718C108.793 89.7887 108.452 87.9254 108.796 86.0765C109.287 84.0269 109.971 82.0197 110.836 80.0856C111.669 77.9674 112.56 75.875 113.507 73.8085C113.896 72.9502 112.699 72.3532 112.308 73.2168C110.684 76.6887 109.249 80.244 108.011 83.8642C107.438 85.407 107.204 87.0432 107.33 88.6416C107.583 90.2005 108.173 91.6504 109.056 92.8813C111.035 95.913 113.181 98.823 115.246 101.778L121.615 110.915C125.75 116.895 129.992 122.769 134.048 128.801C137.686 134.22 141.21 139.977 143.152 146.423C144.137 149.726 144.452 154.286 141.175 156.725C138.616 158.627 135.227 158.241 132.45 157.894C131.589 157.791 131.271 159.216 132.135 159.327L132.132 159.358Z" fill="#004E63"/>
<path d="M115.434 136.473C124.621 139.315 133.604 142.733 142.336 146.71C143.103 147.088 143.774 145.745 142.989 145.391C134.145 141.372 125.049 137.918 115.747 135.045C114.925 134.79 114.621 136.222 115.434 136.473Z" fill="#E5E5E5"/>
<path d="M103.479 119.623L103.415 119.69L104.062 119.432C103.736 120.091 103.814 120.451 104.266 120.503L104.777 120.677L105.796 121.029L107.803 121.724C109.056 122.159 110.309 122.593 111.562 123.041C114.065 123.93 116.563 124.832 119.054 125.747C124.104 127.6 129.142 129.527 134.168 131.526C134.967 131.841 135.625 130.524 134.821 130.207C125.369 126.452 115.826 122.924 106.193 119.623C105.444 119.365 103.723 118.358 103.137 119.565C103.043 119.762 103.015 119.983 103.058 120.188C103.101 120.394 103.212 120.571 103.372 120.689C103.532 120.807 103.731 120.858 103.933 120.834C104.135 120.81 104.328 120.711 104.479 120.556C105.139 119.884 104.148 118.968 103.498 119.632L103.479 119.623Z" fill="#E5E5E5"/>
<path d="M106.697 109.67C111.885 112.363 117.353 114.483 123.019 115.999C123.857 116.222 124.165 114.792 123.332 114.571C117.783 113.077 112.43 110.994 107.35 108.352C107.191 108.273 107.004 108.267 106.83 108.336C106.657 108.404 106.511 108.54 106.424 108.715C106.337 108.89 106.318 109.089 106.369 109.268C106.42 109.447 106.538 109.592 106.697 109.67Z" fill="#E5E5E5"/>
<path d="M100.123 157.465C107.66 161.237 115.109 165.182 122.468 169.3C123.222 169.718 123.874 168.399 123.12 167.981C115.768 163.858 108.32 159.913 100.775 156.146C100.616 156.068 100.43 156.062 100.256 156.13C100.082 156.198 99.936 156.335 99.85 156.51C99.763 156.685 99.743 156.884 99.794 157.063C99.846 157.242 99.964 157.387 100.123 157.465Z" fill="#E5E5E5"/>
<path d="M81.4271 160.285C90.1122 165.477 98.9845 170.334 108.044 174.858C110.618 176.128 113.201 177.383 115.794 178.624C115.953 178.702 116.14 178.708 116.314 178.64C116.487 178.572 116.633 178.435 116.72 178.26C116.807 178.085 116.826 177.886 116.775 177.707C116.724 177.528 116.606 177.383 116.447 177.305C107.298 172.978 98.3225 168.312 89.5208 163.307C87.0378 161.894 84.5557 160.45 82.0747 158.976C81.3386 158.534 80.6859 159.853 81.4219 160.295L81.4271 160.285Z" fill="#E5E5E5"/>
<path d="M75.0071 167.639C82.8992 172.094 90.9367 176.279 99.12 180.195C101.45 181.297 103.791 182.38 106.141 183.444C106.913 183.825 107.579 182.479 106.794 182.125C98.5298 178.397 90.4021 174.385 82.4104 170.091C80.1405 168.866 77.8843 167.621 75.6416 166.357C74.8903 165.934 74.2376 167.253 74.9889 167.676L75.0071 167.639Z" fill="#E5E5E5"/>
<path d="M58.3055 194.031C62.1204 196.711 66.1109 199.119 70.253 201.24C70.412 201.318 70.5989 201.324 70.7726 201.256C70.9462 201.188 71.0924 201.051 71.1789 200.876C71.2655 200.701 71.2854 200.502 71.2342 200.323C71.1829 200.144 71.0648 199.999 70.9058 199.921C66.8604 197.864 62.9621 195.528 59.2339 192.926C58.5384 192.439 57.583 193.549 58.2881 194.042L58.3055 194.031Z" fill="#E5E5E5"/>
<path d="M56.1316 203.632C59.2142 205.193 62.1054 207.236 65.006 209.068C68.8249 211.504 72.6234 213.97 76.4659 216.359C77.8011 217.182 79.1349 218.043 80.5323 218.753C80.6913 218.831 80.8782 218.837 81.0519 218.769C81.2255 218.701 81.3717 218.564 81.4582 218.389C81.5448 218.214 81.5646 218.015 81.5134 217.836C81.4622 217.657 81.3441 217.512 81.1851 217.434C78.1025 215.873 75.2114 213.829 72.3108 211.997C68.4892 209.566 64.6981 207.098 60.8483 204.712C59.5157 203.884 58.1866 203.025 56.7843 202.313C56.6254 202.234 56.4385 202.229 56.2649 202.297C56.0913 202.365 55.945 202.502 55.8585 202.677C55.7719 202.851 55.7521 203.05 55.8033 203.229C55.8545 203.409 55.9726 203.553 56.1316 203.632Z" fill="#E5E5E5"/>
<path d="M56.3548 215.565C64.7978 221.101 73.3165 226.509 81.9109 231.787C82.6444 232.235 83.2923 230.913 82.5637 230.468C73.9675 225.193 65.4488 219.786 57.0076 214.246C56.292 213.774 55.6441 215.096 56.3548 215.565Z" fill="#E5E5E5"/>
<path d="M70.7797 235.675L62.9033 230.054C62.7707 229.938 62.5969 229.882 62.4174 229.9C62.2379 229.917 62.0662 230.007 61.9375 230.149C61.8127 230.297 61.7443 230.487 61.7472 230.678C61.75 230.868 61.8239 231.044 61.9527 231.167L69.8339 236.79C69.9666 236.905 70.1395 236.959 70.3179 236.941C70.4962 236.923 70.6668 236.834 70.7949 236.693C70.8574 236.62 70.9065 236.536 70.9396 236.445C70.9726 236.354 70.9889 236.259 70.9875 236.164C70.9861 236.07 70.967 235.978 70.9313 235.894C70.8957 235.81 70.8442 235.735 70.7797 235.675Z" fill="#E5E5E5"/>
<path d="M145.282 153.612C148.895 149.927 150.818 144.836 152.979 140.205C153.373 139.349 152.176 138.752 151.78 139.613C149.691 144.136 147.819 149.1 144.298 152.693C143.638 153.365 144.624 154.278 145.282 153.612Z" fill="#004E63"/>
<path d="M152.351 138.241C149.827 127.667 143.477 118.986 136.686 111.269C132.866 106.929 128.869 102.816 125.086 98.4621C123.182 96.2811 121.34 94.0461 119.619 91.7001C117.945 89.5622 116.574 87.1693 115.542 84.5876C114.587 81.9078 114.266 78.9766 114.605 76.035C114.943 73.0935 115.932 70.2256 117.489 67.6669C117.984 66.8606 116.782 66.2742 116.29 67.0752C113.528 71.6637 112.503 77.0834 113.436 82.1631C114.465 87.7649 118.072 92.2564 121.429 96.3751C128.64 105.185 137.164 112.812 143.547 122.389C146.88 127.316 149.59 132.775 151.032 138.785C151.244 139.67 152.553 139.148 152.338 138.267L152.351 138.241Z" fill="#004E63"/>
<path d="M118.057 68.1239C119.987 66.129 122.846 65.5969 125.307 64.9536C128.21 64.1985 131.135 63.5148 134.079 62.9024C137.024 62.29 139.93 61.755 142.798 61.2973C145.496 60.8628 148.197 60.5414 150.893 60.0863C153.838 59.6559 156.742 58.7859 159.517 57.5025C160.316 57.0955 159.956 55.7493 159.136 56.1521C153.979 58.6489 148.309 58.9163 142.882 59.7894C136.956 60.7424 131.055 61.9875 125.178 63.5248C122.351 64.2566 119.294 64.9007 117.078 67.1947C116.427 67.8711 117.413 68.7846 118.062 68.1134L118.057 68.1239Z" fill="#004E63"/>
<path d="M114.652 78.1024C127.961 73.6749 141.696 71.4729 155.268 68.8628L167.463 66.5177C168.329 66.3476 168.298 64.9146 167.422 65.0799L145.746 69.2444C138.965 70.5519 132.181 71.8517 125.453 73.5334C121.701 74.4715 117.964 75.5224 114.27 76.752C113.413 77.0378 113.8 78.3906 114.652 78.1024Z" fill="#004E63"/>
<path d="M123.516 94.135C130.405 92.9728 137.316 92.3071 144.216 91.4253C151.115 90.5435 157.921 89.524 164.599 87.4368C167.923 86.3991 171.239 84.8715 173.691 82.0769C173.809 81.9282 173.872 81.7408 173.866 81.5543C173.86 81.3677 173.785 81.1967 173.657 81.0773C173.529 80.958 173.359 80.8996 173.181 80.9147C173.004 80.9298 172.834 81.0172 172.707 81.1583C170.562 83.6116 167.656 84.961 164.749 85.9157C161.528 86.9277 158.265 87.7292 154.98 88.3156C148.275 89.6016 141.535 90.306 134.802 91.1185C131.002 91.5608 127.245 92.063 123.473 92.7027C122.601 92.8498 122.647 94.264 123.516 94.135Z" fill="#004E63"/>
<path d="M128.383 102.123C134.968 103.154 141.75 102.267 148.419 101.029C151.838 100.392 155.258 99.704 158.677 99.041C161.981 98.394 165.335 97.647 168.478 96.119C171.75 94.498 174.734 92.038 176.499 88.6289C176.585 88.454 176.605 88.2551 176.554 88.0759C176.503 87.8968 176.385 87.752 176.226 87.6735C176.067 87.595 175.88 87.5893 175.706 87.6575C175.532 87.7257 175.386 87.8622 175.3 88.0371C172.027 94.372 164.923 96.38 158.898 97.569C152.489 98.823 146.038 100.294 139.584 100.903C135.921 101.296 132.26 101.23 128.678 100.707C128.504 100.684 128.323 100.734 128.174 100.847C128.025 100.96 127.919 101.127 127.878 101.313C127.837 101.498 127.866 101.688 127.956 101.841C128.047 101.994 128.194 102.1 128.365 102.134L128.383 102.123Z" fill="#004E63"/>
<path d="M177.143 87.4962C177.028 79.9626 173.021 73.3244 169.286 67.4635C165.049 60.9894 160.353 54.8832 155.235 49.192C152.39 45.9567 149.453 42.7874 146.537 39.6481C145.944 39.014 145.003 40.1316 145.592 40.7633C150.73 46.2858 155.854 51.8476 160.569 57.7914C165.11 63.5184 169.405 69.6228 172.689 76.3113C174.402 79.7826 175.715 83.5684 175.778 87.6497C175.784 87.8403 175.861 88.0151 175.992 88.1355C176.124 88.256 176.3 88.3122 176.481 88.2918C176.662 88.2715 176.833 88.1762 176.958 88.027C177.082 87.8778 177.148 87.6868 177.143 87.4962Z" fill="#004E63"/>
<path d="M147.642 40.9483C143.655 35.9716 140.403 30.3637 137.982 24.2929C136.833 21.3951 135.621 18.2961 135.247 15.0981C135.058 13.4558 135.193 11.7642 135.642 10.127C135.88 9.26608 136.158 8.41508 136.474 7.57718C136.74 6.84808 136.931 5.77408 137.726 5.52978C138.757 5.30358 139.796 5.15828 140.836 5.09498L143.793 4.69018L149.972 3.84028C150.851 3.71609 150.808 2.2836 149.932 2.40251C145.988 2.94405 142.048 3.44149 138.11 4.03178C137.435 4.05708 136.774 4.35298 136.262 4.85958C135.679 5.53048 135.426 6.54778 135.133 7.36838C134.463 9.06598 134.023 10.8395 133.829 12.6327C133.548 16.1436 134.74 19.5349 135.865 22.6635C138.371 29.684 141.959 36.1448 146.493 41.7992C147.031 42.4719 148.202 41.6381 147.661 40.9577L147.642 40.9483Z" fill="#004E63"/>
<path d="M176.783 88.5855C178.877 84.3728 180.53 79.9579 181.708 75.4256C181.946 74.5121 180.617 74.2898 180.375 75.2009C179.231 79.6077 177.624 83.8999 175.584 87.9937C175.497 88.1687 175.477 88.3675 175.529 88.5467C175.58 88.7258 175.698 88.8706 175.857 88.9491C176.016 89.0276 176.203 89.0333 176.376 88.9651C176.55 88.8969 176.696 88.7604 176.783 88.5855Z" fill="#004E63"/>
<path d="M182.196 74.8258C181.714 69.9402 179.574 65.6544 176.858 61.918C173.815 57.7446 170.168 54.1064 166.679 50.3759C162.734 46.1575 158.673 42.0267 154.899 37.6304C151.494 33.6589 148.321 29.2179 146.721 24.0103C145.072 18.6605 145.003 12.4819 147.784 7.16492C147.87 6.99002 147.89 6.79112 147.839 6.61202C147.788 6.43282 147.67 6.28802 147.511 6.20952C147.352 6.13112 147.165 6.12532 146.991 6.19352C146.818 6.26172 146.671 6.39822 146.585 6.57322C144.129 11.2694 143.742 16.586 144.669 21.5138C145.677 26.8689 148.308 31.5481 151.45 35.6655C154.879 40.1545 158.862 44.1417 162.694 48.2387C166.527 52.3357 170.401 56.2038 173.934 60.4947C177.29 64.5665 180.274 69.3282 180.841 74.9841C180.928 75.8936 182.295 75.7477 182.201 74.8282L182.196 74.8258Z" fill="#004E63"/>
<path d="M144.606 13.8746L170.426 23.4991L177.786 26.2448C178.588 26.542 179.25 25.2278 178.439 24.9259L152.619 15.3014L145.257 12.561C144.457 12.2585 143.8 13.5751 144.604 13.8799L144.606 13.8746Z" fill="#E5E5E5"/>
<path d="M144.953 24.9428C155.085 28.9802 165.29 32.8328 175.569 36.5007C176.371 36.785 177.033 35.4707 176.221 35.1817C165.939 31.5122 155.734 27.6596 145.606 23.6239C144.814 23.3056 144.152 24.6198 144.953 24.9428Z" fill="#E5E5E5"/>
<path d="M156.327 39.7007L183.534 49.4905C184.333 49.7801 184.998 48.4606 184.186 48.1716L156.98 38.3817C156.173 38.0951 155.511 39.4093 156.327 39.7007Z" fill="#E5E5E5"/>
<path d="M172.75 56.7727C175.262 56.4739 177.72 55.5741 179.936 54.1419C181.017 53.4442 182.026 52.62 182.942 51.6864C183.953 50.6689 184.839 49.5175 184.922 48.0355C184.974 47.1096 183.607 47.2683 183.554 48.1943C183.494 49.3528 182.411 50.3478 181.631 51.092C180.798 51.876 179.893 52.5676 178.933 53.1545C177 54.3395 174.878 55.0843 172.715 55.3373C172.625 55.3474 172.537 55.3759 172.455 55.4214C172.374 55.4668 172.3 55.5282 172.238 55.6021C172.177 55.676 172.129 55.7609 172.097 55.852C172.065 55.9431 172.05 56.0385 172.053 56.1329C172.055 56.2273 172.076 56.3188 172.112 56.4021C172.149 56.4855 172.202 56.5591 172.267 56.6188C172.399 56.7392 172.574 56.7954 172.755 56.7751L172.75 56.7727Z" fill="#004E63"/>
<path d="M176.058 61.3395C179.232 61.2887 182.387 60.1792 185.075 58.1681C185.817 57.6089 185.11 56.4328 184.368 56.9921C181.878 58.8557 178.952 59.874 176.013 59.8993C175.832 59.9204 175.66 60.0165 175.536 60.1664C175.412 60.3163 175.346 60.5079 175.352 60.6989C175.358 60.8898 175.436 61.0646 175.568 61.1848C175.7 61.3049 175.877 61.3605 176.058 61.3395Z" fill="#004E63"/>
<path d="M184.751 57.8576C186.474 48.4674 181.248 40.6036 176.196 34.0272C175.67 33.3411 174.5 34.1749 175.027 34.8687C179.832 41.1258 185.064 48.6642 183.423 57.6353C183.254 58.5561 184.584 58.7861 184.751 57.8576Z" fill="#004E63"/>
<path d="M185.863 57.336C187.698 53.1917 189.846 49.1905 192.284 45.3738C192.793 44.5747 191.589 43.9935 191.085 44.7821C188.647 48.5988 186.499 52.6 184.664 56.7443C184.284 57.6074 185.481 58.2044 185.863 57.336Z" fill="#004E63"/>
<path d="M192.038 45.2196C190.443 36.2267 185.74 28.4185 178.817 23.2683C178.127 22.7572 177.177 23.87 177.867 24.3812C184.61 29.3797 189.188 36.9773 190.73 45.7292C190.88 46.6307 192.194 46.1105 192.038 45.2196Z" fill="#004E63"/>
<path d="M173.928 34.2077C176.029 31.3863 177.842 28.3489 179.335 25.1518C179.422 24.9769 179.442 24.7779 179.39 24.5988C179.339 24.4196 179.221 24.2749 179.062 24.1965C178.903 24.118 178.716 24.1122 178.543 24.1804C178.369 24.2486 178.223 24.3852 178.136 24.5601C176.704 27.6408 174.963 30.5685 172.945 33.2891C172.381 34.0417 173.362 34.9656 173.928 34.2077Z" fill="#004E63"/>
<path d="M131.236 74.4967C139.966 78.4553 148.882 81.9799 157.982 85.0707C160.547 85.9423 163.119 86.774 165.699 87.5659C166.521 87.8209 166.824 86.3885 166.011 86.1382C156.938 83.3146 148.022 80.0591 139.265 76.3718C136.796 75.3325 134.344 74.2581 131.909 73.1485C131.137 72.7675 130.471 74.1128 131.256 74.4675L131.236 74.4967Z" fill="#E5E5E5"/>
<path d="M116.01 79.8556L145.591 91.8285L153.975 95.2181C154.771 95.5381 155.429 94.2221 154.628 93.8989L125.047 81.926L116.663 78.5367C115.867 78.216 115.21 79.5326 116.01 79.8556Z" fill="#E5E5E5"/>
<path d="M129.786 96.2121L119.599 91.6312C118.814 91.2765 118.161 92.5955 118.946 92.9502L129.133 97.5311C129.918 97.8861 130.576 96.5691 129.786 96.2121Z" fill="#E5E5E5"/>
<path d="M174.825 78.6852C167.353 75.6976 159.77 72.9857 152.076 70.5497C151.256 70.2895 150.948 71.7195 151.763 71.9774C159.319 74.3937 166.789 77.0693 174.173 80.0042C174.971 80.3196 175.629 79.003 174.825 78.6852Z" fill="#E5E5E5"/>
<path d="M14.3866 279.265C14.2662 279.425 14.1955 279.618 14.1854 279.815C14.1753 280.012 14.2263 280.202 14.3306 280.356C14.435 280.511 14.5869 280.62 14.7632 280.669C14.9394 280.718 15.1304 280.702 15.3068 280.626C16.3338 280.226 15.8508 278.984 15.1572 278.661C14.8934 278.531 14.8646 278.589 14.7115 278.356C14.588 278.137 14.48 277.908 14.388 277.671C14.1522 277.134 13.9339 276.587 13.7352 276.036C13.3572 274.987 13.0411 273.911 12.7887 272.812C11.8378 268.317 11.717 263.607 12.4326 258.929C12.8135 256.284 13.3685 253.655 14.0933 251.064C14.3449 250.158 13.0167 249.935 12.765 250.842C10.5931 258.691 9.6817 267.189 11.8579 274.801C12.1631 275.887 12.5335 276.947 12.967 277.974C13.1516 278.473 13.3729 278.953 13.6288 279.41C13.7382 279.59 13.8899 279.735 14.0706 279.832C14.1725 279.898 14.2819 279.952 14.3967 279.993C14.66 280.063 15.642 280.66 15.4607 279.579L15.2957 280.298L15.3323 280.224C15.9005 279.474 14.9222 278.545 14.3513 279.301L14.3866 279.265Z" fill="#004E63"/>
<path d="M22.3076 272.52C20.5556 268.44 19.235 264.14 18.3683 259.692C17.8972 257.498 17.5971 255.254 17.4711 252.981C17.4022 250.708 17.651 248.264 19.0342 246.301C19.5688 245.534 18.5905 244.605 18.0459 245.38C15.1102 249.564 16.091 254.997 16.9182 259.476C17.8163 264.306 19.2371 268.971 21.1533 273.382C21.5013 274.21 22.6678 273.348 22.3216 272.54L22.3076 272.52Z" fill="#004E63"/>
<path d="M16.4929 280.121C18.8045 278.145 20.5509 275.52 21.5033 272.59C21.5235 272.496 21.5264 272.4 21.5117 272.308C21.4969 272.215 21.4649 272.129 21.4174 272.052C21.3699 271.976 21.3078 271.911 21.2348 271.862C21.1618 271.813 21.0792 271.78 20.9918 271.766C20.8156 271.742 20.6322 271.791 20.4796 271.904C20.327 272.017 20.2169 272.185 20.1724 272.373C19.3293 274.928 17.8019 277.217 15.7859 278.945C15.6353 279.06 15.5275 279.229 15.4847 279.416C15.4418 279.604 15.467 279.796 15.5552 279.954C15.6509 280.107 15.8023 280.211 15.9773 280.242C16.1524 280.273 16.3373 280.23 16.4929 280.121Z" fill="#004E63"/>
<path d="M18.9767 246.634C23.0365 241.988 27.6457 237.087 33.6276 235.864C34.4939 235.681 34.4584 234.246 33.5873 234.427C27.2102 235.737 22.3343 240.742 17.9957 245.71C17.8697 245.858 17.8005 246.048 17.8033 246.239C17.8061 246.43 17.8809 246.606 18.011 246.728C18.141 246.851 18.3158 246.91 18.4969 246.892C18.678 246.874 18.8506 246.781 18.9767 246.634Z" fill="#004E63"/>
<path d="M18.5222 248.3C27.8591 245.781 37.3468 244.301 46.8255 243.888C49.5134 243.77 52.1968 243.738 54.8758 243.791C55.7501 243.809 55.705 242.368 54.8355 242.353C45.2914 242.173 35.6781 243.073 26.1579 245.038C23.47 245.598 20.7907 246.245 18.1198 246.979C17.2592 247.211 17.6485 248.558 18.5065 248.332L18.5222 248.3Z" fill="#004E63"/>
<path d="M17.8752 261.34C27.6503 261.504 37.4893 260.687 47.2613 258.899C50.05 258.385 52.8333 257.789 55.6111 257.112C56.4813 256.885 56.4283 255.46 55.5708 255.674C45.8645 258.014 36.0413 259.393 26.2317 259.792C23.4302 259.906 20.6298 259.938 17.8305 259.886C16.961 259.871 17.0088 261.306 17.8735 261.319L17.8752 261.34Z" fill="#004E63"/>
<path d="M20.3317 268.736C29.3973 269.612 38.6519 268.895 47.7284 266.613C50.2924 265.966 52.8361 265.195 55.3595 264.301C56.2126 263.999 55.8233 262.652 54.9775 262.95C46.2877 266.026 37.2905 267.619 28.3386 267.665C25.7493 267.7 23.1904 267.553 20.6444 267.308C19.7844 267.225 19.4669 268.65 20.3317 268.736Z" fill="#004E63"/>
<path d="M10.399 267.897C7.16892 267.991 3.93338 268.608 0.804873 269.727L1.19166 271.08C3.40121 270.293 4.66036 268.026 5.8849 266.07L7.04717 264.228C7.19519 263.94 7.37175 263.668 7.57353 263.417C7.80347 263.17 8.06017 263.218 8.35438 263.238C9.74569 263.321 11.1365 263.417 12.5252 263.505C13.3886 263.557 13.7162 262.123 12.8379 262.077C11.4105 261.983 9.95949 261.864 8.56035 261.797C8.00459 261.702 7.4191 261.835 6.92011 262.169C6.41063 262.678 5.98483 263.273 5.66312 263.926C4.92222 265.109 4.2167 266.33 3.4069 267.46C2.77834 268.48 1.8634 269.278 0.804873 269.727C-0.0508851 270.033 0.338513 271.381 1.19166 271.08C4.20534 270.013 7.32076 269.432 10.4289 269.356C11.3119 269.332 11.2642 267.897 10.3886 267.918L10.399 267.897Z" fill="#004E63"/>
<path d="M49.9273 259.119C48.2125 258.712 46.6018 257.984 45.168 256.967C43.6841 255.998 42.2263 254.977 40.7659 253.961C37.8163 251.914 34.9128 249.799 32.1701 247.467C31.5085 246.911 30.5579 248.024 31.2195 248.58C34.0879 251.019 37.13 253.217 40.2108 255.348C43.1128 257.357 46.0672 259.853 49.6194 260.549C49.7068 260.563 49.7973 260.559 49.8857 260.536C49.9742 260.513 50.0589 260.472 50.135 260.416C50.211 260.36 50.277 260.289 50.3291 260.208C50.3812 260.126 50.4185 260.036 50.4387 259.942C50.459 259.848 50.4618 259.753 50.447 259.66C50.4322 259.568 50.4002 259.481 50.3527 259.405C50.3052 259.328 50.2431 259.264 50.1701 259.215C50.0972 259.166 50.0146 259.133 49.9273 259.119Z" fill="#E5E5E5"/>
<path d="M37.2322 263.271C31.4767 258.96 25.9521 254.348 20.6584 249.433C20.5268 249.319 20.3541 249.266 20.177 249.287C19.9998 249.308 19.832 249.401 19.7091 249.546C19.5862 249.691 19.5179 249.877 19.5185 250.064C19.5192 250.251 19.5888 250.425 19.7126 250.549C24.9981 255.463 30.5211 260.075 36.2816 264.384C36.9715 264.895 37.9195 263.788 37.2322 263.271Z" fill="#E5E5E5"/>
</svg>
