<svg width="477" height="347" viewBox="0 0 477 347" fill="none" xmlns="http://www.w3.org/2000/svg">
<path d="M129.151 87.105L290.26 146.53L234.999 272.124L0.496582 170.355L57.4048 132.371L129.151 87.105Z" fill="#4BAEBD"/>
<path d="M449.477 220.436L437.25 163.125L460.939 171.356L450.254 131.757L393.807 108.463L391.888 88.385L415.56 96.838L412.071 78.33L428.109 85.951L423.988 68.405L416.37 61.555L409.754 38.719L405.499 27.295L370.418 13.418L369.394 18.033L352.827 8.59399L350.506 15.577L321.625 5.22501L317.204 13.409L291.261 2.57899L278.353 13.777L229.628 0.348999L208.149 15.671L203.812 18.398L161.815 5.966L101.456 40.938L205.142 73.773L247.108 37.157L303.827 52.555L314.682 31.748L351.625 46.081L356.198 33.002L380.075 41.691L376.165 46.118L374.836 57.624L352.497 50.708L348.916 68.31L316.687 56.513L304.228 83.681L254.784 65.078L215.554 112.573L348.498 161.024L343.895 189.038L448.112 223.691L449.477 220.436ZM356.994 131.704L361.461 105.465L384.877 115.796L384.407 142.295L356.994 131.704Z" fill="#4BAEBD"/>
<path d="M288.803 181.549L415.718 224.257L431.788 346.358L246.62 295.175L288.803 181.549Z" fill="#4BAEBD"/>
<path d="M259.433 138.283L243.969 166.816L228.403 195.23C223.214 204.701 218.128 214.29 212.614 223.629C209.917 228.247 207.101 232.968 204.182 237.571L199.863 244.424C198.344 246.777 196.944 249.027 195.323 251.262C195.203 251.366 195.203 251.366 195.101 251.248C195.101 251.248 194.998 251.13 195.118 251.026C196.312 248.54 197.388 246.158 198.582 243.672L202.269 236.332C204.761 231.478 207.355 226.742 209.95 222.007C215.139 212.535 220.754 203.315 226.268 193.976L242.808 165.96L259.45 138.061C259.57 137.958 259.57 137.958 259.672 138.076C259.553 138.18 259.553 138.18 259.433 138.283Z" fill="#3A8A9D"/>
<path d="M263.585 139.447L248.753 168.466L233.818 197.367C228.834 207.075 224.073 216.797 218.662 226.254C216.067 230.99 213.251 235.711 210.554 240.329L206.338 247.3C204.938 249.549 203.419 251.903 202.019 254.152C201.9 254.256 201.9 254.256 201.797 254.138C201.797 254.138 201.695 254.02 201.814 253.916C202.787 251.416 203.982 248.93 205.176 246.444L208.641 239.089C211.03 234.117 213.403 229.367 215.895 224.513C220.879 214.806 226.289 205.349 231.581 195.996L247.489 167.492L263.499 139.107C263.619 139.003 263.619 139.003 263.721 139.122C263.602 139.225 263.704 139.343 263.585 139.447Z" fill="#3A8A9D"/>
<path d="M268.912 139.793L254.079 168.812L239.145 197.713C234.161 207.421 229.399 217.143 223.988 226.6C221.394 231.335 218.578 236.057 215.881 240.674L211.664 247.645C210.265 249.895 208.746 252.248 207.346 254.498C207.226 254.602 207.226 254.602 207.124 254.483C207.124 254.483 207.021 254.365 207.141 254.262C208.114 251.761 209.308 249.275 210.503 246.789L213.968 239.435C216.357 234.463 218.729 229.713 221.221 224.859C226.205 215.151 231.616 205.694 236.907 196.341L252.713 167.72L268.621 139.216C268.741 139.113 268.741 139.113 268.843 139.231C268.912 139.793 268.912 139.793 268.912 139.793Z" fill="#3A8A9D"/>
<path d="M272.842 142.391L258.573 171.335L244.202 200.161C239.338 209.765 234.798 219.502 229.609 228.973C227.015 233.709 224.42 238.445 221.723 243.062L217.729 250.048C216.329 252.297 215.032 254.665 213.513 257.019C213.394 257.122 213.393 257.122 213.291 257.004C213.291 257.004 213.188 256.886 213.308 256.782C214.281 254.282 215.475 251.796 216.551 249.414L219.896 242.163C222.166 237.295 224.436 232.426 226.927 227.573C231.689 217.85 236.981 208.497 242.05 199.13L257.292 170.583L272.637 142.154C272.756 142.051 272.756 142.051 272.859 142.169C272.859 142.169 272.739 142.272 272.842 142.391Z" fill="#3A8A9D"/>
<path d="M277.367 144.467L263.884 173.351L250.179 202.221C245.537 211.839 241.219 221.59 236.371 230.972C233.999 235.723 231.405 240.458 228.93 245.09L225.158 252.09C223.86 254.458 222.461 256.708 221.163 259.075C221.044 259.179 221.044 259.179 220.942 259.061L220.839 258.943C221.812 256.442 222.887 254.06 223.86 251.56L227.102 244.191C229.15 239.308 231.42 234.44 233.69 229.572C238.11 219.939 243.18 210.571 248.044 200.967L262.5 172.481L277.179 144.009C277.298 143.905 277.298 143.905 277.401 144.023C277.384 144.245 277.367 144.467 277.367 144.467Z" fill="#3A8A9D"/>
<path d="M282.011 146.44L269.707 175.958L257.402 205.476C253.306 215.242 249.415 225.244 244.876 234.98C242.606 239.849 240.455 244.613 237.963 249.467L234.396 256.703C233.099 259.071 232.024 261.453 230.727 263.821C230.607 263.925 230.607 263.925 230.505 263.807L230.402 263.688C231.272 261.07 232.126 258.673 233.098 256.173L236.016 248.671C237.962 243.67 240.01 238.788 241.955 233.787C246.051 224.021 250.591 214.285 255.011 204.652L268.289 175.532L281.669 146.529C281.789 146.426 281.789 146.426 281.789 146.426C282.028 146.218 282.13 146.336 282.011 146.44Z" fill="#3A8A9D"/>
<path d="M250.742 136.715L234.185 164.953L217.525 193.073C212.012 202.412 206.601 211.869 200.763 221.075C197.844 225.678 194.925 230.281 191.904 234.766L187.363 241.604C185.741 243.84 184.342 246.089 182.617 248.206C182.498 248.31 182.498 248.31 182.395 248.192C182.395 248.192 182.293 248.074 182.412 247.97C183.607 245.484 184.904 243.116 186.202 240.749L190.093 233.645C192.688 228.909 195.504 224.188 198.32 219.467C203.834 210.128 209.894 200.936 215.732 191.73L233.245 164.112L250.861 136.611C250.981 136.508 250.981 136.508 251.083 136.626C250.759 136.493 250.759 136.493 250.742 136.715Z" fill="#3A8A9D"/>
<path d="M248.143 132.755L230.408 161.808L212.57 190.743C206.698 200.393 200.826 210.043 194.63 219.56C191.472 224.371 188.331 228.959 185.071 233.652L180.188 240.579C178.447 242.918 176.825 245.153 175.204 247.389C175.084 247.492 175.084 247.492 174.982 247.374C174.982 247.374 174.879 247.256 174.999 247.152C176.313 244.563 177.73 242.091 179.027 239.723L183.277 232.309C186.11 227.366 189.046 222.541 191.982 217.716C197.854 208.066 204.375 198.681 210.452 189.268L229.144 160.834L247.938 132.519C248.058 132.415 248.058 132.415 248.16 132.533C248.041 132.637 248.041 132.637 248.143 132.755Z" fill="#3A8A9D"/>
<path d="M244.081 131.935L226.056 160.412L207.808 188.874C201.731 198.288 195.859 207.938 189.458 217.219C186.317 221.807 183.056 226.5 179.693 231.074L174.709 237.883C173.087 240.118 171.346 242.457 169.622 244.574C169.502 244.678 169.502 244.678 169.4 244.56C169.4 244.56 169.297 244.442 169.417 244.338C170.833 241.867 172.25 239.395 173.547 237.027L177.9 229.731C180.836 224.906 183.874 220.199 186.81 215.374C192.785 205.842 199.288 196.68 205.69 187.399L224.672 159.541L243.757 131.802C243.876 131.698 243.876 131.698 243.979 131.817C244.098 131.713 244.081 131.935 244.081 131.935Z" fill="#3A8A9D"/>
<path d="M239.18 130.391L221.086 158.306L202.889 186.103C196.829 195.295 190.974 204.723 184.59 213.782C181.347 218.252 178.206 222.841 174.962 227.312L169.995 233.899C168.27 236.016 166.649 238.251 164.805 240.472C164.685 240.576 164.685 240.576 164.583 240.458C164.583 240.458 164.48 240.34 164.6 240.236C165.897 237.868 167.416 235.515 168.833 233.043L173.169 225.969C175.985 221.247 179.024 216.541 182.165 211.952C188.122 202.642 194.609 193.701 200.993 184.642L219.924 157.45L239.078 130.273C239.197 130.169 239.197 130.169 239.3 130.287C239.078 130.273 239.18 130.391 239.18 130.391Z" fill="#3A8A9D"/>
<path d="M234.771 128.206L216.267 155.648L197.541 183.076C191.259 192.254 185.199 201.445 178.712 210.386C175.468 214.857 172.225 219.327 168.777 223.561L163.706 230.031C161.982 232.148 160.258 234.265 158.414 236.486C158.295 236.59 158.295 236.59 158.192 236.471C158.192 236.471 158.09 236.353 158.209 236.25C159.626 233.778 161.026 231.528 162.545 229.175L166.983 222.219C170.021 217.512 173.043 213.027 176.184 208.438C182.346 199.365 189.055 190.438 195.542 181.497L215.003 154.674L234.566 127.969C234.685 127.866 234.685 127.866 234.788 127.984C234.788 127.984 234.89 128.102 234.771 128.206Z" fill="#3A8A9D"/>
<path d="M229.015 126.158L210.34 152.921L191.443 179.669C185.178 188.625 179.135 197.594 172.443 206.299C169.097 210.651 165.871 214.9 162.525 219.252L157.352 225.604C155.628 227.721 153.903 229.838 152.077 231.837C151.957 231.941 151.957 231.941 151.855 231.822C151.855 231.822 151.752 231.704 151.872 231.601C153.271 229.351 154.791 226.998 156.31 224.644L160.851 217.806C163.872 213.321 167.013 208.732 170.137 204.366C176.402 195.41 183.077 186.927 189.666 178.104L209.298 151.961L229.032 125.937C229.151 125.833 229.151 125.833 229.254 125.951C228.912 126.04 229.015 126.158 229.015 126.158Z" fill="#3A8A9D"/>
<path d="M215.37 125.159L204.41 140.051L193.348 154.825C189.627 159.71 186.11 164.832 182.064 169.584C178.018 174.337 173.989 178.868 169.516 183.37C169.397 183.473 169.397 183.473 169.294 183.355C169.294 183.355 169.192 183.237 169.311 183.133C172.401 177.761 176.02 172.758 179.639 167.754C183.258 162.751 187.406 158.116 191.333 153.467L203.249 139.195L215.267 125.041C215.387 124.937 215.387 124.937 215.489 125.055C215.37 125.159 215.37 125.159 215.37 125.159Z" fill="#3A8A9D"/>
<path d="M210.042 124.813L200.602 137.352L191.059 149.772C187.85 153.799 184.948 158.18 181.414 162.075C177.88 165.969 174.346 169.863 170.402 173.285C170.283 173.389 170.283 173.389 170.18 173.27C170.18 173.27 170.078 173.152 170.197 173.049C172.894 168.431 175.899 164.168 179.006 160.023C182.113 155.878 185.749 152.102 189.18 148.089L199.458 136.274L209.837 124.577C209.957 124.473 209.957 124.473 210.059 124.592C210.162 124.71 210.162 124.71 210.042 124.813Z" fill="#3A8A9D"/>
<path d="M283.667 149.56L253.335 139.225L223.019 128.668C212.908 125.223 202.678 121.881 192.721 117.889C187.734 116.004 182.644 114 177.776 112.011L170.432 108.858C167.956 107.693 165.462 106.751 163.105 105.482C163.002 105.364 163.002 105.364 163.122 105.261L163.241 105.157C165.872 105.774 168.365 106.717 170.995 107.334L178.732 109.732C183.856 111.292 188.962 113.074 193.966 114.737C204.077 118.182 214.035 122.175 224.111 126.064L254.137 137.494L284.145 149.145L284.248 149.263C283.889 149.575 283.77 149.678 283.667 149.56Z" fill="#3A8A9D"/>
<path d="M284.165 154.718L256.446 145.221L228.624 135.607C219.384 132.441 210.025 129.38 200.922 125.889C196.379 124.032 191.818 122.398 187.395 120.438L180.7 117.55C178.548 116.518 176.276 115.589 174.021 114.439C173.919 114.321 173.919 114.321 174.038 114.218L174.158 114.114C176.566 114.717 178.855 115.423 181.263 116.026L188.35 118.159C193.03 119.69 197.71 121.221 202.389 122.752C211.629 125.917 220.716 129.63 229.819 133.121L257.129 143.594L284.421 154.289L284.524 154.407C284.387 154.732 284.268 154.836 284.165 154.718Z" fill="#3A8A9D"/>
<path d="M273.628 155.368L244.491 145.445L215.473 135.418C205.807 132.002 196.003 128.911 186.473 125.17C181.708 123.299 176.943 121.428 172.178 119.557L165.158 116.536C162.784 115.49 160.41 114.444 158.155 113.294C158.053 113.175 158.053 113.175 158.172 113.072L158.292 112.968C160.802 113.689 163.313 114.41 165.721 115.012L173.133 117.278C178.035 118.824 182.817 120.473 187.821 122.136C197.608 125.449 207.018 129.294 216.668 132.932L245.396 143.832L274.106 154.953L274.208 155.071C273.747 155.264 273.628 155.368 273.628 155.368Z" fill="#3A8A9D"/>
<path d="M278.414 162.816L251.463 153.481L224.512 144.146C215.495 140.995 206.46 138.066 197.579 134.59C193.138 132.852 188.697 131.113 184.376 129.271L177.783 126.501C175.631 125.469 173.36 124.541 171.208 123.509C171.105 123.391 171.105 123.391 171.225 123.287L171.344 123.184C173.752 123.786 175.939 124.375 178.227 125.081L185.093 127.2C189.67 128.613 194.128 130.129 198.585 131.646C207.603 134.797 216.365 138.377 225.246 141.853L251.787 152.165L278.312 162.698L278.414 162.816C278.534 162.712 278.414 162.816 278.414 162.816Z" fill="#3A8A9D"/>
<path d="M278.773 168.3L256.587 160.836L234.521 153.269C227.125 150.781 219.713 148.514 212.471 145.479C205.213 142.666 197.971 139.63 190.985 136.166C190.883 136.048 190.883 136.048 191.002 135.944L191.122 135.84C198.79 137.677 206.083 140.047 213.478 142.535C220.873 145.023 228.115 148.058 235.374 150.872L257.15 159.312L278.807 167.856L278.909 167.975C278.892 168.196 278.773 168.3 278.773 168.3Z" fill="#3A8A9D"/>
<path d="M274.794 172.164L254.231 165.363L233.787 158.459C226.939 156.118 220.073 153.999 213.361 151.332C206.648 148.666 200.056 145.896 193.497 142.682C193.395 142.564 193.395 142.564 193.514 142.46L193.634 142.356C200.755 144.046 207.621 146.165 214.367 148.388C221.114 150.611 227.809 153.499 234.64 156.062L254.794 163.84L274.828 171.721L274.931 171.839C275.016 172.179 274.794 172.164 274.794 172.164Z" fill="#3A8A9D"/>
<path d="M270.338 176.445L240.672 166.153L211.022 155.639C201.133 152.209 191.244 148.778 181.492 145.022C176.625 143.033 171.74 141.266 166.992 139.173L159.75 136.138C157.376 135.091 155.002 134.045 152.525 132.881C152.423 132.762 152.423 132.762 152.542 132.659L152.662 132.555C155.173 133.276 157.683 133.997 160.194 134.717L167.708 137.102C172.713 138.765 177.717 140.429 182.601 142.196C192.49 145.626 202.225 149.604 211.978 153.361L241.337 164.747L270.577 176.237L270.68 176.356C270.44 176.563 270.44 176.563 270.338 176.445Z" fill="#3A8A9D"/>
<path d="M270.87 182.61L244.346 173.526L217.942 164.338C209.146 161.202 200.214 158.391 191.554 154.929C187.216 153.309 182.895 151.467 178.574 149.625L172.203 146.869C170.051 145.837 168.002 144.923 165.85 143.891C165.747 143.773 165.747 143.773 165.867 143.67L165.986 143.566C168.172 144.154 170.461 144.861 172.766 145.345L179.41 147.45C183.885 148.744 188.342 150.261 192.681 151.881C201.596 154.914 210.136 158.479 218.914 161.838L245.029 171.898L271.126 182.181L271.228 182.299C270.972 182.728 270.972 182.728 270.87 182.61Z" fill="#3A8A9D"/>
<path d="M261.926 201.758L234.617 192.734L207.427 183.607C198.29 180.56 189.255 177.63 180.254 174.258C175.813 172.519 171.373 170.781 166.932 169.043L160.339 166.273C158.187 165.241 155.916 164.313 153.764 163.281C153.661 163.163 153.661 163.163 153.781 163.059L153.9 162.955C156.308 163.558 158.494 164.146 160.783 164.852L167.649 166.972C172.226 168.384 176.803 169.797 181.261 171.313C190.398 174.361 199.279 177.837 208.161 181.314L235.06 191.314L261.943 201.536L262.046 201.654C262.148 201.773 262.029 201.876 261.926 201.758Z" fill="#3A8A9D"/>
<path d="M266.517 187.009L243.357 179.147L220.318 171.182C212.598 168.561 204.759 166.045 197.295 162.995C189.712 160.049 182.146 156.881 174.835 153.284C174.733 153.166 174.733 153.166 174.852 153.062L174.972 152.958C182.965 154.928 190.582 157.43 198.302 160.051C206.021 162.671 213.588 165.839 221.171 168.785L243.921 177.624L266.653 186.684L266.756 186.802C266.636 186.906 266.517 187.009 266.517 187.009Z" fill="#3A8A9D"/>
<path d="M258.583 209.01L233.135 200.442L207.807 191.77C199.438 188.885 190.83 186.206 182.496 182.877C178.379 181.271 174.161 179.547 170.164 177.838L164.016 175.097C161.966 174.183 159.916 173.269 157.986 172.252C157.884 172.134 157.884 172.134 158.003 172.03L158.123 171.926C160.309 172.515 162.495 173.103 164.681 173.691L171.12 175.559C175.373 176.84 179.608 178.341 183.861 179.622C192.23 182.507 200.564 185.837 208.899 189.166L233.818 198.815L258.719 208.685L258.822 208.803C258.805 209.025 258.685 209.128 258.583 209.01Z" fill="#3A8A9D"/>
<path d="M255.782 214.957L238.464 209.482L221.146 204.007C215.373 202.182 209.583 200.579 203.845 198.31C198.209 196.159 192.59 193.787 187.226 190.986C187.124 190.867 187.124 190.867 187.243 190.764L187.363 190.66C193.409 191.834 199.198 193.437 204.971 195.262C210.744 197.087 216.363 199.459 221.999 201.61L238.908 208.061L255.919 214.631L256.021 214.749C255.902 214.853 255.782 214.957 255.782 214.957Z" fill="#3A8A9D"/>
<path d="M253.786 222.072L237.851 217.467L221.934 212.641C216.707 210.963 211.345 209.61 206.135 207.711C200.926 205.811 195.854 203.586 190.918 201.035C190.815 200.917 190.815 200.917 190.935 200.813L191.054 200.709C196.553 201.736 201.916 203.089 207.262 204.663C212.607 206.237 217.68 208.462 222.787 210.244L238.414 215.943L253.922 221.746L254.025 221.864C253.905 221.968 253.786 222.072 253.786 222.072Z" fill="#3A8A9D"/>
<path d="M251.432 229.5L236.164 224.939L221.015 220.274C215.891 218.714 210.75 217.376 205.883 215.387C200.896 213.502 196.148 211.409 191.331 208.755C191.229 208.637 191.229 208.637 191.348 208.533L191.468 208.429C196.864 209.338 201.885 210.78 207.009 212.339C212.133 213.899 217 215.888 221.988 217.774L236.949 223.429L251.791 229.189L251.893 229.307C251.654 229.515 251.535 229.618 251.432 229.5Z" fill="#3A8A9D"/>
<path d="M246.669 236.322L228.907 230.818L211.162 225.093C205.286 223.15 199.275 221.532 193.536 219.263C187.797 216.995 181.956 214.608 176.371 211.792C176.269 211.674 176.268 211.674 176.388 211.57L176.508 211.466C182.656 212.759 188.667 214.376 194.543 216.319C200.537 218.159 206.157 220.531 212.015 222.696L229.47 229.295L246.805 235.997L246.908 236.115C246.788 236.219 246.788 236.219 246.669 236.322Z" fill="#3A8A9D"/>
<path d="M244.025 244.623L228.654 239.944L213.402 235.161C208.279 233.601 203.138 232.263 198.168 230.156C193.181 228.271 188.211 226.164 183.497 223.627C183.394 223.509 183.394 223.509 183.514 223.405L183.633 223.302C189.03 224.211 194.051 225.652 199.175 227.212C204.298 228.772 209.268 230.879 214.256 232.764L229.217 238.42L244.161 244.298L244.264 244.416C244.144 244.52 244.144 244.52 244.025 244.623Z" fill="#3A8A9D"/>
<path d="M239.826 252.821L225.548 248.436L211.39 243.947C206.71 242.416 201.894 241.211 197.249 239.236C192.705 237.38 188.06 235.405 183.79 232.898C183.687 232.78 183.687 232.78 183.807 232.676L183.926 232.572C188.879 233.452 193.576 234.761 198.375 236.188C203.174 237.615 207.7 239.694 212.243 241.55L225.992 247.015L239.843 252.599L239.946 252.717C240.048 252.835 239.929 252.939 239.826 252.821Z" fill="#3A8A9D"/>
<path d="M239.231 262.034L223.757 257.236L208.284 252.439C203.058 250.761 197.917 249.423 192.827 247.419C187.737 245.416 182.767 243.309 178.053 240.772C177.951 240.654 177.951 240.654 178.07 240.551L178.19 240.447C183.587 241.356 188.83 242.812 193.953 244.372C199.077 245.931 204.047 248.038 209.137 250.042L224.201 255.816L239.248 261.812L239.35 261.93C239.333 262.152 239.231 262.034 239.231 262.034Z" fill="#3A8A9D"/>
<path d="M232.769 0.109009L254.408 5.97601L276.03 12.066C283.237 14.096 290.462 15.904 297.652 18.156C304.722 20.511 311.896 22.984 318.693 25.991C318.796 26.109 318.796 26.109 318.796 26.109L318.676 26.213C311.196 24.834 303.972 23.026 296.765 20.996C289.557 18.966 282.487 16.611 275.416 14.255L254.084 7.29301L232.872 0.22702L232.769 0.109009C232.65 0.212009 232.769 0.109009 232.769 0.109009Z" fill="#17293B"/>
<path d="M247.81 36.758C257.443 39.169 267.075 41.58 276.707 43.99L291.156 47.606C295.972 48.812 300.788 50.017 305.604 51.222L303.641 52.098C304.682 50.159 305.723 48.221 306.645 46.386C307.686 44.447 308.727 42.508 309.871 40.688C310.912 38.749 312.056 36.929 313.097 34.99C314.24 33.17 315.384 31.349 316.647 29.425C316.767 29.321 316.767 29.321 316.869 29.439L316.972 29.557C316.255 31.629 315.436 33.582 314.6 35.757C313.781 37.71 312.944 39.885 312.125 41.838C311.306 43.791 310.367 45.848 309.548 47.801C308.61 49.858 307.688 51.693 306.749 53.749C306.357 54.504 305.554 54.786 304.786 54.625C300.089 53.316 295.307 51.667 290.61 50.358L276.435 46.09C266.836 43.236 257.477 40.174 248.101 37.334L247.998 37.216C247.588 36.744 247.81 36.758 247.81 36.758Z" fill="#17293B"/>
<path d="M219.197 9.81499L242.39 15.784L265.566 21.975C273.217 24.033 281.108 25.885 288.623 28.269C296.24 30.771 303.755 33.156 311.218 36.205L311.321 36.324L311.201 36.427C303.277 35.02 295.609 33.183 287.735 31.109C279.965 29.154 272.467 26.548 264.833 24.268L241.947 17.204L219.078 9.91798L218.976 9.79999C219.078 9.91799 219.197 9.81499 219.197 9.81499Z" fill="#17293B"/>
<path d="M285.161 44.318C286.082 42.483 286.987 40.87 287.909 39.035C288.933 37.319 289.735 35.587 290.759 33.871C291.783 32.154 292.483 30.304 293.712 28.824C294.941 27.343 296.392 25.877 298.151 24.766C298.271 24.662 298.373 24.78 298.373 24.78L298.476 24.898C298.083 27.102 297.281 28.833 296.257 30.55C295.335 32.385 293.901 33.629 292.655 35.332C291.426 36.812 290.299 38.411 288.951 39.995C287.722 41.475 286.373 43.06 285.144 44.54C285.024 44.644 285.024 44.644 284.922 44.526C285.161 44.318 285.161 44.318 285.161 44.318Z" fill="#17293B"/>
<path d="M262.462 39.162C263.709 37.459 265.074 35.653 266.218 33.833L270.076 28.622C271.442 26.816 272.585 24.995 274.156 23.426C275.727 21.856 277.502 20.522 279.483 19.425C279.603 19.322 279.705 19.44 279.705 19.44C279.705 19.44 279.808 19.558 279.688 19.662C278.852 21.836 277.708 23.657 276.445 25.581C275.199 27.284 273.526 28.735 271.955 30.305L267.363 34.911C265.792 36.48 264.119 37.932 262.667 39.398C262.667 39.398 262.548 39.502 262.462 39.162C262.343 39.265 262.445 39.383 262.462 39.162Z" fill="#17293B"/>
<path d="M246.287 28.969C247.636 27.385 249.207 25.815 250.555 24.231L254.926 19.611C256.377 18.145 257.743 16.339 259.399 15.109C261.055 13.879 262.933 12.664 264.999 11.907C265.119 11.803 265.221 11.921 265.221 11.921C265.221 11.921 265.221 11.921 265.204 12.143C264.266 14.2 262.917 15.784 261.449 17.472C260.1 19.056 258.222 20.271 256.566 21.501L251.58 25.412C249.924 26.642 248.149 27.976 246.492 29.205C246.492 29.205 246.27 29.191 246.287 28.969C246.287 28.969 246.168 29.073 246.287 28.969Z" fill="#17293B"/>
<path d="M226.151 22.418C227.722 20.848 229.395 19.396 231.188 17.841L236.327 13.382C238 11.931 239.468 10.243 241.568 9.042C243.446 7.827 245.427 6.72898 247.818 6.10498C247.937 6.00098 248.04 6.11899 248.04 6.11899C248.04 6.11899 248.04 6.11899 248.023 6.34099C246.862 8.38399 245.172 10.057 243.499 11.509C241.928 13.078 239.845 14.057 237.967 15.273L232.332 18.919C230.454 20.134 228.576 21.349 226.595 22.446C226.237 22.758 226.237 22.758 226.151 22.418C226.032 22.521 226.134 22.639 226.151 22.418Z" fill="#17293B"/>
<path d="M203.521 17.822C205.655 16.178 207.892 14.651 209.907 13.11L216.395 8.517C218.631 6.99 220.663 5.228 222.985 4.041C225.307 2.855 227.852 1.683 230.464 1.073C230.584 0.968997 230.686 1.08699 230.567 1.19099C230.567 1.19099 230.669 1.30899 230.55 1.41299C228.826 3.52999 226.691 5.174 224.557 6.819C222.423 8.463 219.998 9.53201 217.557 10.822L210.573 14.603C208.251 15.789 205.809 17.08 203.487 18.266C203.367 18.37 203.265 18.251 203.265 18.251C203.504 18.044 203.521 17.822 203.521 17.822Z" fill="#17293B"/>
<path d="M164.565 6.479L252.623 30.716C253.169 30.863 253.46 31.44 253.306 31.987C253.289 32.209 253.17 32.313 253.05 32.416L206.987 74.45C206.509 74.865 205.946 74.94 205.502 74.911C198.841 73.028 192.078 71.027 185.314 69.026C178.551 67.025 171.908 64.921 165.144 62.92C158.381 60.919 151.737 58.814 145.094 56.709C138.45 54.605 131.704 52.382 125.18 50.174L125.077 50.056L125.197 49.952C132.096 51.627 138.774 53.288 145.554 55.067C152.335 56.847 159.115 58.626 165.775 60.508C172.436 62.391 179.216 64.17 185.98 66.171C192.64 68.054 199.404 70.055 206.167 72.056L204.579 72.398L251.479 31.088L251.906 32.788L164.428 6.804L164.326 6.68601C164.462 6.36101 164.462 6.361 164.565 6.479Z" fill="#17293B"/>
<path d="M228.498 47.093L208.567 42.228L188.756 37.26C182.078 35.599 175.383 34.16 168.962 32.07C162.42 30.083 155.896 27.875 149.628 25.237C149.526 25.119 149.526 25.119 149.526 25.119L149.645 25.016C156.374 26.011 163.171 27.568 169.746 29.111C176.424 30.772 182.846 32.862 189.387 34.849L209.011 40.808L228.515 46.871L228.617 46.989C228.72 47.108 228.6 47.211 228.498 47.093Z" fill="#17293B"/>
<path d="M175.647 61.264L187.838 52.137L200.131 43.128C204.263 40.165 208.19 36.965 212.527 34.238C216.864 31.51 221.184 29.005 225.811 26.854C225.931 26.75 226.033 26.869 226.033 26.869L226.016 27.09C222.397 30.645 218.248 33.83 214.338 36.808C210.309 39.89 205.886 42.277 201.652 45.122L188.863 53.319L175.972 61.397C175.852 61.5 175.75 61.382 175.75 61.382C175.528 61.368 175.647 61.264 175.647 61.264Z" fill="#17293B"/>
<path d="M142.498 52.751L155.389 44.673L168.263 36.817C172.48 34.193 176.715 31.348 181.24 29.079C185.765 26.81 190.289 24.54 195.105 22.848C195.224 22.744 195.327 22.862 195.327 22.862L195.31 23.084C191.383 26.284 187.148 29.129 182.812 31.856C178.475 34.584 173.967 36.631 169.544 39.018L156.175 46.062L142.703 52.987C142.583 53.091 142.481 52.973 142.481 52.973C142.378 52.855 142.498 52.751 142.498 52.751Z" fill="#17293B"/>
<path d="M175.889 13.014L163.373 20.56L150.755 27.987C146.555 30.388 142.44 33.13 138.035 35.296C133.629 37.461 129.241 39.405 124.545 40.994C124.426 41.098 124.323 40.979 124.323 40.979L124.34 40.758C128.147 37.661 132.365 35.038 136.463 32.518C140.561 29.998 145.171 28.069 149.474 25.785L162.587 19.171L175.684 12.778C175.803 12.674 175.906 12.792 175.906 12.792C176.008 12.911 176.008 12.911 175.889 13.014Z" fill="#17293B"/>
<path d="M256.901 65.105L362.263 103.735C362.588 103.867 362.895 104.222 362.861 104.665L355.158 161.459C355.107 162.124 354.407 162.525 353.861 162.377L353.639 162.363L284.536 138.245C273.025 134.151 261.514 130.058 250.122 125.86L215.622 113.136C214.973 112.871 214.682 112.294 214.853 111.525C214.972 111.421 214.989 111.2 215.109 111.096L233.922 89.804L243.431 79.277L252.94 68.749C253.06 68.645 253.06 68.645 253.162 68.763C253.265 68.881 253.265 68.882 253.145 68.985L244.166 79.882L235.186 90.778L217.005 112.557L216.492 110.517L251.043 122.576C262.554 126.67 274.066 130.763 285.577 134.857L354.27 159.952L352.75 160.856L361.119 104.106L361.717 105.037L256.901 65.105L256.799 64.987C256.782 65.209 256.901 65.105 256.901 65.105Z" fill="#17293B"/>
<path d="M242.341 86.228L270.931 96.004L299.505 106.002C309.069 109.3 318.531 112.48 327.958 116.103C332.724 117.974 337.267 119.83 341.912 121.805L348.83 124.708C351.204 125.754 353.475 126.682 355.73 127.832C355.832 127.95 355.832 127.95 355.713 128.054L355.593 128.158C353.185 127.555 350.794 126.73 348.283 126.01L341.093 123.758C336.294 122.331 331.512 120.682 326.73 119.033C317.165 115.735 307.857 112.007 298.549 108.28L270.488 97.424L242.324 86.45L242.221 86.332C242.119 86.213 242.238 86.11 242.341 86.228Z" fill="#17293B"/>
<path d="M327.815 149.981L330.698 137.127L333.683 124.391C334.672 120.22 335.456 115.812 336.787 111.551C338.118 107.291 339.654 103.266 341.531 99.153C341.651 99.049 341.651 99.049 341.753 99.167L341.856 99.286C341.515 103.722 340.731 108.13 339.742 112.301C338.855 116.591 337.319 120.615 335.988 124.876L332.235 137.45L328.259 150.01L328.14 150.114C327.798 150.203 327.696 150.085 327.815 149.981Z" fill="#17293B"/>
<path d="M300.146 139.818L304.053 128.145L308.063 116.591C309.479 112.67 310.554 108.839 312.295 105.051C314.036 101.263 315.76 97.696 318.149 94.174C318.269 94.07 318.269 94.07 318.371 94.188L318.474 94.306C317.826 98.388 316.632 102.323 315.215 106.244C313.919 110.061 312.075 113.731 310.335 117.519L305.454 128.794L300.351 140.054C300.231 140.158 300.231 140.158 300.231 140.158C300.146 139.818 300.146 139.818 300.146 139.818Z" fill="#17293B"/>
<path d="M272.888 128.681C274.219 125.869 275.67 122.954 276.898 120.024L281.012 111.486C282.343 108.675 283.572 105.745 285.347 102.963C287.003 100.284 288.88 97.619 291.066 95.309C291.185 95.205 291.185 95.205 291.288 95.324L291.39 95.442C290.588 98.622 289.36 101.552 288.029 104.363C286.697 107.175 284.819 109.839 283.164 112.518L278.197 120.555C276.541 123.234 274.885 125.913 273.007 128.577C272.888 128.681 272.888 128.681 272.785 128.563C272.871 128.903 272.871 128.903 272.888 128.681Z" fill="#17293B"/>
<path d="M244.878 118.609L252.32 107.389L259.865 96.287C262.375 92.661 264.679 88.798 267.513 85.304C270.347 81.81 273.283 78.434 276.647 75.309C276.766 75.206 276.766 75.206 276.869 75.324C276.869 75.324 276.971 75.442 276.852 75.546C274.974 79.659 272.448 83.508 270.041 87.252C267.634 90.997 264.698 94.373 261.864 97.867L253.584 108.363L245.083 118.845C244.963 118.948 244.963 118.948 244.861 118.83C244.758 118.712 244.878 118.609 244.878 118.609Z" fill="#17293B"/>
<path d="M305.681 82.215L317.525 55.788C317.661 55.462 318.003 55.373 318.328 55.506L393.596 83.592C394.142 83.739 394.433 84.316 394.621 84.774C395.305 90.392 395.99 96.01 396.572 101.51L397.377 109.922L398.182 118.335C398.234 119.119 397.739 119.755 396.953 119.815C396.731 119.801 396.509 119.787 396.287 119.772C390.651 117.622 385.015 115.471 379.498 113.217C376.68 112.142 373.982 110.963 371.164 109.887C368.465 108.709 365.647 107.633 362.846 106.336C362.743 106.218 362.743 106.218 362.743 106.218L362.863 106.114C365.698 106.968 368.636 107.939 371.471 108.793C374.306 109.646 377.243 110.618 379.959 111.575C385.732 113.4 391.385 115.328 397.038 117.257L395.143 118.694L394.116 110.267L393.191 101.958C392.506 96.34 392.044 90.737 391.462 85.237L392.367 86.522L317.798 56.586L318.601 56.304L306.108 82.466C305.988 82.57 305.988 82.57 305.886 82.451C305.664 82.437 305.561 82.319 305.681 82.215Z" fill="#17293B"/>
<path d="M378.78 110.941C378.523 108.472 378.266 106.003 378.112 103.652L377.563 96.259C377.409 93.908 376.93 91.425 377.236 88.881C377.424 86.441 377.73 83.897 378.583 81.5C378.703 81.397 378.703 81.397 378.703 81.397L378.805 81.515C379.626 83.909 380.105 86.392 380.362 88.861C380.618 91.331 380.209 93.756 380.022 96.196L379.683 103.531C379.496 105.971 379.308 108.411 379.121 110.852L379.002 110.955C378.882 111.059 378.882 111.059 378.78 110.941Z" fill="#17293B"/>
<path d="M361.256 102.332C361.084 100.202 361.135 98.088 361.066 96.077L361.099 89.837C361.149 87.722 360.858 85.697 361.25 83.493C361.626 81.511 362.12 79.425 363.178 77.265C363.298 77.161 363.298 77.161 363.4 77.279L363.503 77.397C364.118 79.555 364.409 81.581 364.461 83.814C364.53 85.824 363.916 88.014 363.643 90.114L362.723 96.296C362.348 98.278 361.955 100.482 361.58 102.464L361.461 102.568C361.358 102.45 361.256 102.332 361.256 102.332Z" fill="#17293B"/>
<path d="M343.443 94.596C343.442 93.147 343.544 91.816 343.766 90.381C343.868 89.05 344.09 87.616 344.192 86.285C344.294 84.954 344.293 83.504 344.737 82.084C345.283 80.782 345.829 79.48 346.922 78.325C347.041 78.221 347.041 78.221 347.144 78.34C347.144 78.34 347.144 78.34 347.246 78.458C347.793 80.054 347.913 81.399 347.692 82.834C347.692 84.283 346.924 85.571 346.497 86.769C346.054 88.189 345.627 89.388 345.184 90.808C344.638 92.11 344.313 93.426 343.767 94.729C343.648 94.832 343.648 94.832 343.648 94.832C343.426 94.818 343.323 94.7 343.443 94.596Z" fill="#17293B"/>
<path d="M324.588 88.798C324.963 86.816 325.338 84.834 325.816 82.97L327.044 77.142C327.521 75.279 327.675 73.282 328.494 71.329C329.193 69.48 330.218 67.763 331.686 66.075C331.805 65.971 331.805 65.971 331.908 66.089L332.01 66.207C332.182 68.337 332.028 70.333 331.653 72.315C331.278 74.297 330.254 76.014 329.554 77.863L327.353 83.293C326.653 85.143 325.732 86.978 325.032 88.827C324.912 88.931 324.912 88.931 324.912 88.931C324.588 88.798 324.588 88.798 324.588 88.798Z" fill="#17293B"/>
<path d="M314.882 68.435L333.567 75.002L352.234 81.791C358.417 84.089 364.736 86.061 370.782 88.684C376.828 91.307 382.875 93.93 388.648 97.204C388.75 97.322 388.75 97.322 388.631 97.426L388.511 97.53C382.055 95.883 375.736 93.911 369.554 91.614C363.251 89.42 357.325 86.693 351.279 84.07L333.004 76.526L314.746 68.761L314.643 68.643C314.66 68.421 314.66 68.421 314.882 68.435Z" fill="#17293B"/>
<path d="M350.436 67.404L354.153 49.477C354.17 49.255 354.409 49.048 354.853 49.077L413.316 72.279C413.863 72.426 414.051 72.884 414.239 73.343C415.162 77.304 415.863 81.251 416.564 85.198C417.266 89.145 417.967 93.092 418.549 97.143C418.72 97.823 418.105 98.563 417.422 98.742C417.2 98.727 416.859 98.817 416.654 98.58C412.982 97.004 409.412 95.545 405.859 93.865C402.187 92.288 398.635 90.607 395.082 88.927C394.98 88.809 394.98 88.809 395.099 88.705L395.219 88.601C398.925 89.735 402.853 90.882 406.542 92.237C410.351 93.488 413.937 94.725 417.746 95.976L415.953 97.531C415.03 93.57 414.209 89.727 413.405 85.661C412.482 81.7 411.781 77.753 411.079 73.806L412.002 74.869L354.461 49.832L355.161 49.431L350.675 67.197L350.555 67.301C350.419 67.626 350.419 67.626 350.436 67.404Z" fill="#17293B"/>
<path d="M377.484 56.571L377.174 46.073C377.088 45.733 377.447 45.422 377.669 45.436L377.891 45.451C385.149 48.264 392.169 51.285 399.428 54.099C403.117 55.454 406.567 57.016 410 58.8C413.433 60.584 416.747 62.472 420.146 64.7C420.248 64.818 420.248 64.818 420.129 64.922L420.009 65.025C416.184 63.996 412.478 62.863 408.788 61.508C405.099 60.153 401.649 58.591 398.216 56.807C391.23 53.342 384.228 50.099 377.362 46.531L378.301 45.923L377.604 56.468L377.484 56.571C377.586 56.689 377.586 56.689 377.484 56.571Z" fill="#17293B"/>
<path d="M394.081 51.075C393.807 48.828 393.551 46.359 393.396 44.008C393.43 43.564 393.686 43.135 394.25 43.06C394.369 42.957 394.472 43.075 394.472 43.075L394.694 43.089C395.889 43.502 397.085 43.914 398.4 44.222C399.595 44.635 400.808 44.825 402.004 45.237C403.199 45.65 404.275 46.165 405.334 46.903C406.393 47.641 407.452 48.379 408.375 49.442C408.477 49.56 408.477 49.56 408.358 49.664L408.238 49.768C406.889 49.903 405.574 49.594 404.361 49.404C403.149 49.213 401.953 48.801 400.655 48.271C399.579 47.755 398.401 47.121 397.222 46.486C396.146 45.971 394.968 45.336 393.892 44.821L395.189 43.902C394.9 46.224 394.712 48.664 394.423 50.986L394.303 51.09C394.064 51.297 393.962 51.179 394.081 51.075Z" fill="#17293B"/>
<path d="M425.697 69.408C426.739 71.817 427.782 74.225 428.824 76.634L431.832 83.964C432.122 84.54 431.832 85.413 431.03 85.695C430.688 85.784 430.347 85.874 430.022 85.741L429.8 85.727C428.707 85.433 427.614 85.138 426.64 84.741C425.667 84.343 424.693 83.945 423.617 83.429C422.644 83.031 421.687 82.412 420.731 81.792C419.774 81.172 418.818 80.553 417.981 79.83C417.878 79.711 417.878 79.711 417.998 79.608L418.117 79.504C419.347 79.473 420.337 79.649 421.55 79.839C422.643 80.133 423.634 80.309 424.727 80.603C425.82 80.897 426.793 81.295 427.767 81.693C428.74 82.091 429.697 82.71 430.67 83.108L428.861 84.885L426.877 77.288C426.296 74.686 425.595 72.188 425.014 69.587C425.014 69.587 425.031 69.365 425.133 69.483C425.594 69.29 425.697 69.408 425.697 69.408Z" fill="#17293B"/>
<path d="M282.93 10.844L292.833 2.459C292.952 2.356 293.174 2.36999 293.174 2.36999L358.093 27.219C358.742 27.484 359.135 28.179 358.964 28.948L356.952 37.734L354.837 46.403C354.666 47.172 353.727 47.779 352.958 47.618L352.736 47.603C347.664 45.378 342.694 43.271 337.621 41.046L330.072 37.656C327.595 36.492 325.119 35.327 322.54 34.044C322.437 33.926 322.437 33.926 322.557 33.823L322.676 33.719C325.289 34.558 327.902 35.397 330.515 36.236L338.338 38.975C343.547 40.874 348.756 42.774 353.846 44.778L351.643 45.86L353.656 37.074L355.771 28.406L356.642 30.134L292.56 3.11L292.901 3.02099L282.691 11.051C282.572 11.155 282.572 11.155 282.469 11.036C282.811 10.947 282.93 10.844 282.93 10.844Z" fill="#17293B"/>
<path d="M328.305 8.33701L354.897 17.983C363.795 21.238 372.574 24.596 381.592 27.747C382.138 27.894 382.429 28.47 382.617 28.928L382.719 29.047C383.01 31.072 383.079 33.083 383.148 35.094C383.217 37.105 383.388 39.234 383.577 41.141C383.628 41.925 382.894 42.769 382.109 42.829C381.887 42.814 381.665 42.8 381.34 42.667C377.548 41.194 373.774 39.499 370.119 37.701C368.291 36.802 366.344 36.006 364.517 35.107C362.689 34.207 360.862 33.308 359.034 32.409C358.932 32.291 358.932 32.291 359.051 32.187L359.171 32.083C361.135 32.657 363.099 33.231 365.063 33.805C367.027 34.378 368.991 34.952 370.938 35.748C374.849 37.117 378.658 38.368 382.449 39.841L380.315 41.486C380.246 39.475 379.955 37.45 379.886 35.439C379.818 33.428 379.646 31.299 379.577 29.288L380.483 30.573C371.841 26.889 363.079 23.309 354.437 19.625L328.288 8.55901L328.185 8.44099C328.305 8.33699 328.305 8.33701 328.305 8.33701Z" fill="#17293B"/>
<path d="M383.096 34.309C384.411 34.618 385.829 35.045 387.246 35.471C388.664 35.898 389.979 36.207 391.397 36.633C392.814 37.06 394.249 37.265 395.53 38.017C396.811 38.769 397.972 39.625 398.878 40.911C398.98 41.029 398.861 41.132 398.861 41.132C398.861 41.132 398.861 41.132 398.741 41.236C397.051 41.46 395.616 41.255 394.198 40.829C392.781 40.402 391.619 39.546 390.441 38.912C389.16 38.16 387.981 37.526 386.7 36.773C385.419 36.021 384.241 35.387 383.079 34.531C382.977 34.413 382.977 34.413 383.096 34.309C382.874 34.295 382.994 34.191 383.096 34.309Z" fill="#17293B"/>
<path d="M351.703 15.991C351.856 13.994 352.231 12.012 352.487 10.134C352.624 9.808 352.863 9.601 353.085 9.616C353.085 9.616 353.085 9.61599 353.187 9.73399L353.29 9.85201C357.645 11.25 361.88 12.752 366.236 14.15C368.422 14.739 370.471 15.652 372.504 16.788C374.536 17.923 376.466 18.941 378.243 20.506C378.345 20.624 378.345 20.624 378.226 20.728L378.106 20.831C375.664 20.672 373.478 20.084 371.292 19.496C369.106 18.908 367.056 17.994 364.904 16.962C360.822 14.913 356.723 13.085 352.641 11.036L353.461 10.532C352.863 12.499 352.386 14.363 351.789 16.331L351.669 16.434C351.806 16.109 351.806 16.109 351.703 15.991Z" fill="#17293B"/>
<path d="M128.998 87.653L110.66 99.836L92.22 111.9C86.108 115.96 80.098 120.139 73.6775 123.846C67.3599 127.67 60.9569 131.154 54.3488 134.403C54.2293 134.506 54.1268 134.388 54.1268 134.388L54.1438 134.166C59.9659 129.529 65.976 125.35 72.0885 121.29C78.2011 117.229 84.621 113.523 90.819 109.802L109.652 98.432L128.588 87.181C128.708 87.077 128.81 87.195 128.81 87.195C129.118 87.55 129.118 87.55 128.998 87.653Z" fill="#17293B"/>
<path d="M134.822 88.814L290.482 145.098C291.131 145.363 291.421 145.939 291.148 146.59L264.901 209.533C260.532 219.95 256.044 230.47 251.555 240.99L237.885 272.314C237.612 272.965 236.809 273.247 236.263 273.1C226.374 269.67 216.502 266.017 206.733 262.483C196.964 258.949 187.092 255.296 177.34 251.54L177.237 251.422L177.357 251.318C187.382 254.423 197.288 257.632 207.296 260.959C217.202 264.168 227.21 267.495 237.116 270.704L235.494 271.49L248.618 240.018C252.986 229.602 257.475 219.082 261.963 208.561L289.081 145.898L289.748 147.391L134.788 89.258L134.685 89.14C134.702 88.918 134.702 88.918 134.822 88.814Z" fill="#17293B"/>
<path d="M264.044 194.54L216.53 178.405L169.033 162.047C153.167 156.555 137.386 151.403 121.656 145.586C105.926 139.768 90.196 133.951 74.7388 127.483L74.6363 127.364L74.7558 127.261C90.793 131.983 106.779 137.372 122.662 142.642C138.426 148.016 154.259 153.951 169.886 159.65L217.093 176.881L264.181 194.215L264.283 194.333C264.266 194.555 264.147 194.659 264.044 194.54Z" fill="#17293B"/>
<path d="M157.472 101.881L140.125 117.138L122.676 132.276C116.82 137.357 111.289 142.57 105.125 147.296C99.064 152.141 93.02 156.763 86.446 161.017C86.327 161.12 86.224 161.002 86.224 161.002C86.224 161.002 86.122 160.884 86.241 160.781C91.585 155.109 97.219 150.014 103.075 144.933C108.931 139.853 114.975 135.23 121.037 130.386L139.1 115.956L157.267 101.645C157.267 101.645 157.489 101.66 157.472 101.881Z" fill="#17293B"/>
<path d="M192.04 113.719L176.163 130.186L160.183 146.535C154.856 151.984 149.632 157.552 144.1 162.765C138.569 167.978 132.713 173.059 126.771 177.8C126.652 177.903 126.549 177.785 126.549 177.785C126.549 177.785 126.447 177.667 126.566 177.563C131.483 171.641 136.604 165.955 141.931 160.506C147.258 155.056 152.892 149.961 158.543 144.644L175.257 128.901L192.074 113.276C192.193 113.172 192.193 113.172 192.296 113.29C192.057 113.497 192.159 113.616 192.04 113.719Z" fill="#17293B"/>
<path d="M223.037 125.545L204.549 151.317L185.959 176.97C179.831 185.6 173.703 194.23 167.267 202.506C164.04 206.754 160.831 210.781 157.502 214.912L152.466 220.937C150.639 222.936 149.034 224.95 147.208 226.949C147.088 227.052 147.088 227.052 146.986 226.934C146.986 226.934 146.883 226.816 147.003 226.712C148.402 224.463 149.802 222.213 151.304 220.082L155.708 213.569C158.61 209.187 161.734 204.821 164.739 200.557C170.867 191.928 177.525 183.667 183.961 175.391L203.285 150.343L222.712 125.413C222.832 125.309 222.832 125.309 222.934 125.427C223.054 125.323 222.934 125.427 223.037 125.545Z" fill="#17293B"/>
<path d="M256.786 137.887L240.621 166.819L224.235 195.737C218.807 205.416 213.602 215.109 207.747 224.537C204.93 229.258 201.892 233.965 198.973 238.568L194.535 245.525C193.015 247.878 191.394 250.113 189.875 252.467C189.755 252.571 189.755 252.57 189.653 252.452C189.653 252.452 189.55 252.334 189.669 252.231C190.864 249.745 192.059 247.259 193.356 244.891L197.265 237.565C199.876 232.608 202.471 227.872 205.185 223.033C210.612 213.354 216.467 203.926 222.203 194.602L239.443 166.185L256.683 137.769C256.803 137.665 256.802 137.665 256.905 137.783L256.786 137.887Z" fill="#17293B"/>
<path d="M289.914 181.624L322.057 191.631L354.08 201.742C364.754 205.112 375.548 208.379 386.205 211.971C396.863 215.563 407.383 219.481 417.904 223.398C418.126 223.413 418.331 223.649 418.314 223.871C418.554 226.562 419.016 229.267 419.256 231.958C419.256 231.958 419.239 232.18 419.136 232.062C419.136 232.062 418.914 232.047 419.034 231.944C418.35 229.224 417.768 226.622 417.187 224.021L417.597 224.493C406.786 221.448 396.095 218.3 385.318 214.811C374.661 211.219 364.123 207.523 353.585 203.828L321.613 193.051L289.897 181.846L289.795 181.727C289.692 181.609 289.812 181.506 289.914 181.624Z" fill="#17293B"/>
<path d="M286.841 188.222L268.208 242.075L249.575 295.927L248.601 294.08L283.22 303.803C294.68 307.113 306.362 310.437 317.804 313.969C329.367 317.397 340.827 320.707 352.27 324.239C363.713 327.771 375.275 331.199 386.701 334.952L386.803 335.071L386.684 335.174C375.087 332.19 363.491 329.205 351.792 326.103C340.196 323.118 328.616 319.912 317.037 316.706C305.457 313.499 293.878 310.293 282.418 306.983L247.714 296.92C246.945 296.759 246.569 295.843 246.74 295.073L266.569 241.633L286.5 188.312L286.619 188.208C286.739 188.104 286.841 188.222 286.841 188.222Z" fill="#17293B"/>
<path d="M275.342 229.051L308.543 238.347L341.727 247.864C352.862 251.042 363.912 253.879 374.792 257.486C380.24 259.178 385.791 260.989 391.222 262.903L399.368 265.774C402.084 266.731 404.8 267.688 407.396 268.749L407.498 268.867L407.379 268.971C404.527 268.34 401.794 267.604 398.942 266.973L390.625 264.871C385.04 263.504 379.472 261.915 373.904 260.326C362.872 257.267 351.89 253.542 340.993 250.158L308.099 239.767L275.325 229.273L275.222 229.155C275.12 229.036 275.239 228.933 275.342 229.051Z" fill="#17293B"/>
<path d="M364.543 135.093C377.25 139.599 390.076 144.002 402.663 148.611L440.784 162.129C441.331 162.276 441.741 162.748 441.707 163.192C443.228 169.533 444.528 175.86 445.828 182.187C446.477 185.351 447.008 188.618 447.658 191.781C448.308 194.945 448.735 198.094 449.266 201.361C449.266 201.361 449.249 201.583 449.146 201.464C449.146 201.464 448.924 201.45 449.044 201.346C448.052 198.272 447.061 195.198 446.189 192.02C445.317 188.842 444.326 185.768 443.556 182.708C441.915 176.47 440.274 170.233 438.752 163.891L439.777 165.073L402.203 150.253C389.632 145.422 377.199 140.265 364.526 135.315L364.423 135.197L364.543 135.093Z" fill="#17293B"/>
<path d="M357.362 158.928L379.343 166.156L401.204 173.487C408.6 175.975 415.909 178.123 423.049 181.04C430.307 183.853 437.446 186.771 444.33 190.117C444.432 190.235 444.432 190.235 444.313 190.339L444.193 190.443C436.627 188.724 429.335 186.354 421.939 183.866C414.647 181.496 407.507 178.579 400.249 175.765L378.678 167.561L357.123 159.135L357.021 159.017C357.243 159.032 357.243 159.032 357.362 158.928Z" fill="#17293B"/>
<path d="M425.075 160.438L427.486 172.634L429.778 184.933C430.582 188.998 431.505 192.96 431.848 197.218C432.31 201.372 432.551 205.512 432.227 209.727L432.108 209.831L432.005 209.713C430.519 205.826 429.612 201.643 428.808 197.577C428.005 193.512 427.764 189.372 427.302 185.218L426.018 172.873L424.853 160.424C424.853 160.424 424.87 160.202 424.973 160.32L425.075 160.438Z" fill="#17293B"/>
<path d="M407.312 153.486L409.04 165.86L410.666 178.116C411.128 182.27 411.932 186.336 412.173 190.476C412.413 194.615 412.431 198.741 411.886 202.941L411.766 203.045L411.664 202.927C410.416 198.833 409.715 194.886 409.15 190.613C408.568 186.562 408.55 182.437 408.31 178.297L407.589 165.877L407.09 153.471C407.09 153.471 407.107 153.25 407.21 153.368C407.21 153.368 407.21 153.368 407.312 153.486Z" fill="#17293B"/>
<path d="M390.079 146.9C390.524 149.827 390.746 152.74 390.969 155.653L391.74 164.509C391.963 167.422 392.408 170.349 392.409 173.247C392.29 176.249 392.069 179.133 391.284 182.091L391.165 182.195L391.062 182.077C390.054 179.225 389.609 176.298 389.386 173.385C389.061 170.354 389.384 167.588 389.401 164.468L389.518 155.67C389.636 152.668 389.635 149.77 389.857 146.886L389.976 146.782C390.096 146.678 390.198 146.797 390.079 146.9Z" fill="#17293B"/>
<path d="M371.975 140.037L371.944 153.523L371.811 166.89C371.693 171.342 372.019 175.822 371.457 180.244C371.116 184.68 370.435 189.206 369.428 193.599L369.309 193.703L369.206 193.585C368.539 189.194 368.333 184.61 368.451 180.159C368.347 175.694 369.029 171.168 369.369 166.731L370.51 153.318L371.753 140.023L371.872 139.919C371.992 139.815 372.094 139.933 371.975 140.037Z" fill="#17293B"/>
<path d="M350.941 162.632L347.687 189.061L347.192 188.249L390.402 202.321C397.592 204.573 404.765 207.046 411.802 209.845C415.269 211.186 418.838 212.644 422.306 213.985C425.773 215.325 429.342 216.784 432.792 218.346C432.895 218.464 432.895 218.464 432.895 218.464L432.775 218.568C429.052 217.656 425.449 216.642 421.845 215.627C418.241 214.612 414.535 213.479 410.932 212.464C403.741 210.212 396.568 207.738 389.395 205.265L346.731 189.891C346.407 189.758 346.202 189.522 346.236 189.078L350.6 162.722L350.719 162.618C350.839 162.514 350.941 162.632 350.941 162.632Z" fill="#17293B"/>
<path d="M424.835 217.384L405.006 211.189L385.194 204.771C378.551 202.666 371.89 200.784 365.502 198.25C358.995 195.82 352.505 193.168 346.373 190.204C346.271 190.086 346.168 189.968 346.288 189.864C346.288 189.864 346.288 189.864 346.407 189.761L347.124 189.139C347.244 189.035 347.346 189.153 347.346 189.153C347.346 189.153 347.449 189.271 347.329 189.375L346.834 190.012L346.646 189.553C353.444 191.111 360.104 192.994 366.748 195.098C373.392 197.203 379.882 199.855 386.287 202.167L405.808 209.457L425.21 216.851L425.313 216.97C425.057 217.399 424.835 217.384 424.835 217.384Z" fill="#17293B"/>
<path d="M346.083 189.627C346.117 187.735 346.15 185.842 346.303 183.845C346.337 181.953 346.593 180.074 346.626 178.182C346.882 176.303 346.694 174.396 347.171 172.532C347.649 170.668 348.229 168.923 349.373 167.102C349.492 166.998 349.492 166.998 349.595 167.117L349.697 167.235C350.33 169.171 350.296 171.064 350.262 172.956C350.229 174.849 349.529 176.699 349.051 178.562C348.574 180.426 348.216 182.186 347.738 184.05C347.26 185.914 346.783 187.778 346.305 189.642L346.186 189.746L346.083 189.627Z" fill="#17293B"/>
<path d="M215.436 112.678L250.004 124.516L284.452 136.457C295.964 140.55 307.509 144.2 318.884 148.619C330.378 152.935 341.634 157.458 352.753 162.306L352.531 162.292L353.367 161.566C353.487 161.462 353.487 161.462 353.589 161.58C353.692 161.698 353.692 161.698 353.572 161.802L352.838 162.646C352.718 162.75 352.719 162.75 352.616 162.632C340.832 159.189 329.286 155.539 317.775 151.445C306.246 147.574 294.991 143.051 283.497 138.735L249.338 125.921L215.197 112.886L215.094 112.768C215.316 112.782 215.316 112.782 215.436 112.678Z" fill="#17293B"/>
<path d="M234.508 48.709C235.072 48.634 235.516 48.663 235.977 48.47C236.54 48.395 236.984 48.424 237.428 48.453C237.872 48.482 238.453 48.185 238.76 48.54C239.068 48.894 239.478 49.367 239.632 50.268C239.734 50.387 239.615 50.49 239.495 50.594C238.778 51.216 238.197 51.513 237.753 51.484C237.19 51.559 236.899 50.982 236.472 50.732C236.045 50.481 235.618 50.23 235.311 49.876C235.003 49.521 234.576 49.27 234.167 48.798C234.371 49.034 234.269 48.916 234.508 48.709C234.389 48.812 234.389 48.812 234.508 48.709Z" fill="#17293B"/>
<path d="M242.329 45.652L231.437 56.758L231.197 55.517L232.29 55.811L231.385 55.975L241.919 45.179C242.397 44.765 243.183 44.704 243.593 45.177C243.798 45.413 243.883 45.753 243.866 45.975L243.835 55.113C243.818 58.233 243.802 61.354 243.684 64.355C243.327 70.463 242.628 76.66 241.605 82.724L241.486 82.828L241.383 82.709C240.63 76.53 240.543 70.393 240.575 64.153C240.592 61.033 240.83 57.927 240.948 54.925L241.544 45.712L243.593 46.626L232.547 56.831C232.308 57.038 232.086 57.024 231.761 56.891L230.788 56.493C230.463 56.361 230.275 55.902 230.412 55.577C230.531 55.473 230.531 55.473 230.651 55.37L242.363 45.208C242.483 45.105 242.483 45.105 242.585 45.223C242.346 45.43 242.449 45.548 242.329 45.652Z" fill="#17293B"/>
<path d="M232.035 57.689C232.447 63.958 232.858 70.227 233.168 76.378L233.682 85.664C233.888 88.798 234.094 91.933 233.856 95.038L231.14 94.081C233.838 90.913 236.621 88.085 239.847 85.285C239.967 85.181 239.967 85.181 240.069 85.299C240.069 85.299 240.172 85.418 240.052 85.521C238.209 89.191 235.939 92.61 233.566 95.911C233.071 96.548 232.166 96.712 231.414 96.329C230.987 96.078 230.799 95.62 230.833 95.176L230.85 94.954C230.645 91.82 230.661 88.7 230.899 85.594L231.169 76.248C231.321 69.904 231.576 63.679 231.83 57.453L231.95 57.349C232.052 57.467 232.155 57.586 232.035 57.689Z" fill="#17293B"/>
<path d="M240.06 53.419C240.589 52.338 240.999 51.362 241.289 50.489L241.392 52.056L240.862 51.687L242.656 51.581C242.519 51.907 242.4 52.01 242.263 52.336C242.126 52.662 242.109 52.883 241.87 53.091C241.392 53.505 240.931 53.698 240.248 53.877L239.804 52.399C239.787 52.621 239.872 52.961 240.06 53.419ZM240.265 53.655C240.129 53.981 239.668 54.173 239.224 54.144C239.002 54.13 238.78 54.116 238.694 53.776L238.779 52.666C238.83 52.001 239.103 51.35 239.359 50.921C239.598 50.713 239.837 50.506 240.076 50.299C240.315 50.091 240.657 50.002 240.896 49.795L241.255 49.484C241.613 49.173 242.279 49.216 242.587 49.57L242.997 50.043L243.304 50.397C243.612 50.752 243.458 51.299 243.1 51.61C242.126 52.662 240.965 53.255 240.265 53.655Z" fill="#17293B"/>
<path d="M241.29 54.836C240.966 57.601 240.42 60.353 239.994 63L238.596 71.046C238.05 73.798 237.846 76.46 237.078 79.196C236.208 81.815 235.338 84.433 233.921 86.905C233.802 87.009 233.802 87.009 233.699 86.891L233.597 86.772C233.374 83.86 233.698 81.094 234.124 78.447C234.447 75.681 235.54 73.077 236.29 70.562L238.576 62.573C239.447 59.955 240.214 57.218 241.085 54.6L241.204 54.496C241.187 54.718 241.187 54.718 241.29 54.836Z" fill="#17293B"/>
<path d="M238.029 56.631C238.03 58.08 237.928 59.411 237.826 60.742C237.724 62.073 237.622 63.404 237.4 64.839C237.298 66.17 237.298 67.619 236.872 68.817C236.326 70.119 235.779 71.421 234.687 72.576C234.567 72.68 234.567 72.68 234.465 72.562C234.465 72.562 234.465 72.562 234.362 72.444C233.696 70.951 233.695 69.502 233.798 68.171C233.9 66.84 234.446 65.538 234.992 64.236C235.316 62.92 235.862 61.618 236.289 60.419C236.835 59.117 237.159 57.801 237.705 56.499C237.824 56.395 237.824 56.395 237.824 56.395C238.046 56.409 238.149 56.528 238.029 56.631Z" fill="#17293B"/>
<path d="M236.001 71.434C236.223 71.449 236.547 71.582 236.65 71.7C236.752 71.818 236.855 71.936 236.735 72.04L236.718 72.262C236.565 72.809 236.411 73.356 236.258 73.904C236.104 74.451 235.848 74.88 235.695 75.427C235.541 75.975 235.387 76.522 234.926 76.715C234.346 77.012 233.885 77.205 232.997 77.147C232.775 77.132 232.775 77.132 232.792 76.91C232.416 75.994 232.569 75.447 232.501 74.885C232.654 74.338 233.013 74.027 233.594 73.73C233.952 73.419 234.43 73.004 234.789 72.693C235.147 72.382 235.728 72.086 236.086 71.774L236.155 72.336C235.95 72.1 235.967 71.878 235.762 71.642C235.659 71.524 235.779 71.42 236.001 71.434C236.001 71.434 235.898 71.316 236.001 71.434Z" fill="#17293B"/>
<path d="M231.359 79.605C229.754 83.068 227.928 86.516 226.324 89.978L221.067 100.337C219.241 103.785 217.739 107.366 215.707 110.578C213.676 113.789 211.423 116.987 208.742 119.933C208.623 120.037 208.623 120.037 208.52 119.919L208.418 119.801C209.595 116.088 211.097 112.507 212.923 109.059C214.528 105.596 216.781 102.399 218.812 99.187L224.923 89.33C226.954 86.118 229.105 82.803 231.137 79.591C231.256 79.487 231.256 79.487 231.359 79.605C231.478 79.502 231.478 79.502 231.359 79.605Z" fill="#17293B"/>
<path d="M229.054 86.365C227.723 89.177 226.392 91.988 225.061 94.8L220.965 103.116C219.531 105.81 218.405 108.857 216.646 111.418C214.888 113.979 213.13 116.54 210.842 118.732C210.723 118.835 210.723 118.835 210.62 118.717L210.518 118.599C211.319 115.419 212.531 112.711 213.862 109.899C215.194 107.088 217.054 104.645 218.71 101.966L223.66 94.151C225.418 91.591 227.074 88.912 228.832 86.351C228.952 86.247 228.952 86.247 229.054 86.365Z" fill="#17293B"/>
<path d="M219.443 104.019C219.955 103.16 220.468 102.302 220.98 101.444C221.492 100.585 222.004 99.727 222.618 98.987C223.13 98.128 223.54 97.152 224.36 96.648C225.077 96.026 226.118 95.536 227.245 95.386C227.365 95.283 227.467 95.401 227.45 95.623C227.468 96.85 227.058 97.827 226.546 98.685C226.034 99.543 225.214 100.047 224.497 100.67C223.78 101.292 223.063 101.914 222.227 102.64C221.51 103.262 220.69 103.766 219.853 104.491C219.529 104.359 219.426 104.241 219.443 104.019C219.324 104.123 219.426 104.241 219.443 104.019Z" fill="#17293B"/>
<path d="M222.283 112.121C220.438 111.443 218.713 110.662 216.988 109.881C216.561 109.63 216.271 109.054 216.527 108.625L216.663 108.299L217.312 107.115C217.568 106.686 217.602 106.243 217.858 105.813C218.251 105.059 218.865 104.318 219.804 103.711L220.402 103.192C220.641 102.985 220.863 102.999 221.068 103.236C221.597 103.605 222.11 104.195 222.622 104.786C222.725 104.904 222.605 105.008 222.605 105.008C221.803 105.29 221.239 105.365 220.454 105.425L221.717 104.95C221.427 105.823 221.018 106.799 220.523 107.436C220.164 107.747 219.805 108.058 219.549 108.487L218.576 109.539L218.251 107.957C219.72 109.167 221.172 110.599 222.522 111.913C222.522 111.913 222.505 112.135 222.283 112.121C222.385 112.239 222.385 112.239 222.283 112.121Z" fill="#17293B"/>
<path d="M210.914 71.25C212.161 73.895 213.408 76.54 214.553 79.067L218.073 86.987C219.321 89.632 220.688 92.174 221.594 94.908C222.499 97.642 223.064 100.466 223.389 103.497C223.389 103.497 223.372 103.718 223.27 103.6L223.167 103.482C221.339 101.134 219.972 98.592 218.725 95.947C217.477 93.302 216.794 90.583 215.888 87.848L213.17 79.646C212.264 76.911 211.478 74.074 210.572 71.339C210.47 71.221 210.589 71.117 210.691 71.236L210.914 71.25Z" fill="#17293B"/>
<path d="M246.085 38.875C246.905 41.269 247.606 43.767 248.529 46.279L250.751 53.67C251.452 56.167 252.494 58.576 252.854 61.163C253.213 63.751 253.573 66.338 253.249 69.103L253.129 69.207L253.027 69.089C251.643 66.769 250.6 64.361 249.78 61.966C248.96 59.572 248.72 56.881 248.241 54.398L246.821 46.725C246.462 44.138 245.983 41.655 245.624 39.068C245.624 39.068 245.641 38.846 245.743 38.964C245.982 38.757 246.204 38.771 246.085 38.875Z" fill="#17293B"/>
<path d="M280.111 184.329L281.648 184.652C281.751 184.77 281.751 184.77 281.853 184.888C279.993 190.229 278.253 195.466 276.393 200.807L270.83 216.608C270.557 217.259 269.857 217.659 269.208 217.394L269.106 217.276L269.003 217.158L267.825 216.523C267.176 216.258 266.902 215.46 267.056 214.913L267.175 214.809C267.909 212.516 268.643 210.223 269.479 208.048C270.315 205.873 271.151 203.698 272.107 201.42C272.943 199.245 274.001 197.084 275.059 194.924C276.118 192.763 277.176 190.603 278.336 188.56C278.456 188.457 278.456 188.457 278.558 188.575L278.661 188.693C278.149 191.001 277.638 193.308 277.006 195.719C276.392 197.909 275.761 200.32 274.925 202.495C274.191 204.788 273.458 207.081 272.621 209.256C271.785 211.431 270.83 213.709 269.993 215.884L269.344 214.17L270.523 214.804L268.678 215.576L275.112 200.055C277.297 194.846 279.583 189.756 281.768 184.548L281.973 184.784L280.453 184.24L280.35 184.121C279.992 184.432 279.992 184.432 280.111 184.329Z" fill="#17293B"/>
<path d="M263.299 213C263.658 212.689 264.119 212.496 264.477 212.185C264.939 211.992 265.297 211.68 265.639 211.591C266.1 211.398 266.356 210.969 266.903 211.116C267.33 211.367 267.757 211.618 268.253 212.43C268.355 212.549 268.236 212.652 268.338 212.77C268.048 213.644 267.57 214.059 267.211 214.37C266.853 214.681 266.323 214.312 265.998 214.179C265.554 214.15 265.127 213.899 264.683 213.871C264.256 213.62 263.812 213.591 263.384 213.34C263.282 213.222 263.179 213.104 263.299 213Z" fill="#17293B"/>
<path d="M262.614 214.623C262.972 214.312 263.314 214.222 263.673 213.911C264.134 213.718 264.373 213.511 264.715 213.422C265.056 213.332 265.432 212.799 265.859 213.05C266.286 213.301 266.713 213.552 266.987 214.35C267.09 214.468 266.97 214.572 267.073 214.69C266.782 215.563 266.424 215.874 266.065 216.186C265.706 216.497 265.296 216.024 264.972 215.891C264.647 215.759 264.203 215.73 263.776 215.479C263.348 215.228 263.024 215.096 262.597 214.845C262.597 214.845 262.494 214.727 262.614 214.623Z" fill="#17293B"/>
<path d="M279.245 201.439C278.972 202.09 278.579 202.845 278.187 203.6C277.794 204.354 277.418 204.887 277.026 205.642C276.531 206.279 276.463 207.166 275.763 207.566C275.063 207.966 274.363 208.367 273.253 208.294C273.03 208.28 273.03 208.28 273.047 208.058C272.911 206.935 273.081 206.165 273.474 205.411C273.747 204.76 274.669 204.374 275.147 203.959C275.744 203.441 276.445 203.04 276.923 202.626C277.623 202.225 278.22 201.707 278.92 201.307C279.04 201.203 279.159 201.099 279.245 201.439C279.142 201.321 279.262 201.217 279.245 201.439Z" fill="#17293B"/>
<path d="M270.447 196.852C271.336 196.91 272.326 197.086 273.334 197.04C274.324 197.216 275.212 197.274 276.203 197.45C277.193 197.626 278.098 197.462 278.952 197.963C279.806 198.464 280.541 199.07 281.241 200.118C281.344 200.237 281.224 200.34 281.105 200.444C279.944 201.037 278.936 201.083 277.946 200.907C277.058 200.849 276.221 200.126 275.35 199.846C274.496 199.345 273.625 199.065 272.771 198.564C271.917 198.062 271.063 197.561 270.311 197.177C270.208 197.059 270.208 197.059 270.328 196.955C270.345 196.734 270.447 196.852 270.447 196.852Z" fill="#17293B"/>
<path d="M280.545 203.419C280.016 204.5 279.384 205.462 278.752 206.424C278.121 207.386 277.489 208.348 276.858 209.31C276.226 210.272 275.799 211.471 274.86 212.078C274.024 212.804 272.965 213.516 271.497 213.754C271.377 213.858 271.275 213.74 271.172 213.622C271.172 212.172 271.701 211.092 272.332 210.13C272.861 209.05 274.022 208.457 274.859 207.731C275.696 207.005 276.652 206.176 277.488 205.45C278.325 204.724 279.281 203.895 280.22 203.287C280.34 203.183 280.442 203.301 280.545 203.419Z" fill="#17293B"/>
<path d="M271.666 215.881C270.933 218.174 270.318 220.363 269.687 222.774L267.606 229.55C266.872 231.843 266.36 234.151 265.302 236.311C264.244 238.471 263.083 240.514 261.376 242.409C261.257 242.513 261.257 242.513 261.154 242.395L261.052 242.276C261.136 239.718 261.648 237.411 262.382 235.118C263.115 232.825 264.276 230.782 265.334 228.622L268.389 222.244C269.447 220.084 270.506 217.923 271.564 215.763C271.683 215.659 271.683 215.659 271.786 215.777C271.564 215.763 271.666 215.881 271.666 215.881Z" fill="#17293B"/>
<path d="M258.826 221.847C259.065 221.64 259.185 221.536 259.424 221.328C259.543 221.225 259.885 221.135 260.005 221.032C260.124 220.928 260.483 220.617 260.466 220.839C260.449 221.061 260.534 221.401 260.347 222.392C260.227 222.496 260.33 222.614 260.21 222.718C259.817 223.473 259.459 223.784 259.339 223.887C259.1 224.095 259.134 223.651 259.151 223.429C259.049 223.311 259.066 223.089 258.86 222.853C258.878 222.631 258.672 222.395 258.689 222.173C258.707 221.951 258.826 221.847 258.826 221.847Z" fill="#17293B"/>
<path d="M268.202 218.89C267.331 220.059 266.341 221.332 265.368 222.383C264.497 223.553 263.404 224.708 262.431 225.759C261.458 226.811 260.571 228.202 259.392 229.017C258.214 229.832 256.917 230.751 255.107 231.079C254.987 231.182 254.885 231.064 254.902 230.842C255.362 229.2 256.13 227.913 257.223 226.758C258.094 225.588 259.494 224.788 260.672 223.973C261.747 223.039 263.045 222.121 264.223 221.306C265.401 220.491 266.596 219.454 267.877 218.757C268.219 218.668 268.219 218.668 268.202 218.89C268.321 218.786 268.321 218.786 268.202 218.89Z" fill="#17293B"/>
<path d="M266.956 217.694C266.324 218.656 265.709 219.397 264.975 220.241C264.241 221.084 263.627 221.825 262.893 222.669C262.158 223.513 261.749 224.489 260.707 224.979C259.768 225.586 258.846 225.972 257.395 225.989C257.275 226.093 257.173 225.975 257.19 225.753C257.292 224.422 257.923 223.46 258.657 222.616C259.289 221.654 260.313 221.386 261.253 220.778C262.192 220.171 263.011 219.667 263.95 219.059C264.889 218.451 265.709 217.947 266.751 217.458C266.87 217.354 266.87 217.354 266.956 217.694C266.973 217.472 266.973 217.472 266.956 217.694Z" fill="#17293B"/>
<path d="M264.976 224.587C264.635 226.125 264.277 227.886 263.799 229.749C263.765 230.193 263.304 230.386 262.86 230.357L262.638 230.343L260.435 229.976C259.888 229.829 259.478 229.357 259.529 228.691L259.546 228.469C259.597 227.804 259.546 227.02 259.597 226.355C259.614 226.133 259.631 225.911 259.87 225.704L260.109 225.496C260.962 224.549 262.021 223.837 263.404 223.259L263.985 222.962C264.104 222.858 264.326 222.873 264.531 223.109C264.702 223.789 264.993 224.365 264.976 224.587ZM264.737 224.794C264.19 224.647 263.729 224.84 263.507 224.826L264.515 224.78C263.969 226.082 263.32 227.266 262.261 227.977L262.654 227.223C262.381 227.874 262.108 228.525 261.835 229.176L260.946 227.669L262.996 228.582L261.835 229.176C262.722 227.784 263.61 226.393 264.737 224.794Z" fill="#17293B"/>
<path d="M314.635 38.212L320.202 39.801C320.527 39.933 320.732 40.17 320.595 40.495C318.565 45.156 316.414 49.921 314.383 54.582C313.428 56.86 312.352 59.242 310.85 61.374C309.45 63.624 308.068 65.652 306.241 67.651C306.122 67.754 306.122 67.754 306.019 67.636L305.917 67.518C306.445 64.989 307.315 62.37 308.271 60.091C309.124 57.695 310.524 55.445 311.804 53.299C314.484 48.903 316.942 44.493 319.622 40.097L319.895 40.895L314.498 38.537C314.396 38.419 314.396 38.419 314.396 38.419C314.515 38.316 314.515 38.316 314.635 38.212Z" fill="#17293B"/>
<path d="M304.208 67.963C305.061 65.567 306.017 63.288 307.092 60.906L310.079 53.966C311.034 51.688 311.887 49.291 313.168 47.145C314.448 44.999 315.95 42.867 317.879 40.986C317.999 40.883 317.999 40.883 318.101 41.001L318.204 41.119C317.778 43.767 316.924 46.163 316.071 48.56C315.218 50.957 313.613 52.97 312.436 55.234L308.697 61.791C307.417 63.937 306.137 66.083 304.737 68.332C304.618 68.436 304.618 68.436 304.515 68.318C304.191 68.185 304.088 68.067 304.208 67.963Z" fill="#17293B"/>
<path d="M312.926 41.556C313.268 41.466 313.609 41.377 313.951 41.288C314.293 41.198 314.634 41.109 314.856 41.124C315.198 41.034 315.557 40.723 315.745 41.182C315.95 41.418 316.138 41.876 316.07 42.764C316.172 42.882 316.053 42.986 315.933 43.089C315.318 43.83 315.079 44.037 314.738 44.127C314.396 44.216 314.208 43.758 314.003 43.521C313.798 43.285 313.593 43.048 313.388 42.812C313.183 42.576 312.978 42.339 312.892 41.999C312.807 41.659 312.926 41.556 312.926 41.556Z" fill="#17293B"/>
<path d="M313.694 40.268C314.035 40.178 314.377 40.089 314.718 40C315.06 39.911 315.402 39.821 315.726 39.954C316.068 39.865 316.529 39.672 316.615 40.012C316.82 40.248 316.888 40.81 316.82 41.698C316.701 41.802 316.803 41.92 316.684 42.023C316.069 42.764 315.608 42.957 315.266 43.046C314.924 43.136 314.736 42.677 314.531 42.441C314.326 42.204 314.121 41.968 313.916 41.732C313.711 41.495 313.625 41.155 313.318 40.801C313.557 40.593 313.574 40.371 313.694 40.268Z" fill="#17293B"/>
<path d="M308.084 68.328C308.426 68.239 308.768 68.15 309.109 68.06C309.451 67.971 309.793 67.882 310.015 67.896C310.356 67.807 310.818 67.614 310.903 67.954C311.108 68.19 311.296 68.649 311.109 69.64C311.092 69.862 311.092 69.862 310.972 69.966C310.357 70.706 310.016 70.795 309.674 70.885C309.332 70.974 309.144 70.516 308.939 70.279C308.734 70.043 308.529 69.807 308.324 69.57C308.119 69.334 308.033 68.994 307.726 68.639C307.965 68.432 307.982 68.21 308.084 68.328Z" fill="#17293B"/>
<path d="M306.412 69.78C306.754 69.691 307.198 69.72 307.659 69.527C308.001 69.438 308.445 69.467 308.786 69.377C309.231 69.406 309.589 69.095 309.897 69.45C310.205 69.804 310.29 70.144 310.324 71.15C310.427 71.268 310.307 71.372 310.188 71.476C309.573 72.216 309.112 72.409 308.668 72.38C308.326 72.47 308.138 72.011 307.83 71.657C307.625 71.42 307.318 71.066 307.113 70.829C306.805 70.475 306.6 70.239 306.412 69.78C306.293 69.884 306.395 70.002 306.412 69.78Z" fill="#17293B"/>
<path d="M311.599 55.959C310.336 57.883 308.954 59.911 307.69 61.835L303.559 67.697C302.074 69.607 300.913 71.649 299.326 73.441C297.636 75.114 295.945 76.787 293.726 78.092C293.606 78.196 293.504 78.078 293.504 78.078C293.504 78.078 293.401 77.959 293.521 77.856C294.374 75.459 295.535 73.417 297.02 71.507C298.283 69.583 300.195 67.924 301.663 66.236L306.529 60.979C308.219 59.306 309.807 57.514 311.497 55.841C311.617 55.737 311.617 55.737 311.719 55.855C311.617 55.737 311.497 55.841 311.599 55.959Z" fill="#17293B"/>
<path d="M358.642 34.612C358.83 35.07 358.898 35.632 358.984 35.972C359.052 36.534 359.138 36.874 359.206 37.436C359.172 37.88 359.582 38.353 359.207 38.886C358.951 39.315 358.472 39.73 357.567 39.894C357.448 39.998 357.345 39.88 357.242 39.762C356.508 39.156 356.217 38.58 356.132 38.24C355.944 37.781 356.422 37.366 356.678 36.937C356.934 36.508 357.19 36.078 357.446 35.649C357.702 35.22 357.959 34.79 358.317 34.479C358.317 34.479 358.539 34.494 358.642 34.612Z" fill="#17293B"/>
<path d="M356.284 36.24C357.821 36.563 359.358 36.886 360.776 37.313C361.1 37.446 361.305 37.682 361.169 38.007C361.169 38.007 361.169 38.007 361.049 38.111L360.93 38.215C359.206 41.781 357.277 45.111 355.553 48.677C354.751 50.408 353.727 52.125 352.498 53.606C351.269 55.086 349.92 56.67 348.264 57.9C348.144 58.004 348.042 57.886 348.042 57.886L347.939 57.768C348.315 55.786 349.014 53.936 349.936 52.101C350.738 50.37 351.762 48.653 352.991 47.173C355.347 44.093 357.498 40.778 359.854 37.699L360.127 38.497C358.727 37.848 357.207 37.303 355.806 36.655C355.704 36.537 355.704 36.537 355.823 36.433C356.062 36.226 356.284 36.24 356.284 36.24Z" fill="#17293B"/>
<path d="M358.881 38.751C358.199 40.379 357.294 41.992 356.611 43.62C355.826 45.129 355.024 46.86 354.239 48.37C353.334 49.983 352.874 51.625 351.645 53.105C350.535 54.482 349.203 55.845 347.564 56.852C347.445 56.956 347.342 56.838 347.342 56.838C347.342 56.838 347.342 56.838 347.24 56.72C347.393 54.723 348.075 53.096 348.877 51.365C349.56 49.737 350.892 48.375 352.001 46.998C353.009 45.503 354.118 44.126 355.228 42.749C356.338 41.372 357.447 39.995 358.557 38.619C358.676 38.515 358.676 38.515 358.779 38.633C358.898 38.529 358.898 38.529 358.881 38.751Z" fill="#17293B"/>
<path d="M353.044 49.406C352.276 50.694 351.286 51.967 350.517 53.255C349.527 54.528 348.759 55.815 347.769 57.089C346.779 58.362 346.113 59.768 344.918 60.804C343.723 61.841 342.425 62.76 340.82 63.324C340.701 63.428 340.598 63.31 340.598 63.31C340.956 61.55 341.725 60.262 342.612 58.871C343.38 57.583 344.797 56.561 345.873 55.628C346.966 54.473 348.161 53.436 349.236 52.503C350.432 51.466 351.627 50.429 352.822 49.392C352.839 49.17 353.061 49.185 353.044 49.406C353.044 49.406 353.163 49.303 353.044 49.406Z" fill="#17293B"/>
<path d="M403.271 113.094L427.917 121.945L452.442 130.899C452.767 131.031 452.972 131.267 453.057 131.607L459.245 151.294C460.219 154.59 461.194 157.886 462.168 161.183C463.143 164.479 463.997 167.878 464.75 171.16C464.921 171.84 464.528 172.595 463.726 172.877C463.384 172.966 463.162 172.951 462.837 172.819C459.473 171.597 456.125 170.152 452.88 168.826C449.635 167.5 446.288 166.056 442.94 164.612C442.837 164.494 442.837 164.494 442.837 164.494L442.957 164.39C446.458 165.287 449.959 166.184 453.341 167.184C456.722 168.185 460.326 169.2 463.708 170.2L461.898 171.977C460.924 168.681 459.83 165.489 458.855 162.193C457.881 158.897 456.907 155.601 455.932 152.305L450.547 132.336L451.265 133.163L427.029 123.336L402.913 113.405L402.81 113.287C403.049 113.08 403.049 113.08 403.271 113.094Z" fill="#17293B"/>
<path d="M387.474 118.306C387.765 120.332 387.834 122.343 388.022 124.25L388.348 130.179C388.417 132.19 388.828 134.112 388.555 136.212C388.402 138.208 388.027 140.19 387.088 142.247C386.969 142.351 386.969 142.351 386.866 142.233L386.764 142.114C385.909 140.164 385.618 138.138 385.43 136.231C385.242 134.324 385.736 132.238 385.889 130.242L386.349 124.252C386.502 122.256 386.877 120.274 387.03 118.278L387.15 118.174C387.372 118.188 387.372 118.188 387.474 118.306Z" fill="#17293B"/>
<path d="M402.22 147.133C401.758 144.428 401.518 141.737 401.056 139.032L400.114 130.944C399.875 128.254 399.191 125.534 399.395 122.872C399.497 120.092 399.701 117.43 400.366 114.575L400.485 114.471L400.588 114.589C401.613 117.22 402.075 119.925 402.537 122.631C402.999 125.336 402.675 128.102 402.693 130.778L402.627 138.911C402.525 141.691 402.543 144.367 402.442 147.148L402.322 147.251L402.22 147.133Z" fill="#17293B"/>
<path d="M417.644 154.047C417.046 151.667 416.669 149.302 416.293 146.936L414.942 139.826C414.565 137.461 413.848 135.184 413.813 132.73C413.778 130.275 413.846 127.939 414.374 125.41L414.494 125.306L414.596 125.424C415.758 127.729 416.357 130.109 416.852 132.37C417.451 134.75 417.264 137.19 417.299 139.645L417.642 146.801C417.677 149.256 417.831 151.607 417.866 154.061L417.747 154.165L417.644 154.047Z" fill="#17293B"/>
<path d="M433.067 159.511C432.281 156.673 431.597 153.953 430.93 151.012L428.896 142.63C428.331 139.807 427.323 136.955 426.981 134.146C426.638 131.337 426.535 128.32 426.876 125.333L426.995 125.229L427.098 125.347C428.448 128.11 429.354 130.845 430.037 133.564C430.824 136.402 430.825 139.3 431.269 142.228L432.279 150.876C432.622 153.685 432.947 156.716 433.289 159.525C433.289 159.525 433.272 159.747 433.17 159.629C433.17 159.629 432.948 159.615 433.067 159.511Z" fill="#17293B"/>
<path d="M447.617 164.693C446.882 162.639 446.369 160.599 445.737 158.663L443.976 152.529C443.463 150.489 442.609 148.538 442.438 146.409C442.266 144.28 442.095 142.151 442.607 139.843C442.607 139.843 442.726 139.74 442.846 139.636L442.948 139.754C444.144 141.616 444.879 143.67 445.614 145.724C446.246 147.66 446.298 149.893 446.47 152.022L447.206 158.424C447.377 160.553 447.668 162.578 447.839 164.707C447.839 164.707 447.822 164.929 447.72 164.811C447.6 164.915 447.6 164.915 447.617 164.693Z" fill="#17293B"/>
<path d="M389.114 123.095L404.861 128.69L420.591 134.508C425.8 136.407 431.129 138.203 436.202 140.429C441.274 142.654 446.33 145.101 451.13 147.977C451.232 148.096 451.232 148.096 451.113 148.199L450.993 148.303C445.511 147.054 440.182 145.258 434.973 143.358C429.764 141.459 424.708 139.012 419.636 136.786L404.298 130.214L388.978 123.42C388.875 123.302 388.875 123.302 388.875 123.302C388.892 123.08 388.892 123.08 389.114 123.095Z" fill="#17293B"/>
<path d="M457.794 146.965C458.186 147.659 458.579 148.354 458.972 149.048C459.365 149.742 459.758 150.437 460.151 151.131C460.544 151.826 461.057 152.416 461.108 153.2C461.16 153.984 461.092 154.871 460.46 155.833C460.341 155.937 460.221 156.04 460.119 155.922C459.043 155.406 458.53 154.816 458.137 154.121C457.744 153.427 457.915 152.658 457.761 151.756C457.709 150.972 457.658 150.189 457.606 149.405C457.555 148.621 457.503 147.838 457.572 146.95C457.572 146.95 457.691 146.847 457.794 146.965C457.794 146.965 457.691 146.847 457.794 146.965Z" fill="#17293B"/>
<path d="M461.073 152.194C460.731 152.283 460.287 152.254 459.946 152.344C459.604 152.433 459.279 152.3 458.835 152.271C458.391 152.242 457.93 152.435 457.844 152.095C457.759 151.755 457.571 151.297 457.639 150.409C457.758 150.306 457.656 150.187 457.775 150.084C458.493 149.461 458.954 149.268 459.295 149.179C459.637 149.09 459.706 149.652 459.911 149.888C460.116 150.125 460.321 150.361 460.509 150.819C460.594 151.159 460.902 151.514 460.988 151.854C461.312 151.987 461.295 152.209 461.073 152.194C461.193 152.09 461.193 152.09 461.073 152.194Z" fill="#17293B"/>
<path d="M371.102 16.138L371.511 13.712C371.528 13.49 371.648 13.387 371.87 13.401C375.029 14.387 378.069 15.477 381.229 16.463L390.469 19.628C393.509 20.718 396.686 21.482 399.692 23.016C402.595 24.431 405.499 25.846 408.249 27.809C408.351 27.927 408.351 27.927 408.232 28.03L408.112 28.134C404.799 27.695 401.742 26.827 398.582 25.841C395.423 24.855 392.519 23.44 389.616 22.025L380.666 17.987C377.643 16.675 374.739 15.26 371.836 13.845L372.297 13.652L371.443 16.048L371.324 16.152C371.085 16.36 371.102 16.138 371.102 16.138Z" fill="#17293B"/>
<path d="M385.208 22.741C387.394 23.329 389.58 23.917 391.767 24.506C392.86 24.8 393.953 25.094 394.926 25.492C396.019 25.786 397.112 26.08 398.205 26.374C398.752 26.521 399.059 26.875 399.025 27.319L399.111 27.659C399.453 29.019 399.351 30.35 399.248 31.681C399.146 33.012 398.925 34.447 398.379 35.749C398.259 35.852 398.259 35.852 398.14 35.956C398.14 35.956 398.14 35.956 398.037 35.838C397.354 34.567 396.79 33.193 396.55 31.951C396.208 30.591 395.969 29.35 396.071 28.019L396.977 29.304C396.02 28.684 394.944 28.168 393.97 27.77C392.894 27.254 392.04 26.753 390.964 26.237C389.034 25.219 387.002 24.084 385.072 23.066C384.969 22.948 384.969 22.948 385.089 22.845C384.986 22.727 385.106 22.623 385.208 22.741Z" fill="#17293B"/>
<path d="M401.982 35.314C402.87 35.371 403.861 35.547 404.63 35.709C405.518 35.767 406.389 36.046 407.277 36.104C408.148 36.384 409.053 36.22 409.907 36.721C410.641 37.327 411.376 37.932 411.854 38.966C411.957 39.084 411.837 39.188 411.718 39.292C410.557 39.885 409.669 39.827 408.678 39.651C407.79 39.593 407.175 38.884 406.321 38.383C405.569 37.999 404.715 37.498 404.083 37.011C403.349 36.406 402.597 36.022 401.863 35.417C401.743 35.521 401.76 35.299 401.982 35.314C401.88 35.195 401.88 35.195 401.982 35.314Z" fill="#17293B"/>
<path d="M318.706 11.276C318.979 10.625 319.371 9.871 319.644 9.22C319.918 8.569 320.31 7.81399 320.583 7.16299C320.856 6.51199 321.146 5.639 321.744 5.121C322.341 4.602 323.144 4.32 324.271 4.17C324.391 4.067 324.493 4.185 324.476 4.407C324.613 5.53 324.442 6.3 324.169 6.951C323.896 7.602 323.077 8.106 322.599 8.52C322.001 9.039 321.403 9.557 320.925 9.972C320.328 10.49 319.628 10.891 319.03 11.409C318.911 11.513 318.689 11.498 318.706 11.276Z" fill="#17293B"/>
<path d="M285.885 305.425L292.793 276.448L299.803 247.588C302.106 237.929 304.289 228.373 307.036 218.742C308.401 214.038 309.663 209.216 311.25 204.526L313.468 197.425C314.321 195.028 315.055 192.735 315.908 190.338L316.028 190.235L316.13 190.353C315.721 192.778 315.312 195.204 314.783 197.734L313.334 204.996C312.293 209.833 311.253 214.67 309.991 219.492C307.688 229.152 304.839 238.664 302.211 248.19L294.21 276.874L286.107 305.44L285.987 305.544C285.885 305.425 285.885 305.425 285.885 305.425Z" fill="#17293B"/>
<path d="M325.046 317.005L327.977 291.892L331.129 266.794C332.219 258.393 332.968 250.082 334.383 241.814C335.799 233.546 337.333 225.174 339.295 217.053L339.414 216.95L339.517 217.068C339.092 225.512 338.343 233.823 337.253 242.224C336.282 250.521 334.747 258.892 333.332 267.16L329.189 292.082L325.046 317.005L324.927 317.108C325.149 317.123 325.149 317.123 325.046 317.005Z" fill="#17293B"/>
<path d="M361.391 327.509L362.493 300.048L363.817 272.601C364.19 263.374 364.444 254.25 365.261 245.051C365.721 240.511 366.078 235.852 366.538 231.312L367.287 224.45C367.577 222.128 367.969 219.924 368.259 217.602L368.378 217.498L368.481 217.617C368.635 219.967 368.568 222.304 368.619 224.537L368.536 231.442C368.52 236.011 368.282 240.566 368.147 245.239C367.774 254.467 366.854 263.547 366.037 272.746L363.825 300.134L361.493 327.627L361.374 327.731C361.493 327.627 361.391 327.509 361.391 327.509Z" fill="#17293B"/>
<path d="M397.315 314.351L395.754 291.064L394.415 267.791C394.003 260.073 393.369 252.34 393.299 244.533C393.228 236.725 393.26 229.036 393.855 221.272L393.975 221.168L394.077 221.286C395.275 228.944 395.79 236.781 396.424 244.513C396.938 252.35 396.906 260.039 396.977 267.846L397.308 291.165L397.639 314.483L397.52 314.587C397.417 314.469 397.298 314.573 397.315 314.351Z" fill="#17293B"/>
<path d="M309.734 160.285C312.175 158.995 314.498 157.809 317.042 156.637L324.35 152.988C324.93 152.692 325.699 152.853 325.87 153.533C326.075 153.769 326.058 153.991 325.921 154.317L325.802 154.421C325.256 157.172 324.933 159.937 324.062 162.556C323.192 165.175 322.202 167.897 320.564 170.354C320.444 170.458 320.444 170.458 320.342 170.339L320.239 170.221C320.016 167.309 320.46 164.439 321.005 161.688C321.551 158.937 322.643 156.333 323.411 153.596L325.085 155.043L317.401 157.775C314.771 158.607 312.244 159.557 309.614 160.389C309.495 160.493 309.392 160.374 309.392 160.374C309.614 160.389 309.734 160.285 309.734 160.285Z" fill="#17293B"/>
<path d="M334.717 158.903C332.635 161.331 330.33 163.745 328.247 166.173L321.674 173.325C319.489 175.635 317.389 178.285 314.999 180.359C312.489 182.536 309.997 184.492 307.077 186.197C306.957 186.3 306.855 186.182 306.855 186.182C306.855 186.182 306.752 186.064 306.872 185.96C308.544 183.06 310.627 180.631 312.829 178.1C314.912 175.671 317.627 173.73 320.034 171.435L327.342 164.888C329.851 162.71 332.242 160.637 334.751 158.459C334.615 158.785 334.734 158.681 334.717 158.903C334.717 158.903 334.837 158.799 334.717 158.903Z" fill="#17293B"/>
<path d="M331.867 159.721C330.142 161.838 328.316 163.837 326.489 165.836L321.009 171.833C319.182 173.832 317.56 176.067 315.426 177.711C313.394 179.474 311.26 181.119 308.596 182.394C308.477 182.498 308.374 182.38 308.374 182.38C308.374 182.38 308.272 182.262 308.391 182.158C309.706 179.568 311.43 177.451 313.257 175.452C314.981 173.335 317.218 171.809 319.249 170.046L325.464 164.654C327.496 162.892 329.527 161.129 331.781 159.381C331.662 159.484 331.884 159.499 331.867 159.721C331.867 159.721 331.986 159.617 331.867 159.721Z" fill="#17293B"/>
<path d="M414.709 215.611C414.333 216.144 413.958 216.677 413.582 217.21C413.206 217.743 412.728 218.157 412.353 218.69C411.875 219.105 411.704 219.874 411.021 220.053C410.338 220.231 409.655 220.41 408.682 220.012C408.579 219.894 408.579 219.894 408.477 219.775C408.442 218.77 408.835 218.015 409.21 217.482C409.586 216.95 410.371 216.889 410.952 216.593C411.532 216.296 412.215 216.118 412.677 215.925C413.36 215.746 413.94 215.45 414.504 215.375C414.504 215.375 414.606 215.493 414.709 215.611Z" fill="#17293B"/>
<path d="M404.528 211.603C404.819 212.179 405.006 212.637 405.297 213.213C405.587 213.789 405.775 214.248 405.844 214.809C406.032 215.267 406.544 215.858 406.391 216.406C406.237 216.953 405.964 217.604 405.145 218.108C405.025 218.212 404.923 218.093 404.803 218.197C403.949 217.696 403.539 217.223 403.249 216.647C402.958 216.071 403.334 215.538 403.487 214.99C403.641 214.443 403.692 213.777 403.845 213.23C403.999 212.683 404.152 212.135 404.306 211.588C404.306 211.588 404.426 211.484 404.528 211.603Z" fill="#17293B"/>
<path d="M413.666 214.65C413.29 215.183 412.914 215.716 412.539 216.249C412.163 216.782 411.788 217.315 411.31 217.729C410.934 218.262 410.661 218.913 410.098 218.988C409.415 219.167 408.851 219.241 407.758 218.947C407.656 218.829 407.656 218.829 407.553 218.711C407.519 217.705 407.792 217.054 408.167 216.521C408.543 215.989 409.209 216.032 409.789 215.735C410.37 215.439 410.831 215.246 411.514 215.067C412.197 214.889 412.658 214.696 413.341 214.518C413.683 214.428 413.683 214.428 413.666 214.65Z" fill="#17293B"/>
<path d="M86.837 157.363L102.869 143.247L119.003 129.249C124.381 124.583 129.554 119.681 135.24 115.37C140.823 110.94 146.508 106.629 152.604 102.79C152.723 102.686 152.826 102.804 152.826 102.804C152.826 102.804 152.928 102.922 152.809 103.026C147.943 108.283 142.668 113.067 137.289 117.732C132.014 122.516 126.226 126.71 120.643 131.139L103.894 144.428L87.042 157.599C87.042 157.599 86.922 157.703 86.837 157.363C86.837 157.363 86.82 157.585 86.837 157.363Z" fill="#17293B"/>
<path d="M122.211 177.614L138.55 160.954L154.99 144.413C160.539 138.978 165.78 133.188 171.534 127.989C177.287 122.791 183.041 117.592 189.205 112.866C189.324 112.762 189.427 112.88 189.427 112.88C189.427 112.88 189.529 112.998 189.41 113.102C184.374 119.128 179.149 124.695 173.703 130.248C168.257 135.802 162.401 140.882 156.75 146.199L139.694 162.032L122.536 177.746C122.416 177.85 122.416 177.85 122.314 177.732C122.092 177.718 122.092 177.718 122.211 177.614Z" fill="#17293B"/>
<path d="M146.883 222.47L164.125 198.401L181.469 174.449C187.324 166.471 192.855 158.359 198.915 150.617C202.005 146.693 204.975 142.874 208.168 139.069L212.845 133.354C214.433 131.563 216.038 129.549 217.728 127.876C217.847 127.772 217.847 127.772 217.95 127.89C217.95 127.89 218.052 128.008 217.933 128.112C216.653 130.258 215.27 132.286 213.887 134.314L209.739 140.397C206.974 144.453 204.106 148.391 201.221 152.55C195.468 160.647 189.305 168.272 183.245 176.014L165.167 199.36L146.986 222.588C146.866 222.692 146.866 222.692 146.764 222.574L146.883 222.47Z" fill="#17293B"/>
<path d="M185.709 251.528L201.669 223.808L217.731 196.207C223.125 186.972 228.297 177.722 233.895 168.723C236.695 164.224 239.494 159.724 242.516 155.239L246.937 148.505C248.439 146.373 249.958 144.02 251.563 142.006C251.683 141.903 251.683 141.903 251.785 142.021C251.785 142.021 251.888 142.139 251.768 142.243C250.573 144.729 249.396 146.993 248.098 149.361L244.326 156.361C241.851 160.993 239.154 165.61 236.56 170.346C231.166 179.581 225.465 188.462 219.746 197.564L202.933 224.782L186.017 251.882C185.897 251.986 185.897 251.986 185.795 251.868C185.692 251.75 185.692 251.75 185.709 251.528Z" fill="#17293B"/>
<path d="M365.355 279.13L368.972 303.228C369.553 307.333 370.693 308.648 374.773 307.623L375.308 310.301C369.236 312.007 366.491 309.989 365.469 303.543L361.853 279.445L365.355 279.13Z" fill="#38CED9"/>
<path d="M476.131 81.631C464.93 79.081 361.99 41.142 256.931 135.2L171.455 102.694C214.876 67.934 278.634 34.45 303.099 28.195C455.025 -10.88 475.778 68.214 476.131 81.631Z" fill="#ECEEF0"/>
<path d="M221.655 91.454L227.964 87.194L229.333 89.242L223.024 93.502L228.701 101.929C231.64 106.257 235.271 105.736 238.315 101.477L240.117 103.555C235.426 109.445 230.229 110.516 225.938 103.922L220.261 95.495L216.498 97.748L215.329 95.93L219.225 93.36L216.051 87.819L218.348 86.23L221.655 91.454Z" fill="#38CED9"/>
<path d="M254.137 83.705L239.886 92.226C242.074 96.396 246.824 96.928 250.92 94.588C252.968 93.418 254.615 91.787 256.195 89.607L257.897 91.569C256.417 93.865 254.421 95.799 252.256 97.07C246.329 100.594 239.995 99.413 236.538 93.31C233.381 87.552 235.539 82.038 240.451 78.991C246.611 75.265 251.679 77.341 254.137 83.705ZM238.749 89.975L250.387 82.913C248.583 79.421 245.116 79.191 241.92 81.155C238.607 83.22 237.278 86.396 238.749 89.975Z" fill="#38CED9"/>
<path d="M271.299 69.829C269.147 68.055 266.314 68.085 264.049 69.24C260.653 70.974 258.376 75.174 260.648 79.676C262.92 84.178 267.553 84.812 270.95 83.078C273.331 81.822 275.261 79.339 274.84 76.265L277.787 74.719C278.827 79.684 276.233 83.755 272.27 85.777C267.508 88.29 260.925 87.528 257.701 81.222C254.376 74.801 257.751 69.041 262.613 66.643C266.459 64.722 271.125 64.922 274.246 68.284L271.299 69.829Z" fill="#38CED9"/>
<path d="M299.013 73.295L294.316 61.996C292.844 58.417 289.893 57.134 286.629 58.55C283.149 59.951 281.804 63.343 283.275 66.922L287.873 78.105L284.725 79.42L272.755 50.56L275.902 49.245L281.068 61.554C281.931 58.783 283.478 57.036 286.392 55.923C291.672 53.771 295.524 56.093 297.547 61.013L302.245 72.312L299.013 73.295Z" fill="#38CED9"/>
<path d="M322.83 64.973L319.248 53.313C318.21 49.763 315.159 48.364 311.928 49.347C308.58 50.431 306.818 53.578 307.772 56.796L311.454 68.571L308.223 69.554L303.838 55.556C302.951 52.887 302.567 52.208 300.535 53.162L299.749 50.607C301.897 49.553 304.844 48.008 305.966 51.889C306.861 48.685 309.042 47.198 311.94 46.302C317.186 44.582 321.006 47.337 322.496 52.114L326.077 63.774L322.83 64.973Z" fill="#38CED9"/>
<path d="M328.011 52.587C325.159 38.473 346.615 34.02 349.467 48.133C352.336 62.031 330.863 66.701 328.011 52.587ZM346.152 48.784C344.105 38.422 329.279 41.575 331.326 51.937C333.49 62.197 348.316 59.045 346.152 48.784Z" fill="#38CED9"/>
<path d="M365.626 46.048C365.073 31.76 386.934 30.597 387.47 45.101C387.923 59.274 366.063 60.437 365.626 46.048ZM384.088 45.203C383.69 34.625 368.611 35.367 369.009 45.946C369.306 56.409 384.385 55.667 384.088 45.203Z" fill="#38CED9"/>
<path d="M407.413 54.908C405.032 56.164 402.817 56.67 400.65 56.527C395.218 56.385 391.196 51.985 391.72 45.057C392.26 37.912 397.404 34.663 403.903 35.093C406.72 35.28 409.587 36.231 411.988 37.587L410.434 58.154C409.893 65.298 405.231 67.927 399.932 67.467C397.116 67.281 394.248 66.329 391.763 64.642L392.509 61.971C394.794 63.428 397.545 64.481 400.145 64.653C403.727 64.781 406.791 63.135 407.168 58.155L407.413 54.908ZM408.475 39.421C406.791 38.657 405.191 38.225 403.458 38.11C399.125 37.823 395.246 40.177 394.953 45.488C394.544 50.901 397.481 53.815 401.28 53.958C403.23 54.087 405.345 53.465 407.509 52.194L408.475 39.421Z" fill="#38CED9"/>
<path d="M425.6 60.572C422.274 65.682 418.949 70.793 412.828 66.797L413.775 64.358C417.394 66.882 419.423 64.514 421.402 61.382L423.131 58.668L417.486 36.862L417.619 36.545L421.169 37.106L423.582 46.948L425.427 55.665L430.015 48.245L435.452 39.684L438.786 40.231L438.653 40.549L425.6 60.572Z" fill="#38CED9"/>
<path d="M356.315 33.299L358.532 50.599C358.885 53.546 359.685 54.491 362.638 53.763L362.98 55.686C358.582 56.9 356.638 55.447 356.006 50.819L353.789 33.519L356.315 33.299Z" fill="#38CED9"/>
</svg>
