<svg width="565" height="392" viewBox="0 0 565 392" fill="none" xmlns="http://www.w3.org/2000/svg">
<path d="M58.2851 124.467C58.2923 125.523 58.3838 126.577 58.5589 127.618C58.6821 127.808 58.7696 127.859 58.8167 127.853C59.1421 127.774 58.3951 124.452 58.2851 124.467Z" fill="#C9F7FF"/>
<path d="M25.8065 181.305C26.7939 184.067 28.3005 188.445 29.9343 193.937C32.2284 201.584 33.0064 205.459 35.1891 205.818C37.3718 206.176 39.7279 202.586 39.9772 202.199C43.169 197.055 40.714 191.648 40.0218 183.884C39.5348 178.004 40.0943 172.082 41.6745 166.392L62.6172 164.342L74.4704 154.196C93.4595 154.472 112.4 156.149 131.136 159.213C137.604 160.283 143.799 161.471 149.802 162.767L147.292 164.72C146.967 170.823 148.223 176.904 150.939 182.381C153.655 187.857 157.74 192.546 162.802 195.997C160.046 201.315 158.418 207.139 158.017 213.107C157.759 217.243 157.61 221.474 159.76 225.984C161.656 229.57 164.507 232.567 168.001 234.647C176.691 240.264 186.389 244.158 196.564 246.117C195.527 247.288 194.894 248.76 194.76 250.314C194.564 253.883 197.643 256.473 198.878 257.493C205.235 262.837 216.8 260.547 221.063 259.763C228.876 258.36 250.854 258.172 294.827 257.808C300.217 258.048 305.614 257.503 310.847 256.19C319.897 253.685 325.68 249.064 327.115 250.805C328.009 251.905 326.238 253.865 324.737 258.847C323.057 264.478 323.231 268.95 323.478 275.279C323.756 282.607 323.894 286.271 326.098 288.907C329.33 292.8 334.557 293.376 336.85 293.496L335.288 340.129C337.288 342.065 339.687 343.546 342.319 344.468C342.841 344.648 350.589 347.273 355.719 344.26C364.296 339.223 363.673 319.489 363.351 307.924C362.763 300.476 364.757 293.048 369 286.879C371.767 282.465 374.176 274.975 372.359 261.471C370.67 257.949 368.963 254.413 367.258 250.892L373.003 246.228L386.806 241.881C404.285 236.45 438.028 238.52 475.469 234.273C484.79 233.213 498.221 231.646 498.272 229.422C498.323 227.198 485.729 225.201 474.781 223.846C454.886 225.933 434.84 227.945 414.646 229.883C399.828 231.318 385.066 232.693 370.36 234.007C368.702 232.805 366.942 231.749 365.101 230.85C358.62 227.796 351.404 226.616 344.277 227.445C332.434 216.494 320.606 205.532 308.792 194.556L319.412 189.467C332.727 192.924 343.265 193.54 346.23 191.41C347.768 190.281 349.494 188.791 349.494 188.791C351.874 186.712 352.051 186.161 353.445 185.037C356.279 182.733 359.591 181.083 363.141 180.207C363.141 180.207 365.216 183.515 369.364 190.115L374.872 190.525C403.137 192.655 431.364 194.854 459.554 197.122C460.751 198.099 462.5 199.46 464.704 200.98C469.539 204.308 472.974 206.816 477.516 207.985C481.144 208.919 486.552 210.315 492.241 207.732C499.555 204.407 501.918 196.94 502.438 195.415C513.104 206.112 525.276 215.209 538.573 222.422L547.963 217.7C537.065 203.786 526.172 189.872 515.285 175.957L492.625 169.8C493.423 169.597 494.172 169.237 494.828 168.741C495.484 168.245 496.033 167.622 496.443 166.911C496.853 166.2 497.114 165.414 497.213 164.6C497.311 163.786 497.244 162.961 497.015 162.174C496.787 161.387 496.402 160.654 495.883 160.019C495.363 159.384 494.721 158.859 493.994 158.476C493.266 158.093 492.469 157.86 491.648 157.79C490.828 157.72 490.002 157.815 489.219 158.07C490.22 155.801 491.236 153.529 492.268 151.255L437.415 111.914C440.616 117.615 444.525 122.891 449.05 127.62C460.439 139.469 476.211 148.126 478.045 156.699C478.289 157.845 478.877 160.615 477.24 162.284C476.649 162.791 475.955 163.166 475.207 163.383C474.458 163.6 473.671 163.654 472.9 163.542L466.736 174.694C466.736 174.694 468.791 180.668 467.7 181.446C466.609 182.223 462.802 178.573 458.982 174.605C434.357 174.544 409.77 172.725 385.411 169.164C375.18 167.659 365.361 165.903 355.967 163.975C356.865 162.464 357.454 160.792 357.701 159.054C357.948 157.317 357.848 155.548 357.405 153.85C355.61 148.126 348.99 144.079 341.303 144.794C343.123 141.488 347.74 132.073 344.908 121.33C343.781 117.416 341.914 113.752 339.407 110.537C333.845 102.845 326.273 96.8176 317.51 93.1066C305.58 88.128 295.201 88.9564 287.911 89.6466C264.976 91.7739 248.168 103.138 239.674 109.981C235.44 105.625 231.849 100.693 229.007 95.3322C226.545 90.6601 224.276 86.2156 226.216 83.4187C227.563 81.6314 230.124 81.1542 231.925 81.0882C263.757 80.2101 278.91 80.0395 286.132 80.1085C286.839 80.1192 288.669 80.1447 291.149 79.9979C298.304 79.5734 305.357 78.0932 312.077 75.6056C313.916 73.8917 315.861 71.6842 315.256 70.3671C313.699 66.8734 296.72 73.5565 282.802 74.4118C263.88 75.5744 244.89 74.6823 226.168 71.7511L198.142 72.5642C197.88 74.324 197.601 76.0703 197.292 77.8369L185.031 75.027C167.118 72.9338 149.058 72.3443 131.041 73.2645C122.148 73.7213 113.736 74.5238 105.728 75.5718C108.151 79.4385 111.406 82.7209 115.258 85.1831C125.825 91.8395 132.528 86.2574 153.645 88.7916C167.652 90.4751 173.263 93.9636 184.615 91.194C188.32 90.2918 191.894 88.924 195.253 87.1233C195.287 88.7131 195.326 90.4458 195.357 92.116C195.687 98.2462 195.959 104.486 196.171 110.835C216.468 117.505 220.865 120.466 220.564 121.832C220.46 122.342 219.76 122.489 218.27 123.165C215.063 124.733 212.144 126.827 209.634 129.358C207.012 131.535 199.719 134.665 179.822 138.99L170.939 146.033L157.463 135.501L116.493 130.412L67.9344 127.06L58.9894 139.502C58.4514 135.735 57.9068 131.921 57.6327 129.329C57.0679 128.517 55.6457 125.291 52.1614 116.044L63.9665 110.387C64.088 97.398 64.1999 84.4161 64.302 71.4407L57.1147 66.9012L31.8429 98.7871C33.3789 100.585 34.4638 102.72 35.0085 105.017C35.8091 108.603 34.9744 111.736 32.7359 117.271C29.4117 125.529 27.4356 128.076 24.986 133.817C23.1115 138.419 21.6456 143.175 20.6053 148.03C17.7548 159.896 16.1728 172.028 15.8857 184.222L25.8065 181.305Z" fill="#C9F7FF"/>
<path d="M33.7499 104.734C34.2583 106.049 34.7981 107.36 35.2773 108.695C35.4197 109.211 35.4464 109.753 35.3557 110.281C35.265 110.81 35.059 111.312 34.7523 111.752L30.8338 119.776C30.7101 120.019 30.6382 120.285 30.6228 120.557C30.6075 120.829 30.6488 121.101 30.7444 121.357C30.8399 121.612 30.9875 121.844 31.178 122.04C31.3684 122.235 31.5975 122.39 31.8508 122.493C32.1041 122.596 32.3761 122.645 32.6498 122.638C32.9235 122.632 33.1929 122.569 33.441 122.453C33.6891 122.337 33.9107 122.172 34.0915 121.967C34.2724 121.762 34.4086 121.523 34.4918 121.263C35.9186 118.348 37.4799 115.477 38.7699 112.502C39.4764 110.987 39.5905 109.265 39.0897 107.672C38.6309 106.143 37.9679 104.642 37.3835 103.131C37.164 102.668 36.7718 102.308 36.29 102.127C35.8082 101.947 35.2744 101.96 34.8017 102.164C34.3291 102.368 33.9547 102.748 33.7575 103.222C33.5604 103.696 33.5561 104.227 33.7455 104.703L33.7499 104.734Z" fill="#D77E60"/>
<path d="M54.6643 70.8394C44.9232 80.9209 36.963 92.5671 31.1204 105.285C30.0575 107.606 33.7314 109.091 34.7965 106.786C40.5201 94.3777 48.3103 83.0198 57.8373 73.1932C59.6088 71.3453 56.4246 69.025 54.6621 70.8237L54.6643 70.8394Z" fill="#D77E60"/>
<path d="M55.887 74.3491C56.2506 74.2015 56.6141 74.0536 56.9978 73.9351L57.3277 73.8879C57.0921 73.9216 57.0764 73.9238 57.3277 73.8879L57.8303 73.8162C58.633 73.6458 59.4464 73.5296 60.2647 73.4685L60.1548 73.4842L60.5004 73.4348L61.0814 73.4636C61.4852 73.4856 61.8778 73.5411 62.2704 73.5967C62.6629 73.6523 63.0443 73.7413 63.4413 73.8282L63.3628 73.8394C63.4728 73.8583 63.5798 73.8914 63.6813 73.9376C63.8988 74.0022 64.1164 74.0667 64.3205 74.1492C64.8087 74.3336 65.3498 74.3235 65.8313 74.1211C66.3128 73.9187 66.6977 73.5396 66.9059 73.0624C67.1002 72.5768 67.0949 72.0349 66.8913 71.5537C66.6876 71.0725 66.3019 70.6908 65.8174 70.4907C62.0855 69.1535 57.9848 69.2499 54.3168 70.7615C53.838 70.9715 53.4618 71.3611 53.2698 71.8455C53.0779 72.3299 53.0858 72.87 53.2919 73.348C53.5093 73.8228 53.903 74.1952 54.3905 74.3872C54.878 74.5792 55.4216 74.5761 55.9072 74.3782L55.887 74.3491Z" fill="#D77E60"/>
<path d="M63.5907 74.5411C62.386 86.6354 61.7939 98.7815 61.8167 110.933C61.8216 113.437 65.7585 113.959 65.7492 111.424C65.727 99.2775 66.3199 87.1366 67.5255 75.0475C67.7898 72.5218 63.8864 72.0109 63.5907 74.5411Z" fill="#D77E60"/>
<path d="M49.481 118.708C52.4048 118.711 55.299 118.117 57.9846 116.963C60.6701 115.808 63.0899 114.118 65.0941 111.996C65.4069 111.576 65.5408 111.049 65.4668 110.532C65.3929 110.014 65.1171 109.546 64.699 109.23C64.2739 108.927 63.7476 108.799 63.2297 108.873C62.7118 108.947 62.2422 109.217 61.9189 109.627C58.7714 112.839 54.4838 114.695 49.9796 114.793C49.4595 114.747 48.9408 114.899 48.5284 115.218C48.1159 115.538 47.8403 116.001 47.7573 116.514C47.694 117.033 47.84 117.555 48.1631 117.966C48.4862 118.377 48.9601 118.644 49.481 118.708Z" fill="#D77E60"/>
<path d="M48.8908 115.921C48.0863 117.683 47.7503 119.62 47.9152 121.547C47.9877 122.066 48.2621 122.537 48.6793 122.857C49.103 123.164 49.6305 123.294 50.1495 123.22C50.6686 123.146 51.1385 122.873 51.4594 122.46C51.7544 122.027 51.8895 121.506 51.8418 120.986C51.8128 120.783 51.7838 120.58 51.7548 120.376L51.8284 120.892C51.824 120.092 51.9256 119.294 52.1307 118.52L51.9913 119.003C52.1372 118.453 52.3344 117.917 52.5803 117.404C52.6808 117.164 52.7324 116.906 52.732 116.647C52.7315 116.387 52.6792 116.13 52.5779 115.89C52.4765 115.651 52.3283 115.434 52.1418 115.252C51.9553 115.07 51.7344 114.928 51.4918 114.832C51.0036 114.648 50.4625 114.658 49.9809 114.86C49.4994 115.063 49.1146 115.442 48.9065 115.919L48.8908 115.921Z" fill="#D77E60"/>
<path d="M39.1985 114.721C39.4666 114.492 39.7462 114.277 40.0359 114.076L40.3007 113.91C40.0785 114.038 40.0494 114.058 40.3007 113.91L40.7204 113.707C41.039 113.552 41.3683 113.42 41.7056 113.311C41.8627 113.288 42.1523 113.072 41.7056 113.311C41.9058 113.259 42.1114 113.229 42.3182 113.223C42.648 113.176 42.9622 113.131 43.292 113.084C43.6218 113.037 43.9673 112.988 43.449 113.062C43.5995 113.051 43.7507 113.057 43.9 113.077C44.2572 113.09 44.6123 113.135 44.961 113.213C44.961 113.213 45.5892 113.346 45.3065 113.275C45.0239 113.204 45.5914 113.362 45.643 113.387C45.9734 113.505 46.2975 113.639 46.6142 113.79C47.0627 114.013 46.2935 113.565 46.6927 113.779C46.8178 113.854 46.937 113.938 47.0492 114.031C47.1004 114.062 47.1483 114.098 47.1927 114.138C47.3407 114.276 47.3205 114.247 47.0985 114.04L47.3631 114.321C47.4775 114.448 47.5625 114.595 47.6768 114.723C47.7912 114.85 47.4774 114.336 47.6768 114.723C47.7711 114.99 47.8833 115.251 48.0128 115.504C47.966 115.176 47.9593 115.129 47.9883 115.332L48.0374 115.676C48.0664 115.879 48.0575 115.817 48.0084 115.473C48.0107 115.578 48.0257 115.684 48.0531 115.786C48.1363 115.471 48.1588 115.404 48.0285 115.614L47.9588 115.799L48.0981 115.54C48.0577 115.603 48.0127 115.662 47.9634 115.719C48.2036 115.493 48.244 115.439 48.0869 115.573L47.8983 115.712C47.694 115.873 47.5234 116.073 47.3965 116.299C47.2695 116.526 47.1887 116.775 47.1585 117.032C47.1283 117.29 47.1494 117.551 47.2206 117.8C47.2917 118.05 47.4116 118.282 47.5732 118.485C47.9044 118.889 48.3804 119.148 48.9005 119.207C49.4206 119.267 49.9438 119.123 50.3594 118.805C50.962 118.365 51.4279 117.766 51.7035 117.074C51.979 116.383 52.053 115.629 51.917 114.899C51.6414 113.448 50.8895 112.131 49.7794 111.153C48.6288 110.2 47.2512 109.556 45.7784 109.285C44.3328 108.965 42.8332 108.972 41.3899 109.305C39.6739 109.652 38.0748 110.429 36.7442 111.563C36.5169 111.716 36.3237 111.913 36.1767 112.143C36.0297 112.373 35.9321 112.631 35.8901 112.9C35.8481 113.169 35.8625 113.445 35.9325 113.708C36.0025 113.971 36.1265 114.217 36.2968 114.43C36.4671 114.643 36.6799 114.819 36.9219 114.946C37.1639 115.073 37.4297 115.149 37.7027 115.169C37.9758 115.189 38.25 115.152 38.5082 115.061C38.7664 114.971 39.0031 114.828 39.2032 114.641L39.1985 114.721Z" fill="#D77E60"/>
<path d="M30.5291 122.02C30.9139 122.794 31.0917 123.653 31.0456 124.515C31.0483 125.488 31.1865 126.455 31.4563 127.39C31.6286 127.942 31.9169 128.45 32.3018 128.882C32.6868 129.314 33.1596 129.659 33.6891 129.894C34.9537 130.376 36.3572 130.353 37.6063 129.829C40.0038 128.899 42.2901 127.706 44.4225 126.272C46.6264 124.901 48.7155 123.354 50.6696 121.648C52.5801 119.988 50.1414 116.939 48.2085 118.555C44.9305 121.429 41.2571 123.823 37.2998 125.663C36.7211 125.999 36.0849 126.225 35.4237 126.329C35.3137 126.345 35.0356 126.194 35.4237 126.329L35.3049 126.171C35.3294 126.343 35.3316 126.358 35.3049 126.171C35.2781 125.983 35.1347 125.765 35.2848 126.03C35.2406 125.83 35.2114 125.626 35.1977 125.421C35.2424 123.688 34.9418 121.964 34.313 120.348C34.0896 119.878 33.6954 119.511 33.21 119.32C32.7246 119.129 32.1841 119.128 31.6977 119.318C31.2177 119.532 30.8404 119.924 30.6464 120.41C30.4524 120.897 30.457 121.439 30.6594 121.922L30.5291 122.02Z" fill="#D77E60"/>
<path d="M30.2358 127.708C27.1612 130.534 24.495 133.77 22.3137 137.324C19.9392 141.571 19.6486 146.269 19.2189 151.003L16.3425 182.37C16.3079 182.671 16.3421 182.975 16.4426 183.261C16.5432 183.546 16.7073 183.805 16.9228 184.018C17.1382 184.231 17.3995 184.393 17.6869 184.492C17.9742 184.59 18.2802 184.622 18.5821 184.586C23.7193 184.138 28.7877 183.099 33.6856 181.488C36.1047 180.696 34.5144 177.08 32.111 177.869C27.5577 179.33 22.8526 180.27 18.0869 180.67L20.34 182.868C21.2205 173.173 22.1062 163.477 22.9972 153.781C23.4109 149.384 23.2821 144.554 25.1809 140.455C27.102 136.794 29.6737 133.509 32.7711 130.759C34.5268 128.914 32.0723 125.867 30.2941 127.668L30.2358 127.708Z" fill="#D77E60"/>
<path d="M43.1533 125.576C48.848 134.029 46.1498 145.323 42.9441 154.185C39.5927 163.418 34.6123 171.982 28.2374 179.475C26.5758 181.419 29.7643 183.77 31.4102 181.829C38.4316 173.573 43.8179 164.07 47.2834 153.821C50.6716 143.88 52.4702 132.347 46.2668 123.138C44.8436 121.029 41.7346 123.498 43.1555 125.592L43.1533 125.576Z" fill="#D77E60"/>
<path d="M24.7264 183.054C25.8761 188.457 27.3543 193.785 29.1527 199.009C29.5713 200.257 30.0214 201.5 30.4849 202.726C30.9484 203.951 31.2925 205.912 32.6158 206.425C33.8239 206.76 35.096 206.798 36.3231 206.537C37.5503 206.276 38.6958 205.722 39.6616 204.924C40.0738 204.596 40.3388 204.119 40.3981 203.598C40.4573 203.076 40.3061 202.553 39.9777 202.143C39.6492 201.733 39.1705 201.47 38.6467 201.412C38.1229 201.354 37.597 201.505 37.1847 201.833C36.6878 202.225 36.1084 202.5 35.4898 202.638C34.8711 202.776 34.2293 202.774 33.6124 202.63L35.191 203.808C32.4115 196.873 30.2311 189.715 28.6733 182.411C28.1456 179.95 24.2011 180.498 24.7467 182.972L24.7264 183.054Z" fill="#D77E60"/>
<path d="M35.2792 170.766C34.1496 181.597 39.0238 192.384 36.4203 203.106C35.8105 205.569 39.7565 206.042 40.3528 203.597C42.9788 192.807 38.0845 182.104 39.2141 171.273C39.4784 168.747 35.575 168.236 35.2792 170.766Z" fill="#D77E60"/>
<path d="M40.4764 169.226C49.9798 169.185 59.3357 166.859 67.747 162.445C69.9825 161.265 68.4281 157.563 66.1725 158.826C58.4214 162.97 49.7834 165.194 40.9908 165.31C40.4719 165.258 39.9527 165.406 39.5392 165.723C39.1258 166.04 38.8493 166.502 38.7662 167.015C38.7323 167.272 38.7496 167.533 38.8172 167.784C38.8849 168.034 39.0014 168.269 39.1602 168.474C39.319 168.68 39.5171 168.852 39.7429 168.981C39.9687 169.11 40.218 169.193 40.4764 169.226Z" fill="#D77E60"/>
<path d="M70.6293 154.123L62.2557 161.363C61.8431 161.689 61.5772 162.164 61.5162 162.684C61.4553 163.204 61.6043 163.727 61.9307 164.137C62.2571 164.547 62.734 164.811 63.2565 164.871C63.779 164.931 64.3043 164.782 64.7169 164.457C67.5141 162.048 70.3053 159.634 73.0905 157.216C73.2948 157.055 73.4653 156.856 73.5922 156.629C73.7191 156.403 73.7999 156.153 73.8301 155.896C73.8603 155.638 73.8392 155.377 73.7681 155.128C73.697 154.879 73.5772 154.646 73.4156 154.443C73.254 154.24 73.0537 154.07 72.8263 153.944C72.5988 153.818 72.3486 153.738 72.0898 153.708C71.8311 153.679 71.569 153.7 71.3184 153.771C71.0678 153.842 70.8336 153.962 70.6293 154.123Z" fill="#D77E60"/>
<path d="M51.2903 135.753C52.9998 135.418 54.6351 134.779 56.1176 133.867C56.8733 133.365 57.5042 132.698 57.962 131.917C58.4198 131.136 58.6925 130.261 58.7593 129.36C58.8388 127.418 58.1963 125.517 56.9549 124.019C55.712 122.634 54.2613 121.448 52.6543 120.503C52.2279 120.204 51.7026 120.078 51.1858 120.152C50.669 120.226 50.1998 120.493 49.8742 120.9C49.5654 121.322 49.4339 121.847 49.5077 122.364C49.5815 122.88 49.8547 123.348 50.2693 123.666C50.8703 124.059 51.487 124.449 52.0453 124.88C52.366 125.105 52.6732 125.348 52.9647 125.594L53.3324 125.924C53.4781 126.047 53.3123 125.784 53.4467 126.051C53.7084 126.332 53.9539 126.627 54.182 126.935C54.3837 127.225 54.1663 126.826 54.1954 127.029C54.2244 127.232 54.3297 127.297 54.3969 127.431C54.4641 127.565 54.4461 127.775 54.5963 127.929C54.7956 128.427 54.5449 127.569 54.6208 128.1C54.6409 128.241 54.661 128.382 54.6833 128.538C54.7057 128.694 54.7681 129.132 54.7324 128.882C54.6967 128.632 54.7593 129.07 54.7659 129.117C54.7726 129.163 54.6443 129.724 54.7927 129.304C54.8106 129.429 54.7028 129.572 54.6421 129.708L54.5321 129.947L54.5209 129.869C54.44 129.976 54.3749 130.081 54.2784 130.191C54.1818 130.3 53.8945 130.533 54.2918 130.285L53.5981 130.814C53.4095 130.953 53.8831 130.678 53.5981 130.814L53.165 131.036C52.8799 131.172 52.5904 131.277 52.3009 131.382L51.4123 131.669L51.1453 131.707L50.6584 131.777C50.1431 131.862 49.6807 132.142 49.367 132.558C49.0533 132.974 48.9126 133.495 48.9741 134.011C49.1125 134.98 50.1348 135.966 51.2164 135.684L51.2903 135.753Z" fill="#D77E60"/>
<path d="M56.0146 129.895C56.96 133.966 57.3732 138.142 57.2441 142.319C57.2077 142.962 57.2634 143.576 56.8077 143.976C56.1132 144.42 55.3436 144.735 54.5365 144.906C52.7094 145.374 50.7978 145.407 48.9568 145.002C48.6944 144.96 48.4262 144.972 48.1683 145.036C47.9104 145.1 47.668 145.215 47.4554 145.374C47.2428 145.533 47.0644 145.733 46.9308 145.962C46.7972 146.19 46.7111 146.443 46.6777 146.706C46.6443 146.968 46.6642 147.234 46.7362 147.489C46.8083 147.743 46.931 147.981 47.097 148.187C47.2631 148.393 47.4691 148.564 47.703 148.689C47.9368 148.815 48.1935 148.892 48.4581 148.916C50.904 149.419 53.4376 149.315 55.8351 148.613C58.2362 147.919 60.5075 146.765 61.0456 144.136C61.2213 142.994 61.2762 141.837 61.2095 140.684C61.1993 139.378 61.1554 138.06 61.0643 136.749C60.8863 134.269 60.5342 131.804 60.0107 129.372C59.9217 128.861 59.6401 128.404 59.2234 128.093C58.8068 127.782 58.2863 127.641 57.7684 127.699C57.2495 127.777 56.7822 128.056 56.4671 128.474C56.152 128.892 56.0144 129.416 56.0841 129.933L56.0146 129.895Z" fill="#D77E60"/>
<path d="M30.9231 119.955C28.7814 121.088 27.0445 122.855 25.9517 125.01C24.8589 127.166 24.4638 129.604 24.8209 131.99C24.8988 132.507 25.1777 132.972 25.5972 133.285C26.0167 133.598 26.5432 133.734 27.0632 133.664C27.5785 133.578 28.041 133.298 28.3546 132.882C28.6683 132.466 28.809 131.946 28.7475 131.429C28.6976 131.192 28.6633 130.952 28.6448 130.711C28.6292 130.601 28.6136 130.492 28.598 130.382C28.5823 130.273 28.6117 129.918 28.5779 130.242C28.544 130.565 28.5779 130.242 28.56 130.117C28.534 129.988 28.5154 129.857 28.5042 129.726C28.473 129.507 28.5382 129.29 28.5698 129.063C28.6014 128.835 28.6531 128.636 28.7026 128.422C28.6875 128.36 28.6785 128.297 28.6758 128.234C28.6557 128.093 28.6758 128.234 28.6981 128.39C28.6981 128.39 28.7746 128.14 28.7971 128.073C28.9435 127.629 29.1169 127.194 29.3163 126.771L29.4668 126.478C29.6061 126.219 29.579 126.367 29.4668 126.478C29.6038 126.315 29.6982 126.079 29.8173 125.902C30.0848 125.52 30.3749 125.153 30.6862 124.805C30.895 124.584 30.8276 124.785 30.6862 124.805C30.7911 124.724 30.8854 124.63 30.9669 124.526L31.4832 124.101L32.0198 123.706L32.2083 123.679C32.3339 123.661 32.2082 123.679 32.0354 123.704C32.1414 123.617 32.2624 123.551 32.3923 123.509C32.8663 123.289 33.2371 122.896 33.4276 122.411C33.618 121.926 33.6136 121.388 33.415 120.907C33.2015 120.433 32.8102 120.062 32.325 119.872C31.8397 119.682 31.2988 119.689 30.8177 119.89L30.9231 119.955Z" fill="#D77E60"/>
<path d="M60.8293 139.479C64.295 137.192 67.0997 134.042 68.9643 130.343C69.0626 130.102 69.1125 129.845 69.111 129.586C69.1095 129.327 69.0567 129.07 68.9556 128.832C68.8546 128.593 68.7072 128.376 68.522 128.194C68.3367 128.012 68.117 127.868 67.8757 127.771C67.3872 127.59 66.8477 127.602 66.3672 127.804C65.8868 128.006 65.5017 128.383 65.2905 128.858L64.9624 129.479C64.8007 129.805 65.1062 129.251 64.9624 129.479C64.8187 129.707 64.8479 129.687 64.7805 129.776C64.5491 130.176 64.2863 130.58 64.0191 130.953C63.5023 131.704 62.9351 132.419 62.3214 133.093L61.8925 133.569C61.5715 133.902 62.1036 133.364 61.8925 133.569L61.6389 133.813C61.3104 134.146 60.965 134.461 60.604 134.758C59.8862 135.368 59.132 135.933 58.3457 136.452C57.9366 136.78 57.6732 137.255 57.6124 137.774C57.5516 138.293 57.6982 138.814 58.0206 139.226C58.3562 139.623 58.8324 139.875 59.3507 139.932C59.869 139.989 60.3897 139.845 60.8047 139.53L60.8293 139.479Z" fill="#D77E60"/>
<path d="M69.1093 130.577C98.9418 130.905 128.698 133.588 158.098 138.601C160.613 139.039 161.109 135.109 158.597 134.686C129.202 129.671 99.4511 126.987 69.6236 126.66C67.0862 126.624 66.5718 130.541 69.1093 130.577Z" fill="#D77E60"/>
<path d="M70.3605 157.51C96.6561 160.848 123.109 162.835 149.614 163.464C152.153 163.516 152.668 159.598 150.126 159.531C123.622 158.915 97.1692 156.933 70.8748 153.593C70.6164 153.56 70.3539 153.578 70.1023 153.645C69.8507 153.713 69.6149 153.829 69.4083 153.988C69.2017 154.146 69.0285 154.343 68.8984 154.568C68.7683 154.793 68.684 155.041 68.6502 155.298C68.6165 155.556 68.6339 155.817 68.7015 156.067C68.7692 156.317 68.8858 156.552 69.0446 156.758C69.2034 156.963 69.4014 157.135 69.6272 157.264C69.8529 157.393 70.1021 157.477 70.3605 157.51Z" fill="#D77E60"/>
<path d="M61.9052 146.677L73.8304 139.28C74.236 138.95 74.4968 138.476 74.5575 137.958C74.6181 137.44 74.474 136.92 74.1555 136.506C73.8198 136.11 73.3447 135.856 72.8269 135.797C72.3091 135.737 71.7877 135.877 71.3692 136.187L59.444 143.584C59.2397 143.745 59.0692 143.944 58.9422 144.171C58.8153 144.397 58.7344 144.647 58.7042 144.904C58.674 145.162 58.6952 145.423 58.7663 145.672C58.8375 145.921 58.9572 146.154 59.1189 146.357C59.4523 146.757 59.928 147.013 60.4469 147.073C60.9658 147.132 61.4881 146.991 61.9052 146.677Z" fill="#D77E60"/>
<path d="M76.6778 142.159L168.687 149.113C171.231 149.308 171.745 145.391 169.201 145.196L77.1922 138.242C74.6481 138.047 74.1338 141.964 76.6778 142.159Z" fill="#D77E60"/>
<path d="M164.832 232.995C172.93 237.545 181.348 241.508 190.021 244.851C190.496 245.001 191.01 244.968 191.462 244.757C191.914 244.547 192.27 244.175 192.459 243.716C192.648 243.257 192.656 242.743 192.482 242.279C192.308 241.814 191.965 241.432 191.52 241.208C182.849 237.854 174.43 233.886 166.329 229.336C165.841 229.143 165.297 229.149 164.813 229.352C164.33 229.556 163.946 229.94 163.744 230.423C163.558 230.909 163.567 231.447 163.77 231.926C163.973 232.405 164.353 232.788 164.832 232.995Z" fill="#D77E60"/>
<path d="M168.601 213.493C177.244 216.59 185.702 220.174 193.934 224.229C196.226 225.353 197.708 221.696 195.431 220.57C187.196 216.522 178.739 212.938 170.098 209.835C167.698 208.965 166.186 212.626 168.601 213.493Z" fill="#D77E60"/>
<path d="M162.974 230.198L162.99 230.307L162.842 229.276L162.858 229.385L163.238 228.454L164.077 227.935L165.105 228.059L164.979 228.077L165.786 228.679C165.884 228.831 165.946 229.002 165.97 229.18L166.015 228.711L166.119 227.755L166.336 225.683L166.745 221.701C167.016 218.998 167.303 216.294 167.576 213.608C167.625 213.097 167.472 212.589 167.15 212.189C166.828 211.789 166.363 211.53 165.852 211.466C165.341 211.402 164.825 211.539 164.413 211.847C164.001 212.155 163.725 212.61 163.644 213.117L162.415 225.047L162.117 227.896C161.851 228.957 162.011 230.078 162.563 231.022C162.892 231.451 163.356 231.756 163.881 231.889C164.406 232.023 164.961 231.976 165.457 231.757C165.736 231.638 165.988 231.465 166.199 231.248C166.409 231.03 166.574 230.773 166.683 230.491C166.792 230.209 166.844 229.909 166.834 229.607C166.825 229.306 166.754 229.009 166.628 228.735C166.404 228.266 166.01 227.9 165.524 227.712C165.038 227.523 164.499 227.526 164.015 227.72C163.535 227.934 163.159 228.327 162.968 228.814C162.777 229.301 162.785 229.843 162.992 230.323L162.974 230.198Z" fill="#D77E60"/>
<path d="M229.591 231.161C229.204 232.443 228.694 233.685 228.07 234.871L227.816 235.338L227.699 235.53C227.544 235.792 227.373 236.055 227.201 236.303C226.822 236.917 226.409 237.508 225.963 238.075L225.319 238.837L225.013 239.168L224.818 239.371C224.944 239.241 224.941 239.225 224.818 239.371C224.355 239.835 223.859 240.289 223.406 240.705C222.952 241.121 222.353 241.525 221.798 241.907L220.946 242.444C221.285 242.236 220.773 242.468 220.741 242.473L220.266 242.732C219.791 242.952 219.419 243.345 219.226 243.829C219.033 244.314 219.033 244.853 219.227 245.336C219.444 245.811 219.839 246.182 220.326 246.371C220.814 246.561 221.357 246.553 221.84 246.351C227.329 243.482 231.452 238.562 233.301 232.673C233.5 232.188 233.496 231.644 233.292 231.162C233.088 230.68 232.7 230.298 232.213 230.101C231.725 229.904 231.179 229.908 230.694 230.112C230.21 230.316 229.826 230.703 229.627 231.188L229.591 231.161Z" fill="#D77E60"/>
<path d="M164.348 222.426C159.425 220.609 160.563 214.211 161.896 210.416C163.229 206.621 164.907 200.975 169.336 199.449C171.749 198.61 170.158 194.994 167.762 195.83C161.911 197.846 159.436 204.866 157.797 210.22C156.621 213.347 156.453 216.761 157.316 219.985C157.712 221.354 158.416 222.615 159.375 223.672C160.335 224.729 161.523 225.554 162.851 226.084C165.251 226.954 166.75 223.311 164.348 222.426Z" fill="#D77E60"/>
<path d="M169.06 212.327C169.238 211.999 169.072 212.405 169.047 212.233L169.229 211.936L169.649 211.287C169.957 210.86 170.269 210.464 170.612 210.064L170.848 209.807C170.848 209.807 171.212 209.436 171.028 209.606C170.844 209.776 171.153 209.588 171.171 209.49L171.481 209.191C171.87 208.839 172.278 208.51 172.702 208.203L173.27 207.803L173.636 207.559C173.885 207.396 173.369 207.709 173.636 207.559C173.903 207.409 174.559 207.061 175.025 206.85C175.492 206.64 175.995 206.457 176.547 206.282L176.987 206.219L177.851 206.096C178.371 206.022 178.841 205.744 179.157 205.325C179.473 204.906 179.609 204.38 179.535 203.862C179.461 203.344 179.183 202.876 178.763 202.562C178.342 202.249 177.813 202.114 177.293 202.189C174.784 202.677 172.415 203.717 170.361 205.233C168.306 206.748 166.617 208.702 165.418 210.95C165.224 211.435 165.229 211.977 165.432 212.458C165.636 212.94 166.022 213.321 166.506 213.521C166.993 213.707 167.533 213.7 168.015 213.501C168.496 213.301 168.883 212.925 169.094 212.45L169.06 212.327Z" fill="#D77E60"/>
<path d="M198.452 226.008C205.008 221.622 212.22 218.299 219.82 216.162C220.059 216.058 220.275 215.908 220.455 215.721C220.636 215.533 220.778 215.313 220.873 215.071C220.968 214.829 221.014 214.572 221.009 214.312C221.004 214.053 220.947 213.797 220.843 213.56C220.623 213.092 220.231 212.726 219.748 212.536C219.265 212.347 218.727 212.35 218.245 212.543C210.32 214.801 202.807 218.308 195.993 222.93C193.872 224.349 196.349 227.44 198.452 226.008Z" fill="#D77E60"/>
<path d="M192.726 224.067C194.002 226.558 194.578 229.346 194.392 232.138C194.311 233.493 194.055 234.832 193.631 236.122C193.394 236.844 193.103 237.546 192.761 238.224C192.637 238.481 192.512 238.722 192.37 238.966L192.083 239.422L191.939 239.649C191.764 239.882 191.871 239.85 192.3 239.598L193.765 239.979L193.641 239.901L194.269 240.704L194.358 241.329L193.979 242.261L194.059 242.153L193.251 242.779L193.361 242.763L191.762 242.785L191.871 242.769C194.269 243.623 195.766 239.964 193.368 239.11C192.994 238.968 192.589 238.927 192.194 238.992C191.799 239.057 191.428 239.226 191.12 239.482C190.812 239.737 190.577 240.069 190.441 240.444C190.305 240.819 190.271 241.224 190.344 241.615C190.428 242.018 190.616 242.393 190.888 242.702C191.161 243.012 191.509 243.245 191.9 243.381C192.29 243.516 192.709 243.548 193.116 243.474C193.524 243.401 193.905 243.223 194.223 242.959C195.195 242.026 195.947 240.889 196.424 239.631C196.905 238.583 197.286 237.493 197.561 236.374C198.828 231.756 198.359 226.838 196.243 222.544C196.145 222.298 195.999 222.075 195.813 221.886C195.626 221.698 195.404 221.549 195.158 221.448C194.913 221.347 194.649 221.296 194.384 221.299C194.118 221.301 193.855 221.357 193.611 221.462C193.368 221.568 193.147 221.721 192.964 221.912C192.781 222.104 192.638 222.33 192.544 222.578C192.45 222.825 192.407 223.089 192.418 223.354C192.428 223.618 192.492 223.877 192.605 224.116L192.726 224.067Z" fill="#D77E60"/>
<path d="M192.569 246.082C197.042 246.365 201.521 245.605 205.65 243.863C206.129 243.653 206.505 243.264 206.697 242.779C206.889 242.295 206.881 241.755 206.675 241.277C206.461 240.803 206.071 240.43 205.586 240.237C205.101 240.045 204.559 240.048 204.076 240.245C201.436 241.377 198.614 242.029 195.744 242.168C194.858 242.229 193.969 242.228 193.083 242.165C192.563 242.106 192.039 242.251 191.624 242.57C191.209 242.888 190.934 243.354 190.859 243.87C190.803 244.388 190.949 244.906 191.268 245.318C191.586 245.73 192.052 246.004 192.569 246.082Z" fill="#D77E60"/>
<path d="M217.583 212.734C210.935 214.433 206.585 219.663 203.373 225.449C201.519 228.364 200.267 231.617 199.691 235.017C199.445 236.682 199.724 238.381 200.489 239.88C201.255 241.379 202.468 242.604 203.963 243.386C206.255 244.51 207.752 240.851 205.462 239.743C203.172 238.635 203.39 235.557 204.004 233.572C204.861 231.064 205.984 228.653 207.352 226.38C209.769 222.207 213.194 217.906 218.094 216.648C218.61 216.562 219.072 216.282 219.386 215.866C219.7 215.45 219.84 214.93 219.779 214.414C219.701 213.898 219.422 213.433 219.002 213.12C218.583 212.806 218.056 212.67 217.536 212.741L217.583 212.734Z" fill="#D77E60"/>
<path d="M231.671 212.843C224.932 215.245 218.962 219.403 214.382 224.881C211.99 227.708 210.185 230.98 209.074 234.507C208.073 237.935 207.927 242.07 210.314 244.983C212.701 247.895 217.663 248.415 219.833 244.979C221.132 242.848 218.017 240.454 216.66 242.625C216.502 242.851 216.296 243.04 216.057 243.179C215.817 243.317 215.551 243.403 215.275 243.428C215 243.454 214.722 243.42 214.461 243.328C214.201 243.236 213.963 243.088 213.766 242.895C213.247 242.346 212.85 241.695 212.602 240.983C212.354 240.271 212.26 239.514 212.326 238.763C212.661 235.099 214.083 231.615 216.41 228.754C220.661 223.064 226.532 218.775 233.259 216.444C235.651 215.576 234.077 211.957 231.669 212.827L231.671 212.843Z" fill="#D77E60"/>
<path d="M223.134 225.002C220.982 225.949 219.089 227.394 217.612 229.217C216.135 231.04 215.118 233.188 214.646 235.481C214.411 236.632 214.32 237.807 214.376 238.98C214.364 240.158 214.602 241.325 215.074 242.405C215.288 242.801 215.584 243.147 215.944 243.42C216.304 243.693 216.718 243.885 217.158 243.986C217.599 244.086 218.057 244.091 218.5 244.001C218.943 243.911 219.362 243.727 219.728 243.463C220.79 242.687 221.737 241.768 222.544 240.732C224.483 238.538 226.075 236.062 227.265 233.391C227.364 233.151 227.415 232.894 227.414 232.634C227.414 232.374 227.362 232.117 227.261 231.878C227.161 231.638 227.014 231.42 226.829 231.237C226.644 231.054 226.425 230.909 226.183 230.811C225.942 230.712 225.683 230.662 225.422 230.663C225.161 230.664 224.903 230.716 224.662 230.816C224.421 230.917 224.202 231.063 224.018 231.248C223.834 231.432 223.688 231.651 223.589 231.891C222.798 233.68 221.79 235.366 220.588 236.913C220.016 237.653 219.406 238.362 218.76 239.04C218.412 239.405 218.044 239.75 217.658 240.074C217.558 240.129 217.465 240.196 217.382 240.273C217.382 240.273 217.465 240.182 217.492 240.258C217.83 240.355 218.163 240.473 218.487 240.61C218.566 240.599 218.516 240.813 218.474 240.516C218.519 240.829 218.434 240.235 218.423 240.157L218.338 239.562C218.309 239.359 218.282 239.172 218.253 238.969C218.224 238.766 218.157 238.297 218.202 238.609C218.196 237.749 218.288 236.89 218.477 236.05C218.505 235.916 218.539 235.783 218.581 235.652C218.581 235.652 218.502 235.887 218.581 235.652C218.659 235.418 218.686 235.27 218.756 235.085C218.909 234.645 219.088 234.215 219.293 233.796L219.554 233.265L219.691 232.99C219.691 232.99 219.576 233.198 219.691 232.99C219.806 232.782 220.203 232.199 220.486 231.824C221.551 230.416 222.978 229.319 224.616 228.65C225.066 228.429 225.415 228.048 225.593 227.582C225.772 227.116 225.766 226.6 225.579 226.138C225.391 225.676 225.035 225.303 224.581 225.092C224.128 224.881 223.611 224.849 223.134 225.002Z" fill="#D77E60"/>
<path d="M226.254 235.625C228.61 235.292 230.832 234.33 232.684 232.841C234.524 231.481 235.837 229.53 236.399 227.319C236.695 226.29 236.62 225.192 236.187 224.214C235.755 223.236 234.992 222.44 234.031 221.963C232.64 221.627 231.175 221.768 229.873 222.366C229.011 222.637 228.17 222.971 227.356 223.363C226.231 223.909 225.208 224.643 224.332 225.533C223.483 226.43 222.903 227.547 222.66 228.755C222.596 229.273 222.74 229.796 223.06 230.21C223.38 230.624 223.851 230.896 224.371 230.966C224.889 231.014 225.406 230.864 225.819 230.548C226.231 230.232 226.509 229.772 226.595 229.261C226.683 228.866 226.449 229.585 226.606 229.339C226.652 229.253 226.687 229.163 226.712 229.069C226.696 228.96 226.91 228.77 226.908 228.642C226.943 228.893 226.683 228.977 226.921 228.736L227.053 228.542C227.176 228.373 227.308 228.21 227.449 228.055C227.599 227.874 227.449 228.055 227.336 228.167C227.397 228.115 227.453 228.059 227.505 227.999L227.965 227.63L228.358 227.351L228.623 227.185C228.768 227.085 228.207 227.42 228.623 227.185C229.302 226.811 230.013 226.496 230.748 226.244L231.816 225.868L232.303 225.799C232.808 225.631 232.02 225.839 232.303 225.799L232.79 225.729C233.104 225.684 232.339 225.714 232.79 225.729C232.978 225.702 232.81 225.87 232.572 225.664L232.758 225.733C233.081 225.863 232.391 225.515 232.586 225.646C232.781 225.778 232.276 225.276 232.586 225.646C232.586 225.646 232.606 225.787 232.687 225.792C232.442 225.651 232.469 225.392 232.59 225.678C232.711 225.963 232.53 225.256 232.59 225.678L232.653 226.115C232.726 226.631 232.709 225.725 232.653 226.115C232.596 226.506 232.709 226.506 232.594 226.714C232.479 226.921 232.614 226.854 232.623 226.917C232.571 227.227 232.603 226.776 232.601 226.761C232.523 226.922 232.461 227.092 232.416 227.265L232.232 227.659C232.097 227.949 232.306 227.504 232.338 227.5C232.369 227.495 232.178 227.73 232.111 227.82C231.868 228.173 231.606 228.514 231.327 228.84L231.076 229.1C230.883 229.319 231.43 228.778 231.076 229.1L230.55 229.573C230.185 229.885 229.797 230.17 229.39 230.425C229.39 230.425 228.963 230.693 229.244 230.525L229.037 230.651L228.333 230.99L227.666 231.261C227.429 231.317 227.199 231.397 226.979 231.503C227.197 231.344 227.294 231.458 227.089 231.487L226.665 231.547C226.38 231.604 226.091 231.645 225.801 231.671C225.281 231.745 224.811 232.023 224.495 232.442C224.179 232.86 224.043 233.387 224.117 233.905C224.191 234.423 224.469 234.891 224.89 235.205C225.31 235.518 225.839 235.653 226.36 235.578L226.254 235.625Z" fill="#D77E60"/>
<path d="M231.888 216.161L231.901 216.255L231.827 215.739C232.016 216.443 232.119 217.167 232.135 217.896L232.062 217.38C232.065 218.174 231.968 218.964 231.773 219.734L231.894 219.238C231.81 219.574 231.702 219.904 231.571 220.225C231.447 220.469 231.375 220.735 231.36 221.007C231.344 221.279 231.386 221.551 231.481 221.806C231.577 222.061 231.724 222.294 231.915 222.49C232.105 222.685 232.334 222.839 232.588 222.942C232.841 223.045 233.113 223.095 233.387 223.088C233.66 223.081 233.93 223.018 234.178 222.903C234.426 222.787 234.647 222.622 234.828 222.417C235.009 222.212 235.146 221.972 235.229 221.712C235.673 220.665 235.931 219.549 235.992 218.414C236.032 217.778 236.016 217.14 235.944 216.507C235.852 215.864 235.713 215.228 235.528 214.605C235.32 214.13 234.933 213.755 234.449 213.563C234.194 213.462 233.922 213.413 233.647 213.419C233.373 213.426 233.102 213.487 232.852 213.599C232.616 213.698 232.401 213.843 232.221 214.025C232.04 214.207 231.898 214.422 231.801 214.658L231.664 215.157C231.634 215.507 231.684 215.86 231.811 216.188L231.888 216.161Z" fill="#D77E60"/>
<path d="M199.622 248.679L296.656 234.82C297.177 234.746 297.647 234.469 297.963 234.05C298.279 233.631 298.415 233.104 298.341 232.586C298.267 232.068 297.989 231.601 297.568 231.287C297.148 230.973 296.619 230.839 296.098 230.913L199.064 244.771C198.544 244.846 198.074 245.123 197.758 245.542C197.442 245.961 197.306 246.487 197.38 247.005C197.454 247.524 197.732 247.991 198.152 248.305C198.573 248.618 199.102 248.753 199.622 248.679Z" fill="#D77E60"/>
<path d="M298.701 236.011C302.581 234.789 306.713 234.6 310.686 235.463C314.659 236.325 318.334 238.209 321.344 240.927C321.765 241.242 322.295 241.376 322.816 241.302C323.337 241.227 323.808 240.95 324.124 240.53C324.441 240.111 324.577 239.584 324.503 239.065C324.428 238.546 324.15 238.078 323.729 237.764C320.157 234.625 315.818 232.478 311.147 231.535C306.475 230.593 301.635 230.89 297.111 232.395C296.635 232.608 296.262 232.998 296.07 233.481C295.879 233.965 295.884 234.503 296.086 234.982C296.304 235.456 296.697 235.829 297.185 236.021C297.672 236.213 298.216 236.209 298.701 236.011Z" fill="#D77E60"/>
<path d="M197.523 245.981C196.148 246.219 194.906 246.944 194.026 248.023C193.146 249.101 192.687 250.46 192.735 251.848C192.702 253.345 193.121 254.817 193.937 256.074C194.754 257.33 195.931 258.313 197.316 258.896C200.749 260.495 204.678 260.285 208.308 260.341C213.129 260.434 217.955 260.558 222.752 260.479C242.054 260.518 261.343 259.943 280.618 258.753C291.527 258.078 302.423 257.202 313.306 256.126C315.851 255.874 315.277 251.969 312.748 252.219C278.988 255.539 245.069 256.96 211.153 256.473C207.474 256.409 203.072 256.894 199.548 255.563C198.826 255.378 198.173 254.988 197.671 254.439C197.168 253.891 196.838 253.208 196.719 252.475C196.57 251.428 196.871 250.061 198.081 249.888C198.601 249.814 199.071 249.536 199.387 249.117C199.703 248.699 199.839 248.172 199.765 247.654C199.691 247.136 199.413 246.668 198.993 246.354C198.572 246.041 198.043 245.906 197.523 245.981Z" fill="#D77E60"/>
<path d="M316.432 257.594L329.695 248.905C329.9 248.744 330.07 248.545 330.197 248.318C330.324 248.091 330.405 247.842 330.435 247.585C330.465 247.327 330.444 247.066 330.373 246.817C330.302 246.567 330.182 246.335 330.021 246.132C329.689 245.728 329.213 245.469 328.693 245.41C328.173 245.35 327.65 245.494 327.234 245.812L313.971 254.5C313.767 254.661 313.596 254.861 313.469 255.087C313.342 255.314 313.262 255.563 313.231 255.821C313.201 256.078 313.222 256.339 313.293 256.588C313.364 256.838 313.484 257.071 313.646 257.274C313.807 257.477 314.008 257.646 314.235 257.772C314.463 257.898 314.713 257.978 314.972 258.008C315.23 258.038 315.493 258.017 315.743 257.945C315.994 257.874 316.228 257.755 316.432 257.594Z" fill="#D77E60"/>
<path d="M322.741 257.777L321.905 284.578C321.834 287.108 325.769 287.615 325.84 285.085L326.676 258.283C326.763 255.751 322.829 255.244 322.741 257.777Z" fill="#D77E60"/>
<path d="M366.792 260.305C368.389 263.857 365.893 267.706 362.7 269.358C358.556 271.545 353.477 271.218 348.961 271.017C341.057 270.663 329.039 270.673 325.258 262.154C325.038 261.691 324.646 261.331 324.165 261.15C323.683 260.97 323.149 260.983 322.676 261.188C322.204 261.392 321.829 261.771 321.632 262.245C321.435 262.719 321.431 263.25 321.62 263.727C326.476 274.612 341.205 274.836 351.424 275.02C356.712 275.126 362.75 274.869 366.907 271.213C370.479 268.168 372.374 263.144 370.378 258.709C370.158 258.245 369.766 257.885 369.285 257.704C368.803 257.524 368.269 257.537 367.796 257.742C367.324 257.946 366.949 258.325 366.752 258.799C366.555 259.273 366.551 259.804 366.74 260.281L366.792 260.305Z" fill="#D77E60"/>
<path d="M322.097 286.033C323.971 289.308 326.785 291.95 330.179 293.622C333.572 295.294 337.391 295.919 341.147 295.418C341.667 295.343 342.137 295.066 342.453 294.647C342.769 294.228 342.905 293.702 342.831 293.184C342.757 292.665 342.479 292.198 342.059 291.884C341.638 291.571 341.109 291.436 340.589 291.51C337.689 291.894 334.741 291.43 332.103 290.176C329.466 288.921 327.252 286.931 325.733 284.446C325.509 283.977 325.115 283.611 324.629 283.422C324.143 283.234 323.604 283.237 323.12 283.432C322.881 283.536 322.665 283.686 322.484 283.873C322.304 284.06 322.162 284.281 322.067 284.522C321.972 284.764 321.926 285.022 321.931 285.281C321.936 285.54 321.992 285.796 322.097 286.033Z" fill="#D77E60"/>
<path d="M339.29 277.932C338.816 289.579 338.386 301.229 337.999 312.884C337.754 318.65 337.546 324.41 337.374 330.166C337.271 332.924 337.09 335.693 337.083 338.453C336.986 339.494 337.138 340.542 337.527 341.513C337.917 342.483 338.532 343.347 339.323 344.034C341.298 345.634 343.683 342.47 341.692 340.873C340.244 339.708 341.113 335.804 341.172 334.201L341.46 326.345L342.055 310.311L343.234 278.501C343.323 275.985 339.386 275.462 339.301 278.01L339.29 277.932Z" fill="#D77E60"/>
<path d="M334.611 295.889C334.293 304.132 333.969 312.376 333.64 320.62C333.471 324.711 333.286 328.804 333.164 332.889C332.811 336.295 333.503 339.727 335.147 342.733C336.483 344.902 339.574 342.42 338.259 340.279C336.399 337.243 337.106 332.996 337.234 329.628L337.659 318.802C337.947 311.318 338.246 303.833 338.555 296.346C338.644 293.83 334.707 293.307 334.607 295.857L334.611 295.889Z" fill="#D77E60"/>
<path d="M341.69 280.811C350.2 283.13 359.2 283.006 367.65 280.453C368.09 280.215 368.426 279.821 368.589 279.35C368.752 278.878 368.731 278.363 368.531 277.906C368.331 277.449 367.966 277.084 367.507 276.883C367.049 276.682 366.532 276.66 366.057 276.821C358.611 279.054 350.689 279.169 343.186 277.153C342.698 276.972 342.158 276.984 341.678 277.186C341.197 277.388 340.812 277.765 340.601 278.239C340.407 278.725 340.412 279.267 340.616 279.748C340.819 280.229 341.205 280.611 341.69 280.811Z" fill="#D77E60"/>
<path d="M362.669 281.037C361.009 301.189 358.272 321.24 354.468 341.106C353.993 343.614 357.939 344.087 358.418 341.61C362.205 321.743 364.937 301.693 366.604 281.543C366.819 279.009 362.884 278.502 362.669 281.037Z" fill="#D77E60"/>
<path d="M339.268 343.867C340.232 345.167 341.494 346.222 342.948 346.943C344.402 347.664 346.008 348.031 347.633 348.015C351.6 348.07 355.206 346.391 358.674 344.636C359.148 344.415 359.521 344.023 359.714 343.538C359.907 343.054 359.906 342.515 359.712 342.031C359.498 341.555 359.104 341.181 358.615 340.991C358.126 340.801 357.582 340.81 357.099 341.017C354.305 342.437 351.297 344.047 348.082 344.091C346.98 344.152 345.881 343.939 344.883 343.472C343.884 343.004 343.019 342.298 342.363 341.415C342.211 341.189 342.013 340.997 341.782 340.851C341.551 340.705 341.292 340.608 341.021 340.567C340.751 340.525 340.475 340.54 340.21 340.61C339.945 340.68 339.698 340.804 339.484 340.974C339.269 341.144 339.092 341.356 338.964 341.597C338.836 341.838 338.76 342.102 338.739 342.374C338.719 342.646 338.756 342.919 338.847 343.176C338.937 343.433 339.081 343.668 339.268 343.867Z" fill="#D77E60"/>
<path d="M369.487 262.233C369.012 267.883 368.542 273.532 368.077 279.18C367.824 282.231 368.181 288.32 364.395 289.419C363.913 289.626 363.532 290.014 363.337 290.5C363.142 290.985 363.148 291.527 363.354 292.008C363.575 292.48 363.969 292.849 364.455 293.041C364.941 293.233 365.483 293.231 365.969 293.037C370.695 291.677 371.485 285.982 371.826 281.866L373.42 262.724C373.619 260.192 369.686 259.7 369.487 262.233Z" fill="#D77E60"/>
<path d="M328.916 253.546C335.543 257.612 342.983 260.19 350.718 261.102C357.616 261.711 365.006 259.252 368.028 252.585C369.075 250.266 365.402 248.781 364.354 251.1C361.77 256.796 354.86 257.783 349.325 256.963C342.955 255.912 336.841 253.68 331.301 250.382C329.114 249.1 326.763 252.274 328.916 253.546Z" fill="#D77E60"/>
<path d="M326.471 250.562C325.153 252.96 324.465 255.65 324.471 258.381C324.477 261.113 325.177 263.798 326.506 266.186C326.73 266.656 327.124 267.023 327.609 267.214C328.095 267.406 328.635 267.406 329.122 267.216C329.602 267.002 329.979 266.61 330.173 266.124C330.367 265.637 330.362 265.094 330.16 264.612C329.869 264.135 329.611 263.639 329.387 263.127C329.27 262.861 329.166 262.588 329.078 262.31C329.051 262.171 329.03 262.03 329.018 261.888C329.018 261.888 328.973 261.576 329.002 261.779C328.7 260.678 328.538 259.544 328.52 258.403C328.523 257.864 328.558 257.327 328.627 256.793C328.679 256.243 328.767 255.698 328.89 255.16C329.204 254.059 329.65 252.999 330.218 252.004C330.413 251.519 330.408 250.977 330.204 250.496C330 250.014 329.615 249.633 329.13 249.433C328.643 249.246 328.103 249.254 327.622 249.453C327.14 249.653 326.753 250.029 326.542 250.504L326.471 250.562Z" fill="#D77E60"/>
<path d="M366.006 251.773C365.652 257.15 365.46 262.536 365.463 267.943C365.416 268.458 365.568 268.972 365.888 269.38C366.208 269.787 366.672 270.058 367.186 270.136C367.707 270.2 368.233 270.056 368.649 269.737C369.065 269.418 369.339 268.949 369.411 268.431C369.395 263.043 369.585 257.641 369.954 252.262C370.005 251.743 369.855 251.225 369.534 250.814C369.213 250.403 368.746 250.131 368.228 250.052C367.706 249.994 367.181 250.142 366.766 250.463C366.351 250.785 366.078 251.255 366.006 251.773Z" fill="#D77E60"/>
<path d="M329.077 233.348C327.579 238.027 327.297 243.006 328.259 247.819C328.333 248.337 328.61 248.804 329.031 249.118C329.451 249.432 329.98 249.566 330.501 249.492C331.022 249.418 331.492 249.141 331.807 248.722C332.123 248.303 332.259 247.776 332.185 247.258C331.315 243.132 331.508 238.852 332.748 234.817C332.934 234.331 332.925 233.793 332.722 233.314C332.519 232.835 332.139 232.452 331.66 232.246C331.174 232.051 330.631 232.055 330.147 232.255C329.663 232.455 329.277 232.837 329.072 233.317L329.077 233.348Z" fill="#D77E60"/>
<path d="M335.02 236.135C340.13 233.973 345.631 232.878 351.18 232.918C353.962 232.872 356.755 233.015 359.526 233.226C360.888 233.334 362.267 233.456 363.634 233.596C364.331 233.655 366.579 233.574 366.918 234.148C368.238 236.319 371.347 233.85 370.029 231.694C368.711 229.537 364.585 229.712 362.232 229.506C358.984 229.204 355.746 228.981 352.399 228.996C345.898 228.813 339.431 230.014 333.43 232.519C332.964 232.738 332.601 233.129 332.42 233.609C332.238 234.088 332.25 234.62 332.455 235.09C332.659 235.56 333.04 235.932 333.516 236.128C333.992 236.323 334.525 236.327 335.004 236.138L335.02 236.135Z" fill="#D77E60"/>
<path d="M367.55 232.287C368.488 239.268 367.634 246.375 365.067 252.944C364.969 253.184 364.919 253.441 364.921 253.7C364.922 253.959 364.975 254.216 365.076 254.455C365.177 254.694 365.324 254.91 365.51 255.092C365.695 255.274 365.914 255.418 366.156 255.515C366.397 255.613 366.655 255.662 366.916 255.66C367.176 255.658 367.434 255.605 367.674 255.505C367.914 255.404 368.132 255.257 368.315 255.072C368.498 254.887 368.643 254.669 368.741 254.429C371.564 247.204 372.504 239.389 371.474 231.71C371.4 231.192 371.122 230.725 370.702 230.411C370.281 230.097 369.753 229.963 369.232 230.037C368.711 230.111 368.241 230.389 367.925 230.808C367.61 231.227 367.474 231.753 367.548 232.271L367.55 232.287Z" fill="#D77E60"/>
<path d="M330.912 239.912C337.089 241.786 343.528 242.665 349.987 242.514C353.167 242.442 356.334 242.096 359.455 241.481C362.152 240.952 364.933 240.22 366.599 237.861C368.048 235.772 364.877 233.322 363.424 235.492C361.971 237.661 358.92 237.618 356.835 237.948C348.647 239.255 340.27 238.678 332.346 236.262C329.917 235.525 328.404 239.185 330.849 239.921L330.912 239.912Z" fill="#D77E60"/>
<path d="M373.107 238.207C399.52 235.743 425.905 233.011 452.263 230.012C459.832 229.144 467.398 228.255 474.961 227.345C475.343 227.28 475.698 227.107 475.983 226.846C476.268 226.585 476.471 226.247 476.567 225.873C476.663 225.5 476.648 225.107 476.524 224.742C476.399 224.377 476.172 224.056 475.867 223.818C475.164 223.171 474.275 222.758 473.324 222.636C472.373 222.515 471.408 222.691 470.562 223.14C468.311 224.323 469.881 228.022 472.136 226.759C472.765 226.446 472.982 226.511 473.498 226.979L474.403 223.437C448.067 226.592 421.7 229.486 395.3 232.119C387.714 232.862 380.13 233.589 372.549 234.3C370.003 234.536 370.576 238.441 373.107 238.207Z" fill="#D77E60"/>
<path d="M369.18 249.98C382.865 243.688 398.026 242.671 412.899 241.886C428.579 241.034 444.198 239.745 459.758 237.602C468.585 236.342 477.37 234.895 486.112 233.264C488.622 232.778 488.08 228.868 485.553 229.357C469.881 232.361 454.075 234.618 438.136 236.129C422.816 237.599 407.297 237.567 392.047 239.633C383.622 240.641 375.393 242.892 367.63 246.31C367.164 246.529 366.802 246.92 366.62 247.4C366.438 247.88 366.45 248.411 366.655 248.881C366.86 249.351 367.24 249.724 367.716 249.919C368.192 250.115 368.726 250.118 369.204 249.929L369.18 249.98Z" fill="#D77E60"/>
<path d="M478.65 228.716L496.001 230.018L494.67 226.874C493.44 228.224 491.885 229.241 490.152 229.829C488.419 230.417 486.566 230.556 484.765 230.235C484.244 230.171 483.718 230.315 483.302 230.634C482.886 230.953 482.612 231.422 482.54 231.94C482.484 232.457 482.631 232.976 482.949 233.388C483.268 233.8 483.734 234.073 484.25 234.152C486.747 234.554 489.307 234.313 491.686 233.454C494.065 232.595 496.185 231.146 497.845 229.244C498.049 228.965 498.177 228.639 498.216 228.297C498.255 227.955 498.204 227.608 498.068 227.292C497.933 226.975 497.717 226.699 497.442 226.491C497.167 226.282 496.842 226.148 496.499 226.103L479.149 224.801C478.629 224.746 478.108 224.892 477.694 225.21C477.279 225.528 477.004 225.992 476.924 226.506C476.865 227.026 477.013 227.548 477.335 227.961C477.657 228.374 478.129 228.645 478.65 228.716Z" fill="#D77E60"/>
<path d="M268.001 189.377C277.705 196.572 287.353 203.832 296.947 211.159C301.738 214.781 306.473 218.422 311.152 222.081L318.22 227.578L321.837 230.459C322.18 230.729 325.404 232.996 325.393 232.918L326.139 231.631L325.903 231.776L327.447 231.364L328.4 232.09L328.17 234.068L328.32 233.887C330.013 232.05 326.814 229.621 325.145 231.518L324.995 231.699C324.78 231.974 324.645 232.302 324.604 232.648C324.563 232.994 324.618 233.345 324.762 233.662C324.93 234.195 325.279 234.654 325.749 234.959C326.219 235.265 326.781 235.399 327.34 235.338C327.898 235.277 328.419 235.025 328.812 234.625C329.205 234.225 329.447 233.702 329.496 233.145C329.697 231.521 328.603 230.593 327.478 229.669C326.081 228.529 324.61 227.432 323.184 226.311C317.455 221.813 311.707 217.361 305.938 212.954C294.223 203.941 282.411 194.996 270.501 186.118C268.458 184.608 266.073 187.771 268.116 189.281L268.001 189.377Z" fill="#D77E60"/>
<path d="M267.403 206.623C279.27 217.294 291.184 227.889 303.147 238.407C305.089 240.108 307.346 236.946 305.532 235.244L304.956 234.688C303.104 232.943 300.737 236.12 302.571 237.851L303.147 238.407L305.532 235.244C293.568 224.715 281.654 214.125 269.791 203.475C267.943 201.762 265.529 204.945 267.403 206.623Z" fill="#D77E60"/>
<path d="M300.587 186.701L296.815 184.528C296.394 184.214 295.864 184.08 295.343 184.154C294.821 184.228 294.351 184.506 294.035 184.925C293.718 185.345 293.582 185.872 293.656 186.391C293.73 186.91 294.009 187.378 294.43 187.692L347.093 232.8C349.028 234.454 351.397 231.292 349.478 229.637L296.815 184.528L294.43 187.692L298.202 189.864C300.388 191.147 302.739 187.972 300.587 186.701Z" fill="#D77E60"/>
<path d="M271.936 189.325C273.993 183.418 281.776 185.958 285.854 187.577C291.818 190.008 298.057 191.714 304.433 192.658C304.946 192.706 305.458 192.553 305.86 192.232C306.262 191.911 306.523 191.447 306.588 190.939C306.652 190.43 306.516 189.917 306.207 189.507C305.898 189.097 305.441 188.823 304.932 188.744C301.21 188.234 297.536 187.425 293.945 186.326C290.408 185.236 287.048 183.594 283.497 182.523C278.006 180.883 270.531 181.504 268.238 187.892C267.394 190.293 271.068 191.778 271.896 189.379L271.936 189.325Z" fill="#D77E60"/>
<path d="M308.586 197.711L317.869 191.681C318.279 191.353 318.542 190.877 318.6 190.358C318.658 189.838 318.506 189.317 318.179 188.909C317.848 188.506 317.371 188.247 316.851 188.187C316.331 188.128 315.808 188.272 315.392 188.589L306.136 194.696C305.931 194.857 305.761 195.057 305.634 195.283C305.507 195.51 305.426 195.759 305.396 196.016C305.366 196.274 305.387 196.535 305.458 196.784C305.529 197.034 305.649 197.266 305.811 197.469C306.142 197.873 306.618 198.132 307.138 198.191C307.658 198.251 308.181 198.107 308.597 197.79L308.586 197.711Z" fill="#D77E60"/>
<path d="M315.835 159.261C315.412 169.718 315.836 180.191 317.102 190.578C317.176 191.096 317.454 191.564 317.875 191.878C318.295 192.191 318.824 192.326 319.345 192.252C319.865 192.177 320.335 191.9 320.651 191.481C320.967 191.062 321.103 190.536 321.029 190.018C319.813 179.976 319.407 169.853 319.815 159.745C319.92 157.226 315.998 156.702 315.882 159.254L315.835 159.261Z" fill="#D77E60"/>
<path d="M317.314 164.68C324.489 158.639 332.358 153.467 340.757 149.274C343.015 148.139 341.454 144.502 339.167 145.658C330.485 149.999 322.345 155.343 314.916 161.577C312.97 163.211 315.429 166.289 317.393 164.668L317.314 164.68Z" fill="#D77E60"/>
<path d="M318.692 191.499C328.586 193.917 338.903 194.079 348.874 191.973C351.363 191.442 350.82 187.533 348.316 188.066C338.696 190.091 328.743 189.92 319.204 187.566C318.683 187.503 318.158 187.646 317.742 187.966C317.325 188.285 317.052 188.754 316.98 189.272C316.928 189.788 317.076 190.305 317.394 190.716C317.712 191.127 318.175 191.402 318.69 191.484L318.692 191.499Z" fill="#D77E60"/>
<path d="M355.827 180.726C351.53 183.422 347.624 186.689 344.216 190.438C344.059 190.644 343.945 190.879 343.88 191.129C343.815 191.379 343.8 191.64 343.837 191.895C343.873 192.151 343.96 192.397 344.093 192.619C344.225 192.841 344.401 193.034 344.609 193.188C345.034 193.491 345.56 193.619 346.078 193.545C346.596 193.471 347.066 193.201 347.389 192.791C350.603 189.329 354.269 186.312 358.288 183.819C358.697 183.491 358.96 183.016 359.021 182.497C359.082 181.979 358.935 181.457 358.613 181.045C358.275 180.652 357.8 180.401 357.283 180.341C356.767 180.282 356.246 180.419 355.827 180.726Z" fill="#D77E60"/>
<path d="M315.342 165.121C326.457 166.266 337.604 166.965 348.785 167.218C351.309 167.272 351.839 163.353 349.281 163.288C338.122 163.032 326.975 162.338 315.84 161.206C315.328 161.158 314.816 161.311 314.414 161.632C314.012 161.953 313.751 162.417 313.686 162.926C313.621 163.434 313.758 163.948 314.067 164.357C314.376 164.767 314.833 165.041 315.342 165.121Z" fill="#D77E60"/>
<path d="M347.708 166.749C350.592 165.919 353.295 164.56 355.678 162.741C356.256 162.304 356.81 161.836 357.337 161.34C357.604 161.152 357.831 160.913 358.004 160.636C358.176 160.359 358.291 160.051 358.341 159.729C358.398 159.13 358.221 158.533 357.846 158.061C357.558 157.718 357.181 157.459 356.757 157.312C356.332 157.165 355.876 157.135 355.435 157.225C354.837 157.327 354.302 157.655 353.941 158.141C353.58 158.626 353.422 159.232 353.499 159.83C353.577 160.347 353.856 160.811 354.275 161.124C354.695 161.437 355.222 161.574 355.742 161.504C356.257 161.418 356.719 161.138 357.033 160.722C357.347 160.306 357.487 159.786 357.426 159.269C357.467 159.509 357.453 159.756 357.382 159.989C357.312 160.223 357.189 160.437 357.022 160.615C356.855 160.793 356.649 160.931 356.42 161.017C356.191 161.103 355.945 161.135 355.701 161.111L355.78 161.099C355.568 161.075 355.363 161.008 355.178 160.902C354.993 160.797 354.831 160.655 354.702 160.486C354.573 160.317 354.48 160.123 354.428 159.917C354.376 159.711 354.366 159.497 354.399 159.287L355.129 158.003C354.456 158.642 353.744 159.238 352.997 159.79C352.68 160.043 352.343 160.267 352.007 160.49L351.421 160.877C351.212 160.986 351.212 160.986 351.421 160.877L351.125 161.047C349.551 161.937 347.874 162.632 346.131 163.115C345.892 163.219 345.676 163.369 345.496 163.556C345.315 163.744 345.173 163.964 345.078 164.206C344.983 164.448 344.937 164.706 344.942 164.965C344.948 165.224 345.004 165.48 345.109 165.717C345.335 166.184 345.73 166.547 346.214 166.735C346.699 166.923 347.237 166.922 347.722 166.732L347.708 166.749Z" fill="#D77E60"/>
<path d="M340.306 146.675C346.032 149.861 351.312 153.783 356.011 158.339C356.347 158.736 356.822 158.989 357.34 159.049C357.857 159.108 358.379 158.969 358.797 158.659C359.002 158.498 359.172 158.298 359.299 158.072C359.426 157.845 359.507 157.596 359.537 157.338C359.567 157.081 359.546 156.82 359.475 156.57C359.404 156.321 359.284 156.088 359.122 155.885C353.953 150.85 348.129 146.527 341.805 143.032C341.319 142.838 340.776 142.841 340.292 143.041C339.808 143.242 339.422 143.623 339.217 144.103C339.027 144.589 339.034 145.129 339.238 145.609C339.441 146.089 339.824 146.471 340.306 146.675Z" fill="#D77E60"/>
<path d="M177.101 138.343L147.771 161.558C147.358 161.883 147.092 162.358 147.031 162.878C146.97 163.399 147.119 163.921 147.445 164.332C147.772 164.742 148.249 165.006 148.771 165.066C149.294 165.126 149.819 164.977 150.232 164.651L179.563 141.436C179.767 141.275 179.937 141.075 180.064 140.849C180.191 140.622 180.272 140.373 180.302 140.115C180.332 139.858 180.311 139.597 180.24 139.347C180.169 139.098 180.049 138.865 179.888 138.662C179.726 138.459 179.526 138.29 179.298 138.164C179.071 138.038 178.821 137.958 178.562 137.928C178.303 137.898 178.041 137.92 177.79 137.991C177.54 138.062 177.306 138.181 177.101 138.343Z" fill="#D77E60"/>
<path d="M149.135 161.124C147.203 163.412 146.079 166.268 145.937 169.251C145.937 170.574 146.325 171.867 147.052 172.972C147.779 174.078 148.814 174.948 150.031 175.477C150.275 175.599 150.542 175.671 150.816 175.686C151.089 175.701 151.363 175.659 151.619 175.564C151.876 175.468 152.11 175.321 152.306 175.131C152.503 174.941 152.658 174.713 152.762 174.461C152.866 174.209 152.916 173.938 152.91 173.665C152.903 173.393 152.84 173.125 152.724 172.878C152.608 172.631 152.443 172.411 152.237 172.231C152.032 172.052 151.791 171.916 151.53 171.834C151.419 171.775 151.304 171.722 151.187 171.676C150.998 171.703 151.389 171.854 151.187 171.676C151.025 171.532 150.856 171.396 150.68 171.27C150.79 171.365 150.873 171.497 150.68 171.27L150.447 170.984C150.447 170.984 150.423 170.812 150.268 170.738C150.113 170.665 150.427 171.066 150.268 170.738C150.109 170.41 150.064 170.321 149.986 170.109C149.907 169.897 149.838 169.747 149.97 169.999C150.102 170.251 149.954 169.89 149.943 169.812C149.896 169.59 149.863 169.366 149.847 169.14C149.831 169.03 149.818 168.936 149.802 168.827C149.787 168.718 149.775 169.309 149.802 168.827C149.773 168.624 149.839 168.407 149.872 168.195C149.881 168.04 149.908 167.887 149.951 167.737C149.951 167.737 150.039 167.342 149.922 167.534C149.806 167.726 150.015 167.282 150.026 167.248L150.152 166.895C150.257 166.625 150.365 166.371 150.489 166.114L150.877 165.356C150.752 165.597 150.877 165.356 150.972 165.231L151.165 164.901C151.493 164.391 151.839 163.895 152.187 163.415C152.503 162.995 152.639 162.468 152.565 161.95C152.491 161.431 152.213 160.963 151.792 160.649C151.371 160.334 150.841 160.199 150.32 160.274C149.799 160.348 149.328 160.626 149.012 161.046L149.135 161.124Z" fill="#D77E60"/>
<path d="M150.914 174.713C159.125 185.518 173.704 189.863 186.313 193.197C200.786 197.009 215.718 198.826 230.693 198.597C233.253 198.567 232.661 194.648 230.135 194.69C215.832 194.908 201.568 193.189 187.736 189.581C181.322 187.968 175.045 185.857 168.964 183.267C163.1 180.94 157.932 177.16 153.949 172.286C152.412 170.273 149.301 172.727 150.84 174.756L150.914 174.713Z" fill="#D77E60"/>
<path d="M280.323 174.093C263.479 182.591 246.297 190.361 228.776 197.404C228.538 197.508 228.322 197.658 228.141 197.845C227.961 198.032 227.819 198.253 227.724 198.495C227.629 198.736 227.583 198.994 227.588 199.253C227.593 199.513 227.649 199.768 227.754 200.006C227.858 200.243 228.008 200.458 228.196 200.637C228.384 200.817 228.606 200.958 228.848 201.052C229.091 201.146 229.35 201.192 229.61 201.186C229.871 201.181 230.128 201.125 230.367 201.02C247.858 193.993 265.035 186.223 281.897 177.712C284.169 176.559 282.61 172.937 280.32 174.078L280.323 174.093Z" fill="#D77E60"/>
<path d="M276.572 147.724C277.844 157.526 278.954 167.357 279.903 177.216C280.152 179.748 284.077 179.171 283.83 176.655C282.893 166.805 281.783 156.974 280.499 147.163C280.425 146.645 280.147 146.177 279.727 145.864C279.306 145.55 278.777 145.416 278.257 145.49C277.736 145.564 277.266 145.841 276.95 146.26C276.634 146.679 276.498 147.206 276.572 147.724Z" fill="#D77E60"/>
<path d="M279.115 150.152C288.05 144.261 297.049 138.478 306.111 132.804C310.599 130.036 315.097 127.267 319.605 124.497L326.211 120.475L330.078 118.153C330.957 117.49 331.9 116.917 332.895 116.443L330.923 116.214L331.136 116.359L330.374 115.064L330.397 114.551L332.982 113.464L332.812 113.393C330.493 112.304 329.012 115.961 331.315 117.051L331.485 117.123C331.974 117.307 332.515 117.297 332.996 117.094C333.478 116.892 333.863 116.513 334.071 116.036C334.284 115.633 334.371 115.177 334.321 114.725C334.271 114.273 334.086 113.847 333.79 113.501C333.493 113.155 333.1 112.906 332.66 112.785C332.22 112.665 331.753 112.678 331.32 112.824C330.199 113.343 329.14 113.986 328.165 114.742L324.414 116.984C318.993 120.246 313.587 123.544 308.197 126.876C297.578 133.464 287.048 140.199 276.609 147.08C274.486 148.484 276.947 151.578 279.071 150.174L279.115 150.152Z" fill="#D77E60"/>
<path d="M179.291 140.996C201.764 136.192 222.495 126.15 242.804 115.737C253.168 110.43 263.486 105.017 274.052 100.111C279.415 97.3736 285.065 95.2349 290.899 93.7335C295.894 92.6527 301.069 92.7096 306.036 93.9C317.146 96.5077 326.788 103.424 336.661 108.808C338.91 110.082 340.366 106.365 338.157 105.149C329.135 100.218 320.464 94.2638 310.509 91.1083C305.886 89.5632 301.019 88.8642 296.143 89.0453C290.262 89.5302 284.511 91.0372 279.15 93.4978C257.645 102.502 237.622 114.691 216.34 124.238C204.275 129.842 191.648 134.153 178.67 137.097C176.198 137.626 176.724 141.538 179.228 141.005L179.291 140.996Z" fill="#D77E60"/>
<path d="M336.144 109.344C339.523 114.137 341.59 119.724 342.142 125.556C342.694 131.388 341.712 137.265 339.292 142.61C338.245 144.928 341.919 146.413 342.966 144.094C345.633 138.099 346.693 131.519 346.043 124.999C345.392 118.478 343.054 112.239 339.255 106.891C337.774 104.821 334.663 107.275 336.144 109.344Z" fill="#D77E60"/>
<path d="M199.376 111.844C202.358 114.591 205.715 116.904 209.348 118.714C211.136 119.519 212.872 120.432 214.547 121.448C216.118 122.48 217.512 123.756 218.677 125.228C218.838 125.431 219.039 125.6 219.266 125.726C219.494 125.852 219.744 125.932 220.003 125.962C220.261 125.992 220.524 125.971 220.774 125.899C221.025 125.828 221.259 125.709 221.463 125.548C221.667 125.386 221.838 125.187 221.965 124.96C222.092 124.734 222.173 124.485 222.203 124.227C222.233 123.97 222.212 123.708 222.141 123.459C222.07 123.21 221.95 122.977 221.788 122.774C220.532 121.191 219.059 119.791 217.412 118.615C215.601 117.421 213.698 116.37 211.722 115.472C208.092 113.709 204.742 111.426 201.779 108.694C201.571 108.538 201.334 108.425 201.081 108.361C200.829 108.296 200.566 108.282 200.307 108.319C200.049 108.356 199.801 108.443 199.576 108.576C199.352 108.708 199.156 108.883 198.999 109.091C198.695 109.512 198.566 110.034 198.639 110.546C198.713 111.059 198.982 111.523 199.392 111.842L199.376 111.844Z" fill="#D77E60"/>
<path d="M196.088 93.3036C195.457 99.6925 195.554 106.131 196.377 112.496C196.451 113.014 196.728 113.482 197.149 113.795C197.569 114.109 198.098 114.244 198.619 114.17C199.14 114.095 199.61 113.818 199.925 113.399C200.241 112.98 200.377 112.454 200.303 111.935C199.521 105.925 199.427 99.8438 200.022 93.81C200.269 91.2709 196.383 90.7734 196.088 93.3036Z" fill="#D77E60"/>
<path d="M225.474 92.9185C224.976 94.9211 224.994 97.0154 225.525 99.0079C226.056 101 227.084 102.827 228.512 104.319C230.953 107.16 234.692 109.321 236.26 112.781C236.471 113.261 236.864 113.637 237.354 113.827C237.844 114.017 238.39 114.006 238.873 113.795C239.355 113.585 239.733 113.192 239.925 112.704C240.117 112.216 240.106 111.673 239.895 111.193C238.368 107.791 235.327 105.689 232.791 103.085C230.619 100.892 228.158 97.6865 229.143 94.3721C229.325 93.8856 229.314 93.3488 229.111 92.8709C228.909 92.393 228.531 92.01 228.055 91.8004C227.567 91.6077 227.023 91.6138 226.539 91.8171C226.055 92.0205 225.671 92.4051 225.469 92.8876L225.474 92.9185Z" fill="#D77E60"/>
<path d="M210.148 101.311C210.887 103.343 212.847 104.386 214.54 105.468C216.233 106.55 217.883 107.782 219.462 109.071C222.563 111.469 225.002 114.61 226.552 118.202C227.483 120.573 231.119 118.985 230.19 116.63C228.556 112.78 226.014 109.38 222.78 106.716C221.245 105.391 219.635 104.157 217.957 103.019C217.104 102.439 216.192 101.883 215.373 101.314C214.68 100.966 214.121 100.402 213.781 99.7076C213.562 99.2442 213.17 98.8839 212.688 98.7035C212.206 98.5231 211.672 98.5366 211.2 98.7408C210.727 98.9451 210.353 99.3241 210.155 99.798C209.958 100.272 209.954 100.803 210.143 101.28L210.148 101.311Z" fill="#D77E60"/>
<path d="M195.717 94.5211C197.605 96.5521 199.894 98.1741 202.44 99.2864C204.987 100.399 207.737 100.978 210.519 100.987C217.288 101.137 223.661 98.6318 229.555 95.5732C231.808 94.4061 230.236 90.6915 227.981 91.9546C219.317 96.3816 206.515 100.666 198.828 92.0672C197.131 90.1725 194.096 92.5995 195.717 94.5211Z" fill="#D77E60"/>
<path d="M200.033 85.691L200.463 83.3168L196.528 82.8103L195.793 93.2658C195.752 93.527 195.763 93.794 195.827 94.0506C195.891 94.3072 196.006 94.5482 196.165 94.7596C196.325 94.971 196.525 95.1482 196.755 95.2809C196.985 95.4135 197.239 95.499 197.502 95.5319C197.766 95.5648 198.034 95.5445 198.289 95.4725C198.545 95.4004 198.784 95.2781 198.991 95.1125C199.199 94.947 199.371 94.7417 199.497 94.5088C199.623 94.2759 199.701 94.0203 199.726 93.7569L200.463 83.3168C200.496 83.0596 200.479 82.7984 200.411 82.5481C200.344 82.2977 200.227 82.0634 200.068 81.8581C199.91 81.6527 199.712 81.4801 199.486 81.351C199.26 81.2218 199.011 81.1385 198.753 81.1053C198.494 81.072 198.232 81.0895 197.98 81.1572C197.728 81.2249 197.493 81.3413 197.286 81.4997C197.079 81.658 196.906 81.8553 196.776 82.0802C196.646 82.3051 196.562 82.5531 196.528 82.8103L196.1 85.1998C196.058 85.4611 196.07 85.7281 196.133 85.9847C196.197 86.2413 196.312 86.4823 196.472 86.6937C196.631 86.9051 196.832 87.0823 197.061 87.215C197.291 87.3476 197.545 87.4331 197.809 87.466C198.072 87.4989 198.34 87.4786 198.596 87.4066C198.852 87.3346 199.09 87.2122 199.298 87.0466C199.505 86.8811 199.677 86.6758 199.803 86.4429C199.93 86.21 200.007 85.9544 200.033 85.691Z" fill="#D77E60"/>
<path d="M197.563 85.5654C203.024 87.7837 208.753 89.9639 214.736 90.0025C217.634 90.065 220.518 89.5772 223.233 88.5654C224.456 88.2118 225.544 87.5008 226.356 86.5247C226.567 86.2563 226.722 85.9483 226.81 85.6191C226.899 85.2898 226.92 84.9461 226.872 84.6088C226.824 84.2716 226.707 83.9478 226.53 83.6566C226.353 83.3653 226.118 83.1126 225.84 82.9141C223.719 81.5266 221.284 84.6812 223.471 86.0754L223.666 86.2072L223.04 85.4192L223.07 85.6226L222.922 84.5908C223.217 84.2616 223.208 84.1993 222.895 84.4035L222.067 84.7768C221.645 84.9608 221.213 85.1235 220.775 85.2643C219.763 85.5889 218.721 85.8127 217.665 85.932C215.612 86.1766 213.537 86.1402 211.495 85.8241C207.192 85.0293 203.002 83.7214 199.015 81.9288C198.774 81.8314 198.515 81.7824 198.255 81.7843C197.994 81.7861 197.737 81.8388 197.497 81.9397C197.257 82.0406 197.039 82.1877 196.856 82.3723C196.673 82.557 196.528 82.7758 196.429 83.0161C196.331 83.2563 196.281 83.5133 196.283 83.7725C196.284 84.0318 196.337 84.2879 196.438 84.5267C196.539 84.7655 196.687 84.9825 196.872 85.1645C197.057 85.3465 197.277 85.4902 197.518 85.5877L197.563 85.5654Z" fill="#D77E60"/>
<path d="M224.648 84.4403C223.856 87.652 223.749 90.9923 224.333 94.2458C224.419 94.7585 224.699 95.2181 225.117 95.5298C225.534 95.8414 226.057 95.981 226.576 95.9191C227.094 95.8408 227.562 95.5625 227.877 95.1445C228.192 94.7266 228.33 94.2025 228.26 93.685C228.15 92.9192 228.037 92.1217 227.929 91.3715C227.874 90.9807 227.898 90.5944 227.874 90.1992C227.85 89.804 227.921 90.5277 227.854 90.0588L227.868 89.4825C227.927 87.9504 228.145 86.4282 228.517 84.94C228.551 84.6828 228.534 84.4217 228.466 84.1713C228.399 83.9209 228.282 83.6863 228.123 83.4809C227.964 83.2755 227.766 83.1033 227.541 82.9742C227.315 82.8451 227.066 82.7617 226.807 82.7286C226.287 82.6823 225.768 82.8341 225.356 83.1535C224.943 83.4729 224.668 83.9359 224.585 84.4492L224.648 84.4403Z" fill="#D77E60"/>
<path d="M199.798 80.5731L199.93 75.4346L198.235 77.1442C207.636 75.3042 217.227 74.62 226.792 75.1071C229.327 75.2394 229.841 71.3222 227.29 71.1921C217.353 70.6575 207.385 71.3474 197.614 73.2458C197.185 73.309 196.789 73.5098 196.486 73.8181C196.182 74.1263 195.989 74.525 195.934 74.9528L195.803 80.0909C195.745 82.6031 199.682 83.1255 199.735 80.5821L199.798 80.5731Z" fill="#D77E60"/>
<path d="M224.201 74.696C224.288 75.3055 224.375 75.915 224.462 76.5245C224.509 76.8527 224.556 77.1808 224.6 77.4934L224.661 77.9154C224.674 78.0092 224.687 78.1032 224.701 78.197C224.663 77.9313 224.656 77.8842 224.676 78.0249C224.668 79.2844 224.564 80.5417 224.364 81.7856C224.315 82.296 224.468 82.805 224.79 83.2047C225.112 83.6045 225.578 83.8635 226.089 83.9273C226.6 83.9911 227.116 83.8542 227.528 83.5462C227.94 83.2381 228.215 82.7828 228.296 82.2764C228.74 79.5721 228.736 76.8146 228.284 74.1128C228.21 73.5946 227.933 73.127 227.512 72.8132C227.092 72.4994 226.563 72.3651 226.042 72.4394C225.521 72.5138 225.051 72.7907 224.736 73.2097C224.42 73.6287 224.284 74.1554 224.358 74.6736L224.201 74.696Z" fill="#D77E60"/>
<path d="M225.953 75.8489C254.978 77.417 284.079 77.0492 313.061 74.7475C315.612 74.5427 315.038 70.6375 312.503 70.8401C283.875 73.126 255.129 73.502 226.456 71.9655C223.921 71.8332 223.406 75.7501 225.957 75.8802L225.953 75.8489Z" fill="#D77E60"/>
<path d="M226.63 82.9449C253.519 76.2977 281.493 82.1904 308.597 77.2669C311.096 76.8142 310.554 72.9046 308.039 73.3595C280.935 78.283 252.961 72.3903 226.071 79.0375C223.61 79.6443 224.137 83.5562 226.63 82.9449Z" fill="#D77E60"/>
<path d="M108.99 78.8856L153.299 77.8364C160.518 77.6665 167.671 77.4745 174.958 77.3269C181.671 77.1975 188.516 77.3201 194.967 79.397C197.387 80.1837 198.899 76.523 196.463 75.7385C190.113 73.9039 183.504 73.108 176.895 73.382C169.388 73.4494 161.861 73.7112 154.354 73.8902L108.479 74.9714C105.94 75.0311 106.513 78.9363 109.037 78.8788L108.99 78.8856Z" fill="#D77E60"/>
<path d="M107.474 77.2522C108.584 83.6803 115.096 85.7329 120.787 86.3075C128.401 86.9904 136.036 87.4787 143.665 88.0477L166.349 89.7682C173.234 90.284 180.206 91.186 187.112 91.0609C193.14 90.9655 199.522 89.5277 203.173 84.3492C204.64 82.2738 201.48 79.9021 199.998 81.9798C197.133 86.0413 192.12 86.9647 187.433 87.1397C181.343 87.0979 175.26 86.726 169.212 86.0259L129.306 83.0015C125.743 82.7448 122.109 82.6578 118.58 82.0773C115.511 81.5746 111.981 80.0852 111.405 76.7227C110.967 74.2175 107.04 74.7783 107.478 77.2835L107.474 77.2522Z" fill="#D77E60"/>
<path d="M276.892 97.4405L191 150.153C188.834 151.483 191.311 154.574 193.461 153.246L279.355 100.549C281.521 99.2193 279.046 96.1439 276.896 97.4718L276.892 97.4405Z" fill="#D77E60"/>
<path d="M191.866 150.38C191.107 151.601 190.788 153.043 190.963 154.468C191.137 155.892 191.794 157.215 192.825 158.217C195.022 160.471 198.252 161.653 201.078 162.924C204.255 164.373 207.476 165.715 210.74 166.95C214.012 168.205 217.458 169.1 220.824 167.87C223.23 166.984 221.639 163.368 219.249 164.251C216.859 165.135 214.255 164.072 212.017 163.211C209.417 162.211 206.834 161.15 204.27 160.027C201.917 159.079 199.622 157.996 197.396 156.783C196.207 156.091 193.949 154.308 195.03 152.671C196.411 150.56 193.245 148.142 191.857 150.317L191.866 150.38Z" fill="#D77E60"/>
<path d="M328.348 104.923C294.843 123.697 262.672 144.741 232.064 167.908C223.384 174.464 214.87 181.171 206.522 188.03C206.158 188.37 205.935 188.833 205.898 189.327C205.861 189.822 206.013 190.313 206.323 190.701C206.633 191.089 207.079 191.346 207.572 191.422C208.064 191.497 208.567 191.385 208.981 191.108C238.345 167.057 269.317 145.022 301.685 125.158C310.989 119.46 320.41 113.941 329.948 108.603C332.143 107.364 330.597 103.725 328.357 104.986L328.348 104.923Z" fill="#D77E60"/>
<path d="M243.723 113.421C219.035 126.955 195.293 142.132 172.657 158.849C166.224 163.627 159.882 168.52 153.631 173.528C153.218 173.855 152.953 174.332 152.894 174.854C152.835 175.375 152.986 175.898 153.315 176.308C153.643 176.718 154.122 176.981 154.646 177.039C155.169 177.098 155.695 176.946 156.107 176.619C177.831 159.178 200.72 143.228 224.615 128.877C231.444 124.776 238.356 120.806 245.351 116.969C247.567 115.759 246.001 112.091 243.761 113.352L243.723 113.421Z" fill="#D77E60"/>
<path d="M147.205 174.095C149.144 176.685 150.607 179.597 151.527 182.696C152.59 185.956 154.506 188.875 157.078 191.153C159.083 192.733 161.468 189.569 159.463 187.989C157.079 186.113 155.973 183.193 154.901 180.395C153.901 177.231 152.349 174.268 150.317 171.641C148.635 169.744 145.585 172.173 147.205 174.095Z" fill="#D77E60"/>
<path d="M157.629 191.09C178.171 206.768 204.37 211.335 229.284 215.432C231.812 215.853 232.293 211.924 229.782 211.517C205.542 207.531 180 203.189 160.023 187.989C157.992 186.445 155.607 189.608 157.638 191.152L157.629 191.09Z" fill="#D77E60"/>
<path d="M234.507 214.862C242.76 214.768 250.966 213.596 258.915 211.376C262.701 210.308 266.417 209.011 270.044 207.49C271.556 206.859 273.309 206.338 274.064 204.779C274.225 204.478 274.321 204.147 274.345 203.807C274.369 203.467 274.321 203.126 274.205 202.805C274.088 202.485 273.905 202.194 273.667 201.948C273.43 201.703 273.143 201.511 272.826 201.383C270.561 200.112 269.106 203.844 271.329 205.042L271.607 205.193L270.392 203.645C270.249 202.644 268.967 203.657 268.46 203.921L266.113 204.878C264.762 205.406 263.388 205.889 262.013 206.356C258.978 207.377 255.89 208.233 252.763 208.922C246.599 210.254 240.316 210.964 234.01 211.041C231.468 211.086 232.057 214.988 234.568 214.949L234.507 214.862Z" fill="#D77E60"/>
<path d="M232.989 202.32C233.195 202.651 233.374 202.999 233.522 203.36C233.549 203.548 233.67 203.722 233.728 203.905C233.733 204.005 233.747 204.104 233.77 204.202C233.811 204.483 233.77 204.202 233.757 204.108C233.762 204.304 233.789 204.497 233.84 204.686C233.866 204.874 233.895 205.077 233.922 205.265C233.949 205.452 233.978 205.655 234.005 205.843C234.027 205.94 234.042 206.04 234.047 206.14C234.047 206.14 234.116 206.624 234.072 206.312C234.027 205.999 234.072 206.312 234.085 206.406L234.128 206.703L234.067 207.286C234.045 207.478 234.013 207.668 233.972 207.857L233.918 208.152C233.918 208.152 233.843 208.529 233.931 208.246C234.019 207.962 233.931 208.246 233.947 208.355C233.962 208.465 233.971 208.527 233.859 208.639C233.799 208.823 233.728 209.003 233.648 209.179C233.493 209.568 233.311 209.945 233.104 210.309C232.998 210.562 232.946 210.835 232.952 211.108C232.958 211.382 233.022 211.652 233.139 211.899C233.289 212.259 233.545 212.566 233.872 212.781C234.199 212.995 234.584 213.108 234.976 213.103C235.368 213.098 235.75 212.977 236.072 212.755C236.395 212.533 236.644 212.22 236.787 211.857C237.737 210.147 238.236 208.226 238.238 206.273C238.239 204.321 237.743 202.4 236.795 200.692C236.575 200.224 236.184 199.857 235.7 199.668C235.217 199.479 234.68 199.482 234.198 199.675C233.718 199.889 233.34 200.281 233.146 200.768C232.952 201.254 232.957 201.797 233.159 202.279L232.989 202.32Z" fill="#D77E60"/>
<path d="M215.79 202.751C215.999 205.448 216.19 208.132 216.383 210.832C216.461 211.348 216.74 211.813 217.159 212.126C217.579 212.439 218.105 212.575 218.625 212.505C219.142 212.423 219.607 212.144 219.922 211.727C220.236 211.31 220.375 210.788 220.309 210.271C220.116 207.572 219.925 204.888 219.716 202.19C219.642 201.672 219.364 201.205 218.944 200.891C218.523 200.577 217.995 200.443 217.474 200.517C216.959 200.603 216.496 200.883 216.183 201.299C215.869 201.715 215.728 202.235 215.79 202.751Z" fill="#D77E60"/>
<path d="M213.065 202.981C220.881 204.402 228.898 204.339 236.694 202.796C239.187 202.296 238.645 198.387 236.136 198.888C228.7 200.388 221.047 200.463 213.586 199.11C211.071 198.672 210.573 202.587 213.072 203.028L213.065 202.981Z" fill="#D77E60"/>
<path d="M166.988 187.488L172.33 198.974C172.541 199.453 172.935 199.83 173.425 200.02C173.915 200.21 174.461 200.199 174.943 199.988C175.425 199.778 175.804 199.385 175.996 198.897C176.188 198.409 176.177 197.865 175.966 197.386L170.626 185.916C170.415 185.439 170.025 185.064 169.539 184.871C169.052 184.678 168.509 184.683 168.026 184.884C167.549 185.101 167.174 185.493 166.98 185.979C166.787 186.464 166.79 187.005 166.988 187.488Z" fill="#D77E60"/>
<path d="M239.288 212.09C241.419 221.095 242.568 230.304 242.714 239.558C242.758 239.857 242.871 240.143 243.044 240.392C243.217 240.641 243.445 240.847 243.711 240.994C243.977 241.141 244.273 241.225 244.577 241.24C244.881 241.255 245.185 241.2 245.464 241.079C258.553 233.795 270.609 224.805 281.312 214.349C283.113 212.593 280.618 209.488 278.836 211.258C268.408 221.499 256.655 230.311 243.889 237.46L246.641 238.997C246.494 229.744 245.346 220.535 243.215 211.529C242.624 209.078 238.695 209.623 239.288 212.09Z" fill="#D77E60"/>
<path d="M248.452 240.684C252.756 239.156 256.878 237.16 260.744 234.734C264.086 232.662 267.949 230.196 269.152 226.277C269.946 223.867 266.288 222.38 265.479 224.792C264.354 228.142 260.698 230.148 257.881 231.858C254.376 233.981 250.656 235.732 246.783 237.079C244.389 237.931 245.979 241.548 248.374 240.696L248.452 240.684Z" fill="#D77E60"/>
<path d="M228.392 232.306C231.679 237.022 236.445 240.519 241.945 242.252C242.186 242.349 242.444 242.398 242.705 242.397C242.965 242.395 243.223 242.342 243.463 242.241C243.703 242.14 243.921 241.993 244.104 241.808C244.287 241.623 244.432 241.405 244.53 241.165C244.628 240.925 244.678 240.668 244.677 240.408C244.675 240.149 244.622 239.893 244.521 239.654C244.42 239.415 244.273 239.198 244.087 239.016C243.902 238.834 243.683 238.691 243.442 238.593C242.184 238.205 240.961 237.713 239.786 237.122C239.494 236.988 239.216 236.836 238.938 236.684C239.301 236.872 238.796 236.593 238.763 236.582L238.308 236.312C237.763 235.975 237.231 235.62 236.711 235.232C236.191 234.844 235.702 234.451 235.209 234.027L234.494 233.396C234.435 233.332 234.373 233.272 234.307 233.215C234.431 233.335 234.431 233.335 234.307 233.215L233.991 232.909C233.059 231.942 232.208 230.901 231.447 229.796C231.116 229.392 230.639 229.134 230.118 229.077C229.598 229.02 229.075 229.169 228.663 229.492C228.261 229.824 228.003 230.298 227.942 230.814C227.882 231.331 228.023 231.851 228.338 232.265L228.392 232.306Z" fill="#D77E60"/>
<path d="M323.157 173.493C327.326 175.753 332.41 175.218 336.98 174.9C342.292 174.522 347.578 173.852 352.817 172.894C355.316 172.441 354.774 168.531 352.259 168.986C347.381 169.88 342.46 170.524 337.517 170.916C333.315 171.229 328.527 171.929 324.653 169.835C324.166 169.638 323.62 169.642 323.135 169.846C322.651 170.05 322.267 170.437 322.068 170.922C321.87 171.407 321.873 171.95 322.077 172.433C322.281 172.915 322.669 173.296 323.157 173.493Z" fill="#D77E60"/>
<path d="M318.807 182.536C324.819 182.979 330.858 182.927 336.863 182.381C339.868 182.101 342.852 181.675 345.816 181.102C348.174 180.67 351.028 179.895 350.117 176.884C349.898 176.42 349.506 176.06 349.024 175.88C348.542 175.7 348.008 175.713 347.536 175.917C347.063 176.121 346.689 176.501 346.492 176.974C346.294 177.448 346.29 177.98 346.48 178.456L346.517 178.722L346.498 177.13C346.81 176.846 346.752 176.774 346.341 176.929L345.776 177.009L343.813 177.29C342.698 177.449 341.582 177.608 340.452 177.77C338.127 178.102 335.722 178.318 333.42 178.471C328.696 178.766 323.957 178.735 319.239 178.376C316.712 178.194 316.198 182.111 318.742 182.306L318.807 182.536Z" fill="#D77E60"/>
<path d="M349.157 168.473C349.236 172.172 349.307 175.883 349.368 179.607C349.442 180.125 349.72 180.592 350.141 180.906C350.561 181.22 351.09 181.354 351.611 181.28C352.126 181.194 352.588 180.914 352.902 180.498C353.216 180.082 353.357 179.562 353.295 179.046C353.238 175.354 353.167 171.643 353.083 167.912C353.005 167.396 352.726 166.931 352.307 166.618C351.887 166.305 351.361 166.169 350.841 166.239C350.331 166.335 349.875 166.618 349.564 167.031C349.252 167.444 349.107 167.959 349.157 168.473Z" fill="#D77E60"/>
<path d="M349.026 171.713C351.488 170.311 353.775 168.624 355.841 166.689C356.404 166.146 356.934 165.591 357.48 165.035C358.025 164.478 358.878 163.607 358.722 162.513C358.642 161.949 358.359 161.433 357.927 161.059C357.494 160.686 356.941 160.481 356.368 160.481C355.795 160.481 355.241 160.687 354.808 161.061C354.375 161.435 354.092 161.952 354.011 162.516C353.943 163.036 354.084 163.56 354.405 163.975C354.726 164.39 355.199 164.661 355.721 164.728C356.243 164.795 356.77 164.653 357.187 164.333C357.605 164.013 357.877 163.542 357.946 163.023C357.918 163.23 357.85 163.429 357.745 163.61C357.641 163.791 357.501 163.95 357.335 164.078C357.169 164.205 356.979 164.299 356.776 164.353C356.573 164.408 356.362 164.422 356.154 164.395C355.946 164.368 355.746 164.301 355.564 164.197C355.382 164.093 355.223 163.954 355.095 163.789C354.967 163.623 354.874 163.434 354.819 163.233C354.765 163.031 354.751 162.821 354.778 162.614L355.158 161.683L354.273 162.67L354.051 162.909C353.912 163.057 353.923 163.023 354.051 162.909L353.573 163.376C352.926 164.011 352.244 164.619 351.55 165.26C350.856 165.901 350.104 166.36 349.44 166.869C349.074 167.113 348.71 167.372 348.326 167.602L347.767 167.953L347.626 167.973L347.42 168.098C346.955 168.323 346.584 168.704 346.371 169.173C346.269 169.427 346.219 169.699 346.225 169.972C346.231 170.245 346.292 170.514 346.406 170.763C346.616 171.239 347.007 171.614 347.494 171.804C347.98 171.994 348.523 171.985 349.003 171.779L349.026 171.713Z" fill="#D77E60"/>
<path d="M356.617 158.093L355.341 162.629C355.231 162.863 355.191 163.124 355.224 163.38C355.19 163.646 355.228 163.916 355.336 164.161C355.438 164.4 355.588 164.616 355.775 164.797C355.963 164.978 356.185 165.119 356.428 165.214C356.671 165.308 356.931 165.353 357.192 165.347C357.453 165.34 357.71 165.282 357.949 165.176C358.183 165.076 358.395 164.932 358.573 164.751C358.75 164.569 358.89 164.354 358.984 164.119L360.259 159.583C360.367 159.341 360.411 159.077 360.39 158.814C360.42 158.549 360.381 158.28 360.278 158.033C360.066 157.565 359.681 157.197 359.202 157.007C358.949 156.898 358.676 156.844 358.4 156.848C358.125 156.851 357.853 156.913 357.602 157.027C357.363 157.125 357.146 157.271 356.965 157.456C356.785 157.641 356.645 157.861 356.554 158.102L356.617 158.093Z" fill="#D77E60"/>
<path d="M356.382 165.096C386.184 173.455 417.2 174.496 447.922 175.945L454.491 176.267C456.108 176.371 458.177 176.267 459.462 177.407C461.688 179.306 462.85 182.282 466.392 181.042C468.804 180.203 467.214 176.587 464.801 177.426C464.117 176.691 463.472 175.92 462.869 175.118C461.929 174.066 460.708 173.3 459.348 172.91C456.147 172.255 452.88 171.972 449.612 172.068C442.189 171.708 434.769 171.38 427.339 170.974C412.512 170.335 397.729 168.934 383.05 166.774C374.595 165.474 366.225 163.676 357.985 161.39C355.549 160.718 354.018 164.365 356.472 165.052L356.382 165.096Z" fill="#D77E60"/>
<path d="M350.935 172.955L410.29 178.624L440.966 181.548L455.916 182.985C457.89 182.996 459.844 183.383 461.672 184.124C463.437 185.277 465.11 186.563 466.677 187.971C470.367 190.615 474.563 192.479 479.006 193.446C483.45 194.413 488.047 194.464 492.514 193.595C495.009 193.111 494.466 189.201 491.955 189.687C487.951 190.489 483.824 190.453 479.836 189.581C475.849 188.709 472.089 187.02 468.795 184.622C467.306 183.511 465.99 182.152 464.422 181.164C462.698 180.143 460.769 179.51 458.772 179.307C453.877 178.699 449.022 178.372 444.226 177.892L384.104 172.125L351.37 169.049C348.835 168.805 348.33 172.673 350.872 172.964L350.935 172.955Z" fill="#D77E60"/>
<path d="M354.688 182.961C357.446 181.85 360.985 180.818 363.415 183.134C365.551 185.19 366.559 188.092 368.916 190.004C371.391 191.784 374.317 192.841 377.365 193.056C381.118 193.524 384.927 193.714 388.721 194.017L437.367 197.978L464.804 200.216C467.334 200.429 467.86 196.59 465.302 196.301L415.521 192.247L390.823 190.224C386.819 189.903 382.81 189.662 378.824 189.243C375.566 188.879 372.269 188.233 370.15 185.521C368.032 182.81 366.666 179.64 363.261 178.356C359.857 177.072 356.327 178.054 353.192 179.331C352.726 179.551 352.363 179.941 352.181 180.421C351.999 180.901 352.012 181.432 352.217 181.902C352.421 182.372 352.802 182.745 353.278 182.94C353.753 183.136 354.287 183.139 354.766 182.95L354.688 182.961Z" fill="#D77E60"/>
<path d="M455.342 199.957C463.943 204.071 472.464 209.648 482.3 209.168C489.321 208.835 499.213 207.741 503.234 201.107C504.528 198.944 501.386 196.586 500.059 198.737C499.185 200.025 498.061 201.125 496.754 201.975C495.447 202.824 493.982 203.405 492.447 203.684C488.679 204.693 484.803 205.246 480.903 205.333C476.753 205.237 472.684 204.18 469.019 202.245C464.962 200.321 460.927 198.329 456.866 196.374C454.576 195.265 453.079 198.924 455.369 200.032L455.342 199.957Z" fill="#D77E60"/>
<path d="M498.989 192.702L496.7 202.598C496.636 203.115 496.78 203.635 497.099 204.047C497.419 204.458 497.89 204.727 498.408 204.794C498.929 204.853 499.452 204.708 499.867 204.39C500.282 204.072 500.557 203.605 500.633 203.089L502.922 193.193C502.986 192.674 502.843 192.151 502.523 191.737C502.203 191.323 501.732 191.052 501.212 190.981C500.693 190.93 500.173 191.078 499.76 191.395C499.346 191.712 499.07 192.174 498.987 192.686L498.989 192.702Z" fill="#D77E60"/>
<path d="M470.324 169.3C470.751 169.228 471.144 169.025 471.449 168.718C471.753 168.411 471.953 168.017 472.02 167.591C472.08 167.109 471.978 166.621 471.73 166.204C471.481 165.786 471.101 165.462 470.648 165.283C470.241 165.132 469.796 165.113 469.378 165.23C468.96 165.347 468.59 165.594 468.321 165.934C467.908 166.66 467.636 167.456 467.519 168.282C467.352 168.912 467.203 169.555 467.053 170.182C466.762 171.516 466.519 172.842 466.327 174.193C465.934 176.924 465.749 179.68 465.774 182.438C465.726 182.954 465.875 183.468 466.192 183.879C466.51 184.289 466.971 184.564 467.484 184.65C468.007 184.712 468.534 184.566 468.951 184.244C469.367 183.922 469.638 183.449 469.706 182.929C469.697 180.356 469.865 177.784 470.21 175.234C470.384 173.981 470.591 172.739 470.848 171.506C470.98 170.865 471.129 170.222 471.28 169.595C471.336 169.315 471.41 169.05 471.482 168.768C471.554 168.487 471.811 167.924 471.51 168.286L469.183 168.937L468.375 168.335L468.205 168.04L468.067 167.071L469.746 165.364C469.237 165.477 468.79 165.78 468.497 166.21C468.204 166.64 468.087 167.166 468.169 167.678C468.244 168.197 468.521 168.664 468.942 168.978C469.362 169.291 469.891 169.426 470.412 169.352L470.324 169.3Z" fill="#D77E60"/>
<path d="M467.162 183.851C475.266 189.2 485.289 195.073 495.166 190.505C495.648 190.294 496.026 189.902 496.218 189.414C496.41 188.926 496.399 188.382 496.188 187.902C495.978 187.423 495.584 187.047 495.094 186.856C494.604 186.666 494.058 186.678 493.575 186.888C485.141 190.788 476.413 185.225 469.556 180.75C467.432 179.347 464.998 182.501 467.171 183.913L467.162 183.851Z" fill="#D77E60"/>
<path d="M468.594 166.614C468.487 168.71 468.937 170.796 469.897 172.663C470.858 174.53 472.296 176.112 474.066 177.249C475.837 178.387 477.878 179.039 479.984 179.142C482.09 179.245 484.187 178.794 486.063 177.834C486.537 177.614 486.908 177.221 487.099 176.737C487.289 176.252 487.285 175.713 487.086 175.232C486.875 174.755 486.485 174.38 485.999 174.187C485.513 173.994 484.97 173.999 484.487 174.2C484.12 174.391 483.743 174.562 483.358 174.712L482.776 174.907C483.122 174.858 482.494 174.947 482.494 174.947C482.089 175.029 481.68 175.087 481.269 175.122C481.064 175.151 480.86 175.181 480.656 175.21C480.986 175.163 480.42 175.243 480.373 175.25C479.964 175.23 479.557 175.187 479.153 175.121L478.543 175.001L478.343 174.95C477.951 174.831 477.567 174.689 477.193 174.524C476.908 174.41 476.635 174.267 476.379 174.098C476.061 173.908 475.762 173.689 475.484 173.444C475.322 173.324 475.174 173.186 475.029 173.063C475.251 173.27 474.858 172.88 474.82 172.838C474.553 172.541 474.3 172.226 474.063 171.909C473.939 171.745 473.824 171.576 473.717 171.4C473.901 171.677 473.585 171.148 473.585 171.148C473.393 170.795 473.223 170.43 473.077 170.056C473.05 169.869 473.021 169.666 472.884 169.494C472.747 169.322 472.909 169.665 472.846 169.228C472.784 168.79 472.741 168.493 472.69 168.134C472.639 167.774 472.634 167.743 472.605 167.54C472.576 167.337 472.576 167.337 472.563 167.243C472.59 167.431 472.587 167.415 472.563 167.243C472.631 166.724 472.489 166.199 472.168 165.784C471.848 165.369 471.374 165.098 470.853 165.031C470.331 164.964 469.803 165.106 469.386 165.426C468.969 165.745 468.696 166.217 468.628 166.736L468.594 166.614Z" fill="#D77E60"/>
<path d="M471.736 168.19L478.421 165.513C478.66 165.409 478.876 165.259 479.057 165.072C479.237 164.885 479.379 164.664 479.474 164.422C479.569 164.18 479.616 163.923 479.61 163.663C479.605 163.404 479.549 163.148 479.444 162.911C479.224 162.44 478.829 162.071 478.343 161.882C477.856 161.693 477.315 161.698 476.831 161.896L470.143 164.558C469.667 164.775 469.293 165.168 469.102 165.654C468.912 166.14 468.918 166.68 469.121 167.16C469.341 167.632 469.735 168.002 470.222 168.194C470.708 168.385 471.25 168.384 471.736 168.19Z" fill="#D77E60"/>
<path d="M437.437 113.409C441.035 123.9 448.461 132.361 456.411 139.885C460.689 143.915 465.147 147.744 469.438 151.756C471.621 153.805 473.767 155.922 475.767 158.141C477.329 159.879 479.602 162.553 477.599 164.801C475.918 166.716 479.106 169.067 480.775 167.17C484.798 162.577 480.414 157.238 477.141 153.846C472.713 149.215 467.863 144.996 463.115 140.698C454.061 132.517 445.111 123.605 441.072 111.822C440.249 109.419 436.613 111.007 437.437 113.409Z" fill="#D77E60"/>
<path d="M438.853 114.802C457.096 126.84 474.284 140.391 490.235 155.309C492.084 157.038 494.453 153.877 492.619 152.145C476.669 137.227 459.481 123.677 441.238 111.638C439.114 110.235 436.68 113.39 438.853 114.802Z" fill="#D77E60"/>
<path d="M479.682 161.537C482.329 159.309 486.306 159.331 489.46 160.428C490.2 160.671 490.902 161.016 491.546 161.453C492.091 161.813 492.544 162.294 492.868 162.859C493.715 164.636 492.845 166.738 492.191 168.442L495.992 168.904L495.73 167.745C495.644 167.233 495.364 166.773 494.946 166.461C494.529 166.149 494.006 166.01 493.487 166.072C492.969 166.15 492.501 166.428 492.186 166.846C491.871 167.264 491.733 167.789 491.803 168.306L492.065 169.465C492.138 169.887 492.34 170.276 492.645 170.578C492.949 170.88 493.34 171.081 493.764 171.152C494.2 171.198 494.639 171.104 495.017 170.884C495.395 170.663 495.692 170.328 495.865 169.927C496.879 167.262 497.783 164.278 496.6 161.497C495.537 159.356 493.668 157.721 491.399 156.945C486.881 155.166 481.073 155.23 477.189 158.448C475.227 160.084 477.686 163.161 479.65 161.541L479.682 161.537Z" fill="#D77E60"/>
<path d="M481.133 166.992C480.92 166.4 480.708 165.809 480.511 165.215L477.935 167.831C482.742 169.781 488.098 169.934 493.014 168.261C493.493 168.048 493.869 167.655 494.061 167.168C494.252 166.681 494.243 166.139 494.036 165.659C493.816 165.188 493.422 164.819 492.935 164.63C492.448 164.441 491.907 164.446 491.424 164.645C489.523 165.235 487.539 165.518 485.549 165.484C483.444 165.42 481.37 164.97 479.43 164.157C479.066 164.02 478.67 163.992 478.29 164.076C477.91 164.161 477.563 164.353 477.291 164.631C477.019 164.908 476.835 165.259 476.76 165.639C476.685 166.019 476.724 166.413 476.87 166.771C477.067 167.365 477.28 167.956 477.493 168.548C477.704 169.028 478.097 169.406 478.587 169.599C479.077 169.792 479.623 169.784 480.108 169.578C480.582 169.358 480.953 168.965 481.143 168.481C481.334 167.996 481.329 167.457 481.131 166.976L481.133 166.992Z" fill="#D77E60"/>
<path d="M488.44 167.431C483.509 170.831 484.052 177.435 486.868 182.009C490.449 187.781 496.311 192.016 501.583 196.159C513.411 205.517 525.24 214.874 537.068 224.232C539.073 225.811 541.458 222.648 539.453 221.069L508.25 196.387C503.17 192.7 498.349 188.673 493.819 184.334C490.696 181.096 485.505 174.262 490.904 170.54C493.005 169.092 490.528 166 488.443 167.447L488.44 167.431Z" fill="#D77E60"/>
<path d="M535.828 223.628C538.878 224.288 542.041 224.245 545.074 223.503C546.698 223.232 548.248 222.63 549.63 221.736C550.075 221.387 550.396 220.906 550.546 220.362C550.697 219.818 550.668 219.241 550.464 218.715C550.267 218.203 549.899 217.774 549.422 217.5C548.946 217.226 548.389 217.122 547.845 217.207C547.326 217.285 546.858 217.563 546.543 217.981C546.228 218.399 546.091 218.923 546.16 219.441C546.246 219.953 546.527 220.413 546.944 220.725C547.362 221.037 547.884 221.176 548.403 221.114L548.12 221.154L547.182 220.762C546.903 220.504 546.737 220.148 546.719 219.769C546.701 219.39 546.832 219.019 547.085 218.735C547.265 218.645 547.265 218.645 547.085 218.735L546.466 218.998C545.981 219.195 545.476 219.363 544.938 219.52L544.576 219.571L543.692 219.777C543.205 219.847 542.719 219.916 542.247 219.984C540.29 220.221 538.306 220.116 536.385 219.673C535.866 219.61 535.343 219.753 534.929 220.072C534.515 220.391 534.245 220.86 534.176 221.376C534.12 221.893 534.267 222.412 534.585 222.823C534.904 223.235 535.37 223.509 535.887 223.588L535.828 223.628Z" fill="#D77E60"/>
<path d="M506.036 176.401C520.424 189.47 533.667 203.734 545.622 219.039C545.784 219.242 545.984 219.412 546.211 219.538C546.439 219.664 546.689 219.744 546.948 219.774C547.207 219.803 547.469 219.782 547.719 219.711C547.97 219.64 548.204 219.52 548.408 219.359C548.613 219.198 548.783 218.998 548.91 218.772C549.037 218.545 549.118 218.296 549.148 218.038C549.178 217.781 549.157 217.52 549.086 217.271C549.015 217.021 548.895 216.788 548.733 216.585C536.56 201.025 523.075 186.529 508.424 173.253C506.574 171.524 504.16 174.707 506.036 176.401Z" fill="#D77E60"/>
<path d="M493.142 172.182C499.938 174.88 507.987 175.133 513.797 179.79C515.801 181.37 518.171 178.208 516.182 176.626C509.966 171.709 501.777 171.379 494.641 168.539C494.399 168.442 494.141 168.393 493.881 168.394C493.62 168.396 493.363 168.449 493.123 168.55C492.883 168.651 492.665 168.798 492.482 168.982C492.299 169.167 492.154 169.386 492.055 169.626C491.957 169.866 491.907 170.123 491.909 170.383C491.91 170.642 491.963 170.898 492.064 171.137C492.165 171.376 492.313 171.592 492.498 171.774C492.683 171.956 492.903 172.1 493.144 172.198L493.142 172.182Z" fill="#D77E60"/>
<path d="M282.974 154.05C298.627 141.222 315.62 130.106 333.659 120.895C335.93 119.741 334.372 116.12 332.085 117.276C313.729 126.635 296.434 137.927 280.497 150.959C280.085 151.286 279.82 151.763 279.761 152.285C279.701 152.806 279.853 153.329 280.181 153.739C280.509 154.149 280.988 154.412 281.512 154.47C282.036 154.529 282.562 154.378 282.974 154.05Z" fill="#D77E60"/>
<path d="M333.632 120.819C334.069 120.853 333.014 127.717 332.901 128.611C332.581 130.969 332.33 133.254 329.96 134.389C324.231 137.138 318.27 139.504 312.449 142.058L315.198 143.579C315.064 139.446 313.614 135.465 311.058 132.209C310.722 131.806 310.239 131.553 309.715 131.505C309.192 131.458 308.67 131.619 308.265 131.954C307.86 132.289 307.605 132.77 307.557 133.291C307.508 133.813 307.669 134.332 308.005 134.734C310.107 137.455 311.273 140.777 311.33 144.211C311.378 144.509 311.492 144.793 311.666 145.041C311.839 145.288 312.067 145.494 312.332 145.642C312.596 145.79 312.891 145.876 313.194 145.894C313.497 145.912 313.8 145.863 314.081 145.748L325.471 140.772C327.37 139.927 329.306 139.124 331.187 138.265C332.707 137.669 334.033 136.669 335.021 135.373C336.903 132.616 336.926 128.849 337.337 125.665C337.747 122.48 338.696 117.337 334.186 116.96C331.656 116.747 331.13 120.587 333.69 120.891L333.632 120.819Z" fill="#D77E60"/>
<path d="M167.519 219.039C166.506 222.157 166.652 225.532 167.931 228.549C168.469 229.9 169.453 231.028 170.721 231.748C171.988 232.468 173.465 232.737 174.908 232.512C176.289 232.228 177.556 231.547 178.554 230.554C179.551 229.562 180.235 228.3 180.521 226.926C180.753 225.409 180.599 223.859 180.071 222.418C179.543 220.977 178.659 219.692 177.501 218.682C176.344 217.578 174.883 216.843 173.304 216.57C172.419 216.409 171.508 216.478 170.657 216.77C169.806 217.062 169.044 217.567 168.446 218.237C168.137 218.659 168.006 219.184 168.079 219.7C168.153 220.217 168.426 220.684 168.841 221.003C169.269 221.298 169.793 221.422 170.309 221.348C170.824 221.274 171.293 221.009 171.621 220.606C171.345 220.916 171.542 220.617 171.621 220.606C171.7 220.594 171.951 220.447 171.715 220.592C171.48 220.738 171.872 220.57 171.888 220.568C172.186 220.525 171.888 220.568 171.794 220.581C171.7 220.594 172.328 220.505 172.391 220.496C172.007 220.391 172.218 220.52 172.391 220.496L172.848 220.558C172.848 220.558 173.245 220.645 172.99 220.538C172.734 220.431 173.192 220.605 173.209 220.618C173.413 220.689 173.613 220.772 173.806 220.868C174.131 221.013 173.806 220.868 173.806 220.868L174.158 221.089C174.379 221.242 174.59 221.409 174.79 221.589C174.79 221.589 175.125 221.908 174.79 221.589L175.017 221.827L175.461 222.354C175.637 222.581 175.8 222.819 175.947 223.066C175.969 223.222 176.102 223.363 176.173 223.528C176.245 223.694 176.346 223.95 176.422 224.147C176.498 224.343 176.422 224.147 176.422 224.147C176.449 224.281 176.468 224.417 176.48 224.553C176.531 224.801 176.567 225.051 176.587 225.303C176.61 225.411 176.626 225.521 176.634 225.631C176.565 225.147 176.634 225.631 176.652 225.756C176.67 225.882 176.586 226.196 176.537 226.411C176.609 226.018 176.526 226.333 176.537 226.411L176.409 226.748C176.335 226.902 176.043 227.327 176.31 226.954C176.177 227.148 176.047 227.358 175.899 227.555C175.751 227.751 175.551 227.923 175.775 227.7C176 227.476 175.775 227.7 175.681 227.713C175.52 227.863 175.346 228 175.163 228.122C175.091 228.184 175.013 228.238 174.929 228.283C175.351 228.095 175.086 228.261 174.929 228.283L174.204 228.594C173.969 228.628 174.566 228.542 174.314 228.578C174.197 228.579 174.081 228.596 173.969 228.628L173.686 228.668C173.278 228.726 173.812 228.65 173.796 228.652C173.78 228.655 173.24 228.572 173.177 228.581C173.114 228.59 173.569 228.748 173.177 228.581C173.056 228.519 172.923 228.49 172.818 228.425C172.712 228.36 172.446 228.175 172.818 228.425L172.569 228.253C172.443 228.16 172.067 227.767 172.351 228.077C172.17 227.884 172.001 227.679 171.847 227.463L171.666 227.202C171.852 227.495 171.666 227.202 171.648 227.077C171.524 226.839 171.414 226.593 171.318 226.343C171.303 226.233 171.287 226.124 171.272 226.014C171.256 225.905 171.187 225.42 171.256 225.905C171.137 225.295 171.049 224.68 170.993 224.061C170.966 223.932 170.948 223.801 170.937 223.67C170.937 223.67 170.85 223.061 170.897 223.389C170.85 223.061 170.928 222.714 170.96 222.375C170.992 222.035 171.046 221.629 171.107 221.269L171.195 220.874L171.249 220.579C171.208 220.745 171.204 220.713 171.235 220.486C171.434 220 171.431 219.457 171.226 218.975C171.022 218.492 170.634 218.111 170.147 217.914C169.66 217.717 169.114 217.721 168.629 217.925C168.144 218.129 167.76 218.516 167.561 219.001L167.519 219.039Z" fill="#D77E60"/>
<path d="M154.325 137.768L170.78 148.177C171.207 148.476 171.732 148.601 172.249 148.527C172.766 148.454 173.235 148.186 173.561 147.779C173.869 147.357 174.001 146.832 173.927 146.316C173.853 145.799 173.58 145.332 173.165 145.013L156.694 134.607C156.271 134.309 155.748 134.183 155.234 134.256C154.72 134.33 154.253 134.597 153.93 135.002C153.617 135.423 153.483 135.948 153.557 136.466C153.631 136.984 153.907 137.452 154.325 137.768Z" fill="#D77E60"/>
</svg>
