<svg width="157" height="153" viewBox="0 0 157 153" fill="none" xmlns="http://www.w3.org/2000/svg">
<path d="M32.4569 2.14304L32.2578 32.0059L63.5883 32.2019L63.7874 2.33904L32.4569 2.14304Z" fill="#C9F7FF"/>
<path d="M32.1864 32.0228L31.9873 61.8856L63.3178 62.0816L63.5169 32.2188L32.1864 32.0228Z" fill="#E37958"/>
<path d="M31.994 62.3392L31.7788 92.2019L63.1092 92.4138L63.3244 62.5511L31.994 62.3392Z" fill="#00667E"/>
<path d="M0.215214 92.2545L0 122.117L31.3304 122.329L31.5456 92.4664L0.215214 92.2545Z" fill="#F1C0A4"/>
<path d="M63.2318 92.4653L63.0166 122.328L94.347 122.54L94.5622 92.6772L63.2318 92.4653Z" fill="#008DA2"/>
<path d="M62.7128 122.926L62.4976 152.788L93.828 153L94.0432 123.137L62.7128 122.926Z" fill="#00667E"/>
<path d="M125.588 151.891L156.919 151.97L157 122.107L125.669 122.027L125.588 151.891Z" fill="#5AC0E8"/>
<path d="M94.1548 122.076L125.486 122.155L125.567 92.2923L94.2355 92.2128L94.1548 122.076Z" fill="#1BB0D6"/>
<path d="M93.8061 92.1403L125.137 92.2197L125.218 62.3564L93.8868 62.2769L93.8061 92.1403Z" fill="#008DA2"/>
<path d="M125.277 92.32L156.608 92.3995L156.689 62.5362L125.358 62.4567L125.277 92.32Z" fill="#C9F7FF"/>
<path d="M124.712 29.8633L156.043 29.9427L156.124 0.0794352L124.793 -2.45959e-05L124.712 29.8633Z" fill="#F1C0A4"/>
</svg>
