<svg width="246" height="213" viewBox="0 0 246 213" fill="none" xmlns="http://www.w3.org/2000/svg">
<path d="M5.63781 103.744C9.33519 95.897 12.3818 87.8319 14.7553 79.6071C19.5457 63.0375 21.6375 45.9523 20.9725 28.828C23.8376 24.9278 27.1912 21.3075 30.9756 18.0295C36.4068 13.2962 45.4491 5.47087 59.379 3.53044C63.5169 2.96062 67.7433 2.94293 71.9074 3.47796C77.068 5.32759 82.5601 7.10566 88.3852 8.77736C103.332 13.0795 116.07 16.8234 132.39 17.6484C138.734 17.9702 145.091 17.8392 151.393 17.2568L205.632 40.7635C206.375 43.6778 207.564 48.0091 209.146 53.1442C211.304 59.9642 211.754 60.4043 213.479 65.965C214.436 69.1337 214.708 70.3331 217.968 83.3125C219.091 87.7453 220.332 92.7073 220.522 93.4491C222.259 100.075 226.511 110.711 238.264 127.913C238.337 131.736 237.113 135.478 234.739 138.69C232.365 141.902 228.942 144.447 224.881 146.02L164.064 101.228L159.294 105.853L169.43 132.507C167.223 136.898 164.073 140.89 160.139 144.281C156.699 147.242 147.318 155.295 138.449 152.956C135.97 152.248 133.784 150.93 132.171 149.169L109.621 136.149L99.998 138.921L133.515 202.609C126.243 205.677 118.002 206.743 109.918 205.662C107.725 205.35 105.582 204.809 103.536 204.052C95.3593 200.96 92.3454 195.338 86.7805 189.037C82.4474 184.213 77.417 179.87 71.8116 176.114C67.8563 178.684 65.3118 178.738 63.7319 178.332C60.9781 177.608 60.5526 175.337 57.1496 173.169C54.1842 171.284 52.0053 171.408 48.5429 170.493C39.8764 168.216 39.2545 163.598 28.6221 158.243C25.3104 156.602 21.8065 155.266 18.1708 154.259L5.63781 103.744Z" fill="#C9F7FF"/>
<path d="M155.44 145.653C163.906 140.921 168.935 134.735 166.672 131.836C164.409 128.936 155.712 130.422 147.246 135.154C138.779 139.885 133.75 146.072 136.013 148.971C138.276 151.87 146.974 150.385 155.44 145.653Z" fill="#F1C0A4"/>
<path d="M17.464 31.0696C22.0271 42.9416 19.7855 56.5155 16.9462 68.421C13.703 80.7983 9.57966 92.9854 4.59903 104.916C4.53204 105.182 4.58426 105.461 4.74549 105.699C4.90673 105.938 5.16543 106.117 5.47112 106.204C5.77682 106.29 6.10761 106.277 6.39894 106.167C6.69028 106.056 6.9213 105.857 7.04692 105.607C12.2711 93.1612 16.5176 80.4217 19.7587 67.4723C22.368 55.6606 24.473 42.3769 19.9458 30.6113C19.4349 29.2784 16.9326 29.7357 17.464 31.0696Z" fill="#004E63"/>
<path d="M6.36596 103.952C9.26823 121.179 13.319 138.265 18.4986 155.129C18.6001 155.389 18.8112 155.609 19.0909 155.747C19.3705 155.884 19.6985 155.928 20.011 155.871C20.3235 155.814 20.598 155.659 20.7811 155.438C20.9641 155.216 21.0424 154.943 21.0009 154.671C15.8163 137.809 11.7654 120.722 8.86819 103.495C8.62648 102.105 6.12425 102.562 6.36596 103.952Z" fill="#004E63"/>
<path d="M33.5304 157.637C35.1101 160.803 37.3484 163.705 40.1361 166.204C43.3557 168.781 47.6019 169.593 51.3053 171.478C55.0087 173.364 58.4574 175.865 62.5487 177.35C66.794 178.838 71.4044 179.363 75.9251 178.873C77.5526 178.706 76.956 176.584 75.3498 176.735C70.9648 177.187 66.5003 176.564 62.4785 174.939C58.7569 173.437 55.6272 171.125 52.0621 169.351C48.4969 167.576 44.8545 167.003 42.0291 164.758C39.4 162.391 37.2929 159.642 35.8119 156.646C35.0726 155.372 32.8117 156.364 33.5509 157.638L33.5304 157.637Z" fill="#004E63"/>
<path d="M17.7685 153.228C50.3866 164.456 83.606 178.575 105.196 203.206C106.188 204.334 108.061 202.87 107.068 201.759C90.2052 182.517 65.9562 169.451 40.8071 159.379C33.4835 156.45 26.047 153.742 18.5424 151.171C17.0093 150.644 16.2353 152.702 17.7685 153.228Z" fill="#004E63"/>
<path d="M105.746 202.429C115.885 204.793 125.99 201.799 135.376 198.824C136.916 198.338 135.696 196.396 134.177 196.882C125.498 199.63 115.909 202.543 106.521 200.354C104.939 199.983 104.147 201.987 105.746 202.429Z" fill="#004E63"/>
<path d="M80.3893 108.4L131.218 198.75C131.937 200.022 134.199 199.013 133.48 197.74L82.6504 107.408C81.9316 106.135 79.6705 107.127 80.3893 108.4Z" fill="#004E63"/>
<path d="M84.8142 110.196C101.677 98.155 120.042 87.7162 139.59 79.0602C139.774 78.9037 139.895 78.702 139.938 78.4826C139.981 78.2633 139.942 78.037 139.828 77.8348C139.714 77.6326 139.53 77.4644 139.302 77.3533C139.073 77.2421 138.81 77.1933 138.55 77.2137C118.787 85.945 100.218 96.4795 83.1661 108.635C81.9139 109.535 83.6618 111.153 84.9131 110.27L84.8142 110.196Z" fill="#004E63"/>
<path d="M142.595 81.4183L219.585 146.589C220.748 147.586 222.641 146.123 221.459 145.124L144.591 79.9598C143.407 78.979 141.535 80.4259 142.697 81.4231L142.595 81.4183Z" fill="#004E63"/>
<path d="M224.274 145.834C226.874 142.886 229.355 139.846 231.715 136.764C233.725 134.137 236.502 130.919 234.668 127.639C233.95 126.366 231.689 127.358 232.407 128.631C232.662 129.323 232.726 130.053 232.592 130.765C232.459 131.476 232.133 132.149 231.639 132.73C230.755 134.084 229.71 135.378 228.727 136.658C226.549 139.364 224.372 142.035 222.199 144.637C221.223 145.76 223.381 146.944 224.356 145.838L224.274 145.834Z" fill="#004E63"/>
<path d="M217.332 96.299C222.706 107.791 228.093 119.283 233.494 130.776C234.109 132.079 236.351 131.068 235.756 129.766C230.354 118.296 224.966 106.81 219.593 95.3067C218.978 94.0038 216.717 94.9961 217.332 96.299Z" fill="#004E63"/>
<path d="M74.6822 173.528C77.0651 160.035 80.3189 146.674 84.4287 133.508C84.8416 132.149 82.4755 131.461 81.9808 132.816C77.8345 146.173 74.5445 159.724 72.1254 173.407C71.8958 174.792 74.4526 174.913 74.6822 173.528Z" fill="#004E63"/>
<path d="M86.0102 132.989C85.9907 132.937 85.9933 132.882 86.0177 132.832C86.0545 132.705 86.1156 132.584 86.1986 132.474C86.4138 132.156 86.6685 131.858 86.9583 131.586C87.6671 130.904 88.3956 130.24 89.1027 129.593C90.6004 128.321 92.2043 127.143 93.9026 126.069C94.0286 125.976 94.1307 125.861 94.2029 125.733C94.275 125.604 94.3158 125.464 94.3226 125.321C94.3293 125.178 94.302 125.035 94.2423 124.9C94.1826 124.765 94.0918 124.642 93.9752 124.537C93.7439 124.325 93.4262 124.198 93.0899 124.182C92.7536 124.166 92.4253 124.263 92.1751 124.452C90.2303 125.669 88.4106 127.025 86.7351 128.504C85.8606 129.235 85.0494 130.019 84.3076 130.849C83.8703 131.265 83.5819 131.78 83.4759 132.334C83.3699 132.888 83.4505 133.458 83.7083 133.979C84.4271 135.252 86.6882 134.26 85.9694 132.987L86.0102 132.989Z" fill="#004E63"/>
<path d="M46.4699 67.9343C58.227 89.8732 71.3596 111.272 85.8101 132.038C86.6345 133.246 88.9193 132.185 88.0507 131.044C73.6497 110.269 60.5586 88.8667 48.8341 66.9295C48.1358 65.6575 45.8747 66.6498 46.5721 67.9391L46.4699 67.9343Z" fill="#004E63"/>
<path d="M22.3884 74.6988C20.2333 76.9175 20.0783 80.1906 19.8057 82.9172C19.3439 86.3209 19.1268 89.7487 19.1558 93.1813C19.2179 100.045 20.2217 106.892 22.1467 113.581C22.2481 113.842 22.4593 114.062 22.7389 114.199C23.0185 114.337 23.3466 114.381 23.6591 114.324C23.9716 114.267 24.246 114.112 24.429 113.89C24.612 113.668 24.6904 113.395 24.6489 113.124C21.945 103.867 21.0943 94.31 22.1329 84.8595C22.4522 82.013 22.4453 78.2611 24.6045 75.9554C25.6195 74.8692 23.4622 73.6678 22.4473 74.7539L22.3884 74.6988Z" fill="#004E63"/>
<path d="M26.4106 75.0625C29.3824 72.4811 34.6997 73.1865 38.4042 74.182C42.5997 75.3072 46.343 77.4354 49.1844 80.311C50.2395 81.4079 52.1334 79.9446 51.057 78.8641C47.7433 75.5308 43.3431 73.1092 38.4295 71.9148C33.9894 70.8671 28.249 70.4383 24.6626 73.4442C23.529 74.4375 25.2566 76.0548 26.4106 75.0625Z" fill="#004E63"/>
<path d="M49.596 80.2612C52.4154 85.3735 55.3395 90.4384 58.3685 95.4559C58.5491 95.6774 58.8175 95.8364 59.1232 95.9028C59.4289 95.9693 59.7509 95.9388 60.0287 95.8169C60.3064 95.695 60.5208 95.4902 60.6314 95.241C60.7421 94.9918 60.7414 94.7153 60.6296 94.4636C57.6012 89.4345 54.677 84.3696 51.857 79.2689C51.1391 77.9786 48.878 78.9709 49.596 80.2612Z" fill="#004E63"/>
<path d="M27.9991 102.987C27.202 101.204 29.2276 99.5553 30.5698 98.4847C32.0157 97.3702 33.5436 96.3353 35.1447 95.386C38.5272 93.4531 42.033 91.6794 45.6466 90.0726L44.3579 90.0116L49.1975 93.0151C50.5317 93.846 51.9093 92.0268 50.5751 91.1958L45.7757 88.2117C45.5869 88.1008 45.3663 88.0364 45.1388 88.0256C44.9112 88.0149 44.6856 88.0581 44.4871 88.1507C40.2207 90.0347 36.119 92.1728 32.2118 94.5492C28.8293 96.7097 23.9459 99.8287 25.7994 103.982C26.3938 105.284 28.6549 104.292 28.0605 102.99L27.9991 102.987Z" fill="#004E63"/>
<path d="M25.5047 112.362C26.5289 107.229 29.6368 102.592 34.2887 99.255C38.9407 95.918 44.8428 94.0921 50.9704 94.0944C52.1568 94.1506 55.2245 93.877 55.8926 94.9207C56.0732 95.1422 56.3415 95.3012 56.6472 95.3677C56.9529 95.4342 57.2749 95.4036 57.5527 95.2817C57.8304 95.1598 58.0449 94.955 58.1555 94.7058C58.2662 94.4566 58.2654 94.1801 58.1536 93.9284C56.4542 91.283 51.0563 91.8475 48.1565 92.0418C42.0026 92.5217 36.2297 94.6964 31.7092 98.2376C27.1888 101.779 24.1662 106.494 23.0978 111.672C22.8077 113.037 25.2547 113.746 25.5456 112.364L25.5047 112.362Z" fill="#004E63"/>
<path d="M28.4325 116.793C28.8647 114.078 29.9445 111.475 31.6058 109.143C33.2672 106.812 35.475 104.801 38.0941 103.235C40.7132 101.668 43.6885 100.578 46.8377 100.032C49.9869 99.4854 53.2438 99.4943 56.4088 100.058C58.0148 100.343 58.7895 98.2684 57.1834 97.983C53.6487 97.3347 50.0062 97.3112 46.4828 97.9138C42.9593 98.5165 39.6302 99.7325 36.7029 101.486C33.7756 103.24 31.3129 105.493 29.4677 108.107C27.6226 110.72 26.4346 113.637 25.9779 116.677C25.7687 118.063 28.3256 118.184 28.5347 116.798L28.4325 116.793Z" fill="#004E63"/>
<path d="M29.1066 116.843C32.601 105.388 47.46 102.008 59.6313 100.839C61.2579 100.69 60.6614 98.5675 59.0348 98.7173C45.9839 99.8443 30.3923 103.974 26.6774 116.187C26.2654 117.529 28.6307 118.234 29.1049 116.878L29.1066 116.843Z" fill="#004E63"/>
<path d="M21.0938 112.433C25.4038 127.999 36.5539 141.647 52.2341 150.551C52.5179 150.67 52.8414 150.697 53.1436 150.627C53.4459 150.557 53.706 150.395 53.8753 150.172C54.0445 149.948 54.1111 149.678 54.0626 149.413C54.014 149.148 53.8536 148.906 53.6116 148.731C38.4747 140.132 27.725 126.942 23.5994 111.906C23.4979 111.646 23.2868 111.426 23.0072 111.289C22.7275 111.151 22.3995 111.107 22.087 111.164C21.7745 111.221 21.5 111.376 21.317 111.597C21.134 111.819 21.0556 112.093 21.0971 112.364L21.0938 112.433Z" fill="#004E63"/>
<path d="M59.9968 97.4513C66.0249 113.022 72.2569 130.347 63.6856 145.977C63.011 147.237 65.4392 147.91 66.1335 146.669C74.8636 130.715 68.6545 112.902 62.4785 96.9929C61.9675 95.6601 59.4662 96.1 59.9968 97.4513Z" fill="#004E63"/>
<path d="M115.917 47.3517C130.344 60.1676 145.4 72.4026 161.085 84.0566C162.312 84.9872 164.205 83.5413 162.957 82.6098C147.272 70.9673 132.216 58.7323 117.789 45.9048C116.649 44.8737 114.777 46.3205 115.917 47.3517Z" fill="#004E63"/>
<path d="M156.011 89.4529C156.217 89.1674 156.442 88.8926 156.686 88.6299C156.816 88.479 156.686 88.6299 156.686 88.6299L156.879 88.4471C157.028 88.332 157.157 88.1985 157.286 88.0824L158.134 87.477L158.367 87.331C158.557 87.2178 158.367 87.331 158.367 87.331L158.871 87.0756C159.188 86.9169 159.516 86.7751 159.855 86.6511L160.397 86.4499C160.602 86.4596 160.397 86.4499 160.397 86.4499L160.663 86.4625C161.037 86.363 161.417 86.2819 161.802 86.2198L162.313 86.244L162.6 86.2576C162.375 86.2469 162.6 86.2576 162.723 86.2634C163.063 86.275 163.393 86.1734 163.643 85.98C163.894 85.7867 164.044 85.5168 164.063 85.2276C164.071 84.9395 163.946 84.6584 163.715 84.445C163.483 84.2317 163.164 84.1031 162.826 84.0871C160.978 84.1575 159.183 84.601 157.588 85.381C155.994 86.1609 154.646 87.2552 153.654 88.5736C153.502 88.8143 153.463 89.0963 153.544 89.3636C153.625 89.631 153.82 89.8643 154.091 90.0175C154.362 90.1707 154.689 90.2325 155.007 90.1908C155.326 90.1492 155.613 90.007 155.811 89.7924L156.011 89.4529Z" fill="#004E63"/>
<path d="M161.048 85.2591C178.223 86.4487 195.299 88.6505 212.152 91.8489C213.758 92.1517 214.532 90.0945 212.926 89.7916C195.854 86.5358 178.553 84.2941 161.151 83.0829C160.839 83.1017 160.546 83.2172 160.33 83.4077C160.113 83.5982 159.986 83.8507 159.973 84.1177C159.961 84.3847 160.063 84.6479 160.261 84.8581C160.459 85.0682 160.739 85.2108 161.048 85.2591Z" fill="#004E63"/>
<path d="M204.406 43.2881C205.049 61.3477 209.473 79.2135 217.468 96.0443C218.083 97.3472 220.323 96.3539 219.709 95.0511C211.918 78.5682 207.602 61.0832 206.962 43.4091C206.906 42.0105 204.349 41.8895 204.406 43.2881Z" fill="#004E63"/>
<path d="M205.397 57.8693C206.262 58.971 207.282 59.9803 208.432 60.8746L209.623 61.6988C210.478 62.3898 211.041 63.3009 211.223 64.2872C212.164 67.3504 213.085 70.4127 214.027 73.476C214.968 76.5392 216.181 79.5106 216.774 82.5574C217.368 85.6042 215.977 88.1383 216.869 90.9549C217.296 92.3187 219.798 91.8613 219.35 90.4966C218.477 87.7331 219.841 84.9012 219.256 82.0991C218.59 78.8395 217.309 75.5857 216.333 72.3812C215.358 69.1767 214.583 66.0516 213.419 62.9254C212.499 60.2645 209.5 59.0931 207.556 56.8548C206.626 55.7115 204.365 56.7037 205.294 57.8644L205.397 57.8693Z" fill="#004E63"/>
<path d="M151.584 18.399L151.578 18.5209L153.19 17.8294L152.964 17.8187L153.828 18.6274L153.836 18.4707L153.185 19.6613C154.308 19.8867 155.399 20.2194 156.438 20.6529L159.935 21.7084C162.237 22.4455 164.559 23.2011 166.838 24.0069C171.596 25.6805 176.287 27.5078 180.928 29.4899C189.755 33.3309 198.243 37.7221 206.322 42.6273C207.677 43.4592 209.034 41.6389 207.7 40.808C198.74 35.3668 189.279 30.5592 179.413 26.4344C174.709 24.4668 169.955 22.6887 165.091 21.0626C162.65 20.2316 160.185 19.4518 157.719 18.7243C156.163 18.2493 153.7 16.9986 152.047 17.7229C151.8 17.8374 151.605 18.0162 151.487 18.2333C151.37 18.4505 151.338 18.6948 151.395 18.931C151.451 19.1714 151.587 19.3943 151.785 19.5736C151.983 19.7529 152.237 19.8812 152.515 19.9437C152.84 20.025 153.187 19.9988 153.486 19.8705C153.785 19.7422 154.014 19.5212 154.127 19.2523L154.132 19.1478C154.767 17.8517 152.318 17.1774 151.685 18.4387L151.584 18.399Z" fill="#004E63"/>
<path d="M72.5065 6.43673C85.2901 10.6423 98.4767 13.8597 111.905 16.0493C118.483 17.1053 125.101 17.9246 131.756 18.5072C138.382 19.3555 145.101 19.4093 151.716 18.667C153.328 18.4117 152.751 16.2906 151.14 16.5458C144.676 17.5485 137.902 16.8613 131.39 16.2913C124.571 15.6893 117.804 14.8455 111.011 13.7038C98.1571 11.5094 85.5336 8.37215 73.2828 4.32725C71.7284 3.81743 70.9504 5.96173 72.5089 6.38449L72.5065 6.43673Z" fill="#004E63"/>
<path d="M21.817 31.3281C25.6137 23.7936 31.9564 17.4165 40.0489 12.9973C44.1016 10.7729 48.461 8.97571 53.0334 7.64444C57.7934 6.26447 64.0713 4.43291 69.1078 5.43911C70.7122 5.75935 71.5066 3.70308 69.8818 3.38187C64.5613 2.30988 58.6468 3.82712 53.6005 5.19352C48.3927 6.58364 43.433 8.55476 38.8494 11.056C30.2338 15.7602 23.4905 22.5582 19.4739 30.589C18.8393 31.8677 21.2872 32.5593 21.9217 31.2807L21.817 31.3281Z" fill="#004E63"/>
<path d="M57.7908 7.6436C69.1336 14.881 80.7225 21.8277 92.5575 28.4835C92.8414 28.6023 93.1648 28.6293 93.4671 28.5595C93.7694 28.4897 94.0296 28.3278 94.1989 28.1043C94.3681 27.8809 94.4347 27.6112 94.3862 27.346C94.3376 27.0808 94.1772 26.8383 93.9352 26.6642C82.1127 20.0323 70.5238 13.0856 59.1685 5.82433C57.8351 4.97599 56.4574 6.79527 57.7908 7.6436Z" fill="#004E63"/>
<path d="M22.008 27.3066C28.7027 37.3212 34.8047 47.6095 40.2909 58.1322C40.9679 59.4206 43.229 58.4283 42.552 57.14C37.0703 46.6154 30.9681 36.327 24.269 26.3144C23.4455 25.0888 21.1845 26.0811 22.008 27.3066Z" fill="#004E63"/>
<path d="M45.7124 28.4981C48.4239 32.323 49.7695 36.7248 49.5822 41.1573C49.0572 45.5632 47.386 49.7993 44.6899 53.5588C40.4587 60.5607 34.2045 66.5124 26.5066 70.8625C25.1391 71.6004 26.3788 73.561 27.7062 72.8037C36.2347 68.0067 43.0965 61.3628 47.602 53.5397C50.1705 49.6669 51.7108 45.3518 52.1163 40.8934C52.2283 36.2239 50.7915 31.6019 47.9709 27.558C47.1474 26.3325 44.8619 27.4108 45.7099 28.5503L45.7124 28.4981Z" fill="#004E63"/>
<path d="M48.7144 28.7461C49.2865 28.3544 49.8569 27.9975 50.4273 27.6406L51.1868 27.188L52.1132 26.6735C53.3364 26.0036 54.6041 25.3937 55.9103 24.8466C56.2087 24.7116 56.4321 24.4822 56.5332 24.207C56.6342 23.9317 56.605 23.6322 56.4517 23.3716C56.2816 23.1213 56.0072 22.9338 55.684 22.8473C55.3608 22.7607 55.0128 22.7815 54.7106 22.9053C51.9661 24.0705 49.3776 25.4802 46.9878 27.1113C46.8401 27.1999 46.7166 27.3144 46.6254 27.4473C46.5342 27.5801 46.4774 27.7283 46.4585 27.8822C46.4397 28.0361 46.4593 28.1921 46.5162 28.34C46.573 28.4879 46.6658 28.6243 46.7884 28.7404C46.911 28.8565 47.0607 28.9495 47.2275 29.0134C47.3944 29.0773 47.5747 29.1106 47.7566 29.1111C47.9385 29.1117 48.1179 29.0794 48.283 29.0165C48.4481 28.9536 48.5951 28.8614 48.7144 28.7461Z" fill="#004E63"/>
<path d="M56.1444 25.0835C62.5761 27.8826 69.5048 29.7331 76.6321 30.5553C82.7496 31.2462 89.5636 31.5165 94.7186 28.2882C96.0493 27.4613 94.3005 25.8604 92.9911 26.6709C88.3018 29.5897 81.5453 28.9732 76.0618 28.3123C69.6133 27.5067 63.3489 25.8011 57.5221 23.2642C56.0552 22.6364 54.6784 24.4383 56.1444 25.0835Z" fill="#004E63"/>
<path d="M96.1996 28.1835C101.607 25.7595 107.424 24.0468 113.456 23.1026C115.067 22.8474 114.492 20.7088 112.88 20.9641C106.632 21.9528 100.605 23.7317 94.9999 26.2422C94.7425 26.3926 94.56 26.6188 94.4866 26.8783C94.4132 27.1377 94.454 27.4125 94.6014 27.6509C94.7488 27.8894 94.9925 28.0751 95.2868 28.1732C95.5811 28.2713 95.9057 28.2749 96.1996 28.1835Z" fill="#004E63"/>
<path d="M89.4003 29.8005C93.4052 32.6326 97.6402 35.2182 102.072 37.5371C103.493 38.2848 104.87 36.4655 103.449 35.7352C99.0217 33.4042 94.7875 30.8131 90.778 27.9812C90.6372 27.8799 90.4733 27.805 90.297 27.7614C90.1207 27.7178 89.9362 27.7064 89.7555 27.7281C89.5749 27.7498 89.4023 27.804 89.2492 27.8872C89.0962 27.9704 88.9661 28.0806 88.8677 28.2106C88.7693 28.3405 88.7047 28.4872 88.6784 28.641C88.652 28.7947 88.6645 28.952 88.7149 29.1023C88.7652 29.2527 88.8524 29.3927 88.9706 29.513C89.0887 29.6334 89.2352 29.7314 89.4003 29.8005Z" fill="#004E63"/>
<path d="M42.622 61.2953C43.929 63.0713 44.9948 64.9659 45.7988 66.9421C46.2493 67.8185 46.7987 69.2055 47.9931 69.5238C49.1876 69.8421 49.8605 68.6176 50.5505 67.9C51.8515 66.8055 53.38 65.9258 55.0606 65.3042C56.8907 64.5391 58.4806 63.4198 59.7051 62.0343C60.6407 60.892 58.4835 59.6906 57.5683 60.8338C56.1766 62.1887 54.4369 63.2519 52.4805 63.9432C51.4912 64.4003 50.5591 64.9407 49.698 65.5563C49.2589 65.8622 48.858 66.2057 48.5014 66.5815C48.3409 66.7387 48.1958 66.9069 48.0676 67.0845C47.9626 67.2856 47.8369 67.4781 47.6919 67.6599L48.2777 67.4085L48.8096 67.4337L48.6459 67.4259L49.185 67.7306C48.6899 67.1876 48.303 66.5796 48.0402 65.9315C47.7033 65.2525 47.3877 64.5571 47.0508 63.878C46.4186 62.4813 45.5786 61.1572 44.5517 59.9384C44.3171 59.7258 43.996 59.5979 43.6563 59.5819C43.3166 59.5658 42.9849 59.6627 42.7312 59.8522C42.4956 60.0504 42.3574 60.3179 42.344 60.6016C42.3306 60.8854 42.4429 61.1647 42.6587 61.3843L42.622 61.2953Z" fill="#004E63"/>
<path d="M50.0045 50.8624C51.0987 53.1315 52.4074 55.3235 53.9174 57.4166C55.1255 59.3494 57.1317 60.8386 59.5419 61.5915C61.1233 61.963 61.9153 59.9589 60.3167 59.5168C58.3876 58.8774 56.8096 57.6345 55.9094 56.0452C54.5166 54.0591 53.2989 51.9892 52.2664 49.8528C52.1954 49.7123 52.091 49.5854 51.96 49.4802C51.829 49.3751 51.6741 49.2939 51.5053 49.2419C51.3365 49.1899 51.1574 49.1682 50.9793 49.1781C50.8012 49.188 50.628 49.2294 50.4708 49.2996C50.3135 49.3698 50.1757 49.4673 50.0658 49.5859C49.956 49.7044 49.8766 49.8415 49.8328 49.9885C49.789 50.1354 49.7817 50.289 49.8112 50.4394C49.8408 50.5899 49.9066 50.7339 50.0045 50.8624Z" fill="#004E63"/>
<path d="M53.0359 48.7376C52.1541 45.7121 54.8045 42.5572 56.8386 40.2978C58.8574 38.0354 61.41 36.1602 64.3362 34.7899C69.8946 32.1795 76.437 31.4673 82.6558 32.7956C84.2594 33.1332 85.0291 31.163 83.4304 30.7209C76.2406 29.1435 68.6537 30.0385 62.3198 33.2113C59.0553 34.8894 56.2471 37.1334 54.074 39.8005C51.8983 42.4545 49.5473 45.7806 50.5541 49.196C50.6305 49.4772 50.8345 49.7229 51.1213 49.8788C51.408 50.0347 51.754 50.0882 52.0831 50.0274C52.4122 49.9666 52.6974 49.7966 52.8761 49.5547C53.0548 49.3128 53.1123 49.0189 53.0359 48.7376Z" fill="#004E63"/>
<path d="M81.4768 33.4714C85.108 35.7788 88.2548 38.5958 90.7794 41.7987C90.9424 42.0504 91.2116 42.2408 91.5315 42.3306C91.8514 42.4204 92.1977 42.4028 92.499 42.2815C92.7975 42.1465 93.0209 41.9171 93.1219 41.6419C93.2229 41.3666 93.1937 41.067 93.0405 40.8065C90.2944 37.2627 86.8477 34.1467 82.857 31.5998C82.5722 31.4448 82.2294 31.3895 81.9014 31.4456C81.5734 31.5018 81.2859 31.665 81.1001 31.9005C80.9212 32.1433 80.8607 32.4371 80.9314 32.7202C81.0021 33.0034 81.1985 33.2539 81.4793 33.4191L81.4768 33.4714Z" fill="#004E63"/>
<path d="M92.7986 42.4368C96.0543 40.6018 99.5669 39.1157 103.259 38.0114C103.582 37.9381 103.859 37.7646 104.037 37.5246C104.215 37.2847 104.281 36.9955 104.222 36.7134C104.144 36.4305 103.939 36.1835 103.651 36.026C103.363 35.8686 103.015 35.8136 102.683 35.8728C98.7944 37.0507 95.0978 38.6338 91.6766 40.5865C91.3831 40.7212 91.1647 40.949 91.0676 41.2213C90.9705 41.4937 91.0024 41.7891 91.1566 42.045C91.2335 42.1728 91.3391 42.2868 91.4673 42.3804C91.5956 42.4739 91.744 42.5452 91.9039 42.5901C92.0637 42.635 92.232 42.6526 92.3989 42.6419C92.5658 42.6312 92.728 42.5924 92.8763 42.5278L92.7986 42.4368Z" fill="#004E63"/>
<path d="M56.1547 39.6019C56.027 39.0211 55.9452 38.4343 55.9099 37.8454C55.9239 37.5494 55.9379 37.2535 55.9527 36.9401C55.9406 36.7713 55.9486 36.6021 55.9766 36.4352C55.9841 36.2785 56.3384 36.1557 56.4873 36.0406L57.3752 35.4719L59.1316 34.3162L60.6717 33.3945L61.5596 32.8258C61.6619 32.8306 62.1881 32.5415 61.6922 32.6227C61.1964 32.7039 61.6874 32.7272 61.8894 32.7891C63.286 33.2351 64.7376 33.5381 66.2134 33.6917C66.3939 33.7199 66.5788 33.7151 66.7558 33.6777C66.9329 33.6402 67.0978 33.5709 67.2399 33.4745C67.382 33.3781 67.4979 33.2567 67.5799 33.1183C67.6619 32.98 67.7081 32.828 67.7155 32.6723C67.7229 32.5166 67.6912 32.3609 67.6226 32.2154C67.5541 32.07 67.4502 31.9382 67.3179 31.8287C67.1855 31.7193 67.0278 31.6348 66.8551 31.5808C66.6824 31.5268 66.4988 31.5045 66.3164 31.5155C65.4994 31.4244 64.6907 31.2811 63.8971 31.0869C63.1375 30.7903 62.3312 30.5933 61.5057 30.5025C60.5648 30.458 59.8117 31.2075 59.1136 31.6631L57.0014 32.9764L54.8891 34.2898C54.1665 34.6481 53.6016 35.1963 53.2775 35.8537C53.1022 36.5204 53.0695 37.2104 53.1811 37.8907C53.2272 38.645 53.3354 39.3965 53.5051 40.1395C53.809 41.5149 56.3112 41.0576 55.9869 39.6812L56.1547 39.6019Z" fill="#004E63"/>
<path d="M47.1253 28.5309C49.6142 30.8557 51.9489 33.2964 54.1183 35.8415C54.353 36.0541 54.6741 36.182 55.0138 36.1981C55.3535 36.2141 55.6852 36.1172 55.9389 35.9277C56.1803 35.7289 56.3223 35.4579 56.336 35.17C56.3496 34.8822 56.2338 34.599 56.0122 34.3782C53.8262 31.8439 51.4921 29.4039 49.019 27.0675C48.9068 26.9524 48.7687 26.8574 48.613 26.7884C48.4574 26.7194 48.2875 26.6779 48.1135 26.6662C47.9394 26.6545 47.7648 26.673 47.6005 26.7205C47.4361 26.768 47.2853 26.8435 47.1572 26.9426C47.029 27.0416 46.9261 27.1621 46.8547 27.2967C46.7834 27.4313 46.7451 27.5772 46.7421 27.7257C46.7391 27.8742 46.7715 28.0221 46.8374 28.1604C46.9032 28.2988 47.0012 28.4248 47.1253 28.5309Z" fill="#004E63"/>
<path d="M54.2197 25.0453L60.3472 32.4546C60.5785 32.666 60.8962 32.7932 61.2325 32.8091C61.5688 32.825 61.8971 32.7284 62.1473 32.5399C62.3887 32.341 62.5307 32.07 62.5444 31.7822C62.558 31.4943 62.4422 31.2112 62.2206 30.9904L56.1127 23.5994C55.8809 23.3828 55.5589 23.2521 55.2177 23.2359C54.8764 23.2198 54.5435 23.3195 54.2922 23.5133C54.0567 23.7114 53.9186 23.9789 53.9051 24.2627C53.8917 24.5464 54.0039 24.8258 54.2197 25.0453Z" fill="#004E63"/>
<path d="M60.7201 62.258C64.5184 66.2555 69.9835 68.8483 75.9412 69.4795C81.8989 70.1107 87.8739 68.7298 92.5824 65.6335C93.8739 64.7698 92.1259 63.1515 90.8353 63.9978C86.6388 66.7234 81.3268 67.9171 76.0462 67.321C70.7657 66.7249 65.9406 64.387 62.6131 60.8121C61.5793 59.6987 59.7059 61.163 60.7201 62.258Z" fill="#004E63"/>
<path d="M91.2226 43.6708C95.0482 49.4705 96.9062 56.9918 91.5017 62.4592C90.4466 63.526 92.6037 64.7274 93.6588 63.6606C99.6019 57.6429 97.8138 49.078 93.4819 42.7134C92.6584 41.4878 90.3983 42.4627 91.221 43.7056L91.2226 43.6708Z" fill="#004E63"/>
<path d="M97.3806 119.306C93.5184 108.218 103.831 98.6729 113.751 93.1052C118.463 90.2678 123.897 88.4053 129.63 87.6625C133.156 87.3758 136.721 87.5446 140.205 88.1632C142.932 88.5889 146.543 88.9518 148.056 91.222C148.88 92.4301 151.144 91.3682 150.317 90.2298C149.626 89.2944 148.711 88.4917 147.634 87.8752C146.557 87.2586 145.342 86.8422 144.069 86.6536C140.367 85.7931 136.557 85.3429 132.734 85.3143C125.747 85.5229 119.001 87.4047 113.268 90.7442C102.134 96.8477 90.6042 107.417 94.8783 119.764C95.3483 121.095 97.8498 120.655 97.3814 119.289L97.3806 119.306Z" fill="#004E63"/>
<path d="M147.732 90.7023C151.849 98.1327 156.288 105.41 161.049 112.533C161.872 113.759 164.133 112.767 163.289 111.54C158.487 104.426 154.048 97.1492 149.972 89.709C149.254 88.4361 146.993 89.4284 147.711 90.7013L147.732 90.7023Z" fill="#004E63"/>
<path d="M110.409 134.249C108.795 125.029 117.525 118.166 125.518 113.449C133.512 108.733 143.229 104.394 153.34 106.042C154.947 106.31 155.741 104.254 154.115 103.967C142.909 102.076 132.466 106.572 123.626 111.859C114.786 117.146 106.129 124.624 107.909 134.654C108.151 136.044 110.654 135.569 110.411 134.196L110.409 134.249Z" fill="#004E63"/>
<path d="M111.058 138.275C118.684 143.487 126.57 148.38 134.718 152.953C135.003 153.086 135.335 153.124 135.647 153.059C135.96 152.995 136.231 152.832 136.407 152.603C136.583 152.375 136.65 152.097 136.596 151.825C136.543 151.553 136.371 151.307 136.116 151.135C127.955 146.561 120.061 141.668 112.436 136.456C111.145 135.575 109.788 137.395 111.058 138.275Z" fill="#004E63"/>
<path d="M157.372 106.181L169.139 132.598C169.712 133.916 171.974 132.906 171.4 131.605C167.471 122.8 163.548 113.994 159.633 105.189C159.039 103.869 156.798 104.88 157.372 106.181Z" fill="#004E63"/>
<path d="M134.889 149.769C133.529 148.187 134.351 145.992 135.145 144.372C136.091 142.532 137.267 140.786 138.651 139.164C141.392 135.814 145.167 133.181 149.569 131.549C153.998 129.894 159.025 129.746 163.632 131.133C164.218 131.266 164.768 131.497 165.251 131.812C165.733 132.128 166.138 132.522 166.442 132.97C166.746 133.419 166.942 133.913 167.018 134.424C167.095 134.935 167.051 135.453 166.889 135.946C166.183 137.892 164.994 139.68 163.402 141.19C159.794 144.497 155.61 147.311 150.993 149.537C149.626 150.275 150.866 152.218 152.194 151.461C157.223 149.05 161.756 145.966 165.624 142.325C168.755 138.983 172.025 133.555 166.978 130.175C162.583 127.314 155.706 127.512 150.643 128.791C145.183 130.308 140.428 133.226 137.024 137.15C133.886 140.648 129.168 146.776 132.897 151.14C133.869 152.268 135.742 150.821 134.771 149.676L134.889 149.769Z" fill="#004E63"/>
<path d="M135.852 153.705C138.429 155.077 141.513 155.558 144.462 155.048C147.411 154.537 149.998 153.075 151.685 150.965C151.82 150.725 151.847 150.45 151.76 150.191C151.674 149.933 151.479 149.709 151.214 149.561C150.95 149.414 150.632 149.353 150.321 149.39C150.011 149.427 149.728 149.56 149.528 149.764C148.223 151.408 146.217 152.551 143.926 152.956C141.636 153.361 139.237 152.996 137.227 151.938C136.943 151.82 136.619 151.793 136.317 151.862C136.015 151.932 135.755 152.094 135.585 152.318C135.416 152.541 135.35 152.811 135.398 153.076C135.447 153.341 135.607 153.584 135.849 153.758L135.852 153.705Z" fill="#004E63"/>
<path d="M127.679 114.581C132.018 119.638 136.357 124.7 140.695 129.767C140.926 129.979 141.244 130.106 141.581 130.122C141.917 130.138 142.245 130.041 142.495 129.853C142.741 129.656 142.886 129.385 142.9 129.095C142.914 128.806 142.795 128.522 142.569 128.303L129.573 113.118C129.338 112.905 129.017 112.778 128.677 112.761C128.337 112.745 128.006 112.842 127.752 113.032C127.511 113.231 127.369 113.502 127.355 113.789C127.341 114.077 127.457 114.361 127.679 114.581Z" fill="#004E63"/>
<path d="M120.959 122.709C125.881 126.723 130.625 130.873 135.192 135.161C135.421 135.375 135.739 135.505 136.077 135.521C136.414 135.537 136.743 135.438 136.992 135.246C137.24 135.054 137.387 134.785 137.401 134.498C137.414 134.211 137.293 133.929 137.064 133.714C132.484 129.414 127.74 125.264 122.832 121.262C121.647 120.299 119.754 121.745 120.959 122.709Z" fill="#004E63"/>
<path d="M113.821 130.136C120.222 134.696 126.29 139.587 131.989 144.781C133.129 145.812 135.022 144.366 133.882 143.335C128.026 138.003 121.786 132.987 115.199 128.316C113.93 127.419 112.552 129.238 113.821 130.136Z" fill="#004E63"/>
<path d="M138.019 110.517L149.953 130.381C150.134 130.603 150.402 130.761 150.708 130.828C151.014 130.894 151.336 130.864 151.614 130.742C151.891 130.62 152.106 130.415 152.216 130.166C152.327 129.917 152.326 129.64 152.214 129.389L140.28 109.525C139.54 108.269 137.279 109.261 138.019 110.517Z" fill="#004E63"/>
<path d="M144.36 105.181C147.483 111.959 150.941 118.597 154.734 125.093C155.474 126.349 157.735 125.357 156.996 124.083C153.204 117.575 149.774 110.928 146.706 104.14C146.111 102.838 143.85 103.831 144.445 105.133L144.36 105.181Z" fill="#004E63"/>
<path d="M150.4 106.217C154.874 113.061 158.564 120.248 161.417 127.678C161.929 128.993 164.431 128.553 163.921 127.203C161.007 119.584 157.236 112.211 152.662 105.19C151.859 103.966 149.594 105.045 150.401 106.183L150.4 106.217Z" fill="#004E63"/>
<path d="M101.046 139.739C103.757 138.316 106.556 137.015 109.431 135.844C109.688 135.693 109.871 135.467 109.944 135.208C110.018 134.948 109.977 134.673 109.829 134.435C109.682 134.196 109.438 134.011 109.144 133.913C108.85 133.815 108.525 133.811 108.231 133.902C105.356 135.074 102.557 136.374 99.8466 137.798C99.5531 137.933 99.3346 138.16 99.2375 138.433C99.1404 138.705 99.1723 139 99.3265 139.256C99.4034 139.384 99.509 139.498 99.6373 139.592C99.7655 139.685 99.9138 139.757 100.074 139.801C100.234 139.846 100.402 139.864 100.569 139.853C100.736 139.843 100.898 139.804 101.046 139.739Z" fill="#004E63"/>
<path d="M160.073 107.582C162.361 105.628 164.462 103.522 166.357 101.284C166.541 101.042 166.605 100.747 166.534 100.463C166.463 100.178 166.263 99.9274 165.978 99.7651C165.685 99.6188 165.341 99.5702 165.012 99.6289C164.683 99.6876 164.393 99.8493 164.2 100.082C162.437 102.174 160.479 104.141 158.345 105.965C158.223 106.06 158.123 106.175 158.053 106.303C157.983 106.431 157.943 106.571 157.936 106.713C157.93 106.855 157.956 106.998 158.014 107.132C158.071 107.267 158.159 107.39 158.273 107.497C158.386 107.603 158.523 107.689 158.675 107.751C158.827 107.813 158.991 107.849 159.158 107.857C159.325 107.864 159.492 107.844 159.649 107.797C159.806 107.75 159.95 107.677 160.073 107.582Z" fill="#004E63"/>
<path d="M92.6396 123.306C93.3154 123.012 94.0122 122.753 94.7263 122.532L94.4146 122.622C95.1792 122.393 95.9619 122.209 96.7573 122.07C97.083 122.008 97.3647 121.838 97.5412 121.598C97.7176 121.358 97.7746 121.067 97.6995 120.788C97.6218 120.505 97.4165 120.258 97.1283 120.101C96.8401 119.944 96.4924 119.889 96.1607 119.948C94.518 120.222 92.9346 120.7 91.4604 121.365C91.203 121.516 91.0205 121.742 90.9472 122.002C90.8738 122.261 90.9145 122.536 91.0619 122.774C91.2092 123.013 91.453 123.198 91.7474 123.296C92.0417 123.395 92.3662 123.398 92.66 123.307L92.6396 123.306Z" fill="#004E63"/>
<path d="M149.906 87.6461L149.1 87.7999L150.008 89.8321C150.413 89.6034 150.783 89.3339 151.112 89.0293C151.441 88.7272 151.732 88.3958 151.979 88.0409C152.072 87.918 152.128 87.7767 152.142 87.6298C152.199 87.4903 152.206 87.3388 152.162 87.1946C152.127 87.0578 152.056 86.9292 151.955 86.8183C151.869 86.6949 151.746 86.5928 151.6 86.5223C151.315 86.3673 150.972 86.3119 150.644 86.3681C150.316 86.4242 150.029 86.5874 149.843 86.823C149.68 87.0788 149.491 87.321 149.275 87.5465L149.491 87.3298C149.216 87.5924 148.909 87.8294 148.576 88.0368L148.85 87.8753C148.704 87.933 148.579 88.0236 148.489 88.1374C148.37 88.2335 148.286 88.3565 148.247 88.4923L148.233 88.7883C148.178 88.9224 148.172 89.0676 148.213 89.2062C148.235 89.3002 148.288 89.3874 148.365 89.4577C148.449 89.576 148.564 89.6769 148.7 89.7527C148.847 89.8328 149.011 89.8875 149.182 89.9136C149.353 89.9397 149.528 89.9366 149.697 89.9046L150.482 89.7673C150.811 89.7045 151.098 89.5372 151.284 89.2992C151.376 89.1823 151.432 89.0469 151.446 88.9055C151.503 88.7661 151.51 88.6146 151.466 88.4703C151.43 88.3324 151.361 88.2018 151.265 88.0863C151.168 87.9708 151.045 87.8728 150.904 87.798C150.613 87.6404 150.264 87.5803 149.928 87.6297L149.906 87.6461Z" fill="#004E63"/>
<path d="M113.281 41.5212C111.955 36.2951 112.332 30.8812 114.371 25.8687C114.663 24.845 115.167 23.8763 115.859 23.0077C117.101 21.8974 120.321 21.8579 122.069 21.7487C126.37 21.4881 130.702 21.97 134.805 23.1657C138.909 24.3613 142.7 26.2461 145.951 28.7073C147.177 29.6553 149.07 28.2094 147.824 27.2605C144.12 24.3978 139.75 22.2364 135.01 20.9222C130.269 19.6081 125.268 19.1718 120.344 19.6429C118.285 19.8421 115.387 20.0015 113.946 21.4165C112.484 23.2614 111.504 25.3564 111.072 27.5621C109.686 32.2632 109.586 37.1885 110.78 41.9612C110.881 42.2215 111.092 42.4418 111.372 42.5791C111.652 42.7164 111.98 42.7608 112.292 42.7037C112.605 42.6466 112.879 42.492 113.062 42.2702C113.245 42.0483 113.323 41.7751 113.282 41.5038L113.281 41.5212Z" fill="#004E63"/>
<path d="M110.93 37.5189C119.237 32.6542 127.337 27.5587 135.229 22.2323C136.521 21.3686 134.773 19.7503 133.502 20.615C125.78 25.7982 117.871 30.7748 109.773 35.5447C108.444 36.3368 109.643 38.2781 110.972 37.486L110.93 37.5189Z" fill="#004E63"/>
<path d="M113.421 45.0515L145.062 26.2736C146.39 25.4989 145.191 23.5402 143.862 24.3323L112.222 43.1102C110.894 43.8848 112.092 45.8436 113.421 45.0515Z" fill="#004E63"/>
<path d="M21.8055 89.6076C29.307 84.4488 37.0545 79.5809 45.0478 75.0038C46.3752 74.2465 45.1763 72.2878 43.8268 73.0789C35.6633 77.7875 27.7461 82.7754 20.0755 88.0425C18.8037 88.9245 20.5312 90.5418 21.8022 89.6772L21.8055 89.6076Z" fill="#004E63"/>
<path d="M25.1161 97.1965L53.64 79.7194C54.9699 78.9099 53.2219 77.2916 51.8929 78.0837L23.3885 95.5792C22.0587 96.3887 23.8066 98.007 25.1161 97.1965Z" fill="#004E63"/>
<path d="M23.3563 85.4401L24.5908 85.7778L24.8959 86.2633C24.8819 86.5593 25.0186 86.2691 25.0866 86.1328C25.1527 85.9933 25.2276 85.857 25.3109 85.7246C25.4681 85.4354 25.645 85.1646 25.8218 84.8938C26.1911 84.3108 26.6012 83.7476 27.0497 83.207C27.952 82.1193 28.9604 81.099 30.0642 80.1565C32.3584 78.2636 34.7976 76.5022 37.3661 74.8836C38.6568 74.0374 36.9088 72.4191 35.6182 73.2654C32.6757 75.0946 29.9249 77.1358 27.3954 79.3671C26.1495 80.496 25.0404 81.7295 24.0845 83.0492C23.6304 83.6909 23.2158 84.3527 22.8426 85.0319C22.4365 85.8154 22.0754 86.5137 22.7363 87.2778C22.8836 87.4241 23.0753 87.533 23.2898 87.5925C23.5042 87.652 23.733 87.6596 23.9504 87.6145L24.0527 87.6193C24.3818 87.5585 24.667 87.3885 24.8457 87.1466C25.0244 86.9048 25.0819 86.6109 25.0055 86.3296C24.9291 86.0483 24.7251 85.8027 24.4384 85.6468C24.1517 85.4908 23.8057 85.4374 23.4766 85.4982L23.3563 85.4401Z" fill="#004E63"/>
<path d="M111.78 30.7888C117.512 28.0589 123.764 26.1892 130.267 25.2602C131.877 25.0224 131.302 22.8838 129.671 23.1207C122.96 24.1009 116.506 26.0368 110.58 28.8475C109.155 29.5129 110.334 31.4532 111.78 30.7888Z" fill="#004E63"/>
<path d="M128.031 39.6026C127.586 40.7959 127.436 42.0581 127.588 43.3109C127.74 44.5637 128.192 45.7804 128.916 46.8858C129.079 47.1379 129.35 47.3276 129.671 47.4144C129.992 47.5013 130.339 47.4786 130.637 47.3512C130.935 47.2162 131.158 46.9868 131.26 46.7116C131.361 46.4363 131.331 46.1367 131.178 45.8762C131.001 45.6358 130.849 45.3834 130.722 45.1217C130.678 45.0609 130.647 44.9946 130.629 44.9254C130.634 44.8209 130.634 44.8035 130.629 44.9254C130.623 45.0472 130.629 44.9254 130.629 44.9254C130.602 44.8586 130.57 44.7931 130.535 44.729C130.359 44.2205 130.232 43.7009 130.158 43.1756C130.148 43.3846 130.168 42.9667 130.169 42.9319C130.171 42.8971 130.179 42.723 130.184 42.6185C130.189 42.5141 130.211 42.0614 130.224 41.7828C130.237 41.5043 130.235 41.5565 130.239 41.452C130.253 41.3831 130.256 41.313 130.249 41.2431C130.244 41.365 130.244 41.365 130.249 41.2431C130.255 41.1212 130.398 40.6918 130.493 40.4345C130.546 40.2996 130.567 40.1565 130.555 40.0137C130.542 39.871 130.497 39.7312 130.421 39.6027C130.345 39.4741 130.24 39.3593 130.112 39.2648C129.985 39.1703 129.836 39.0981 129.677 39.0523C129.352 38.962 129.001 38.984 128.699 39.1134C128.397 39.2429 128.169 39.4695 128.065 39.7438L128.031 39.6026Z" fill="#004E63"/>
<path d="M131.779 40.094C136.831 36.727 142.051 33.56 147.44 30.5928C147.731 30.4517 147.947 30.2208 148.044 29.9468C148.141 29.6728 148.111 29.3762 147.961 29.1169C147.798 28.8601 147.524 28.667 147.198 28.5796C146.872 28.4923 146.52 28.5178 146.22 28.6506C140.608 31.7234 135.218 34.9988 130.051 38.4767C128.761 39.3229 130.509 40.9412 131.779 40.094Z" fill="#004E63"/>
<path d="M122.063 51.7609C139.605 66.9149 163.146 75.9186 187.929 76.9522C188.241 76.9334 188.534 76.8179 188.751 76.6274C188.967 76.4369 189.094 76.1845 189.107 75.9175C189.119 75.6504 189.017 75.3872 188.819 75.177C188.621 74.9669 188.341 74.8243 188.032 74.776C163.929 73.795 141.021 65.065 123.934 50.3489C122.772 49.3516 120.899 50.7985 122.061 51.8132L122.063 51.7609Z" fill="#004E63"/>
<path d="M151.484 27.8867C168.935 37.7341 188.189 49.7955 191.353 68.7031C191.594 70.093 194.097 69.6356 193.855 68.2457C190.676 48.7791 170.77 36.2156 152.8 26.0645C152.516 25.9457 152.193 25.9187 151.891 25.9885C151.588 26.0584 151.328 26.2202 151.159 26.4437C150.99 26.6672 150.923 26.9369 150.972 27.2021C151.02 27.4673 151.181 27.7097 151.423 27.8838L151.484 27.8867Z" fill="#004E63"/>
<path d="M188.543 75.2359C190.316 74.5692 191.864 73.5402 193.051 72.2387C193.625 71.576 194.01 70.8073 194.177 69.9922C194.344 69.177 194.287 68.3373 194.012 67.538C193.921 67.2617 193.713 67.0226 193.428 66.8672C193.144 66.7118 192.803 66.6513 192.473 66.6974C192.145 66.7633 191.861 66.9352 191.681 67.1772C191.502 67.4191 191.44 67.7123 191.509 67.9954C191.582 68.1442 191.637 68.2988 191.672 68.4567L191.66 68.7179C191.66 68.7179 191.654 68.8398 191.66 68.7179C191.673 68.8751 191.665 69.0327 191.638 69.188C191.644 69.2753 191.639 69.3628 191.625 69.4491C191.625 69.4491 191.619 69.5884 191.625 69.4491C191.549 69.7607 191.438 70.0651 191.295 70.3583C191.302 70.2016 191.295 70.3583 191.295 70.3583L191.14 70.5952C191.134 70.7345 190.943 70.8651 190.834 70.9995C190.779 71.0521 190.728 71.108 190.683 71.1669C190.532 71.3168 190.875 71.0015 190.683 71.1669L190.277 71.5141C189.987 71.7409 189.683 71.9537 189.365 72.1514C189.196 72.2655 189.488 72.1572 189.365 72.1514L189.092 72.2955C188.93 72.3949 188.761 72.486 188.587 72.5682L187.498 73.0576C187.199 73.1923 186.976 73.423 186.878 73.6995C186.781 73.976 186.816 74.2758 186.977 74.5336C187.143 74.7825 187.414 74.9693 187.734 75.0558C188.054 75.1423 188.398 75.1219 188.697 74.9989L188.543 75.2359Z" fill="#004E63"/>
<path d="M53.0492 151.095C54.7108 151.47 56.4388 151.56 58.1313 151.358C59.8238 151.157 61.4466 150.668 62.9042 149.921C63.1616 149.771 63.3441 149.544 63.4174 149.285C63.4908 149.026 63.45 148.751 63.3026 148.512C63.1553 148.274 62.9116 148.088 62.6172 147.99C62.3229 147.892 61.9984 147.888 61.7046 147.98C60.5205 148.62 59.1874 149.039 57.7923 149.208C56.471 149.355 55.1255 149.291 53.824 149.02C53.6586 148.958 53.4802 148.926 53.3004 148.925C53.1207 148.925 52.9434 148.957 52.78 149.019C52.6166 149.081 52.4709 149.171 52.3519 149.284C52.2329 149.398 52.1433 149.531 52.0891 149.677C52.0348 149.822 52.017 149.976 52.0368 150.128C52.0566 150.281 52.1135 150.428 52.2039 150.562C52.2944 150.695 52.4162 150.812 52.5618 150.904C52.7073 150.995 52.8734 151.06 53.0492 151.095Z" fill="#004E63"/>
<path d="M132.846 54.3464L132.717 54.4799L133.632 54.2091L133.877 54.2208L134.419 54.892C134.585 54.414 134.82 53.9562 135.12 53.5293C135.434 52.9509 135.748 52.3725 136.102 51.8309C136.791 50.6944 137.541 49.5783 138.312 48.4457C139.946 46.326 141.832 44.3572 143.941 42.5701C145.927 40.7216 148.226 39.1371 150.765 37.8679C153.825 36.4598 157.19 36.8284 160.512 37.23C162.143 37.4294 162.246 35.2531 160.616 35.0538C156.539 34.5467 152.448 34.3705 148.812 36.2399C145.679 37.9682 142.86 40.0734 140.439 42.4916C137.985 44.854 135.873 47.46 134.147 50.2551C133.169 51.5636 132.412 52.9841 131.897 54.476C131.633 55.7198 133.35 57.1273 134.575 55.9289C135.801 54.7306 133.903 53.2448 132.828 54.2932L132.846 54.3464Z" fill="#004E63"/>
<path d="M132.033 54.2235C130.939 51.0402 130.98 47.6657 132.151 44.5319C133.322 41.398 135.569 38.6474 138.606 36.632C141.607 34.6626 145.117 33.3233 148.857 32.7201C151.483 32.2512 156.917 31.3568 158.366 34.0777C159.064 35.367 161.305 34.3738 160.628 33.0854C158.896 29.8277 153.972 29.9087 150.511 30.2683C145.994 30.7467 141.702 32.1676 138.014 34.4054C134.303 36.6097 131.504 39.7506 130.003 43.3953C128.501 47.04 128.371 51.009 129.63 54.7553C130.12 56.0872 132.621 55.6473 132.111 54.297L132.033 54.2235Z" fill="#004E63"/>
<path d="M134.524 57.4635C135.082 54.542 136.635 51.837 138.993 49.6834C140.967 47.625 143.222 45.7756 145.711 44.1735C150.899 40.9604 156.531 38.2977 162.487 36.2432C163.99 35.6861 162.79 33.7448 161.288 34.3019C154.879 36.5121 148.848 39.4294 143.349 42.9798C140.73 44.7476 138.382 46.7873 136.358 49.0526C134.012 51.3896 132.517 54.2628 132.05 57.3289C132.077 57.5957 132.217 57.8464 132.444 58.0341C132.671 58.2218 132.97 58.3335 133.283 58.3484C133.597 58.3632 133.905 58.2801 134.148 58.1148C134.392 57.9494 134.555 57.713 134.607 57.45L134.524 57.4635Z" fill="#004E63"/>
<path d="M101.96 37.303C105.69 39.9496 109.599 42.407 113.666 44.6623C113.95 44.7811 114.273 44.8081 114.575 44.7383C114.878 44.6685 115.138 44.5066 115.307 44.2831C115.476 44.0596 115.543 43.7899 115.494 43.5247C115.446 43.2595 115.285 43.0171 115.043 42.843C110.977 40.5878 107.068 38.1303 103.337 35.4837C103.051 35.3231 102.704 35.2645 102.371 35.3207C102.038 35.3768 101.746 35.5432 101.56 35.7834C101.393 36.0306 101.341 36.3235 101.415 36.6047C101.489 36.8859 101.683 37.1349 101.96 37.303Z" fill="#004E63"/>
<path d="M19.1562 155.09C26.1078 157.644 32.5696 161.093 38.3119 165.315C39.5397 166.228 41.4532 164.783 40.1853 163.851C34.1189 159.374 27.2857 155.718 19.9309 153.016C18.4199 152.455 17.6451 154.53 19.1562 155.09Z" fill="#004E63"/>
<path d="M72.0959 179.216C83.6294 186.841 93.8619 195.803 102.489 205.833C103.48 206.98 105.354 205.515 104.382 204.388C95.6031 194.213 85.1972 185.126 73.4736 177.396C72.1623 176.514 70.7838 178.351 72.0959 179.216Z" fill="#004E63"/>
<path d="M104.829 206.625C115.086 206.483 125.676 206.234 134.717 201.898C136.144 201.215 134.842 199.269 133.518 199.957C124.855 204.101 114.656 204.299 104.932 204.449C103.291 204.476 103.167 206.651 104.829 206.625Z" fill="#004E63"/>
<path d="M226.386 148.866C231.459 144.866 235.439 139.965 238.055 134.5C239.155 132.512 239.7 130.329 239.648 128.119C239.509 126.734 236.953 126.596 237.091 127.998C237.136 130.07 236.604 132.114 235.538 133.962C233.082 139.012 229.372 143.538 224.659 147.232C223.466 148.187 225.194 149.804 226.407 148.867L226.386 148.866Z" fill="#004E63"/>
<path d="M217.691 90.0349C224.202 103.779 230.92 117.475 237.845 131.122C238.501 132.427 240.763 131.417 240.107 130.13C233.165 116.54 226.446 102.844 219.952 89.0426C219.337 87.7397 217.075 88.7494 217.691 90.0349Z" fill="#004E63"/>
<path d="M205.337 42.2326C206.438 43.6916 207.394 45.2254 208.195 46.8174C208.376 47.0389 208.644 47.1979 208.95 47.2644C209.255 47.3309 209.577 47.3003 209.855 47.1784C210.133 47.0565 210.347 46.8517 210.458 46.6025C210.569 46.3533 210.568 46.0768 210.456 45.8251C209.655 44.2331 208.699 42.6994 207.598 41.2403C207.533 41.0939 207.432 40.9605 207.303 40.849C207.173 40.7374 207.018 40.6502 206.847 40.5932C206.675 40.5362 206.492 40.5106 206.31 40.5182C206.128 40.5258 205.95 40.5664 205.788 40.6373C205.627 40.7081 205.485 40.8077 205.373 40.9293C205.261 41.0509 205.181 41.1919 205.139 41.3427C205.096 41.4936 205.092 41.6509 205.126 41.8043C205.16 41.9578 205.232 42.1037 205.337 42.2326Z" fill="#004E63"/>
<path d="M208.581 47.7605C207.943 52.2627 207.962 56.8231 208.635 61.3385C208.713 61.6169 208.916 61.8595 209.201 62.0135C209.485 62.1675 209.828 62.2204 210.154 62.1607C210.485 62.0988 210.772 61.9278 210.953 61.6847C211.133 61.4416 211.192 61.1462 211.118 60.8628C210.509 56.5429 210.516 52.1841 211.138 47.8816C211.347 46.4956 208.789 46.3919 208.581 47.7605Z" fill="#004E63"/>
<path d="M135.968 148.634C135.22 145.807 138.277 143.16 140.213 141.245C142.369 139.184 144.765 137.316 147.365 135.668C152.501 132.421 158.783 129.63 165.456 130.278C167.088 130.442 167.191 128.266 165.559 128.101C158.029 127.361 150.97 130.552 145.216 134.31C142.289 136.218 139.622 138.398 137.261 140.808C134.958 143.125 132.616 145.823 133.485 149.11C133.565 149.391 133.771 149.636 134.06 149.79C134.349 149.945 134.696 149.996 135.025 149.933C135.354 149.87 135.639 149.698 135.815 149.454C135.992 149.21 136.047 148.915 135.968 148.634Z" fill="#004E63"/>
<path d="M135.024 151.694C137.465 152.718 140.189 153.132 142.874 152.885C145.559 152.638 148.093 151.741 150.178 150.3C152.564 148.842 154.736 147.13 156.945 145.507L164.398 140.067C165.63 139.166 163.902 137.549 162.65 138.449C158.53 141.465 154.448 144.552 150.229 147.493C148.419 148.89 146.272 149.937 143.934 150.562C141.396 151.128 138.688 150.882 136.32 149.87C134.854 149.225 133.476 151.044 134.942 151.69L135.024 151.694Z" fill="#004E63"/>
</svg>
