<svg width="239" height="241" viewBox="0 0 239 241" fill="none" xmlns="http://www.w3.org/2000/svg">
<path d="M31.7369 34.1707C47.3223 31.8467 57.1474 30.0793 60.6904 28.9079C62.0453 28.5043 63.837 27.7966 66.0745 28.2896C68.0611 28.7413 69.0086 30.0244 70.489 29.6413C71.5729 29.3184 72.2559 28.3034 72.6679 27.369L102.569 23.3892L136.906 17.5081L225.305 65.7303L228.504 69.7632L229.61 73.2019L228.482 80.0312L223.118 107.834L221.691 110.23L219.523 110.876L221.77 112.874L221.788 115.883L216.034 148.382L212.901 151.75L214.676 155.048L208.539 189.864L206.786 193.459L204.618 194.105L161.728 204.969L152.893 206.162L138.208 210.874L97.4652 221.214L93.633 219.457L16.2005 157.88L14.7532 153.383L19.1028 120.027L22.0141 118.001L19.4873 114.579L23.8233 78.966L26.8599 76.9599L24.2233 72.6435L28.6041 37.5389L31.7369 34.1707Z" fill="#1C4C5F"/>
<path d="M192.541 112.109L197.463 82.3494C197.73 81.5162 198.142 80.5816 198.409 79.7484C199.011 79.2209 199.759 78.5919 200.361 78.0644C209.515 76.4347 218.524 74.9064 227.678 73.2767C228.264 73.6235 228.495 73.7866 228.936 74.2348C228.98 74.7432 229.13 75.3942 229.175 75.9026C227.274 86.6151 225.374 97.3276 223.473 108.04C223.122 108.609 222.77 109.178 222.273 109.848C221.711 110.131 221.254 110.557 220.692 110.841C212.185 112.452 203.553 114.042 195.046 115.652C194.649 115.712 194.273 115.651 193.792 115.446L193.667 115.426C192.83 115.038 192.324 114.203 192.34 113.329C192.525 112.984 192.606 112.496 192.541 112.109Z" fill="#EC5D3E"/>
<path d="M147.941 163.758L152.863 133.998C153.13 133.165 153.542 132.23 153.808 131.397C154.411 130.87 155.158 130.241 155.761 129.713C164.915 128.083 173.923 126.555 183.078 124.925C183.664 125.272 183.895 125.435 184.336 125.883C184.38 126.392 184.53 127.043 184.575 127.551C182.674 138.264 180.774 148.976 178.873 159.689C178.522 160.258 178.17 160.826 177.673 161.496C177.111 161.78 176.654 162.206 176.092 162.49C167.585 164.1 158.952 165.69 150.445 167.301C150.049 167.361 149.673 167.299 149.192 167.095L149.066 167.075C148.229 166.687 147.723 165.852 147.739 164.978C147.8 164.612 147.88 164.124 147.941 163.758Z" fill="#3A8A9D"/>
<path d="M101.52 214.733L106.22 186.314C106.486 185.481 106.878 184.668 107.145 183.835C107.747 183.307 108.475 182.8 109.077 182.273C118.212 180.765 127.2 179.359 136.335 177.851C136.921 178.198 137.152 178.361 137.613 178.687C137.657 179.195 137.827 179.724 137.872 180.233C136.052 190.458 134.232 200.682 132.412 210.907C132.061 211.476 131.709 212.045 131.232 212.593C130.67 212.876 130.213 213.303 129.651 213.586C121.164 215.075 112.552 216.543 104.064 218.032C103.668 218.092 103.292 218.03 102.811 217.826L102.685 217.805C101.848 217.417 101.342 216.583 101.338 215.83C101.399 215.464 101.459 215.099 101.52 214.733Z" fill="#3A8A9D"/>
<path d="M108.44 172.789L113.362 143.03C113.629 142.196 114.041 141.262 114.308 140.429C114.91 139.901 115.658 139.272 116.26 138.745C125.414 137.115 134.423 135.587 143.577 133.957C144.163 134.304 144.394 134.467 144.835 134.915C144.879 135.423 145.029 136.074 145.074 136.583C143.173 147.295 141.273 158.008 139.372 168.72C139.021 169.289 138.669 169.858 138.172 170.528C137.61 170.811 137.153 171.238 136.591 171.521C128.084 173.132 119.452 174.722 110.945 176.332C110.548 176.393 110.172 176.331 109.691 176.127L109.566 176.106C108.728 175.718 108.223 174.883 108.238 174.009C108.299 173.643 108.36 173.277 108.44 172.789Z" fill="#EC5D3E"/>
<path d="M77.7322 105.734L81.6469 75.0581C81.6829 74.0618 81.5734 73.1669 81.6094 72.1706C81.2089 71.4785 80.8285 70.6645 80.4279 69.9724C73.2857 65.6684 66.1435 61.3645 59.0012 57.0605C58.4595 57.2222 58.1886 57.303 57.6267 57.5866C57.4206 58.0538 57.1944 58.6431 56.9883 59.1104C55.6743 70.1694 54.3603 81.2284 53.0463 92.2874C53.176 93.0603 53.346 93.5893 53.6011 94.3828C53.9166 94.8104 54.3373 95.3806 54.6529 95.8082C61.3139 99.9079 67.9547 104.13 74.6157 108.229C74.9716 108.413 75.3477 108.475 75.6185 108.394L75.7439 108.414C76.5363 108.294 77.1587 107.644 77.4253 106.811C77.4656 106.567 77.6717 106.1 77.7322 105.734Z" fill="#3A8A9D"/>
<path d="M104.211 44.5966C120.636 42.6538 127.481 41.7713 128.796 41.611C128.922 41.6316 129.338 41.4492 129.86 41.4095C130.779 41.3095 131.531 41.433 133.141 41.8227C135.128 42.2742 136.257 42.4595 137.807 43.2155C138.644 43.6037 139.357 43.9714 139.818 44.2978C145.58 47.626 151.197 51.0556 156.959 54.3838C157.085 54.4044 157.672 54.7514 157.591 55.2397C157.571 55.3618 157.53 55.6059 156.822 55.9912C156.115 56.3766 155.573 56.5383 155.573 56.5383C149.084 57.6046 134.766 59.2666 131.178 59.9313C129.632 59.9284 129.111 59.9681 128.107 59.8034C127.104 59.6387 125.704 59.5343 123.988 59.0019C122.147 58.4489 120.869 57.6121 119.926 57.0812C114.143 53.8752 108.506 50.5676 102.724 47.3615C102.117 47.1365 101.655 46.81 101.716 46.4438C101.651 46.057 101.942 45.854 102.233 45.6511C102.876 44.879 103.69 44.6363 104.211 44.5966Z" fill="#3A8A9D"/>
<path d="M170.398 57.3659C170.563 57.1424 170.834 57.0615 171.773 56.8395C172.44 56.6983 172.586 56.5967 172.586 56.5967C187.17 54.101 194.472 52.7922 195.787 52.6319C195.787 52.6319 197.081 52.5936 197.583 52.676C197.583 52.676 198.857 52.7598 200.678 53.4348C202.374 54.0892 212.595 59.2775 226.191 66.6497C226.191 66.6497 226.693 66.7321 226.758 67.1189C226.758 67.1189 226.823 67.5056 226.657 67.7292C226.657 67.7292 226.491 67.9527 226.075 68.135C225.261 68.3777 201.579 72.1382 198.408 72.6206C198.137 72.7015 197.615 72.7412 196.967 72.7603C196.591 72.6985 195.693 72.6765 194.374 72.0838C193.16 71.6338 192.363 71.0015 192.363 71.0015C190.853 70.0014 182.744 65.2852 170.612 58.4042C170.236 58.3424 170.151 58.0777 170.046 57.9351C170.106 57.5689 170.252 57.4674 170.398 57.3659Z" fill="#3A8A9D"/>
<path d="M135.531 63.2743C151.956 61.3315 158.801 60.4491 160.116 60.2888C160.241 60.3094 160.658 60.127 161.18 60.0873C162.098 59.9873 162.851 60.1108 164.461 60.5005C166.448 60.952 167.577 61.1373 169.126 61.8932C169.964 62.2815 170.676 62.6492 171.137 62.9757C176.9 66.3038 182.517 69.7334 188.279 73.0615C188.404 73.0821 188.991 73.4292 188.911 73.9174C188.89 74.0395 188.85 74.2836 188.142 74.669C187.434 75.0543 186.892 75.216 186.892 75.216C180.403 76.2823 166.086 77.9443 162.498 78.609C160.952 78.6061 160.43 78.6458 159.427 78.4811C158.423 78.3164 157.023 78.212 155.308 77.6796C153.467 77.1266 152.188 76.2898 151.245 75.7589C145.463 72.5529 139.826 69.2453 134.043 66.0393C133.436 65.8143 132.975 65.4877 133.035 65.1215C132.971 64.7347 133.262 64.5318 133.553 64.3289C134.196 63.5568 135.134 63.3346 135.531 63.2743Z" fill="#EC5D3E"/>
<path d="M93.4134 71.0008C93.5993 70.6553 93.8704 70.5744 94.8089 70.3523C95.4965 70.0891 95.6219 70.1097 95.6219 70.1097C110.367 66.6379 117.729 64.963 119.064 64.6807C119.064 64.6807 120.359 64.6425 120.88 64.6028C120.88 64.6028 122.175 64.5646 123.976 65.3615C125.671 66.0159 135.771 71.9358 149.205 80.2834C149.205 80.2834 149.687 80.4878 149.752 80.8745C149.752 80.8745 149.816 81.2612 149.631 81.6067C149.631 81.6067 149.445 81.9523 149.048 82.0126C148.215 82.3773 124.311 87.4798 121.1 88.2062C120.829 88.2871 120.286 88.4489 119.639 88.468C119.243 88.5283 118.365 88.3842 117.046 87.7916C115.852 87.2196 115.055 86.5873 115.055 86.5873C113.566 85.4654 105.558 80.1395 93.5878 72.283C93.2115 72.2213 93.1265 71.9566 93.0414 71.6919C93.2072 71.4684 93.3932 71.1229 93.4134 71.0008Z" fill="#F3B08C"/>
<path d="M185.004 155.453L189.704 127.034C189.971 126.201 190.363 125.388 190.629 124.555C191.232 124.028 191.959 123.521 192.562 122.993C201.696 121.485 210.684 120.079 219.819 118.571C220.405 118.918 220.636 119.081 221.097 119.407C221.142 119.916 221.312 120.445 221.356 120.953C219.536 131.178 217.716 141.403 215.897 151.628C215.545 152.196 215.193 152.765 214.716 153.313C214.154 153.597 213.698 154.023 213.136 154.307C204.648 155.795 196.036 157.263 187.549 158.752C187.152 158.812 186.776 158.75 186.295 158.546L186.17 158.526C185.333 158.138 184.827 157.303 184.822 156.551C184.988 156.327 185.049 155.961 185.004 155.453Z" fill="#3A8A9D"/>
<path d="M65.0969 191.697C64.9961 192.306 64.8953 192.916 64.7743 193.648C64.734 193.892 64.5683 194.115 64.4026 194.338C63.7801 194.988 62.9227 194.722 62.7974 194.701C61.8549 194.171 60.9125 193.64 60.0104 192.866C52.1669 186.568 47.8467 183.102 42.3088 178.435C41.7828 177.723 41.5075 177.051 41.4426 176.665C41.1025 175.607 41.1384 174.61 41.2191 174.123C41.2349 173.248 41.461 172.659 41.5417 172.171C42.6578 163.085 44.1139 155.056 45.23 145.969C45.2502 145.847 45.2458 145.095 45.8683 144.446C46.325 144.02 46.7212 143.959 46.8466 143.98C47.6189 143.981 48.1651 144.572 48.1651 144.572C54.5157 148.997 60.0781 154.294 66.3033 158.698C67.0152 159.066 67.4562 159.514 67.6666 159.799C68.6134 161.082 68.6221 162.587 68.6669 163.095C68.6511 163.969 68.53 164.701 68.5099 164.823C68.0821 166.632 67.4298 172.913 66.0762 184.216" fill="#3A8A9D"/>
<path d="M44.1431 131.267C44.0423 131.877 43.9415 132.487 43.8205 133.218C43.7801 133.462 43.6144 133.686 43.4488 133.909C42.8263 134.558 41.9689 134.292 41.8436 134.272C40.9011 133.741 39.9587 133.211 39.0566 132.436C31.2131 126.138 26.893 122.673 21.3551 118.006C20.8291 117.293 20.5538 116.622 20.489 116.235C20.1488 115.177 20.1848 114.181 20.2654 113.693C20.2812 112.819 20.5074 112.23 20.5881 111.742C21.7041 102.655 23.1603 94.6265 24.2764 85.5398C24.2966 85.4179 24.2922 84.6656 24.9147 84.0162C25.3714 83.5901 25.7676 83.5298 25.893 83.5504C26.6653 83.5519 27.2115 84.1427 27.2115 84.1427C33.562 88.5674 39.1244 93.8649 45.3496 98.269C46.0614 98.6364 46.5024 99.0846 46.7128 99.3697C47.6596 100.653 47.6683 102.157 47.7131 102.666C47.6973 103.54 47.5762 104.272 47.5561 104.394C47.1283 106.202 46.476 112.484 45.1224 123.787" fill="#F3B08C"/>
<path d="M115.927 139.192L144.444 132.598L144.841 132.537L145.176 132.843C146.268 134.024 146.779 135.612 146.767 137.238C146.707 137.604 146.771 137.991 146.586 138.336C146.525 138.702 146.464 139.068 146.404 139.434L146.061 141.507L144.835 149.699L142.363 166.206L142.181 167.303C142.12 167.669 141.914 168.137 141.854 168.502C141.587 169.336 140.945 170.107 140.342 170.635C139.595 171.264 138.887 171.649 138.074 171.891C137.262 172.133 136.595 172.275 135.928 172.416C133.134 172.959 130.34 173.503 127.546 174.047C121.958 175.134 116.265 176.079 110.612 176.78L110.527 176.515C115.965 174.777 121.488 173.303 126.991 171.951C129.68 171.265 132.494 170.599 135.308 169.934C138.353 169.431 139.683 168.397 140.001 165.693L143.1 149.289L144.577 141.138L144.92 139.065C145.041 138.333 145.267 137.744 145.243 137.113C145.319 135.873 144.999 134.693 144.137 133.675L144.869 133.92L116.138 139.478L115.927 139.192Z" fill="#112438"/>
<path d="M111.971 146.68C111.734 148.895 111.497 151.111 111.385 153.347L110.674 159.993C110.436 162.208 110.325 164.444 109.837 166.618C109.224 168.772 108.611 170.925 107.622 173.017L107.372 172.976C107.108 170.678 107.22 168.442 107.332 166.207C107.569 163.991 108.182 161.838 108.67 159.663L110.133 153.141C110.746 150.987 111.233 148.813 111.721 146.639L111.971 146.68Z" fill="#112438"/>
<path d="M100.78 213.734L104.939 185.477C105.246 184.4 106.074 183.283 107.073 182.695C107.635 182.412 108.197 182.128 108.739 181.967C109.281 181.805 109.802 181.765 110.344 181.604L116.514 180.111L128.855 177.125L135.025 175.631L136.63 175.269C137.423 175.148 138.3 175.292 138.992 175.781C139.684 176.271 139.959 176.942 140.089 177.715C140.154 178.102 140.218 178.488 140.178 178.732C140.118 179.098 140.097 179.22 140.037 179.586L138.125 191.925C137.439 196.072 136.899 200.118 136.087 204.244L135.583 207.294L135.321 208.879C135.22 209.489 134.994 210.078 134.767 210.668C133.612 212.983 130.947 214.3 128.61 214.418C126.629 214.719 124.502 215.122 122.375 215.524L116.12 216.753C111.991 217.579 107.738 218.384 103.609 219.21L103.524 218.945C107.608 217.611 111.671 216.399 115.715 215.308C119.904 214.117 123.822 213.006 128.201 212.221C128.472 212.14 128.722 212.181 128.993 212.1C129.264 212.02 129.39 212.04 129.661 211.959C130.077 211.777 130.493 211.595 130.785 211.392C131.512 210.885 132.115 210.358 132.381 209.524C132.567 209.179 132.628 208.813 132.708 208.325L132.97 206.74L133.475 203.69C134.161 199.543 134.952 195.539 135.638 191.392L137.926 179.114L138.047 178.382C138.067 178.261 138.107 178.017 138.002 177.874C137.917 177.609 137.727 177.202 137.602 177.182C137.371 177.019 137.12 176.978 136.87 176.936L135.41 177.198L129.134 178.549L116.583 181.249L110.308 182.6L108.848 182.861C108.432 183.044 107.89 183.205 107.599 183.408C106.746 183.895 106.249 184.565 105.962 185.52L105.982 185.398L100.946 213.511L100.78 213.734Z" fill="#112438"/>
<path d="M141.665 198.669C142.411 194.156 143.032 189.622 143.633 185.21C143.871 182.994 144.254 180.677 144.492 178.461C144.694 177.241 145.146 176.062 145.955 175.067C146.763 174.072 148.033 173.404 149.347 173.243L174.612 166.865L174.341 166.946C174.903 166.663 175.445 166.501 176.092 166.482C176.739 166.463 177.346 166.688 177.807 167.014C178.268 167.34 178.689 167.91 178.839 168.561C178.989 169.212 179.034 169.721 178.807 170.31L178.827 170.188C178.081 174.701 177.46 179.235 176.713 183.748C175.967 188.261 175.095 192.754 174.098 197.226L174.118 197.104C174.143 197.734 174.042 198.344 173.815 198.933C173.589 199.523 173.488 200.132 173.137 200.701C172.559 201.859 171.645 202.712 170.501 203.401L170.355 203.502L170.23 203.482C168.77 203.743 167.416 204.147 165.956 204.409C164.496 204.671 163.161 204.953 161.702 205.214L161.617 204.95C162.991 204.424 164.346 204.02 165.721 203.493C167.096 202.967 168.45 202.563 169.93 202.18L169.785 202.281C170.658 201.673 171.175 200.88 171.567 200.068C171.979 199.133 172.141 198.157 172.052 197.14L172.072 197.018C172.693 192.485 173.314 187.951 174.06 183.438C174.807 178.925 175.679 174.432 176.55 169.94L176.571 169.818C176.591 169.696 176.631 169.452 176.651 169.33C176.672 169.208 176.566 169.065 176.461 168.923C176.356 168.78 176.105 168.739 175.98 168.719C175.854 168.698 175.583 168.779 175.438 168.88L175.292 168.982L175.167 168.961L149.772 174.566C148.729 174.645 147.876 175.132 147.108 175.883C146.465 176.654 146.033 177.711 145.746 178.666C145.508 180.882 144.999 183.179 144.636 185.375C143.764 189.867 142.893 194.36 142.041 198.731L141.665 198.669Z" fill="#112438"/>
<path d="M178.963 198.293L181.714 179.327L183.142 169.915C183.283 169.061 183.258 168.43 183.545 167.475C183.812 166.642 184.203 165.829 184.846 165.058C185.986 163.616 187.797 162.786 189.633 162.586L189.508 162.566L203.453 159.217L210.416 157.603L211.354 157.381C211.499 157.28 212.166 157.139 212.668 157.221C213.816 157.284 214.823 158.201 215.058 159.117C215.248 159.524 215.273 160.154 215.213 160.52C215.172 160.764 215.132 161.008 215.112 161.13C215.071 161.374 214.926 161.475 214.906 161.597C214.72 161.943 214.619 162.552 214.538 163.04C213.541 167.512 212.775 172.147 211.883 176.761C210.991 181.375 210.099 185.989 209.082 190.583L208.831 190.542C208.971 185.804 209.361 181.108 209.857 176.554C210.372 171.878 211.014 167.222 211.906 162.608C212.006 161.998 212.107 161.389 212.479 160.698C212.519 160.454 212.645 160.475 212.665 160.353C212.685 160.231 212.685 160.231 212.705 160.109C212.725 159.987 212.725 159.987 212.746 159.865C212.64 159.722 212.64 159.722 212.535 159.58C212.555 159.458 211.743 159.7 211.201 159.862L204.153 161.211L190.038 164.031L189.912 164.01C188.493 164.028 187.098 164.676 186.144 165.772C185.667 166.32 185.316 166.889 185.07 167.6C184.843 168.189 184.827 169.064 184.686 169.917L183.008 179.288L179.505 198.132L179.003 198.049L178.963 198.293Z" fill="#112438"/>
<path d="M186.843 198.955C188.364 198.327 189.864 197.822 191.365 197.316L195.867 195.799C197.368 195.293 198.889 194.665 200.474 194.424C202.06 194.183 203.751 194.084 205.382 194.352L205.467 194.617C204.136 195.652 202.615 196.28 201.094 196.907C199.594 197.413 197.903 197.512 196.422 197.895L191.645 198.741C190.059 198.982 188.473 199.223 186.888 199.464L186.843 198.955Z" fill="#112438"/>
<path d="M186.288 157.795C186.393 157.937 186.749 158.121 187 158.162C187.231 158.325 187.501 158.244 187.752 158.286C188.274 158.246 188.816 158.084 189.483 157.943L192.964 157.136L199.822 155.38L213.516 151.99L213.371 152.092C213.933 151.808 214.39 151.382 214.846 150.956C215.178 150.509 215.529 149.94 215.861 149.494C216.027 149.27 216.087 148.904 216.127 148.66L216.414 147.705L216.862 145.774C217.411 143.234 217.855 140.55 218.279 137.989C219.271 132.765 220.119 127.642 220.861 122.377L221.183 120.426L221.345 119.45C221.385 119.206 221.425 118.962 221.32 118.82C221.215 118.677 221.215 118.677 221.215 118.677C221.215 118.677 221.09 118.656 220.839 118.615C220.443 118.676 219.65 118.796 218.983 118.937L210.997 120.508C205.68 121.515 200.343 122.643 195.046 123.528L195.171 123.548C194.504 123.689 193.922 124.095 193.591 124.542C193.259 124.988 193.013 125.7 192.912 126.309L192.892 126.431L191.35 134.196C190.801 136.737 190.357 139.42 189.808 141.961L188.121 149.827L186.288 157.795ZM186.017 157.876C186.316 155.294 186.614 152.712 186.932 150.008L187.993 142.039C188.311 139.335 188.755 136.652 189.199 133.968L190.405 125.898L190.385 126.02C190.441 124.902 190.873 123.845 191.556 122.83C192.219 121.936 193.363 121.247 194.447 120.924C199.764 119.917 205.061 119.033 210.358 118.148L218.303 116.821L219.366 116.62C219.637 116.539 220.159 116.499 220.555 116.439C221.077 116.399 221.578 116.482 222.165 116.828C222.751 117.175 223.026 117.847 223.071 118.355C223.116 118.864 223.181 119.25 223.12 119.616L222.959 120.592L222.636 122.543C221.643 127.767 220.671 132.869 219.678 138.093C219.129 140.634 218.56 143.297 218.011 145.838L217.563 147.768L217.276 148.724C217.215 149.09 217.029 149.435 216.844 149.78C216.472 150.471 216.12 151.04 215.643 151.588C215.166 152.136 214.459 152.521 213.877 152.926L200.117 155.93L193.175 157.422L189.693 158.228C189.151 158.39 188.61 158.552 187.963 158.571C187.17 158.691 186.563 158.466 186.017 157.876Z" fill="#112438"/>
<path d="M192.416 112.089L193.647 104.649C194.05 102.21 194.349 99.6279 194.752 97.1886L196.837 82.2469L197.657 79.6253L197.677 79.5033L197.822 79.4019L199.775 77.7179L199.92 77.6165L200.066 77.5151L227.298 72.463L227.695 72.4028L228.05 72.5864L229.454 73.4431L229.81 73.6269L229.875 74.0133L230.114 75.6812L230.094 75.8032L230.074 75.9251L227.411 92.0249L226.079 100.075L224.623 108.104L224.582 108.348L224.417 108.571L223.216 110.379L223.051 110.602L222.905 110.704L221.324 111.697L221.054 111.778L220.783 111.859C215.611 112.764 210.48 113.425 205.203 114.188C202.575 114.508 200.052 114.971 197.424 115.291L195.442 115.592C195.171 115.673 194.775 115.734 194.399 115.672C194.023 115.61 193.647 115.548 193.416 115.385C192.83 115.038 192.284 114.448 192.134 113.797C192.34 113.329 192.441 112.72 192.416 112.089ZM192.667 112.13C192.692 112.761 192.591 113.371 192.741 114.022C192.911 114.551 193.331 115.121 193.938 115.346C194.168 115.509 194.545 115.57 194.795 115.612C195.046 115.653 195.462 115.47 195.733 115.39L197.61 114.946C200.153 114.361 202.696 113.776 205.239 113.191C210.326 112.022 215.432 110.73 220.499 109.682L220.082 109.864L221.683 108.749L221.372 109.074L222.572 107.266L222.366 107.734L223.823 99.7044L225.28 91.6751L228.444 75.6577L228.383 76.0236L228.144 74.3557L228.545 75.0479L227.287 74.0898L228.039 74.2132L200.637 78.7362L200.928 78.5335L198.975 80.2175L199.141 79.9941L198.196 82.5951L198.216 82.4732L195.379 97.2914C194.975 99.7308 194.426 102.272 194.023 104.711L192.667 112.13Z" fill="#112438"/>
<path d="M154.721 119.539L155.972 111.977C156.395 109.415 156.693 106.833 157.097 104.394L159.242 89.0863L160.208 86.3634L160.228 86.2414L160.373 86.14L162.326 84.456L162.472 84.3545L162.617 84.2532L190.517 79.06L190.913 78.9998L191.269 79.1835L192.652 80.1621L193.008 80.3459L193.073 80.7323L193.438 82.4208L193.417 82.5427L193.397 82.6647L190.674 99.1303L189.322 107.302L187.846 115.453L187.805 115.697L187.639 115.921L186.439 117.728L186.274 117.952L186.128 118.053L184.547 119.046L184.276 119.127L184.005 119.208C178.709 120.093 173.432 120.855 168.03 121.597L160.104 122.802L158.123 123.104C157.727 123.164 157.456 123.245 157.08 123.183C156.704 123.121 156.328 123.059 155.972 122.876C155.26 122.508 154.839 121.938 154.689 121.287C154.519 120.758 154.62 120.148 154.721 119.539ZM154.972 119.58C154.996 120.21 154.875 120.942 155.045 121.471C155.215 122 155.636 122.57 156.243 122.795C156.473 122.958 156.849 123.02 157.1 123.061C157.351 123.102 157.767 122.92 158.038 122.839L160.04 122.416L167.94 120.58C173.172 119.309 178.384 118.16 183.596 117.011L183.18 117.193L184.781 116.078L184.469 116.403L185.67 114.595L185.464 115.062L186.941 106.911L188.417 98.76L191.642 82.3767L191.582 82.7426L191.342 81.0747L191.743 81.7668L190.36 80.7881L191.112 80.9116L163.042 85.5757L163.333 85.3729L161.255 87.0364L161.421 86.813L160.476 89.414L160.496 89.292L157.598 104.476C157.175 107.038 156.626 109.578 156.222 112.018L154.972 119.58Z" fill="#112438"/>
<path d="M152.118 134.513C152.28 133.537 152.692 132.601 153.481 131.728C154.124 130.956 154.997 130.348 155.976 129.881L156.101 129.902C161.461 128.651 166.801 127.522 172.035 126.25C174.725 125.564 177.395 124.999 180.024 124.679C180.692 124.537 181.339 124.518 182.112 124.52C182.905 124.399 184.159 124.605 184.79 125.461C185.106 125.889 185.151 126.397 185.216 126.784C185.28 127.171 185.22 127.537 185.159 127.903C185.038 128.635 184.666 129.326 184.315 129.895L184.084 129.732C184.185 129.122 184.306 128.39 184.136 127.86C183.966 127.331 183.836 126.558 183.585 126.517C183.355 126.353 182.978 126.292 182.562 126.474C181.894 126.615 181.207 126.878 180.539 127.019C177.849 127.706 175.2 128.148 172.445 128.448C167.04 129.191 161.616 130.055 156.211 130.797L156.337 130.818C155.503 131.183 154.65 131.669 153.902 132.299C153.154 132.928 152.636 133.72 152.349 134.676L152.118 134.513Z" fill="#112438"/>
<path d="M151.537 139.666L149.633 153.512L148.629 160.363L148.189 163.799C148.088 164.409 148.028 164.775 148.218 165.182C148.323 165.324 148.428 165.467 148.534 165.61L148.659 165.63C148.659 165.63 148.659 165.63 148.784 165.651C148.91 165.671 149.035 165.692 149.035 165.692C149.286 165.733 149.411 165.754 149.682 165.673C149.933 165.714 150.204 165.633 150.475 165.552L152.206 165.21L155.687 164.403L162.651 162.789L176.578 159.562L176.307 159.643C177.035 159.136 177.763 158.629 178.155 157.816C178.32 157.593 178.341 157.471 178.381 157.227L178.421 156.983L178.482 156.617L178.764 154.909C179.253 152.734 179.636 150.416 180.125 148.241C180.613 146.066 181.122 143.769 181.611 141.594C182.099 139.419 182.733 137.143 183.222 134.968L183.473 135.009C183.36 137.246 183.102 139.584 182.864 141.8C182.627 144.016 182.369 146.354 182.131 148.571C181.893 150.787 181.51 153.104 181.272 155.321L180.99 157.028L180.909 157.516C180.868 157.76 180.848 157.882 180.828 158.004C180.768 158.37 180.582 158.715 180.416 158.939C179.818 160.219 178.738 161.295 177.469 161.963L177.323 162.065L177.198 162.044C172.527 163.032 167.877 163.897 163.226 164.763L156.177 166.112L152.59 166.776L150.86 167.119C150.589 167.2 150.338 167.159 149.942 167.219C149.545 167.279 149.169 167.217 148.793 167.156C148.542 167.115 148.417 167.094 148.186 166.931C148.061 166.91 147.936 166.89 147.83 166.747C147.705 166.727 147.725 166.605 147.6 166.584C147.264 166.278 147.054 165.993 146.863 165.586C146.673 165.179 146.608 164.792 146.669 164.427C146.749 163.939 146.77 163.817 146.83 163.451L147.52 160.056L148.776 153.246L151.432 139.524L151.557 139.544L151.537 139.666Z" fill="#112438"/>
<path d="M121.38 92.8736L137.707 89.9155L145.798 88.4871L149.907 87.7833C150.177 87.7024 150.699 87.6627 151.075 87.7245C151.451 87.7862 151.933 87.9905 152.288 88.1741C152.98 88.6635 153.361 89.4776 153.49 90.2506C153.6 91.1455 153.374 91.7348 153.273 92.3446L152.95 94.2961L152.284 98.3211L150.973 106.249L148.33 122.227L148.351 122.105C148.375 122.735 148.274 123.345 148.048 123.935C147.822 124.524 147.596 125.113 147.264 125.56C146.581 126.575 145.542 127.407 144.313 127.832L144.188 127.811L129.676 130.691L122.357 132.121L115.058 133.429L114.933 133.408C114.286 133.428 113.534 133.304 112.822 132.937C112.13 132.447 111.73 131.755 111.58 131.104C111.43 130.453 111.49 130.087 111.466 129.457C111.567 128.847 111.647 128.359 111.853 127.892L111.813 128.136C112.66 123.013 113.528 117.769 114.5 112.666C115.473 107.564 116.466 102.34 117.564 97.2586L117.815 97.2998C117.343 102.484 116.852 107.791 116.13 112.934C115.534 118.098 114.792 123.363 114.195 128.527L114.175 128.649L114.155 128.771C114.114 129.015 113.929 129.36 114.014 129.624C113.973 129.868 114.018 130.377 114.123 130.519C114.208 130.784 114.208 130.784 114.333 130.805C114.333 130.805 114.584 130.846 114.71 130.866L114.584 130.846L121.883 129.538L129.181 128.23L143.758 125.736L143.633 125.716C144.446 125.473 145.173 124.966 145.545 124.276C145.731 123.93 145.917 123.585 146.123 123.118C146.183 122.752 146.264 122.264 146.325 121.898L146.345 121.776L146.365 121.654L149.363 105.86L150.925 97.9728L151.716 93.9684L152.039 92.0169C152.14 91.407 152.386 90.6958 152.342 90.1873C152.297 89.6789 152.002 89.1293 151.666 88.8236C151.435 88.6605 151.185 88.6194 150.934 88.5783C150.683 88.5371 150.412 88.6179 150.016 88.6782L145.928 89.2601L137.732 90.5459L121.359 92.9956L121.38 92.8736Z" fill="#112438"/>
<path d="M103.903 136.202L90.3046 127.331L83.4329 122.946C82.1952 121.866 81.7384 122.292 81.0151 123.551C80.7889 124.141 80.5627 124.73 80.4618 125.34C80.361 125.95 80.3653 126.702 80.2645 127.312L77.9131 143.086C77.6149 145.668 77.1711 148.351 76.8729 150.933L76.3528 154.857C76.1511 156.076 76.3658 157.114 76.9969 157.969C77.3124 158.397 77.7534 158.845 78.2145 159.171L79.9537 160.333L83.3066 162.637L90.0328 167.124L96.7388 171.732L98.3526 172.874L99.1494 173.506L99.38 173.669C99.5053 173.689 99.6105 173.832 99.7359 173.852C99.8612 173.873 99.8613 173.873 99.9866 173.893C100.112 173.914 100.112 173.914 100.132 173.792C100.278 173.691 100.278 173.691 100.298 173.569L100.419 172.837C102.404 162.389 104.264 151.921 106.751 141.555L107.002 141.596C106.019 152.209 104.43 162.596 102.966 173.005L102.765 174.224C102.684 174.712 102.332 175.281 101.876 175.707C101.419 176.133 100.857 176.417 100.335 176.456C99.7935 176.618 99.1668 176.515 98.5602 176.29C98.3296 176.127 98.2043 176.107 97.9737 175.943L97.3873 175.597L96.5904 174.965L94.9766 173.823L88.4161 169.113L81.8557 164.404L78.5027 162.1L76.8888 160.958C76.3226 160.489 75.6511 159.878 75.2303 159.308C74.3038 157.903 74.0646 156.235 74.3067 154.771L74.8268 150.848C75.2504 148.287 75.6941 145.603 75.9924 143.022L78.7198 127.309C78.8207 126.699 78.7962 126.069 79.0426 125.357C79.1636 124.626 79.41 123.914 79.7615 123.346C79.9474 123 80.1131 122.777 80.4244 122.452C80.6102 122.107 81.0468 121.803 81.5684 121.763C81.9647 121.703 82.4862 121.663 82.9473 121.989C83.3032 122.173 83.5338 122.336 83.8695 122.642L90.5755 127.25L104.068 135.979L103.903 136.202Z" fill="#112438"/>
<path d="M95.9039 211.917L97.5809 198.663L98.4194 192.036C98.6571 189.82 98.8948 187.604 99.1325 185.388L99.1124 185.51C99.1282 184.636 98.8731 183.842 98.3674 183.007C97.8414 182.295 97.1902 181.561 96.4986 181.072C94.7594 179.91 93.1455 178.768 91.5519 177.504L81.9296 170.288L77.1084 166.74L76.5421 166.272C76.4167 166.251 76.3115 166.109 76.2913 166.231C76.166 166.21 76.0205 166.311 75.8548 166.535C75.6891 166.758 75.5234 166.981 75.4629 167.347L75.2208 168.811C74.5753 172.714 74.0552 176.637 73.5553 180.439C73.0352 184.362 72.5352 188.164 72.0151 192.087L71.6564 195.035L71.4144 196.498C71.3741 196.742 71.3337 196.986 71.3135 197.108C71.2732 197.352 71.253 197.474 71.338 197.738C71.3424 198.491 71.5974 199.284 72.1234 199.997C72.5239 200.689 73.1953 201.3 73.9922 201.932C74.6636 202.544 75.4604 203.175 76.2573 203.807L78.6477 205.703L83.2831 209.596L92.5942 217.137L92.4285 217.36C89.0352 215.3 85.6822 212.996 82.3293 210.692C80.7155 209.55 78.9763 208.388 77.3625 207.246L74.9518 205.472C74.155 204.84 73.3381 204.33 72.5412 203.699C71.7444 203.067 70.9677 202.313 70.2314 201.315C69.4951 200.317 69.0298 199.239 68.9808 197.978C68.8957 197.713 68.9562 197.348 68.9965 197.104C69.0369 196.86 68.9721 196.473 69.0124 196.229L69.1291 194.745L69.4878 191.797C70.0079 187.874 70.528 183.951 71.1735 180.048C71.819 176.145 72.4645 172.242 73.2353 168.36L73.4773 166.896C73.5782 166.286 73.9499 165.596 74.2813 165.149C74.7582 164.601 75.6112 164.115 76.4888 164.259C76.8648 164.32 77.346 164.525 77.5766 164.688L78.2683 165.177L83.0694 168.846L92.526 176.286C94.1196 177.55 95.7133 178.814 97.3271 179.955C98.2694 180.486 99.0259 181.362 99.6368 182.339C100.248 183.316 100.588 184.374 100.532 185.492C100.169 187.688 99.9309 189.904 99.5678 192.099L98.4786 198.685L96.4053 212L95.9039 211.917Z" fill="#112438"/>
<path d="M65.2173 191.717L65.0199 193.689C64.8139 194.156 64.628 194.502 64.2116 194.684C63.7952 194.866 63.2737 194.906 62.7924 194.701C61.8501 194.171 60.9078 193.641 59.9856 192.988L57.3647 190.929L52.2482 186.833L41.995 178.761L41.8898 178.618C41.1535 177.621 40.7083 176.42 40.6391 175.281C40.5699 174.143 40.6462 172.902 40.9531 171.825L40.933 171.947L44.2466 145.683L44.2264 145.805C44.1817 145.296 44.3878 144.829 44.614 144.24C44.82 143.772 45.2969 143.224 45.8588 142.941C46.4208 142.657 47.0878 142.516 47.6944 142.741C48.301 142.966 48.7622 143.292 49.2031 143.74L48.9725 143.577C52.2202 145.739 55.3022 148.123 58.2387 150.61L62.6636 154.217C64.152 155.338 65.6203 156.582 67.2341 157.723L67.1087 157.703C68.4069 158.417 69.3536 159.7 69.6533 161.002C70.0783 162.324 70.002 163.564 69.8003 164.784C69.3118 166.959 69.0742 169.175 68.5857 171.349C67.8596 175.74 67.1335 180.131 66.282 184.501L66.0313 184.46C66.256 179.987 66.5859 175.656 66.936 171.204C67.1737 168.988 67.2861 166.751 67.6491 164.556C67.8465 162.584 67.2716 160.611 65.848 159.876L65.7226 159.855C64.0887 158.836 62.4951 157.572 61.0067 156.451C59.5384 155.208 57.9247 154.066 56.4564 152.823C53.5199 150.336 50.5633 147.972 47.5865 145.73L47.4813 145.587L47.3761 145.445C47.2709 145.302 47.1456 145.282 47.0202 145.261C47.0202 145.261 46.8948 145.24 46.7695 145.22C46.6441 145.199 46.624 145.321 46.4784 145.423C46.4583 145.544 46.2926 145.768 46.3776 146.032L46.3574 146.154L42.2917 172.295L42.2716 172.417C41.9848 173.373 41.9286 174.491 41.9128 175.365C42.0021 176.382 42.3624 177.318 42.8682 178.153L42.7629 178.01L52.7049 186.406L57.6759 190.605L60.1513 192.765C60.9481 193.397 61.8904 193.927 62.8126 194.58C63.1887 194.641 63.5647 194.703 63.8558 194.5C64.1468 194.297 64.4379 194.095 64.6237 193.749L64.9464 191.798L65.2173 191.717Z" fill="#112438"/>
<path d="M42.3712 132.606C41.7891 133.011 41.2676 133.051 40.661 132.826C40.0544 132.601 39.7388 132.174 39.403 131.868L37.0328 129.85C35.4594 128.465 33.8658 127.201 32.1468 125.917C28.8343 123.369 25.5015 120.943 22.0232 118.618C21.5823 118.17 21.1616 117.6 20.846 117.172C20.6356 116.887 20.4253 116.602 20.3604 116.215C20.2754 115.951 20.2106 115.564 20.1256 115.3C19.9757 114.649 19.8258 113.998 19.9267 113.388C19.9022 112.758 20.003 112.148 19.9785 111.518C20.1312 109.037 20.3891 106.699 20.6672 104.239L22.2951 89.7243L22.6294 86.1463C22.7303 85.5364 22.7259 84.7841 23.3887 83.8906C23.7201 83.4439 24.5529 83.0795 25.1595 83.3043C25.7863 83.4072 26.1422 83.5909 26.498 83.7746C28.5931 85.1206 30.6881 86.4666 32.7832 87.8126C36.9934 90.3827 41.2036 92.9528 45.5392 95.5434C46.4614 96.1959 47.1775 97.3156 47.5175 98.3736C47.8576 99.4316 47.8014 100.55 47.64 101.526L47.6602 101.404C47.3418 104.107 46.9183 106.669 46.4745 109.352C46.0308 112.035 45.7325 114.617 45.2888 117.3L43.9979 125.106C43.3437 127.504 42.9 130.187 42.3712 132.606ZM42.1407 132.442C42.3337 129.718 42.5066 127.116 42.6997 124.391L43.3638 116.483C43.5367 113.881 43.8349 111.299 44.1331 108.717C44.4313 106.135 44.6042 103.533 44.9024 100.951L44.9226 100.829C45.0234 100.219 45.0191 99.4668 44.8491 98.9378C44.679 98.4088 44.3836 97.8592 43.7972 97.5124L43.9226 97.533C39.587 94.9424 35.3969 92.2504 31.3524 89.4569C29.2573 88.1109 27.1825 86.6429 25.233 85.1955C25.0025 85.0324 24.8772 85.0118 24.7518 84.9913C24.7518 84.9913 24.8973 84.8899 24.7518 84.9913C24.7518 84.9913 24.5861 85.2146 24.5457 85.4585C24.5054 85.7024 24.465 85.9464 24.4247 86.1903L23.9652 89.7478L22.0864 104.222C21.8084 106.682 21.4251 108.999 21.2724 111.479C20.869 113.919 21.0276 116.074 22.9166 117.888L22.8113 117.745C26.2694 120.192 29.582 122.74 32.7491 125.389C34.3225 126.775 35.9161 128.039 37.4896 129.424L39.8396 131.564C40.1753 131.869 40.6162 132.318 40.9721 132.501C41.2228 132.542 41.4534 132.706 41.7243 132.625C41.7041 132.747 41.9952 132.544 42.1407 132.442Z" fill="#112438"/>
<path d="M48.0281 85.8203L48.9877 78.4614L49.8218 71.0819L51.3447 56.4243L51.3245 56.5463L51.2466 53.9028L51.3316 54.1672L50.13 52.0909L50.3403 52.376L29.7948 40.3603L30.6723 40.5043L29.4232 41.0509L30.0254 40.5234L29.3871 42.0472L29.4275 41.8033L27.8283 57.7011L26.9134 65.5685L25.8531 73.5372L25.7883 73.1507L26.2378 75.1036L26.0476 74.6966L26.9741 76.1014L26.6384 75.7957C30.4726 78.3041 34.1613 80.9138 37.8499 83.5236C39.6942 84.8284 41.5385 86.1333 43.5284 87.3367L44.9116 88.3154C45.3727 88.6417 45.8539 88.8459 46.2703 88.6637C46.8121 88.502 47.1233 88.1773 47.3294 87.7101C47.8466 86.918 47.9475 86.3082 48.0281 85.8203ZM48.2789 85.8615C48.178 86.4713 48.0974 86.9592 47.8712 87.5484C47.6449 88.1377 47.1882 88.5638 46.6465 88.7254C46.3756 88.8062 45.9793 88.8665 45.7286 88.8253C45.3525 88.7636 45.122 88.6005 44.8915 88.4374L43.3627 87.5601C41.3729 86.3566 39.3628 85.2752 37.4782 84.2142C33.4783 81.9292 29.5836 79.7867 25.5837 77.5017L25.3532 77.3386L25.1428 77.0535L24.091 75.6282L23.9858 75.4857L23.9008 75.2212L23.3258 73.2477L23.2207 73.1052L23.261 72.8613L24.1759 64.9939L25.2362 57.0251L27.3367 41.2096L27.3569 41.0876L27.3771 40.9657L28.0154 39.4419L28.2013 39.0965L28.6177 38.9144L29.8467 38.4897L30.2631 38.3075L30.619 38.4912L50.8129 51.0756L50.9181 51.2181L51.0233 51.3606L52.0996 53.4164L52.2048 53.5589L52.1846 53.6808L52.2423 56.4463L49.9674 70.9805L48.8825 78.3189L48.2789 85.8615Z" fill="#112438"/>
<path d="M77.6054 105.714L78.6053 98.1112L79.4797 90.4877L81.1236 75.0982L81.1035 75.2202L80.9204 72.4341L81.0054 72.6986L79.8239 70.5003L80.0342 70.7854L58.4412 58.0966L59.3187 58.2406L57.9441 58.7667L58.5464 58.2392L57.9081 59.763L57.9485 59.519L56.2283 76.1487L55.3581 84.5246L54.3626 92.8798L54.2977 92.4934L54.7271 94.5683L54.5369 94.1612L55.5686 95.7085L55.2329 95.4029C59.1723 98.0538 63.1116 100.705 67.0308 103.478C69.0005 104.803 70.95 106.25 72.9399 107.454L74.4485 108.453C74.9096 108.779 75.3908 108.984 75.9326 108.822C76.4744 108.66 76.9311 108.234 77.1371 107.767C77.2985 106.791 77.3993 106.181 77.6054 105.714ZM77.8561 105.755C77.7552 106.365 77.6746 106.853 77.4484 107.442C77.2222 108.031 76.7654 108.458 76.0781 108.721C75.8072 108.801 75.411 108.862 75.0349 108.8C74.6589 108.738 74.4283 108.575 74.1977 108.412L72.669 107.535C70.5538 106.311 68.5438 105.229 66.4285 104.005C62.3033 101.7 58.0527 99.3734 53.9476 96.9458L53.7171 96.7827L53.5067 96.4976L52.4549 95.0722L52.3496 94.9297L52.2647 94.6652L51.7099 92.5698L51.6047 92.4272L51.6451 92.1833L52.5152 83.8074L53.5108 75.4522L55.7323 58.9048L55.7525 58.7828L55.7727 58.6608L56.411 57.1371L56.5969 56.7917L57.0133 56.6095L58.3878 56.0835L58.8042 55.9013L59.1602 56.0849L80.4218 69.2204L80.527 69.363L80.6322 69.5055L81.8137 71.7038L81.9189 71.8463L81.8987 71.9683L81.9363 74.8557L79.5403 90.1218L78.4151 97.7041L77.8561 105.755Z" fill="#112438"/>
<path d="M75.141 120.712C75.1323 119.207 74.5817 117.863 73.7398 116.722C73.3189 116.152 72.7523 115.683 72.1656 115.336L70.3003 114.152L62.7339 109.276C60.1766 107.603 57.579 106.174 55.1875 104.278L53.488 102.871L52.5856 102.096C52.355 101.933 52.2497 101.79 52.1243 101.77C51.9989 101.749 51.8735 101.729 51.7279 101.83C51.5823 101.931 51.3964 102.277 51.2104 102.622C50.8587 103.191 50.6122 103.903 50.4912 104.635L50.2403 104.594C49.965 103.922 49.8554 103.027 50.1221 102.193C50.2028 101.705 50.2432 101.461 50.5747 101.014C50.7808 100.547 51.4886 100.161 52.1358 100.142C52.783 100.123 53.2646 100.328 53.746 100.532L54.6887 101.063L56.554 102.246C59.1315 103.797 61.3773 105.795 63.7688 107.691L70.9836 113.137L72.8086 114.564C73.5005 115.054 74.0468 115.645 74.4476 116.337C75.2491 117.722 75.634 119.289 75.3918 120.753L75.141 120.712Z" fill="#112438"/>
<path d="M74.5871 124.867L73.015 138.265L72.1764 144.893L71.7571 148.206L71.4746 149.914C71.3738 150.524 71.4184 151.032 71.172 151.744C70.9256 152.455 70.4285 153.125 69.4904 153.347C69.0941 153.407 68.6979 153.467 68.2165 153.263C67.9658 153.222 67.8606 153.079 67.6099 153.038L67.2741 152.733C66.3518 152.08 65.4296 151.428 64.5275 150.653C62.7032 149.226 60.8587 147.921 59.0142 146.616C55.3251 144.006 51.5107 141.376 47.6761 138.867L47.571 138.725L47.4658 138.582C46.4787 137.543 46.0737 136.099 45.8994 134.817C45.8345 134.431 45.8748 134.187 45.81 133.801C45.8302 133.679 45.8705 133.435 45.8907 133.313L45.9512 132.947L46.2336 131.239C46.5968 129.044 46.9801 126.726 47.3432 124.531C47.7063 122.335 48.2149 120.038 48.5781 117.843C48.9412 115.647 49.4499 113.35 49.9383 111.176L50.1891 111.217C50.0767 113.453 50.0695 115.833 49.8317 118.049C49.7194 120.285 49.5868 122.644 49.349 124.86C49.1113 127.076 48.9788 129.435 48.741 131.651L48.5839 133.379L48.5234 133.745C48.5032 133.867 48.4831 133.989 48.4629 134.111C48.4225 134.355 48.5076 134.619 48.4874 134.741C48.597 135.636 48.9572 136.572 49.5033 137.163L49.2929 136.878C53.1073 139.508 56.7762 142.24 60.4249 145.094C62.2492 146.521 64.0736 147.948 65.7725 149.354C66.6746 150.129 67.5968 150.781 68.3937 151.413L68.7497 151.597C68.7497 151.597 68.8751 151.617 68.8549 151.739C68.9803 151.76 69.231 151.801 69.3563 151.821C69.4817 151.842 69.9184 151.538 69.9789 151.172C70.1446 150.948 70.1403 150.196 70.2209 149.708L70.5034 148.001L71.0481 144.707L72.1374 138.121L74.4617 124.847L74.5871 124.867Z" fill="#112438"/>
<path d="M110.663 92.1044L97.9718 84.7601L91.6261 81.0879L89.972 80.1901C89.7414 80.027 89.3855 79.8433 89.2601 79.8227C89.0094 79.7816 88.8841 79.761 88.7587 79.7404C88.3625 79.8007 88.0512 80.1255 87.8452 80.5927C87.6795 80.8161 87.6392 81.06 87.5988 81.3039L87.4576 82.1577C85.7791 91.5283 84.3312 101.062 83.4048 110.556L83.3847 110.678C83.3241 111.044 83.2435 111.532 83.183 111.898C83.2478 112.284 83.1671 112.772 83.3573 113.179C83.487 113.952 83.8876 114.644 84.5792 115.133L84.474 114.991C88.3284 117.377 91.9969 120.109 95.5603 122.698C99.1034 125.409 102.667 127.999 106.396 130.364L106.27 130.344C106.396 130.364 106.396 130.364 106.27 130.344C106.125 130.445 106.27 130.344 106.436 130.12C106.456 129.998 106.476 129.877 106.622 129.775L106.642 129.653L106.682 129.409L106.864 128.312L107.59 123.921C108.074 120.994 108.684 118.087 109.273 115.303L113.035 98.0058L113.286 98.0469C112.819 103.983 111.996 109.736 111.153 115.611C110.669 118.538 110.311 121.486 109.847 124.291L109.266 128.58L109.084 129.678L109.044 129.922C109.024 130.044 109.004 130.166 108.984 130.288C108.943 130.532 108.778 130.755 108.737 130.999C108.531 131.466 108.18 132.035 107.347 132.4C106.514 132.764 105.762 132.641 105.175 132.294L105.05 132.273C103.06 131.07 101.216 129.765 99.4968 128.48C97.6525 127.176 95.9537 125.769 94.2549 124.363C90.7117 121.652 87.314 118.839 83.585 116.474L83.4597 116.453C82.5577 115.679 81.9669 114.579 81.647 113.4C81.477 112.871 81.4525 112.24 81.5332 111.752C81.5087 111.122 81.5893 110.634 81.8155 110.045L81.7954 110.167C82.9926 100.592 84.5457 91.2006 86.6205 81.7697C86.7818 80.794 87.0844 78.9645 88.8351 78.5002C89.2313 78.44 89.7327 78.5222 90.0886 78.7059C90.4445 78.8896 90.6751 79.0528 90.9056 79.2159L92.4142 80.2151L98.5942 84.1106L111.08 91.9223L110.663 92.1044Z" fill="#112438"/>
<path d="M22.7336 126.111C24.7234 127.314 26.6728 128.762 28.4969 130.189L34.0945 134.49L39.6922 138.791C40.1532 139.117 40.6143 139.443 41.1805 139.912C41.6214 140.36 42.022 141.052 42.192 141.581C42.3418 142.232 42.3663 142.862 42.411 143.371C42.4355 144.001 42.46 144.632 42.3591 145.241L38.6337 172.44L38.6538 172.318C38.5732 172.806 38.4924 173.294 38.3066 173.639C38.1207 173.985 37.6439 174.533 36.9566 174.796C36.2895 174.937 35.6829 174.712 35.327 174.528C34.9711 174.345 34.6152 174.161 34.3847 173.998C33.232 173.182 32.2047 172.387 31.3028 171.613C29.2683 169.901 27.3391 168.332 25.3046 166.62C23.3955 164.928 21.3611 163.217 19.4318 161.647L18.7604 161.036C18.5299 160.873 18.2994 160.71 18.0688 160.547C17.9435 160.526 17.9434 160.526 17.9636 160.404L17.7331 160.241C17.5025 160.078 17.3973 159.935 17.1668 159.772C16.8311 159.467 16.5156 159.039 16.3254 158.632C15.945 157.818 15.8153 157.045 15.811 156.293C15.8066 155.54 15.8024 154.788 15.9234 154.056C16.0041 153.568 16.0242 153.446 16.0646 153.203C16.1049 152.959 16.1452 152.715 16.2058 152.349L16.3829 150.499C16.4592 149.259 16.6811 147.917 16.8828 146.697C17.3064 144.136 17.7098 141.697 18.1333 139.136C18.5569 136.575 19.0856 134.156 19.5092 131.595C19.7109 130.375 20.0581 129.054 20.2598 127.835C20.3002 127.591 20.2353 127.204 20.4212 126.859C20.4817 126.493 20.7727 126.29 21.0839 125.966C21.3749 125.763 21.7711 125.702 22.1472 125.764C22.127 125.886 22.3777 125.927 22.7336 126.111ZM22.5679 126.334C21.9815 125.988 21.3548 125.885 20.9182 126.189C20.7525 126.412 20.5869 126.636 20.4212 126.859C20.3808 127.103 20.3405 127.347 20.4053 127.733L19.9054 131.535C19.6273 133.994 19.4545 136.597 19.3018 139.077L18.8236 146.64L18.5945 150.361L18.5427 152.231C18.4822 152.597 18.5672 152.862 18.5067 153.228C18.4462 153.593 18.3655 154.081 18.3453 154.203C18.184 155.179 18.233 156.44 18.6336 157.132C18.7388 157.274 18.8439 157.417 18.9491 157.559C19.0745 157.58 19.0543 157.702 19.1797 157.722L19.5355 157.906C19.8914 158.09 20.1018 158.375 20.4576 158.559L21.2544 159.19C23.2889 160.902 25.198 162.594 27.0869 164.407C28.996 166.098 30.8849 167.911 32.794 169.603C33.8213 170.398 34.7031 171.294 35.7505 171.967C35.9811 172.13 36.2116 172.293 36.4422 172.456C36.6727 172.619 36.8182 172.518 36.6727 172.619C36.6727 172.619 36.6526 172.741 36.6929 172.498C36.8586 172.274 36.8787 172.152 36.8989 172.03L41.3967 144.833C41.4975 144.223 41.5581 143.857 41.5336 143.227C41.5091 142.596 41.4643 142.088 41.4197 141.58C41.375 141.071 41.0595 140.644 40.7238 140.338C40.3881 140.032 39.8218 139.564 39.3608 139.237L34.0542 134.734C30.1553 131.839 26.5475 128.741 22.5679 126.334Z" fill="#112438"/>
<path d="M35.2181 34.0002L63.9437 28.5619C65.2585 28.4017 66.5978 28.8722 67.8318 29.2002L69.6728 29.7531C70.2797 29.9781 70.8866 30.203 71.3681 30.4074C73.6301 31.5309 75.6009 32.8572 77.7172 34.0821C79.8134 35.429 81.7841 36.7554 83.7549 38.0817C84.803 38.7552 85.7256 39.408 86.7939 39.9594C87.0245 40.1226 87.2552 40.2859 87.5061 40.3271C87.6315 40.3477 87.7367 40.4903 87.8621 40.5109C87.9876 40.5315 87.9875 40.5315 88.2182 40.6947C88.4691 40.7359 88.6997 40.8991 88.9304 41.0623C89.161 41.2255 89.3917 41.3887 89.4768 41.6534C89.7925 42.0813 89.9626 42.6107 89.8819 43.0988C89.781 43.709 89.5749 44.1766 89.2635 44.5016C88.9521 44.8265 88.661 45.0294 88.3698 45.2323C87.7873 45.6381 86.9743 45.8807 86.3068 46.0219L82.7388 46.5644L75.5826 47.7713L68.4264 48.9784L64.8584 49.5208L63.127 49.8634L62.3139 50.106C62.0429 50.1869 61.6465 50.2472 61.25 50.3074C59.9353 50.4677 58.41 50.3426 57.1558 50.1367C55.9217 49.8088 54.6877 49.4809 53.494 48.9089C52.8871 48.6839 52.2801 48.4589 51.6934 48.1119C51.568 48.0913 51.5882 47.9692 51.3373 47.9281L51.1066 47.7649L50.7708 47.459L50.0788 46.9694L47.2056 44.8681C46.1575 44.1947 45.2549 43.4198 44.2069 42.7463C43.1789 41.9508 42.2765 41.1759 41.3538 40.523C39.4032 39.0746 37.4326 37.7482 35.3162 36.5234L35.482 36.2999C37.7641 37.3013 39.9006 38.4041 42.017 39.629C43.065 40.3025 44.1131 40.976 45.0358 41.6288C46.0838 42.3023 47.0267 42.8331 48.0748 43.5066C49.1229 44.18 50.1912 44.7314 51.2393 45.4049L52.0566 45.9152L52.3926 46.221L52.6232 46.3842C52.6232 46.3842 52.6232 46.3842 52.7487 46.4048C53.2302 46.6092 53.7117 46.8136 54.3186 47.0386C56.5157 47.7753 58.8583 48.4106 60.8607 47.9872C61.1318 47.9063 61.3826 47.9475 61.6536 47.8666L62.5921 47.6446L64.4489 47.3227L68.0371 46.6581C70.4157 46.2965 72.7944 45.9347 75.2985 45.5937L82.5397 44.6514L86.2131 44.2515C86.6095 44.1912 87.1515 44.0295 87.4427 43.8266C87.5883 43.7251 87.8795 43.5223 88.0251 43.4208C88.1707 43.3193 88.1707 43.3193 88.1909 43.1973C88.1909 43.1973 88.2111 43.0752 88.1059 42.9326L88.0006 42.79L87.8752 42.7694C87.8752 42.7694 87.6243 42.7282 87.3936 42.565C87.1428 42.5238 87.0376 42.3812 86.9122 42.3606C86.5561 42.1768 86.3254 42.0136 86.0947 41.8504C85.0467 41.1769 83.9986 40.5034 83.0759 39.8506C81.1052 38.5242 79.1546 37.0758 77.0584 35.7289C75.0877 34.4026 72.9915 33.0556 70.9804 31.9734C70.5191 31.6469 69.9121 31.422 69.285 31.319L67.5897 30.6647C66.5012 30.2353 65.3926 29.9279 64.3488 30.0073L35.6592 34.4487L35.2181 34.0002Z" fill="#112438"/>
<path d="M75.1527 27.7935C79.9952 27.3348 84.8982 26.51 89.6758 25.6646C92.0747 25.1809 94.4534 24.8193 96.8523 24.3356C97.5197 24.1944 98.0417 24.1547 98.5837 23.993C99.2512 23.8519 99.7932 23.6901 100.441 23.671C101.755 23.5108 103.03 23.5947 104.264 23.9226C105.498 24.2506 106.692 24.8226 107.78 25.252C108.848 25.8034 110.042 26.3755 111.09 27.049C113.207 28.2739 115.323 29.4989 117.439 30.7239C119.556 31.9488 121.672 33.1737 123.829 34.1546C124.436 34.3796 124.897 34.7061 125.504 34.9311L125.86 35.1149C125.986 35.1354 126.111 35.1561 126.342 35.3193C126.823 35.5237 127.139 35.9516 127.329 36.359C127.52 36.7663 127.71 37.1735 127.589 37.9058C127.342 38.6175 126.78 38.9013 126.363 39.0837C125.53 39.4483 124.883 39.4674 124.341 39.6292L109.968 42.4093L102.791 43.7384C101.602 43.9192 100.267 44.2015 98.8469 44.2191C97.4268 44.2367 96.1928 43.9088 94.8333 43.5603C93.5992 43.2323 92.3853 42.7823 91.1916 42.2102C89.9979 41.6382 88.9498 40.9647 87.8815 40.4132C85.7651 39.1883 83.6891 37.7192 81.7385 36.2708L78.7397 34.1488C77.6916 33.4753 76.7689 32.8224 75.555 32.3724C74.9683 32.0254 74.507 31.699 73.9202 31.3519C73.4589 31.0255 72.8721 30.6784 72.4511 30.1078C72.2407 29.8225 72.0503 29.4152 72.2362 29.0697C72.4222 28.7241 72.7134 28.5212 73.0046 28.3183C73.9633 27.9742 74.5054 27.8126 75.1527 27.7935ZM75.1123 28.0375C74.5905 28.0772 73.9028 28.3404 73.466 28.6448C73.195 28.7256 73.0292 28.9491 72.9888 29.1932C72.9485 29.4373 73.0336 29.702 73.1388 29.8446C73.4545 30.2726 74.0412 30.6196 74.5228 30.824C74.9841 31.1505 75.5911 31.3755 76.1778 31.7225C76.6594 31.927 77.3918 32.1725 77.8733 32.3769C78.4802 32.6019 78.9415 32.9284 79.5283 33.2754L82.713 35.0518C84.8294 36.2768 86.966 37.3797 89.1025 38.4826C91.2391 39.5855 93.3958 40.5663 95.6333 41.059C96.7419 41.3664 97.8708 41.5517 98.8944 41.5943C100.043 41.6576 100.982 41.4356 102.317 41.1533L109.599 39.9669L124.162 37.594C124.829 37.4529 125.351 37.4132 125.622 37.3323C125.768 37.2309 125.768 37.2309 125.748 37.3529C125.728 37.475 125.748 37.3529 125.643 37.2103C125.537 37.0676 125.537 37.0676 125.432 36.925L124.72 36.5574C124.113 36.3324 123.652 36.0059 123.045 35.7809C120.783 34.6574 118.666 33.4325 116.57 32.0855C114.474 30.7385 112.357 29.5135 110.366 28.3092C109.318 27.6357 108.25 27.0842 107.182 26.5328C106.114 25.9813 105.045 25.4299 103.937 25.1225C102.828 24.8151 101.699 24.6298 100.51 24.8107C99.8625 24.8298 99.3204 24.9915 98.7986 25.0311C98.1311 25.1723 97.6092 25.212 96.9417 25.3531C94.563 25.7148 92.0589 26.0559 89.5749 26.2749L75.1123 28.0375Z" fill="#112438"/>
<path d="M63.8346 51.1056C68.8024 50.6676 73.8106 49.9854 78.839 49.1813C81.3633 48.7181 83.8674 48.3771 86.2663 47.8934L90.0001 47.1274C91.2096 46.8246 92.3989 46.6437 93.6286 46.2188C94.3163 45.9556 95.0889 45.9571 95.8415 46.0806C96.594 46.2041 97.1606 46.6732 97.7676 46.8982C98.8358 47.4497 100.155 48.0423 101.163 48.9598C103.113 50.4082 105.355 51.6536 107.451 53.0006C111.789 55.593 116.127 58.1854 120.485 60.6558L120.716 60.819L120.821 60.9617C120.926 61.1043 121.011 61.369 121.222 61.6542C121.307 61.9189 121.352 62.4276 121.166 62.7732C120.96 63.2407 120.668 63.4437 120.397 63.5245C120.126 63.6054 119.855 63.6862 119.71 63.7877C119.188 63.8274 118.917 63.9082 118.646 63.9891L117.707 64.2112L113.848 64.9565L106.004 66.4267L98.1806 67.7748C95.5309 68.2174 93.0065 68.6805 90.377 69.001L90.5025 69.0216C89.022 69.4053 87.3712 69.2597 85.9267 68.6465C85.2145 68.2788 84.5023 67.9113 84.1664 67.6054L82.5316 66.585C81.4835 65.9115 80.31 65.2174 79.3022 64.2998C78.3997 63.5249 77.3719 62.7294 76.344 61.9339C72.2121 58.8739 68.04 56.058 63.5968 53.323L63.7222 53.3435C63.4713 53.3024 63.1153 53.1185 62.8846 52.9553C62.6539 52.7921 62.6092 52.2834 62.775 52.0599C62.625 51.4085 63.3127 51.1453 63.8346 51.1056ZM63.7942 51.3497C63.2724 51.3894 62.7302 51.5511 62.6495 52.0393C62.4434 52.5069 62.9047 52.8333 63.4064 52.9157C67.89 55.4066 72.3938 57.7755 76.837 60.5106C77.8851 61.184 79.0586 61.8781 80.0865 62.6736C81.0091 63.3265 82.2028 63.8985 83.2509 64.572C83.8377 64.919 84.4446 65.144 85.0314 65.491C85.6181 65.8381 86.0794 66.1645 86.5609 66.3689C87.524 66.7777 88.5475 66.8203 89.486 66.5983C92.1357 66.1558 94.66 65.6927 97.3097 65.2502L105.239 64.0447L113.168 62.8392L117.132 62.2364L118.05 62.1364C118.321 62.0556 118.718 61.9953 118.969 62.0364C119.22 62.0776 119.26 61.8335 119.094 62.057C119.074 62.1791 119.054 62.3011 119.054 62.3011C119.054 62.3011 119.074 62.179 118.948 62.1584L119.284 62.4643C114.946 59.8719 110.629 57.1574 106.436 54.4636C104.34 53.1166 102.244 51.7697 100.063 50.1581C99.1603 49.3832 98.092 48.8318 96.8983 48.2598C96.3115 47.9128 95.83 47.7084 95.3485 47.504C94.8468 47.4216 94.3451 47.3393 93.8031 47.501C92.5734 47.9259 91.2586 48.0862 90.0491 48.389C88.8598 48.5699 87.545 48.73 86.3556 48.9109L78.8636 49.8121L71.3714 50.7132C68.9077 50.8102 66.3834 51.2733 63.7942 51.3497Z" fill="#112438"/>
<path d="M104.229 44.4731L111.596 43.5513L118.983 42.5075L126.39 41.3417C127.579 41.1608 128.769 40.98 130.209 40.8403C131.503 40.8021 132.883 41.0287 134.117 41.3566C135.371 41.5625 136.606 41.8905 137.799 42.4626C138.993 43.0347 140.187 43.6067 141.235 44.2803L147.71 47.9758L154.184 51.6714L157.474 53.5906C157.83 53.7744 158.166 54.0803 158.587 54.6509C158.693 54.7935 158.652 55.0376 158.757 55.1802C158.737 55.3023 158.717 55.4243 158.697 55.5464C158.677 55.6684 158.656 55.7905 158.511 55.892C158.325 56.2375 158.179 56.339 158.034 56.4405C157.431 56.9684 156.869 57.2521 156.056 57.4947L155.93 57.4741C151.82 58.1784 147.856 58.7811 143.766 59.3633L137.693 60.2468C135.711 60.5482 133.603 60.829 131.747 61.151L131.621 61.1304L131.496 61.1098C130.598 61.0877 129.428 61.1466 128.299 60.9612C127.422 60.8171 126.398 60.7744 125.289 60.467C123.177 59.9949 121.251 59.1772 119.531 57.8919L119.657 57.9125C116.848 56.1978 114.06 54.3611 111.251 52.6464C108.443 50.9317 105.655 49.0949 102.846 47.3802C102.49 47.1964 102.009 46.992 101.818 46.5847C101.733 46.32 101.648 46.0552 101.814 45.8317C101.854 45.5876 102 45.4862 102.166 45.2626C102.497 44.8156 103.31 44.5731 104.229 44.4731ZM104.188 44.7171C103.395 44.8377 102.708 45.1009 102.231 45.6494C101.919 45.9743 101.879 46.2185 101.964 46.4832C102.174 46.7684 102.405 46.9317 102.781 46.9934C105.735 48.6067 108.604 49.9553 111.579 51.4465C114.553 52.9377 117.527 54.4289 120.376 55.8995L120.501 55.9201C122.011 56.9201 123.706 57.5745 125.462 57.8627C126.34 58.0069 127.218 58.151 128.347 58.3363C129.225 58.4805 129.998 58.482 131.041 58.4026L130.791 58.3614C132.918 57.9586 134.881 57.7793 136.988 57.4985L143.04 56.7369C147.11 56.2768 151.18 55.8167 155.145 55.2139L155.019 55.1933C155.416 55.133 155.978 54.8492 156.289 54.5243C156.435 54.4228 156.435 54.4228 156.435 54.4228C156.435 54.4228 156.435 54.4228 156.415 54.5449C156.394 54.6669 156.394 54.667 156.394 54.667L156.374 54.789C156.374 54.789 156.269 54.6464 156.144 54.6258L152.979 52.7272L146.545 48.7875L140.11 44.8478C139.062 44.1743 137.994 43.6228 136.926 43.0713C135.857 42.5199 134.729 42.3345 133.494 42.0065C132.26 41.6786 131.152 41.3712 129.983 41.43C128.813 41.4888 127.624 41.6697 126.309 41.8299L118.837 42.609L111.365 43.388L104.188 44.7171Z" fill="#112438"/>
<path d="M92.3074 71.4341C92.267 71.6783 92.332 72.0651 92.5627 72.2284C92.7934 72.3917 93.024 72.555 93.3801 72.7389L94.1977 73.2493L94.4284 73.4125C94.4284 73.4125 94.5538 73.4331 94.6793 73.4537L95.1608 73.6582C96.3344 74.3525 97.5081 75.0468 98.6817 75.7411C101.029 77.1297 103.231 78.6198 105.558 80.1305L112.288 84.6214L115.643 86.9278C116.566 87.5809 117.8 87.909 118.95 87.9724C119.597 87.9533 120.119 87.9136 120.766 87.8945C121.288 87.8549 121.976 87.5916 122.643 87.4504L126.648 86.6035C129.318 86.0389 131.989 85.4743 134.618 85.1539C139.918 84.2688 145.323 83.5264 150.773 83.2929L150.858 83.5577C145.688 85.2164 140.453 86.4883 135.238 87.6381C132.568 88.2027 129.918 88.6453 127.269 89.0878L123.304 89.6905C122.636 89.8317 121.969 89.9729 121.196 89.9713C120.403 90.0919 119.63 90.0903 118.878 89.9667C117.352 89.8416 115.887 89.3502 114.629 88.3912L111.419 85.9832L105 81.1674C102.818 79.5552 100.637 77.9431 98.4353 76.453C97.2818 75.6366 96.2335 74.9629 95.0599 74.2686L94.5784 74.0641C94.453 74.0435 94.4529 74.0435 94.3477 73.9009L94.117 73.7375L93.2994 73.2271C93.0687 73.0638 92.7127 72.88 92.5022 72.5947C92.2916 72.3093 92.2267 71.9224 92.2872 71.5562L92.3074 71.4341Z" fill="#112438"/>
<path d="M149.208 81.0477L136.192 73.2669L129.757 69.3257C128.709 68.652 127.41 67.937 126.697 67.5692C126.341 67.3853 125.568 67.3838 125.067 67.3014C124.44 67.1983 123.812 67.0953 123.29 67.135C122.247 67.2143 120.912 67.4966 119.722 67.6775L115.988 68.4434C113.463 68.9066 111.064 69.3903 108.58 69.6093C103.572 70.2914 98.6033 70.7293 93.4244 70.8818L93.3393 70.617C98.2181 69.1612 103.162 68.0923 108.085 67.1454C110.61 66.6823 113.114 66.3412 115.619 66.0002L119.438 65.499L121.275 65.2991C121.797 65.2594 122.59 65.1389 123.362 65.1404C123.739 65.2022 124.115 65.264 124.366 65.3053L125.369 65.4701C125.997 65.5731 126.624 65.6761 127.356 65.9218C128.068 66.2896 128.635 66.7589 129.222 67.1061L130.732 68.1064L137.001 72.2711L149.248 80.8035L149.208 81.0477Z" fill="#112438"/>
<path d="M132.574 64.7948C132.424 64.1433 132.901 63.5948 133.338 63.2905C133.9 63.0067 134.317 62.8244 134.984 62.6833L138.407 62.2422C140.66 61.8599 143.039 61.4983 145.292 61.116L159.063 58.8637C160.462 58.9682 161.757 58.93 163.157 59.0344C164.557 59.1389 165.916 59.4874 167.255 59.958C168.595 60.4286 169.768 61.1227 170.962 61.6948L174.503 63.655C179.237 66.1873 183.806 68.943 188.52 71.5974C188.982 71.9238 189.443 72.2503 189.949 73.0855C190.054 73.2281 190.139 73.4928 190.204 73.8795C190.184 74.0016 190.144 74.2457 190.124 74.3678C190.083 74.6119 189.917 74.8354 189.792 74.8148C189.481 75.1398 189.21 75.2206 189.044 75.4441C188.607 75.7485 188.025 76.1543 187.357 76.2955C186.815 76.4572 186.148 76.5983 185.5 76.6174L185.626 76.638L173.963 78.6095C170.124 79.2329 166.159 79.8356 162.32 80.459L162.195 80.4384C160.795 80.334 159.355 80.4736 157.87 80.1045C156.49 79.878 155.151 79.4074 153.832 78.8147C151.299 77.7721 148.846 76.2413 146.79 74.6502C142.553 71.4474 138.15 68.4681 133.582 65.7123C133.331 65.6712 132.744 65.3241 132.574 64.7948ZM132.845 64.7139C132.91 65.1006 133.371 65.427 133.873 65.5094C138.462 68.1431 143.216 70.5534 147.89 73.4518C150.092 74.9414 152.499 75.9635 154.802 76.8429C156.016 77.2929 157.25 77.6209 158.504 77.8268C159.758 78.0327 160.927 77.9738 162.202 78.0577L162.076 78.0371C165.915 77.4138 169.88 76.811 173.719 76.1876L185.467 74.4809L185.592 74.5014L185.718 74.522C186.094 74.5838 186.491 74.5235 186.907 74.3412C187.304 74.2809 187.595 74.078 188.032 73.7736L188.469 73.4693C188.469 73.4693 188.448 73.5913 188.303 73.6928C188.283 73.8148 188.283 73.8148 188.283 73.8148C188.262 73.9368 188.262 73.9368 188.283 73.8148C188.177 73.6722 187.862 73.2442 187.505 73.0604L187.631 73.081C183.062 70.3252 178.493 67.5695 173.925 64.8137L170.509 62.8741C169.336 62.18 168.142 61.6079 167.054 61.1785C164.646 60.1564 161.952 60.0902 159.403 59.9225L159.528 59.9431L145.733 61.5645C143.375 61.8041 141.141 62.0644 138.763 62.426L135.34 62.8671C134.798 63.0288 134.256 63.1905 133.819 63.4949C133.132 63.7581 132.8 64.2051 132.845 64.7139Z" fill="#112438"/>
<path d="M170.289 57.2215C170.746 56.7951 171.268 56.7554 171.81 56.5937C172.352 56.432 172.874 56.3923 173.416 56.2305L176.608 55.6263C178.736 55.2234 180.863 54.8206 182.991 54.4178L195.653 51.8581C196.426 51.8596 197.073 51.8405 197.846 51.842C198.599 51.9656 199.351 52.0891 199.958 52.3141C201.423 52.8053 202.616 53.3774 203.936 53.97C206.448 55.1347 208.941 56.4214 211.559 57.7287C216.545 60.3022 221.53 62.8756 226.515 65.449L226.264 65.4079C226.641 65.4696 226.871 65.6329 227.082 65.9182C227.292 66.2035 227.503 66.4887 227.568 66.8754C227.653 67.1401 227.592 67.5063 227.406 67.8518C227.2 68.3194 226.929 68.4003 226.638 68.6032C226.492 68.7046 226.367 68.6841 226.221 68.7855C226.076 68.887 226.076 68.887 225.95 68.8664L225.554 68.9267L224.615 69.1487L220.902 69.7926L213.474 71.0805L206.047 72.3684C203.523 72.8315 201.018 73.1726 198.514 73.5136L198.64 73.5342C197.847 73.6548 197.054 73.7753 196.176 73.6311C195.423 73.5076 194.691 73.2621 193.959 73.0165C192.619 72.5459 191.361 71.5871 190.313 70.9136C188.091 69.546 185.89 68.0564 183.668 66.6888C179.245 63.8315 174.947 60.9949 170.378 58.2391C170.128 58.1979 169.897 58.0347 169.686 57.7494C169.957 57.6686 170.123 57.445 170.289 57.2215ZM170.394 57.3642C170.249 57.4656 170.208 57.7097 170.313 57.8524C170.419 57.995 170.524 58.1376 170.775 58.1788C175.364 60.8125 179.993 63.2022 184.748 65.6124C187.115 66.8786 189.502 68.0226 191.744 69.2682C192.938 69.8402 193.861 70.4931 195.074 70.9431C196.163 71.3725 197.166 71.5373 198.125 71.1932C200.649 70.7301 203.028 70.3685 205.552 69.9054L212.96 68.7395L220.367 67.5736L224.06 67.0518L225.646 66.8107C225.646 66.8107 225.666 66.6887 225.626 66.9328C225.606 67.0548 225.606 67.0548 225.606 67.0548C225.606 67.0548 225.586 67.1768 225.711 67.1974L225.46 67.1562C220.495 64.4607 215.655 61.7858 210.69 59.0903C208.197 57.8035 205.725 56.3948 203.212 55.2301C201.893 54.6375 200.719 53.9434 199.505 53.4934C198.898 53.2684 198.146 53.1449 197.519 53.0419C196.892 52.9389 196.119 52.9375 195.472 52.9566L195.597 52.9772L182.785 54.8854C180.677 55.1662 178.55 55.569 176.442 55.8498L173.25 56.4541C172.728 56.4938 172.186 56.6555 171.644 56.8172C171.353 57.0201 170.706 57.0392 170.394 57.3642Z" fill="#112438"/>
<path d="M110.794 22.6379C110.754 22.882 110.859 23.0247 111.07 23.31C111.3 23.4732 111.511 23.7585 111.742 23.9217C112.203 24.2482 112.664 24.5746 113.251 24.9217C114.319 25.4732 115.388 26.0246 116.331 26.5555C118.467 27.6585 120.624 28.6394 122.635 29.7217C124.772 30.8246 126.888 32.0496 128.713 33.4775C130.559 34.7834 132.736 35.6422 135.013 35.8908C136.142 36.0761 137.311 36.0173 138.375 35.8159C138.917 35.6542 139.439 35.6145 139.981 35.4527C140.523 35.291 141.191 35.1499 141.733 34.9882C144.006 34.4839 146.405 34.0002 148.784 33.6385C153.436 32.7725 158.194 32.0492 162.826 31.3053L162.082 32.6875L161.426 31.2008L161.867 31.6493L148.651 25.092C146.389 23.9685 144.253 22.8655 142.116 21.7626C140.922 21.1905 140.105 20.6802 138.996 20.3729C138.013 20.0861 136.864 20.0228 135.82 20.1022L135.946 20.1228C133.818 20.5256 131.835 20.8271 129.728 21.1079C127.62 21.3887 125.512 21.6694 123.425 21.8281C121.337 21.9869 119.25 22.1456 117.037 22.2838C115.993 22.3632 114.969 22.3205 113.8 22.3793C113.278 22.4189 112.777 22.3366 112.255 22.3763C111.628 22.2733 110.98 22.2924 110.794 22.6379ZM110.544 22.5968C110.73 22.2512 111.001 22.1703 111.272 22.0895C111.543 22.0086 111.793 22.0498 112.064 21.969C112.586 21.9293 113.108 21.8896 113.61 21.9719C114.654 21.8926 115.698 21.8132 116.741 21.7338C118.829 21.575 120.831 21.1517 122.959 20.7488C124.962 20.3254 127.089 19.9225 129.112 19.377L135.16 17.8626L135.285 17.8832C136.6 17.723 138.02 17.7054 139.379 18.054C140.759 18.2805 142.058 18.9952 143.126 19.5467C145.389 20.6702 147.525 21.7731 149.642 22.9981L162.651 30.023L163.007 30.2068L163.092 30.4715L163.749 31.9582L164.194 33.1596L162.879 33.3198C158.142 33.9211 153.53 34.543 148.773 35.2663C146.394 35.628 144.141 36.0102 141.742 36.4939C141.2 36.6556 140.552 36.6747 140.01 36.8364C139.468 36.9982 138.801 37.1393 138.153 37.1584C136.964 37.3392 135.67 37.3774 134.415 37.1715C131.907 36.7597 129.625 35.7582 127.694 34.1877C125.889 32.6377 124.044 31.3319 121.927 30.1069C119.936 28.9025 117.8 27.7996 115.663 26.6967C114.595 26.1452 113.527 25.5938 112.604 24.9408C112.142 24.6144 111.535 24.3893 111.094 23.9408C110.864 23.7776 110.633 23.6144 110.423 23.3291C110.694 23.2482 110.358 22.9423 110.544 22.5968Z" fill="#112438"/>
<path d="M139.753 40.8035L152.763 47.8286L159.258 51.4022L162.443 53.1787C163.511 53.7302 164.64 53.9154 165.684 53.8361C166.853 53.7773 168.168 53.6171 169.232 53.4156C169.774 53.2539 170.316 53.0922 170.858 52.9305C171.4 52.7687 172.088 52.5055 172.63 52.3438C175.049 51.738 177.448 51.2542 179.952 50.9132C184.855 50.0884 189.718 49.5077 194.601 48.805L193.816 50.4314L193.205 49.4534L193.666 49.7799L182.397 43.9181C178.605 41.9166 174.939 39.9357 171.147 37.9342L171.398 37.9754C169.452 37.2797 167.299 37.0517 165.086 37.1898C164.564 37.2295 164.042 37.2692 163.5 37.431L161.769 37.7735C160.58 37.9544 159.536 38.0337 158.346 38.2146C153.755 38.7144 149.203 38.9701 144.672 39.1038L144.587 38.839L151.347 37.6923C153.6 37.31 155.854 36.9278 158.107 36.5455L161.445 35.8398L163.051 35.4767C163.593 35.3149 164.26 35.1738 164.782 35.1341C167.161 34.7724 169.689 35.0622 172.032 35.6975L172.158 35.7181L172.283 35.7387C176.075 37.7402 179.761 39.599 183.533 41.7226L194.616 47.93L194.847 48.0933L194.932 48.3579L195.543 49.3359L196.471 50.7417L194.779 50.8401C189.937 51.2988 184.949 51.8589 180.066 52.5617C177.687 52.9233 175.183 53.2644 172.909 53.7687C172.242 53.9098 171.825 54.0922 171.158 54.2333C170.616 54.3951 169.928 54.6583 169.281 54.6773C167.966 54.8376 166.777 55.0184 165.482 55.0566C164.187 55.0948 162.808 54.8683 161.634 54.1741L158.344 52.255L152.015 48.4579L139.337 40.9858L139.753 40.8035Z" fill="#112438"/>
<path d="M33.4448 34.188C31.6942 34.6524 30.0085 35.5032 29.0994 37.1077C28.5822 37.8997 28.4411 38.7534 28.4252 39.6277L28.1068 42.3314L26.9789 53.0449L24.7431 74.3497L24.7633 74.2277C24.893 75.0006 25.148 75.7942 25.6941 76.3849C26.0298 76.6905 26.2603 76.8536 26.8467 77.2004C26.9519 77.3429 27.1824 77.506 27.1219 77.8719C27.0614 78.2378 26.7704 78.4405 26.6249 78.5419C26.3338 78.7447 26.0831 78.7035 25.9376 78.8049C24.3326 79.1679 24.0099 81.1192 23.8529 82.8472C23.3933 86.4047 22.9135 90.0841 22.5793 93.6621C21.7654 100.919 21.0769 108.197 20.4085 115.353L20.4286 115.231C20.5627 116.757 21.3637 118.141 22.5164 118.956L22.2744 120.42C21.0655 120.723 20.1521 121.575 19.6997 122.753C19.4735 123.343 19.498 123.973 19.377 124.705L19.1393 126.921L18.2087 135.662L16.2221 153.124L15.9844 155.34C15.8836 155.95 15.9081 156.58 16.0781 157.109C16.2482 157.638 16.5435 158.188 16.8591 158.616C17.0694 158.901 17.1746 159.043 17.5305 159.227L18.4526 159.879L25.5183 165.423C30.1938 169.072 34.8491 172.842 39.5245 176.491C48.8552 183.91 58.0404 191.431 67.351 198.972C76.516 206.614 85.7013 214.135 94.8461 221.899L94.6804 222.122C85.0385 215.028 75.5623 207.71 66.1912 200.535C56.715 193.217 47.3641 185.92 38.0334 178.501C33.3579 174.853 28.7026 171.082 24.0474 167.312L17.1271 161.666L16.205 161.014C15.8491 160.83 15.5335 160.402 15.1978 160.097C14.5466 159.363 14.1662 158.549 13.9313 157.634C13.6965 156.718 13.7124 155.844 13.8334 155.112L14.071 152.897L16.3083 135.475L17.3642 126.754L17.602 124.539C17.723 123.807 17.7186 123.055 17.9852 122.221C18.2517 121.388 18.7689 120.596 19.3712 120.069C19.9936 119.419 20.8263 119.055 21.6389 118.812L21.3969 120.276C19.9287 119.033 18.812 117.221 18.7385 115.33L18.7587 115.208L18.7789 115.086C19.5928 107.829 20.4067 100.571 21.346 93.3344C21.8056 89.7769 22.2853 86.0976 22.765 82.4182C22.9062 81.5645 23.0676 80.5888 23.4796 79.6542C23.6857 79.187 23.8917 78.7197 24.3484 78.2936C24.8051 77.8675 25.2417 77.5633 25.7633 77.5236C26.0341 77.4428 26.3049 77.362 26.3049 77.362C26.3049 77.362 26.305 77.362 26.2848 77.484C26.2646 77.6059 26.39 77.6265 26.2646 77.6059C26.0341 77.4428 25.5731 77.1166 25.2374 76.8109C24.4608 76.0571 23.9954 74.9786 24.0314 73.9824L26.6432 52.7392L28.0218 42.0669L28.3402 39.3632C28.356 38.4889 28.6427 37.5338 29.1599 36.7418C30.1944 35.1578 31.9003 34.1851 33.756 33.8633L33.4448 34.188Z" fill="#112438"/>
<path d="M227.712 68.3918C229.221 69.391 230.668 70.7559 231.283 72.4853C231.518 73.4006 231.502 74.2748 231.341 75.2504C231.2 76.104 230.934 76.937 230.772 77.9126C230.062 81.4284 229.478 84.9649 228.893 88.5013L225.406 109.598C225.119 110.553 224.331 111.425 223.353 111.891C222.937 112.073 222.396 112.235 222.105 112.438C222.105 112.438 222.105 112.438 222.125 112.316C222.145 112.194 222.04 112.051 222.145 112.194C222.27 112.214 222.501 112.377 222.606 112.52C223.067 112.846 223.528 113.172 223.698 113.701C223.993 114.251 224.038 114.759 224.082 115.267C224.172 116.284 224.011 117.26 223.869 118.113C223.39 121.792 222.68 125.308 222.075 128.967C220.886 136.161 219.571 143.335 218.131 150.489L218.111 150.611L218.091 150.733C217.413 152.5 215.898 153.88 214.107 154.588L214.224 153.104C215.166 153.635 215.922 154.51 216.387 155.589C216.853 156.667 216.797 157.785 216.635 158.761L215.728 164.248L213.789 175.203L211.974 186.178L211.067 191.665C210.926 192.519 210.725 193.738 210.042 194.754C209.359 195.769 208.466 196.499 207.363 196.944L207.092 197.025C207.092 197.025 207.092 197.025 207.238 196.924C207.403 196.7 207.238 196.924 207.569 196.477C207.88 196.152 207.395 195.196 207.144 195.155C207.039 195.012 206.788 194.971 206.788 194.971L206.663 194.95C206.538 194.93 206.663 194.95 206.663 194.95L206.788 194.971C206.914 194.991 206.788 194.971 207.039 195.012C206.808 194.849 208.146 195.319 207.82 196.518C207.282 197.432 207.488 196.965 207.323 197.188L207.177 197.289L207.032 197.391L206.886 197.492L206.741 197.594L206.345 197.654L204.991 198.058L202.283 198.866L196.762 200.339C193.012 201.226 189.386 202.134 185.636 203.021C178.28 204.694 170.799 206.347 163.253 207.613L163.168 207.349C170.394 204.903 177.685 202.843 184.976 200.784C188.621 199.754 192.267 198.724 196.017 197.837L201.518 196.485L204.331 195.82L205.685 195.416L205.956 195.335L206.101 195.234C205.936 195.457 206.162 194.868 205.604 195.904C205.298 196.981 206.616 197.573 206.405 197.288C206.531 197.308 206.531 197.308 206.531 197.308L206.405 197.288L206.28 197.267C206.28 197.267 206.029 197.226 205.924 197.084C205.674 197.043 205.168 196.208 205.374 195.741C205.6 195.152 205.56 195.396 205.725 195.172C206.016 194.969 206.016 194.969 206.016 194.969C206.287 194.889 206.287 194.889 206.432 194.787C207.827 194.139 208.655 193.023 208.812 191.295L209.844 185.828L211.909 174.894L213.974 163.96L215.006 158.493C215.147 157.64 215.143 156.887 214.868 156.216C214.593 155.544 214.047 154.954 213.355 154.465L213.472 152.981C214.846 152.455 216.05 151.4 216.668 149.998L216.648 150.12C218.088 142.967 219.528 135.813 220.842 128.639C221.552 125.123 222.157 121.465 222.742 117.928C223.024 116.221 223.346 114.27 221.943 113.413C221.713 113.25 221.588 113.23 221.252 112.924C221.147 112.781 220.937 112.496 220.997 112.13C221.058 111.765 221.348 111.562 221.474 111.582C222.036 111.299 222.432 111.239 222.848 111.057C223.555 110.672 224.032 110.124 224.423 109.311L224.403 109.433L228.267 88.3984C228.977 84.8826 229.561 81.3461 230.271 77.8303C230.553 76.1231 231.357 74.3762 230.867 72.6674C230.503 70.9793 229.055 69.6143 227.547 68.6152L227.712 68.3918Z" fill="#112438"/>
</svg>
