<svg width="219" height="206" viewBox="0 0 219 206" fill="none" xmlns="http://www.w3.org/2000/svg">
<path d="M18.7369 17.1707C34.3223 14.8467 44.1474 13.0793 47.6904 11.9079C49.0453 11.5043 50.837 10.7966 53.0745 11.2896C55.0611 11.7413 56.0086 13.0244 57.489 12.6413C58.5729 12.3184 59.2559 11.3034 59.6679 10.369L89.569 6.38919L123.906 0.508087L212.305 48.7303L215.504 52.7632L216.61 56.2019L215.482 63.0312L210.118 90.834L208.691 93.23L206.523 93.876L208.77 95.874L208.788 98.883L203.034 131.382L199.901 134.75L201.676 138.048L195.539 172.864L193.786 176.459L191.618 177.105L148.728 187.969L139.893 189.162L125.208 193.874L84.4652 204.214L80.633 202.457L3.20047 140.88L1.75317 136.383L6.10277 103.027L9.01407 101.001L6.48728 97.579L10.8233 61.966L13.8599 59.9599L11.2233 55.6435L15.6041 20.5389L18.7369 17.1707Z" fill="#1C4C5F"/>
<path d="M179.541 95.109L184.463 65.3494C184.73 64.5162 185.142 63.5816 185.409 62.7484C186.011 62.2209 186.759 61.5919 187.361 61.0644C196.515 59.4347 205.524 57.9064 214.678 56.2767C215.264 56.6235 215.495 56.7866 215.936 57.2348C215.98 57.7432 216.13 58.3942 216.175 58.9026C214.274 69.6151 212.374 80.3276 210.473 91.04C210.122 91.609 209.77 92.178 209.273 92.848C208.711 93.131 208.254 93.557 207.692 93.841C199.185 95.452 190.553 97.042 182.046 98.652C181.649 98.712 181.273 98.651 180.792 98.446L180.667 98.426C179.83 98.038 179.324 97.203 179.34 96.329C179.525 95.984 179.606 95.496 179.541 95.109Z" fill="#EC5D3E"/>
<path d="M134.941 146.758L139.863 116.998C140.13 116.165 140.542 115.23 140.808 114.397C141.411 113.87 142.158 113.241 142.761 112.713C151.915 111.083 160.923 109.555 170.078 107.925C170.664 108.272 170.895 108.435 171.336 108.883C171.38 109.392 171.53 110.043 171.575 110.551C169.674 121.264 167.774 131.976 165.873 142.689C165.522 143.258 165.17 143.826 164.673 144.496C164.111 144.78 163.654 145.206 163.092 145.49C154.585 147.1 145.952 148.69 137.445 150.301C137.049 150.361 136.673 150.299 136.192 150.095L136.066 150.075C135.229 149.687 134.723 148.852 134.739 147.978C134.8 147.612 134.88 147.124 134.941 146.758Z" fill="#3A8A9D"/>
<path d="M88.52 197.733L93.22 169.314C93.486 168.481 93.878 167.668 94.145 166.835C94.747 166.307 95.475 165.8 96.077 165.273C105.212 163.765 114.2 162.359 123.335 160.851C123.921 161.198 124.152 161.361 124.613 161.687C124.657 162.195 124.827 162.724 124.872 163.233C123.052 173.458 121.232 183.682 119.412 193.907C119.061 194.476 118.709 195.045 118.232 195.593C117.67 195.876 117.213 196.303 116.651 196.586C108.164 198.075 99.552 199.543 91.064 201.032C90.668 201.092 90.292 201.03 89.811 200.826L89.685 200.805C88.848 200.417 88.342 199.583 88.338 198.83C88.399 198.464 88.459 198.099 88.52 197.733Z" fill="#3A8A9D"/>
<path d="M95.44 155.789L100.362 126.03C100.629 125.196 101.041 124.262 101.308 123.429C101.91 122.901 102.658 122.272 103.26 121.745C112.414 120.115 121.423 118.587 130.577 116.957C131.163 117.304 131.394 117.467 131.835 117.915C131.879 118.423 132.029 119.074 132.074 119.583C130.173 130.295 128.273 141.008 126.372 151.72C126.021 152.289 125.669 152.858 125.172 153.528C124.61 153.811 124.153 154.238 123.591 154.521C115.084 156.132 106.452 157.722 97.945 159.332C97.548 159.393 97.172 159.331 96.691 159.127L96.566 159.106C95.728 158.718 95.223 157.883 95.238 157.009C95.299 156.643 95.36 156.277 95.44 155.789Z" fill="#EC5D3E"/>
<path d="M64.7322 88.734L68.6469 58.0581C68.6829 57.0618 68.5734 56.1669 68.6094 55.1706C68.2089 54.4785 67.8285 53.6645 67.4279 52.9724C60.2857 48.6684 53.1435 44.3645 46.0012 40.0605C45.4595 40.2222 45.1886 40.303 44.6267 40.5866C44.4206 41.0538 44.1944 41.6431 43.9883 42.1104C42.6743 53.1694 41.3603 64.2284 40.0463 75.2874C40.176 76.0603 40.346 76.5893 40.6011 77.3828C40.9166 77.8104 41.3373 78.3806 41.6529 78.8082C48.3139 82.9079 54.9547 87.13 61.6157 91.229C61.9716 91.413 62.3477 91.475 62.6185 91.394L62.7439 91.414C63.5363 91.294 64.1587 90.644 64.4253 89.811C64.4656 89.567 64.6717 89.1 64.7322 88.734Z" fill="#3A8A9D"/>
<path d="M91.211 27.5966C107.636 25.6538 114.481 24.7713 115.796 24.611C115.922 24.6316 116.338 24.4492 116.86 24.4095C117.779 24.3095 118.531 24.433 120.141 24.8227C122.128 25.2742 123.257 25.4595 124.807 26.2155C125.644 26.6037 126.357 26.9714 126.818 27.2978C132.58 30.626 138.197 34.0556 143.959 37.3838C144.085 37.4044 144.672 37.7514 144.591 38.2397C144.571 38.3618 144.53 38.6059 143.822 38.9912C143.115 39.3766 142.573 39.5383 142.573 39.5383C136.084 40.6046 121.766 42.2666 118.178 42.9313C116.632 42.9284 116.111 42.9681 115.107 42.8034C114.104 42.6387 112.704 42.5343 110.988 42.0019C109.147 41.4489 107.869 40.6121 106.926 40.0812C101.143 36.8752 95.506 33.5676 89.724 30.3615C89.117 30.1365 88.655 29.81 88.716 29.4438C88.651 29.057 88.942 28.854 89.233 28.6511C89.876 27.879 90.69 27.6363 91.211 27.5966Z" fill="#3A8A9D"/>
<path d="M157.398 40.3659C157.563 40.1424 157.834 40.0615 158.773 39.8395C159.44 39.6983 159.586 39.5967 159.586 39.5967C174.17 37.101 181.472 35.7922 182.787 35.6319C182.787 35.6319 184.081 35.5936 184.583 35.676C184.583 35.676 185.857 35.7598 187.678 36.4348C189.374 37.0892 199.595 42.2775 213.191 49.6497C213.191 49.6497 213.693 49.7321 213.758 50.1189C213.758 50.1189 213.823 50.5056 213.657 50.7292C213.657 50.7292 213.491 50.9527 213.075 51.135C212.261 51.3777 188.579 55.1382 185.408 55.6206C185.137 55.7015 184.615 55.7412 183.967 55.7603C183.591 55.6985 182.693 55.6765 181.374 55.0838C180.16 54.6338 179.363 54.0015 179.363 54.0015C177.853 53.0014 169.744 48.2852 157.612 41.4042C157.236 41.3424 157.151 41.0777 157.046 40.9351C157.106 40.5689 157.252 40.4674 157.398 40.3659Z" fill="#3A8A9D"/>
<path d="M122.531 46.2743C138.956 44.3315 145.801 43.4491 147.116 43.2888C147.241 43.3094 147.658 43.127 148.18 43.0873C149.098 42.9873 149.851 43.1108 151.461 43.5005C153.448 43.952 154.577 44.1373 156.126 44.8932C156.964 45.2815 157.676 45.6492 158.137 45.9757C163.9 49.3038 169.517 52.7334 175.279 56.0615C175.404 56.0821 175.991 56.4292 175.911 56.9174C175.89 57.0395 175.85 57.2836 175.142 57.669C174.434 58.0543 173.892 58.216 173.892 58.216C167.403 59.2823 153.086 60.9443 149.498 61.609C147.952 61.6061 147.43 61.6458 146.427 61.4811C145.423 61.3164 144.023 61.212 142.308 60.6796C140.467 60.1266 139.188 59.2898 138.245 58.7589C132.463 55.5529 126.826 52.2453 121.043 49.0393C120.436 48.8143 119.975 48.4877 120.035 48.1215C119.971 47.7347 120.262 47.5318 120.553 47.3289C121.196 46.5568 122.134 46.3346 122.531 46.2743Z" fill="#EC5D3E"/>
<path d="M80.4134 54.0008C80.5993 53.6553 80.8704 53.5744 81.8089 53.3523C82.4965 53.0891 82.6219 53.1097 82.6219 53.1097C97.367 49.6379 104.729 47.963 106.064 47.6807C106.064 47.6807 107.359 47.6425 107.88 47.6028C107.88 47.6028 109.175 47.5646 110.976 48.3615C112.671 49.0159 122.771 54.9358 136.205 63.2834C136.205 63.2834 136.687 63.4878 136.752 63.8745C136.752 63.8745 136.816 64.2612 136.631 64.6067C136.631 64.6067 136.445 64.9523 136.048 65.0126C135.215 65.3773 111.311 70.4798 108.1 71.2062C107.829 71.2871 107.286 71.4489 106.639 71.468C106.243 71.5283 105.365 71.3842 104.046 70.7916C102.852 70.2196 102.055 69.5873 102.055 69.5873C100.566 68.4654 92.558 63.1395 80.5878 55.283C80.2115 55.2213 80.1265 54.9566 80.0414 54.6919C80.2072 54.4684 80.3932 54.1229 80.4134 54.0008Z" fill="#F3B08C"/>
<path d="M172.004 138.453L176.704 110.034C176.971 109.201 177.363 108.388 177.629 107.555C178.232 107.028 178.959 106.521 179.562 105.993C188.696 104.485 197.684 103.079 206.819 101.571C207.405 101.918 207.636 102.081 208.097 102.407C208.142 102.916 208.312 103.445 208.356 103.953C206.536 114.178 204.716 124.403 202.897 134.628C202.545 135.196 202.193 135.765 201.716 136.313C201.154 136.597 200.698 137.023 200.136 137.307C191.648 138.795 183.036 140.263 174.549 141.752C174.152 141.812 173.776 141.75 173.295 141.546L173.17 141.526C172.333 141.138 171.827 140.303 171.822 139.551C171.988 139.327 172.049 138.961 172.004 138.453Z" fill="#3A8A9D"/>
<path d="M52.0969 174.697C51.9961 175.306 51.8953 175.916 51.7743 176.648C51.734 176.892 51.5683 177.115 51.4026 177.338C50.7801 177.988 49.9227 177.722 49.7974 177.701C48.8549 177.171 47.9125 176.64 47.0104 175.866C39.1669 169.568 34.8467 166.102 29.3088 161.435C28.7828 160.723 28.5075 160.051 28.4426 159.665C28.1025 158.607 28.1384 157.61 28.2191 157.123C28.2349 156.248 28.461 155.659 28.5417 155.171C29.6578 146.085 31.1139 138.056 32.23 128.969C32.2502 128.847 32.2458 128.095 32.8683 127.446C33.325 127.02 33.7212 126.959 33.8466 126.98C34.6189 126.981 35.1651 127.572 35.1651 127.572C41.5157 131.997 47.0781 137.294 53.3033 141.698C54.0152 142.066 54.4562 142.514 54.6666 142.799C55.6134 144.082 55.6221 145.587 55.6669 146.095C55.6511 146.969 55.53 147.701 55.5099 147.823C55.0821 149.632 54.4298 155.913 53.0762 167.216" fill="#3A8A9D"/>
<path d="M31.1431 114.267C31.0423 114.877 30.9415 115.487 30.8205 116.218C30.7801 116.462 30.6144 116.686 30.4488 116.909C29.8263 117.558 28.9689 117.292 28.8436 117.272C27.9011 116.741 26.9587 116.211 26.0566 115.436C18.2131 109.138 13.893 105.673 8.35513 101.006C7.82913 100.293 7.55383 99.622 7.48903 99.235C7.14883 98.177 7.18483 97.181 7.26543 96.693C7.28123 95.819 7.50743 95.23 7.58813 94.742C8.70413 85.655 10.1603 77.6265 11.2764 68.5398C11.2966 68.4179 11.2922 67.6656 11.9147 67.0162C12.3714 66.5901 12.7676 66.5298 12.893 66.5504C13.6653 66.5519 14.2115 67.1427 14.2115 67.1427C20.562 71.5674 26.1244 76.8649 32.3496 81.269C33.0614 81.6364 33.5024 82.0846 33.7128 82.3697C34.6596 83.653 34.6683 85.157 34.7131 85.666C34.6973 86.54 34.5762 87.272 34.5561 87.394C34.1283 89.202 33.476 95.484 32.1224 106.787" fill="#F3B08C"/>
<path d="M102.927 122.192L131.444 115.598L131.841 115.537L132.176 115.843C133.268 117.024 133.779 118.612 133.767 120.238C133.707 120.604 133.771 120.991 133.586 121.336C133.525 121.702 133.464 122.068 133.404 122.434L133.061 124.507L131.835 132.699L129.363 149.206L129.181 150.303C129.12 150.669 128.914 151.137 128.854 151.502C128.587 152.336 127.945 153.107 127.342 153.635C126.595 154.264 125.887 154.649 125.074 154.891C124.262 155.133 123.595 155.275 122.928 155.416C120.134 155.959 117.34 156.503 114.546 157.047C108.958 158.134 103.265 159.079 97.612 159.78L97.527 159.515C102.965 157.777 108.488 156.303 113.991 154.951C116.68 154.265 119.494 153.599 122.308 152.934C125.353 152.431 126.683 151.397 127.001 148.693L130.1 132.289L131.577 124.138L131.92 122.065C132.041 121.333 132.267 120.744 132.243 120.113C132.319 118.873 131.999 117.693 131.137 116.675L131.869 116.92L103.138 122.478L102.927 122.192Z" fill="#112438"/>
<path d="M98.971 129.68C98.734 131.895 98.497 134.111 98.385 136.347L97.674 142.993C97.436 145.208 97.325 147.444 96.837 149.618C96.224 151.772 95.611 153.925 94.622 156.017L94.372 155.976C94.108 153.678 94.22 151.442 94.332 149.207C94.569 146.991 95.182 144.838 95.67 142.663L97.133 136.141C97.746 133.987 98.233 131.813 98.721 129.639L98.971 129.68Z" fill="#112438"/>
<path d="M87.78 196.734L91.939 168.477C92.246 167.4 93.074 166.283 94.073 165.695C94.635 165.412 95.197 165.128 95.739 164.967C96.281 164.805 96.802 164.765 97.344 164.604L103.514 163.111L115.855 160.125L122.025 158.631L123.63 158.269C124.423 158.148 125.3 158.292 125.992 158.781C126.684 159.271 126.959 159.942 127.089 160.715C127.154 161.102 127.218 161.488 127.178 161.732C127.118 162.098 127.097 162.22 127.037 162.586L125.125 174.925C124.439 179.072 123.899 183.118 123.087 187.244L122.583 190.294L122.321 191.879C122.22 192.489 121.994 193.078 121.767 193.668C120.612 195.983 117.947 197.3 115.61 197.418C113.629 197.719 111.502 198.122 109.375 198.524L103.12 199.753C98.991 200.579 94.738 201.384 90.609 202.21L90.524 201.945C94.608 200.611 98.671 199.399 102.715 198.308C106.904 197.117 110.822 196.006 115.201 195.221C115.472 195.14 115.722 195.181 115.993 195.1C116.264 195.02 116.39 195.04 116.661 194.959C117.077 194.777 117.493 194.595 117.785 194.392C118.512 193.885 119.115 193.358 119.381 192.524C119.567 192.179 119.628 191.813 119.708 191.325L119.97 189.74L120.475 186.69C121.161 182.543 121.952 178.539 122.638 174.392L124.926 162.114L125.047 161.382C125.067 161.261 125.107 161.017 125.002 160.874C124.917 160.609 124.727 160.202 124.602 160.182C124.371 160.019 124.12 159.978 123.87 159.936L122.41 160.198L116.134 161.549L103.583 164.249L97.308 165.6L95.848 165.861C95.432 166.044 94.89 166.205 94.599 166.408C93.746 166.895 93.249 167.565 92.962 168.52L92.982 168.398L87.946 196.511L87.78 196.734Z" fill="#112438"/>
<path d="M128.665 181.669C129.411 177.156 130.032 172.622 130.633 168.21C130.871 165.994 131.254 163.677 131.492 161.461C131.694 160.241 132.146 159.062 132.955 158.067C133.763 157.072 135.033 156.404 136.347 156.243L161.612 149.865L161.341 149.946C161.903 149.663 162.445 149.501 163.092 149.482C163.739 149.463 164.346 149.688 164.807 150.014C165.268 150.34 165.689 150.91 165.839 151.561C165.989 152.212 166.034 152.721 165.807 153.31L165.827 153.188C165.081 157.701 164.46 162.235 163.713 166.748C162.967 171.261 162.095 175.754 161.098 180.226L161.118 180.104C161.143 180.734 161.042 181.344 160.815 181.933C160.589 182.523 160.488 183.132 160.137 183.701C159.559 184.859 158.645 185.712 157.501 186.401L157.355 186.502L157.23 186.482C155.77 186.743 154.416 187.147 152.956 187.409C151.496 187.671 150.161 187.953 148.702 188.214L148.617 187.95C149.991 187.424 151.346 187.02 152.721 186.493C154.096 185.967 155.45 185.563 156.93 185.18L156.785 185.281C157.658 184.673 158.175 183.88 158.567 183.068C158.979 182.133 159.141 181.157 159.052 180.14L159.072 180.018C159.693 175.485 160.314 170.951 161.06 166.438C161.807 161.925 162.679 157.432 163.55 152.94L163.571 152.818C163.591 152.696 163.631 152.452 163.651 152.33C163.672 152.208 163.566 152.065 163.461 151.923C163.356 151.78 163.105 151.739 162.98 151.719C162.854 151.698 162.583 151.779 162.438 151.88L162.292 151.982L162.167 151.961L136.772 157.566C135.729 157.645 134.876 158.132 134.108 158.883C133.465 159.654 133.033 160.711 132.746 161.666C132.508 163.882 131.999 166.179 131.636 168.375C130.764 172.867 129.893 177.36 129.041 181.731L128.665 181.669Z" fill="#112438"/>
<path d="M165.963 181.293L168.714 162.327L170.142 152.915C170.283 152.061 170.258 151.43 170.545 150.475C170.812 149.642 171.203 148.829 171.846 148.058C172.986 146.616 174.797 145.786 176.633 145.586L176.508 145.566L190.453 142.217L197.416 140.603L198.354 140.381C198.499 140.28 199.166 140.139 199.668 140.221C200.816 140.284 201.823 141.201 202.058 142.117C202.248 142.524 202.273 143.154 202.213 143.52C202.172 143.764 202.132 144.008 202.112 144.13C202.071 144.374 201.926 144.475 201.906 144.597C201.72 144.943 201.619 145.552 201.538 146.04C200.541 150.512 199.775 155.147 198.883 159.761C197.991 164.375 197.099 168.989 196.082 173.583L195.831 173.542C195.971 168.804 196.361 164.108 196.857 159.554C197.372 154.878 198.014 150.222 198.906 145.608C199.006 144.998 199.107 144.389 199.479 143.698C199.519 143.454 199.645 143.475 199.665 143.353C199.685 143.231 199.685 143.231 199.705 143.109C199.725 142.987 199.725 142.987 199.746 142.865C199.64 142.722 199.64 142.722 199.535 142.58C199.555 142.458 198.743 142.7 198.201 142.862L191.153 144.211L177.038 147.031L176.912 147.01C175.493 147.028 174.098 147.676 173.144 148.772C172.667 149.32 172.316 149.889 172.07 150.6C171.843 151.189 171.827 152.064 171.686 152.917L170.008 162.288L166.505 181.132L166.003 181.049L165.963 181.293Z" fill="#112438"/>
<path d="M173.843 181.955C175.364 181.327 176.864 180.822 178.365 180.316L182.867 178.799C184.368 178.293 185.889 177.665 187.474 177.424C189.06 177.183 190.751 177.084 192.382 177.352L192.467 177.617C191.136 178.652 189.615 179.28 188.094 179.907C186.594 180.413 184.903 180.512 183.422 180.895L178.645 181.741C177.059 181.982 175.473 182.223 173.888 182.464L173.843 181.955Z" fill="#112438"/>
<path d="M173.288 140.795C173.393 140.937 173.749 141.121 174 141.162C174.231 141.325 174.501 141.244 174.752 141.286C175.274 141.246 175.816 141.084 176.483 140.943L179.964 140.136L186.822 138.38L200.516 134.99L200.371 135.092C200.933 134.808 201.39 134.382 201.846 133.956C202.178 133.509 202.529 132.94 202.861 132.494C203.027 132.27 203.087 131.904 203.127 131.66L203.414 130.705L203.862 128.774C204.411 126.234 204.855 123.55 205.279 120.989C206.271 115.765 207.119 110.642 207.861 105.377L208.183 103.426L208.345 102.45C208.385 102.206 208.425 101.962 208.32 101.82C208.215 101.677 208.215 101.677 208.215 101.677C208.215 101.677 208.09 101.656 207.839 101.615C207.443 101.676 206.65 101.796 205.983 101.937L197.997 103.508C192.68 104.515 187.343 105.643 182.046 106.528L182.171 106.548C181.504 106.689 180.922 107.095 180.591 107.542C180.259 107.988 180.013 108.7 179.912 109.309L179.892 109.431L178.35 117.196C177.801 119.737 177.357 122.42 176.808 124.961L175.121 132.827L173.288 140.795ZM173.017 140.876C173.316 138.294 173.614 135.712 173.932 133.008L174.993 125.039C175.311 122.335 175.755 119.652 176.199 116.968L177.405 108.898L177.385 109.02C177.441 107.902 177.873 106.845 178.556 105.83C179.219 104.936 180.363 104.247 181.447 103.924C186.764 102.917 192.061 102.033 197.358 101.148L205.303 99.821L206.366 99.62C206.637 99.539 207.159 99.499 207.555 99.439C208.077 99.399 208.578 99.482 209.165 99.828C209.751 100.175 210.026 100.847 210.071 101.355C210.116 101.864 210.181 102.25 210.12 102.616L209.959 103.592L209.636 105.543C208.643 110.767 207.671 115.869 206.678 121.093C206.129 123.634 205.56 126.297 205.011 128.838L204.563 130.768L204.276 131.724C204.215 132.09 204.029 132.435 203.844 132.78C203.472 133.471 203.12 134.04 202.643 134.588C202.166 135.136 201.459 135.521 200.877 135.926L187.117 138.93L180.175 140.422L176.693 141.228C176.151 141.39 175.61 141.552 174.963 141.571C174.17 141.691 173.563 141.466 173.017 140.876Z" fill="#112438"/>
<path d="M179.416 95.089L180.647 87.649C181.05 85.21 181.349 82.6279 181.752 80.1886L183.837 65.2469L184.657 62.6253L184.677 62.5033L184.822 62.4019L186.775 60.7179L186.92 60.6165L187.066 60.5151L214.298 55.463L214.695 55.4028L215.05 55.5864L216.454 56.4431L216.81 56.6269L216.875 57.0133L217.114 58.6812L217.094 58.8032L217.074 58.9251L214.411 75.0249L213.079 83.075L211.623 91.104L211.582 91.348L211.417 91.571L210.216 93.379L210.051 93.602L209.905 93.704L208.324 94.697L208.054 94.778L207.783 94.859C202.611 95.764 197.48 96.425 192.203 97.188C189.575 97.508 187.052 97.971 184.424 98.291L182.442 98.592C182.171 98.673 181.775 98.734 181.399 98.672C181.023 98.61 180.647 98.548 180.416 98.385C179.83 98.038 179.284 97.448 179.134 96.797C179.34 96.329 179.441 95.72 179.416 95.089ZM179.667 95.13C179.692 95.761 179.591 96.371 179.741 97.022C179.911 97.551 180.331 98.121 180.938 98.346C181.168 98.509 181.545 98.57 181.795 98.612C182.046 98.653 182.462 98.47 182.733 98.39L184.61 97.946C187.153 97.361 189.696 96.776 192.239 96.191C197.326 95.022 202.432 93.73 207.499 92.682L207.082 92.864L208.683 91.749L208.372 92.074L209.572 90.266L209.366 90.734L210.823 82.7044L212.28 74.6751L215.444 58.6577L215.383 59.0236L215.144 57.3557L215.545 58.0479L214.287 57.0898L215.039 57.2132L187.637 61.7362L187.928 61.5335L185.975 63.2175L186.141 62.9941L185.196 65.5951L185.216 65.4732L182.379 80.2914C181.975 82.7308 181.426 85.272 181.023 87.711L179.667 95.13Z" fill="#112438"/>
<path d="M141.721 102.539L142.972 94.977C143.395 92.415 143.693 89.833 144.097 87.394L146.242 72.0863L147.208 69.3634L147.228 69.2414L147.373 69.14L149.326 67.456L149.472 67.3545L149.617 67.2532L177.517 62.06L177.913 61.9998L178.269 62.1835L179.652 63.1621L180.008 63.3459L180.073 63.7323L180.438 65.4208L180.417 65.5427L180.397 65.6647L177.674 82.1303L176.322 90.302L174.846 98.453L174.805 98.697L174.639 98.921L173.439 100.728L173.274 100.952L173.128 101.053L171.547 102.046L171.276 102.127L171.005 102.208C165.709 103.093 160.432 103.855 155.03 104.597L147.104 105.802L145.123 106.104C144.727 106.164 144.456 106.245 144.08 106.183C143.704 106.121 143.328 106.059 142.972 105.876C142.26 105.508 141.839 104.938 141.689 104.287C141.519 103.758 141.62 103.148 141.721 102.539ZM141.972 102.58C141.996 103.21 141.875 103.942 142.045 104.471C142.215 105 142.636 105.57 143.243 105.795C143.473 105.958 143.849 106.02 144.1 106.061C144.351 106.102 144.767 105.92 145.038 105.839L147.04 105.416L154.94 103.58C160.172 102.309 165.384 101.16 170.596 100.011L170.18 100.193L171.781 99.078L171.469 99.403L172.67 97.595L172.464 98.062L173.941 89.911L175.417 81.76L178.642 65.3767L178.582 65.7426L178.342 64.0747L178.743 64.7668L177.36 63.7881L178.112 63.9116L150.042 68.5757L150.333 68.3729L148.255 70.0364L148.421 69.813L147.476 72.414L147.496 72.292L144.598 87.476C144.175 90.038 143.626 92.578 143.222 95.018L141.972 102.58Z" fill="#112438"/>
<path d="M139.118 117.513C139.28 116.537 139.692 115.601 140.481 114.728C141.124 113.956 141.997 113.348 142.976 112.881L143.101 112.902C148.461 111.651 153.801 110.522 159.035 109.25C161.725 108.564 164.395 107.999 167.024 107.679C167.692 107.537 168.339 107.518 169.112 107.52C169.905 107.399 171.159 107.605 171.79 108.461C172.106 108.889 172.151 109.397 172.216 109.784C172.28 110.171 172.22 110.537 172.159 110.903C172.038 111.635 171.666 112.326 171.315 112.895L171.084 112.732C171.185 112.122 171.306 111.39 171.136 110.86C170.966 110.331 170.836 109.558 170.585 109.517C170.355 109.353 169.978 109.292 169.562 109.474C168.894 109.615 168.207 109.878 167.539 110.019C164.849 110.706 162.2 111.148 159.445 111.448C154.04 112.191 148.616 113.055 143.211 113.797L143.337 113.818C142.503 114.183 141.65 114.669 140.902 115.299C140.154 115.928 139.636 116.72 139.349 117.676L139.118 117.513Z" fill="#112438"/>
<path d="M138.537 122.666L136.633 136.512L135.629 143.363L135.189 146.799C135.088 147.409 135.028 147.775 135.218 148.182C135.323 148.324 135.428 148.467 135.534 148.61L135.659 148.63C135.659 148.63 135.659 148.63 135.784 148.651C135.91 148.671 136.035 148.692 136.035 148.692C136.286 148.733 136.411 148.754 136.682 148.673C136.933 148.714 137.204 148.633 137.475 148.552L139.206 148.21L142.687 147.403L149.651 145.789L163.578 142.562L163.307 142.643C164.035 142.136 164.763 141.629 165.155 140.816C165.32 140.593 165.341 140.471 165.381 140.227L165.421 139.983L165.482 139.617L165.764 137.909C166.253 135.734 166.636 133.416 167.125 131.241C167.613 129.066 168.122 126.769 168.611 124.594C169.099 122.419 169.733 120.143 170.222 117.968L170.473 118.009C170.36 120.246 170.102 122.584 169.864 124.8C169.627 127.016 169.369 129.354 169.131 131.571C168.893 133.787 168.51 136.104 168.272 138.321L167.99 140.028L167.909 140.516C167.868 140.76 167.848 140.882 167.828 141.004C167.768 141.37 167.582 141.715 167.416 141.939C166.818 143.219 165.738 144.295 164.469 144.963L164.323 145.065L164.198 145.044C159.527 146.032 154.877 146.897 150.226 147.763L143.177 149.112L139.59 149.776L137.86 150.119C137.589 150.2 137.338 150.159 136.942 150.219C136.545 150.279 136.169 150.217 135.793 150.156C135.542 150.115 135.417 150.094 135.186 149.931C135.061 149.91 134.936 149.89 134.83 149.747C134.705 149.727 134.725 149.605 134.6 149.584C134.264 149.278 134.054 148.993 133.863 148.586C133.673 148.179 133.608 147.792 133.669 147.427C133.749 146.939 133.77 146.817 133.83 146.451L134.52 143.056L135.776 136.246L138.432 122.524L138.557 122.544L138.537 122.666Z" fill="#112438"/>
<path d="M108.38 75.8736L124.707 72.9155L132.798 71.4871L136.907 70.7833C137.177 70.7024 137.699 70.6627 138.075 70.7245C138.451 70.7862 138.933 70.9905 139.288 71.1741C139.98 71.6635 140.361 72.4776 140.49 73.2506C140.6 74.1455 140.374 74.7348 140.273 75.3446L139.95 77.2961L139.284 81.3211L137.973 89.249L135.33 105.227L135.351 105.105C135.375 105.735 135.274 106.345 135.048 106.935C134.822 107.524 134.596 108.113 134.264 108.56C133.581 109.575 132.542 110.407 131.313 110.832L131.188 110.811L116.676 113.691L109.357 115.121L102.058 116.429L101.933 116.408C101.286 116.428 100.534 116.304 99.822 115.937C99.13 115.447 98.73 114.755 98.58 114.104C98.43 113.453 98.49 113.087 98.466 112.457C98.567 111.847 98.647 111.359 98.853 110.892L98.813 111.136C99.66 106.013 100.528 100.769 101.5 95.666C102.473 90.564 103.466 85.34 104.564 80.2586L104.815 80.2998C104.343 85.484 103.852 90.791 103.13 95.934C102.534 101.098 101.792 106.363 101.195 111.527L101.175 111.649L101.155 111.771C101.114 112.015 100.929 112.36 101.014 112.624C100.973 112.868 101.018 113.377 101.123 113.519C101.208 113.784 101.208 113.784 101.333 113.805C101.333 113.805 101.584 113.846 101.71 113.866L101.584 113.846L108.883 112.538L116.181 111.23L130.758 108.736L130.633 108.716C131.446 108.473 132.173 107.966 132.545 107.276C132.731 106.93 132.917 106.585 133.123 106.118C133.183 105.752 133.264 105.264 133.325 104.898L133.345 104.776L133.365 104.654L136.363 88.86L137.925 80.9728L138.716 76.9684L139.039 75.0169C139.14 74.407 139.386 73.6958 139.342 73.1873C139.297 72.6789 139.002 72.1293 138.666 71.8236C138.435 71.6605 138.185 71.6194 137.934 71.5783C137.683 71.5371 137.412 71.6179 137.016 71.6782L132.928 72.2601L124.732 73.5459L108.359 75.9956L108.38 75.8736Z" fill="#112438"/>
<path d="M90.903 119.202L77.3046 110.331L70.4329 105.946C69.1952 104.866 68.7384 105.292 68.0151 106.551C67.7889 107.141 67.5627 107.73 67.4618 108.34C67.361 108.95 67.3653 109.702 67.2645 110.312L64.9131 126.086C64.6149 128.668 64.1711 131.351 63.8729 133.933L63.3528 137.857C63.1511 139.076 63.3658 140.114 63.9969 140.969C64.3124 141.397 64.7534 141.845 65.2145 142.171L66.9537 143.333L70.3066 145.637L77.0328 150.124L83.7388 154.732L85.3526 155.874L86.1494 156.506L86.38 156.669C86.5053 156.689 86.6105 156.832 86.7359 156.852C86.8612 156.873 86.8613 156.873 86.9866 156.893C87.112 156.914 87.112 156.914 87.132 156.792C87.278 156.691 87.278 156.691 87.298 156.569L87.419 155.837C89.404 145.389 91.264 134.921 93.751 124.555L94.002 124.596C93.019 135.209 91.43 145.596 89.966 156.005L89.765 157.224C89.684 157.712 89.332 158.281 88.876 158.707C88.419 159.133 87.857 159.417 87.335 159.456C86.7935 159.618 86.1668 159.515 85.5602 159.29C85.3296 159.127 85.2043 159.107 84.9737 158.943L84.3873 158.597L83.5904 157.965L81.9766 156.823L75.4161 152.113L68.8557 147.404L65.5027 145.1L63.8888 143.958C63.3226 143.489 62.6511 142.878 62.2303 142.308C61.3038 140.903 61.0646 139.235 61.3067 137.771L61.8268 133.848C62.2504 131.287 62.6941 128.603 62.9924 126.022L65.7198 110.309C65.8207 109.699 65.7962 109.069 66.0426 108.357C66.1636 107.626 66.41 106.914 66.7615 106.346C66.9474 106 67.1131 105.777 67.4244 105.452C67.6102 105.107 68.0468 104.803 68.5684 104.763C68.9647 104.703 69.4862 104.663 69.9473 104.989C70.3032 105.173 70.5338 105.336 70.8695 105.642L77.5755 110.25L91.068 118.979L90.903 119.202Z" fill="#112438"/>
<path d="M82.9039 194.917L84.5809 181.663L85.4194 175.036C85.6571 172.82 85.8948 170.604 86.1325 168.388L86.1124 168.51C86.1282 167.636 85.8731 166.842 85.3674 166.007C84.8414 165.295 84.1902 164.561 83.4986 164.072C81.7594 162.91 80.1455 161.768 78.5519 160.504L68.9296 153.288L64.1084 149.74L63.5421 149.272C63.4167 149.251 63.3115 149.109 63.2913 149.231C63.166 149.21 63.0205 149.311 62.8548 149.535C62.6891 149.758 62.5234 149.981 62.4629 150.347L62.2208 151.811C61.5753 155.714 61.0552 159.637 60.5553 163.439C60.0352 167.362 59.5352 171.164 59.0151 175.087L58.6564 178.035L58.4144 179.498C58.3741 179.742 58.3337 179.986 58.3135 180.108C58.2732 180.352 58.253 180.474 58.338 180.738C58.3424 181.491 58.5974 182.284 59.1234 182.997C59.5239 183.689 60.1953 184.3 60.9922 184.932C61.6636 185.544 62.4604 186.175 63.2573 186.807L65.6477 188.703L70.2831 192.596L79.5942 200.137L79.4285 200.36C76.0352 198.3 72.6822 195.996 69.3293 193.692C67.7155 192.55 65.9763 191.388 64.3625 190.246L61.9518 188.472C61.155 187.84 60.3381 187.33 59.5412 186.699C58.7444 186.067 57.9677 185.313 57.2314 184.315C56.4951 183.317 56.0298 182.239 55.9808 180.978C55.8957 180.713 55.9562 180.348 55.9965 180.104C56.0369 179.86 55.9721 179.473 56.0124 179.229L56.1291 177.745L56.4878 174.797C57.0079 170.874 57.528 166.951 58.1735 163.048C58.819 159.145 59.4645 155.242 60.2353 151.36L60.4773 149.896C60.5782 149.286 60.9499 148.596 61.2813 148.149C61.7582 147.601 62.6112 147.115 63.4888 147.259C63.8648 147.32 64.346 147.525 64.5766 147.688L65.2683 148.177L70.0694 151.846L79.526 159.286C81.1196 160.55 82.7133 161.814 84.3271 162.955C85.2694 163.486 86.0259 164.362 86.6368 165.339C87.248 166.316 87.588 167.374 87.532 168.492C87.169 170.688 86.9309 172.904 86.5678 175.099L85.4786 181.685L83.4053 195L82.9039 194.917Z" fill="#112438"/>
<path d="M52.2173 174.717L52.0199 176.689C51.8139 177.156 51.628 177.502 51.2116 177.684C50.7952 177.866 50.2737 177.906 49.7924 177.701C48.8501 177.171 47.9078 176.641 46.9856 175.988L44.3647 173.929L39.2482 169.833L28.995 161.761L28.8898 161.618C28.1535 160.621 27.7083 159.42 27.6391 158.281C27.5699 157.143 27.6462 155.902 27.9531 154.825L27.933 154.947L31.2466 128.683L31.2264 128.805C31.1817 128.296 31.3878 127.829 31.614 127.24C31.82 126.772 32.2969 126.224 32.8588 125.941C33.4208 125.657 34.0878 125.516 34.6944 125.741C35.301 125.966 35.7622 126.292 36.2031 126.74L35.9725 126.577C39.2202 128.739 42.3022 131.123 45.2387 133.61L49.6636 137.217C51.152 138.338 52.6203 139.582 54.2341 140.723L54.1087 140.703C55.4069 141.417 56.3536 142.7 56.6533 144.002C57.0783 145.324 57.002 146.564 56.8003 147.784C56.3118 149.959 56.0742 152.175 55.5857 154.349C54.8596 158.74 54.1335 163.131 53.282 167.501L53.0313 167.46C53.256 162.987 53.5859 158.656 53.936 154.204C54.1737 151.988 54.2861 149.751 54.6491 147.556C54.8465 145.584 54.2716 143.611 52.848 142.876L52.7226 142.855C51.0887 141.836 49.4951 140.572 48.0067 139.451C46.5384 138.208 44.9247 137.066 43.4564 135.823C40.5199 133.336 37.5633 130.972 34.5865 128.73L34.4813 128.587L34.3761 128.445C34.2709 128.302 34.1456 128.282 34.0202 128.261C34.0202 128.261 33.8948 128.24 33.7695 128.22C33.6441 128.199 33.624 128.321 33.4784 128.423C33.4583 128.544 33.2926 128.768 33.3776 129.032L33.3574 129.154L29.2917 155.295L29.2716 155.417C28.9848 156.373 28.9286 157.491 28.9128 158.365C29.0021 159.382 29.3624 160.318 29.8682 161.153L29.7629 161.01L39.7049 169.406L44.6759 173.605L47.1513 175.765C47.9481 176.397 48.8904 176.927 49.8126 177.58C50.1887 177.641 50.5647 177.703 50.8558 177.5C51.1468 177.297 51.4379 177.095 51.6237 176.749L51.9464 174.798L52.2173 174.717Z" fill="#112438"/>
<path d="M29.3712 115.606C28.7891 116.011 28.2676 116.051 27.661 115.826C27.0544 115.601 26.7388 115.174 26.403 114.868L24.0328 112.85C22.4594 111.465 20.8658 110.201 19.1468 108.917C15.8343 106.369 12.5015 103.943 9.02317 101.618C8.58227 101.17 8.16157 100.6 7.84597 100.172C7.63557 99.887 7.42527 99.602 7.36037 99.215C7.27537 98.951 7.21058 98.564 7.12558 98.3C6.97568 97.649 6.82577 96.998 6.92667 96.388C6.90217 95.758 7.00297 95.148 6.97847 94.518C7.13117 92.037 7.38907 89.699 7.66717 87.239L9.29507 72.7243L9.62937 69.1463C9.73027 68.5364 9.72587 67.7841 10.3887 66.8906C10.7201 66.4439 11.5529 66.0795 12.1595 66.3043C12.7863 66.4072 13.1422 66.5909 13.498 66.7746C15.5931 68.1206 17.6881 69.4666 19.7832 70.8126C23.9934 73.3827 28.2036 75.9528 32.5392 78.5434C33.4614 79.1959 34.1775 80.3156 34.5175 81.3736C34.8576 82.4316 34.8014 83.55 34.64 84.526L34.6602 84.404C34.3418 87.107 33.9183 89.669 33.4745 92.352C33.0308 95.035 32.7325 97.617 32.2888 100.3L30.9979 108.106C30.3437 110.504 29.9 113.187 29.3712 115.606ZM29.1407 115.442C29.3337 112.718 29.5066 110.116 29.6997 107.391L30.3638 99.483C30.5367 96.881 30.8349 94.299 31.1331 91.717C31.4313 89.135 31.6042 86.533 31.9024 83.951L31.9226 83.829C32.0234 83.219 32.0191 82.4668 31.8491 81.9378C31.679 81.4088 31.3836 80.8592 30.7972 80.5124L30.9226 80.533C26.587 77.9424 22.3969 75.2504 18.3524 72.4569C16.2573 71.1109 14.1825 69.6429 12.233 68.1955C12.0025 68.0324 11.8772 68.0118 11.7518 67.9913C11.7518 67.9913 11.8973 67.8899 11.7518 67.9913C11.7518 67.9913 11.5861 68.2146 11.5457 68.4585C11.5054 68.7024 11.465 68.9464 11.4247 69.1903L10.9652 72.7478L9.08637 87.222C8.80837 89.682 8.42507 91.999 8.27237 94.479C7.86897 96.919 8.02757 99.074 9.91657 100.888L9.81127 100.745C13.2694 103.192 16.582 105.74 19.7491 108.389C21.3225 109.775 22.9161 111.039 24.4896 112.424L26.8396 114.564C27.1753 114.869 27.6162 115.318 27.9721 115.501C28.2228 115.542 28.4534 115.706 28.7243 115.625C28.7041 115.747 28.9952 115.544 29.1407 115.442Z" fill="#112438"/>
<path d="M35.0281 68.8203L35.9877 61.4614L36.8218 54.0819L38.3447 39.4243L38.3245 39.5463L38.2466 36.9028L38.3316 37.1672L37.13 35.0909L37.3403 35.376L16.7948 23.3603L17.6723 23.5043L16.4232 24.0509L17.0254 23.5234L16.3871 25.0472L16.4275 24.8033L14.8283 40.7011L13.9134 48.5685L12.8531 56.5372L12.7883 56.1507L13.2378 58.1036L13.0476 57.6966L13.9741 59.1014L13.6384 58.7957C17.4726 61.3041 21.1613 63.9138 24.8499 66.5236C26.6942 67.8284 28.5385 69.1333 30.5284 70.3367L31.9116 71.3154C32.3727 71.6417 32.8539 71.8459 33.2703 71.6637C33.8121 71.502 34.1233 71.1773 34.3294 70.7101C34.8466 69.918 34.9475 69.3082 35.0281 68.8203ZM35.2789 68.8615C35.178 69.4713 35.0974 69.9592 34.8712 70.5484C34.6449 71.1377 34.1882 71.5638 33.6465 71.7254C33.3756 71.8062 32.9793 71.8665 32.7286 71.8253C32.3525 71.7636 32.122 71.6005 31.8915 71.4374L30.3627 70.5601C28.3729 69.3566 26.3628 68.2752 24.4782 67.2142C20.4783 64.9292 16.5836 62.7867 12.5837 60.5017L12.3532 60.3386L12.1428 60.0535L11.091 58.6282L10.9858 58.4857L10.9008 58.2212L10.3258 56.2477L10.2207 56.1052L10.261 55.8613L11.1759 47.9939L12.2362 40.0251L14.3367 24.2096L14.3569 24.0876L14.3771 23.9657L15.0154 22.4419L15.2013 22.0965L15.6177 21.9144L16.8467 21.4897L17.2631 21.3075L17.619 21.4912L37.8129 34.0756L37.9181 34.2181L38.0233 34.3606L39.0996 36.4164L39.2048 36.5589L39.1846 36.6808L39.2423 39.4463L36.9674 53.9805L35.8825 61.3189L35.2789 68.8615Z" fill="#112438"/>
<path d="M64.6054 88.714L65.6053 81.1112L66.4797 73.4877L68.1236 58.0982L68.1035 58.2202L67.9204 55.4341L68.0054 55.6986L66.8239 53.5003L67.0342 53.7854L45.4412 41.0966L46.3187 41.2406L44.9441 41.7667L45.5464 41.2392L44.9081 42.763L44.9485 42.519L43.2283 59.1487L42.3581 67.5246L41.3626 75.8798L41.2977 75.4934L41.7271 77.5683L41.5369 77.1612L42.5686 78.7085L42.2329 78.4029C46.1723 81.0538 50.1116 83.705 54.0308 86.478C56.0005 87.803 57.95 89.25 59.9399 90.454L61.4485 91.453C61.9096 91.779 62.3908 91.984 62.9326 91.822C63.4744 91.66 63.9311 91.234 64.1371 90.767C64.2985 89.791 64.3993 89.181 64.6054 88.714ZM64.8561 88.755C64.7552 89.365 64.6746 89.853 64.4484 90.442C64.2222 91.031 63.7654 91.458 63.0781 91.721C62.8072 91.801 62.411 91.862 62.0349 91.8C61.6589 91.738 61.4283 91.575 61.1977 91.412L59.669 90.535C57.5538 89.311 55.5438 88.229 53.4285 87.005C49.3033 84.7 45.0527 82.3734 40.9476 79.9458L40.7171 79.7827L40.5067 79.4976L39.4549 78.0722L39.3496 77.9297L39.2647 77.6652L38.7099 75.5698L38.6047 75.4272L38.6451 75.1833L39.5152 66.8074L40.5108 58.4522L42.7323 41.9048L42.7525 41.7828L42.7727 41.6608L43.411 40.1371L43.5969 39.7917L44.0133 39.6095L45.3878 39.0835L45.8042 38.9013L46.1602 39.0849L67.4218 52.2204L67.527 52.363L67.6322 52.5055L68.8137 54.7038L68.9189 54.8463L68.8987 54.9683L68.9363 57.8557L66.5403 73.1218L65.4151 80.7041L64.8561 88.755Z" fill="#112438"/>
<path d="M62.141 103.712C62.1323 102.207 61.5817 100.863 60.7398 99.722C60.3189 99.152 59.7523 98.683 59.1656 98.336L57.3003 97.152L49.7339 92.276C47.1766 90.603 44.579 89.174 42.1875 87.278L40.488 85.871L39.5856 85.096C39.355 84.933 39.2497 84.79 39.1243 84.77C38.9989 84.749 38.8735 84.729 38.7279 84.83C38.5823 84.931 38.3964 85.277 38.2104 85.622C37.8587 86.191 37.6122 86.903 37.4912 87.635L37.2403 87.594C36.965 86.922 36.8554 86.027 37.1221 85.193C37.2028 84.705 37.2432 84.461 37.5747 84.014C37.7808 83.547 38.4886 83.161 39.1358 83.142C39.783 83.123 40.2646 83.328 40.746 83.532L41.6887 84.063L43.554 85.246C46.1315 86.797 48.3773 88.795 50.7688 90.691L57.9836 96.137L59.8086 97.564C60.5005 98.054 61.0468 98.645 61.4476 99.337C62.2491 100.722 62.634 102.289 62.3918 103.753L62.141 103.712Z" fill="#112438"/>
<path d="M61.5872 107.867L60.0151 121.265L59.1765 127.893L58.7572 131.206L58.4747 132.914C58.3739 133.524 58.4185 134.032 58.1721 134.744C57.9257 135.455 57.4286 136.125 56.4905 136.347C56.0942 136.407 55.698 136.467 55.2166 136.263C54.9659 136.222 54.8607 136.079 54.61 136.038L54.2742 135.733C53.3519 135.08 52.4297 134.428 51.5276 133.653C49.7033 132.226 47.8588 130.921 46.0143 129.616C42.3252 127.006 38.5108 124.376 34.6762 121.867L34.5711 121.725L34.4659 121.582C33.4788 120.543 33.0738 119.099 32.8995 117.817C32.8346 117.431 32.8749 117.187 32.8101 116.801C32.8303 116.679 32.8706 116.435 32.8908 116.313L32.9513 115.947L33.2337 114.239C33.5969 112.044 33.9802 109.726 34.3433 107.531C34.7064 105.335 35.215 103.038 35.5782 100.843C35.9413 98.647 36.45 96.35 36.9384 94.176L37.1892 94.217C37.0768 96.453 37.0696 98.833 36.8318 101.049C36.7195 103.285 36.5869 105.644 36.3491 107.86C36.1114 110.076 35.9789 112.435 35.7411 114.651L35.584 116.379L35.5235 116.745C35.5033 116.867 35.4832 116.989 35.463 117.111C35.4226 117.355 35.5077 117.619 35.4875 117.741C35.5971 118.636 35.9573 119.572 36.5034 120.163L36.293 119.878C40.1074 122.508 43.7763 125.24 47.425 128.094C49.2493 129.521 51.0737 130.948 52.7726 132.354C53.6747 133.129 54.5969 133.781 55.3938 134.413L55.7498 134.597C55.7498 134.597 55.8752 134.617 55.855 134.739C55.9804 134.76 56.2311 134.801 56.3564 134.821C56.4818 134.842 56.9185 134.538 56.979 134.172C57.1447 133.948 57.1404 133.196 57.221 132.708L57.5035 131.001L58.0482 127.707L59.1375 121.121L61.4618 107.847L61.5872 107.867Z" fill="#112438"/>
<path d="M97.663 75.1044L84.9718 67.7601L78.6261 64.0879L76.972 63.1901C76.7414 63.027 76.3855 62.8433 76.2601 62.8227C76.0094 62.7816 75.8841 62.761 75.7587 62.7404C75.3625 62.8007 75.0512 63.1255 74.8452 63.5927C74.6795 63.8161 74.6392 64.06 74.5988 64.3039L74.4576 65.1577C72.7791 74.5283 71.3312 84.062 70.4048 93.556L70.3847 93.678C70.3241 94.044 70.2435 94.532 70.183 94.898C70.2478 95.284 70.1671 95.772 70.3573 96.179C70.487 96.952 70.8876 97.644 71.5792 98.133L71.474 97.991C75.3284 100.377 78.9969 103.109 82.5603 105.698C86.1034 108.409 89.667 110.999 93.396 113.364L93.27 113.344C93.396 113.364 93.396 113.364 93.27 113.344C93.125 113.445 93.27 113.344 93.436 113.12C93.456 112.998 93.476 112.877 93.622 112.775L93.642 112.653L93.682 112.409L93.864 111.312L94.59 106.921C95.074 103.994 95.684 101.087 96.273 98.303L100.035 81.0058L100.286 81.0469C99.819 86.983 98.996 92.736 98.153 98.611C97.669 101.538 97.311 104.486 96.847 107.291L96.266 111.58L96.084 112.678L96.044 112.922C96.024 113.044 96.004 113.166 95.984 113.288C95.943 113.532 95.778 113.755 95.737 113.999C95.531 114.466 95.18 115.035 94.347 115.4C93.514 115.764 92.762 115.641 92.175 115.294L92.05 115.273C90.06 114.07 88.216 112.765 86.4968 111.48C84.6525 110.176 82.9537 108.769 81.2549 107.363C77.7117 104.652 74.314 101.839 70.585 99.474L70.4597 99.453C69.5577 98.679 68.9669 97.579 68.647 96.4C68.477 95.871 68.4525 95.24 68.5332 94.752C68.5087 94.122 68.5893 93.634 68.8155 93.045L68.7954 93.167C69.9926 83.592 71.5457 74.2006 73.6205 64.7697C73.7818 63.794 74.0844 61.9645 75.8351 61.5002C76.2313 61.44 76.7327 61.5222 77.0886 61.7059C77.4445 61.8896 77.6751 62.0528 77.9056 62.2159L79.4142 63.2151L85.5942 67.1106L98.08 74.9223L97.663 75.1044Z" fill="#112438"/>
<path d="M9.73356 109.111C11.7234 110.314 13.6728 111.762 15.4969 113.189L21.0945 117.49L26.6922 121.791C27.1532 122.117 27.6143 122.443 28.1805 122.912C28.6214 123.36 29.022 124.052 29.192 124.581C29.3418 125.232 29.3663 125.862 29.411 126.371C29.4355 127.001 29.46 127.632 29.3591 128.241L25.6337 155.44L25.6538 155.318C25.5732 155.806 25.4924 156.294 25.3066 156.639C25.1207 156.985 24.6439 157.533 23.9566 157.796C23.2895 157.937 22.6829 157.712 22.327 157.528C21.9711 157.345 21.6152 157.161 21.3847 156.998C20.232 156.182 19.2047 155.387 18.3028 154.613C16.2683 152.901 14.3391 151.332 12.3046 149.62C10.3955 147.928 8.36106 146.217 6.43176 144.647L5.76036 144.036C5.52986 143.873 5.29936 143.71 5.06876 143.547C4.94346 143.526 4.94336 143.526 4.96356 143.404L4.73306 143.241C4.50246 143.078 4.39726 142.935 4.16676 142.772C3.83106 142.467 3.51556 142.039 3.32536 141.632C2.94496 140.818 2.81526 140.045 2.81096 139.293C2.80656 138.54 2.80236 137.788 2.92336 137.056C3.00406 136.568 3.02416 136.446 3.06456 136.203C3.10486 135.959 3.14516 135.715 3.20576 135.349L3.38286 133.499C3.45916 132.259 3.68106 130.917 3.88276 129.697C4.30636 127.136 4.70976 124.697 5.13326 122.136C5.55686 119.575 6.08556 117.156 6.50916 114.595C6.71086 113.375 7.05806 112.054 7.25976 110.835C7.30016 110.591 7.23526 110.204 7.42116 109.859C7.48166 109.493 7.77266 109.29 8.08386 108.966C8.37486 108.763 8.77106 108.702 9.14716 108.764C9.12696 108.886 9.37766 108.927 9.73356 109.111ZM9.56786 109.334C8.98146 108.988 8.35476 108.885 7.91816 109.189C7.75246 109.412 7.58686 109.636 7.42116 109.859C7.38076 110.103 7.34046 110.347 7.40526 110.733L6.90536 114.535C6.62726 116.994 6.45446 119.597 6.30176 122.077L5.82356 129.64L5.59446 133.361L5.54266 135.231C5.48216 135.597 5.56716 135.862 5.50666 136.228C5.44616 136.593 5.36546 137.081 5.34526 137.203C5.18396 138.179 5.23296 139.44 5.63356 140.132C5.73876 140.274 5.84386 140.417 5.94906 140.559C6.07446 140.58 6.05426 140.702 6.17966 140.722L6.53546 140.906C6.89136 141.09 7.10176 141.375 7.45756 141.559L8.25436 142.19C10.2889 143.902 12.198 145.594 14.0869 147.407C15.996 149.098 17.8849 150.911 19.794 152.603C20.8213 153.398 21.7031 154.294 22.7505 154.967C22.9811 155.13 23.2116 155.293 23.4422 155.456C23.6727 155.619 23.8182 155.518 23.6727 155.619C23.6727 155.619 23.6526 155.741 23.6929 155.498C23.8586 155.274 23.8787 155.152 23.8989 155.03L28.3967 127.833C28.4975 127.223 28.5581 126.857 28.5336 126.227C28.5091 125.596 28.4643 125.088 28.4197 124.58C28.375 124.071 28.0595 123.644 27.7238 123.338C27.3881 123.032 26.8218 122.564 26.3608 122.237L21.0542 117.734C17.1553 114.839 13.5475 111.741 9.56786 109.334Z" fill="#112438"/>
<path d="M22.2181 17.0002L50.9437 11.5619C52.2585 11.4017 53.5978 11.8722 54.8318 12.2002L56.6728 12.7531C57.2797 12.9781 57.8866 13.203 58.3681 13.4074C60.6301 14.5309 62.6009 15.8572 64.7172 17.0821C66.8134 18.429 68.7841 19.7554 70.7549 21.0817C71.803 21.7552 72.7256 22.408 73.7939 22.9594C74.0245 23.1226 74.2552 23.2859 74.5061 23.3271C74.6315 23.3477 74.7367 23.4903 74.8621 23.5109C74.9876 23.5315 74.9875 23.5315 75.2182 23.6947C75.4691 23.7359 75.6997 23.8991 75.9304 24.0623C76.161 24.2255 76.3917 24.3887 76.4768 24.6534C76.7925 25.0813 76.9626 25.6107 76.8819 26.0988C76.781 26.709 76.5749 27.1766 76.2635 27.5016C75.9521 27.8265 75.661 28.0294 75.3698 28.2323C74.7873 28.6381 73.9743 28.8807 73.3068 29.0219L69.7388 29.5644L62.5826 30.7713L55.4264 31.9784L51.8584 32.5208L50.127 32.8634L49.3139 33.106C49.0429 33.1869 48.6465 33.2472 48.25 33.3074C46.9353 33.4677 45.41 33.3426 44.1558 33.1367C42.9217 32.8088 41.6877 32.4809 40.494 31.9089C39.8871 31.6839 39.2801 31.4589 38.6934 31.1119C38.568 31.0913 38.5882 30.9692 38.3373 30.9281L38.1066 30.7649L37.7708 30.459L37.0788 29.9694L34.2056 27.8681C33.1575 27.1947 32.2549 26.4198 31.2069 25.7463C30.1789 24.9508 29.2765 24.1759 28.3538 23.523C26.4032 22.0746 24.4326 20.7482 22.3162 19.5234L22.482 19.2999C24.7641 20.3013 26.9006 21.4041 29.017 22.629C30.065 23.3025 31.1131 23.976 32.0358 24.6288C33.0838 25.3023 34.0267 25.8331 35.0748 26.5066C36.1229 27.18 37.1912 27.7314 38.2393 28.4049L39.0566 28.9152L39.3926 29.221L39.6232 29.3842C39.6232 29.3842 39.6232 29.3842 39.7487 29.4048C40.2302 29.6092 40.7117 29.8136 41.3186 30.0386C43.5157 30.7753 45.8583 31.4106 47.8607 30.9872C48.1318 30.9063 48.3826 30.9475 48.6536 30.8666L49.5921 30.6446L51.4489 30.3227L55.0371 29.6581C57.4157 29.2965 59.7944 28.9347 62.2985 28.5937L69.5397 27.6514L73.2131 27.2515C73.6095 27.1912 74.1515 27.0295 74.4427 26.8266C74.5883 26.7251 74.8795 26.5223 75.0251 26.4208C75.1707 26.3193 75.1707 26.3193 75.1909 26.1973C75.1909 26.1973 75.2111 26.0752 75.1059 25.9326L75.0006 25.79L74.8752 25.7694C74.8752 25.7694 74.6243 25.7282 74.3936 25.565C74.1428 25.5238 74.0376 25.3812 73.9122 25.3606C73.5561 25.1768 73.3254 25.0136 73.0947 24.8504C72.0467 24.1769 70.9986 23.5034 70.0759 22.8506C68.1052 21.5242 66.1546 20.0758 64.0584 18.7289C62.0877 17.4026 59.9915 16.0556 57.9804 14.9734C57.5191 14.6469 56.9121 14.422 56.285 14.319L54.5897 13.6647C53.5012 13.2353 52.3926 12.9279 51.3488 13.0073L22.6592 17.4487L22.2181 17.0002Z" fill="#112438"/>
<path d="M62.1527 10.7935C66.9952 10.3348 71.8982 9.50999 76.6758 8.66459C79.0747 8.18089 81.4534 7.81929 83.8523 7.33559C84.5197 7.19439 85.0417 7.15469 85.5837 6.99299C86.2512 6.85189 86.7932 6.69009 87.441 6.67099C88.755 6.51079 90.03 6.59469 91.264 6.92259C92.498 7.25059 93.692 7.82259 94.78 8.25199C95.848 8.80339 97.042 9.37549 98.09 10.049C100.207 11.2739 102.323 12.4989 104.439 13.7239C106.556 14.9488 108.672 16.1737 110.829 17.1546C111.436 17.3796 111.897 17.7061 112.504 17.9311L112.86 18.1149C112.986 18.1354 113.111 18.1561 113.342 18.3193C113.823 18.5237 114.139 18.9516 114.329 19.359C114.52 19.7663 114.71 20.1735 114.589 20.9058C114.342 21.6175 113.78 21.9013 113.363 22.0837C112.53 22.4483 111.883 22.4674 111.341 22.6292L96.968 25.4093L89.791 26.7384C88.602 26.9192 87.267 27.2015 85.8469 27.2191C84.4268 27.2367 83.1928 26.9088 81.8333 26.5603C80.5992 26.2323 79.3853 25.7823 78.1916 25.2102C76.9979 24.6382 75.9498 23.9647 74.8815 23.4132C72.7651 22.1883 70.6891 20.7192 68.7385 19.2708L65.7397 17.1488C64.6916 16.4753 63.7689 15.8224 62.555 15.3724C61.9683 15.0254 61.507 14.699 60.9202 14.3519C60.4589 14.0255 59.8721 13.6784 59.4511 13.1078C59.2407 12.8225 59.0503 12.4152 59.2362 12.0697C59.4222 11.7241 59.7134 11.5212 60.0046 11.3183C60.9633 10.9742 61.5054 10.8126 62.1527 10.7935ZM62.1123 11.0375C61.5905 11.0772 60.9028 11.3404 60.466 11.6448C60.195 11.7256 60.0292 11.9491 59.9888 12.1932C59.9485 12.4373 60.0336 12.702 60.1388 12.8446C60.4545 13.2726 61.0412 13.6196 61.5228 13.824C61.9841 14.1505 62.5911 14.3755 63.1778 14.7225C63.6594 14.927 64.3918 15.1725 64.8733 15.3769C65.4802 15.6019 65.9415 15.9284 66.5283 16.2754L69.713 18.0518C71.8294 19.2768 73.966 20.3797 76.1025 21.4826C78.2391 22.5855 80.3958 23.5663 82.6333 24.059C83.7419 24.3664 84.8708 24.5517 85.8944 24.5943C87.043 24.6576 87.982 24.4356 89.317 24.1533L96.599 22.9669L111.162 20.594C111.829 20.4529 112.351 20.4132 112.622 20.3323C112.768 20.2309 112.768 20.2309 112.748 20.3529C112.728 20.475 112.748 20.3529 112.643 20.2103C112.537 20.0676 112.537 20.0676 112.432 19.925L111.72 19.5574C111.113 19.3324 110.652 19.0059 110.045 18.7809C107.783 17.6574 105.666 16.4325 103.57 15.0855C101.474 13.7385 99.357 12.5135 97.366 11.3092C96.318 10.6357 95.25 10.0842 94.182 9.53279C93.114 8.98129 92.045 8.42989 90.937 8.12249C89.828 7.81509 88.699 7.62979 87.51 7.81069C86.8625 7.82979 86.3204 7.99149 85.7986 8.03109C85.1311 8.17229 84.6092 8.21199 83.9417 8.35309C81.563 8.71479 79.0589 9.05589 76.5749 9.27489L62.1123 11.0375Z" fill="#112438"/>
<path d="M50.8346 34.1056C55.8024 33.6676 60.8106 32.9854 65.839 32.1813C68.3633 31.7181 70.8674 31.3771 73.2663 30.8934L77.0001 30.1274C78.2096 29.8246 79.3989 29.6437 80.6286 29.2188C81.3163 28.9556 82.0889 28.9571 82.8415 29.0806C83.594 29.2041 84.1606 29.6732 84.7676 29.8982C85.8358 30.4497 87.155 31.0423 88.163 31.9598C90.113 33.4082 92.355 34.6536 94.451 36.0006C98.789 38.593 103.127 41.1854 107.485 43.6558L107.716 43.819L107.821 43.9617C107.926 44.1043 108.011 44.369 108.222 44.6542C108.307 44.9189 108.352 45.4276 108.166 45.7732C107.96 46.2407 107.668 46.4437 107.397 46.5245C107.126 46.6054 106.855 46.6862 106.71 46.7877C106.188 46.8274 105.917 46.9082 105.646 46.9891L104.707 47.2112L100.848 47.9565L93.004 49.4267L85.1806 50.7748C82.5309 51.2174 80.0065 51.6805 77.377 52.001L77.5025 52.0216C76.022 52.4053 74.3712 52.2597 72.9267 51.6465C72.2145 51.2788 71.5023 50.9113 71.1664 50.6054L69.5316 49.585C68.4835 48.9115 67.31 48.2174 66.3022 47.2998C65.3997 46.5249 64.3719 45.7294 63.344 44.9339C59.2121 41.8739 55.04 39.058 50.5968 36.323L50.7222 36.3435C50.4713 36.3024 50.1153 36.1185 49.8846 35.9553C49.6539 35.7921 49.6092 35.2834 49.775 35.0599C49.625 34.4085 50.3127 34.1453 50.8346 34.1056ZM50.7942 34.3497C50.2724 34.3894 49.7302 34.5511 49.6495 35.0393C49.4434 35.5069 49.9047 35.8333 50.4064 35.9157C54.89 38.4066 59.3938 40.7755 63.837 43.5106C64.8851 44.184 66.0586 44.8781 67.0865 45.6736C68.0091 46.3265 69.2028 46.8985 70.2509 47.572C70.8377 47.919 71.4446 48.144 72.0314 48.491C72.6181 48.8381 73.0794 49.1645 73.5609 49.3689C74.524 49.7777 75.5475 49.8203 76.486 49.5983C79.1357 49.1558 81.66 48.6927 84.3097 48.2502L92.239 47.0447L100.168 45.8392L104.132 45.2364L105.05 45.1364C105.321 45.0556 105.718 44.9953 105.969 45.0364C106.22 45.0776 106.26 44.8335 106.094 45.057C106.074 45.1791 106.054 45.3011 106.054 45.3011C106.054 45.3011 106.074 45.179 105.948 45.1584L106.284 45.4643C101.946 42.8719 97.629 40.1574 93.436 37.4636C91.34 36.1166 89.244 34.7697 87.063 33.1581C86.1603 32.3832 85.092 31.8318 83.8983 31.2598C83.3115 30.9128 82.83 30.7084 82.3485 30.504C81.8468 30.4216 81.3451 30.3393 80.8031 30.501C79.5734 30.9259 78.2586 31.0862 77.0491 31.389C75.8598 31.5699 74.545 31.73 73.3556 31.9109L65.8636 32.8121L58.3714 33.7132C55.9077 33.8102 53.3834 34.2733 50.7942 34.3497Z" fill="#112438"/>
<path d="M91.229 27.4731L98.596 26.5513L105.983 25.5075L113.39 24.3417C114.579 24.1608 115.769 23.98 117.209 23.8403C118.503 23.8021 119.883 24.0287 121.117 24.3566C122.371 24.5625 123.606 24.8905 124.799 25.4626C125.993 26.0347 127.187 26.6067 128.235 27.2803L134.71 30.9758L141.184 34.6714L144.474 36.5906C144.83 36.7744 145.166 37.0803 145.587 37.6509C145.693 37.7935 145.652 38.0376 145.757 38.1802C145.737 38.3023 145.717 38.4243 145.697 38.5464C145.677 38.6684 145.656 38.7905 145.511 38.892C145.325 39.2375 145.179 39.339 145.034 39.4405C144.431 39.9684 143.869 40.2521 143.056 40.4947L142.93 40.4741C138.82 41.1784 134.856 41.7811 130.766 42.3633L124.693 43.2468C122.711 43.5482 120.603 43.829 118.747 44.151L118.621 44.1304L118.496 44.1098C117.598 44.0877 116.428 44.1466 115.299 43.9612C114.422 43.8171 113.398 43.7744 112.289 43.467C110.177 42.9949 108.251 42.1772 106.531 40.8919L106.657 40.9125C103.848 39.1978 101.06 37.3611 98.251 35.6464C95.443 33.9317 92.655 32.0949 89.846 30.3802C89.49 30.1964 89.009 29.992 88.818 29.5847C88.733 29.32 88.648 29.0552 88.814 28.8317C88.854 28.5876 89 28.4862 89.166 28.2626C89.497 27.8156 90.31 27.5731 91.229 27.4731ZM91.188 27.7171C90.395 27.8377 89.708 28.1009 89.231 28.6494C88.919 28.9743 88.879 29.2185 88.964 29.4832C89.174 29.7684 89.405 29.9317 89.781 29.9934C92.735 31.6067 95.604 32.9553 98.579 34.4465C101.553 35.9377 104.527 37.4289 107.376 38.8995L107.501 38.9201C109.011 39.9201 110.706 40.5745 112.462 40.8627C113.34 41.0069 114.218 41.151 115.347 41.3363C116.225 41.4805 116.998 41.482 118.041 41.4026L117.791 41.3614C119.918 40.9586 121.881 40.7793 123.988 40.4985L130.04 39.7369C134.11 39.2768 138.18 38.8167 142.145 38.2139L142.019 38.1933C142.416 38.133 142.978 37.8492 143.289 37.5243C143.435 37.4228 143.435 37.4228 143.435 37.4228C143.435 37.4228 143.435 37.4228 143.415 37.5449C143.394 37.6669 143.394 37.667 143.394 37.667L143.374 37.789C143.374 37.789 143.269 37.6464 143.144 37.6258L139.979 35.7272L133.545 31.7875L127.11 27.8478C126.062 27.1743 124.994 26.6228 123.926 26.0713C122.857 25.5199 121.729 25.3345 120.494 25.0065C119.26 24.6786 118.152 24.3712 116.983 24.43C115.813 24.4888 114.624 24.6697 113.309 24.8299L105.837 25.609L98.365 26.388L91.188 27.7171Z" fill="#112438"/>
<path d="M79.3074 54.4341C79.267 54.6783 79.332 55.0651 79.5627 55.2284C79.7934 55.3917 80.024 55.555 80.3801 55.7389L81.1977 56.2493L81.4284 56.4125C81.4284 56.4125 81.5538 56.4331 81.6793 56.4537L82.1608 56.6582C83.3344 57.3525 84.5081 58.0468 85.6817 58.7411C88.029 60.1297 90.231 61.6198 92.558 63.1305L99.288 67.6214L102.643 69.9278C103.566 70.5809 104.8 70.909 105.95 70.9724C106.597 70.9533 107.119 70.9136 107.766 70.8945C108.288 70.8549 108.976 70.5916 109.643 70.4504L113.648 69.6035C116.318 69.0389 118.989 68.4743 121.618 68.1539C126.918 67.2688 132.323 66.5264 137.773 66.2929L137.858 66.5577C132.688 68.2164 127.453 69.4883 122.238 70.6381C119.568 71.2027 116.918 71.6453 114.269 72.0878L110.304 72.6905C109.636 72.8317 108.969 72.9729 108.196 72.9713C107.403 73.0919 106.63 73.0903 105.878 72.9667C104.352 72.8416 102.887 72.3502 101.629 71.3912L98.419 68.9832L92 64.1674C89.818 62.5552 87.637 60.9431 85.4353 59.453C84.2818 58.6366 83.2335 57.9629 82.0599 57.2686L81.5784 57.0641C81.453 57.0435 81.4529 57.0435 81.3477 56.9009L81.117 56.7375L80.2994 56.2271C80.0687 56.0638 79.7127 55.88 79.5022 55.5947C79.2916 55.3093 79.2267 54.9224 79.2872 54.5562L79.3074 54.4341Z" fill="#112438"/>
<path d="M136.208 64.0477L123.192 56.2669L116.757 52.3257C115.709 51.652 114.41 50.937 113.697 50.5692C113.341 50.3853 112.568 50.3838 112.067 50.3014C111.44 50.1983 110.812 50.0953 110.29 50.135C109.247 50.2143 107.912 50.4966 106.722 50.6775L102.988 51.4434C100.463 51.9066 98.064 52.3903 95.58 52.6093C90.572 53.2914 85.6033 53.7293 80.4244 53.8818L80.3393 53.617C85.2181 52.1612 90.162 51.0923 95.085 50.1454C97.61 49.6823 100.114 49.3412 102.619 49.0002L106.438 48.499L108.275 48.2991C108.797 48.2594 109.59 48.1389 110.362 48.1404C110.739 48.2022 111.115 48.264 111.366 48.3053L112.369 48.4701C112.997 48.5731 113.624 48.6761 114.356 48.9218C115.068 49.2896 115.635 49.7589 116.222 50.1061L117.732 51.1064L124.001 55.2711L136.248 63.8035L136.208 64.0477Z" fill="#112438"/>
<path d="M119.574 47.7948C119.424 47.1433 119.901 46.5948 120.338 46.2905C120.9 46.0067 121.317 45.8244 121.984 45.6833L125.407 45.2422C127.66 44.8599 130.039 44.4983 132.292 44.116L146.063 41.8637C147.462 41.9682 148.757 41.93 150.157 42.0344C151.557 42.1389 152.916 42.4874 154.255 42.958C155.595 43.4286 156.768 44.1227 157.962 44.6948L161.503 46.655C166.237 49.1873 170.806 51.943 175.52 54.5974C175.982 54.9238 176.443 55.2503 176.949 56.0855C177.054 56.2281 177.139 56.4928 177.204 56.8795C177.184 57.0016 177.144 57.2457 177.124 57.3678C177.083 57.6119 176.917 57.8354 176.792 57.8148C176.481 58.1398 176.21 58.2206 176.044 58.4441C175.607 58.7485 175.025 59.1543 174.357 59.2955C173.815 59.4572 173.148 59.5983 172.5 59.6174L172.626 59.638L160.963 61.6095C157.124 62.2329 153.159 62.8356 149.32 63.459L149.195 63.4384C147.795 63.334 146.355 63.4736 144.87 63.1045C143.49 62.878 142.151 62.4074 140.832 61.8147C138.299 60.7721 135.846 59.2413 133.79 57.6502C129.553 54.4474 125.15 51.4681 120.582 48.7123C120.331 48.6712 119.744 48.3241 119.574 47.7948ZM119.845 47.7139C119.91 48.1006 120.371 48.427 120.873 48.5094C125.462 51.1431 130.216 53.5534 134.89 56.4518C137.092 57.9414 139.499 58.9635 141.802 59.8429C143.016 60.2929 144.25 60.6209 145.504 60.8268C146.758 61.0327 147.927 60.9738 149.202 61.0577L149.076 61.0371C152.915 60.4138 156.88 59.811 160.719 59.1876L172.467 57.4809L172.592 57.5014L172.718 57.522C173.094 57.5838 173.491 57.5235 173.907 57.3412C174.304 57.2809 174.595 57.078 175.032 56.7736L175.469 56.4693C175.469 56.4693 175.448 56.5913 175.303 56.6928C175.283 56.8148 175.283 56.8148 175.283 56.8148C175.262 56.9368 175.262 56.9368 175.283 56.8148C175.177 56.6722 174.862 56.2442 174.505 56.0604L174.631 56.081C170.062 53.3252 165.493 50.5695 160.925 47.8137L157.509 45.8741C156.336 45.18 155.142 44.6079 154.054 44.1785C151.646 43.1564 148.952 43.0902 146.403 42.9225L146.528 42.9431L132.733 44.5645C130.375 44.8041 128.141 45.0644 125.763 45.426L122.34 45.8671C121.798 46.0288 121.256 46.1905 120.819 46.4949C120.132 46.7581 119.8 47.2051 119.845 47.7139Z" fill="#112438"/>
<path d="M157.289 40.2215C157.746 39.7951 158.268 39.7554 158.81 39.5937C159.352 39.432 159.874 39.3923 160.416 39.2305L163.608 38.6263C165.736 38.2234 167.863 37.8206 169.991 37.4178L182.653 34.8581C183.426 34.8596 184.073 34.8405 184.846 34.842C185.599 34.9656 186.351 35.0891 186.958 35.3141C188.423 35.8053 189.616 36.3774 190.936 36.97C193.448 38.1347 195.941 39.4214 198.559 40.7287C203.545 43.3022 208.53 45.8756 213.515 48.449L213.264 48.4079C213.641 48.4696 213.871 48.6329 214.082 48.9182C214.292 49.2035 214.503 49.4887 214.568 49.8754C214.653 50.1401 214.592 50.5063 214.406 50.8518C214.2 51.3194 213.929 51.4003 213.638 51.6032C213.492 51.7046 213.367 51.6841 213.221 51.7855C213.076 51.887 213.076 51.887 212.95 51.8664L212.554 51.9267L211.615 52.1487L207.902 52.7926L200.474 54.0805L193.047 55.3684C190.523 55.8315 188.018 56.1726 185.514 56.5136L185.64 56.5342C184.847 56.6548 184.054 56.7753 183.176 56.6311C182.423 56.5076 181.691 56.2621 180.959 56.0165C179.619 55.5459 178.361 54.5871 177.313 53.9136C175.091 52.546 172.89 51.0564 170.668 49.6888C166.245 46.8315 161.947 43.9949 157.378 41.2391C157.128 41.1979 156.897 41.0347 156.686 40.7494C156.957 40.6686 157.123 40.445 157.289 40.2215ZM157.394 40.3642C157.249 40.4656 157.208 40.7097 157.313 40.8524C157.419 40.995 157.524 41.1376 157.775 41.1788C162.364 43.8125 166.993 46.2022 171.748 48.6124C174.115 49.8786 176.502 51.0226 178.744 52.2682C179.938 52.8402 180.861 53.4931 182.074 53.9431C183.163 54.3725 184.166 54.5373 185.125 54.1932C187.649 53.7301 190.028 53.3685 192.552 52.9054L199.96 51.7395L207.367 50.5736L211.06 50.0518L212.646 49.8107C212.646 49.8107 212.666 49.6887 212.626 49.9328C212.606 50.0548 212.606 50.0548 212.606 50.0548C212.606 50.0548 212.586 50.1768 212.711 50.1974L212.46 50.1562C207.495 47.4607 202.655 44.7858 197.69 42.0903C195.197 40.8035 192.725 39.3948 190.212 38.2301C188.893 37.6375 187.719 36.9434 186.505 36.4934C185.898 36.2684 185.146 36.1449 184.519 36.0419C183.892 35.9389 183.119 35.9375 182.472 35.9566L182.597 35.9772L169.785 37.8854C167.677 38.1662 165.55 38.569 163.442 38.8498L160.25 39.4541C159.728 39.4938 159.186 39.6555 158.644 39.8172C158.353 40.0201 157.706 40.0392 157.394 40.3642Z" fill="#112438"/>
<path d="M97.794 5.6379C97.754 5.882 97.859 6.0247 98.07 6.31C98.3 6.4732 98.511 6.7585 98.742 6.9217C99.203 7.2482 99.664 7.5746 100.251 7.9217C101.319 8.4732 102.388 9.0246 103.331 9.5555C105.467 10.6585 107.624 11.6394 109.635 12.7217C111.772 13.8246 113.888 15.0496 115.713 16.4775C117.559 17.7834 119.736 18.6422 122.013 18.8908C123.142 19.0761 124.311 19.0173 125.375 18.8159C125.917 18.6542 126.439 18.6145 126.981 18.4527C127.523 18.291 128.191 18.1499 128.733 17.9882C131.006 17.4839 133.405 17.0002 135.784 16.6385C140.436 15.7725 145.194 15.0492 149.826 14.3053L149.082 15.6875L148.426 14.2008L148.867 14.6493L135.651 8.092C133.389 6.9685 131.253 5.8655 129.116 4.7626C127.922 4.1905 127.105 3.6802 125.996 3.3729C125.013 3.0861 123.864 3.0228 122.82 3.1022L122.946 3.1228C120.818 3.5256 118.835 3.8271 116.728 4.1079C114.62 4.3887 112.512 4.6694 110.425 4.8281C108.337 4.9869 106.25 5.1456 104.037 5.2838C102.993 5.3632 101.969 5.3205 100.8 5.3793C100.278 5.4189 99.777 5.3366 99.255 5.3763C98.628 5.2733 97.98 5.2924 97.794 5.6379ZM97.544 5.5968C97.73 5.2512 98.001 5.1703 98.272 5.0895C98.543 5.0086 98.793 5.0498 99.064 4.969C99.586 4.9293 100.108 4.8896 100.61 4.9719C101.654 4.8926 102.698 4.8132 103.741 4.7338C105.829 4.575 107.831 4.1517 109.959 3.7488C111.962 3.3254 114.089 2.9225 116.112 2.377L122.16 0.862602L122.285 0.883201C123.6 0.723001 125.02 0.705402 126.379 1.054C127.759 1.2805 129.058 1.9952 130.126 2.5467C132.389 3.6702 134.525 4.7731 136.642 5.9981L149.651 13.023L150.007 13.2068L150.092 13.4715L150.749 14.9582L151.194 16.1596L149.879 16.3198C145.142 16.9211 140.53 17.543 135.773 18.2663C133.394 18.628 131.141 19.0102 128.742 19.4939C128.2 19.6556 127.552 19.6747 127.01 19.8364C126.468 19.9982 125.801 20.1393 125.153 20.1584C123.964 20.3392 122.67 20.3774 121.415 20.1715C118.907 19.7597 116.625 18.7582 114.694 17.1877C112.889 15.6377 111.044 14.3319 108.927 13.1069C106.936 11.9025 104.8 10.7996 102.663 9.6967C101.595 9.1452 100.527 8.5938 99.604 7.9408C99.142 7.6144 98.535 7.3893 98.094 6.9408C97.864 6.7776 97.633 6.6144 97.423 6.3291C97.694 6.2482 97.358 5.9423 97.544 5.5968Z" fill="#112438"/>
<path d="M126.753 23.8035L139.763 30.8286L146.258 34.4022L149.443 36.1787C150.511 36.7302 151.64 36.9154 152.684 36.8361C153.853 36.7773 155.168 36.6171 156.232 36.4156C156.774 36.2539 157.316 36.0922 157.858 35.9305C158.4 35.7687 159.088 35.5055 159.63 35.3438C162.049 34.738 164.448 34.2542 166.952 33.9132C171.855 33.0884 176.718 32.5077 181.601 31.805L180.816 33.4314L180.205 32.4534L180.666 32.7799L169.397 26.9181C165.605 24.9166 161.939 22.9357 158.147 20.9342L158.398 20.9754C156.452 20.2797 154.299 20.0517 152.086 20.1898C151.564 20.2295 151.042 20.2692 150.5 20.431L148.769 20.7735C147.58 20.9544 146.536 21.0337 145.346 21.2146C140.755 21.7144 136.203 21.9701 131.672 22.1038L131.587 21.839L138.347 20.6923C140.6 20.31 142.854 19.9278 145.107 19.5455L148.445 18.8398L150.051 18.4767C150.593 18.3149 151.26 18.1738 151.782 18.1341C154.161 17.7724 156.689 18.0622 159.032 18.6975L159.158 18.7181L159.283 18.7387C163.075 20.7402 166.761 22.599 170.533 24.7226L181.616 30.93L181.847 31.0933L181.932 31.3579L182.543 32.3359L183.471 33.7417L181.779 33.8401C176.937 34.2988 171.949 34.8589 167.066 35.5617C164.687 35.9233 162.183 36.2644 159.909 36.7687C159.242 36.9098 158.825 37.0922 158.158 37.2333C157.616 37.3951 156.928 37.6583 156.281 37.6773C154.966 37.8376 153.777 38.0184 152.482 38.0566C151.187 38.0948 149.808 37.8683 148.634 37.1741L145.344 35.255L139.015 31.4579L126.337 23.9858L126.753 23.8035Z" fill="#112438"/>
<path d="M20.4447 17.188C18.6941 17.6524 17.0084 18.5032 16.0993 20.1077C15.5821 20.8997 15.441 21.7534 15.4251 22.6277L15.1067 25.3314L13.9788 36.0449L11.743 57.3497L11.7632 57.2277C11.8929 58.0006 12.1479 58.7942 12.694 59.3849C13.0297 59.6905 13.2602 59.8536 13.8466 60.2004C13.9518 60.3429 14.1823 60.506 14.1218 60.8719C14.0613 61.2378 13.7703 61.4405 13.6248 61.5419C13.3337 61.7447 13.083 61.7035 12.9375 61.8049C11.3325 62.1679 11.0098 64.1192 10.8528 65.8472C10.3932 69.4047 9.91345 73.0841 9.57925 76.6621C8.76535 83.919 8.07685 91.197 7.40845 98.353L7.42855 98.231C7.56265 99.757 8.36365 101.141 9.51635 101.956L9.27435 103.42C8.06545 103.723 7.15205 104.575 6.69965 105.753C6.47345 106.343 6.49795 106.973 6.37695 107.705L6.13925 109.921L5.20865 118.662L3.22205 136.124L2.98435 138.34C2.88355 138.95 2.90805 139.58 3.07805 140.109C3.24815 140.638 3.54345 141.188 3.85905 141.616C4.06935 141.901 4.17455 142.043 4.53045 142.227L5.45255 142.879L12.5182 148.423C17.1937 152.072 21.849 155.842 26.5244 159.491C35.8551 166.91 45.0403 174.431 54.3509 181.972C63.5159 189.614 72.7012 197.135 81.846 204.899L81.6803 205.122C72.0384 198.028 62.5622 190.71 53.1911 183.535C43.7149 176.217 34.364 168.92 25.0333 161.501C20.3578 157.853 15.7025 154.082 11.0473 150.312L4.12705 144.666L3.20495 144.014C2.84905 143.83 2.53345 143.402 2.19775 143.097C1.54655 142.363 1.16615 141.549 0.931246 140.634C0.696446 139.718 0.712346 138.844 0.833346 138.112L1.07095 135.897L3.30825 118.475L4.36415 109.754L4.60195 107.539C4.72295 106.807 4.71855 106.055 4.98515 105.221C5.25165 104.388 5.76885 103.596 6.37115 103.069C6.99355 102.419 7.82625 102.055 8.63885 101.812L8.39685 103.276C6.92865 102.033 5.81195 100.221 5.73845 98.33L5.75865 98.208L5.77885 98.086C6.59275 90.829 7.40665 83.571 8.34595 76.3344C8.80555 72.7769 9.28525 69.0976 9.76495 65.4182C9.90615 64.5645 10.0675 63.5888 10.4795 62.6542C10.6856 62.187 10.8916 61.7197 11.3483 61.2936C11.805 60.8675 12.2416 60.5633 12.7632 60.5236C13.034 60.4428 13.3048 60.362 13.3048 60.362C13.3048 60.362 13.3049 60.362 13.2847 60.484C13.2645 60.6059 13.3899 60.6265 13.2645 60.6059C13.034 60.4428 12.573 60.1166 12.2373 59.8109C11.4607 59.0571 10.9953 57.9786 11.0313 56.9824L13.6431 35.7392L15.0217 25.0669L15.3401 22.3632C15.3559 21.4889 15.6426 20.5338 16.1598 19.7418C17.1943 18.1578 18.9002 17.1851 20.7559 16.8633L20.4447 17.188Z" fill="#112438"/>
<path d="M214.712 51.3918C216.221 52.391 217.668 53.7559 218.283 55.4853C218.518 56.4006 218.502 57.2748 218.341 58.2504C218.2 59.104 217.934 59.937 217.772 60.9126C217.062 64.4284 216.478 67.9649 215.893 71.5013L212.406 92.598C212.119 93.553 211.331 94.425 210.353 94.891C209.937 95.073 209.396 95.235 209.105 95.438C209.105 95.438 209.105 95.438 209.125 95.316C209.145 95.194 209.04 95.051 209.145 95.194C209.27 95.214 209.501 95.377 209.606 95.52C210.067 95.846 210.528 96.172 210.698 96.701C210.993 97.251 211.038 97.759 211.082 98.267C211.172 99.284 211.011 100.26 210.869 101.113C210.39 104.792 209.68 108.308 209.075 111.967C207.886 119.161 206.571 126.335 205.131 133.489L205.111 133.611L205.091 133.733C204.413 135.5 202.898 136.88 201.107 137.588L201.224 136.104C202.166 136.635 202.922 137.51 203.387 138.589C203.853 139.667 203.797 140.785 203.635 141.761L202.728 147.248L200.789 158.203L198.974 169.178L198.067 174.665C197.926 175.519 197.725 176.738 197.042 177.754C196.359 178.769 195.466 179.499 194.363 179.944L194.092 180.025C194.092 180.025 194.092 180.025 194.238 179.924C194.403 179.7 194.238 179.924 194.569 179.477C194.88 179.152 194.395 178.196 194.144 178.155C194.039 178.012 193.788 177.971 193.788 177.971L193.663 177.95C193.538 177.93 193.663 177.95 193.663 177.95L193.788 177.971C193.914 177.991 193.788 177.971 194.039 178.012C193.808 177.849 195.146 178.319 194.82 179.518C194.282 180.432 194.488 179.965 194.323 180.188L194.177 180.289L194.032 180.391L193.886 180.492L193.741 180.594L193.345 180.654L191.991 181.058L189.283 181.866L183.762 183.339C180.012 184.226 176.386 185.134 172.636 186.021C165.28 187.694 157.799 189.347 150.253 190.613L150.168 190.349C157.394 187.903 164.685 185.843 171.976 183.784C175.621 182.754 179.267 181.724 183.017 180.837L188.518 179.485L191.331 178.82L192.685 178.416L192.956 178.335L193.101 178.234C192.936 178.457 193.162 177.868 192.604 178.904C192.298 179.981 193.616 180.573 193.405 180.288C193.531 180.308 193.531 180.308 193.531 180.308L193.405 180.288L193.28 180.267C193.28 180.267 193.029 180.226 192.924 180.084C192.674 180.043 192.168 179.208 192.374 178.741C192.6 178.152 192.56 178.396 192.725 178.172C193.016 177.969 193.016 177.969 193.016 177.969C193.287 177.889 193.287 177.889 193.432 177.787C194.827 177.139 195.655 176.023 195.812 174.295L196.844 168.828L198.909 157.894L200.974 146.96L202.006 141.493C202.147 140.64 202.143 139.887 201.868 139.216C201.593 138.544 201.047 137.954 200.355 137.465L200.472 135.981C201.846 135.455 203.05 134.4 203.668 132.998L203.648 133.12C205.088 125.967 206.528 118.813 207.842 111.639C208.552 108.123 209.157 104.465 209.742 100.928C210.024 99.221 210.346 97.27 208.943 96.413C208.713 96.25 208.588 96.23 208.252 95.924C208.147 95.781 207.937 95.496 207.997 95.13C208.058 94.765 208.348 94.562 208.474 94.582C209.036 94.299 209.432 94.239 209.848 94.057C210.555 93.672 211.032 93.124 211.423 92.311L211.403 92.433L215.267 71.3984C215.977 67.8826 216.561 64.3461 217.271 60.8303C217.553 59.1231 218.357 57.3762 217.867 55.6674C217.503 53.9793 216.055 52.6143 214.547 51.6152L214.712 51.3918Z" fill="#112438"/>
</svg>
