<svg width="239" height="204" viewBox="0 0 239 204" fill="none" xmlns="http://www.w3.org/2000/svg">
<path d="M91.3339 3.0233C93.7259 2.2858 96.1169 1.5482 98.5789 0.789001C103.185 1.2353 110.014 1.8923 118.362 2.9769C122.849 3.5347 125.114 3.8818 127.723 4.3467C136.402 6.0015 137.611 7.4209 148.153 10.368C159.181 13.3895 164.68 14.9792 168.682 15.4627C171.502 15.8625 173.45 15.9337 175.448 17.4088C179.442 20.359 178.597 25.1004 182.796 27.4649C184.554 28.4163 184.786 27.6726 187.522 28.5465C192.74 30.223 192.901 33.2352 199.526 38.2121C203.949 41.5527 205.236 41.2304 207.24 43.973C208.731 46.0524 208.829 47.3663 210.819 49.8145C212.83 52.3308 214.835 53.5797 216.199 54.5032C217.563 55.4267 224.631 60.3416 228.582 67.637C231.655 73.335 232.006 79.202 232.237 82.192C232.413 84.752 232.3 86.878 232.159 88.415C234.1 90.206 236.744 93.274 237.883 97.702C238.586 100.473 238.494 102.667 238.248 105.357C236.564 125.816 236.261 128.075 234.847 131.722C233.454 135.438 232.624 137.486 230.802 140.065C227.531 144.434 224.38 145.705 222.065 150.675C221.095 152.767 220.813 154.348 220.525 155.408C219.462 159.693 216.184 165.783 206.308 173.459C204.795 178.78 202.355 181.101 200.392 182.229C197.058 184.153 193.289 183.673 190.89 186.877C190.236 187.751 189.954 188.585 188.738 189.632C187.021 191.058 185.931 191.02 185.031 192.344C184.25 193.555 184.784 194.287 184.334 195.322C183.553 197.28 180.768 197.99 177.568 198.603C171.822 199.703 168.108 200.401 162.475 200.122C160.991 200.057 156.961 199.731 151.918 198.374C148.05 197.327 146.046 196.824 143.697 195.458C141.988 194.417 141.222 193.682 139.316 193C137.34 192.34 136.77 192.74 133.528 192.47C129.266 192.142 125.468 191.82 123.802 189.421C123.288 188.758 122.88 187.689 122.437 187.751C121.994 187.813 122.05 188.99 121.509 189.979C120.58 191.46 118.505 191.727 117.106 191.934C113.048 192.514 107.26 191.237 106.149 188.144C105.868 187.484 105.847 186.669 105.207 186.344C104.313 185.947 103.533 187.159 101.802 187.543C99.4879 188.033 96.9569 186.573 95.5779 185.355C94.2919 184.184 94.2709 183.369 93.2789 183.152C91.8229 182.929 91.2109 184.686 89.7479 184.689C87.2869 184.701 86.0489 179.706 84.4389 179.978C83.7144 180.127 83.9393 181.103 83.039 181.68C81.0485 182.966 78.2639 179.194 73.1579 179.126C70.9988 179.12 70.4923 179.724 69.3249 179.188C67.405 178.212 67.6163 175.906 65.3237 174.971C64.1774 174.503 63.9311 174.952 62.9255 174.441C61.2377 173.468 61.681 171.912 60.0002 170.713C58.8891 169.86 58.5444 170.489 56.9692 169.631C55.5556 168.797 55.5066 168.14 53.6079 166.486C53.1789 166.095 52.4967 165.633 51.1113 164.642C48.1577 162.565 47.0818 162.076 46.9765 160.988C46.8641 160.127 47.5182 160 47.3776 159.296C46.984 157.775 43.8823 158.208 43.1441 156.569C42.448 155.066 44.4315 153.259 43.6228 152.389C43.0181 151.679 41.6184 152.633 40.1274 152.048C38.6365 151.462 38.039 149.779 37.5399 147.917C36.1129 143.055 35.445 140.647 35.354 137.613C35.3197 131.276 37.4515 126.212 38.978 123.426C38.0215 123.572 36.6711 123.689 35.0042 123.531C31.2557 123.119 28.8014 121.412 25.5243 119.286C16.2626 113.255 16.6634 114.55 14.4342 112.325C11.5089 109.344 10.2504 106.521 8.23245 101.99C6.71375 98.575 4.63265 93.84 4.22565 87.543C4.11325 85.935 4.28955 82.52 4.59295 75.78C4.81855 71.528 4.93135 69.402 5.02995 68.476C5.99465 59.8884 6.50885 54.5768 10.3493 50.5544C12.7269 48.0288 15.6459 46.7551 15.8291 43.8607C15.8996 42.3454 15.119 42.0634 15.281 40.5945C15.5346 37.6784 18.5659 37.2662 22.2518 32.9928C25.3609 29.3454 25.3119 27.1947 27.7947 26.5037C29.5741 26.0295 30.8751 26.7485 32.0427 25.7909C33.1893 24.7652 32.4157 23.5101 33.07 21.8894C34.1816 19.0074 37.9303 19.4195 44.6543 16.0014C48.2414 14.1483 47.7914 13.6897 51.3011 12.0844C54.5998 10.5443 55.6196 10.6032 60.2897 9.0134C64.8895 7.4454 64.6222 7.0797 70.5655 4.8733C75.5943 2.9489 78.1545 2.0099 80.7638 1.7279C82.9371 1.2817 86.7209 1.3096 91.3339 3.0233Z" fill="#4BAEBD"/>
<path d="M31.8948 25.3139L44.9207 20.8484L48.2052 19.7607C49.3305 19.4136 50.4559 19.0665 51.5109 18.7411C53.6491 17.9323 55.6326 16.8725 57.9747 16.2248C60.3167 15.5772 62.708 15.5865 65.0429 15.9119C66.2455 16.0637 67.3285 16.3271 68.503 16.637L71.8436 17.4737L75.1631 18.2423C76.2251 18.4375 77.3574 18.6111 78.4475 18.6483C80.6488 18.7908 82.9767 18.5956 85.298 18.6266C89.939 18.6886 94.5461 19.1348 99.1031 19.671C101.417 19.9282 103.836 20.5263 105.967 21.4374C107.043 21.927 108.098 22.3485 109.104 22.8598C110.088 23.303 111.164 23.7926 112.107 24.0994C116.432 25.3793 120.82 26.8637 125.04 28.5495C129.217 30.099 133.669 31.0411 138.248 31.6454C138.318 31.6237 138.339 31.6919 138.36 31.7601C138.381 31.8282 138.311 31.8499 138.24 31.8716C133.62 31.8778 128.992 31.3634 124.576 30.037C122.367 29.3738 120.229 28.6889 118.091 28.0041L114.8 27.0775L111.509 26.1509C110.313 25.7728 109.258 25.3514 108.203 24.9299C107.148 24.5085 106.143 23.9971 105.088 23.5757C103.048 22.7111 101.023 22.1409 98.7791 21.8619C94.2711 21.2359 89.763 20.6099 85.241 20.4364C82.9694 20.3155 80.6907 20.4209 78.3276 20.2535C77.1461 20.1698 76.0138 19.9963 74.8604 19.7546L71.5198 18.9178L68.2285 17.9912C67.1243 17.6597 66.0414 17.3963 64.9794 17.201C62.7851 16.8322 60.5346 16.7795 58.3824 17.294C56.2302 17.8084 54.1553 18.8217 51.9257 19.5841C50.8004 19.9311 49.7243 20.1883 48.5989 20.5354L45.2723 21.4868L32.1199 25.5432C32.0496 25.5649 31.9581 25.5184 31.9581 25.5184C31.8455 25.4038 31.8455 25.4038 31.8948 25.3139Z" fill="#1C4C5F"/>
<path d="M144.865 35.3549C147.678 37.4746 151.019 39.0582 154.486 39.5571C156.265 39.8298 158.031 39.8081 159.88 40.0592C161.73 40.3102 163.664 40.8339 165.31 41.6706C167.025 42.4856 168.544 43.6601 169.874 44.9679C171.203 46.2756 172.342 47.7167 173.27 49.2227C175.267 52.1915 176.856 55.5849 177.488 59.1238C177.509 59.192 177.439 59.2137 177.369 59.2354C177.298 59.2571 177.277 59.1889 177.277 59.1889C176.349 57.6828 175.491 56.155 174.493 54.6707C173.494 53.1863 172.538 51.8382 171.42 50.4654C169.254 47.698 167.37 44.8439 164.381 43.1519C162.876 42.2718 161.315 41.7078 159.606 41.4134C157.897 41.119 156.019 41.026 154.197 40.6169C152.397 40.2761 150.632 39.5509 149.057 38.6925C147.481 37.8341 145.983 36.7278 144.626 35.5781C144.605 35.5099 144.584 35.4417 144.654 35.42C144.725 35.3983 144.795 35.3766 144.865 35.3549Z" fill="#1C4C5F"/>
<path d="M176.651 62.1451C173.732 64.1656 171.122 66.688 169.378 69.765C168.541 71.293 167.746 72.957 166.726 74.392C165.706 75.827 164.707 77.33 163.504 78.672C162.857 79.319 162.048 79.942 161.112 80.156C160.198 80.438 159.199 80.447 158.299 80.277C157.399 80.106 156.527 79.778 155.676 79.518C154.825 79.257 153.995 79.065 153.095 78.895C149.656 78.238 146.111 78.733 142.693 79.638C140.984 80.091 139.205 80.565 137.517 81.086C135.829 81.606 134.07 82.148 132.495 82.784C130.849 83.441 129.337 84.281 127.958 85.303C126.579 86.326 125.356 87.599 124.385 88.944C122.394 91.724 121.43 95.083 120.375 98.396C119.411 101.755 118.215 105.112 117.926 108.412C117.637 111.712 118.931 114.898 121.392 117.126C122.587 118.251 124.043 119.221 125.499 120.191C126.954 121.161 128.389 122.063 129.943 122.853C131.497 123.643 133.059 124.207 134.74 124.66C136.42 125.112 138.305 125.726 139.923 126.72C141.519 127.647 142.996 128.685 144.374 129.903C145.752 131.121 146.941 132.472 148.059 133.845C149.156 135.15 150.372 136.343 151.709 137.424C153.045 138.506 154.479 139.408 155.963 140.219C157.447 141.031 158.98 141.753 160.619 142.07C162.236 142.317 164.002 142.296 165.683 142.001C167.363 141.707 168.939 141.072 170.318 140.049C171.007 139.538 171.605 138.98 172.09 138.307C172.576 137.635 172.948 136.848 173.392 136.039C175.298 132.987 178.027 130.353 181.101 128.583C181.171 128.561 181.241 128.54 181.263 128.608C181.284 128.676 181.305 128.744 181.234 128.766C178.337 130.855 175.839 133.492 174.235 136.526C173.863 137.313 173.49 138.1 172.976 138.93C172.463 139.761 171.745 140.43 171.077 141.01C169.6 142.212 167.835 142.981 165.964 143.408C164.093 143.836 162.208 143.969 160.267 143.672C158.326 143.374 156.561 142.649 154.985 141.791C153.41 140.932 151.814 140.006 150.386 138.878C148.959 137.75 147.629 136.442 146.462 135.159C145.274 133.808 144.198 132.571 142.932 131.468C141.666 130.365 140.281 129.373 138.797 128.561C137.313 127.749 135.822 127.164 134.12 126.643C133.269 126.383 132.348 126.144 131.476 125.816C130.604 125.487 129.781 125.069 128.958 124.65C127.313 123.814 125.836 122.775 124.38 121.805C122.903 120.767 121.448 119.797 120.048 118.511C118.719 117.204 117.608 115.604 116.919 113.875C116.23 112.146 116.013 110.197 116.21 108.344C116.337 106.512 116.787 104.73 117.258 103.017C117.73 101.303 118.293 99.636 118.856 97.968C119.418 96.301 119.96 94.566 120.615 92.945C121.248 91.256 122.134 89.639 123.203 88.114C125.433 85.111 128.612 82.936 132.045 81.578C133.761 80.9 135.54 80.426 137.228 79.905C138.937 79.452 140.696 78.91 142.426 78.526C145.957 77.736 149.663 77.265 153.285 78.015C154.185 78.185 155.036 78.445 155.887 78.706C156.738 78.966 157.54 79.316 158.44 79.487C160.1 79.871 161.879 79.397 163.033 78.145C164.278 76.939 165.277 75.436 166.297 74.002C167.338 72.635 168.154 71.039 169.061 69.49C170.897 66.459 173.577 63.9145 176.588 61.9405C176.658 61.9188 176.728 61.8971 176.749 61.9653C176.7 62.0552 176.651 62.1451 176.651 62.1451Z" fill="#1C4C5F"/>
<path d="M134.571 128.595C135.035 130.095 135.239 131.749 135.049 133.376C134.859 135.003 134.183 136.556 133.304 137.947C132.333 139.292 131.25 140.522 130.075 141.706C128.9 142.89 127.775 143.984 126.579 145.1C125.384 146.215 124.188 147.331 122.718 148.307C122.007 148.75 121.206 149.147 120.383 149.475C119.961 149.605 119.539 149.736 119.117 149.866C118.695 149.996 118.322 150.036 117.97 150.145C117.267 150.362 116.767 150.74 116.472 151.279C116.155 151.75 115.994 152.472 115.993 153.219C115.923 154.734 116.106 156.321 116.337 157.818C116.499 158.589 116.71 159.271 116.942 160.021C117.174 160.771 117.469 161.725 117.42 162.562C117.462 163.445 117.413 164.282 117.223 165.162C117.033 166.042 116.751 166.876 116.378 167.663C116.076 168.428 115.682 169.147 115.696 169.442C115.71 169.736 115.977 170.102 116.455 170.402C116.934 170.703 117.672 170.849 118.41 170.994C119.128 171.072 119.915 171.127 120.682 171.115C122.215 171.09 123.706 170.929 125.162 170.405C126.639 169.95 128.032 169.222 129.312 168.379C131.922 166.603 134.109 164.211 136.001 161.611C136.051 161.521 136.142 161.567 136.142 161.567C136.163 161.636 136.163 161.636 136.184 161.704C134.791 164.672 132.871 167.431 130.226 169.59C128.939 170.66 127.448 171.568 125.802 172.225C124.156 172.881 122.405 173.198 120.661 173.287C119.824 173.322 118.895 173.309 118.016 173.207C117.137 173.105 116.216 172.866 115.302 172.401C114.387 171.936 113.466 170.951 113.438 169.615C113.459 168.937 113.614 168.441 113.79 168.013C113.966 167.585 114.163 167.226 114.29 166.888C115.028 165.54 115.373 164.164 115.373 162.67C115.373 161.924 115.275 161.357 115.022 160.538C114.79 159.788 114.607 158.949 114.495 158.087C114.291 156.432 114.179 154.824 114.277 153.151C114.327 152.314 114.496 151.366 115.08 150.513C115.663 149.661 116.564 149.085 117.408 148.824C117.83 148.694 118.273 148.632 118.695 148.502C119.046 148.394 119.419 148.353 119.841 148.223C120.545 148.006 121.276 147.631 121.937 147.278C123.309 146.482 124.526 145.434 125.721 144.319C126.938 143.271 128.134 142.156 129.351 141.108C130.547 139.993 131.672 138.899 132.664 137.622C133.585 136.367 134.282 134.882 134.514 133.392C134.796 131.811 134.704 130.271 134.311 128.75C134.29 128.682 134.36 128.66 134.43 128.638C134.48 128.548 134.571 128.595 134.571 128.595Z" fill="#1C4C5F"/>
<path d="M132.55 156.178C132.001 155.153 131.551 153.947 131.474 152.701C131.397 151.455 131.763 150.148 132.607 149.141C133.381 148.155 134.52 147.356 135.674 146.851C136.827 146.345 138.093 145.955 139.352 145.791C140.611 145.626 141.912 145.599 143.206 145.797C144.5 145.995 145.759 146.578 146.828 147.294C147.897 148.01 148.776 148.859 149.704 149.618C150.632 150.377 151.49 151.158 152.468 151.827C156.258 154.616 160.71 156.305 165.239 157.746C166.364 158.146 167.539 158.456 168.713 158.766C169.888 159.076 171.062 159.386 172.237 159.696C174.564 160.247 176.942 160.709 179.389 161.149C179.459 161.127 179.48 161.196 179.502 161.264C179.523 161.332 179.452 161.354 179.382 161.375C174.403 161.716 169.409 161.016 164.641 159.798C162.222 159.2 159.859 158.286 157.665 157.17C155.47 156.054 153.354 154.691 151.406 153.126C150.477 152.367 149.528 151.539 148.649 150.69C147.77 149.841 146.912 149.06 146.005 148.369C145.098 147.678 144.113 147.235 142.96 146.993C141.806 146.751 140.646 146.736 139.528 146.857C138.339 146.999 137.172 147.21 136.067 147.625C134.963 148.041 133.922 148.66 133.198 149.556C132.452 150.383 132.044 151.555 132.009 152.686C131.973 153.817 132.332 154.976 132.831 156.092C132.852 156.16 132.873 156.228 132.803 156.25C132.571 156.246 132.571 156.246 132.55 156.178Z" fill="#1C4C5F"/>
<path d="M133.772 157.893C136.289 160.552 139.285 162.764 142.703 164.1C146.05 165.457 149.764 166.254 153.344 166.121C154.251 166.065 155.137 165.941 156.002 165.749C156.867 165.557 157.803 165.343 158.738 165.129C160.7 164.748 162.81 164.844 164.702 165.231C168.577 166.052 172.065 168.113 174.583 170.772C174.604 170.84 174.625 170.909 174.555 170.93C174.484 170.952 174.484 170.952 174.414 170.974C171.102 169.232 167.733 167.806 164.195 167.329C162.416 167.057 160.7 166.988 158.928 167.236C157.155 167.484 155.193 167.865 153.175 167.816C149.208 167.695 145.502 166.672 142.07 165.042C138.638 163.412 135.72 160.952 133.42 158.001C133.399 157.933 133.378 157.865 133.448 157.843C133.68 157.846 133.772 157.893 133.772 157.893Z" fill="#1C4C5F"/>
<path d="M175.399 173.657C176.685 175.575 177.522 177.782 177.866 180.14C177.993 181.296 178.049 182.473 177.943 183.626C177.838 184.779 177.521 185.997 176.951 187.144C176.36 188.222 175.586 189.207 174.609 190.032C173.631 190.856 172.499 191.429 171.415 191.913C169.249 192.88 166.879 193.685 164.452 194.06C163.869 194.166 163.193 194.225 162.568 194.194C161.942 194.163 161.245 194.153 160.465 193.871C160.282 193.778 160.099 193.685 159.916 193.592C159.733 193.499 159.529 193.338 159.375 193.087C159.171 192.926 159.086 192.653 159.002 192.381C158.918 192.108 158.904 191.814 158.911 191.587C158.988 190.593 159.445 190.078 159.741 189.539C160.353 188.529 160.916 187.608 161.317 186.663C161.647 185.74 161.816 184.791 161.802 183.75C161.718 182.731 161.493 181.754 161.107 180.753C160.741 179.821 160.094 178.975 159.37 178.377C158.645 177.779 157.583 177.583 156.402 177.5C155.846 177.447 155.241 177.484 154.707 177.5C154.404 177.518 154.102 177.537 153.8 177.555L153.357 177.617L152.843 177.701C152.773 177.723 152.752 177.655 152.731 177.586C152.709 177.518 152.78 177.496 152.85 177.475C152.85 177.475 152.85 177.475 152.921 177.453L153.061 177.41L153.272 177.345L153.694 177.214C153.975 177.128 154.257 177.041 154.538 176.954C155.101 176.781 155.685 176.675 156.36 176.616C156.965 176.579 157.64 176.52 158.287 176.62C158.934 176.719 159.602 176.886 160.172 177.233C161.381 177.906 162.232 178.913 162.823 180.075C163.392 181.169 163.772 182.396 163.94 183.688C164.039 185.002 163.905 186.313 163.448 187.574C162.969 188.767 162.238 189.889 161.583 190.763C161.267 191.234 161.021 191.683 160.992 191.842C161.014 191.91 160.943 191.931 161.035 191.978C161.035 191.978 161.056 192.046 161.147 192.092C161.168 192.161 161.26 192.207 161.33 192.185C161.604 192.325 162.181 192.446 162.645 192.452C163.201 192.505 163.714 192.421 164.249 192.406C165.367 192.285 166.464 192.096 167.589 191.749C168.666 191.491 169.77 191.076 170.874 190.661C171.908 190.267 172.9 189.737 173.779 189.093C174.658 188.448 175.404 187.621 175.945 186.632C176.508 185.712 176.867 184.63 176.994 183.546C177.191 182.439 177.156 181.33 177.121 180.221C176.98 178.023 176.284 175.774 175.209 173.79C175.188 173.722 175.167 173.654 175.237 173.632C175.307 173.611 175.328 173.679 175.399 173.657Z" fill="#1C4C5F"/>
<path d="M158.544 193.642C157.637 194.444 156.525 195.086 155.259 195.476C154.064 195.845 152.601 195.848 151.363 195.334C150.125 194.819 149.084 193.945 148.304 192.917C147.544 191.956 146.764 190.927 146.244 189.743C145.653 188.581 145.344 187.332 144.985 186.173C144.697 184.993 144.451 183.948 143.994 182.969C143.607 181.968 143.01 181.032 142.342 180.118C141.674 179.204 140.886 178.401 139.937 177.574C139.916 177.506 139.895 177.438 139.965 177.416C140.035 177.394 140.035 177.394 140.106 177.372C142.546 178.039 144.768 179.743 146.02 182.046C146.681 183.186 146.941 184.525 147.067 185.681C147.194 186.837 147.39 187.971 147.777 188.972C148.164 189.973 148.712 190.998 149.401 191.981C149.999 192.917 150.786 193.719 151.792 194.231C152.727 194.764 153.93 194.915 155.098 194.705C156.265 194.494 157.348 194.011 158.389 193.391C158.459 193.369 158.53 193.347 158.551 193.416C158.572 193.484 158.593 193.552 158.544 193.642Z" fill="#1C4C5F"/>
<path d="M142.779 172.814C142.069 174.004 141.267 175.147 140.169 176.083C139.163 177.065 137.862 177.84 136.526 178.252C135.119 178.686 133.656 178.689 132.327 178.875C130.977 178.993 129.669 179.247 128.332 179.659C127.699 179.854 127.087 180.118 126.384 180.335C125.681 180.552 125.048 180.747 124.344 180.964L123.36 181.268C123.219 181.311 123.078 181.354 122.938 181.398C122.867 181.419 122.867 181.419 122.818 181.509C122.699 181.621 122.67 181.779 122.684 182.073C122.677 182.3 122.762 182.572 122.797 182.935C123.106 184.184 123.647 185.436 124.048 186.731C124.449 188.026 124.85 189.322 125.18 190.639C125.37 191.252 125.51 191.956 125.735 192.185C125.848 192.3 125.96 192.414 126.214 192.486C126.467 192.557 126.65 192.65 126.973 192.7C128.014 192.827 129.28 192.436 129.948 191.857C130.138 191.723 130.237 191.544 130.265 191.386C130.293 191.227 130.342 191.138 130.349 190.911C130.356 190.685 130.272 190.412 130.166 190.072C130.061 189.731 129.934 189.322 129.998 188.779C129.991 188.259 130.244 187.583 130.652 187.159C131.06 186.734 131.44 186.468 131.841 186.269C132.713 185.851 133.529 185.749 134.366 185.715C135.203 185.68 136.033 185.873 136.813 186.155C137.594 186.437 138.367 186.945 138.881 187.608C139.394 188.271 139.717 189.068 139.879 189.839C140.02 190.543 140.09 191.268 140.188 191.835C140.202 192.129 140.287 192.402 140.42 192.585C140.484 192.789 140.666 192.882 140.849 192.975C141.145 193.183 141.869 193.034 142.614 192.954C144.035 192.814 145.47 192.969 146.876 193.282C146.947 193.26 146.968 193.329 146.989 193.397C147.01 193.465 146.94 193.487 146.869 193.508C146.173 193.499 145.477 193.49 144.823 193.617C144.148 193.676 143.494 193.803 142.839 193.93C142.488 194.038 142.206 194.125 141.834 194.165C141.482 194.274 140.969 194.357 140.533 194.193C140.097 194.029 139.639 193.797 139.351 193.363C139.084 192.997 138.957 192.588 138.852 192.247C138.62 191.497 138.571 190.84 138.402 190.295C138.233 189.749 137.994 189.226 137.657 188.882C136.982 188.194 135.807 187.884 134.668 187.936C134.133 187.952 133.55 188.057 133.149 188.256C132.938 188.321 132.748 188.454 132.699 188.544C132.579 188.655 132.579 188.655 132.621 188.792C132.565 189.108 132.846 189.768 132.958 190.629C133.015 191.06 132.951 191.602 132.726 192.12C132.501 192.638 132.163 193.04 131.854 193.285C131.115 193.886 130.292 194.215 129.519 194.454C128.724 194.624 127.887 194.658 127.008 194.556C126.593 194.46 126.178 194.364 125.742 194.199C125.376 194.013 124.919 193.781 124.61 193.279C124.322 192.845 124.195 192.436 124.09 192.095C123.984 191.754 123.949 191.392 123.844 191.051C123.584 189.712 123.274 188.463 122.874 187.168C122.543 185.851 122.093 184.645 121.742 183.26C121.636 182.919 121.601 182.557 121.615 182.104C121.63 181.652 121.784 181.156 122.122 180.753C122.291 180.552 122.53 180.329 122.811 180.242C123.022 180.177 123.233 180.112 123.374 180.068L124.38 179.833C125.034 179.706 125.737 179.489 126.37 179.294C127.003 179.098 127.706 178.881 128.41 178.664C129.767 178.321 131.237 178.091 132.609 178.042C134.05 177.97 135.373 178.011 136.66 177.688C137.947 177.366 139.199 176.681 140.247 175.835C141.295 174.989 142.188 173.892 142.92 172.77C142.969 172.681 143.06 172.727 143.06 172.727C142.807 172.656 142.828 172.724 142.779 172.814Z" fill="#1C4C5F"/>
<path d="M132.789 191.578C133.415 191.609 134.041 191.64 134.597 191.693C135.223 191.724 135.778 191.776 136.355 191.897C136.931 192.018 137.586 191.891 138.134 192.17C138.408 192.31 138.612 192.471 138.837 192.7C139.062 192.929 139.287 193.159 139.484 193.546C139.505 193.614 139.456 193.704 139.386 193.726C138.985 193.924 138.633 194.032 138.352 194.119C138 194.228 137.677 194.178 137.445 194.175C136.819 194.144 136.369 193.685 135.841 193.475C135.293 193.196 134.765 192.985 134.287 192.684C133.809 192.384 133.26 192.105 132.691 191.758C132.599 191.711 132.648 191.622 132.648 191.622C132.719 191.6 132.719 191.6 132.789 191.578Z" fill="#1C4C5F"/>
<path d="M131.699 193.781C134.449 193.456 137.185 193.583 139.879 194.321C141.215 194.655 142.544 195.216 143.683 195.91C144.823 196.604 145.941 197.23 147.179 197.745C149.584 198.795 152.193 199.26 154.872 199.703C157.552 200.147 160.232 200.59 162.89 200.965C164.254 201.141 165.527 201.272 166.807 201.176C168.038 201.169 169.325 200.847 170.612 200.525L174.586 199.673L178.56 198.82C179.868 198.566 181.247 198.29 182.351 197.875C182.892 197.633 183.223 197.457 183.469 197.008C183.786 196.536 183.87 196.062 184.004 195.498C184.116 194.866 184.208 194.166 184.44 193.422C184.672 192.678 185.087 192.028 185.615 191.491C186.67 190.419 188.013 189.781 189.392 189.505C189.462 189.483 189.483 189.552 189.504 189.62C189.526 189.688 189.455 189.71 189.455 189.71C188.253 190.305 187.092 191.036 186.41 192.068C186.023 192.561 185.819 193.146 185.685 193.71C185.551 194.274 185.579 194.863 185.579 195.61C185.558 196.289 185.438 197.147 185.044 197.866C184.847 198.225 184.58 198.607 184.221 198.941C183.863 199.276 183.462 199.474 183.131 199.651C181.717 200.311 180.43 200.633 179.073 200.977C176.358 201.665 173.742 202.173 171.055 202.703C169.655 202.911 168.347 203.165 166.814 203.19C165.351 203.193 163.966 202.948 162.601 202.771C159.901 202.26 157.27 201.727 154.619 201.126C151.989 200.593 149.246 199.945 146.728 198.78C145.469 198.197 144.309 197.435 143.17 196.741C142.101 196.025 140.934 195.489 139.647 195.064C137.143 194.193 134.365 193.93 131.734 194.144C131.664 194.166 131.643 194.097 131.622 194.029C131.559 193.825 131.608 193.735 131.699 193.781Z" fill="#1C4C5F"/>
<path d="M178.843 188.278C181.185 188.377 183.555 188.318 185.911 187.965C188.267 187.612 190.602 187.19 192.761 186.45C197.171 185.015 200.892 181.851 203.101 178.033C203.643 177.044 204.093 176.009 204.402 175.018C204.691 173.958 204.909 172.92 204.944 171.789C205.071 170.704 205.106 169.573 205.191 168.352C205.226 167.221 205.332 166.068 205.367 164.937C205.403 163.806 205.487 162.585 205.663 161.41C205.839 160.236 206.015 159.061 206.353 157.912C206.691 156.762 206.958 155.634 207.598 154.466C207.746 154.196 207.964 153.905 208.273 153.66C208.583 153.415 209.005 153.285 209.399 153.313C210.137 153.458 210.587 153.917 210.967 154.397C210.988 154.466 211.009 154.534 210.939 154.555C210.869 154.577 210.869 154.577 210.777 154.531C210.299 154.23 209.8 153.861 209.357 153.923C208.913 153.985 208.716 154.345 208.491 154.862C208.111 155.876 207.985 156.96 207.879 158.113C207.576 160.372 207.576 162.613 207.597 164.921C207.632 166.031 207.618 167.23 207.533 168.451C207.427 169.604 207.322 170.757 207.146 171.931C206.97 173.106 206.653 174.324 206.245 175.495C205.837 176.666 205.246 177.745 204.655 178.823C202.017 182.997 197.832 186.155 193.148 187.451C191.952 187.819 190.764 187.962 189.596 188.173C188.407 188.315 187.24 188.526 186.03 188.6C183.632 188.817 181.22 188.74 178.906 188.482C178.835 188.504 178.814 188.436 178.793 188.368C178.772 188.3 178.772 188.3 178.843 188.278Z" fill="#1C4C5F"/>
<path d="M194.935 178.535C193.649 175.87 193.023 172.852 193.305 169.777C193.446 168.24 193.769 166.796 194.234 165.309C194.649 163.911 195.205 162.47 195.247 161.113C195.268 160.434 195.219 159.777 195.008 159.095C194.797 158.414 194.537 157.822 194.136 157.273C193.736 156.725 193.265 156.198 192.772 155.603C192.28 155.008 191.816 154.255 191.563 153.437C191.148 151.847 191.366 150.062 191.993 148.599C192.619 147.137 193.308 145.878 193.885 144.506C195.13 141.806 196.193 139.014 197.325 136.201C197.902 134.828 198.458 133.387 199.126 132.06L201.019 127.967C201.342 127.269 201.666 126.572 202.081 125.921C202.475 125.202 202.939 124.462 203.586 123.814C203.776 123.681 203.896 123.569 204.086 123.436C204.276 123.303 204.466 123.17 204.585 123.058C204.965 122.791 205.296 122.615 205.626 122.438C206.358 122.063 207.019 121.71 207.701 121.425C210.458 120.126 213.328 118.943 216.148 117.849C216.219 117.827 216.31 117.874 216.31 117.874C216.331 117.942 216.331 117.942 216.282 118.032C213.701 119.649 211.028 121.22 208.425 122.77C207.124 123.545 205.731 124.273 204.866 125.212C204.05 126.061 203.565 127.48 202.988 128.853C202.411 130.226 201.834 131.599 201.187 132.993C200.54 134.388 199.942 135.692 199.294 137.087C198.049 139.786 196.825 142.553 195.51 145.274C194.841 146.601 194.124 148.017 193.505 149.253C193.23 149.861 192.977 150.536 192.935 151.147C192.822 151.779 192.892 152.504 193.012 153.139C193.131 153.775 193.462 154.345 193.863 154.893C194.263 155.442 194.826 156.015 195.199 156.722C195.642 157.406 195.944 158.135 196.176 158.885C196.302 159.294 196.337 159.656 196.394 160.087C196.429 160.45 196.415 160.902 196.379 161.286C196.26 162.892 195.612 164.286 195.127 165.705C194.642 167.125 194.226 168.522 193.973 169.945C193.628 172.814 194.021 175.83 195.167 178.538C195.189 178.606 195.139 178.696 195.139 178.696C195.027 178.581 194.956 178.603 194.935 178.535Z" fill="#1C4C5F"/>
<path d="M222.95 116.423C222.303 118.564 221.655 120.706 220.916 122.801C220.107 124.917 219.277 126.966 218.285 128.989C217.765 130.046 217.223 131.035 216.52 131.998C216.133 132.491 215.746 132.984 215.176 133.383C214.606 133.783 213.896 134.226 212.989 134.282C212.454 134.298 212.271 134.205 212.039 134.202C211.786 134.13 211.554 134.127 211.322 134.124C211.09 134.121 210.928 134.096 210.787 134.14C210.787 134.14 210.787 134.14 210.766 134.071C210.745 134.003 210.724 133.935 210.745 134.003C210.696 134.093 210.759 134.298 210.773 134.592C210.857 134.865 210.942 135.137 210.907 135.522C210.942 135.884 210.808 136.448 210.386 136.578C209.985 136.777 209.662 136.727 209.408 136.656C209.338 136.678 209.317 136.609 209.296 136.541C209.275 136.473 209.345 136.451 209.345 136.451C209.626 136.365 209.887 136.21 209.915 136.052C210.013 135.872 209.922 135.825 209.859 135.621C209.795 135.416 209.662 135.234 209.507 134.983C209.352 134.732 209.198 134.481 209.12 133.982C209.057 133.777 209.092 133.393 209.31 133.101C209.529 132.81 209.718 132.677 209.979 132.522C210.45 132.302 210.823 132.262 211.104 132.175C211.477 132.135 211.779 132.116 212.082 132.097C212.384 132.079 212.778 132.107 212.778 132.107C212.989 132.042 213.319 131.865 213.629 131.62C214.009 131.354 214.368 131.019 214.705 130.616C215.402 129.879 216.056 129.005 216.619 128.084C217.814 126.222 218.827 124.266 219.819 122.243C220.832 120.287 221.733 118.217 222.655 116.215C222.704 116.126 222.704 116.126 222.795 116.172C222.929 116.355 222.95 116.423 222.95 116.423Z" fill="#1C4C5F"/>
<path d="M209.548 147.068C208.985 146.495 208.563 145.878 208.261 145.15C208.134 144.741 208.078 144.31 208.092 143.858C208.106 143.405 208.353 142.956 208.69 142.553C209.316 141.837 210.139 141.509 210.871 141.134C211.623 140.827 212.327 140.61 213.079 140.303C214.535 139.779 215.836 139.005 217.264 138.639C218.741 138.183 220.169 137.818 221.822 137.681C221.892 137.66 221.913 137.728 221.934 137.796C221.934 137.796 221.955 137.864 221.885 137.886C220.781 139.048 219.43 139.913 218.037 140.641C216.645 141.369 215.034 141.642 213.515 141.961C212.72 142.131 211.996 142.28 211.292 142.497C210.589 142.714 209.886 142.931 209.457 143.287C209.028 143.644 208.824 144.229 208.894 144.955C209.013 145.59 209.316 146.318 209.738 146.935C209.759 147.003 209.78 147.071 209.709 147.093C209.639 147.115 209.548 147.068 209.548 147.068Z" fill="#1C4C5F"/>
<path d="M208.27 172.331C214.446 165.646 218.969 157.605 221.256 149.058C221.833 146.938 222.319 144.772 222.551 142.534C222.805 140.365 222.875 138.103 222.897 135.931C222.919 131.518 222.757 127.012 222.688 122.553C222.618 120.334 222.548 118.115 222.337 115.939C222.232 114.852 222.126 113.764 221.88 112.72C221.634 111.675 221.339 110.721 220.854 109.9C220.657 109.512 220.277 109.032 220.01 108.666C219.651 108.254 219.384 107.888 218.955 107.498C218.259 106.742 217.373 106.119 216.487 105.496C214.785 104.229 212.661 103.091 210.952 101.303C210.123 100.364 209.412 99.314 208.984 98.176C208.794 97.563 208.625 97.017 208.456 96.472C208.358 95.905 208.238 95.269 208.161 94.771C208.035 93.615 207.951 92.595 207.655 91.641C207.381 90.754 206.826 89.955 205.989 89.242C204.407 87.863 202.297 87.02 200.208 86.245C198.119 85.471 195.855 85.124 193.583 85.003C193.513 85.024 193.492 84.956 193.471 84.888C193.449 84.82 193.52 84.798 193.59 84.776C195.897 84.513 198.211 84.77 200.518 85.254C202.705 85.849 205.004 86.558 207.002 88.033C208 88.771 208.851 89.778 209.301 90.984C209.751 92.189 209.877 93.345 210.053 94.411C210.152 94.978 210.229 95.477 210.376 95.954C210.524 96.432 210.672 96.909 210.89 97.364C211.255 98.297 211.881 99.075 212.577 99.831C213.949 101.275 215.96 102.298 217.844 103.658C219.729 105.019 221.487 106.717 222.746 108.793C223.407 109.934 223.695 111.114 223.892 112.249C224.089 113.383 224.145 114.56 224.25 115.648C224.411 117.913 224.411 120.154 224.411 122.394C224.41 126.876 224.388 131.288 224.318 135.791C224.247 138.053 224.155 140.247 223.852 142.507C223.55 144.766 223.015 147.022 222.368 149.163C219.729 157.818 214.882 165.811 208.502 172.334C208.432 172.355 208.362 172.377 208.34 172.309C208.221 172.421 208.2 172.352 208.27 172.331Z" fill="#1C4C5F"/>
<path d="M186.342 69.313C186.475 71.736 186.215 74.132 185.469 76.453C184.632 78.728 183.401 80.974 181.516 82.601C179.63 84.228 177.457 85.421 175.305 86.683L168.897 90.376L162.469 94.002C160.295 95.195 158.192 96.367 155.927 97.513C153.733 98.638 151.496 99.627 149.393 100.798C148.352 101.418 147.403 102.084 146.545 102.797C145.707 103.578 145.053 104.452 144.512 105.44C143.97 106.429 143.541 107.532 143.463 108.527C143.4 109.069 143.456 109.5 143.604 109.977C143.751 110.454 143.948 110.842 144.286 111.186C144.623 111.53 144.961 111.874 145.418 112.106C145.875 112.338 146.332 112.571 146.86 112.782C147.893 113.135 149.026 113.308 150.207 113.392C151.319 113.498 152.345 113.33 153.492 113.051C154.547 112.726 155.63 112.242 156.713 111.759C158.879 110.792 161.053 109.599 163.268 108.542C167.699 106.429 172.088 104.179 176.766 102.363C181.534 100.594 186.479 99.89 191.444 100.002C191.514 99.98 191.535 100.048 191.556 100.116C191.577 100.185 191.507 100.206 191.437 100.228C188.968 100.467 186.542 100.842 184.179 101.421C181.815 102.001 179.494 102.716 177.328 103.683C175.112 104.74 172.988 105.843 170.794 106.968L164.302 110.389C162.107 111.514 159.934 112.707 157.719 113.764C156.565 114.269 155.412 114.774 154.054 115.118C152.767 115.441 151.346 115.58 150.003 115.472C148.66 115.363 147.415 115.075 146.128 114.65C145.509 114.393 144.89 114.136 144.321 113.789C143.751 113.442 143.209 112.937 142.738 112.41C142.316 111.793 141.965 111.155 141.754 110.473C141.543 109.791 141.543 109.044 141.635 108.344C141.818 106.943 142.367 105.728 143.028 104.628C143.668 103.46 144.512 102.453 145.469 101.56C146.425 100.668 147.537 100.026 148.648 99.385C150.892 98.17 153.128 97.182 155.344 96.125C157.559 95.068 159.683 93.965 161.857 92.772L168.328 89.283L174.799 85.793C176.972 84.6 179.166 83.475 181.023 82.006C182.859 80.469 184.154 78.427 184.991 76.152C185.828 73.878 186.18 71.529 186.068 69.174C186.047 69.105 186.117 69.084 186.187 69.062C186.3 69.177 186.321 69.245 186.342 69.313Z" fill="#1C4C5F"/>
<path d="M199.66 80.739C199.927 78.864 200.518 77.039 201.109 75.214C201.792 73.435 202.636 71.681 203.663 70.02C204.69 68.359 205.788 66.676 207.223 65.337C208.749 64.0451 210.409 62.9357 212.287 62.2818C212.357 62.2601 212.448 62.3066 212.47 62.3748C212.491 62.443 212.491 62.443 212.42 62.4647C211.21 64.0327 209.958 65.464 208.777 66.874C208.151 67.59 207.574 68.216 206.948 68.932C206.301 69.58 205.675 70.296 205.119 70.99C203.958 72.468 202.98 74.039 202.094 75.657C201.208 77.274 200.434 79.007 199.843 80.832C199.864 80.9 199.793 80.922 199.702 80.875C199.702 80.875 199.681 80.807 199.66 80.739Z" fill="#1C4C5F"/>
<path d="M188.079 65.715C190.224 65.427 192.334 64.7762 194.247 63.7381C196.161 62.6999 197.919 61.4108 199.291 59.8675C200.662 58.3243 201.626 56.4587 201.992 54.4041C202.379 52.4177 202.211 50.3786 201.669 48.3798C201.445 47.4037 201.058 46.4027 200.622 45.4916C200.186 44.5805 199.729 43.6013 199.293 42.6902C198.281 40.9114 197.148 39.2442 195.756 37.7319C194.434 36.1979 192.803 34.9088 191.122 33.7095C189.371 32.5319 187.472 31.6239 185.454 30.8274C185.362 30.781 185.362 30.781 185.411 30.6911C185.39 30.6229 185.461 30.6012 185.552 30.6477C189.997 31.0692 194.273 33.1858 197.472 36.3064C199.048 37.9116 200.384 39.74 201.319 41.7667C201.797 42.8141 202.183 43.8151 202.57 44.8161C202.957 45.817 203.224 46.9295 203.47 47.9739C203.913 50.1524 204.004 52.4394 203.448 54.6273C202.892 56.8151 201.689 58.9038 200.106 60.5121C198.524 62.1205 196.583 63.3167 194.557 64.2401C192.531 65.164 190.309 65.7 188.1 65.783C188.03 65.805 188.009 65.737 187.988 65.669C187.939 65.759 188.009 65.737 188.079 65.715Z" fill="#1C4C5F"/>
<path d="M192.908 41.2241C192.542 44.0256 191.733 46.889 190.009 49.2875C189.158 50.5209 188.103 51.5931 186.893 52.4144C185.704 53.3037 184.473 54.0568 183.355 54.9245C182.237 55.7922 181.21 56.7063 180.246 57.8251C179.789 58.3395 179.332 58.8539 178.896 59.4365C178.53 59.9974 178.094 60.58 178.079 61.0324C178.072 61.2587 178.093 61.3268 178.185 61.3733C178.276 61.4198 178.53 61.4911 178.783 61.5624C179.43 61.6615 180.196 61.6491 180.914 61.7266C182.44 61.9281 184.05 62.4022 185.288 63.6635C185.893 64.3731 186.195 65.101 186.455 65.693C186.715 66.285 187.046 66.855 187.447 67.404C188.178 68.523 189.078 69.44 190.098 70.246C191.117 71.051 192.376 71.634 193.649 72.511C194.31 72.904 194.943 73.456 195.435 74.051C195.927 74.646 196.441 75.309 196.743 76.038C197.397 77.404 197.931 78.882 197.833 80.556C197.783 81.392 197.523 82.294 196.967 82.988C196.433 83.751 195.582 84.237 194.97 84.501C194.308 84.854 193.697 85.117 193.197 85.495C192.698 85.874 192.241 86.388 191.875 86.949C191.143 88.071 190.798 89.447 190.615 90.847C190.636 90.915 190.566 90.937 190.496 90.959C190.425 90.981 190.404 90.912 190.383 90.844C190.243 89.394 190.405 87.925 190.961 86.484C191.284 85.787 191.77 85.114 192.297 84.578C192.895 84.02 193.535 83.599 194.175 83.177C196.651 81.966 196.018 79.174 194.788 76.939C194.457 76.369 194.148 75.867 193.719 75.477C193.269 75.018 192.84 74.628 192.27 74.28C191.201 73.565 189.83 72.867 188.677 71.879C187.524 70.89 186.539 69.7 185.744 68.377C185.323 67.76 185.02 67.032 184.739 66.372C184.458 65.712 184.198 65.12 183.909 64.6861C183.551 64.2739 183.051 63.9052 182.503 63.6263C181.954 63.3474 181.286 63.18 180.639 63.0809C179.992 62.9817 179.275 62.9042 178.466 62.7802C178.051 62.6842 177.566 62.6098 177.137 62.2193C177.024 62.1047 176.912 61.99 176.87 61.8537C176.757 61.739 176.715 61.6026 176.673 61.4663C176.588 61.1936 176.574 60.8992 176.652 60.6513C176.891 59.6813 177.327 59.0987 177.834 58.4944C178.27 57.9118 178.797 57.3757 179.325 56.8396C180.38 55.7674 181.477 54.8315 182.666 53.9421C183.876 53.1209 185.177 52.3462 186.338 51.6148C187.568 50.8618 188.574 49.8794 189.468 48.7824C191.163 46.5419 192.155 43.7715 192.704 41.063C192.683 40.9948 192.753 40.9731 192.824 40.9514C192.866 41.0878 192.957 41.1343 192.908 41.2241Z" fill="#1C4C5F"/>
<path d="M162.448 32.172L167.56 35.0013C169.297 35.8845 171.056 36.8359 172.743 37.8089C173.587 38.2955 174.431 38.782 175.254 39.2004C175.62 39.3863 176.056 39.5505 176.358 39.5319C176.59 39.535 176.759 39.3336 176.907 39.064C177.251 38.4349 177.28 37.53 177.167 36.6685C177.055 35.807 176.753 35.0788 176.239 34.4156C175.283 33.0676 173.616 32.1627 171.858 31.2113C170.079 30.1918 168.426 28.8344 167.224 27.1889C166.021 25.5434 165.079 23.7429 164.418 21.8556C163.758 19.9684 163.329 18.0842 163.181 16.1133C163.16 16.0451 163.231 16.0234 163.301 16.0017C163.371 15.98 163.392 16.0482 163.392 16.0482C164.883 19.6213 166.493 23.0828 168.961 25.8316C170.171 27.2509 171.528 28.4006 173.075 29.417C174.643 30.5017 176.514 31.5677 177.709 33.4395C178.307 34.3753 178.644 35.4662 178.729 36.4857C178.736 37.0063 178.743 37.5269 178.679 38.0693C178.616 38.6116 178.482 39.1756 178.116 39.7365C177.969 40.0061 177.751 40.2974 177.42 40.474C177.111 40.7188 176.759 40.8273 176.365 40.7994C175.598 40.8118 175.12 40.5112 174.663 40.2788C173.749 39.814 172.954 39.2376 172.159 38.6611C170.521 37.5982 168.882 36.5353 167.265 35.5405L162.349 32.3517C162.258 32.3052 162.307 32.2153 162.307 32.2153C162.356 32.1255 162.427 32.1038 162.448 32.172Z" fill="#1C4C5F"/>
<path d="M166.542 27.4741C164.496 26.8358 162.457 25.9712 160.635 24.8152C158.814 23.6593 157.168 22.0758 155.755 20.4953C155.037 19.671 154.341 18.9149 153.666 18.2269C152.921 17.5606 152.196 16.9625 151.423 16.4543C149.855 15.3697 147.928 14.6197 145.86 13.9132C145.769 13.8667 145.769 13.8667 145.818 13.7768L145.867 13.687C148.09 13.1508 150.516 13.5227 152.527 14.5454C153.533 15.0567 154.532 15.7942 155.2 16.7084C155.938 17.6009 156.515 18.4686 157.091 19.3363C158.244 21.0717 159.637 22.584 161.198 23.8949C162.759 25.2057 164.63 26.2718 166.529 27.1797C166.62 27.2262 166.641 27.2944 166.571 27.3161C166.634 27.5206 166.634 27.5206 166.542 27.4741Z" fill="#1C4C5F"/>
<path d="M147.891 30.6874C148.208 27.9759 148.131 25.2364 147.611 22.5589C147.091 19.8815 146.641 17.1823 145.319 14.9015C143.997 12.6206 141.796 10.9844 139.264 10.2716C137.998 9.9152 136.634 9.7386 135.333 9.7665C134.032 9.7944 132.787 10.253 131.472 10.7334C128.841 11.694 126.232 12.7228 123.622 13.7517C120.992 14.7123 118.291 15.6947 115.485 16.3362C114.036 16.6336 112.636 16.8413 111.124 16.9342C109.682 17.0055 108.219 17.0086 106.764 16.7855C103.782 16.3609 101.159 14.8548 99.225 12.8374C99.204 12.7692 99.183 12.701 99.253 12.6793C99.323 12.6577 99.323 12.6577 99.394 12.636C101.714 14.1607 104.309 15.0779 106.975 15.2267C108.297 15.267 109.669 15.2174 110.998 15.0315C112.327 14.8456 113.727 14.6379 114.993 14.2475C116.28 13.9252 117.595 13.4449 118.931 13.0327C120.268 12.6206 121.604 12.2084 122.919 11.7281L130.965 9.0971C132.302 8.6849 133.779 8.22941 135.333 8.27281C136.1 8.26041 136.817 8.33791 137.555 8.48361C138.294 8.62921 139.032 8.7748 139.722 9.0104C142.549 9.9308 144.996 11.8645 146.332 14.4397C147.668 17.0149 147.928 19.8474 148.356 22.4783C148.665 25.2209 148.602 28.0037 148.144 30.7587C148.165 30.8269 148.095 30.8486 148.025 30.8702C147.933 30.8238 147.912 30.7556 147.891 30.6874Z" fill="#1C4C5F"/>
<path d="M117.523 20.1886C117.276 20.6379 117.009 21.0191 116.763 21.4685C116.496 21.8496 116.249 22.299 115.912 22.7018C115.644 23.083 115.44 23.6687 115.018 23.7988C114.828 23.9321 114.547 24.0189 114.245 24.0375C113.963 24.1242 113.661 24.1428 113.246 24.0467C113.155 24.0003 113.063 23.9538 113.112 23.8639C113.077 23.5013 113.134 23.1852 113.211 22.9373C113.288 22.6894 113.366 22.4415 113.535 22.2401C113.781 21.7907 114.365 21.6854 114.744 21.4189C115.124 21.1524 115.595 20.9323 116.046 20.6441C116.517 20.4241 116.897 20.1576 117.389 20.0057C117.459 19.9841 117.551 20.0305 117.551 20.0305C117.501 20.1204 117.523 20.1886 117.523 20.1886Z" fill="#1C4C5F"/>
<path d="M133.403 29.1815C134.43 29.0142 135.415 28.7105 136.195 28.2456C137.046 27.7591 137.694 27.1114 138.158 26.3708C138.425 25.9896 138.531 25.5837 138.707 25.156C138.812 24.7501 138.988 24.3224 139.164 23.8947C139.516 23.0394 139.867 22.1841 140.388 21.1274C140.437 21.0375 140.508 21.0158 140.529 21.084C140.529 21.084 140.529 21.084 140.55 21.1522C140.929 21.6325 141.098 22.1779 141.197 22.745C141.295 23.3122 141.323 23.901 141.26 24.4433C141.154 25.5961 140.31 26.6032 139.564 27.4306C138.748 28.2797 137.707 28.8995 136.652 29.2249C135.597 29.5503 134.458 29.6029 133.396 29.4077C133.326 29.4294 133.305 29.3612 133.284 29.293C133.333 29.2032 133.333 29.2032 133.403 29.1815Z" fill="#1C4C5F"/>
<path d="M141.046 40.1921C138.915 40.7747 136.734 41.4471 134.666 42.2343C132.578 42.9532 130.552 43.8767 128.547 44.8683C127.556 45.3982 126.564 45.9281 125.389 46.3651C124.215 46.802 122.907 47.0561 121.683 46.8361C119.116 46.5076 117.006 44.9178 115.86 42.9562C115.839 42.888 115.818 42.8199 115.888 42.7982C115.959 42.7765 115.959 42.7765 115.959 42.7765C116.964 43.2878 117.9 43.8208 118.912 44.106C119.855 44.4127 120.846 44.6297 121.845 44.6204C123.702 44.6452 125.692 44.106 127.809 43.229C129.947 42.4202 132.107 41.6795 134.329 41.1434C136.552 40.6073 138.746 40.2293 140.961 39.9194C141.032 39.8977 141.053 39.9659 141.074 40.034C141.165 40.0805 141.116 40.1704 141.046 40.1921Z" fill="#1C4C5F"/>
<path d="M120.848 37.1612C117.964 38.0506 115.08 38.9399 112.267 39.8076C110.86 40.2415 109.383 40.697 107.956 41.0627L103.623 42.2496C102.216 42.6834 100.789 43.0491 99.516 43.6658C98.313 44.2608 97.082 45.0138 96.034 45.8598C93.776 47.527 91.919 49.7428 90.125 52.163C90.076 52.2529 89.985 52.2064 89.985 52.2064C89.964 52.1382 89.964 52.1382 89.942 52.07C90.66 49.1601 92.257 46.3525 94.62 44.2793C95.837 43.2319 97.188 42.3673 98.693 41.7537C100.219 41.2083 101.738 40.8891 103.187 40.5916L107.625 39.7456C109.074 39.4482 110.523 39.1506 112.042 38.8315C115.01 38.2148 117.908 37.6198 120.876 37.0031C120.946 36.9814 120.967 37.0496 120.988 37.1178C120.967 37.0496 120.918 37.1395 120.848 37.1612Z" fill="#1C4C5F"/>
<path d="M98.587 40.6658C98.7 39.2868 98.813 37.9078 98.714 36.5938C98.686 35.2582 98.497 33.8978 98.187 32.6489C97.927 31.3101 97.337 30.1481 97.098 28.8775C96.978 28.2422 96.789 27.6286 96.648 26.9252C96.507 26.2217 96.388 25.5864 96.388 24.8396C96.367 24.7714 96.437 24.7497 96.508 24.728C96.508 24.728 96.578 24.7063 96.599 24.7745C97.802 25.6732 98.645 26.9066 99.208 28.2267C99.489 28.8868 99.7 29.5686 99.77 30.2937C99.84 31.0189 99.911 31.744 99.981 32.4691C100.121 33.9194 100.03 35.3667 99.847 36.7674C99.664 38.1681 99.319 39.544 98.812 40.8952C98.833 40.9633 98.763 40.985 98.672 40.9385C98.629 40.8022 98.608 40.734 98.587 40.6658Z" fill="#1C4C5F"/>
<path d="M138.287 52.6929C134.883 55.3858 130.986 57.4838 126.857 58.8318C122.658 60.2015 118.256 60.6632 113.987 61.3078C111.841 61.596 109.626 61.9059 107.418 61.9895C106.349 62.0205 105.188 62.005 104.189 62.0143C103.655 62.0298 103.191 62.0236 102.748 62.0856C102.305 62.1476 102.023 62.2343 101.693 62.411C101.362 62.5876 101.053 62.8324 100.856 63.1919C100.638 63.4832 100.462 63.9108 100.237 64.4284C99.836 65.374 99.315 66.43 98.682 67.372C97.486 69.235 95.903 70.843 94.053 72.086C93.983 72.107 93.913 72.129 93.892 72.061C93.871 71.993 93.871 71.993 93.92 71.903C95.341 70.27 96.487 68.497 97.311 66.675C97.712 65.73 98.042 64.8064 98.352 63.8148C98.507 63.3189 98.711 62.7333 99.076 62.1723C99.442 61.6114 99.97 61.0753 100.469 60.6972C101.039 60.2975 101.813 60.0589 102.396 59.9535C103.05 59.8265 103.606 59.8791 104.211 59.842C105.301 59.8792 106.391 59.9164 107.46 59.8854C109.57 59.9814 111.687 59.8513 113.853 59.6313C118.115 59.2129 122.441 58.9991 126.562 57.8773C130.705 56.8237 134.594 54.9519 138.174 52.5782C138.245 52.5565 138.315 52.5348 138.336 52.603C138.336 52.603 138.357 52.6712 138.287 52.6929Z" fill="#1C4C5F"/>
<path d="M85.608 68.941C85.059 70.902 84.672 72.889 84.608 74.925C84.615 76.939 84.995 78.913 85.845 80.667C86.281 81.578 86.956 82.266 87.702 82.932C88.447 83.598 89.193 84.265 90.008 84.909L94.713 88.91C96.274 90.221 97.786 91.622 99.298 93.022C100.064 93.757 100.81 94.423 101.478 95.337C101.787 95.839 102.026 96.363 102.195 96.908C102.364 97.454 102.462 98.021 102.469 98.542C102.525 99.719 102.237 100.779 101.997 101.749C101.758 102.719 101.519 103.689 101.441 104.684C101.272 105.632 101.286 106.673 101.258 107.578C101.321 108.529 101.476 109.527 101.609 110.457C102.368 114.405 103.219 118.4 104.119 122.304C104.568 124.256 105.018 126.209 105.56 128.208C105.784 129.184 106.052 130.296 106.087 131.406C106.122 132.515 106.044 133.51 105.988 134.573C105.91 135.568 105.833 136.562 106.023 137.176C106.107 137.449 106.219 137.563 106.473 137.635C106.655 137.728 107.049 137.755 107.492 137.693C108.379 137.57 109.321 137.13 110.214 136.779C111.178 136.407 112.12 135.967 113.154 135.574C117.1 134.133 121.243 133.079 125.371 132.478C125.441 132.456 125.462 132.525 125.484 132.593C125.505 132.661 125.434 132.683 125.364 132.704C121.334 133.873 117.458 135.292 113.667 136.984C112.725 137.424 111.782 137.864 110.84 138.304C109.897 138.744 108.906 139.274 107.738 139.485C107.154 139.59 106.409 139.671 105.649 139.457C105.305 139.339 104.918 139.085 104.602 138.809C104.285 138.533 104.088 138.146 103.983 137.805C103.702 137.145 103.674 136.556 103.645 135.967C103.617 135.379 103.632 134.926 103.695 134.384C103.772 133.389 103.759 132.348 103.787 131.443C103.745 130.56 103.541 129.652 103.316 128.676C102.866 126.723 102.395 124.703 102.016 122.729C101.636 120.755 101.236 118.713 100.926 116.717C100.617 114.721 100.238 112.747 99.907 110.683C99.753 109.685 99.577 108.619 99.634 107.556C99.669 106.425 99.746 105.43 99.894 104.414C100.042 103.398 100.33 102.338 100.57 101.368C100.879 100.376 101.14 99.474 101.098 98.591C101.112 98.139 101.056 97.708 100.908 97.231C100.76 96.753 100.655 96.413 100.388 96.047C99.853 95.316 99.157 94.559 98.412 93.893C96.97 92.471 95.458 91.07 93.967 89.737L89.453 85.603C88.707 84.937 87.941 84.203 87.174 83.468C86.408 82.734 85.691 81.91 85.304 80.909C84.411 79.018 84.06 76.886 84.193 74.828C84.327 72.771 84.785 70.763 85.404 68.779C85.383 68.711 85.453 68.689 85.545 68.736C85.566 68.804 85.657 68.851 85.608 68.941Z" fill="#1C4C5F"/>
<path d="M76.1341 174.549C76.514 173.536 76.9854 172.569 77.5481 171.649C78.1812 170.707 78.9479 169.947 80.01 169.396C81.0017 168.866 82.3099 168.612 83.4141 168.943C84.497 169.207 85.482 169.65 86.494 169.935C87.507 170.22 88.499 170.437 89.519 170.496C90.538 170.555 91.495 170.409 92.479 170.106C94.47 169.566 96.425 168.665 98.381 167.763C100.336 166.861 102.291 165.959 104.134 164.943C105.055 164.435 105.998 163.995 106.666 163.415C107.046 163.149 107.194 162.879 107.292 162.699C107.369 162.451 107.475 162.045 107.37 161.704C107.278 160.911 106.934 160.046 106.378 159.247C105.893 158.426 105.197 157.67 104.501 156.913C103.108 155.401 101.477 154.112 99.824 152.755C99.803 152.687 99.782 152.618 99.782 152.618C99.852 152.597 99.853 152.597 99.923 152.575C101.941 153.371 103.812 154.437 105.556 155.841C106.393 156.554 107.23 157.267 107.968 158.159C108.706 159.052 109.325 160.056 109.585 161.395C109.704 162.03 109.683 162.708 109.451 163.452C109.149 164.218 108.621 164.754 108.143 165.2C107.144 165.956 106.131 166.418 105.118 166.88C103.072 167.735 101.074 168.5 99.098 169.334C97.1 170.099 95.053 170.955 92.831 171.491C91.755 171.748 90.545 171.822 89.434 171.717C88.323 171.612 87.169 171.37 86.185 170.927C85.151 170.573 84.216 170.04 83.2733 169.734C82.3309 169.427 81.3533 169.504 80.4108 169.944C79.4683 170.384 78.6805 171.075 78.0756 171.86C77.4003 172.665 76.9079 173.564 76.4576 174.599C76.4084 174.689 76.4084 174.689 76.3169 174.642C76.1552 174.618 76.1341 174.549 76.1341 174.549Z" fill="#1C4C5F"/>
<path d="M113.911 152.965L106.898 155.949L103.346 157.418C102.193 157.923 100.997 158.292 99.865 158.865C98.711 159.37 97.67 159.99 96.671 160.746C96.172 161.124 95.673 161.502 95.244 161.859C94.815 162.215 94.357 162.73 93.717 163.151C93.077 163.573 92.465 163.836 91.741 163.985C91.016 164.133 90.25 164.146 89.603 164.047C88.238 163.87 87.043 163.492 85.798 163.204C84.553 162.916 83.3998 162.674 82.1761 162.454C80.9524 162.234 79.6794 162.104 78.4768 161.952C77.2742 161.8 76.0223 161.738 74.8829 161.791C73.7436 161.843 72.555 161.986 72.0063 162.454C71.7672 162.677 71.5984 162.878 71.5842 163.331C71.549 163.715 71.7177 164.26 71.8654 164.738C72.2309 165.67 72.9482 166.495 73.8835 167.028C75.8456 168.14 78.3915 168.401 80.9094 168.072C80.9798 168.05 81.0008 168.119 81.0219 168.187C81.043 168.255 80.9727 168.277 80.9727 168.277C78.5532 169.172 75.7329 169.519 73.1449 168.376C71.8368 167.883 70.7328 166.805 70.1 165.506C69.8187 164.846 69.5375 164.186 69.5165 163.371C69.5306 162.919 69.5659 162.534 69.7418 162.107C69.9176 161.679 70.1849 161.298 70.5437 160.963C71.2611 160.294 72.0348 160.055 72.7592 159.906C73.4836 159.758 74.1588 159.699 74.834 159.64C76.2055 159.59 77.4995 159.789 78.7936 159.987C80.0876 160.185 81.3324 160.474 82.5561 160.694C83.8009 160.982 85.046 161.27 86.312 161.626C87.507 162.004 88.703 162.383 89.835 162.556C90.412 162.677 90.946 162.661 91.46 162.578C91.973 162.494 92.536 162.321 92.986 162.032C93.436 161.744 93.844 161.32 94.344 160.942C94.822 160.495 95.413 160.164 95.912 159.786C97.002 159.076 98.205 158.481 99.358 157.976L113.707 152.804C113.777 152.782 113.868 152.829 113.868 152.829C113.96 152.875 113.981 152.943 113.911 152.965Z" fill="#1C4C5F"/>
<path d="M69.9181 167.654C68.9193 168.41 67.808 169.051 66.5209 169.374C65.2338 169.696 63.778 169.473 62.5895 168.869C61.3799 168.196 60.5009 167.347 59.6008 166.43C58.7007 165.512 57.9624 164.62 57.1326 163.681C56.3029 162.742 55.4731 161.803 54.7137 160.842C53.9542 159.882 53.2651 158.899 52.5971 157.985C51.2118 156.247 49.4257 154.706 47.4777 153.141C47.4566 153.073 47.4355 153.005 47.4355 153.005C47.4355 153.005 47.5059 152.983 47.5762 152.962C48.8703 153.16 50.0166 153.628 51.2051 154.232C52.3233 154.858 53.4132 155.642 54.3133 156.56C55.2345 157.545 55.9236 158.527 56.5635 159.6C57.1823 160.604 57.8714 161.586 58.5605 162.568C59.2496 163.551 60.009 164.511 60.7684 165.472C61.5068 166.365 62.3365 167.304 63.2226 167.926C64.1087 168.549 65.2832 168.859 66.4718 168.717C67.6604 168.574 68.8349 168.137 69.8759 167.517C69.9462 167.496 70.0166 167.474 70.0376 167.542C69.9673 167.564 69.9884 167.632 69.9181 167.654Z" fill="#1C4C5F"/>
<path d="M38.4155 125.093C37.6697 127.414 37.0856 129.76 36.6633 132.131C36.241 134.501 36.0719 136.943 35.8817 139.317C35.7829 141.737 35.6137 144.179 36.3589 146.339C36.5277 146.885 36.7667 147.408 37.0058 147.932C37.1605 148.183 37.3152 148.434 37.4698 148.685C37.6245 148.936 37.8285 149.097 38.0324 149.258C38.8903 150.039 39.8397 150.867 40.7187 151.716C42.4064 153.436 44.1152 155.224 45.7536 157.034C46.5834 157.973 47.3217 158.865 48.1023 159.894C48.8125 160.944 49.4523 162.017 49.9515 163.132C50.1906 163.656 50.4789 164.09 50.8375 164.502C51.1961 164.914 51.5548 165.326 51.9837 165.717C52.3916 166.039 52.8487 166.272 53.3972 166.55C53.9247 166.761 54.5436 167.018 55.0921 167.297C56.2806 167.902 57.2792 168.639 58.2285 169.467C59.1779 170.294 60.0287 171.301 60.8163 172.104C61.625 172.975 62.4408 173.619 63.4464 174.13C63.9739 174.341 64.431 174.574 65.0077 174.694C65.3312 174.744 65.7671 174.908 66.0414 175.048C66.386 175.166 66.6814 175.373 66.9557 175.513C68.1653 176.185 69.1286 177.307 69.7966 178.221C70.1552 178.633 70.4928 178.977 70.8585 179.163C71.0413 179.256 71.2241 179.349 71.4562 179.352C71.6883 179.355 71.7094 179.423 71.8501 179.38C71.9907 179.337 72.3214 179.16 72.7645 179.098C73.1865 178.968 73.5593 178.928 73.9531 178.956C74.7197 178.943 75.4582 179.089 76.1474 179.324C76.8366 179.56 77.4062 179.907 77.9337 180.118C78.4611 180.328 78.9885 180.539 79.4949 180.682C80.0013 180.824 80.6694 180.992 81.1546 181.066C81.4078 181.137 81.7103 181.119 81.872 181.143C82.0338 181.168 82.315 181.081 82.0337 181.168C81.9633 181.19 81.9141 181.28 81.8649 181.37C81.8156 181.459 81.7664 181.549 81.7874 181.618C81.7593 181.776 81.7876 181.618 81.7665 181.549L81.5133 180.731C81.3235 180.118 81.2041 179.482 81.0846 178.847C81.0706 178.553 80.9862 178.28 80.93 177.849C80.8878 177.713 80.937 177.623 80.9441 177.397C80.9933 177.307 80.9511 177.171 81.0496 176.991C81.127 176.743 81.1974 176.721 81.2466 176.631C81.5139 176.25 81.936 176.12 82.2173 176.033C82.358 175.99 82.5197 176.015 82.6604 175.971C82.8011 175.928 82.8924 175.974 82.9628 175.953C83.1948 175.956 83.3567 175.981 83.5184 176.005C83.842 176.055 84.187 176.173 84.51 176.222C85.755 176.511 86.8589 176.842 88.0619 176.994C89.1939 177.168 90.375 177.251 91.606 177.245C92.211 177.208 92.746 177.192 93.329 177.087C93.913 176.982 94.497 176.876 95.151 176.749C95.826 176.69 96.5929 176.678 97.2399 176.777C97.8869 176.876 98.555 177.044 99.153 177.233C100.369 177.679 101.579 178.351 102.409 179.29C104.23 181.193 104.771 183.939 104.279 186.331C104.3 186.399 104.229 186.421 104.159 186.443C104.089 186.464 104.068 186.396 104.046 186.328C104.131 185.107 104.005 183.951 103.597 182.882C103.189 181.813 102.57 180.809 101.733 180.096C100.876 179.315 99.8699 178.804 98.7659 178.472C98.1889 178.351 97.6119 178.23 97.0569 178.178C96.5009 178.125 95.967 178.141 95.453 178.224C94.94 178.308 94.307 178.503 93.674 178.698C93.02 178.825 92.366 178.952 91.69 179.011C90.41 179.107 89.088 179.067 87.815 178.937C86.542 178.807 85.2969 178.519 84.0739 178.299C83.7501 178.249 83.497 178.178 83.2649 178.175C83.1031 178.15 83.0117 178.103 82.9413 178.125C82.871 178.147 82.8711 178.147 82.7797 178.1C82.7797 178.1 82.7796 178.1 82.7093 178.122C82.7093 178.122 82.85 178.079 82.8993 177.989C82.9696 177.967 82.8993 177.989 82.9978 177.809C83.047 177.719 83.0259 177.651 83.0259 177.651C83.0048 177.583 83.0259 177.651 83.0259 177.651C83.0681 177.787 83.1031 178.15 83.1875 178.423C83.2858 178.99 83.4546 179.535 83.6233 180.08L83.8974 180.967C83.9607 181.171 84.0239 181.376 83.9888 181.76C83.9817 181.986 83.9044 182.234 83.7356 182.436C83.6371 182.615 83.4682 182.817 83.2783 182.95C82.8984 183.217 82.5961 183.235 82.3851 183.3C82.1038 183.387 81.9419 183.362 81.7099 183.359C81.316 183.331 80.9223 183.303 80.5988 183.254C79.9517 183.155 79.3538 182.966 78.6857 182.798C78.0176 182.631 77.3987 182.374 76.7799 182.116C76.161 181.859 75.6829 181.559 75.2469 181.394C74.8108 181.23 74.2552 181.177 73.791 181.171C73.559 181.168 73.3268 181.165 73.1158 181.23C72.9048 181.295 72.6938 181.36 72.2718 181.49C71.8498 181.621 71.2238 181.59 70.8089 181.494C70.394 181.397 70.0494 181.28 69.6838 181.094C68.9524 180.722 68.46 180.127 68.0803 179.647C67.2998 178.618 66.6741 177.84 65.7387 177.307C65.5348 177.146 65.2605 177.006 65.0777 176.913C64.8034 176.774 64.7119 176.727 64.3884 176.678C64.0649 176.628 63.7204 176.51 63.4461 176.371C63.1015 176.253 62.8272 176.114 62.553 175.974C61.3645 175.37 60.3026 174.428 59.4728 173.489C58.6431 172.55 57.9047 171.658 57.0468 170.877C56.1889 170.096 55.2817 169.405 54.2549 168.825C53.7767 168.524 53.2493 168.314 52.6304 168.057C52.0819 167.778 51.4419 167.452 50.9215 167.015C50.4012 166.578 49.9511 166.12 49.5503 165.571C49.1495 165.023 48.819 164.452 48.5589 163.861C48.0808 162.813 47.5323 161.787 46.8432 160.805C46.2245 159.801 45.4158 158.93 44.6563 157.969C43.0882 156.138 41.4498 154.328 39.8324 152.587C39.0237 151.716 38.1447 150.867 37.2657 150.018C37.0407 149.788 36.8156 149.559 36.6399 149.24C36.4852 148.989 36.3094 148.67 36.1547 148.419C35.8946 147.827 35.6344 147.235 35.4657 146.689C34.7768 144.213 35.0163 141.75 35.2065 139.376C35.467 136.98 35.6362 134.538 36.1991 132.124C36.6918 129.732 37.3462 127.364 38.1834 125.09C38.1623 125.022 38.2327 125 38.3241 125.046C38.4437 124.935 38.4647 125.003 38.4155 125.093Z" fill="#1C4C5F"/>
<path d="M91.916 180.735C91.986 182.207 92.429 183.638 93.252 184.804C94.145 185.947 95.375 186.688 96.754 187.159C97.443 187.394 98.16 187.472 98.878 187.549C99.595 187.627 100.249 187.5 101.065 187.397C102.697 187.193 104.518 187.602 105.96 188.278C107.38 188.885 108.752 189.582 110.144 190.348C110.805 190.741 111.466 191.135 112.127 191.528C112.423 191.736 112.718 191.944 112.992 192.083C113.267 192.223 113.52 192.294 113.794 192.433C114.898 192.765 116.298 192.557 117.683 192.055C119.069 191.553 120.391 190.847 121.784 190.118C121.854 190.097 121.925 190.075 121.946 190.143C121.967 190.211 121.967 190.211 121.918 190.301C120.905 191.51 119.758 192.536 118.337 193.422C117.627 193.865 116.874 194.172 116.03 194.432C115.165 194.624 114.258 194.68 113.287 194.531C112.802 194.457 112.366 194.293 111.909 194.06C111.473 193.896 111.157 193.62 110.861 193.412L109.019 192.188C107.837 191.358 106.515 190.571 105.214 189.852C104.574 189.526 103.934 189.201 103.266 189.034C102.598 188.866 101.951 188.767 101.205 188.848C100.53 188.907 99.623 188.962 98.814 188.838C98.005 188.714 97.246 188.501 96.465 188.219C94.974 187.633 93.659 186.62 92.773 185.25C91.979 183.927 91.634 182.315 91.796 180.846C91.775 180.778 91.846 180.756 91.916 180.735C91.874 180.598 91.895 180.667 91.916 180.735Z" fill="#1C4C5F"/>
<path d="M102.824 171.918C104.737 172.374 106.643 173.055 108.275 174.345C109.09 174.989 109.716 175.767 110.314 176.703C110.841 177.66 111.087 178.705 111.39 179.433C111.692 180.161 112.276 180.803 112.979 181.333C113.612 181.884 114.364 182.324 115.046 182.786C115.433 183.04 115.799 183.226 116.143 183.344C116.509 183.53 116.924 183.626 117.339 183.722C117.733 183.75 118.127 183.778 118.478 183.669C118.83 183.561 119.21 183.294 119.547 182.891C119.618 182.87 119.688 182.848 119.709 182.916L119.73 182.984C119.667 183.527 119.442 184.044 119.034 184.469C118.555 184.915 117.944 185.178 117.339 185.216C116.15 185.358 114.997 185.117 114.012 184.673C113.028 184.23 112.142 183.607 111.424 182.783C110.707 181.959 110.039 181.045 109.723 180.022C109.385 178.931 109.294 178.138 108.971 177.341C108.647 176.545 108.113 175.814 107.508 175.104C106.249 173.774 104.561 172.801 102.796 172.076C102.705 172.03 102.705 172.03 102.754 171.94C102.754 171.94 102.733 171.872 102.824 171.918Z" fill="#1C4C5F"/>
<path d="M84.087 183.074C84.756 183.241 85.353 183.43 86 183.53C86.647 183.629 87.203 183.681 87.808 183.644C88.413 183.607 88.933 183.297 89.489 183.35C89.791 183.331 90.044 183.403 90.368 183.452C90.691 183.502 91.015 183.551 91.5 183.626C91.592 183.672 91.613 183.74 91.634 183.808C91.352 184.642 90.663 185.153 89.91 185.46C89.158 185.767 88.307 185.507 87.639 185.339C86.9 185.194 86.26 184.868 85.62 184.543C85.051 184.196 84.46 183.781 83.9889 183.254C83.9679 183.186 83.9468 183.117 84.017 183.096C84.017 183.096 84.017 183.096 84.087 183.074Z" fill="#1C4C5F"/>
<path d="M41.0654 129.428C40.5869 131.368 40.3405 133.311 40.3965 135.236C40.3822 137.182 40.7195 139.019 41.2186 140.882C41.6966 142.676 42.7162 144.229 43.7147 145.713C44.7343 147.266 45.993 148.595 47.5049 149.996C47.526 150.064 47.5471 150.132 47.4767 150.154L47.4064 150.176C45.3528 149.763 43.44 148.561 42.0266 146.981C41.3093 146.156 40.7327 145.289 40.3461 144.288C39.9594 143.287 39.7134 142.242 39.5588 141.244C39.4042 140.247 39.3199 139.227 39.2357 138.207C39.2217 137.166 39.2289 136.193 39.3767 135.177C39.6724 133.144 40.1509 131.204 40.9529 129.313C41.0021 129.224 41.0022 129.224 41.0936 129.27C41.0936 129.27 41.1147 129.338 41.0654 129.428Z" fill="#1C4C5F"/>
<path d="M51.5572 145.909C50.5516 144.651 49.7852 143.169 49.3705 141.58C48.9558 139.99 48.8224 138.313 49.1039 136.733C49.294 135.106 49.7866 133.46 50.7362 132.047C51.2216 131.375 51.8476 130.659 52.558 130.216C53.2473 129.704 54.1406 129.354 55.0057 129.162C56.7359 128.778 58.4519 128.846 60.0976 128.936C61.7223 128.958 63.4805 129.162 65.0699 129.568C65.8998 129.76 66.6382 129.906 67.4892 130.166C67.9041 130.262 68.3402 130.427 68.8184 130.727C69.0926 130.867 69.2473 131.118 69.3809 131.3C69.5145 131.483 69.6692 131.734 69.8028 131.917C70.2598 132.896 70.2316 133.801 70.3018 134.526C70.372 135.252 70.5126 135.955 70.9134 136.504C71.2439 137.074 71.6939 137.532 72.2847 137.948C72.8754 138.363 73.6068 138.735 74.2678 139.128C75.6603 139.894 77.0316 140.591 78.4663 140.746C79.1134 140.845 79.8096 140.854 80.4426 140.659C81.0053 140.486 81.5961 140.154 81.983 139.661C82.4613 139.215 82.8271 138.654 83.1507 137.957C83.4251 137.35 83.608 136.696 83.7699 135.974C83.9529 134.573 83.8828 133.101 83.4399 131.669C83.0181 130.306 82.2939 128.961 81.2813 127.929C80.2687 126.897 78.9466 126.11 77.3783 125.772C75.8803 125.413 74.2064 125.481 72.6169 125.822C72.5465 125.843 72.5254 125.775 72.5043 125.707C72.4833 125.639 72.5536 125.617 72.5536 125.617C74.108 124.914 75.81 124.687 77.5261 124.755C78.4052 124.858 79.2351 125.05 80.1071 125.378C80.9088 125.729 81.6613 126.169 82.3857 126.767C83.7429 127.916 84.741 129.401 85.318 131.015C85.965 132.608 86.14 134.421 85.992 136.184C85.873 137.043 85.612 137.945 85.261 138.8C84.888 139.587 84.374 140.418 83.6778 141.155C82.9814 141.893 82.06 142.401 81.0753 142.705C80.0907 143.008 79.0709 142.949 78.1003 142.801C76.2296 142.481 74.7246 141.601 73.29 140.7C72.6079 140.238 71.8765 139.866 71.1733 139.336C70.47 138.806 69.7739 138.05 69.359 137.207C68.9442 136.364 68.7403 135.456 68.6983 134.573C68.6562 133.69 68.6774 133.011 68.4383 132.487C68.3961 132.351 68.2836 132.236 68.2415 132.1C68.1289 131.985 68.0164 131.871 67.925 131.824C67.7211 131.663 67.3765 131.545 67.0319 131.427C66.3427 131.192 65.5128 131 64.7533 130.786C63.2342 130.358 61.708 130.157 60.0412 129.999C58.3955 129.909 56.799 129.729 55.2798 130.048C53.7396 130.299 52.3891 131.164 51.5379 132.397C50.6164 133.652 50.0817 135.162 49.7791 136.674C49.4975 138.254 49.5184 139.816 49.8418 141.36C50.1651 142.903 50.84 144.338 51.7753 145.617C51.7963 145.686 51.8174 145.754 51.7471 145.775C51.6486 145.955 51.5572 145.909 51.5572 145.909Z" fill="#1C4C5F"/>
<path d="M74.1918 134.148C72.0187 133.101 70.0708 131.536 68.6925 129.571C67.3143 127.606 66.5762 125.22 66.3726 122.819C66.3165 121.641 66.38 120.352 66.788 119.18C67.1961 118.009 67.8363 116.841 68.814 116.016C69.7706 115.124 70.903 114.551 72.169 114.16C73.3647 113.791 74.6236 113.627 75.9036 113.531C78.4144 113.429 80.9533 113.915 83.1475 115.031C84.245 115.589 85.292 116.237 86.291 116.974C87.219 117.733 88.169 118.561 88.998 119.5C92.205 123.141 94.413 127.538 95.776 132.196C96.494 134.514 97 136.897 97.133 139.32C97.21 140.566 97.196 141.766 96.992 143.098C96.766 144.362 96.309 145.624 95.81 146.749C95.514 147.288 95.169 147.917 94.804 148.478C94.417 148.971 94.03 149.463 93.573 149.978C92.707 150.917 91.751 151.809 90.661 152.519C89.57 153.228 88.368 153.823 87.081 154.146C86.448 154.341 85.632 154.443 85.027 154.48C84.331 154.471 83.7047 154.44 83.0577 154.341C80.5399 153.923 78.2613 153.281 75.8912 152.593C73.6126 151.952 71.2426 151.264 68.9921 150.464C66.7416 149.665 64.4419 148.955 62.1633 148.313C59.8847 147.672 57.4865 147.142 55.1586 146.59C55.0883 146.612 55.0672 146.544 55.0461 146.476C55.025 146.408 55.0954 146.386 55.1657 146.364C57.6202 146.578 59.9551 146.903 62.4026 147.343C64.7797 147.805 67.1779 148.335 69.4565 148.977C71.8054 149.596 74.063 150.17 76.4612 150.7C78.789 151.251 81.138 151.871 83.3815 152.15C84.514 152.324 85.583 152.293 86.497 152.011C87.552 151.685 88.565 151.223 89.444 150.579C90.344 150.002 91.273 149.268 92.019 148.441C92.427 148.016 92.764 147.613 93.081 147.142C93.397 146.671 93.665 146.29 93.89 145.772C94.361 144.806 94.811 143.771 95.008 142.664C95.227 141.626 95.262 140.495 95.227 139.386C95.136 137.099 94.742 134.83 94.138 132.627C92.929 128.22 90.904 123.916 87.971 120.414C87.233 119.521 86.445 118.719 85.538 118.028C84.68 117.247 83.7239 116.646 82.7183 116.134C80.6859 115.043 78.3791 114.56 76.009 114.619C73.7092 114.656 71.2335 115.121 69.5383 116.615C68.6802 117.327 68.0682 118.338 67.6882 119.351C67.3294 120.432 67.2237 121.585 67.2588 122.695C67.3499 124.982 67.9966 127.321 69.2834 129.24C70.5702 131.158 72.3774 132.766 74.4802 133.835C74.5716 133.882 74.5927 133.95 74.5223 133.972C74.3324 134.105 74.2621 134.127 74.1918 134.148Z" fill="#1C4C5F"/>
<path d="M65.0922 121.421C63.587 122.035 61.9483 122.465 60.3096 122.149C59.5008 122.025 58.6288 121.697 57.9959 121.145C57.2716 120.547 56.9481 119.751 56.6458 119.022C56.0904 117.476 55.7179 116.023 55.1343 114.634C54.5508 113.246 53.8969 111.879 53.1023 110.556C52.3289 109.301 51.3796 107.727 51.2041 105.914C51.0916 105.052 51.1199 104.147 51.3099 103.267C51.4999 102.387 51.8728 101.6 52.1964 100.903C53.3924 98.294 53.442 95.216 53.1893 92.158C53.1682 92.09 53.2385 92.068 53.3088 92.046C53.3792 92.024 53.4003 92.093 53.4003 92.093C54.0752 93.527 54.5603 95.095 54.743 96.682C54.9256 98.269 54.7777 100.032 54.1937 101.631C53.8912 102.397 53.6379 103.072 53.5253 103.704C53.4126 104.336 53.3211 105.037 53.3703 105.694C53.4194 106.351 53.5389 106.986 53.7498 107.668C53.9607 108.35 54.3122 108.988 54.6849 109.695C55.3599 111.129 55.9645 112.586 56.4988 114.064C57.0331 115.542 57.2861 117.107 57.729 118.539C57.9399 119.221 58.2211 119.881 58.6923 120.408C59.1423 120.866 59.8737 121.238 60.5418 121.405C61.9695 121.787 63.5801 121.514 65.1485 121.105C65.2189 121.083 65.24 121.151 65.261 121.22C65.2118 121.309 65.1415 121.331 65.0922 121.421Z" fill="#1C4C5F"/>
<path d="M50.4157 107.352C48.6854 108.483 46.7583 109.227 44.7257 109.63C42.672 109.964 40.5761 110.163 38.5507 109.593C37.538 109.308 36.5534 108.864 35.7377 108.22C34.9008 107.507 34.3031 106.571 34.0079 105.617C33.7126 104.662 33.4877 103.686 33.1924 102.732C32.9675 101.755 32.6723 100.801 32.3981 99.915C31.8076 98.006 31.1678 96.187 30.4577 94.389C29.6773 92.614 28.8758 90.77 27.7366 89.329C27.1319 88.619 26.4779 87.999 25.7184 87.785C24.9588 87.572 23.9601 87.581 23.2779 87.866C22.9262 87.974 22.6167 88.219 22.3987 88.511C22.1806 88.802 21.9836 89.161 21.8781 89.567C21.5967 90.401 21.4981 91.327 21.4909 92.301C21.3851 94.2 21.5326 96.171 21.68 98.142C21.6869 98.663 21.7431 99.093 21.7712 99.682C21.7782 100.203 21.8273 100.86 21.3138 101.69C21.0465 102.071 20.6174 102.428 20.1954 102.558C19.7734 102.688 19.3303 102.75 19.0068 102.701C18.2894 102.623 17.762 102.412 17.2345 102.202C16.7071 101.991 16.2289 101.69 15.7296 101.321C15.5046 101.092 15.3006 100.931 15.0053 100.723C14.7803 100.494 14.6256 100.243 14.4005 100.014C13.7114 99.031 13.2826 97.894 13.1069 96.828C12.7555 94.696 12.8894 92.638 13.0937 90.559C13.5443 86.536 14.0372 82.65 14.3472 78.671C14.6572 74.692 14.9883 70.782 15.2772 66.734C15.2561 66.666 15.3264 66.644 15.3968 66.623C15.4671 66.601 15.4882 66.669 15.5093 66.737C16.1904 74.668 15.9853 82.722 15.2739 90.633C15.1189 92.623 15.0835 94.501 15.3997 96.27C15.5825 97.11 15.8356 97.928 16.2785 98.613L16.6583 99.093L17.0872 99.484C17.4037 99.76 17.7694 99.946 18.1351 100.132C18.5008 100.317 18.9368 100.482 19.2392 100.463C19.4009 100.488 19.4713 100.466 19.5416 100.445C19.612 100.423 19.5416 100.445 19.612 100.423C19.6823 100.401 19.7667 99.927 19.802 99.543C19.8161 99.09 19.8091 98.57 19.7529 98.139C19.6758 96.146 19.5987 94.154 19.7327 92.096C19.8102 91.101 19.9369 90.017 20.2957 88.935C20.5209 88.418 20.7249 87.832 21.2032 87.386C21.5901 86.893 22.1598 86.493 22.7928 86.298C23.4258 86.103 24.0096 85.997 24.5441 85.982C25.1489 85.945 25.7256 86.065 26.3234 86.255C27.5401 86.701 28.3487 87.572 28.9746 88.349C30.1981 90.063 30.9996 91.907 31.7308 93.773C32.462 95.638 33.0525 97.547 33.5727 99.478C33.7976 100.454 34.0225 101.43 34.2474 102.406C34.4724 103.382 34.627 104.38 34.9011 105.266C35.1753 106.153 35.5901 106.996 36.3145 107.594C37.0388 108.192 37.8827 108.678 38.804 108.917C40.6676 109.462 42.7354 109.422 44.7398 109.177C46.7443 108.933 48.6714 108.189 50.4228 107.126C50.4931 107.104 50.5635 107.083 50.5845 107.151C50.465 107.262 50.4157 107.352 50.4157 107.352Z" fill="#1C4C5F"/>
<path d="M5.45566 89.031C4.28216 81.999 4.41676 74.714 6.16896 67.676C6.61936 65.894 7.16106 64.1589 8.02636 62.4731C8.82136 60.809 10.0313 59.2409 11.3959 57.9239C12.7605 56.6069 14.2587 55.4727 15.9819 54.5678C16.854 54.1495 17.7262 53.7311 18.753 53.5638C18.964 53.4987 19.2665 53.4801 19.5689 53.4615C19.8713 53.4429 20.1034 53.446 20.4269 53.4956C20.6801 53.5669 21.0036 53.6164 21.2568 53.6877C21.531 53.8272 21.7842 53.8984 22.0585 54.0379C22.6281 54.385 23.0289 54.9335 23.2469 55.389C23.4648 55.8446 23.6125 56.3218 23.739 56.7309C24.0132 57.6172 24.2663 58.4353 24.5404 59.3216L26.0518 64.4565C26.5087 66.183 27.036 67.887 27.5914 69.433C27.8445 70.252 28.2382 71.026 28.6179 71.507C28.7726 71.758 28.9766 71.919 29.2508 72.058C29.5251 72.198 29.6868 72.222 29.9893 72.204C30.5941 72.167 31.5577 71.795 32.3314 71.556C33.105 71.318 33.8365 70.943 34.5258 70.431C35.9255 69.477 37.058 68.157 38.3523 66.861C40.8283 64.156 43.4379 61.6335 46.2303 59.2039C46.3006 59.1822 46.371 59.1605 46.3921 59.2287C46.4132 59.2969 46.4132 59.2969 46.3639 59.3868C44.0708 62.1851 41.7776 64.9834 39.5056 67.85C38.3942 69.238 37.2546 70.785 35.7072 72.009C34.8983 72.632 34.0472 73.118 33.0836 73.49C32.6124 73.71 32.1904 73.84 31.7684 73.97C31.2761 74.122 30.7837 74.274 30.2 74.379C29.5951 74.416 28.8778 74.339 28.3292 74.06C27.7104 73.803 27.1899 73.366 26.9017 72.932C26.1633 72.04 25.8892 71.153 25.5447 70.289C24.926 68.538 24.5394 66.79 24.0825 65.064L22.8032 59.9321C22.6204 59.0923 22.3463 58.206 22.1635 57.3662C22.037 56.9571 21.9104 56.548 21.7347 56.2288C21.5589 55.9096 21.4253 55.7268 21.2213 55.5657C20.7431 55.2651 20.0047 55.1194 19.2099 55.2899C18.3941 55.3921 17.6415 55.6989 16.8397 56.0956C15.3064 56.8672 13.8574 57.9115 12.521 59.0705C11.1846 60.2295 10.1435 61.5961 9.30626 63.1239C8.46916 64.6517 7.90626 66.319 7.43486 68.033C5.45766 74.841 4.99956 82.077 5.84956 89.059C5.87066 89.127 5.80026 89.149 5.72996 89.17C5.49786 89.167 5.47676 89.099 5.45566 89.031Z" fill="#1C4C5F"/>
<path d="M15.3074 103.692C15.1593 106.202 15.6583 108.811 17.1068 110.754C17.7959 111.737 18.7242 112.496 19.8213 113.054C20.848 113.633 22.0647 114.079 23.1337 114.048C23.3658 114.052 23.5768 113.987 23.7878 113.921C23.9285 113.878 23.9777 113.788 24.027 113.698C24.1747 113.429 24.2381 112.886 24.1608 112.387C24.1258 111.278 23.8376 110.097 23.6197 108.895C23.4019 107.693 23.1137 106.512 22.8536 105.173C22.6147 103.903 22.5164 102.589 22.6502 101.278C22.6291 101.21 22.6994 101.188 22.7698 101.166C22.8401 101.145 22.8612 101.213 22.8612 101.213L24.4009 104.696C24.6611 105.288 24.9002 105.812 25.1814 106.472C25.4415 107.063 25.6313 107.677 25.8422 108.359C26.2429 109.654 26.4819 110.925 26.4113 112.44C26.3198 113.141 26.2705 113.977 25.6866 114.829C25.5178 115.031 25.349 115.232 25.0887 115.387C24.9691 115.499 24.8285 115.542 24.7581 115.564L24.4065 115.672C23.9141 115.824 23.45 115.818 23.0561 115.79C21.4596 115.61 20.2008 115.028 19.0405 114.265C17.8801 113.503 16.8886 112.539 16.2065 111.331C15.5245 110.122 15.1238 108.827 14.9552 107.535C14.7866 106.242 14.85 104.953 15.1456 103.667C15.1245 103.599 15.1948 103.577 15.2652 103.555C15.2863 103.624 15.3777 103.67 15.3074 103.692Z" fill="#1C4C5F"/>
<path d="M9.42812 103.115C8.92212 99.985 8.55682 96.812 8.26192 93.617C8.03732 90.4 7.97442 87.208 8.05222 83.973C8.13002 80.738 8.13752 77.524 8.77092 74.342C9.33402 71.181 10.1292 68.023 11.4307 65.008C11.48 64.9178 11.48 64.9178 11.5714 64.9643C11.6417 64.9426 11.6628 65.011 11.6136 65.101C11.5358 68.336 11.2048 71.5 10.9441 74.642C10.6835 77.785 10.1204 80.945 9.85972 84.088C9.59912 87.23 9.42982 90.419 9.42232 93.633C9.39382 96.778 9.47772 100.038 9.68132 103.187C9.70242 103.255 9.63202 103.276 9.56172 103.298C9.44922 103.183 9.44922 103.183 9.42812 103.115Z" fill="#1C4C5F"/>
<path d="M35.8909 124.901C33.2535 124.594 30.6022 123.993 28.1478 123.032C25.6934 122.072 23.4148 120.683 21.2841 119.025C19.2447 117.414 17.2335 115.644 15.3137 113.921C13.3236 112.22 11.4319 110.339 9.96935 108.102C9.16775 107.005 8.55605 105.774 8.10605 104.569C7.58575 103.385 7.11475 102.111 6.73515 100.884C5.90555 98.451 5.05495 95.951 4.29565 93.496L2.06725 86.043C1.68765 84.816 1.37835 83.567 0.977651 82.272C0.787851 81.658 0.668351 81.023 0.527751 80.32C0.492651 79.957 0.45755 79.594 0.42245 79.232C0.38735 78.869 0.37325 78.575 0.40845 78.191C0.40185 75.429 1.06335 72.836 1.74585 70.31C2.42845 67.784 3.27275 65.284 4.04675 62.8044C4.89105 60.3036 5.66495 57.8245 6.67105 55.3484C7.21975 54.1337 7.67715 52.8724 8.31725 51.7041C8.93635 50.4676 9.57655 49.2993 10.4488 48.1341C10.8849 47.5515 11.3211 46.969 12.0104 46.4576C12.3199 46.2128 12.6996 45.9463 13.1216 45.8161C13.4733 45.7077 13.6633 45.5744 13.9235 45.4195C14.3737 45.1313 14.7323 44.7966 14.9504 44.5053C15.1263 44.0776 15.1262 44.0777 14.845 43.4176C14.7607 43.1449 14.5428 42.6893 14.4866 42.2586C14.4233 42.0541 14.4304 41.8278 14.5078 41.5799C14.5148 41.3537 14.5922 41.1058 14.6696 40.8579C15.0003 39.9344 15.76 39.4014 16.3297 39.0016C17.5395 38.1804 18.6719 37.6071 19.6707 36.851C20.6906 36.163 21.5558 35.224 22.2592 34.2603C22.6461 33.7676 22.8712 33.25 23.1456 32.6426C23.3496 32.0569 23.5537 31.4712 23.807 30.7957C24.0602 30.1201 24.4753 29.4693 25.0239 29.0014C25.5726 28.5335 26.1423 28.1337 26.8245 27.8486C28.1187 27.3001 29.5183 27.0925 30.8405 27.1328C30.9108 27.1111 30.9319 27.1792 30.953 27.2474C30.9741 27.3156 30.9038 27.3373 30.8334 27.359C29.4831 27.4767 28.196 27.799 27.0847 28.4405C26.5642 28.7504 26.0647 29.1284 25.6075 29.6429C25.1995 30.0674 24.9041 30.6066 24.7704 31.1707C24.5664 31.7563 24.4538 32.3885 24.2708 33.0424C24.0879 33.6963 23.7643 34.3935 23.3985 34.9544C22.688 36.1444 21.7243 37.2631 20.6763 38.1091C19.6493 39.0233 18.3973 39.7082 17.3985 40.4643C16.8991 40.8424 16.5615 41.2452 16.5052 41.5613C16.4559 41.6512 16.477 41.7194 16.4278 41.8092C16.4489 41.8774 16.3996 41.9673 16.4418 42.1037C16.5051 42.3082 16.5684 42.5127 16.723 42.7637C16.8777 43.0147 17.0957 43.4703 17.1027 43.9909C17.18 44.4898 17.0251 44.9856 16.8493 45.4133C16.4271 46.2903 15.7588 46.8698 15.1188 47.2913C14.7882 47.4679 14.3874 47.6662 14.1271 47.8212C13.9372 47.9544 13.7262 48.0195 13.4871 48.2426C13.1283 48.5773 12.7204 49.0019 12.3335 49.4946C10.9477 51.4903 9.92055 53.8982 8.96365 56.2843C8.00685 58.6705 7.14145 61.1032 6.29715 63.604C5.43175 66.037 4.58745 68.537 3.81345 71.017C3.03955 73.496 2.40625 75.932 2.32855 78.42C2.28625 79.03 2.33535 79.687 2.41265 80.186C2.51105 80.753 2.63055 81.389 2.82035 82.002C3.12955 83.251 3.43885 84.5 3.81855 85.727L5.90625 93.224C6.59515 95.7 7.35445 98.154 8.11365 100.608C8.49325 101.836 8.94325 103.041 9.39315 104.246C9.84315 105.452 10.4127 106.546 11.1229 107.596C12.5433 109.698 14.2942 111.622 16.1437 113.367C18.0635 115.09 19.934 116.903 21.9241 118.604C23.8932 120.237 26.1013 121.647 28.5065 122.698C30.9116 123.748 33.4433 124.461 36.0807 124.768C36.151 124.746 36.1721 124.814 36.1932 124.882C36.0315 124.858 35.9612 124.879 35.8909 124.901Z" fill="#1C4C5F"/>
<path d="M33.576 22.7788C36.0168 20.4577 38.8444 18.3907 41.911 16.8475C43.4443 16.0759 45.0198 15.4406 46.6867 14.8518C48.3044 14.3529 50.0346 13.9686 51.6733 13.5379C54.9719 12.7446 57.9893 11.2912 60.9012 9.49689C62.3924 8.58889 63.9257 7.8173 65.5926 7.2285C67.2384 6.5715 68.8772 6.14079 70.4948 5.64189C73.7513 4.71219 77.0569 3.6926 80.468 3.014C80.9111 2.952 81.3331 2.82189 81.7973 2.82809C82.3107 2.74439 82.7257 2.84049 83.1898 2.84669C84.069 2.94889 84.969 3.1194 85.82 3.3797C86.671 3.64 87.381 3.9437 88.169 3.9995C88.908 4.1451 89.723 4.0429 90.539 3.9406C92.101 3.7578 93.472 2.9614 94.984 2.1216C96.497 1.2818 98.283 0.581395 100.098 0.469795C101.961 0.268395 103.691 0.630996 105.4 0.925396C107.109 1.2198 108.699 1.6258 110.408 1.9202C113.685 2.5524 117.04 2.9366 120.402 3.0947C121.26 3.1288 122.026 3.1164 122.884 3.1505C123.721 3.1164 124.537 3.0141 125.444 2.9584C127.259 2.8468 129.038 3.11949 130.747 3.41389C132.456 3.70829 134.207 4.1391 135.811 4.8395C137.463 5.45 139.039 6.30839 140.452 7.14199C141.936 7.95389 143.329 8.7193 144.841 9.3732C146.353 10.0271 147.893 10.5229 149.482 10.9289C151.093 11.4031 152.661 11.7408 154.279 11.9888C155.896 12.2367 157.542 12.3266 159.279 12.4629C162.753 12.7356 166.164 13.5507 169.378 14.7252C172.571 15.8315 175.82 17.3686 178.324 19.7331C180.827 22.0976 182.592 25.0633 183.513 28.2893C183.534 28.3574 183.463 28.3791 183.393 28.4008C183.323 28.4225 183.302 28.3543 183.302 28.3543C182.121 25.2833 180.187 22.519 177.697 20.4489C175.187 18.3107 172.114 17.0928 168.963 16.1228C167.352 15.6486 165.763 15.2427 164.124 14.9266C162.486 14.6105 160.889 14.4307 159.173 14.3626C157.528 14.2727 155.741 14.2262 154.053 14C152.295 13.7954 150.586 13.501 148.905 13.0486C147.224 12.5961 145.593 12.0538 143.94 11.4433C142.358 10.8111 140.782 9.9527 139.299 9.1408C137.815 8.3289 136.422 7.56339 134.931 6.97769C133.44 6.392 131.851 5.986 130.283 5.6483C128.644 5.3322 127.026 5.0843 125.493 5.109C124.727 5.1214 123.819 5.1772 122.912 5.233C121.984 5.2206 121.126 5.1865 120.268 5.1524C116.793 4.8797 113.418 4.4272 110.049 3.7485C108.41 3.4324 106.729 2.97999 105.091 2.66389C103.452 2.34779 101.813 2.03169 100.301 2.12469C98.719 2.23929 97.193 2.78469 95.73 3.53469C94.998 3.90959 94.217 4.37449 93.395 4.70299C92.572 5.03139 91.657 5.3134 90.771 5.4374C89.885 5.5613 88.957 5.54899 88.007 5.46839C87.037 5.31959 86.256 5.0376 85.475 4.7556C84.695 4.4736 83.9563 4.328 83.1686 4.2722C82.7747 4.2443 82.3809 4.21639 82.0081 4.25669C81.6354 4.29699 81.1922 4.3589 80.8195 4.3992C77.549 5.0345 74.2223 5.9858 70.9448 6.8473C69.306 7.2781 67.6672 7.7088 66.0707 8.2759C64.4741 8.843 62.99 9.5248 61.4989 10.4328C58.5659 12.1589 55.3375 13.6773 52.0178 14.4025C50.358 14.765 48.677 15.0594 47.0594 15.5583C45.4417 16.0573 43.8662 16.6925 42.3118 17.396C39.2944 18.8494 36.4458 20.8482 33.9839 23.1011C33.9136 23.1228 33.8432 23.1445 33.8221 23.0763C33.5268 22.8687 33.5057 22.8005 33.576 22.7788Z" fill="#1C4C5F"/>
<path d="M201.256 39.3214C203.781 40.2604 206.249 41.5155 208.043 43.5763C208.893 44.5834 209.526 45.8819 209.786 47.2206C210.046 48.5594 210.123 49.8051 210.714 50.9672C211.284 52.0612 212.254 52.9568 213.323 53.6726C213.893 54.0197 214.441 54.2986 215.039 54.4876L215.981 54.7944C216.326 54.9122 216.6 55.0517 216.945 55.1694C219.441 56.2665 221.614 58.0608 223.386 60.0534C225.158 62.046 226.691 64.2617 228.034 66.611C229.286 68.913 230.509 71.374 231.24 73.986C232.773 79.189 232.857 84.69 231.716 89.97L231.463 89.152C232.596 90.073 233.629 91.173 234.452 92.338C234.874 92.955 235.296 93.571 235.647 94.21C235.999 94.848 236.231 95.598 236.512 96.258C237.447 99.032 237.777 101.843 237.967 104.697C238.086 107.572 237.811 110.42 237.445 113.222C237.262 114.622 237.079 116.023 236.805 117.377C236.551 118.8 236.136 120.197 235.981 121.44C235.756 122.704 235.714 124.062 235.742 125.397C235.769 126.733 235.917 127.957 236.198 129.364C236.479 130.771 236.43 132.355 236.176 133.777C235.923 135.199 235.529 136.665 235.001 137.948C234.495 139.299 233.805 140.557 233.046 141.837C232.265 143.049 231.484 144.261 230.591 145.358C228.734 147.573 226.673 149.628 224.323 151.249C224.253 151.27 224.183 151.292 224.162 151.224C224.141 151.156 224.119 151.088 224.19 151.066C226.314 149.216 228.213 147.136 229.796 144.781C230.598 143.638 231.308 142.448 231.927 141.211C232.547 139.975 233.166 138.738 233.553 137.499C234.01 136.238 234.284 134.883 234.418 133.572C234.622 132.24 234.545 130.994 234.306 129.724C234.046 128.385 233.744 126.91 233.674 125.438C233.604 123.966 233.625 122.54 233.857 121.05C234.09 119.559 234.455 118.251 234.66 116.919C234.934 115.565 235.068 114.254 235.251 112.853C235.638 110.12 235.955 107.408 235.878 104.669C235.822 101.997 235.513 99.255 234.733 96.732C234.543 96.119 234.353 95.505 234.023 94.935C233.762 94.343 233.432 93.773 233.052 93.293C232.321 92.174 231.421 91.257 230.38 90.383C230.155 90.153 230.071 89.881 230.127 89.565C231.26 84.51 231.331 79.261 229.953 74.308C229.264 71.832 228.224 69.465 226.972 67.162C225.721 64.8598 224.279 62.6905 222.599 60.7444C220.918 58.7983 218.907 57.0288 216.572 55.9566L215.679 55.5599L214.715 55.1849C214.096 54.9277 213.457 54.6023 212.887 54.2552C211.727 53.4929 210.714 52.4609 210.102 51.2307C209.49 50.0004 209.441 48.5966 209.203 47.326C208.964 46.0554 208.443 44.8716 207.663 43.8428C206.031 41.8068 203.633 40.53 201.158 39.5012C201.066 39.4547 201.066 39.4547 201.116 39.3648C201.165 39.2749 201.165 39.2749 201.256 39.3214Z" fill="#1C4C5F"/>
<path d="M225.292 114.281C226.305 113.072 227.156 111.839 227.916 110.559C228.676 109.279 229.344 107.953 229.9 106.512C230.153 105.837 230.385 105.093 230.547 104.371C230.709 103.649 230.962 102.973 231.124 102.251C231.61 100.832 232.025 99.434 232.721 97.95C232.771 97.86 232.841 97.838 232.862 97.906L232.953 97.953C233.509 99.499 233.48 101.151 233.269 102.71C233.058 104.269 232.2 105.728 231.482 107.144C230.765 108.56 229.864 109.884 228.781 111.114C227.768 112.323 226.643 113.416 225.405 114.396C225.334 114.417 225.264 114.439 225.243 114.371C225.243 114.371 225.222 114.303 225.292 114.281Z" fill="#1C4C5F"/>
<path d="M228.001 98.883C227.122 97.287 226.412 95.49 226.005 93.674C225.801 92.766 225.738 91.815 225.745 90.842C225.752 89.868 225.921 88.92 226.09 87.972C226.519 86.122 226.829 84.383 227.16 82.713C227.54 80.953 227.849 79.214 228.279 77.364C228.258 77.296 228.328 77.274 228.398 77.253L228.49 77.299C229.27 79.075 229.417 81.046 229.312 82.945C229.234 83.94 229.065 84.888 228.713 85.744L227.75 88.356C227.187 90.023 226.947 91.74 227.032 93.507C227.116 95.273 227.594 97.067 228.121 98.772C228.142 98.84 228.093 98.93 228.093 98.93C228.093 98.93 228.022 98.951 228.001 98.883Z" fill="#1C4C5F"/>
<path d="M219.138 67.487C217.646 69.142 216.451 71.005 215.599 72.985C214.748 74.965 214.452 76.998 214.712 79.083C214.818 80.171 214.923 81.259 215.099 82.325C215.204 83.413 215.239 84.522 215.133 85.675C214.971 87.891 214.577 90.103 213.768 92.22C213.719 92.31 213.719 92.31 213.627 92.263L213.536 92.217C213.164 90.016 213.023 87.819 212.904 85.69C212.785 83.561 212.968 81.414 212.968 79.173C213.003 78.042 213.109 76.889 213.377 75.761C213.644 74.633 214.073 73.53 214.615 72.542C215.768 70.543 217.239 68.82 218.934 67.326C219.004 67.304 219.074 67.283 219.096 67.351C219.166 67.329 219.187 67.397 219.138 67.487Z" fill="#1C4C5F"/>
<path d="M69.9818 112.819C68.9339 112.171 67.9564 111.501 66.9789 110.832C66.0014 110.163 65.0731 109.404 64.1238 108.576C63.2448 107.727 62.3658 106.878 61.7541 105.648C61.5783 105.328 61.4728 104.988 61.487 104.535C61.5011 104.083 61.6066 103.677 61.8529 103.227C61.9513 103.048 62.1202 102.846 62.3101 102.713C62.5 102.58 62.6196 102.468 62.8095 102.335L63.2807 102.115L63.752 101.895C64.9969 101.436 66.1433 101.157 67.2476 100.742C68.3518 100.327 69.3857 99.933 70.49 99.518C71.0315 99.276 71.5942 99.103 72.0444 98.814C72.5859 98.573 73.1275 98.331 73.6691 98.089C74.7312 97.538 75.7932 96.986 76.8553 96.434C76.9256 96.413 76.996 96.391 77.017 96.459C77.0381 96.527 77.0381 96.527 76.9678 96.549C75.6031 98.613 73.5563 100.215 71.3126 101.43C70.1802 102.003 69.0056 102.44 67.7888 102.741C66.5721 103.041 65.3131 103.206 64.2581 103.531C63.7658 103.683 63.2734 103.835 63.1257 104.104C62.9569 104.306 62.9217 104.69 63.0482 105.099C63.3435 106.054 64.0818 106.946 64.8905 107.817C66.4375 109.58 68.2237 111.12 70.0099 112.66C70.031 112.729 70.0521 112.797 70.0521 112.797C70.0732 112.865 70.0028 112.887 69.9818 112.819Z" fill="#1C4C5F"/>
<path d="M86.6721 104.011C84.0981 102.416 81.6226 100.64 79.6537 98.26C78.6692 97.07 77.8746 95.747 77.2911 94.358C76.7568 92.88 76.4335 91.337 76.4337 89.843C76.4128 88.281 76.7154 86.769 76.5468 85.477C76.3571 84.116 75.7243 82.818 74.8523 81.743C73.0874 79.524 70.4361 78.176 67.6089 77.255C66.1602 76.806 64.8029 76.403 63.3471 76.18C61.9123 76.025 60.4495 76.028 59.0499 76.236C56.2296 76.583 53.5428 77.859 51.306 79.595C50.1877 80.463 49.0622 81.556 47.986 82.561C46.9309 83.633 45.9673 84.751 45.095 85.917C43.3716 88.315 41.8732 90.943 40.8108 93.735C40.7616 93.825 40.7616 93.825 40.6701 93.779C40.5998 93.8 40.5787 93.732 40.628 93.642C41.1629 90.639 42.2745 87.757 43.8221 85.04C44.6311 83.67 45.5526 82.415 46.5656 81.206C47.5996 80.066 48.6336 78.925 49.8504 77.878C51.0673 76.831 52.4881 75.944 53.9722 75.263C55.4773 74.649 57.1161 74.218 58.7478 74.014C62.0322 73.673 65.3306 74.373 68.1507 75.52C71.02 76.577 73.9878 78.2 75.9285 80.738C76.8637 82.018 77.5598 83.521 77.7425 85.108C77.9251 86.695 77.5521 88.229 77.5308 89.654C77.4392 91.101 77.65 92.53 78.1421 93.872C78.6343 95.214 79.3374 96.49 80.1812 97.724C81.918 100.101 84.2741 101.988 86.7981 103.674C86.8901 103.72 86.8411 103.81 86.8411 103.81C86.7421 103.99 86.6721 104.011 86.6721 104.011Z" fill="#1C4C5F"/>
<path d="M34.3385 109.174C33.3325 110.903 32.7837 112.864 32.9804 114.745C33.177 116.626 34.0067 118.312 35.3569 119.688C36.0319 120.376 36.7352 120.906 37.579 121.393C38.3526 121.901 39.2457 122.298 39.9982 122.738C41.6438 123.574 43.4864 124.052 45.5892 124.374C45.6596 124.352 45.6806 124.42 45.7017 124.489L45.6525 124.578C43.6972 125.48 41.2356 125.493 39.147 124.718C36.9879 123.965 35.3846 122.518 33.9993 120.779C33.3524 119.933 32.7547 118.997 32.4384 117.975C32.0517 116.974 31.9464 115.886 31.9113 114.776C32.0242 112.651 32.8543 110.602 34.2049 108.991C34.2752 108.969 34.3455 108.947 34.3455 108.947C34.3877 109.084 34.3877 109.084 34.3385 109.174Z" fill="#1C4C5F"/>
<path d="M52.6012 116.908C50.2519 118.529 47.6354 119.784 44.7166 120.311C44.3439 120.351 43.9922 120.46 43.6898 120.478C43.4085 120.565 43.0357 120.606 42.8458 120.739C42.7755 120.76 42.7965 120.829 42.895 120.649C42.9443 120.559 42.8529 120.513 42.9232 120.491C42.9232 120.491 42.9232 120.491 43.0146 120.537C43.2186 120.698 43.4928 120.838 43.7882 121.046C44.9978 121.718 46.2706 122.595 47.3044 123.695C47.8458 124.2 48.2677 124.817 48.6685 125.365C48.8936 125.595 49.0272 125.778 49.21 125.871C49.414 126.032 49.6671 126.103 49.9203 126.174C50.9541 126.528 52.2974 126.636 53.6196 126.676C56.3344 126.735 59.1055 126.478 62.0101 126.404C62.0805 126.382 62.1016 126.45 62.1226 126.518C62.1437 126.586 62.0734 126.608 62.0734 126.608C60.73 127.247 59.4148 127.727 57.987 128.093C56.5592 128.458 55.1807 128.734 53.6686 128.827C52.1565 128.92 50.5811 128.808 49.069 128.155C48.7033 127.969 48.3166 127.714 48.0001 127.439C47.6837 127.163 47.325 126.751 47.1493 126.431C46.7274 125.815 46.418 125.313 46.0171 124.764C45.2366 123.735 44.2169 122.93 43.0566 122.167C42.7612 121.96 42.4659 121.752 42.1494 121.476C42.058 121.43 41.9455 121.315 41.8822 121.111C41.7697 120.996 41.6853 120.723 41.7627 120.475C41.8401 120.227 41.9386 120.048 42.1285 119.914C42.2481 119.803 42.3888 119.759 42.5083 119.648C42.9796 119.428 43.3524 119.388 43.7251 119.347C44.0979 119.307 44.4706 119.267 44.7731 119.248C47.4949 119.081 50.1957 118.098 52.6997 116.729C52.77 116.707 52.8404 116.685 52.8614 116.754C52.6504 116.819 52.6715 116.887 52.6012 116.908Z" fill="#1C4C5F"/>
<path d="M67.1618 53.6442C66.4941 50.4895 66.4805 47.2077 67.1842 44.0035C67.5361 42.4013 68.12 40.8023 68.7462 39.3396C69.3723 37.8769 70.1391 36.3708 70.2729 35.0599C70.2941 34.3813 70.1747 33.746 69.8442 33.1758C69.584 32.5839 69.134 32.1252 68.5433 31.71C68.0229 31.273 67.3618 30.8795 66.6797 30.4177C65.9976 29.956 65.1818 29.3114 64.7037 28.264C64.2959 27.1948 64.4508 25.9522 64.894 25.1433C65.3865 24.2447 66.0336 23.597 66.7229 23.0857C68.0804 21.9948 69.6348 21.2914 71.2314 20.7243C71.3017 20.7026 71.3932 20.7491 71.3932 20.7491C71.4142 20.8172 71.4143 20.8172 71.3439 20.8389C70.0567 21.9081 68.8399 22.9555 67.8058 24.0959C67.2994 24.7002 66.8633 25.2828 66.6592 25.8685C66.4552 26.4542 66.4622 26.9748 66.659 27.3622C66.8559 27.7496 67.3763 28.1865 67.967 28.6017C68.5577 29.017 69.3313 29.5252 69.9853 30.145C71.3636 31.3629 72.2776 33.3214 71.9398 35.218C71.7708 36.1663 71.4894 36.9999 71.0954 37.7188C70.7226 38.506 70.3075 39.1567 69.9839 39.854C69.2664 41.2702 68.6192 42.6647 68.1759 44.2204C67.2471 47.1953 67.0075 50.4058 67.3728 53.5791C67.3939 53.6473 67.3236 53.669 67.2532 53.6907C67.2532 53.6907 67.1829 53.7124 67.1618 53.6442Z" fill="#1C4C5F"/>
<path d="M52.7543 33.9658C53.1267 36.1661 53.056 38.4283 52.683 40.7091C52.4859 41.8155 52.1482 42.9652 51.7683 43.9785C51.4095 45.06 50.9591 46.0951 50.3682 47.1735C49.7773 48.2519 49.0738 49.2157 48.279 50.133C47.3927 51.0038 46.3939 51.7599 45.2404 52.2651C43.0037 53.2536 40.3734 53.4674 38.1651 52.8042C38.0947 52.8259 38.0736 52.7578 38.1229 52.6679L38.1721 52.578C40.3947 52.0419 42.5047 51.3912 44.256 50.3282C45.1774 49.82 46.0074 49.2653 46.7952 48.5742C47.6041 47.9513 48.2794 47.1456 48.9336 46.2717C49.5174 45.4195 49.9888 44.4527 50.5304 43.4641C51.0018 42.4972 51.3818 41.4839 51.6703 40.424C52.3387 38.3509 52.5921 36.1816 52.5924 33.9411C52.5713 33.8729 52.6417 33.8512 52.712 33.8295C52.6417 33.8512 52.7332 33.8977 52.7543 33.9658Z" fill="#1C4C5F"/>
<path d="M50.337 22.1651C49.1202 23.2125 48.0158 24.3746 47.1858 25.6761C46.3557 26.9777 45.7788 28.3505 45.3847 29.8163C44.9907 31.2821 45.0327 32.9121 44.0759 34.5514C43.8086 34.9326 43.5624 35.382 43.2037 35.7167C42.8449 36.0513 42.3948 36.3395 41.9939 36.5378C41.1217 36.9562 40.1441 37.0337 39.2932 36.7734C39.2228 36.7951 39.2017 36.7269 39.251 36.637L39.3002 36.5472C40.102 36.1505 40.7421 35.729 41.2204 35.2828C41.6776 34.7684 41.9942 34.2973 42.2475 33.6218C42.5218 33.0144 42.6837 32.2923 43.0073 31.5951C43.3098 30.8296 43.542 30.0859 43.9149 29.2988C44.2174 28.5333 44.5903 27.7462 44.9842 27.0272C45.4485 26.2866 45.9339 25.6142 46.5107 24.9882C47.6643 23.7362 48.9725 22.7353 50.4144 21.9171C50.4848 21.8955 50.5551 21.8737 50.5762 21.9419C50.3863 22.0752 50.316 22.0969 50.337 22.1651Z" fill="#1C4C5F"/>
<path d="M37.6901 28.6047C36.5857 30.5136 35.2984 32.3296 33.9408 34.1673C32.562 35.9367 31.1622 37.6381 29.6921 39.3611C28.9676 40.2567 28.2219 41.0841 27.3357 41.9549C26.4986 42.7358 25.4999 43.4919 24.4167 43.9753C22.2715 45.0104 19.9294 45.658 17.6577 45.5372C17.5874 45.5589 17.5663 45.4907 17.5452 45.4225C17.5241 45.3543 17.5945 45.3327 17.5945 45.3327C19.6693 44.3193 21.6036 43.3494 23.3831 42.1284C24.2834 41.552 25.1134 40.9973 25.9926 40.3527C26.8718 39.7081 27.6596 39.0171 28.4263 38.2578C29.9597 36.7394 31.6127 35.1093 33.125 33.5227C34.6373 31.936 36.1286 30.2812 37.5073 28.5117C37.5776 28.4901 37.6479 28.4684 37.6479 28.4684C37.669 28.5365 37.6901 28.6047 37.6901 28.6047Z" fill="#1C4C5F"/>
<path d="M62.0334 11.9107C62.7368 11.6937 63.419 11.4086 64.0098 11.077C64.6006 10.7455 65.1915 10.4139 65.7401 9.946C66.2888 9.478 66.5842 8.9388 67.1751 8.6072C67.7659 8.2756 68.3356 7.8759 69.25 7.5939C69.3203 7.5722 69.4117 7.6187 69.4328 7.6868C69.5101 8.1858 69.4749 8.57 69.299 8.9977C69.1934 9.4037 68.9964 9.7631 68.708 10.0761C68.2227 10.7486 67.3997 11.0771 66.6472 11.3838C65.9157 11.7588 65.1209 11.9293 64.3262 12.0997C63.5103 12.202 62.7437 12.2144 62.0263 12.1369C61.956 12.1586 61.9349 12.0904 61.9139 12.0222C61.9631 11.9324 62.0334 11.9107 62.0334 11.9107Z" fill="#1C4C5F"/>
<path d="M78.702 11.9977C79.2223 12.4347 79.6232 12.9832 79.8833 13.5751C80.2138 14.1453 80.3543 14.8488 80.4246 15.5739C80.4597 15.9365 80.4948 16.2991 80.4596 16.6833C80.4244 17.0676 80.3188 17.4736 80.1008 17.7649C79.6154 18.4373 78.905 18.8805 77.9555 18.7999C77.8852 18.8216 77.7727 18.7069 77.822 18.617C77.9416 17.7586 78.0261 17.2845 78.1105 16.8104C78.1247 16.3579 78.5537 16.0016 78.6171 15.4592C78.7508 14.8952 78.8353 14.4211 78.8072 13.8323C78.7792 13.2435 78.6808 12.6764 78.491 12.0628C78.4699 11.9946 78.5191 11.9047 78.5895 11.883C78.6106 11.9512 78.6105 11.9512 78.702 11.9977Z" fill="#1C4C5F"/>
<path d="M146.018 44.5586C148.606 45.7021 150.941 47.5212 152.537 49.9415C153.36 51.1067 153.873 52.5167 154.274 53.812C154.766 55.1539 155.166 56.4492 155.588 57.8128C156.01 59.1763 156.432 60.5398 156.312 62.1451C156.242 62.9136 155.911 63.8371 155.243 64.4166C154.504 65.018 153.639 65.21 152.915 65.359C151.466 65.656 149.841 65.634 148.364 65.343C147.626 65.197 146.866 64.9836 146.177 64.7481C145.488 64.5126 144.778 64.2089 144.25 63.9982C143.652 63.8091 143.097 63.7564 142.422 63.8153C141.817 63.8525 141.163 63.9796 140.53 64.1748C139.264 64.5653 137.878 65.067 136.584 65.616C135.269 66.096 133.974 66.645 132.61 67.215C131.316 67.763 129.93 68.265 128.615 68.746C125.914 69.728 123.213 70.71 120.491 71.625C117.769 72.539 115.026 73.385 112.262 74.163C112.192 74.184 112.171 74.116 112.15 74.048C112.129 73.98 112.199 73.958 112.199 73.958C117.32 71.333 122.545 69.049 127.863 66.812C130.521 65.693 133.131 64.6644 135.902 63.6604C137.287 63.1583 138.694 62.7245 140.122 62.3588C140.846 62.2101 141.641 62.0396 142.408 62.0273C143.245 61.9932 144.053 62.1171 144.834 62.3991C145.615 62.6811 146.234 62.9383 146.852 63.1955C147.471 63.4528 148.139 63.6201 148.808 63.7875C150.123 64.054 151.466 64.1624 152.795 63.9765C153.47 63.9176 154.033 63.7441 154.413 63.4776C154.772 63.1429 155.018 62.6936 155.13 62.0614C155.285 60.8187 154.955 59.5017 154.625 58.1846C154.294 56.8676 153.872 55.504 153.542 54.187C153.141 52.8916 152.741 51.5963 152.059 50.3877C150.645 48.0604 148.522 46.1762 146.032 44.853C145.941 44.8065 145.92 44.7384 145.99 44.7167C145.948 44.5803 146.018 44.5586 146.018 44.5586Z" fill="#1C4C5F"/>
<path d="M179.545 41.6112C180.537 42.5749 181.669 43.4953 182.956 43.9199C183.554 44.1089 184.18 44.1399 184.672 43.988C185.094 43.8579 185.432 43.455 185.797 42.8941C186.163 42.3332 186.367 41.7475 186.691 41.0503C186.965 40.4429 187.289 39.7456 187.655 39.1847C188.436 37.973 189.237 36.8295 190.293 35.7573C190.363 35.7356 190.433 35.7139 190.454 35.7821L190.475 35.8503C190.475 36.5971 190.405 37.3657 190.243 38.0877C190.081 38.8098 189.828 39.4853 189.575 40.1609C189.068 41.512 188.196 42.6772 187.183 43.8858C186.894 44.1988 186.606 44.5118 186.297 44.7566C185.917 45.0231 185.445 45.2431 185.023 45.3733C184.067 45.5189 183.216 45.2586 182.485 44.8867C181.824 44.4932 181.212 44.0097 180.741 43.4829C180.269 42.9561 179.777 42.3611 179.447 41.7909C179.426 41.7227 179.405 41.6545 179.475 41.6328C179.454 41.5647 179.475 41.6328 179.545 41.6112Z" fill="#1C4C5F"/>
<path d="M226.588 144.874C226.518 143.402 226.659 141.865 226.87 140.306C227.103 138.816 227.475 137.282 228.031 135.841C228.587 134.4 229.03 132.844 229.952 131.589C230.873 130.334 232.048 129.15 233.511 128.4C233.581 128.379 233.652 128.357 233.673 128.425L233.694 128.493C233.159 130.002 232.491 131.329 231.893 132.633C231.295 133.938 230.352 135.125 229.684 136.451C229.016 137.778 228.439 139.15 228.024 140.548C227.538 141.967 227.144 143.433 226.891 144.856C226.912 144.924 226.841 144.945 226.771 144.967C226.63 145.01 226.609 144.942 226.588 144.874Z" fill="#1C4C5F"/>
<path d="M232.824 119.949C232.275 118.923 231.987 117.743 231.72 116.63C231.621 116.063 231.572 115.406 231.544 114.817C231.516 114.229 231.559 113.618 231.601 113.008C231.685 111.787 231.84 110.544 232.502 109.444C232.797 108.905 233.184 108.412 233.662 107.966C234.14 107.519 234.64 107.141 235.252 106.878C235.322 106.856 235.414 106.903 235.414 106.903L235.435 106.971C235.209 108.235 234.829 109.249 234.541 110.308C234.231 111.3 233.598 112.242 233.31 113.302C233.021 114.362 232.824 115.468 232.768 116.531C232.662 117.684 232.768 118.772 232.964 119.906C232.985 119.974 232.915 119.996 232.845 120.017C232.915 119.996 232.824 119.949 232.824 119.949Z" fill="#1C4C5F"/>
</svg>
