<svg width="145" height="158" viewBox="0 0 145 158" fill="none" xmlns="http://www.w3.org/2000/svg">
<path d="M16.4596 81.8142H38.2537L41.3672 61.4688L6.22966 57.5729L22.6865 38.0934H44.9253L34.2507 19.9124L50.7074 0.432905H80.9523L75.6149 37.6605H99.1882L88.5134 19.4795L104.97 0H135.215L129.878 37.2276H145V60.603L128.543 80.0825L123.206 80.9483H138.329V104.324L121.872 123.803L120.093 104.324L115.2 137.655L98.7434 157.135L88.9582 104.757H65.8299L61.3821 138.088L44.4805 156.702L34.6955 104.757L0.00280762 100.861L16.4596 81.8142ZM68.0538 82.6798H93.406L96.9643 60.603H71.612L68.0538 82.6798Z" fill="#EC5D3E"/>
<path d="M0 101.293H21.7941L24.9075 80.9478H6.22685V57.5724H28.4657L34.2479 20.3448H64.4927L59.1554 57.5724H82.7286L88.5106 20.3448H118.756L113.418 57.5724H128.541V80.9478H109.86L106.747 101.293H121.869V124.669H103.188L98.2958 158H67.1614L72.4987 124.669H49.3703L44.9225 158H12.8985L18.2359 124.669H0V101.293ZM51.5942 102.159H76.9465L80.5047 80.082H55.1523L51.5942 102.159Z" fill="#F3B08C"/>
</svg>
