<svg width="313" height="193" viewBox="0 0 313 193" fill="none" xmlns="http://www.w3.org/2000/svg">
<path d="M41.9165 42.3281L54.2875 33.534L55.3684 14.8906L43.1176 25.0918L41.9165 42.3281Z" fill="#969696"/>
<path d="M17.6552 33.4172C21.7389 34.8243 25.7024 36.3486 29.7861 37.7556L29.666 39.2799L17.5352 49.2464L17.6552 33.4172Z" fill="#969696"/>
<path d="M18.9764 86.7674L31.2273 76.918L30.6267 70.8209L17.415 65.4271L18.9764 86.7674Z" fill="#969696"/>
<path d="M38.9155 58.3924L53.929 47.7224V63.1999L39.0356 74.4563L38.9155 58.3924Z" fill="#969696"/>
<path d="M139.084 137.421C139.084 136.718 151.815 127.689 151.815 127.689L146.89 76.2146L133.318 71.9935L139.084 137.421Z" fill="#969696"/>
<path d="M296.425 104.707L309.516 94.8578V68.8275L296.545 78.5595L296.425 104.707Z" fill="#969696"/>
<path d="M295.343 121.123L308.315 111.273L309.516 137.421L296.424 147.622L295.343 121.123Z" fill="#969696"/>
<path d="M300.869 193L313 182.916L312.039 155.713L299.308 166.266L300.869 193Z" fill="#969696"/>
<path d="M75.4267 20.8709L78.069 73.6352C78.7897 77.9736 80.9516 81.1395 84.1945 83.4846L84.4347 92.0441C84.3146 95.3272 82.6331 96.617 79.9908 96.8515C70.5023 95.5617 66.1784 89.9335 65.8181 81.1395L63.0557 31.072L75.4267 20.8709Z" fill="#969696"/>
<path d="M98.968 42.9145L111.699 32.5962L112.9 92.982C112.54 96.9687 110.979 100.252 108.096 103.066L95.4849 113.384C98.7277 110.922 100.649 106.701 100.649 100.955L98.968 42.9145Z" fill="#969696"/>
<path d="M199.499 67.1861L211.51 56.516L214.152 132.379C214.392 137.539 212.951 141.642 209.348 144.808L196.736 155.244C199.979 152.195 201.901 147.036 201.901 139.884L199.499 67.1861Z" fill="#969696"/>
<path d="M177.879 49.4802L182.804 110.921C183.524 115.26 184.245 119.364 187.488 121.709L187.728 130.268C187.608 133.551 185.927 135.779 183.284 135.897C173.796 134.607 170.913 129.33 170.553 120.536L165.388 59.7986L177.879 49.4802Z" fill="#969696"/>
<path d="M229.044 172.011L240.575 162.045L234.209 143.284L226.402 141.056L229.044 172.011Z" fill="#969696"/>
<path d="M206.224 68.5934L218.234 58.275C227.963 59.6821 237.572 60.9719 247.3 62.3789C248.381 62.8479 250.063 63.5515 251.744 64.724C253.066 65.662 254.867 67.069 257.87 71.2902C258.831 72.6972 261.233 75.9804 263.034 79.7325C272.042 98.3759 267.959 115.847 267.959 115.847C266.998 119.716 265.076 125.931 260.512 132.731C264.956 145.747 269.52 158.879 273.964 171.894L260.872 183.033L260.752 179.398L237.692 134.138L235.65 123.351L213.911 123.234L215.832 82.0776L206.224 68.5934Z" fill="#CCCCCC"/>
<path d="M0.239746 9.84934L12.3705 0L55.3689 14.8912L43.118 25.0923L0.239746 9.84934Z" fill="#CCCCCC"/>
<path d="M17.4146 49.2463L29.5454 39.2797L53.9272 47.722L38.9138 58.3921L17.4146 49.2463Z" fill="#CCCCCC"/>
<path d="M45.52 25.9126L57.771 15.7115L75.4267 20.8707L62.8155 31.0718L45.52 25.9126Z" fill="#CCCCCC"/>
<path d="M82.2734 37.1696L94.2842 26.8512L111.82 32.5966L98.9684 42.915L82.2734 37.1696Z" fill="#CCCCCC"/>
<path d="M100.891 43.0326L113.022 32.7142L159.984 45.6122L148.093 55.5788L100.891 43.0326Z" fill="#CCCCCC"/>
<path d="M148.333 76.8012L160.704 65.1931L159.983 45.6117L148.093 55.5783L148.333 76.8012Z" fill="#CCCCCC"/>
<path d="M165.628 59.7994L177.879 49.5983L161.665 45.6117L149.534 56.6336L165.628 59.7994Z" fill="#CCCCCC"/>
<path d="M183.283 63.6687L195.894 52.6468L211.749 57.2197L199.498 67.1863L183.283 63.6687Z" fill="#CCCCCC"/>
<path d="M296.545 78.5605L309.517 68.8284L272.043 65.5453L256.189 76.8017L296.545 78.5605Z" fill="#CCCCCC"/>
<path d="M276.728 118.778L289.22 108.694L288.979 104.122L276.008 102.714L276.728 118.778Z" fill="#CCCCCC"/>
<path d="M308.316 111.274L289.219 108.343L276.728 118.778L295.344 121.123L308.316 111.274Z" fill="#CCCCCC"/>
<path d="M279.129 161.693L291.741 151.257L291.26 146.333L278.168 144.105L279.129 161.693Z" fill="#CCCCCC"/>
<path d="M299.307 166.266L312.039 155.713L291.741 151.258L279.129 161.693L299.307 166.266Z" fill="#CCCCCC"/>
<path d="M243.818 92.7477H218.355V127.807H243.818V92.7477Z" fill="#969696"/>
<path d="M233.489 123.234H235.891L237.933 134.021L260.993 179.282L261.114 182.916L274.205 171.777C269.761 158.762 265.197 145.63 260.753 132.614C265.317 125.814 267.359 119.716 268.2 115.73C268.2 115.73 272.284 98.3762 263.275 79.6156C261.474 75.8635 259.072 72.4631 258.111 71.1733C256.79 69.2972 255.709 68.0074 254.748 67.0694L233.729 78.4431V123.234H233.489Z" fill="#969696"/>
<path d="M39.0349 74.3393L17.6557 65.4279L18.7367 86.7682L1.20107 79.6157L0 9.84955L42.9984 25.0926L42.1577 42.6807L17.5357 33.1831L17.4156 49.3641L38.9147 57.9237L39.0349 74.3393Z" fill="#ECEEF0"/>
<path d="M48.884 77.8573L45.2808 25.9137L62.8165 30.9557L65.699 83.4855C66.2996 89.6999 71.224 94.0383 75.9082 95.9144C80.3521 97.6732 84.7961 96.9696 84.3157 90.6379L82.1538 36.9356L99.0889 42.6811L100.65 97.7905C101.971 115.027 90.8015 118.31 77.8299 112.682C64.498 107.171 50.8057 94.0383 48.884 77.8573Z" fill="#ECEEF0"/>
<path d="M101.85 62.8488L100.409 42.9156L147.731 55.6963L148.332 76.802L133.198 71.9947L138.964 137.54L123.95 131.325L117.344 67.1872L101.85 62.8488Z" fill="#ECEEF0"/>
<path d="M155.178 117.606L149.293 56.1652L165.507 59.5655L170.432 121.945C171.273 129.449 175.837 134.022 180.161 135.546C184.244 136.953 188.208 135.194 187.487 127.573L183.644 63.6694L199.498 67.4215L202.501 133.318C204.182 154.307 194.333 160.873 182.443 156.183C170.432 151.375 157.821 137.188 155.178 117.606Z" fill="#ECEEF0"/>
<path d="M260.753 178.93L260.994 182.682L245.98 177.523L233.969 143.167L226.283 141.057L229.285 171.895L214.992 167.322L205.984 68.2421C214.992 69.5319 223.64 70.5872 232.528 72.1115C246.941 74.3393 254.388 95.0933 254.988 114.206C255.349 126.4 253.187 137.422 248.022 142.933L260.753 178.93ZM234.81 122.062C239.014 123 240.695 116.903 240.335 110.336C239.975 103.653 237.693 97.0866 233.369 96.2658L222.679 94.2725L224.361 119.717L234.81 122.062Z" fill="#ECEEF0"/>
<path d="M297.026 104.943L276.127 102.715L276.848 118.778L295.825 121.241L296.666 147.271L278.169 143.988L279.25 161.811L299.668 166.032L300.869 192.649L266.999 184.089L259.792 75.7462L296.666 78.0913L297.026 104.943Z" fill="#ECEEF0"/>
</svg>
