<svg width="706" height="422" viewBox="0 0 706 422" fill="none" xmlns="http://www.w3.org/2000/svg">
<path d="M275.718 85.7018C280.157 83.4039 281.011 77.3044 281.28 74.8432C282.645 64.4786 275.207 47.7558 260.074 38.8478C254.678 35.6947 254.713 37.3077 232.179 28.9833C218.407 23.8906 219.693 23.7233 216.384 23.0866C201.053 19.8657 187.351 25.4673 176.117 30.008C167.381 33.5872 158.236 37.2884 149.197 45.8285C141.281 53.2762 139.721 58.5038 126.384 71.6809C120.524 77.433 120.376 76.9361 117.127 80.6107C113.733 84.5452 106.159 93.5143 102.638 106.362C99.6521 117.643 102.752 120.939 98.0585 129.482C96.7506 131.821 95.0335 134.281 94.3614 138.378C93.5173 143.392 95.093 146.06 95.6514 150.548C96.7683 159.523 92.1676 161.653 92.1371 169.022C92.1783 172.148 92.9815 175.588 107.43 193.035C113.207 200.079 117.837 205.517 125.813 213.961C138.697 227.653 140.571 227.96 144.062 234.063C149.629 243.767 150.396 253.063 150.783 258.467C151.261 264.927 152.374 280.613 142.96 294.244C138.158 301.304 132.494 304.725 125.503 309.299C114.644 316.218 98.9397 326.312 78.2607 340.272C87.9929 348.626 119.149 373.536 167.459 376.772C202.261 379.165 211.771 359.878 257.695 355.49C264.189 354.853 245.238 353.686 261.349 342.712C268.032 338.229 270.612 327.827 273.408 324.504C255.891 319.554 276.318 320.065 258.8 315.115C259.117 302.357 259.537 289.568 259.854 276.81C267.578 276.563 273.541 274.893 277.34 273.436C282.541 271.452 286.953 269.811 289.892 265.472C291.041 263.722 291.614 260.412 292.555 253.854C298.406 215.202 294.307 241.426 295.578 233.362C296.605 226.346 296.807 225.528 296.798 223.257C296.746 217.104 295.176 215.949 294.73 210.345C294.376 205.797 295.297 205.522 296.632 195.058C297.627 187.185 298.124 183.249 297.805 180.313C296.896 172.034 293.646 171.596 292.925 162.828C292.587 158.707 292.339 154.885 294.195 150.651C296.154 146.387 298.755 145.395 299.077 141.619C299.316 139.059 298.476 137.361 296.426 133.102C294.346 128.743 292.339 124.255 290.157 119.927C285.484 110.605 286.197 109.635 282.674 102.677C280.581 98.6466 277.311 92.9113 271.844 86.5324C273.058 86.495 274.447 86.2972 275.718 85.7018Z" fill="#17293B"/>
<path d="M297.576 141.443C292.689 141.494 287.805 142.301 283.277 144.3C281.013 145.3 278.881 146.369 276.736 147.766C275.729 148.5 274.752 149.332 273.936 150.333C273.121 151.334 272.497 152.602 272.473 154.016C272.446 154.674 272.551 155.4 272.729 155.996C272.936 156.692 273.187 157.159 273.467 157.724L274.884 160.982C275.873 163.176 276.832 165.272 277.923 167.436C279.014 169.6 280.177 171.634 281.677 173.676C283.148 175.618 284.823 177.5 286.643 179.122C288.464 180.744 290.225 182.167 291.095 183.964C291.596 184.896 291.863 185.791 291.823 186.777C291.869 187.305 291.783 187.763 291.697 188.222C291.61 188.68 291.524 189.139 291.306 189.529C290.596 191.256 288.86 192.531 286.889 193.768C286.408 194.02 285.926 194.272 285.444 194.524C284.962 194.776 284.45 194.928 283.837 195.111C282.536 195.607 281.252 196.532 280.348 197.234C278.262 198.83 276.574 201.39 276.028 204.042C275.77 205.418 275.819 206.702 276 208.055C276.075 208.682 276.283 209.378 276.431 209.875C276.609 210.471 276.787 211.068 277.067 211.634C277.347 212.199 277.686 212.964 278.405 213.507C279.022 214.081 279.857 214.265 280.559 214.38C282.038 214.48 283.572 214.023 284.563 212.862C285.058 212.281 285.289 211.563 285.418 210.875C285.445 210.217 285.34 209.491 285.06 208.925C284.47 207.694 283.428 206.814 282.124 206.554L281.979 206.813C283.005 207.265 283.843 208.206 284.139 209.2C284.435 210.194 284.22 211.34 283.491 211.882C282.791 212.524 281.738 212.73 280.801 212.576C279.835 212.323 279.38 211.918 279.083 210.924C278.935 210.427 278.787 209.93 278.711 209.303C278.636 208.676 278.488 208.179 278.442 207.652C278.35 206.597 278.492 205.58 278.737 204.533C279.256 202.538 280.435 200.888 282.274 199.582C283.28 198.849 284.01 198.307 284.93 198.032C285.442 197.88 286.026 197.597 286.742 197.384C287.326 197.101 288.013 196.788 288.567 196.406C290.64 195.139 293.106 193.321 294.193 190.616C295.25 187.811 294.83 184.906 293.445 182.505C292.061 180.104 289.933 178.574 288.172 177.151C286.411 175.728 284.795 174.045 283.384 172.301C281.943 170.458 280.809 168.523 279.646 166.489C278.482 164.455 277.421 162.39 276.432 160.196L274.81 156.999C274.25 155.867 273.881 155.003 273.921 154.017C273.972 151.946 275.56 150.173 277.471 148.738C279.28 147.332 281.485 146.134 283.617 145.065C287.911 143.027 292.705 141.922 297.533 141.673L297.576 141.443Z" fill="#E5E5E5"/>
<path d="M266.532 199.839C266.922 198.532 267.576 197.363 268.583 196.629C269.035 196.278 269.59 195.896 270.101 195.744C270.685 195.461 271.197 195.309 271.84 195.225C272.995 194.989 274.298 195.25 275.483 195.113C276.77 194.946 277.954 194.809 279.621 194.42L279.605 193.992C278.576 192.783 277.052 192.156 275.514 191.857C274.812 191.741 273.934 191.787 273.218 192C272.502 192.214 271.683 192.458 270.997 192.771C269.492 193.328 268.238 194.351 267.277 195.612C266.448 196.941 266.015 198.478 266.196 199.831L266.532 199.839Z" fill="#E5E5E5"/>
<path d="M256.476 187.035C255.822 188.204 255.3 189.442 254.91 190.749C254.52 192.056 254.334 193.302 254.179 194.647C254.023 195.993 254.101 197.376 254.546 198.867C255.093 200.328 256.121 201.536 257.47 202.324C258.16 202.768 258.79 203.013 259.552 203.327C260.284 203.542 260.914 203.787 261.617 203.902C263.154 204.201 264.676 204.072 266.035 203.775C268.754 203.18 271.427 202.059 273.557 200.233L273.468 199.935C272.049 200.033 270.762 200.201 269.445 200.268C268.159 200.436 266.944 200.473 265.628 200.541C264.311 200.609 263.229 200.715 262.117 200.722C261.546 200.676 260.873 200.66 260.375 200.484C259.775 200.338 259.306 200.262 258.778 199.986C256.756 199.182 255.87 196.957 255.802 194.488C255.783 193.303 255.807 191.889 255.89 190.674C256.075 189.428 256.363 188.151 256.783 186.944L256.476 187.035Z" fill="#E5E5E5"/>
<path d="M259.23 199.635C260.799 196.678 262.896 193.996 265.404 191.949C267.913 189.902 270.877 188.26 273.916 187.246C275.451 186.788 277.045 186.529 278.318 186.691C278.991 186.707 279.519 186.982 280.149 187.227C280.677 187.503 281.498 188.015 282.392 188.398C282.89 188.574 283.286 188.781 283.755 188.858C284.223 188.935 284.619 189.141 285.088 189.218C286.024 189.371 286.961 189.525 287.941 189.449C288.921 189.373 290.047 189.038 290.849 188.366C291.651 187.694 292.057 186.815 292.229 185.898L291.966 185.76C289.694 188.602 286.6 186.819 283.991 185.54C283.331 185.196 282.846 184.691 281.82 184.239C280.795 183.788 279.726 183.565 278.716 183.542C276.697 183.494 274.855 184.044 273.175 184.761C269.816 186.196 266.971 188.235 264.448 190.611C261.956 193.086 260.182 196.104 259.009 199.268L259.23 199.635Z" fill="#E5E5E5"/>
<path d="M267.613 153.409C268.209 156.153 268.907 158.867 269.809 161.521C270.712 164.174 271.819 166.766 273.028 169.327C274.238 171.889 275.345 174.481 277.241 176.73C279.005 178.91 281.076 180.998 283.54 182.536L283.817 182.345C282.68 179.654 281.326 177.352 279.839 174.981C278.454 172.58 276.72 170.499 275.263 168.228C273.806 165.957 272.524 163.525 271.344 161.063C270.062 158.631 268.954 156.039 267.979 153.516L267.613 153.409Z" fill="#E5E5E5"/>
<path d="M260.16 151.194C255.367 148.943 250.036 147.502 244.46 147.109C238.913 146.815 233.459 147.575 228.093 148.634C225.374 149.229 222.787 149.892 220.127 150.685C217.467 151.478 214.896 152.57 212.457 153.73C207.507 156.18 202.909 159.067 198.885 162.756L199.076 163.024C204.086 160.772 208.862 158.482 213.858 156.559C218.723 154.567 223.66 152.446 228.805 151.02C233.949 149.594 239.213 148.565 244.465 148.622C249.791 148.549 255.003 149.593 260.014 151.453L260.16 151.194Z" fill="#E5E5E5"/>
<path d="M260.721 148.97C261.068 147.892 261.049 146.707 260.927 145.553C260.806 144.399 260.348 143.237 259.613 142.265C259.23 141.73 258.98 141.263 258.495 140.759C258.01 140.254 257.482 139.978 256.955 139.703C256.324 139.458 255.724 139.312 255.081 139.396C254.408 139.38 253.794 139.563 253.137 139.975L253.124 140.304C254.093 141.314 254.71 141.887 255.458 142.53C256.075 143.104 257.042 143.357 257.79 143.999C258.113 144.336 258.437 144.672 258.76 145.009C259.083 145.346 259.333 145.812 259.554 146.179C260.026 147.013 260.322 148.007 260.546 149.13L260.721 148.97Z" fill="#E5E5E5"/>
<path d="M258.055 148.25C256.918 145.558 255.24 142.92 252.892 141.022C251.718 140.074 250.441 139.156 248.947 138.627C247.453 138.099 245.915 137.8 244.378 137.5C241.362 137.101 238.376 136.801 235.288 136.531C232.23 136.361 229.026 136.45 225.97 137.037C219.859 138.21 213.796 140.667 208.954 144.601C206.547 146.617 204.434 148.871 202.483 151.293C200.532 153.715 198.976 156.343 197.787 159.079L198.051 159.217C200.032 156.894 202.042 154.671 204.142 152.746C206.314 150.691 208.516 148.736 210.909 147.048C213.302 145.361 215.754 143.872 218.368 142.551C220.982 141.23 223.656 140.108 226.579 139.453C229.401 138.828 232.311 138.501 235.34 138.572C238.266 138.673 241.325 138.844 244.281 139.044C245.759 139.145 247.267 139.345 248.6 139.705C249.962 140.164 251.282 140.853 252.426 141.703C254.817 143.371 256.641 145.749 257.953 148.28L258.055 148.25Z" fill="#E5E5E5"/>
<path d="M278.847 144.755C279.415 144.045 279.88 143.365 280.478 142.754C281.075 142.143 281.702 141.631 282.33 141.119C282.957 140.607 283.805 140.463 284.3 139.882C284.548 139.592 284.795 139.301 285.116 138.881C285.334 138.491 285.654 138.071 285.945 137.552L285.856 137.253C284.698 136.733 283.645 136.939 282.622 137.244C281.629 137.648 281.12 138.557 280.582 139.367C280.044 140.177 279.505 140.987 279.231 141.935C278.927 142.783 278.653 143.731 278.583 144.617L278.847 144.755Z" fill="#E5E5E5"/>
<path d="M282.731 142.839C284.114 141.128 285.732 139.455 287.468 138.179C288.373 137.477 289.205 136.904 290.198 136.5C291.089 136.126 292.36 135.53 293.294 134.927C293.776 134.675 294.33 134.293 294.812 134.041C295.294 133.789 295.848 133.408 295.98 133.476C296.083 133.446 295.98 133.476 295.98 133.476C295.98 133.476 295.98 133.476 296.01 133.576C296.142 133.645 296.435 133.882 296.656 134.249C296.877 134.616 297.098 134.983 297.378 135.549C297.599 135.916 297.849 136.382 297.998 136.879C298.396 137.843 298.591 138.867 298.814 139.991L299.151 139.999C299.834 138.929 300.152 137.752 300.235 136.537C300.262 135.88 300.186 135.253 300.008 134.656C299.83 134.06 299.653 133.464 299.475 132.867C299.195 132.301 298.753 131.567 298.034 131.024C297.608 130.718 297.11 130.542 296.54 130.496C295.969 130.449 295.223 130.563 294.843 130.785C293.982 131.258 293.662 131.678 293.21 132.03C292.757 132.381 292.305 132.732 291.955 133.053C291.051 133.756 290.292 134.199 289.153 134.863C288.146 135.596 287.242 136.299 286.397 137.2C284.779 138.873 283.455 140.783 282.497 142.801L282.731 142.839Z" fill="#E5E5E5"/>
<path d="M294.138 129.913C293.157 125.876 291.869 121.931 290.551 117.886C289.161 113.972 287.771 110.057 286.044 106.134C284.347 102.311 282.62 98.3884 280.032 94.9392C277.576 91.5588 274.71 88.3005 271.277 85.7527L271 85.9436C273.004 89.6753 275.256 93.1167 277.332 96.7185C279.379 100.221 281.733 103.632 283.708 107.264C285.682 110.896 287.349 114.62 288.944 118.474C290.641 122.297 292.207 126.051 293.699 129.936L294.138 129.913Z" fill="#E5E5E5"/>
<path d="M256.962 84.0687C259.225 78.9563 260.3 73.2239 259.518 67.6126C259.413 66.8863 259.338 66.2594 259.13 65.5637L258.936 64.5392L258.64 63.5453C258.225 62.1537 257.737 60.8921 257.117 59.5616C255.806 57.0305 254.217 54.6903 252.248 52.5715C250.279 50.4528 248.063 48.6244 245.701 47.0557C244.455 46.2369 243.238 45.5176 241.948 44.9281C240.658 44.3386 239.339 43.6497 237.874 43.2207C235.149 42.3015 232.176 41.6727 229.177 41.7013C226.178 41.7298 223.297 42.156 220.446 42.6815C217.595 43.207 214.833 44.0307 212.041 44.755C209.249 45.4793 206.56 46.1731 203.768 46.8974C198.287 48.3155 192.717 49.4355 187.249 50.5249C181.679 51.6448 176.122 52.4361 170.463 53.2578C164.876 53.9497 159.158 54.5726 153.483 54.9663L153.469 55.2949C164.855 56.1206 176.368 55.5015 187.729 53.6287C189.118 53.4309 190.58 53.1032 191.969 52.9054L196.18 52.0827C199.001 51.4578 201.793 50.7335 204.555 49.9098C210.109 48.3617 215.472 46.5461 220.983 45.2274C223.702 44.6329 226.45 44.1379 229.215 44.0709C231.98 44.004 234.659 44.3957 237.252 45.246C239.816 45.9968 242.323 47.3056 244.625 48.6755C246.957 50.1448 249.114 51.7744 251.023 53.6944C252.932 55.6144 254.594 57.8247 255.847 60.157C256.437 61.3881 257.027 62.6192 257.412 63.9114L257.811 64.8748L258.107 65.8687C258.315 66.5645 258.39 67.1914 258.598 67.8871C259.525 73.2387 258.756 78.8795 256.728 84.0303L256.962 84.0687Z" fill="#E5E5E5"/>
<path d="M262.341 82.6807C265.396 77.9816 267.336 72.5326 267.9 66.9528C268.434 61.2735 267.286 55.5549 264.662 50.4927C262.039 45.4305 258.012 40.8948 252.939 38.0783C252.28 37.7338 251.62 37.3894 250.96 37.045L248.909 36.1416C247.546 35.6821 246.154 35.1231 244.749 34.8928C241.878 34.2335 239.024 34.0022 236.157 34.0996L236.144 34.4283C241.577 35.8385 246.69 37.6689 251.15 40.6685C253.379 42.1682 255.404 43.729 257.386 45.5191C259.368 47.3092 261 49.42 262.326 51.6225C265.006 56.1267 266.474 61.4251 266.188 66.814C266.105 72.1419 264.502 77.5988 261.946 82.474L262.341 82.6807Z" fill="#E5E5E5"/>
<path d="M267.674 84.8789C269.373 85.3464 271.115 85.5845 272.84 85.3945C274.566 85.2046 276.408 84.6554 277.646 83.2039C278.884 81.7523 279.228 79.918 279.163 78.2057C279.2 76.4628 279.033 74.7809 278.763 73.1296C278.326 69.7965 277.787 66.4939 277.116 63.1224C276.342 59.7813 275.364 56.5013 273.904 53.4732C272.414 50.3457 270.545 47.4397 268.224 44.885C266.005 42.2998 263.508 39.9055 260.764 37.8015C258.02 35.6975 255.131 33.8533 251.994 32.2994C250.41 31.4728 248.784 30.8754 247.158 30.2781C245.531 29.6807 243.73 29.2438 242.061 28.8757C235.383 27.4035 228.749 25.7021 222.26 23.7408C218.964 22.7754 215.741 21.6801 212.446 20.7147C209.12 19.6499 205.445 18.906 201.803 19.0182C194.487 19.1432 187.679 21.7147 181.517 24.9593C178.451 26.6313 175.444 28.5021 172.672 30.4112C171.285 31.3658 169.958 32.5192 168.47 33.5043C167.113 34.5583 165.786 35.7117 164.459 36.865L164.65 37.1327L168.941 34.3378C170.459 33.4521 171.846 32.4975 173.393 31.7112C176.328 29.9703 179.423 28.3977 182.447 26.955C188.654 24.2379 195.142 22.0866 201.741 22.1752C205.077 22.1545 208.152 22.7528 211.375 23.8481C214.568 24.844 217.894 25.9088 221.262 26.7443C227.926 28.5452 234.633 30.1167 241.353 31.3596C243.023 31.7277 244.662 31.9963 246.157 32.5248C247.681 33.1526 249.278 33.6506 250.831 34.3778C253.807 35.7634 256.769 37.4777 259.381 39.5128C264.677 43.4532 269.291 48.4632 272.356 54.2596C275.451 60.1553 276.632 66.73 277.711 73.3353C277.98 74.9867 278.25 76.638 278.285 78.2509C278.321 79.8639 278.049 81.5683 276.986 82.8594C275.923 84.1506 274.316 84.7382 272.62 85.0275C270.894 85.2174 269.181 85.0787 267.614 84.6801L267.674 84.8789Z" fill="#E5E5E5"/>
<path d="M224.202 87.777C221.732 84.7253 218.051 82.4678 213.967 81.8459C213.498 81.7691 212.928 81.7229 212.459 81.6461C211.888 81.5999 211.449 81.6225 210.908 81.6756C209.826 81.7819 208.773 81.9876 207.81 82.4915C205.852 83.3998 204.278 84.8435 202.908 86.2262C200.065 89.022 197.223 91.8179 193.968 93.979C190.744 96.2395 187.268 98.0335 183.602 99.5598C181.819 100.308 179.905 100.987 177.991 101.666C176.077 102.345 174.265 102.993 172.424 103.543C170.583 104.092 168.609 104.572 166.738 105.022C164.867 105.471 162.864 105.852 160.934 106.103C157.103 106.705 153.11 107.138 149.16 107.341C145.211 107.545 141.202 107.55 137.266 107.425L137.252 107.754C145.058 109.647 153.254 110.234 161.414 109.207C165.509 108.744 169.455 107.783 173.416 106.494C175.33 105.815 177.316 105.006 179.099 104.258C180.983 103.48 182.867 102.701 184.62 101.854C188.359 100.198 191.98 98.1437 195.145 95.6844C196.779 94.4395 198.281 93.1257 199.754 91.7126C201.226 90.2994 202.566 88.8173 203.937 87.4347C205.307 86.052 206.677 84.6693 208.297 83.7531C209.918 82.8369 211.878 82.6853 213.824 82.8625C217.718 83.2167 221.339 85.2754 223.954 88.0673L224.202 87.777Z" fill="#E5E5E5"/>
<path d="M167.883 152.195C165.223 152.988 162.52 154.01 159.979 155.201C158.708 155.796 157.467 156.491 156.226 157.186C154.985 157.881 153.744 158.576 152.533 159.37C151.322 160.164 150.11 160.958 148.928 161.852C147.747 162.745 146.756 163.906 145.898 165.137C144.283 167.566 143.123 170.402 143.075 173.23L143.339 173.368C145.086 171.007 146.585 168.936 148.348 167.003C150.111 165.071 151.772 163.168 153.931 161.442C155.01 160.579 156.119 159.816 157.199 158.952C158.308 158.189 159.417 157.425 160.628 156.631C162.948 155.073 165.358 153.813 167.899 152.623L167.883 152.195Z" fill="#E5E5E5"/>
<path d="M167.091 159.25C165.807 160.174 164.684 161.266 163.591 162.458C162.499 163.65 161.406 164.842 160.445 166.102C159.484 167.363 158.289 168.585 157.856 170.121C157.321 171.688 157.122 173.262 157.421 175.013L157.685 175.151C158.414 174.609 158.88 173.929 159.375 173.348C159.87 172.767 160.336 172.087 160.699 171.438C161.558 170.208 161.889 168.702 162.586 167.304C163.283 165.905 164.009 164.606 164.736 163.307C165.462 162.008 166.394 160.648 167.252 159.418L167.091 159.25Z" fill="#E5E5E5"/>
<path d="M168.088 171.183C167.773 173.117 167.429 174.951 167.114 176.885C166.8 178.819 166.558 180.622 166.346 182.526C166.134 184.429 165.585 186.324 165.709 188.235C165.731 190.177 166.09 192.127 166.887 194.053L167.224 194.061C167.703 193.053 168.007 192.204 168.252 191.157C168.526 190.21 168.698 189.292 168.87 188.375C169.214 186.541 168.958 184.561 168.966 182.719C168.944 180.777 168.819 178.866 168.797 176.924C168.673 175.013 168.651 173.071 168.424 171.191L168.088 171.183Z" fill="#E5E5E5"/>
<path d="M161.973 174.955C160.659 175.78 159.639 176.841 158.678 178.102C157.717 179.363 157.02 180.761 156.719 182.366C156.286 183.902 155.912 185.637 156.459 187.098C157.006 188.558 157.889 190.026 159.473 190.853L159.75 190.662C159.817 189.019 159.666 187.765 159.617 186.481C159.541 185.854 159.466 185.227 159.39 184.6C159.315 183.973 159.137 183.377 159.266 182.689C159.32 181.374 159.607 180.098 160.129 178.86C160.622 177.522 161.378 176.323 162.266 175.192L161.973 174.955Z" fill="#E5E5E5"/>
<path d="M155.239 166.572C154 168.024 152.924 169.643 152.111 171.401C151.299 173.159 150.779 175.153 150.669 177.026C150.457 178.929 150.304 181.031 150.97 182.889C151.266 183.883 151.738 184.717 152.311 185.52C152.885 186.323 153.561 187.095 154.412 187.708L154.689 187.517C154.637 185.476 154.368 183.824 154.171 182.043C154.036 181.217 153.901 180.392 153.737 179.467C153.5 178.672 153.335 177.747 153.303 176.89C153.238 175.178 153.377 173.405 153.751 171.67C154.125 169.935 154.835 168.208 155.575 166.58L155.239 166.572Z" fill="#E5E5E5"/>
<path d="M145.62 191.845L138.24 178.677C137.577 177.575 136.783 176.405 135.536 175.586C134.949 175.112 134.217 174.898 133.484 174.683C132.752 174.469 131.977 174.483 131.303 174.468C130.528 174.482 129.812 174.696 129.126 175.009C128.439 175.322 127.71 175.864 127.257 176.215C126.208 177.178 125.362 178.079 124.547 179.08C123.731 180.081 122.784 181.013 122.087 182.411C121.39 183.81 121.161 185.285 121.138 186.699C121.222 189.596 122.065 192.051 123.215 194.413C124.366 196.776 125.661 198.879 127.089 201.051C128.516 203.223 130.089 205.135 132.071 206.925L132.348 206.734C131.228 204.471 130.107 202.207 129.118 200.013C128.202 197.688 127.082 195.425 126.298 193.169C125.411 190.944 124.627 188.689 124.414 186.48C124.322 185.425 124.435 184.309 124.739 183.46C125.043 182.612 125.859 181.611 126.572 180.641C127.387 179.64 128.203 178.639 128.975 177.868C129.398 177.417 129.748 177.096 130.157 176.974C130.537 176.753 131.151 176.57 131.589 176.547C132.672 176.441 133.813 176.533 134.664 177.145C135.588 177.628 136.323 178.599 137.058 179.57C139.722 183.646 142.65 187.86 145.445 192.005L145.62 191.845Z" fill="#E5E5E5"/>
<path d="M147.002 193.489C146.758 194.536 146.615 195.553 146.605 196.638C146.594 197.724 146.584 198.809 146.778 199.834C146.972 200.858 147.328 202.051 148.063 203.022C148.416 203.458 148.901 203.963 149.531 204.208C150.161 204.453 150.761 204.599 151.23 204.675C152.167 204.829 152.958 205.242 153.809 205.854C154.235 206.16 154.63 206.367 154.954 206.704C155.277 207.04 155.498 207.407 155.557 207.606C155.587 207.705 155.587 207.705 155.514 207.835C155.514 207.835 155.441 207.965 155.339 207.996C155.266 208.126 155.062 208.187 154.959 208.217C154.857 208.248 154.755 208.278 154.652 208.309C154.214 208.331 153.422 207.918 152.571 207.306C150.869 206.082 148.903 204.72 146.677 203.977C145.548 203.555 144.275 203.394 143.031 203.332C141.787 203.27 140.662 203.606 139.784 203.651C138.263 203.78 136.548 202.884 135.153 201.569C133.758 200.253 132.756 198.387 131.651 196.552L131.345 196.643C131.528 198.753 132.078 200.97 133.344 202.974C134.58 204.878 136.767 206.607 139.693 206.709C141.04 206.74 141.99 206.565 142.897 206.619C143.775 206.574 144.712 206.727 145.576 207.011C147.48 207.417 149.122 208.443 150.999 209.506C151.527 209.782 151.952 210.088 152.583 210.333C153.213 210.578 153.945 210.793 154.793 210.648C154.998 210.587 155.202 210.526 155.407 210.465C155.611 210.404 155.816 210.343 155.991 210.182C156.268 209.991 156.648 209.77 156.895 209.48C157.143 209.189 157.463 208.769 157.549 208.311C157.635 207.852 157.59 207.325 157.471 206.927C157.132 206.162 156.647 205.657 156.221 205.351C155.766 204.946 155.238 204.67 154.813 204.364C153.86 203.783 152.6 203.293 151.458 203.2C150.887 203.154 150.419 203.077 150.053 202.97C149.686 202.863 149.261 202.557 148.967 202.319C148.321 201.646 147.952 200.782 147.656 199.788C147.165 197.77 146.981 195.66 147.266 193.627L147.002 193.489Z" fill="#E5E5E5"/>
<path d="M141.306 188.586C140.501 188.501 139.755 188.615 138.936 188.859C138.118 189.103 137.402 189.317 136.643 189.76C135.884 190.203 134.993 190.577 134.689 191.425C134.385 192.273 134.315 193.16 134.845 194.192L135.109 194.33C136.235 193.994 136.789 193.613 137.241 193.261C137.796 192.879 137.823 192.222 138.245 191.771C138.638 191.221 139.061 190.77 139.586 190.289C140.11 189.808 140.665 189.426 141.322 189.014L141.306 188.586Z" fill="#E5E5E5"/>
<path d="M190.367 104.686C188.445 107.207 186.068 109.323 183.279 110.804C180.593 112.255 177.478 112.642 174.363 113.03C172.739 113.189 171.218 113.318 169.565 113.378C167.912 113.438 166.391 113.567 164.797 113.826C161.609 114.344 158.524 114.831 155.25 115.807L155.237 116.136C158.474 116.903 161.737 117.012 164.941 116.922C168.144 116.833 171.375 116.086 174.533 115.469C176.097 115.11 177.764 114.722 179.298 114.264C180.935 113.776 182.513 113.089 183.899 112.134C186.671 110.225 188.827 107.742 190.426 104.885L190.367 104.686Z" fill="#E5E5E5"/>
<path d="M246.009 162.773C245.066 161.106 243.948 159.6 242.626 158.154C241.98 157.481 241.333 156.808 240.585 156.165C239.836 155.523 238.985 154.911 237.886 154.589C235.792 153.915 233.657 154.227 231.756 154.577C230.806 154.752 229.783 155.057 228.862 155.332C227.869 155.736 226.977 156.11 226.116 156.584C222.641 158.378 219.238 160.042 216.056 162.073C214.465 163.089 212.947 163.974 211.237 164.592C209.528 165.21 207.759 165.63 205.756 166.01L205.743 166.339C207.676 166.845 209.725 166.991 211.758 166.71C213.79 166.429 215.777 165.62 217.53 164.772C219.282 163.925 221.005 162.978 222.566 161.863C224.157 160.848 225.821 159.702 227.309 158.717C228.171 158.244 228.9 157.702 229.689 157.358C230.478 157.015 231.398 156.74 232.217 156.496C233.956 155.977 235.754 155.657 237.424 156.026C239.063 156.294 240.458 157.61 241.824 158.826C243.189 160.043 244.482 161.389 245.599 162.895L246.009 162.773Z" fill="#E5E5E5"/>
<path d="M211.249 163.507C214.14 161.995 217.002 160.384 219.893 158.873C222.784 157.361 225.705 155.949 228.685 154.736C229.401 154.522 230.19 154.179 230.935 154.064C231.754 153.82 232.5 153.706 233.318 153.462C234.882 153.104 236.344 152.776 237.631 152.609C239.02 152.411 240.323 152.672 241.613 153.261C242.903 153.851 244.179 154.769 245.31 155.947L245.588 155.756C245.216 154.135 244.303 152.567 242.835 151.382C242.116 150.838 241.295 150.326 240.401 149.943C239.507 149.56 238.467 149.437 237.56 149.383C235.643 149.305 233.904 149.824 232.297 150.411L230.003 151.312C229.214 151.655 228.426 151.999 227.637 152.342C224.643 153.884 221.812 155.595 219.009 157.404C216.339 159.283 213.566 161.192 211.028 163.14L211.249 163.507Z" fill="#E5E5E5"/>
<path d="M229.181 158.267C229.009 159.184 228.969 160.17 229.134 161.095C229.196 162.051 229.36 162.976 229.657 163.97C229.805 164.467 229.953 164.964 230.306 165.4C230.556 165.866 231.041 166.371 231.598 166.746C232.786 167.366 234.132 167.397 235.258 167.062C236.383 166.726 237.479 166.291 238.456 165.459C239.462 164.726 240.116 163.556 240.302 162.311C240.702 159.918 239.552 157.555 237.603 156.621L237.325 156.812C237.786 158.731 237.719 160.375 237.197 161.613C236.936 162.232 236.646 162.751 236.253 163.302C235.86 163.852 235.233 164.363 234.546 164.676C233.144 165.203 231.972 165.011 231.264 163.382C230.924 162.618 230.555 161.754 230.289 160.859C230.022 159.964 229.887 159.139 229.722 158.214L229.181 158.267Z" fill="#E5E5E5"/>
<path d="M234.254 156.971C235.676 157.629 236.5 158.899 236.314 160.145C236.231 161.36 235.138 162.552 234.436 162.437C233.792 162.52 233.262 161.488 232.761 160.555C232.51 160.089 232.289 159.722 232.214 159.095C232.138 158.468 232.165 157.81 232.235 156.924L231.971 156.786C231.08 157.16 230.38 157.802 229.973 158.68C229.567 159.559 229.454 160.675 229.751 161.669C230.047 162.663 230.621 163.466 231.501 164.178C231.927 164.484 232.455 164.759 233.055 164.905C233.656 165.051 234.329 165.066 234.942 164.883C236.17 164.517 236.913 163.646 237.451 162.836C237.857 161.957 238.03 161.04 237.865 160.115C237.536 158.265 235.907 156.911 234.297 156.742L234.254 156.971Z" fill="#E5E5E5"/>
<path d="M245.242 165.059C244.028 165.096 242.813 165.133 241.629 165.27C240.415 165.308 239.23 165.444 237.943 165.612C235.501 166.015 233.162 166.388 230.793 166.662C229.608 166.799 228.423 166.935 227.384 166.812C226.272 166.819 225.233 166.696 224.194 166.573C223.154 166.45 222.085 166.228 220.914 166.036L217.414 165.132L217.269 165.391C218.666 167.464 220.998 168.933 223.562 169.684C224.894 170.044 226.241 170.076 227.528 169.908C228.814 169.741 230.042 169.375 231.299 169.108C232.557 168.841 233.682 168.506 234.807 168.17L238.285 167.133C240.506 166.362 242.948 165.959 245.229 165.387L245.242 165.059Z" fill="#E5E5E5"/>
<path d="M220.453 164.117C221.862 165.104 223.445 165.931 225.174 166.498C226.902 167.064 228.747 167.272 230.532 167.281C232.346 167.389 234.088 167.627 235.828 167.109C236.646 166.865 237.567 166.59 238.355 166.247C239.144 165.903 240.006 165.43 240.705 164.788L240.617 164.49C239.65 164.237 238.845 164.152 237.938 164.098C237.03 164.044 236.225 163.96 235.348 164.005C233.665 163.965 232.058 164.553 230.332 164.743C228.606 164.933 226.983 165.092 225.373 164.923C223.66 164.784 222.093 164.386 220.467 163.788L220.453 164.117Z" fill="#E5E5E5"/>
<path d="M274.727 154.101C275.731 152.611 276.896 151.29 278.253 150.236C279.639 149.281 281.217 148.594 282.883 148.205C283.702 147.961 284.477 147.947 285.282 148.031C286.087 148.116 286.658 148.162 287.361 148.277C288.766 148.507 289.983 149.227 291.553 150.382L291.86 150.291C291.94 148.318 290.543 146.246 288.388 145.373C287.363 144.921 286.119 144.859 285.066 145.065C284.013 145.271 282.99 145.576 282.099 145.95C281.208 146.324 280.347 146.797 279.485 147.27C278.654 147.843 277.954 148.485 277.254 149.127C275.914 150.609 274.939 152.198 274.463 153.963L274.727 154.101Z" fill="#E5E5E5"/>
<path d="M276.232 153.544C277.559 152.391 279.179 151.474 280.743 151.116C282.41 150.727 284.135 150.538 285.468 150.898C286.098 151.143 286.656 151.518 286.906 151.984L287.51 152.887C287.73 153.254 288.215 153.759 288.773 154.133C290.019 154.952 291.438 154.854 292.534 154.419C293.629 153.984 294.432 153.312 294.97 152.502L294.779 152.234C293.799 152.31 292.921 152.355 292.116 152.271C291.413 152.155 290.885 151.88 290.694 151.612C290.562 151.543 290.473 151.245 290.18 151.008C289.959 150.641 289.606 150.205 289.151 149.799C288.241 148.989 287.113 148.567 285.941 148.375C284.873 148.153 283.82 148.359 282.767 148.564C281.744 148.87 280.926 149.114 280.064 149.587C278.312 150.434 276.81 151.748 275.806 153.238L276.232 153.544Z" fill="#E5E5E5"/>
<path d="M287.453 153.445C287.397 154.003 287.311 154.461 287.093 154.851C287.007 155.31 286.789 155.699 286.571 156.089C286.353 156.479 285.871 156.731 285.989 157.128C286.006 157.556 286.256 158.023 286.728 158.856L286.991 158.994C288.001 159.018 288.556 158.636 288.978 158.185C289.401 157.734 289.164 156.939 289.118 156.412C289.042 155.785 288.894 155.288 288.614 154.722C288.363 154.256 288.113 153.789 287.658 153.384L287.453 153.445Z" fill="#E5E5E5"/>
<path d="M289.251 156.48C289.124 157.925 288.47 159.094 287.566 159.797C287.114 160.148 286.5 160.331 285.886 160.514C285.17 160.728 284.629 160.781 283.985 160.865C283.342 160.948 282.741 160.803 282.141 160.657C281.541 160.511 280.94 160.366 280.369 160.319L278.393 160.043C277.69 159.928 276.988 159.813 276.183 159.728L276.037 159.988C276.614 161.548 277.95 162.665 279.474 163.292C280.998 163.92 282.826 163.7 284.39 163.342C285.208 163.098 286.027 162.853 286.683 162.441C287.34 162.029 288.099 161.586 288.667 160.875C289.731 159.584 290.104 157.849 289.587 156.488L289.251 156.48Z" fill="#E5E5E5"/>
<path d="M276.882 159.087C277.674 159.5 278.436 159.814 279.227 160.227C280.019 160.641 280.781 160.955 281.645 161.238C282.041 161.445 282.539 161.621 283.008 161.698C283.506 161.874 284.047 161.821 284.588 161.767C285.611 161.462 286.575 160.958 287.024 159.85L286.935 159.552C285.88 159.001 285.177 158.886 284.445 158.671C284.079 158.564 283.772 158.656 283.435 158.648C283.128 158.739 282.689 158.762 282.25 158.785C281.445 158.7 280.568 158.745 279.66 158.691C278.783 158.736 277.978 158.652 276.998 158.728L276.882 159.087Z" fill="#E5E5E5"/>
<path d="M279.184 152.988C279.084 153.776 279.015 154.662 279.15 155.488C279.182 156.344 279.287 157.07 279.452 157.995C279.718 158.89 280.454 159.861 281.377 160.343C282.301 160.826 283.268 161.079 284.379 161.072C284.921 161.019 285.564 160.935 286.148 160.652C286.732 160.37 287.185 160.019 287.607 159.568C288.35 158.697 288.799 157.589 288.84 156.603C288.89 154.531 287.918 152.765 286.377 151.709L286.1 151.9C286.133 152.756 286.033 153.543 286.036 154.3C285.907 154.988 285.88 155.645 285.722 156.234C285.563 156.822 285.375 157.311 285.157 157.701C284.939 158.091 284.793 158.351 284.18 158.534C283.668 158.686 282.995 158.67 282.365 158.425C281.764 158.28 281.339 157.974 281.029 157.308C280.749 156.743 280.41 155.978 280.173 155.183C279.965 154.487 279.728 153.692 279.593 152.866L279.184 152.988Z" fill="#E5E5E5"/>
<path d="M281.639 151.499C281.348 152.019 281.087 152.638 280.928 153.226C280.77 153.815 280.743 154.472 280.716 155.129C280.792 155.756 280.926 156.582 281.573 157.255C281.896 157.592 282.424 157.867 282.79 157.974C283.258 158.051 283.727 158.128 284.166 158.105C284.605 158.083 285.116 157.93 285.568 157.579C286.05 157.327 286.545 156.746 286.734 156.257C287.11 155.279 287.048 154.323 286.739 153.658C286.429 152.993 286.017 152.358 285.459 151.983C284.872 151.509 284.344 151.233 283.51 151.049L283.232 151.24C283.235 151.997 283.384 152.494 283.459 153.121C283.505 153.648 283.551 154.176 283.567 154.604C283.583 155.032 283.57 155.361 283.702 155.429C283.732 155.529 283.834 155.498 283.834 155.498C283.864 155.598 283.761 155.628 283.659 155.659C283.352 155.75 283.045 155.842 282.913 155.773C282.679 155.735 282.356 155.398 282.208 154.901C281.957 154.435 281.911 153.907 281.836 153.28C281.79 152.753 281.744 152.225 281.771 151.568L281.639 151.499Z" fill="#E5E5E5"/>
<path d="M253.338 231.048C256.835 231.196 260.329 230.586 263.646 229.381C265.356 228.763 266.844 227.778 268.276 227.351C268.993 227.137 269.811 226.893 270.557 226.779C271.303 226.665 272.18 226.62 273.058 226.574C274.813 226.484 276.466 226.424 278.222 226.333C279.099 226.288 279.875 226.273 280.753 226.228C281.63 226.183 282.508 226.137 283.531 225.832C284.452 225.558 285.343 225.184 286.131 224.84C286.511 224.619 286.92 224.497 287.197 224.306C287.504 224.214 287.709 224.153 288.016 224.062C288.557 224.009 289.451 224.391 290.461 224.415C291.47 224.439 292.421 224.263 293.18 223.821L293.091 223.522C292.184 223.468 291.378 223.384 290.719 223.039C290.089 222.794 289.472 222.221 288.271 221.929C287.671 221.784 286.998 221.768 286.486 221.92C285.945 221.974 285.433 222.126 285.024 222.248C284.206 222.492 283.49 222.706 282.744 222.82C282.101 222.904 281.325 222.918 280.447 222.964C279.57 223.009 278.722 223.153 277.874 223.298L272.756 224.067C271.908 224.211 271.06 224.356 270.109 224.531C269.189 224.806 268.37 225.05 267.479 225.424C265.697 226.172 264.34 227.226 262.865 227.882C259.872 229.424 256.568 230.301 253.117 230.681L253.338 231.048Z" fill="#E5E5E5"/>
<path d="M292.699 220.717C292.165 218.928 291.5 217.07 290.557 215.403C290.086 214.569 289.483 213.667 288.529 213.085C288.104 212.779 287.474 212.534 286.801 212.518C286.128 212.502 285.441 212.815 285.062 213.037C283.441 213.953 281.745 214.242 280.046 213.775C279.211 213.591 278.113 213.269 277.001 213.276C275.889 213.283 274.704 213.42 273.609 213.855C271.417 214.725 269.872 216.268 268.443 217.452C267.013 218.635 265.554 219.72 263.993 220.835C261.003 223.134 257.718 225.196 254.523 227.555L254.612 227.854C258.486 227.023 262.255 225.466 265.642 223.374C267.335 222.328 268.969 221.083 270.441 219.67C271.884 218.157 273.049 216.836 274.495 216.08C275.181 215.767 276 215.523 276.877 215.477C277.653 215.463 278.59 215.616 279.629 215.739C281.737 216.085 284.12 215.482 285.886 214.306C286.265 214.085 286.543 213.894 286.849 213.802C287.186 213.81 287.523 213.818 287.918 214.025C288.68 214.339 289.224 215.042 289.768 215.746C290.886 217.253 291.727 218.95 292.465 220.678L292.699 220.717Z" fill="#E5E5E5"/>
<path d="M267.027 237.356C269.501 237.809 271.886 237.963 274.447 237.957C277.007 237.951 279.479 237.647 281.891 237.144C284.303 236.641 287.052 236.146 289.211 234.42C289.736 233.939 290.29 233.557 290.785 232.977C291.281 232.396 291.644 231.746 291.905 231.127C292.427 229.889 292.685 228.514 292.534 227.26L292.168 227.153C291.484 228.222 290.741 229.093 289.969 229.865C289.196 230.636 288.467 231.179 287.503 231.682C285.678 232.66 283.575 233.828 281.325 234.499C279.074 235.17 276.692 235.772 274.352 236.145C272.013 236.518 269.511 236.723 267.083 236.798L267.027 237.356Z" fill="#E5E5E5"/>
<path d="M247.664 197.456C246.423 198.151 245.271 199.144 244.149 200.236C243.653 200.817 243.158 201.397 242.663 201.978C242.3 202.627 241.834 203.307 241.471 203.957C241.107 204.606 240.774 205.355 240.542 206.074C240.311 206.792 240.109 207.61 240.112 208.367C240.118 209.88 240.592 211.471 241.621 212.679L241.928 212.588C242.262 211.839 242.493 211.12 242.652 210.532C242.913 209.913 243.042 209.225 243.2 208.636C243.518 207.459 243.469 206.175 243.757 204.899C244.044 203.622 244.566 202.384 245.22 201.215C245.874 200.046 246.66 198.946 247.651 197.785L247.664 197.456Z" fill="#E5E5E5"/>
<path d="M268.801 245.918C270.554 245.071 272.234 244.353 274.032 244.033C275.801 243.614 277.658 243.493 279.443 243.502C281.229 243.511 282.825 244.009 284.465 244.277C285.3 244.461 286.032 244.676 286.896 244.959C287.761 245.243 288.523 245.557 289.548 246.008L289.826 245.818C289.233 243.83 287.544 242.277 285.625 241.442C284.599 240.991 283.53 240.768 282.447 240.874C281.336 240.881 280.385 241.057 279.303 241.163C278.25 241.369 277.402 241.513 276.379 241.818C275.458 242.093 274.435 242.398 273.544 242.772C271.792 243.619 270.069 244.566 268.567 245.88L268.801 245.918Z" fill="#E5E5E5"/>
<path d="M297.951 143.82C295.722 146.433 294.242 149.689 293.874 152.937C293.705 154.611 293.536 156.285 293.367 157.959C293.197 159.633 293.16 161.376 293.43 163.027C293.765 166.391 295.356 169.488 296.378 172.538C296.954 174.098 297.297 175.62 297.464 177.301C297.704 178.853 297.535 180.527 297.57 182.14C297.46 184.013 297.218 185.817 296.874 187.651C296.702 188.568 296.53 189.486 296.358 190.403C296.186 191.32 296.146 192.306 295.974 193.223C295.651 196.999 295.329 200.775 295.11 204.521C294.89 208.266 294.904 212.05 295.05 215.903C295.175 217.814 295.299 219.725 295.628 221.575C295.792 222.5 295.957 223.425 296.092 224.251C296.124 225.107 296.186 226.063 296.117 226.949C296.109 228.792 295.867 230.595 295.493 232.33C295.12 234.065 294.409 235.792 293.86 237.688C292.631 241.41 292.236 245.316 292.28 249.199C292.302 251.141 292.559 253.121 292.653 254.932C292.686 255.788 292.689 256.545 292.487 257.363C292.256 258.081 291.922 258.83 291.486 259.61C289.61 262.659 287.104 265.462 284.054 267.562L284.741 267.249C284.229 267.402 283.748 267.654 283.398 267.975L282.741 268.387C282.259 268.639 281.909 268.96 281.397 269.112C280.916 269.364 280.434 269.616 279.922 269.769L278.417 270.326C276.401 271.035 274.325 271.546 272.22 271.957C270.115 272.369 267.98 272.681 265.683 272.824C264.601 272.931 263.519 273.037 262.407 273.044L260.754 273.104L258.969 273.095L259.173 273.034C255.369 272.978 251.535 272.822 247.774 272.537C245.827 272.36 243.983 272.152 242.138 271.945L239.357 271.583L237.952 271.353L237.249 271.238L236.912 271.23L236.781 271.161L236.649 271.092C236.517 271.024 236.312 271.085 236.18 271.016L236.751 271.062C227.761 269.305 218.916 267.289 210.114 265.043C205.677 263.985 201.312 262.798 196.845 261.64C192.378 260.483 188.087 259.165 183.62 258.008L183.474 258.268C187.753 259.914 192.002 261.461 196.323 262.878C200.645 264.295 204.966 265.713 209.361 267C218.076 269.704 226.981 271.919 235.928 273.905L236.499 273.951C236.396 273.982 236.294 274.012 236.162 273.943C236.06 273.974 236.06 273.974 236.162 273.943L236.396 273.982L236.762 274.089L237.465 274.204L238.871 274.434C239.808 274.588 240.745 274.741 241.784 274.864C243.76 275.141 245.604 275.349 247.551 275.526C251.444 275.88 255.308 276.135 259.185 276.061L259.389 276L259.624 276.038L260.062 276.016L260.94 275.971L262.695 275.88C263.807 275.873 264.992 275.736 266.074 275.63C268.341 275.387 270.578 275.044 272.888 274.572C275.198 274.1 277.347 273.459 279.568 272.688L281.145 272.002C281.627 271.75 282.211 271.467 282.693 271.215C283.175 270.963 283.729 270.581 284.211 270.33L284.97 269.887C285.073 269.856 284.941 269.787 285.013 269.657L285.7 269.344C288.968 266.855 291.649 263.891 293.713 260.353C294.221 259.443 294.7 258.435 294.945 257.388C295.19 256.341 295.273 255.125 295.108 254.2C294.955 252.19 294.655 250.439 294.663 248.597C294.576 244.943 294.928 241.266 295.982 237.705C296.458 235.939 297.139 234.113 297.556 232.148C297.973 230.184 298.082 228.311 298.163 226.339C298.203 225.353 298.141 224.398 298.049 223.343C297.957 222.288 297.69 221.393 297.526 220.468C297.197 218.618 297 216.837 296.905 215.025C296.686 211.302 296.672 207.518 296.789 203.803C296.907 200.088 297.127 196.343 297.347 192.597C297.416 191.711 297.456 190.725 297.629 189.807C297.698 188.921 297.973 187.973 298.145 187.056C298.489 185.221 298.672 183.219 298.781 181.346C298.819 179.603 298.856 177.86 298.586 176.209C298.317 174.558 297.915 172.838 297.339 171.278C296.185 168.158 294.623 165.161 294.216 161.927C293.946 160.276 294.013 158.632 294.08 156.989C294.147 155.345 294.316 153.671 294.485 151.997C294.853 148.749 296.231 145.524 298.255 142.972L297.951 143.82Z" fill="#E5E5E5"/>
<path d="M132.966 215.533C135.538 218.554 138.869 221.132 142.257 223.153C144.002 224.148 145.776 225.242 147.871 225.916C150.039 226.46 152.437 226.286 154.526 225.447C156.645 224.707 158.484 223.401 160.118 222.156C160.949 221.583 161.752 220.911 162.408 220.499C162.686 220.308 162.993 220.216 162.89 220.247C162.89 220.247 162.788 220.277 162.758 220.178C162.758 220.178 162.758 220.178 162.626 220.109C162.435 219.841 162.465 219.941 162.494 220.04C162.804 220.705 162.998 221.73 163.163 222.655C163.43 223.549 163.624 224.574 163.788 225.499C164.249 227.418 164.71 229.337 165.405 231.294L165.742 231.302C166.026 229.269 166.107 227.297 166.055 225.256C166.095 224.27 166.003 223.215 165.941 222.259C165.849 221.204 165.817 220.348 165.534 219.025C165.445 218.727 165.297 218.23 164.68 217.657C164.387 217.419 164.123 217.282 163.859 217.144C163.595 217.006 163.258 216.998 163.024 216.96C161.883 216.867 161.123 217.31 160.642 217.562C159.503 218.226 158.803 218.868 158.001 219.54C156.499 220.854 155.07 222.038 153.419 222.855C151.769 223.671 149.941 223.892 148.199 223.654C146.427 223.316 144.61 222.451 142.895 221.556C141.077 220.691 139.362 219.795 137.69 218.67C136.017 217.545 134.447 216.39 133.023 214.975L132.966 215.533Z" fill="#E5E5E5"/>
<path d="M144.098 226.716C146.922 234.317 148.65 242.352 149.295 250.493C149.809 258.566 149.708 266.821 147.939 274.709C147.522 276.673 146.973 278.569 146.352 280.594C145.701 282.52 145.02 284.346 144.267 286.303C142.73 290.116 141.164 293.83 139.173 297.238C137.079 300.677 134.398 303.641 131.424 306.368C128.347 309.125 124.918 311.447 121.267 313.401L121.356 313.699C129.438 311.289 136.997 306.004 141.871 298.815C143.123 297.034 144.11 295.116 144.966 293.129C145.821 291.142 146.575 289.186 147.226 287.26C148.63 283.378 149.741 279.259 150.516 275.131C151.29 271.004 151.625 266.899 151.595 262.687C151.594 258.575 151.358 254.424 150.919 250.334C149.937 242.184 147.668 234.202 144.405 226.625L144.098 226.716Z" fill="#E5E5E5"/>
<path d="M259.705 278.179C259.431 283.239 259.026 288.231 258.416 293.283C257.806 298.336 257.065 303.319 256.22 308.333C255.479 313.317 254.43 318.392 254.523 323.559C254.62 326.128 254.718 328.696 255.122 331.173C255.424 333.681 256.165 336.166 256.804 338.681L257.111 338.589C257.35 336.029 257.252 333.46 257.317 331.06C257.453 328.53 257.488 326.03 257.654 323.6C258.059 318.608 258.26 313.678 258.767 308.656C259.275 303.634 259.753 298.513 260.026 293.453C260.197 288.423 260.236 283.324 260.071 278.287L259.705 278.179Z" fill="#E5E5E5"/>
<path d="M259.871 313.846C261.101 314.237 262.302 314.528 263.43 314.949C264.661 315.34 265.862 315.631 266.96 315.953C268.161 316.244 269.246 316.895 270.49 316.957C271.163 316.972 271.734 317.019 272.348 316.836C272.991 316.752 273.605 316.569 274.423 316.325L274.437 315.996C273.922 315.392 273.365 315.017 272.807 314.642C272.25 314.267 271.62 314.022 271.122 313.846C269.964 313.326 268.605 313.623 267.331 313.461C266.087 313.399 264.843 313.337 263.527 313.405C262.313 313.443 260.966 313.411 259.679 313.578L259.871 313.846Z" fill="#E5E5E5"/>
<path d="M212.314 278.025C212.56 281.09 212.806 284.155 212.847 287.282C212.99 290.378 213.032 293.505 213.043 296.532C213.055 299.559 212.657 302.708 212.801 305.804C212.944 308.9 213.088 311.996 213.772 315.039L214.109 315.046C215.209 312.012 215.739 308.932 216.004 305.714C216.3 302.596 215.922 299.461 215.647 296.296C215.371 293.132 215.023 290.097 214.543 286.993C214.063 283.889 213.481 280.815 212.694 277.803L212.314 278.025Z" fill="#E5E5E5"/>
<path d="M256.799 294.956C256.412 297.02 255.863 298.915 254.978 300.803C254.571 301.682 254.063 302.591 253.554 303.5C253.045 304.41 252.507 305.219 251.837 305.96C251.167 306.701 250.496 307.443 249.797 308.084C249.097 308.726 248.427 309.467 247.624 310.139C246.284 311.621 244.812 313.034 243.428 314.746L243.619 315.013C244.804 314.876 245.827 314.571 246.923 314.136C247.916 313.732 248.952 313.098 249.857 312.396C251.695 311.09 252.888 309.111 254.007 307.261C255.127 305.412 255.953 303.326 256.545 301.201C257.034 299.107 257.289 296.975 257.208 294.834L256.799 294.956Z" fill="#E5E5E5"/>
<path d="M430.351 121.1C425.692 119.229 424.252 113.213 423.746 110.778C421.385 100.546 427.215 83.1111 441.489 72.7501C446.581 69.079 446.701 70.6951 468.431 60.2063C481.712 53.7908 480.41 53.7472 483.657 52.7926C498.676 48.0987 512.914 52.3824 524.583 55.8426C533.661 58.5816 543.16 61.4033 553.018 69.0733C561.649 75.7589 563.712 80.8356 578.313 92.7287C584.725 97.9167 584.825 97.4055 588.427 100.767C592.198 104.375 600.633 112.615 605.388 125.122C609.458 136.113 606.675 139.708 612.189 147.798C613.721 150.01 615.674 152.305 616.74 156.337C618.066 161.269 616.747 164.088 616.62 168.629C616.366 177.71 621.171 179.397 621.909 186.762C622.169 189.892 621.696 193.409 608.927 212.24C603.828 219.839 599.722 225.721 592.558 234.931C580.992 249.858 579.148 250.345 576.244 256.782C571.611 267.02 571.737 276.388 571.87 281.829C572.013 288.333 572.408 304.124 583.131 316.848C588.61 323.445 594.601 326.321 602.031 330.223C613.553 336.096 630.225 344.68 652.242 356.65C643.315 365.938 614.557 393.838 566.567 401.716C532.001 407.454 520.639 389.084 474.3 389.111C467.746 389.098 486.583 386.109 469.42 376.686C462.306 372.846 458.727 362.694 455.612 359.64C472.651 353.007 452.276 355.481 469.315 348.848C467.772 336.123 466.124 323.377 464.58 310.652C456.834 311.147 450.711 310.051 446.773 308.958C441.382 307.475 436.813 306.259 433.457 302.202C432.14 300.563 431.249 297.309 429.679 290.842C420.113 252.759 426.732 278.585 424.686 270.644C422.985 263.728 422.705 262.929 422.495 260.659C421.956 254.501 423.415 253.195 423.322 247.55C423.239 242.968 422.292 242.782 419.951 232.448C418.2 224.672 417.325 220.784 417.361 217.818C417.474 209.453 420.682 208.703 420.56 199.867C420.501 195.714 420.382 191.869 418.119 187.815C415.751 183.739 413.055 182.997 412.37 179.253C411.885 176.716 412.562 174.938 414.203 170.482C415.863 165.925 417.438 161.244 419.204 156.707C422.981 146.938 422.174 146.036 425.028 138.74C426.733 134.51 429.452 128.461 434.305 121.558C433.087 121.637 431.679 121.573 430.351 121.1Z" fill="#17293B"/>
<path d="M413.855 178.933C418.745 178.514 423.706 178.851 428.425 180.415C430.785 181.197 433.019 182.061 435.299 183.252C436.376 183.888 437.433 184.627 438.344 185.549C439.256 186.471 440.002 187.68 440.162 189.091C440.252 189.746 440.216 190.482 440.096 191.095C439.955 191.811 439.75 192.302 439.524 192.894L438.42 196.287C437.643 198.576 436.885 200.763 436.002 203.032C435.12 205.3 434.152 207.446 432.848 209.632C431.565 211.715 430.071 213.758 428.406 215.554C426.742 217.351 425.118 218.943 424.421 220.823C424.009 221.804 423.829 222.724 423.964 223.706C423.968 224.238 424.099 224.688 424.229 225.138C424.359 225.589 424.489 226.039 424.744 226.408C425.62 228.066 427.479 229.174 429.568 230.222C430.074 230.427 430.58 230.633 431.086 230.839C431.592 231.044 432.118 231.148 432.749 231.272C434.097 231.642 435.47 232.443 436.442 233.059C438.681 234.454 440.614 236.851 441.415 239.45C441.805 240.801 441.88 242.09 441.829 243.46C441.814 244.094 441.673 244.81 441.573 245.321C441.452 245.934 441.332 246.547 441.106 247.14C440.88 247.733 440.614 248.53 439.948 249.142C439.386 249.775 438.569 250.039 437.878 250.222C436.41 250.464 434.831 250.154 433.73 249.089C433.179 248.556 432.878 247.86 432.683 247.184C432.593 246.53 432.628 245.793 432.854 245.201C433.326 243.913 434.283 242.933 435.561 242.547L435.731 242.793C434.749 243.343 434.002 244.364 433.801 245.387C433.6 246.409 433.926 247.534 434.707 248.007C435.468 248.581 436.541 248.685 437.463 248.442C438.405 248.096 438.821 247.647 439.022 246.625C439.122 246.113 439.223 245.602 439.238 244.968C439.253 244.334 439.354 243.823 439.349 243.291C439.339 242.228 439.099 241.225 438.754 240.202C438.043 238.257 436.706 236.72 434.742 235.591C433.665 234.955 432.883 234.483 431.936 234.297C431.41 234.194 430.799 233.967 430.063 233.823C429.451 233.596 428.735 233.35 428.144 233.021C425.95 231.953 423.31 230.373 421.963 227.772C420.636 225.07 420.777 222.125 421.931 219.591C423.084 217.057 425.064 215.322 426.688 213.73C428.312 212.138 429.766 210.301 431.01 208.421C432.273 206.44 433.221 204.397 434.189 202.251C435.157 200.105 436.019 197.939 436.797 195.65L438.111 192.298C438.563 191.113 438.848 190.213 438.714 189.231C438.464 187.165 436.706 185.546 434.657 184.294C432.713 183.062 430.394 182.076 428.159 181.212C423.67 179.587 418.77 178.943 413.92 179.158L413.855 178.933Z" fill="#E5E5E5"/>
<path d="M450.506 234.335C449.99 233.065 449.224 231.959 448.147 231.323C447.661 231.015 447.07 230.687 446.544 230.583C445.932 230.357 445.406 230.254 444.755 230.232C443.577 230.107 442.299 230.493 441.102 230.47C439.799 230.426 438.602 230.403 436.898 230.175L436.873 229.745C437.786 228.438 439.249 227.664 440.757 227.217C441.449 227.035 442.331 226.995 443.067 227.14C443.804 227.285 444.646 227.45 445.362 227.697C446.92 228.109 448.273 229.012 449.355 230.18C450.311 231.43 450.892 232.924 450.841 234.294L450.506 234.335Z" fill="#E5E5E5"/>
<path d="M459.33 220.567C460.096 221.673 460.737 222.861 461.252 224.13C461.768 225.399 462.073 226.627 462.358 227.957C462.643 229.287 462.698 230.678 462.397 232.211C461.99 233.724 461.078 235.031 459.805 235.949C459.158 236.459 458.552 236.765 457.82 237.152C457.108 237.437 456.502 237.742 455.81 237.925C454.302 238.372 452.769 238.389 451.381 238.222C448.605 237.889 445.824 237.025 443.52 235.404L443.58 235.097C445.008 235.059 446.311 235.103 447.634 235.044C448.937 235.088 450.154 235.009 451.477 234.95C452.8 234.891 453.892 234.894 455.005 234.794C455.571 234.693 456.242 234.612 456.724 234.388C457.31 234.185 457.771 234.063 458.272 233.737C460.217 232.739 460.889 230.429 460.72 227.954C460.625 226.767 460.465 225.355 460.265 224.148C459.96 222.92 459.55 221.672 459.014 220.505L459.33 220.567Z" fill="#E5E5E5"/>
<path d="M457.787 233.429C455.934 230.623 453.58 228.143 450.875 226.338C448.17 224.532 445.049 223.176 441.912 222.454C440.334 222.144 438.716 222.038 437.458 222.322C436.787 222.402 436.285 222.729 435.679 223.034C435.178 223.36 434.406 223.952 433.549 224.421C433.068 224.645 432.692 224.889 432.231 225.011C431.77 225.133 431.394 225.377 430.933 225.499C430.011 225.743 429.089 225.986 428.102 226.005C427.115 226.023 425.957 225.796 425.09 225.201C424.224 224.606 423.733 223.766 423.473 222.866L423.724 222.703C426.268 225.326 429.19 223.246 431.676 221.717C432.302 221.309 432.739 220.758 433.721 220.207C434.703 219.657 435.751 219.332 436.758 219.211C438.772 218.97 440.666 219.342 442.415 219.898C445.912 221.01 448.952 222.775 451.702 224.908C454.432 227.143 456.496 229.99 457.973 233.041L457.787 233.429Z" fill="#E5E5E5"/>
<path d="M444.963 188.016C444.631 190.818 444.194 193.599 443.547 196.338C442.899 199.077 442.041 201.776 441.078 204.453C440.115 207.13 439.257 209.829 437.578 212.259C436.023 214.608 434.153 216.895 431.838 218.67L431.542 218.505C432.42 215.705 433.554 213.273 434.812 210.76C435.966 208.226 437.5 205.98 438.738 203.569C439.977 201.158 441.025 198.603 441.968 196.028C443.017 193.473 443.874 190.775 444.607 188.159L444.963 188.016Z" fill="#E5E5E5"/>
<path d="M452.202 185.085C456.778 182.374 461.97 180.422 467.507 179.492C473.024 178.665 478.551 178.901 484.017 179.444C486.793 179.777 489.443 180.192 492.179 180.729C494.915 181.267 497.59 182.111 500.14 183.037C505.325 185.011 510.2 187.455 514.578 190.757L514.412 191.043C509.187 189.273 504.192 187.442 499.012 186C493.956 184.476 488.816 182.829 483.535 181.898C478.254 180.967 472.893 180.444 467.647 181.006C462.315 181.445 457.204 182.989 452.372 185.331L452.202 185.085Z" fill="#E5E5E5"/>
<path d="M451.427 182.916C450.976 181.872 450.882 180.685 450.892 179.52C450.903 178.354 451.249 177.148 451.891 176.106C452.222 175.534 452.427 175.043 452.863 174.492C453.3 173.941 453.801 173.615 454.302 173.288C454.908 172.983 455.495 172.779 456.146 172.801C456.817 172.721 457.449 172.845 458.145 173.194L458.19 173.521C457.318 174.624 456.756 175.257 456.07 175.971C455.508 176.604 454.566 176.95 453.879 177.665C453.589 178.032 453.298 178.4 453.007 178.767C452.716 179.135 452.511 179.625 452.325 180.013C451.934 180.892 451.733 181.914 451.617 183.06L451.427 182.916Z" fill="#E5E5E5"/>
<path d="M454.023 181.94C454.901 179.139 456.325 176.34 458.491 174.217C459.573 173.156 460.761 172.115 462.205 171.443C463.648 170.771 465.156 170.325 466.665 169.878C469.641 169.188 472.598 168.601 475.66 168.035C478.701 167.571 481.913 167.352 485.025 167.645C491.248 168.231 497.546 170.105 502.765 173.572C505.365 175.357 507.694 177.407 509.878 179.641C512.062 181.875 513.87 184.354 515.322 186.975L515.071 187.138C512.867 185.006 510.644 182.977 508.359 181.254C505.99 179.408 503.601 177.665 501.046 176.207C498.491 174.75 495.896 173.497 493.155 172.428C490.415 171.358 487.634 170.494 484.648 170.119C481.767 169.766 478.826 169.719 475.804 170.081C472.888 170.463 469.846 170.927 466.91 171.412C465.442 171.655 463.953 171.999 462.655 172.487C461.337 173.078 460.084 173.893 459.022 174.853C456.791 176.75 455.197 179.304 454.128 181.96L454.023 181.94Z" fill="#E5E5E5"/>
<path d="M432.899 180.444C432.263 179.788 431.732 179.153 431.075 178.6C430.419 178.046 429.743 177.595 429.067 177.143C428.39 176.692 427.529 176.629 426.978 176.096C426.702 175.829 426.427 175.563 426.066 175.173C425.811 174.805 425.45 174.415 425.11 173.924L425.17 173.617C426.277 172.985 427.35 173.09 428.402 173.297C429.434 173.606 430.03 174.466 430.646 175.224C431.262 175.982 431.878 176.74 432.243 177.661C432.629 178.48 432.994 179.401 433.149 180.281L432.899 180.444Z" fill="#E5E5E5"/>
<path d="M428.831 178.902C427.283 177.324 425.505 175.806 423.646 174.698C422.674 174.082 421.788 173.59 420.756 173.281C419.829 172.993 418.501 172.519 417.509 172.006C417.003 171.8 416.412 171.472 415.906 171.266C415.4 171.061 414.809 170.732 414.684 170.814C414.578 170.793 414.684 170.814 414.684 170.814C414.684 170.814 414.684 170.814 414.664 170.916C414.538 170.998 414.268 171.263 414.082 171.651C413.897 172.039 413.711 172.428 413.485 173.02C413.3 173.409 413.094 173.899 412.994 174.41C412.688 175.412 412.592 176.455 412.476 177.6L412.141 177.64C411.354 176.636 410.924 175.49 410.724 174.283C410.634 173.628 410.649 172.994 410.77 172.381C410.89 171.767 411.011 171.154 411.131 170.541C411.357 169.948 411.728 169.172 412.395 168.559C412.791 168.212 413.272 167.988 413.838 167.887C414.404 167.786 415.161 167.829 415.562 168.014C416.468 168.404 416.829 168.793 417.315 169.101C417.801 169.409 418.287 169.717 418.667 170.004C419.639 170.62 420.441 170.989 421.643 171.544C422.72 172.18 423.692 172.796 424.624 173.616C426.402 175.133 427.909 176.916 429.061 178.841L428.831 178.902Z" fill="#E5E5E5"/>
<path d="M416.184 167.074C416.777 162.944 417.686 158.875 418.614 154.705C419.628 150.657 420.642 146.609 421.991 142.521C423.321 138.536 424.67 134.448 426.927 130.75C429.058 127.134 431.609 123.601 434.797 120.724L435.093 120.888C433.448 124.812 431.527 128.469 429.797 132.27C428.087 135.968 426.061 139.605 424.436 143.426C422.811 147.248 421.502 151.131 420.278 155.138C418.948 159.123 417.744 163.027 416.625 167.054L416.184 167.074Z" fill="#E5E5E5"/>
<path d="M448.948 117.664C446.194 112.77 444.568 107.142 444.81 101.457C444.846 100.72 444.861 100.086 445.001 99.3709L445.097 98.3279L445.298 97.3057C445.579 95.8745 445.945 94.5662 446.437 93.1764C447.505 90.5196 448.869 88.0271 450.634 85.7195C452.399 83.4118 454.439 81.3707 456.649 79.5754C457.817 78.6369 458.965 77.8007 460.198 77.0873C461.431 76.374 462.684 75.5584 464.107 74.9887C466.743 73.8078 469.654 72.8934 472.656 72.6337C475.657 72.374 478.579 72.5232 481.48 72.7746C484.381 73.026 487.222 73.5841 490.083 74.0399C492.943 74.4958 495.699 74.931 498.56 75.3869C504.177 76.278 509.854 76.8623 515.425 77.4261C521.102 78.0104 526.734 78.2675 532.471 78.5452C538.123 78.7 543.9 78.7733 549.613 78.6214L549.658 78.9487C538.353 80.8685 526.783 81.3561 515.244 80.5755C513.836 80.5113 512.343 80.3241 510.935 80.2598L506.646 79.842C503.765 79.4883 500.904 79.0324 498.063 78.4743C492.361 77.4604 486.825 76.1604 481.188 75.3716C478.412 75.0386 475.616 74.8078 472.845 75.0066C470.074 75.2055 467.434 75.8546 464.923 76.9539C462.432 77.951 460.051 79.5005 457.881 81.0914C455.691 82.7846 453.691 84.6213 451.966 86.7244C450.242 88.8276 448.793 91.1972 447.765 93.6495C447.293 94.9371 446.822 96.2248 446.561 97.5537L446.254 98.5553L446.054 99.5776C445.913 100.293 445.898 100.927 445.757 101.643C445.344 107.083 446.655 112.649 449.178 117.604L448.948 117.664Z" fill="#E5E5E5"/>
<path d="M443.435 116.794C439.93 112.389 437.466 107.127 436.366 101.603C435.286 95.9757 435.885 90.1476 438.021 84.8341C440.158 79.5206 443.748 74.5986 448.549 71.2951C449.176 70.8873 449.802 70.4795 450.429 70.0717L452.393 68.9713C453.711 68.3809 455.049 67.6882 456.432 67.3229C459.239 66.3878 462.07 65.8823 464.946 65.7041L464.991 66.0315C459.694 67.9636 454.758 70.2852 450.587 73.7128C448.502 75.4266 446.628 77.1818 444.818 79.162C443.008 81.1423 441.579 83.4097 440.466 85.7391C438.219 90.5001 437.26 95.9388 438.065 101.299C438.659 106.618 440.787 111.92 443.811 116.549L443.435 116.794Z" fill="#E5E5E5"/>
<path d="M438.315 119.504C436.662 120.135 434.943 120.54 433.199 120.516C431.455 120.492 429.561 120.12 428.184 118.788C426.807 117.455 426.286 115.654 426.187 113.936C425.982 112.197 425.988 110.499 426.098 108.822C426.215 105.448 426.437 102.094 426.784 98.6585C427.236 95.2437 427.899 91.8702 429.068 88.7023C430.257 85.4322 431.846 82.347 433.922 79.5695C435.892 76.7715 438.158 74.1377 440.699 71.7703C443.24 69.4029 445.952 67.2813 448.939 65.4262C450.443 64.4475 452.011 63.694 453.58 62.9404C455.149 62.1869 456.908 61.5769 458.541 61.0485C465.076 58.9347 471.546 56.5959 477.845 54.0113C481.048 52.7293 484.165 51.3245 487.367 50.0425C490.59 48.6583 494.193 47.5612 497.846 47.3233C505.171 46.7452 512.226 48.6619 518.698 51.3138C521.925 52.6908 525.111 54.2723 528.067 55.9147C529.544 56.7358 530.982 57.7615 532.565 58.6034C534.023 59.5268 535.461 60.5524 536.898 61.578L536.733 61.864L532.174 59.482C530.571 58.7424 529.093 57.9212 527.47 57.2838C524.369 55.8252 521.122 54.5504 517.961 53.3985C511.493 51.2785 504.799 49.7511 498.21 50.4739C494.873 50.7738 491.856 51.6676 488.739 53.0724C485.642 54.3751 482.419 55.7593 479.132 56.9184C472.642 59.3594 466.087 61.5754 459.487 63.464C457.854 63.9924 456.24 64.4185 454.797 65.0905C453.333 65.8648 451.785 66.5161 450.301 67.3925C447.46 69.0639 444.663 71.0626 442.247 73.3484C437.33 77.7971 433.199 83.2497 430.691 89.3397C428.163 95.5319 427.614 102.219 427.171 108.927C427.06 110.604 426.949 112.281 427.069 113.897C427.188 115.513 427.623 117.191 428.811 118.38C429.998 119.569 431.661 120.002 433.385 120.128C435.128 120.152 436.827 119.849 438.356 119.299L438.315 119.504Z" fill="#E5E5E5"/>
<path d="M482.059 118.223C484.235 114.935 487.698 112.324 491.722 111.31C492.183 111.188 492.749 111.087 493.21 110.965C493.776 110.864 494.217 110.844 494.764 110.845C495.856 110.848 496.928 110.952 497.94 111.363C499.984 112.083 501.697 113.375 503.2 114.626C506.311 117.148 509.421 119.671 512.883 121.519C516.325 123.469 519.972 124.928 523.784 126.102C525.638 126.679 527.617 127.174 529.596 127.669C531.575 128.164 533.449 128.638 535.343 129.01C537.237 129.382 539.256 129.672 541.17 129.942C543.084 130.212 545.123 130.4 547.077 130.466C550.966 130.699 554.999 130.748 558.968 130.572C562.936 130.396 566.945 130.016 570.868 129.513L570.913 129.84C563.291 132.483 555.153 133.857 546.896 133.615C542.757 133.545 538.719 132.964 534.635 132.056C532.656 131.561 530.592 130.943 528.738 130.367C526.779 129.77 524.82 129.172 522.987 128.494C519.089 127.197 515.272 125.491 511.87 123.337C510.117 122.249 508.489 121.08 506.881 119.809C505.273 118.537 503.79 117.184 502.288 115.933C500.785 114.683 499.282 113.432 497.574 112.672C495.865 111.911 493.891 111.948 491.962 112.312C488.103 113.041 484.68 115.447 482.334 118.49L482.059 118.223Z" fill="#E5E5E5"/>
<path d="M544.559 177.217C547.295 177.755 550.095 178.517 552.751 179.464C554.078 179.937 555.386 180.512 556.693 181.088C558.001 181.663 559.309 182.238 560.596 182.916C561.884 183.594 563.171 184.271 564.438 185.051C565.706 185.831 566.808 186.897 567.784 188.044C569.632 190.318 571.064 193.042 571.384 195.865L571.133 196.028C569.16 193.835 567.462 191.909 565.514 190.146C563.565 188.383 561.722 186.641 559.398 185.123C558.235 184.363 557.053 183.706 555.891 182.947C554.709 182.29 553.526 181.633 552.239 180.956C549.769 179.621 547.239 178.593 544.584 177.647L544.559 177.217Z" fill="#E5E5E5"/>
<path d="M546.03 184.195C547.402 184.996 548.629 185.98 549.837 187.067C551.044 188.153 552.251 189.24 553.333 190.408C554.414 191.576 555.727 192.683 556.307 194.177C556.993 195.692 557.343 197.247 557.213 199.027L556.962 199.19C556.18 198.718 555.65 198.082 555.099 197.55C554.548 197.017 554.017 196.382 553.591 195.767C552.614 194.62 552.139 193.146 551.308 191.815C550.477 190.484 549.625 189.255 548.774 188.026C547.923 186.797 546.861 185.526 545.884 184.379L546.03 184.195Z" fill="#E5E5E5"/>
<path d="M546.179 196.222C546.68 198.126 547.2 199.927 547.7 201.83C548.201 203.733 548.616 205.513 549.011 207.396C549.406 209.278 550.137 211.121 550.196 213.043C550.361 214.987 550.19 216.97 549.578 218.974L549.242 219.014C548.666 218.051 548.281 217.232 547.935 216.209C547.57 215.288 547.31 214.387 547.049 213.487C546.529 211.686 546.595 209.682 546.41 207.84C546.246 205.897 546.186 203.974 546.022 202.031C545.962 200.108 545.798 198.165 545.844 196.263L546.179 196.222Z" fill="#E5E5E5"/>
<path d="M552.656 199.406C554.049 200.104 555.171 201.068 556.253 202.236C557.335 203.404 558.166 204.735 558.621 206.311C559.202 207.805 559.742 209.504 559.336 211.017C558.93 212.529 558.187 214.082 556.684 215.061L556.388 214.897C556.163 213.26 556.194 211.992 556.119 210.703C556.135 210.069 556.15 209.435 556.165 208.801C556.18 208.167 556.301 207.554 556.106 206.879C555.926 205.569 555.515 204.321 554.875 203.133C554.254 201.843 553.382 200.716 552.386 199.671L552.656 199.406Z" fill="#E5E5E5"/>
<path d="M558.583 190.377C559.961 191.71 561.193 193.226 562.174 194.905C563.156 196.584 563.866 198.529 564.156 200.39C564.551 202.273 564.906 204.36 564.42 206.282C564.219 207.304 563.828 208.182 563.331 209.04C562.835 209.899 562.233 210.736 561.441 211.43L561.146 211.265C561.001 209.22 561.112 207.543 561.138 205.743C561.193 204.905 561.249 204.066 561.324 203.125C561.485 202.308 561.56 201.367 561.511 200.508C561.411 198.789 561.101 197.03 560.561 195.331C560.02 193.632 559.144 191.974 558.248 190.417L558.583 190.377Z" fill="#E5E5E5"/>
<path d="M570.629 214.721L576.742 200.846C577.299 199.681 577.981 198.435 579.149 197.496C579.69 196.966 580.402 196.681 581.113 196.396C581.825 196.111 582.602 196.051 583.273 195.971C584.05 195.911 584.786 196.056 585.503 196.303C586.219 196.55 587.001 197.022 587.487 197.33C588.629 198.191 589.56 199.011 590.472 199.933C591.384 200.856 592.42 201.696 593.252 203.028C594.083 204.359 594.453 205.812 594.613 207.223C594.807 210.128 594.2 212.663 593.277 215.136C592.354 217.609 591.261 219.836 590.042 222.145C588.824 224.454 587.435 226.517 585.625 228.497L585.33 228.333C586.233 225.962 587.136 223.591 587.913 221.302C588.606 218.89 589.508 216.519 590.076 214.189C590.748 211.879 591.315 209.548 591.316 207.319C591.306 206.255 591.086 205.15 590.701 204.331C590.315 203.512 589.404 202.59 588.597 201.688C587.686 200.766 586.774 199.844 585.928 199.147C585.462 198.737 585.081 198.45 584.66 198.367C584.259 198.182 583.628 198.058 583.187 198.077C582.095 198.075 580.962 198.277 580.17 198.971C579.293 199.542 578.651 200.584 578.01 201.626C575.738 205.957 573.216 210.452 570.819 214.865L570.629 214.721Z" fill="#E5E5E5"/>
<path d="M569.405 216.498C569.75 217.522 569.99 218.524 570.105 219.609C570.22 220.693 570.335 221.777 570.239 222.82C570.144 223.863 569.903 225.09 569.261 226.132C568.95 226.601 568.514 227.153 567.907 227.458C567.301 227.764 566.715 227.967 566.254 228.089C565.332 228.332 564.58 228.822 563.788 229.516C563.392 229.862 563.016 230.107 562.725 230.475C562.434 230.842 562.249 231.231 562.209 231.435C562.189 231.537 562.189 231.537 562.274 231.66C562.274 231.66 562.359 231.783 562.464 231.804C562.549 231.927 562.76 231.968 562.865 231.989C562.97 232.009 563.075 232.03 563.181 232.051C563.621 232.031 564.373 231.542 565.165 230.848C566.749 229.46 568.584 227.91 570.739 226.953C571.826 226.423 573.084 226.139 574.322 225.958C575.559 225.776 576.717 226.004 577.599 225.965C579.132 225.947 580.761 224.887 582.029 223.438C583.297 221.988 584.12 220.026 585.048 218.085L585.363 218.147C585.383 220.274 585.046 222.544 583.973 224.669C582.92 226.691 580.9 228.63 577.983 229.013C576.64 229.174 575.673 229.09 574.771 229.231C573.889 229.27 572.967 229.514 572.13 229.88C570.266 230.47 568.723 231.653 566.948 232.897C566.447 233.223 566.051 233.57 565.445 233.876C564.838 234.181 564.127 234.466 563.265 234.403C563.054 234.362 562.844 234.32 562.633 234.279C562.423 234.238 562.213 234.196 562.022 234.053C561.727 233.888 561.326 233.703 561.05 233.437C560.775 233.171 560.414 232.781 560.284 232.331C560.154 231.881 560.149 231.349 560.23 230.94C560.496 230.143 560.932 229.591 561.328 229.245C561.744 228.795 562.245 228.469 562.641 228.122C563.538 227.449 564.751 226.838 565.883 226.636C566.45 226.535 566.911 226.413 567.267 226.271C567.622 226.128 568.018 225.781 568.289 225.516C568.871 224.781 569.156 223.881 569.357 222.859C569.654 220.794 569.635 218.667 569.154 216.661L569.405 216.498Z" fill="#E5E5E5"/>
<path d="M574.63 211.048C575.426 210.886 576.183 210.929 577.025 211.094C577.866 211.259 578.603 211.404 579.405 211.774C580.206 212.144 581.133 212.432 581.518 213.251C581.904 214.07 582.059 214.95 581.628 216.033L581.377 216.196C580.22 215.968 579.628 215.64 579.143 215.332C578.551 215.004 578.461 214.349 577.996 213.939C577.55 213.427 577.084 213.017 576.513 212.586C575.942 212.155 575.351 211.827 574.654 211.478L574.63 211.048Z" fill="#E5E5E5"/>
<path d="M517.513 131.877C519.676 134.214 522.256 136.101 525.187 137.313C528.013 138.506 531.164 138.594 534.316 138.682C535.954 138.686 537.488 138.668 539.146 138.569C540.805 138.471 542.338 138.453 543.957 138.559C547.193 138.77 550.325 138.961 553.692 139.622L553.737 139.949C550.575 141.027 547.323 141.45 544.111 141.668C540.899 141.886 537.597 141.45 534.38 141.137C532.782 140.929 531.078 140.7 529.5 140.39C527.816 140.06 526.173 139.524 524.695 138.703C521.74 137.061 519.345 134.786 517.473 132.082L517.513 131.877Z" fill="#E5E5E5"/>
<path d="M467.463 195.303C468.245 193.546 469.218 191.932 470.401 190.36C470.983 189.624 471.564 188.889 472.251 188.175C472.938 187.46 473.73 186.767 474.797 186.339C476.827 185.464 478.991 185.571 480.925 185.738C481.892 185.822 482.945 186.029 483.891 186.215C484.924 186.524 485.85 186.812 486.757 187.203C490.404 188.662 493.966 189.999 497.343 191.724C499.031 192.587 500.634 193.326 502.403 193.78C504.172 194.234 505.98 194.483 508.02 194.671L508.065 194.998C506.18 195.69 504.146 196.033 502.087 195.947C500.027 195.861 497.963 195.243 496.129 194.565C494.296 193.886 492.482 193.105 490.814 192.14C489.126 191.278 487.352 190.292 485.769 189.45C484.862 189.06 484.081 188.588 483.259 188.32C482.438 188.053 481.491 187.867 480.649 187.701C478.86 187.35 477.031 187.203 475.398 187.731C473.784 188.158 472.516 189.607 471.268 190.954C470.02 192.302 468.856 193.772 467.884 195.386L467.463 195.303Z" fill="#E5E5E5"/>
<path d="M502.288 192.696C499.252 191.462 496.236 190.127 493.2 188.893C490.164 187.66 487.108 186.528 484.012 185.602C483.275 185.457 482.453 185.189 481.697 185.147C480.855 184.982 480.099 184.939 479.257 184.774C477.658 184.566 476.165 184.379 474.863 184.335C473.455 184.271 472.177 184.657 470.944 185.37C469.711 186.084 468.523 187.124 467.505 188.411L467.21 188.246C467.426 186.59 468.188 184.935 469.542 183.608C470.208 182.996 470.98 182.404 471.837 181.936C472.694 181.467 473.721 181.244 474.623 181.103C476.533 180.841 478.321 181.192 479.985 181.625L482.364 182.305C483.186 182.573 484.008 182.84 484.829 183.108C487.971 184.362 490.966 185.8 493.942 187.34C496.793 188.962 499.748 190.604 502.473 192.307L502.288 192.696Z" fill="#E5E5E5"/>
<path d="M483.854 189.18C484.115 190.081 484.25 191.063 484.174 192.003C484.204 192.965 484.128 193.905 483.927 194.928C483.827 195.439 483.726 195.95 483.416 196.42C483.21 196.91 482.774 197.462 482.253 197.89C481.125 198.624 479.782 198.785 478.625 198.558C477.467 198.33 476.33 198.001 475.273 197.262C474.196 196.626 473.43 195.52 473.124 194.292C472.494 191.938 473.417 189.465 475.276 188.344L475.572 188.509C475.296 190.472 475.52 192.108 476.161 193.296C476.482 193.89 476.822 194.381 477.268 194.894C477.714 195.406 478.39 195.857 479.107 196.104C480.559 196.496 481.712 196.191 482.264 194.495C482.53 193.698 482.816 192.798 482.997 191.878C483.177 190.958 483.233 190.12 483.308 189.179L483.854 189.18Z" fill="#E5E5E5"/>
<path d="M478.659 188.372C477.301 189.167 476.599 190.515 476.904 191.743C477.104 192.95 478.311 194.037 479.002 193.854C479.654 193.876 480.085 192.793 480.496 191.812C480.702 191.322 480.888 190.933 480.903 190.299C480.918 189.665 480.828 189.011 480.673 188.131L480.924 187.968C481.851 188.256 482.612 188.83 483.103 189.67C483.594 190.509 483.814 191.614 483.613 192.637C483.412 193.659 482.916 194.517 482.103 195.313C481.707 195.66 481.206 195.986 480.62 196.189C480.034 196.393 479.362 196.473 478.731 196.349C477.468 196.101 476.642 195.302 476.026 194.544C475.535 193.704 475.275 192.803 475.35 191.863C475.501 189.981 477 188.471 478.594 188.147L478.659 188.372Z" fill="#E5E5E5"/>
<path d="M468.449 197.514C469.666 197.435 470.884 197.356 472.082 197.379C473.299 197.299 474.497 197.322 475.8 197.366C478.28 197.534 480.655 197.683 483.05 197.728C484.247 197.751 485.445 197.774 486.472 197.551C487.585 197.451 488.612 197.229 489.639 197.006C490.666 196.783 491.714 196.458 492.866 196.153L496.279 194.913L496.449 195.158C495.251 197.365 493.061 199.058 490.57 200.055C489.272 200.543 487.929 200.704 486.626 200.661C485.324 200.617 484.061 200.369 482.778 200.223C481.496 200.077 480.338 199.85 479.181 199.623L475.604 198.92C473.309 198.363 470.829 198.194 468.494 197.842L468.449 197.514Z" fill="#E5E5E5"/>
<path d="M493.143 194.19C491.83 195.313 490.327 196.291 488.653 197.024C486.979 197.757 485.155 198.142 483.371 198.322C481.567 198.605 479.848 199.011 478.059 198.659C477.218 198.494 476.271 198.308 475.449 198.04C474.627 197.773 473.721 197.382 472.959 196.808L473.02 196.501C473.962 196.155 474.758 195.993 475.66 195.852C476.562 195.711 477.359 195.549 478.241 195.51C479.92 195.309 481.583 195.742 483.327 195.766C485.07 195.79 486.709 195.793 488.303 195.469C490.001 195.166 491.53 194.617 493.098 193.863L493.143 194.19Z" fill="#E5E5E5"/>
<path d="M437.916 189.393C436.769 187.999 435.477 186.79 434.019 185.867C432.541 185.045 430.898 184.51 429.194 184.282C428.353 184.116 427.576 184.176 426.779 184.338C425.982 184.5 425.416 184.601 424.725 184.784C423.342 185.149 422.194 185.985 420.735 187.291L420.42 187.229C420.15 185.265 421.348 183.059 423.418 181.979C424.4 181.429 425.638 181.247 426.71 181.352C427.783 181.456 428.835 181.663 429.762 181.951C430.688 182.239 431.595 182.63 432.502 183.02C433.389 183.513 434.15 184.087 434.911 184.662C436.394 186.015 437.521 187.51 438.167 189.229L437.916 189.393Z" fill="#E5E5E5"/>
<path d="M436.358 188.98C434.921 187.954 433.212 187.194 431.614 186.986C429.91 186.758 428.167 186.734 426.869 187.222C426.262 187.528 425.741 187.956 425.535 188.446L425.019 189.407C424.833 189.795 424.397 190.346 423.876 190.775C422.708 191.713 421.28 191.751 420.143 191.422C419.006 191.092 418.139 190.497 417.523 189.739L417.688 189.453C418.675 189.435 419.557 189.395 420.354 189.234C421.046 189.051 421.547 188.725 421.712 188.439C421.838 188.357 421.898 188.05 422.169 187.785C422.354 187.397 422.665 186.927 423.081 186.478C423.913 185.58 425.001 185.05 426.153 184.746C427.201 184.42 428.273 184.525 429.345 184.629C430.397 184.836 431.239 185.001 432.146 185.392C433.979 186.071 435.607 187.24 436.754 188.633L436.358 188.98Z" fill="#E5E5E5"/>
<path d="M425.129 189.959C425.239 190.512 425.369 190.962 425.624 191.331C425.755 191.781 426.01 192.15 426.265 192.518C426.521 192.887 427.027 193.093 426.946 193.502C426.971 193.931 426.766 194.422 426.375 195.3L426.124 195.463C425.117 195.584 424.526 195.256 424.06 194.846C423.594 194.435 423.755 193.618 423.75 193.086C423.765 192.452 423.865 191.941 424.091 191.348C424.297 190.858 424.502 190.367 424.918 189.918L425.129 189.959Z" fill="#E5E5E5"/>
<path d="M423.624 193.167C423.889 194.6 424.656 195.706 425.627 196.321C426.113 196.629 426.745 196.753 427.376 196.877C428.113 197.022 428.659 197.023 429.31 197.045C429.961 197.066 430.548 196.863 431.134 196.66C431.72 196.456 432.307 196.253 432.873 196.152L434.822 195.686C435.514 195.503 436.205 195.32 437.002 195.158L437.173 195.404C436.746 197.019 435.518 198.264 434.054 199.038C432.591 199.813 430.742 199.768 429.144 199.56C428.302 199.395 427.46 199.229 426.764 198.88C426.068 198.531 425.266 198.161 424.63 197.505C423.443 196.317 422.902 194.618 423.289 193.207L423.624 193.167Z" fill="#E5E5E5"/>
<path d="M436.241 194.584C435.489 195.074 434.758 195.461 434.006 195.95C433.254 196.44 432.522 196.827 431.685 197.193C431.309 197.438 430.828 197.662 430.367 197.784C429.886 198.008 429.34 198.006 428.794 198.005C427.742 197.799 426.73 197.387 426.174 196.323L426.234 196.016C427.237 195.364 427.928 195.181 428.64 194.896C428.996 194.754 429.311 194.816 429.647 194.775C429.963 194.837 430.403 194.818 430.844 194.798C431.641 194.636 432.523 194.597 433.425 194.456C434.307 194.417 435.104 194.255 436.091 194.236L436.241 194.584Z" fill="#E5E5E5"/>
<path d="M433.353 188.708C433.528 189.486 433.683 190.366 433.627 191.204C433.677 192.063 433.642 192.799 433.566 193.74C433.386 194.66 432.744 195.702 431.867 196.273C430.99 196.844 430.048 197.19 428.935 197.29C428.389 197.288 427.738 197.267 427.126 197.04C426.515 196.814 426.029 196.506 425.563 196.096C424.737 195.297 424.181 194.232 424.046 193.25C423.797 191.184 424.599 189.324 426.038 188.12L426.333 188.285C426.383 189.144 426.558 189.921 426.628 190.678C426.823 191.354 426.913 192.008 427.128 192.581C427.343 193.155 427.579 193.626 427.834 193.994C428.089 194.363 428.26 194.609 428.891 194.733C429.417 194.836 430.089 194.756 430.695 194.45C431.281 194.247 431.677 193.9 431.923 193.205C432.149 192.612 432.415 191.815 432.575 190.997C432.716 190.282 432.877 189.464 432.932 188.625L433.353 188.708Z" fill="#E5E5E5"/>
<path d="M430.755 187.455C431.096 187.947 431.416 188.54 431.632 189.114C431.847 189.687 431.937 190.341 432.027 190.996C432.012 191.63 431.956 192.469 431.375 193.204C431.084 193.571 430.583 193.897 430.227 194.04C429.766 194.162 429.305 194.283 428.864 194.303C428.423 194.323 427.897 194.219 427.411 193.911C426.905 193.706 426.354 193.173 426.119 192.702C425.648 191.76 425.618 190.799 425.864 190.104C426.11 189.409 426.461 188.735 426.982 188.306C427.523 187.776 428.025 187.449 428.842 187.185L429.137 187.349C429.207 188.106 429.107 188.617 429.091 189.251C429.096 189.783 429.101 190.315 429.126 190.745C429.151 191.174 429.196 191.502 429.07 191.583C429.05 191.685 428.945 191.665 428.945 191.665C428.925 191.767 429.03 191.788 429.135 191.808C429.451 191.87 429.767 191.932 429.892 191.851C430.122 191.79 430.413 191.422 430.514 190.911C430.719 190.421 430.714 189.889 430.73 189.255C430.725 188.723 430.72 188.191 430.63 187.537L430.755 187.455Z" fill="#E5E5E5"/>
<path d="M466.697 264.271C463.215 264.754 459.662 264.481 456.23 263.595C454.462 263.141 452.879 262.299 451.406 262.01C450.669 261.865 449.827 261.7 449.071 261.657C448.314 261.615 447.432 261.654 446.55 261.693C444.787 261.771 443.128 261.87 441.364 261.948C440.482 261.987 439.706 262.047 438.824 262.086C437.942 262.125 437.06 262.164 436.008 261.958C435.061 261.772 434.134 261.483 433.312 261.216C432.912 261.031 432.491 260.948 432.195 260.784C431.88 260.722 431.669 260.681 431.353 260.619C430.807 260.617 429.95 261.086 428.943 261.207C427.936 261.327 426.969 261.244 426.167 260.874L426.228 260.567C427.13 260.426 427.926 260.264 428.553 259.856C429.159 259.551 429.721 258.918 430.893 258.511C431.48 258.308 432.151 258.227 432.677 258.331C433.223 258.332 433.749 258.435 434.17 258.518C435.012 258.683 435.749 258.828 436.505 258.87C437.156 258.892 437.933 258.832 438.815 258.793C439.697 258.754 440.559 258.817 441.421 258.88L446.612 259.157C447.473 259.22 448.335 259.283 449.302 259.367C450.249 259.553 451.091 259.718 452.018 260.007C453.871 260.583 455.329 261.507 456.867 262.021C460.009 263.275 463.396 263.834 466.883 263.882L466.697 264.271Z" fill="#E5E5E5"/>
<path d="M426.35 257.724C426.712 255.884 427.199 253.962 427.981 252.205C428.372 251.326 428.889 250.366 429.786 249.693C430.182 249.346 430.788 249.041 431.46 248.96C432.131 248.88 432.847 249.127 433.248 249.312C434.957 250.072 436.68 250.198 438.334 249.567C439.151 249.303 440.218 248.876 441.331 248.776C442.443 248.676 443.641 248.699 444.778 249.029C447.053 249.688 448.746 251.082 450.289 252.128C451.831 253.175 453.394 254.119 455.063 255.083C458.274 257.095 461.755 258.84 465.177 260.893L465.117 261.199C461.163 260.741 457.245 259.547 453.658 257.78C451.865 256.897 450.112 255.81 448.504 254.538C446.916 253.165 445.624 251.955 444.106 251.338C443.389 251.091 442.547 250.926 441.666 250.965C440.889 251.025 439.967 251.268 438.94 251.491C436.865 252.039 434.425 251.666 432.546 250.66C432.145 250.475 431.85 250.311 431.534 250.249C431.198 250.289 430.863 250.329 430.487 250.574C429.755 250.961 429.279 251.717 428.803 252.473C427.83 254.087 427.153 255.865 426.581 257.663L426.35 257.724Z" fill="#E5E5E5"/>
<path d="M453.617 271.893C451.187 272.584 448.817 272.967 446.256 273.208C443.696 273.448 441.195 273.381 438.735 273.11C436.275 272.839 433.479 272.608 431.155 271.09C430.584 270.659 429.993 270.331 429.442 269.798C428.891 269.265 428.465 268.651 428.145 268.057C427.504 266.869 427.113 265.518 427.144 264.25L427.5 264.108C428.286 265.112 429.112 265.911 429.959 266.608C430.806 267.306 431.587 267.778 432.599 268.189C434.518 268.99 436.732 269.956 439.047 270.411C441.362 270.866 443.802 271.239 446.177 271.387C448.552 271.535 451.072 271.499 453.507 271.341L453.617 271.893Z" fill="#E5E5E5"/>
<path d="M469.142 230.139C470.45 230.714 471.697 231.596 472.924 232.581C473.475 233.114 474.026 233.647 474.577 234.18C475.003 234.794 475.534 235.429 475.959 236.044C476.385 236.658 476.79 237.375 477.091 238.071C477.391 238.767 477.671 239.565 477.741 240.322C477.881 241.836 477.56 243.472 476.647 244.779L476.332 244.717C475.926 244 475.626 243.304 475.41 242.731C475.09 242.137 474.895 241.462 474.68 240.889C474.249 239.742 474.175 238.454 473.764 237.205C473.354 235.956 472.713 234.769 471.947 233.663C471.18 232.557 470.289 231.532 469.187 230.466L469.142 230.139Z" fill="#E5E5E5"/>
<path d="M452.666 280.624C450.832 279.946 449.083 279.39 447.255 279.243C445.446 278.994 443.577 279.051 441.793 279.232C440.009 279.412 438.461 280.063 436.847 280.49C436.03 280.754 435.318 281.039 434.481 281.405C433.645 281.772 432.913 282.159 431.931 282.709L431.635 282.545C432.037 280.5 433.576 278.785 435.415 277.766C436.397 277.216 437.445 276.891 438.537 276.893C439.649 276.793 440.616 276.877 441.709 276.879C442.781 276.984 443.643 277.047 444.695 277.254C445.642 277.44 446.694 277.646 447.621 277.935C449.455 278.613 451.268 279.394 452.896 280.564L452.666 280.624Z" fill="#E5E5E5"/>
<path d="M413.708 181.345C416.187 183.744 417.98 186.856 418.66 190.069C418.99 191.726 419.32 193.384 419.65 195.041C419.98 196.699 420.185 198.438 420.074 200.114C420.063 203.51 418.769 206.759 418.041 209.908C417.614 211.522 417.418 213.077 417.413 214.774C417.322 216.349 417.652 218.006 417.771 219.622C418.061 221.484 418.477 223.265 418.997 225.066C419.257 225.966 419.517 226.867 419.778 227.767C420.038 228.668 420.173 229.65 420.433 230.55C421.118 234.294 421.803 238.039 422.383 241.763C422.962 245.486 423.312 249.271 423.536 253.137C423.595 255.06 423.654 256.983 423.503 258.864C423.428 259.805 423.352 260.745 423.297 261.584C423.347 262.443 423.376 263.404 423.531 264.284C423.716 266.126 424.131 267.906 424.672 269.605C425.212 271.303 426.088 272.962 426.819 274.804C428.406 278.407 429.176 282.275 429.505 286.161C429.67 288.105 429.604 290.109 429.684 291.93C429.733 292.789 429.803 293.546 430.083 294.344C430.384 295.04 430.789 295.757 431.3 296.494C433.469 299.362 436.244 301.925 439.495 303.731L438.778 303.484C439.304 303.588 439.81 303.793 440.191 304.08L440.888 304.429C441.394 304.635 441.774 304.922 442.3 305.026C442.806 305.231 443.312 305.437 443.838 305.54L445.397 305.952C447.481 306.468 449.605 306.779 451.75 306.988C453.894 307.197 456.059 307.304 458.369 307.227C459.461 307.229 460.553 307.231 461.666 307.131L463.324 307.032L465.108 306.852L464.898 306.811C468.696 306.389 472.514 305.865 476.248 305.218C478.177 304.854 480.001 304.469 481.825 304.084L484.571 303.456L485.954 303.09L486.646 302.908L486.981 302.868L487.107 302.786L487.232 302.705C487.357 302.623 487.568 302.664 487.693 302.583L487.127 302.684C495.947 300.064 504.596 297.197 513.181 294.106C517.516 292.622 521.765 291.015 526.12 289.428C530.475 287.842 534.64 286.112 538.994 284.526L539.165 284.771C535.045 286.829 530.946 288.784 526.761 290.616C522.576 292.448 518.392 294.28 514.122 295.99C505.668 299.531 496.978 302.602 488.223 305.447L487.657 305.548C487.762 305.569 487.867 305.59 487.993 305.508C488.098 305.529 488.098 305.529 487.993 305.508L487.762 305.569L487.406 305.712L486.715 305.894L485.332 306.259C484.41 306.503 483.487 306.747 482.46 306.969C480.511 307.436 478.687 307.821 476.758 308.185C472.899 308.913 469.061 309.539 465.177 309.838L464.967 309.797L464.736 309.858L464.295 309.877L463.413 309.916L461.65 309.995C460.537 310.095 459.34 310.072 458.247 310.069C455.957 310.044 453.688 309.917 451.333 309.667C448.978 309.416 446.768 308.982 444.474 308.425L442.83 307.89C442.324 307.684 441.713 307.458 441.207 307.253C440.701 307.047 440.11 306.719 439.604 306.513L438.802 306.143C438.697 306.123 438.822 306.041 438.737 305.918L438.021 305.671C434.514 303.496 431.549 300.79 429.145 297.451C428.549 296.591 427.973 295.628 427.628 294.605C427.283 293.581 427.083 292.374 427.158 291.434C427.119 289.409 427.25 287.629 427.065 285.788C426.801 282.126 426.096 278.484 424.7 275.025C424.054 273.305 423.198 271.545 422.592 269.621C421.987 267.697 421.697 265.835 421.427 263.871C421.292 262.889 421.262 261.927 421.253 260.864C421.243 259.8 421.424 258.88 421.499 257.94C421.65 256.058 421.676 254.258 421.597 252.438C421.458 248.694 421.109 244.91 420.634 241.207C420.16 237.504 419.58 233.78 419 230.056C418.845 229.176 418.71 228.194 418.45 227.294C418.295 226.414 417.929 225.493 417.669 224.592C417.149 222.791 416.774 220.807 416.484 218.945C416.279 217.206 416.074 215.467 416.185 213.79C416.296 212.113 416.532 210.354 416.959 208.739C417.812 205.51 419.086 202.362 419.182 199.09C419.293 197.413 419.069 195.776 418.844 194.14C418.619 192.503 418.289 190.845 417.959 189.188C417.279 185.975 415.591 182.883 413.322 180.527L413.708 181.345Z" fill="#E5E5E5"/>
<path d="M585.557 237.189C583.276 240.457 580.193 243.355 577.001 245.701C575.352 246.863 573.683 248.128 571.653 249.003C569.538 249.756 567.123 249.812 564.954 249.174C562.764 248.637 560.8 247.508 559.047 246.421C558.16 245.928 557.294 245.333 556.597 244.984C556.302 244.82 555.986 244.758 556.091 244.778C556.091 244.778 556.197 244.799 556.217 244.697C556.217 244.697 556.217 244.697 556.342 244.615C556.507 244.329 556.487 244.431 556.467 244.534C556.221 245.228 556.126 246.271 556.05 247.212C555.87 248.132 555.774 249.175 555.698 250.116C555.422 252.079 555.146 254.042 554.639 256.066L554.303 256.106C553.823 254.1 553.553 252.136 553.409 250.091C553.274 249.109 553.264 248.045 553.234 247.084C553.225 246.02 553.175 245.161 553.331 243.811C553.391 243.505 553.491 242.993 554.053 242.361C554.324 242.095 554.574 241.932 554.825 241.769C555.075 241.606 555.411 241.566 555.642 241.505C556.774 241.303 557.576 241.672 558.082 241.878C559.284 242.433 560.045 243.007 560.912 243.602C562.54 244.771 564.083 245.817 565.811 246.476C567.54 247.134 569.389 247.178 571.108 246.773C572.847 246.265 574.581 245.225 576.21 244.165C577.944 243.126 579.573 242.065 581.136 240.78C582.7 239.495 584.159 238.189 585.447 236.637L585.557 237.189Z" fill="#E5E5E5"/>
<path d="M575.502 249.441C573.41 257.311 572.454 265.511 572.592 273.713C572.854 281.834 573.748 290.078 576.275 297.794C576.881 299.718 577.611 301.561 578.427 303.526C579.263 305.389 580.12 307.15 581.061 309.033C582.963 312.698 584.886 316.261 587.205 319.477C589.629 322.714 592.594 325.42 595.83 327.86C599.171 330.322 602.823 332.313 606.661 333.917L606.6 334.223C598.288 332.59 590.223 328.033 584.659 321.313C583.236 319.653 582.065 317.83 581.018 315.926C579.972 314.022 579.03 312.138 578.194 310.275C576.417 306.528 574.91 302.516 573.739 298.464C572.568 294.412 571.838 290.34 571.464 286.126C571.07 282.014 570.906 277.841 570.953 273.71C571.152 265.467 572.653 257.269 575.187 249.379L575.502 249.441Z" fill="#E5E5E5"/>
<path d="M464.861 312.006C465.621 317.039 466.506 321.991 467.601 326.984C468.696 331.977 469.917 336.888 471.243 341.82C472.464 346.731 474 351.705 474.404 356.88C474.553 359.458 474.702 362.035 474.536 364.551C474.475 367.087 473.973 369.643 473.576 372.219L473.26 372.157C472.775 369.62 472.626 367.042 472.331 364.648C471.952 362.132 471.677 359.636 471.277 357.222C470.392 352.27 469.718 347.36 468.727 342.388C467.737 337.415 466.767 332.341 466.008 327.308C465.353 322.295 464.824 317.201 464.505 312.148L464.861 312.006Z" fill="#E5E5E5"/>
<path d="M468.123 347.683C466.93 348.192 465.758 348.598 464.67 349.128C463.477 349.637 462.305 350.044 461.237 350.471C460.065 350.877 459.042 351.632 457.804 351.814C457.133 351.894 456.567 351.995 455.935 351.871C455.284 351.849 454.653 351.725 453.811 351.56L453.766 351.233C454.222 350.579 454.744 350.151 455.265 349.722C455.786 349.294 456.392 348.988 456.874 348.764C457.981 348.132 459.369 348.299 460.627 348.015C461.865 347.834 463.102 347.652 464.425 347.594C465.643 347.514 466.986 347.353 468.288 347.397L468.123 347.683Z" fill="#E5E5E5"/>
<path d="M512.229 307.297C512.278 310.385 512.327 313.474 512.586 316.604C512.74 319.713 512.999 322.843 513.279 325.871C513.558 328.898 514.258 332.009 514.413 335.118C514.567 338.227 514.721 341.337 514.329 344.445L513.993 344.485C512.601 341.557 511.776 338.528 511.201 335.336C510.606 332.247 510.682 329.077 510.653 325.886C510.624 322.695 510.681 319.627 510.862 316.477C511.044 313.328 511.331 310.199 511.828 307.112L512.229 307.297Z" fill="#E5E5E5"/>
<path d="M469.379 328.501C469.964 330.527 470.695 332.369 471.762 334.172C472.252 335.011 472.848 335.871 473.444 336.732C474.04 337.592 474.656 338.35 475.398 339.026C476.139 339.703 476.88 340.379 477.642 340.954C478.403 341.528 479.144 342.204 480.011 342.799C481.494 344.152 483.102 345.424 484.649 347.002L484.484 347.288C483.286 347.265 482.234 347.058 481.097 346.729C480.065 346.42 478.968 345.886 477.996 345.27C476.032 344.141 474.65 342.277 473.353 340.536C472.056 338.795 471.029 336.788 470.233 334.721C469.543 332.674 469.082 330.566 468.958 328.418L469.379 328.501Z" fill="#E5E5E5"/>
</svg>
