<svg width="298" height="84" viewBox="0 0 298 84" fill="none" xmlns="http://www.w3.org/2000/svg">
<path d="M71.8736 31.3147L62.8362 22.2108C62.3801 21.751 61.8384 21.3862 61.2424 21.1374C60.6464 20.8885 60.0072 20.7604 59.3621 20.7604C58.7166 20.7604 58.0778 20.8885 57.4814 21.1374C56.8854 21.3862 56.3437 21.751 55.8876 22.2108L47.3701 30.7911L38.8481 22.2108C38.3917 21.751 37.8503 21.3862 37.2539 21.1374C36.6579 20.8885 36.0189 20.7604 35.3736 20.7604C34.7283 20.7604 34.0893 20.8885 33.4931 21.1374C32.8969 21.3862 32.3553 21.751 31.8992 22.2108L22.8573 31.3147C22.4008 31.7743 22.0387 32.3199 21.7917 32.9204C21.5447 33.521 21.4175 34.1647 21.4175 34.8148C21.4175 35.4649 21.5447 36.1086 21.7917 36.7091C22.0387 37.3097 22.4008 37.8551 22.8573 38.3147L31.3747 46.8953L47.3653 63.0037L63.3513 46.8953L71.8688 38.3147C72.326 37.8555 72.6882 37.3104 72.9357 36.7099C73.1831 36.1095 73.3105 35.4658 73.3112 34.8157C73.3116 34.1657 73.1845 33.5219 72.9379 32.9212C72.6916 32.3204 72.3297 31.7746 71.8736 31.3147Z" fill="#00B2C2"/>
<path d="M95.857 31.3147L86.8199 22.2108C86.3638 21.751 85.8221 21.3862 85.2261 21.1374C84.6297 20.8885 83.9905 20.7604 83.3454 20.7604C82.7003 20.7604 82.0611 20.8885 81.4651 21.1374C80.8687 21.3862 80.327 21.751 79.8709 22.2108L71.3538 30.7911L62.8362 22.2108C62.3802 21.751 61.8384 21.3862 61.2421 21.1374C60.6461 20.8885 60.0072 20.7604 59.3618 20.7604C58.7166 20.7604 58.0774 20.8885 57.4814 21.1374C56.8851 21.3862 56.3433 21.751 55.8873 22.2108L46.8454 31.3147C45.9259 32.244 45.4097 33.5026 45.4097 34.8148C45.4097 36.1269 45.9259 37.3855 46.8454 38.3147L55.3629 46.8953L71.3538 63.0037L87.3442 46.8953L95.8618 38.3147C96.3178 37.8551 96.6797 37.3089 96.926 36.7084C97.1727 36.1077 97.2997 35.4639 97.2993 34.8138C97.2986 34.1637 97.1716 33.5201 96.9238 32.9197C96.6764 32.3193 96.3141 31.7739 95.857 31.3147Z" fill="#36D1DC"/>
<path d="M120.895 41.5852L116.931 34.2289H113.53V41.5852H109.304V21.1248H118.025C118.895 21.0812 119.764 21.2138 120.581 21.5148C121.398 21.8157 122.147 22.2787 122.782 22.8763C123.399 23.5093 123.878 24.2646 124.188 25.0939C124.498 25.9233 124.632 26.8084 124.582 27.6928C124.582 30.5111 123.385 32.5332 121.315 33.5443L125.644 41.5852H120.895ZM113.49 30.5031H117.454C118.199 30.5031 118.912 30.2062 119.439 29.6777C119.965 29.1491 120.261 28.4323 120.261 27.6848C120.261 26.9374 119.965 26.2205 119.439 25.692C118.912 25.1635 118.199 24.8666 117.454 24.8666H113.49V30.5031Z" fill="#00B2C2"/>
<path d="M144.514 24.4418H135.537V28.9889H143.324V32.6951H135.537V37.7401H144.538V41.5852H131.261V20.605H144.514V24.4418Z" fill="#00B2C2"/>
<path d="M163.431 24.836H154.792V29.2722H161.837V32.9916H154.792V41.5852H150.666V21.1167H163.431V24.836Z" fill="#00B2C2"/>
<path d="M186.964 23.499C187.977 24.4859 188.768 25.6722 189.287 26.9808C189.805 28.2895 190.039 29.6912 189.974 31.095C190.037 32.5034 189.802 33.9093 189.284 35.2228C188.766 36.5363 187.975 37.7282 186.964 38.7229C184.831 40.568 182.093 41.5852 179.258 41.5852C176.422 41.5852 173.684 40.568 171.551 38.7229C170.541 37.7279 169.752 36.5353 169.235 35.2219C168.718 33.9084 168.485 32.5029 168.549 31.095C168.482 29.6917 168.714 28.2902 169.232 26.9815C169.749 25.6728 170.539 24.4863 171.551 23.499C173.674 21.6347 176.416 20.605 179.258 20.605C182.098 20.605 184.84 21.6347 186.964 23.499ZM174.642 26.1632C174.029 26.8272 173.557 27.6057 173.254 28.4527C172.95 29.2998 172.822 30.1982 172.876 31.095C172.827 31.9915 172.957 32.8886 173.261 33.735C173.563 34.5812 174.033 35.3602 174.642 36.0269C175.24 36.6364 175.961 37.114 176.76 37.4281C177.558 37.7423 178.414 37.8866 179.273 37.8507C180.124 37.8892 180.973 37.7464 181.763 37.4315C182.552 37.1169 183.264 36.6378 183.849 36.0269C184.458 35.3602 184.927 34.5812 185.23 33.735C185.533 32.8886 185.664 31.9915 185.615 31.095C185.669 30.1982 185.54 29.2998 185.237 28.4527C184.934 27.6057 184.462 26.8272 183.849 26.1632C183.262 25.5539 182.551 25.0759 181.761 24.7613C180.972 24.4467 180.123 24.3029 179.273 24.3395C178.415 24.3056 177.559 24.4505 176.761 24.7647C175.963 25.0789 175.241 25.5554 174.642 26.1632Z" fill="#00B2C2"/>
<path d="M207.703 41.5852L203.739 34.2289H200.338V41.5852H196.112V21.1248H204.833C205.703 21.0812 206.572 21.2138 207.389 21.5148C208.207 21.8157 208.955 22.2787 209.59 22.8763C210.207 23.5093 210.686 24.2646 210.996 25.0939C211.306 25.9233 211.44 26.8084 211.39 27.6928C211.39 30.5111 210.193 32.5332 208.116 33.5443L212.452 41.5852H207.703ZM200.291 30.5031H204.294C205.039 30.5031 205.752 30.2062 206.279 29.6777C206.805 29.1491 207.101 28.4323 207.101 27.6848C207.101 26.9374 206.805 26.2205 206.279 25.692C205.752 25.1635 205.039 24.8666 204.294 24.8666H200.291V30.5031Z" fill="#00B2C2"/>
<path d="M235.431 21.1167V33.087C235.431 35.7541 234.637 37.8563 233.111 39.3624C231.313 40.8004 229.069 41.5852 226.754 41.5852C224.44 41.5852 222.196 40.8004 220.398 39.3624C218.809 37.88 218.069 35.7776 218.069 33.087V21.1167H222.281V33.0322C222.281 36.1698 223.83 37.88 226.778 37.88C229.726 37.88 231.26 36.1855 231.26 33.0322V21.1167H235.431Z" fill="#00B2C2"/>
<path d="M264.027 41.5212H259.832V32.4612L253.076 41.5852L246.296 32.5012V41.5612H242.07V20.605L253.076 35.0738L264.027 20.605V41.5212Z" fill="#00B2C2"/>
<path d="M118.743 58.7504L121.249 52.6347H122.965L118.769 62.7524L116.136 56.4643L113.504 62.7524L109.292 52.6347H111.008L113.517 58.7504L116.115 52.5022L118.743 58.7504Z" fill="#13293D"/>
<path d="M126.25 62.5799H124.671V52.6346H126.25V62.5799Z" fill="#13293D"/>
<path d="M134.751 58.83V52.6347H136.331V62.7391L130.289 56.4114V62.58H128.709V52.4652L134.751 58.83Z" fill="#13293D"/>
<path d="M144.834 58.83V52.6347H146.413V62.7391L140.372 56.4114V62.58H138.792V52.4652L144.834 58.83Z" fill="#13293D"/>
<path d="M150.454 62.5799H148.875V52.6346H150.454V62.5799Z" fill="#13293D"/>
<path d="M158.955 58.83V52.6347H160.534V62.7391L154.503 56.4114V62.58H152.924V52.4652L158.955 58.83Z" fill="#13293D"/>
<path d="M172.126 57.3687V57.899C172.126 59.3762 171.705 60.5511 170.873 61.4236C170.041 62.2962 168.919 62.7258 167.506 62.7258C166.855 62.7506 166.206 62.6418 165.599 62.4068C164.991 62.1715 164.437 61.8144 163.97 61.3574C163.059 60.4397 162.599 59.1908 162.599 57.6207C162.599 56.0506 163.046 54.8013 163.957 53.884C164.868 52.9663 166.063 52.5156 167.493 52.5156C168.558 52.4856 169.602 52.8131 170.462 53.4462C171.292 54.0572 171.858 54.9656 172.042 55.9843L170.418 56.2497C170.154 54.7987 169.059 53.921 167.487 53.921C165.482 53.921 164.202 55.2258 164.202 57.6181C164.202 60.0101 165.494 61.3148 167.487 61.3148C169.085 61.3148 170.18 60.4767 170.431 58.7741H168.203V57.3794L172.126 57.3687Z" fill="#13293D"/>
<path d="M185.118 54.0323H181.606V62.5799H180.026V54.0323H176.515V52.6346H185.107L185.118 54.0323Z" fill="#13293D"/>
<path d="M194.514 62.5799H192.934V58.1535H188.288V62.5799H186.708V52.6346H188.288V56.7429H192.934V52.6346H194.514V62.5799Z" fill="#13293D"/>
<path d="M203.186 54.0323H198.552V56.7691H202.604V58.1402H198.552V61.1716H203.186V62.5799H196.983V52.6346H203.186V54.0323Z" fill="#13293D"/>
<path d="M217.393 62.5799H215.814V58.1535H211.17V62.5799H209.59V52.6346H211.17V56.7429H215.814V52.6346H217.393V62.5799Z" fill="#13293D"/>
<path d="M226.063 54.0323H221.429V56.7691H225.481V58.1402H221.429V61.1716H226.063V62.5799H219.86V52.6346H226.063V54.0323Z" fill="#13293D"/>
<path d="M236.832 62.58H235.118L234.221 60.7235H229.745L228.851 62.58H227.134L231.978 52.4493L236.832 62.58ZM230.42 59.31H233.56L231.98 56.0532L230.42 59.31Z" fill="#13293D"/>
<path d="M244.278 62.58L242.193 58.777H240.016V62.58H238.436V52.6347H242.422C242.83 52.6147 243.239 52.6761 243.624 52.8156C244.009 52.9548 244.362 53.169 244.665 53.4465C245.234 53.9768 245.523 54.7354 245.523 55.706C245.523 57.1033 244.875 58.0714 243.82 58.5117L246.039 62.58H244.278ZM240.016 57.3686H242.245C243.235 57.3686 243.933 56.7692 243.933 55.706C243.933 54.6425 243.235 54.0323 242.245 54.0323H240.016V57.3686Z" fill="#13293D"/>
<path d="M255.455 54.0323H251.946V62.5799H250.366V54.0323H246.86V52.6346H255.45L255.455 54.0323Z" fill="#13293D"/>
<path d="M262.766 53.2737C263.083 53.5276 263.339 53.8502 263.515 54.2177C263.691 54.5848 263.782 54.9878 263.782 55.3955L262.187 55.4884C262.134 54.4912 261.397 53.8784 260.3 53.8784C259.139 53.8784 258.456 54.4912 258.456 55.3822C258.439 55.578 258.475 55.7745 258.561 55.9506C258.648 56.1267 258.781 56.2751 258.946 56.3795C259.483 56.6492 260.056 56.8413 260.647 56.9497C261.795 57.2306 262.456 57.48 263.09 57.8937C263.724 58.3074 264.027 58.9306 264.027 59.782C264.027 60.7527 263.695 61.4979 263.024 61.9882C262.271 62.5048 261.373 62.7616 260.463 62.7206C259.49 62.7616 258.531 62.4823 257.73 61.9246C257.387 61.6663 257.109 61.331 256.917 60.9462C256.725 60.561 256.623 60.1362 256.622 59.7051L258.22 59.6122C258.286 60.6731 259.209 61.3547 260.463 61.3547C261.663 61.3547 262.429 60.8615 262.429 59.8642C262.442 59.6614 262.397 59.4594 262.301 59.281C262.205 59.1023 262.062 58.9543 261.887 58.8536C261.313 58.5609 260.7 58.3511 260.068 58.2304C259.416 58.0976 258.783 57.8874 258.18 57.6047C257.309 57.1803 256.901 56.5808 256.848 55.4248C256.836 55.0351 256.91 54.6477 257.062 54.2895C257.214 53.9313 257.442 53.6112 257.73 53.3507C258.325 52.7919 259.17 52.5129 260.265 52.5129C261.302 52.5022 262.129 52.7542 262.766 53.2737Z" fill="#13293D"/>
</svg>
